<svg enable-background="new 0 0 30 30" viewBox="0 0 30 30" xmlns="http://www.w3.org/2000/svg">
	<path d="m27.5 21.7c-3.4-.7-6.4-2.3-8.7-4.9-1.6-1.8-2.4-3.4-3.9-5.2-1.9-2.5-5.1-3.7-7.9-2.2-.6.3-1.3.8-1.6 1.3-.5.7-.4 1.3-1.2 1.7-.4.2-.9.4-1.4.7-.8.5-1.3 1.2-1.4 2.3 5.1-.9 7.3 3.3 8.5 7.3.1.5.9.3.7-.2-.1-.3-.1-.7-.2-1 .8.6 1.7 1.1 2.8.9.2 0 0-.8 0-.9.6.3 1.6 1 2.4.9.2 0 0-.8 0-.9.6.3 1.6 1 2.4.9.2 0 0-.8 0-.9.6.3 1.6 1 2.4.9.2 0 0-.8 0-.9.6.3 1.6 1 2.4.9.2 0 0-.8 0-.9.6.3 1.6 1 2.4.9.2 0-.3-.9-.4-1 .7.2 1.9 1 2.6 1.1.4 0 .6-.7.1-.8zm-17.9-8c-.8 0-1.4-.6-1.4-1.4s.6-1.3 1.4-1.3 1.4.6 1.4 1.4c0 .7-.7 1.3-1.4 1.3z" fill="#adff2f"/>
</svg>