<?xml version="1.0" encoding="utf-8"?>
<!-- Generator: Adobe Illustrator 23.0.4, SVG Export Plug-In . SVG Version: 6.00 Build 0)  -->
<svg version="1.1" xmlns="http://www.w3.org/2000/svg" xmlns:xlink="http://www.w3.org/1999/xlink" x="0px" y="0px"
	 viewBox="0 0 245 86.5" style="enable-background:new 0 0 245 86.5;" xml:space="preserve">
<style type="text/css">
	.st0{fill:none;stroke:#AEAEAE;stroke-width:0.2526;stroke-miterlimit:10;}
	.st1{fill:none;stroke:#000000;stroke-width:0.5144;stroke-miterlimit:10;}
	.st2{fill:none;stroke:#000000;stroke-miterlimit:10;}
</style>
<g id="Calque_2">
	<g>
		<path d="M15.9,6.4l0.5,1.5c0,0.1,0,0.1,0.1,0.2c0,0.1,0,0.1,0,0.2c0,0.1,0,0.1,0,0.2h0c0-0.1,0-0.1,0-0.2c0-0.1,0-0.1,0-0.2
			c0-0.1,0-0.1,0.1-0.2l0.5-1.5H18v4.4h-0.6v-3c0-0.1,0-0.2,0-0.3c0-0.1,0-0.2,0-0.3c0-0.1,0-0.2,0-0.3h-0.1c0,0.1,0,0.2-0.1,0.3
			c0,0.1,0,0.2-0.1,0.3s-0.1,0.2-0.1,0.3l-0.3,1.1h-0.5l-0.4-1.1c0-0.1-0.1-0.2-0.1-0.3s-0.1-0.2-0.1-0.3c0-0.1,0-0.2-0.1-0.3h-0.1
			c0,0.1,0,0.2,0,0.3c0,0.1,0,0.2,0,0.3c0,0.1,0,0.2,0,0.3v3h-0.6V6.4H15.9z"/>
		<path d="M20.2,11c-0.2,0-0.4,0-0.6-0.1c-0.2-0.1-0.3-0.2-0.4-0.3s-0.2-0.3-0.3-0.4s-0.1-0.3-0.1-0.5V8.8c0-0.2,0-0.4,0.1-0.5
			s0.2-0.3,0.3-0.4s0.3-0.2,0.4-0.3c0.2-0.1,0.4-0.1,0.6-0.1c0.2,0,0.4,0,0.6,0.1c0.2,0.1,0.3,0.2,0.4,0.3s0.2,0.3,0.3,0.4
			c0.1,0.2,0.1,0.3,0.1,0.6v0.9c0,0.2,0,0.4-0.1,0.6c-0.1,0.2-0.2,0.3-0.3,0.4s-0.3,0.2-0.5,0.3C20.6,10.9,20.4,11,20.2,11z
			 M19.5,9.6c0,0.2,0.1,0.4,0.2,0.5c0.1,0.1,0.3,0.2,0.5,0.2c0.2,0,0.4-0.1,0.5-0.2C20.9,10,21,9.8,21,9.6V8.8
			c0-0.2-0.1-0.4-0.2-0.5C20.6,8.1,20.5,8,20.2,8s-0.4,0.1-0.5,0.2c-0.1,0.1-0.2,0.3-0.2,0.5V9.6z"/>
		<path d="M22.6,7.5h0.6v0.6h0.1c0-0.2,0.1-0.4,0.3-0.5c0.2-0.1,0.4-0.2,0.6-0.2c0.2,0,0.3,0,0.5,0.1c0.1,0.1,0.3,0.1,0.4,0.2
			c0.1,0.1,0.2,0.2,0.2,0.4c0,0.1,0.1,0.3,0.1,0.5v2.2h-0.7V8.7c0-0.2-0.1-0.4-0.2-0.5C24.3,8.1,24.2,8,23.9,8
			c-0.2,0-0.4,0.1-0.5,0.2s-0.2,0.3-0.2,0.6v2.1h-0.7V7.5z"/>
		<path d="M26.2,11h3v0.6h-3V11z"/>
		<path d="M29.9,10h0.7c0,0.1,0.1,0.2,0.2,0.3s0.3,0.1,0.4,0.1h0.2c0.2,0,0.4,0,0.5-0.1c0.1-0.1,0.2-0.2,0.2-0.3
			c0-0.2-0.2-0.4-0.5-0.4l-0.5-0.1c-0.4,0-0.6-0.2-0.8-0.3S30,8.7,30,8.4c0-0.3,0.1-0.6,0.3-0.7s0.5-0.3,0.9-0.3h0.2
			c0.4,0,0.6,0.1,0.9,0.2c0.2,0.2,0.4,0.4,0.4,0.6H32c0-0.1-0.1-0.2-0.2-0.2C31.7,8,31.6,8,31.5,8h-0.2c-0.2,0-0.3,0-0.4,0.1
			c-0.1,0.1-0.2,0.2-0.2,0.3c0,0.1,0,0.2,0.1,0.3c0.1,0.1,0.2,0.1,0.4,0.1l0.5,0.1c0.4,0.1,0.7,0.2,0.9,0.3s0.3,0.4,0.3,0.7
			c0,0.3-0.1,0.6-0.3,0.8c-0.2,0.2-0.6,0.3-1,0.3h-0.2c-0.4,0-0.7-0.1-0.9-0.2C30.1,10.5,29.9,10.3,29.9,10z"/>
		<path d="M33.7,10.3H35V8.1h-1.1V7.5h1.7v2.8h1v0.6h-2.9V10.3z M34.7,6.6c0-0.1,0-0.2,0.1-0.3c0.1-0.1,0.2-0.1,0.3-0.1h0.1
			c0.1,0,0.2,0,0.3,0.1c0.1,0.1,0.1,0.2,0.1,0.3c0,0.1,0,0.2-0.1,0.3C35.5,6.9,35.4,7,35.3,7h-0.1c-0.1,0-0.2,0-0.3-0.1
			C34.8,6.8,34.7,6.7,34.7,6.6z"/>
		<path d="M37.2,7.5h1v-1h0.7v1h1.3v0.6h-1.3v1.8c0,0.1,0,0.2,0.1,0.3s0.2,0.1,0.3,0.1h0.9v0.6h-0.9c-0.3,0-0.6-0.1-0.8-0.3
			c-0.2-0.2-0.3-0.4-0.3-0.7V8.1h-1V7.5z"/>
		<path d="M41,8.7c0-0.2,0-0.4,0.1-0.5c0.1-0.2,0.2-0.3,0.3-0.4s0.3-0.2,0.5-0.3c0.2-0.1,0.4-0.1,0.6-0.1c0.2,0,0.4,0,0.6,0.1
			c0.2,0.1,0.3,0.1,0.4,0.3s0.2,0.3,0.3,0.4s0.1,0.3,0.1,0.5v0.6h-2.2v0.2c0,0.2,0.1,0.4,0.2,0.6s0.3,0.2,0.6,0.2
			c0.2,0,0.3,0,0.5-0.1c0.1-0.1,0.2-0.1,0.3-0.2h0.7c0,0.1-0.1,0.3-0.2,0.4c-0.1,0.1-0.2,0.2-0.3,0.3c-0.1,0.1-0.3,0.1-0.4,0.2
			c-0.2,0-0.3,0.1-0.5,0.1c-0.2,0-0.4,0-0.6-0.1c-0.2-0.1-0.3-0.2-0.4-0.3s-0.2-0.3-0.3-0.4S41,9.8,41,9.6V8.7z M41.7,8.9h1.5V8.7
			c0-0.2-0.1-0.4-0.2-0.5C42.9,8.1,42.7,8,42.5,8c-0.2,0-0.4,0.1-0.6,0.2s-0.2,0.3-0.2,0.5V8.9z"/>
		<path d="M26.2,22.5c-0.2,0-0.4,0-0.6-0.1c-0.2-0.1-0.3-0.2-0.4-0.3s-0.2-0.3-0.3-0.4c-0.1-0.2-0.1-0.3-0.1-0.5v-0.9
			c0-0.2,0-0.4,0.1-0.5c0.1-0.2,0.2-0.3,0.3-0.4s0.3-0.2,0.4-0.3C25.8,19,26,19,26.2,19c0.2,0,0.4,0,0.5,0.1
			c0.2,0.1,0.3,0.1,0.4,0.2c0.1,0.1,0.2,0.2,0.3,0.4c0.1,0.1,0.1,0.3,0.2,0.5h-0.7c0-0.2-0.1-0.3-0.2-0.4s-0.3-0.2-0.5-0.2
			c-0.2,0-0.4,0.1-0.5,0.2c-0.1,0.1-0.2,0.3-0.2,0.5v0.9c0,0.2,0.1,0.4,0.2,0.5c0.1,0.1,0.3,0.2,0.5,0.2c0.2,0,0.4-0.1,0.5-0.2
			s0.2-0.2,0.2-0.4h0.7c-0.1,0.4-0.2,0.6-0.5,0.9S26.6,22.5,26.2,22.5z"/>
		<path d="M28.4,21.6h0.7c0,0.1,0.1,0.2,0.2,0.3s0.3,0.1,0.4,0.1H30c0.2,0,0.4,0,0.5-0.1c0.1-0.1,0.2-0.2,0.2-0.3
			c0-0.2-0.2-0.4-0.5-0.4l-0.5-0.1c-0.4,0-0.6-0.2-0.8-0.3s-0.3-0.4-0.3-0.7c0-0.3,0.1-0.6,0.3-0.7s0.5-0.3,0.9-0.3H30
			c0.4,0,0.6,0.1,0.9,0.2c0.2,0.2,0.4,0.4,0.4,0.6h-0.7c0-0.1-0.1-0.2-0.2-0.2c-0.1-0.1-0.2-0.1-0.4-0.1h-0.2c-0.2,0-0.3,0-0.4,0.1
			c-0.1,0.1-0.2,0.2-0.2,0.3c0,0.1,0,0.2,0.1,0.3c0.1,0.1,0.2,0.1,0.4,0.1l0.5,0.1c0.4,0.1,0.7,0.2,0.9,0.3s0.3,0.4,0.3,0.7
			c0,0.3-0.1,0.6-0.3,0.8c-0.2,0.2-0.6,0.3-1,0.3h-0.2c-0.4,0-0.7-0.1-0.9-0.2C28.6,22.1,28.4,21.8,28.4,21.6z"/>
		<path d="M32.1,21.6h0.7c0,0.1,0.1,0.2,0.2,0.3s0.3,0.1,0.4,0.1h0.2c0.2,0,0.4,0,0.5-0.1c0.1-0.1,0.2-0.2,0.2-0.3
			c0-0.2-0.2-0.4-0.5-0.4l-0.5-0.1c-0.4,0-0.6-0.2-0.8-0.3s-0.3-0.4-0.3-0.7c0-0.3,0.1-0.6,0.3-0.7s0.5-0.3,0.9-0.3h0.2
			c0.4,0,0.6,0.1,0.9,0.2c0.2,0.2,0.4,0.4,0.4,0.6h-0.7c0-0.1-0.1-0.2-0.2-0.2c-0.1-0.1-0.2-0.1-0.4-0.1h-0.2c-0.2,0-0.3,0-0.4,0.1
			c-0.1,0.1-0.2,0.2-0.2,0.3c0,0.1,0,0.2,0.1,0.3c0.1,0.1,0.2,0.1,0.4,0.1l0.5,0.1c0.4,0.1,0.7,0.2,0.9,0.3s0.3,0.4,0.3,0.7
			c0,0.3-0.1,0.6-0.3,0.8c-0.2,0.2-0.6,0.3-1,0.3h-0.2c-0.4,0-0.7-0.1-0.9-0.2C32.3,22.1,32.2,21.8,32.1,21.6z"/>
		<path d="M33.6,33.1h0.7c0,0.1,0.1,0.2,0.2,0.3s0.3,0.1,0.4,0.1h0.2c0.2,0,0.4,0,0.5-0.1c0.1-0.1,0.2-0.2,0.2-0.3
			c0-0.2-0.2-0.4-0.5-0.4l-0.5-0.1c-0.4,0-0.6-0.2-0.8-0.3s-0.3-0.4-0.3-0.7c0-0.3,0.1-0.6,0.3-0.7s0.5-0.3,0.9-0.3h0.2
			c0.4,0,0.6,0.1,0.9,0.2c0.2,0.2,0.4,0.4,0.4,0.6h-0.7c0-0.1-0.1-0.2-0.2-0.2c-0.1-0.1-0.2-0.1-0.4-0.1H35c-0.2,0-0.3,0-0.4,0.1
			c-0.1,0.1-0.2,0.2-0.2,0.3c0,0.1,0,0.2,0.1,0.3c0.1,0.1,0.2,0.1,0.4,0.1l0.5,0.1c0.4,0.1,0.7,0.2,0.9,0.3s0.3,0.4,0.3,0.7
			c0,0.3-0.1,0.6-0.3,0.8c-0.2,0.2-0.6,0.3-1,0.3h-0.2c-0.4,0-0.7-0.1-0.9-0.2C33.8,33.6,33.6,33.4,33.6,33.1z"/>
		<path d="M37.2,30.5h1v-1h0.7v1h1.3v0.6h-1.3V33c0,0.1,0,0.2,0.1,0.3s0.2,0.1,0.3,0.1h0.9v0.6h-0.9c-0.3,0-0.6-0.1-0.8-0.3
			c-0.2-0.2-0.3-0.4-0.3-0.7v-1.8h-1V30.5z"/>
		<path d="M40.9,30.5h0.7l0.7,1.9c0,0.1,0.1,0.2,0.1,0.2c0,0.1,0,0.2,0,0.2c0,0.1,0,0.2,0,0.2h0c0-0.1,0-0.1,0-0.2
			c0-0.1,0-0.1,0-0.2c0-0.1,0-0.2,0.1-0.2l0.7-1.9H44L42.4,35h-0.7l0.5-1.3L40.9,30.5z"/>
		<path d="M44.5,30.1v-0.6h1.8v3.4c0,0.1,0,0.2,0.1,0.3s0.2,0.1,0.3,0.1h1v0.6h-1c-0.3,0-0.6-0.1-0.8-0.3c-0.2-0.2-0.3-0.4-0.3-0.8
			v-2.8H44.5z"/>
		<path d="M48.4,31.8c0-0.2,0-0.4,0.1-0.5c0.1-0.2,0.2-0.3,0.3-0.4s0.3-0.2,0.5-0.3c0.2-0.1,0.4-0.1,0.6-0.1c0.2,0,0.4,0,0.6,0.1
			c0.2,0.1,0.3,0.1,0.4,0.3s0.2,0.3,0.3,0.4s0.1,0.3,0.1,0.5v0.6h-2.2v0.2c0,0.2,0.1,0.4,0.2,0.6s0.3,0.2,0.6,0.2
			c0.2,0,0.3,0,0.5-0.1c0.1-0.1,0.2-0.1,0.3-0.2h0.7c0,0.1-0.1,0.3-0.2,0.4c-0.1,0.1-0.2,0.2-0.3,0.3c-0.1,0.1-0.3,0.1-0.4,0.2
			C50.2,34,50,34,49.9,34c-0.2,0-0.4,0-0.6-0.1c-0.2-0.1-0.3-0.2-0.4-0.3s-0.2-0.3-0.3-0.4s-0.1-0.3-0.1-0.5V31.8z M49.1,31.9h1.5
			v-0.1c0-0.2-0.1-0.4-0.2-0.5c-0.1-0.1-0.3-0.2-0.6-0.2c-0.2,0-0.4,0.1-0.6,0.2s-0.2,0.3-0.2,0.5V31.9z"/>
		<path d="M53,33.4c0-0.2,0.1-0.3,0.2-0.4c0.1-0.1,0.2-0.2,0.4-0.2s0.3,0.1,0.4,0.2c0.1,0.1,0.2,0.2,0.2,0.4s-0.1,0.3-0.2,0.4
			c-0.1,0.1-0.2,0.2-0.4,0.2s-0.3-0.1-0.4-0.2C53,33.7,53,33.6,53,33.4z"/>
		<path d="M57.3,34c-0.2,0-0.4,0-0.6-0.1c-0.2-0.1-0.3-0.2-0.4-0.3s-0.2-0.3-0.3-0.4c-0.1-0.2-0.1-0.3-0.1-0.5v-0.9
			c0-0.2,0-0.4,0.1-0.5c0.1-0.2,0.2-0.3,0.3-0.4s0.3-0.2,0.4-0.3c0.2-0.1,0.4-0.1,0.6-0.1c0.2,0,0.4,0,0.5,0.1
			c0.2,0.1,0.3,0.1,0.4,0.2c0.1,0.1,0.2,0.2,0.3,0.4c0.1,0.1,0.1,0.3,0.2,0.5h-0.7c0-0.2-0.1-0.3-0.2-0.4s-0.3-0.2-0.5-0.2
			c-0.2,0-0.4,0.1-0.5,0.2c-0.1,0.1-0.2,0.3-0.2,0.5v0.9c0,0.2,0.1,0.4,0.2,0.5c0.1,0.1,0.3,0.2,0.5,0.2c0.2,0,0.4-0.1,0.5-0.2
			s0.2-0.2,0.2-0.4h0.7c-0.1,0.4-0.2,0.6-0.5,0.9S57.7,34,57.3,34z"/>
		<path d="M59.5,33.1h0.7c0,0.1,0.1,0.2,0.2,0.3s0.3,0.1,0.4,0.1h0.2c0.2,0,0.4,0,0.5-0.1c0.1-0.1,0.2-0.2,0.2-0.3
			c0-0.2-0.2-0.4-0.5-0.4l-0.5-0.1c-0.4,0-0.6-0.2-0.8-0.3s-0.3-0.4-0.3-0.7c0-0.3,0.1-0.6,0.3-0.7s0.5-0.3,0.9-0.3h0.2
			c0.4,0,0.6,0.1,0.9,0.2c0.2,0.2,0.4,0.4,0.4,0.6h-0.7c0-0.1-0.1-0.2-0.2-0.2c-0.1-0.1-0.2-0.1-0.4-0.1h-0.2c-0.2,0-0.3,0-0.4,0.1
			c-0.1,0.1-0.2,0.2-0.2,0.3c0,0.1,0,0.2,0.1,0.3c0.1,0.1,0.2,0.1,0.4,0.1l0.5,0.1c0.4,0.1,0.7,0.2,0.9,0.3s0.3,0.4,0.3,0.7
			c0,0.3-0.1,0.6-0.3,0.8c-0.2,0.2-0.6,0.3-1,0.3h-0.2c-0.4,0-0.7-0.1-0.9-0.2C59.7,33.6,59.6,33.4,59.5,33.1z"/>
		<path d="M63.2,33.1h0.7c0,0.1,0.1,0.2,0.2,0.3s0.3,0.1,0.4,0.1h0.2c0.2,0,0.4,0,0.5-0.1c0.1-0.1,0.2-0.2,0.2-0.3
			c0-0.2-0.2-0.4-0.5-0.4l-0.5-0.1c-0.4,0-0.6-0.2-0.8-0.3s-0.3-0.4-0.3-0.7c0-0.3,0.1-0.6,0.3-0.7s0.5-0.3,0.9-0.3h0.2
			c0.4,0,0.6,0.1,0.9,0.2c0.2,0.2,0.4,0.4,0.4,0.6h-0.7c0-0.1-0.1-0.2-0.2-0.2C65.1,31.1,65,31,64.8,31h-0.2c-0.2,0-0.3,0-0.4,0.1
			C64,31.2,64,31.3,64,31.5c0,0.1,0,0.2,0.1,0.3c0.1,0.1,0.2,0.1,0.4,0.1l0.5,0.1c0.4,0.1,0.7,0.2,0.9,0.3s0.3,0.4,0.3,0.7
			c0,0.3-0.1,0.6-0.3,0.8c-0.2,0.2-0.6,0.3-1,0.3h-0.2c-0.4,0-0.7-0.1-0.9-0.2C63.4,33.6,63.3,33.4,63.2,33.1z"/>
		<path d="M24.9,44.8h1.2v-2.2H25v-0.6h1.7v2.8h1v0.6h-2.9V44.8z M25.8,41.1c0-0.1,0-0.2,0.1-0.3c0.1-0.1,0.2-0.1,0.3-0.1h0.1
			c0.1,0,0.2,0,0.3,0.1c0.1,0.1,0.1,0.2,0.1,0.3c0,0.1,0,0.2-0.1,0.3c-0.1,0.1-0.2,0.1-0.3,0.1h-0.1c-0.1,0-0.2,0-0.3-0.1
			C25.9,41.3,25.8,41.3,25.8,41.1z"/>
		<path d="M28.3,45.5v-3.4h0.6v0.5h0c0-0.2,0.1-0.3,0.2-0.4c0.1-0.1,0.2-0.1,0.4-0.1c0.2,0,0.3,0,0.4,0.1c0.1,0.1,0.2,0.2,0.2,0.4h0
			c0-0.2,0.1-0.3,0.2-0.4c0.1-0.1,0.2-0.1,0.4-0.1c0.2,0,0.4,0.1,0.5,0.2s0.2,0.4,0.2,0.6v2.6h-0.6v-2.6c0-0.1,0-0.2-0.1-0.3
			c-0.1-0.1-0.1-0.1-0.2-0.1c-0.2,0-0.3,0.1-0.3,0.4v2.5h-0.5v-2.6c0-0.1,0-0.2-0.1-0.3c-0.1-0.1-0.1-0.1-0.2-0.1
			c-0.2,0-0.3,0.1-0.3,0.4v2.5H28.3z"/>
		<path d="M32.1,44.5c0-0.3,0.1-0.6,0.3-0.8c0.2-0.2,0.5-0.3,0.9-0.3h0.9v-0.3c0-0.2-0.1-0.3-0.2-0.4c-0.1-0.1-0.3-0.2-0.5-0.2
			c-0.2,0-0.3,0-0.5,0.1s-0.2,0.2-0.2,0.3h-0.7c0.1-0.3,0.2-0.5,0.5-0.7c0.2-0.2,0.6-0.2,0.9-0.2c0.4,0,0.8,0.1,1,0.3
			c0.2,0.2,0.4,0.5,0.4,0.8v2.3h-0.6v-0.7h0c0,0.2-0.2,0.4-0.4,0.5c-0.2,0.1-0.4,0.2-0.7,0.2c-0.3,0-0.6-0.1-0.8-0.3
			C32.2,45.1,32.1,44.8,32.1,44.5z M32.7,44.4c0,0.2,0.1,0.3,0.2,0.4s0.3,0.1,0.5,0.1c0.1,0,0.2,0,0.4,0c0.1,0,0.2-0.1,0.3-0.1
			c0.1-0.1,0.1-0.1,0.2-0.2c0-0.1,0.1-0.2,0.1-0.3v-0.4h-0.9c-0.2,0-0.3,0-0.4,0.1S32.7,44.3,32.7,44.4z"/>
		<path d="M35.8,43.3c0-0.2,0-0.4,0.1-0.5s0.1-0.3,0.2-0.4c0.1-0.1,0.2-0.2,0.4-0.3C36.6,42,36.8,42,37,42c0.3,0,0.5,0.1,0.6,0.2
			c0.2,0.1,0.3,0.3,0.3,0.5h0v-0.6h0.6v3.2c0,0.4-0.1,0.7-0.4,0.9c-0.2,0.2-0.6,0.3-1,0.3h-0.9v-0.6h0.9c0.2,0,0.4-0.1,0.5-0.2
			c0.1-0.1,0.2-0.3,0.2-0.5v-0.1l0-0.6h0c-0.1,0.2-0.2,0.4-0.3,0.5c-0.2,0.1-0.4,0.2-0.6,0.2c-0.2,0-0.3,0-0.5-0.1
			c-0.1-0.1-0.3-0.1-0.4-0.3c-0.1-0.1-0.2-0.2-0.2-0.4c-0.1-0.2-0.1-0.3-0.1-0.5V43.3z M36.5,43.9c0,0.2,0.1,0.4,0.2,0.5
			c0.1,0.1,0.3,0.2,0.5,0.2c0.2,0,0.4-0.1,0.5-0.2c0.1-0.1,0.2-0.3,0.2-0.5v-0.6c0-0.2-0.1-0.4-0.2-0.5c-0.1-0.1-0.3-0.2-0.5-0.2
			c-0.2,0-0.4,0.1-0.5,0.2c-0.1,0.1-0.2,0.3-0.2,0.5V43.9z"/>
		<path d="M39.5,43.3c0-0.2,0-0.4,0.1-0.5c0.1-0.2,0.2-0.3,0.3-0.4s0.3-0.2,0.5-0.3C40.6,42,40.8,42,41,42c0.2,0,0.4,0,0.6,0.1
			c0.2,0.1,0.3,0.1,0.4,0.3s0.2,0.3,0.3,0.4s0.1,0.3,0.1,0.5v0.6h-2.2v0.2c0,0.2,0.1,0.4,0.2,0.6S40.7,45,41,45c0.2,0,0.3,0,0.5-0.1
			c0.1-0.1,0.2-0.1,0.3-0.2h0.7c0,0.1-0.1,0.3-0.2,0.4c-0.1,0.1-0.2,0.2-0.3,0.3c-0.1,0.1-0.3,0.1-0.4,0.2c-0.2,0-0.3,0.1-0.5,0.1
			c-0.2,0-0.4,0-0.6-0.1c-0.2-0.1-0.3-0.2-0.4-0.3s-0.2-0.3-0.3-0.4s-0.1-0.3-0.1-0.5V43.3z M40.2,43.4h1.5v-0.1
			c0-0.2-0.1-0.4-0.2-0.5c-0.1-0.1-0.3-0.2-0.6-0.2c-0.2,0-0.4,0.1-0.6,0.2s-0.2,0.3-0.2,0.5V43.4z"/>
		<path d="M43.2,44.6h0.7c0,0.1,0.1,0.2,0.2,0.3s0.3,0.1,0.4,0.1h0.2c0.2,0,0.4,0,0.5-0.1c0.1-0.1,0.2-0.2,0.2-0.3
			c0-0.2-0.2-0.4-0.5-0.4L44.4,44c-0.4,0-0.6-0.2-0.8-0.3s-0.3-0.4-0.3-0.7c0-0.3,0.1-0.6,0.3-0.7s0.5-0.3,0.9-0.3h0.2
			c0.4,0,0.6,0.1,0.9,0.2c0.2,0.2,0.4,0.4,0.4,0.6h-0.7c0-0.1-0.1-0.2-0.2-0.2c-0.1-0.1-0.2-0.1-0.4-0.1h-0.2c-0.2,0-0.3,0-0.4,0.1
			C44,42.7,44,42.8,44,43c0,0.1,0,0.2,0.1,0.3c0.1,0.1,0.2,0.1,0.4,0.1l0.5,0.1c0.4,0.1,0.7,0.2,0.9,0.3s0.3,0.4,0.3,0.7
			c0,0.3-0.1,0.6-0.3,0.8c-0.2,0.2-0.6,0.3-1,0.3h-0.2c-0.4,0-0.7-0.1-0.9-0.2C43.4,45.1,43.3,44.9,43.2,44.6z"/>
		<path d="M33.7,56.4H35v-2.2h-1.1v-0.6h1.7v2.8h1V57h-2.9V56.4z M34.7,52.7c0-0.1,0-0.2,0.1-0.3c0.1-0.1,0.2-0.1,0.3-0.1h0.1
			c0.1,0,0.2,0,0.3,0.1c0.1,0.1,0.1,0.2,0.1,0.3c0,0.1,0,0.2-0.1,0.3C35.5,53,35.4,53,35.3,53h-0.1c-0.1,0-0.2,0-0.3-0.1
			C34.8,52.9,34.7,52.8,34.7,52.7z"/>
		<path d="M37.2,57v-3.4h0.6v0.5h0c0-0.2,0.1-0.3,0.2-0.4c0.1-0.1,0.2-0.1,0.4-0.1c0.2,0,0.3,0,0.4,0.1c0.1,0.1,0.2,0.2,0.2,0.4h0
			c0-0.2,0.1-0.3,0.2-0.4c0.1-0.1,0.2-0.1,0.4-0.1c0.2,0,0.4,0.1,0.5,0.2s0.2,0.4,0.2,0.6V57h-0.6v-2.6c0-0.1,0-0.2-0.1-0.3
			c-0.1-0.1-0.1-0.1-0.2-0.1c-0.2,0-0.3,0.1-0.3,0.4V57h-0.5v-2.6c0-0.1,0-0.2-0.1-0.3c-0.1-0.1-0.1-0.1-0.2-0.1
			c-0.2,0-0.3,0.1-0.3,0.4V57H37.2z"/>
		<path d="M40.9,56c0-0.3,0.1-0.6,0.3-0.8c0.2-0.2,0.5-0.3,0.9-0.3h0.9v-0.3c0-0.2-0.1-0.3-0.2-0.4c-0.1-0.1-0.3-0.2-0.5-0.2
			c-0.2,0-0.3,0-0.5,0.1s-0.2,0.2-0.2,0.3h-0.7c0.1-0.3,0.2-0.5,0.5-0.7c0.2-0.2,0.6-0.2,0.9-0.2c0.4,0,0.8,0.1,1,0.3
			c0.2,0.2,0.4,0.5,0.4,0.8V57h-0.6v-0.7h0c0,0.2-0.2,0.4-0.4,0.5C42.6,57,42.3,57,42.1,57c-0.3,0-0.6-0.1-0.8-0.3
			C41,56.6,40.9,56.3,40.9,56z M41.6,56c0,0.2,0.1,0.3,0.2,0.4s0.3,0.1,0.5,0.1c0.1,0,0.2,0,0.4,0c0.1,0,0.2-0.1,0.3-0.1
			c0.1-0.1,0.1-0.1,0.2-0.2c0-0.1,0.1-0.2,0.1-0.3v-0.4h-0.9c-0.2,0-0.3,0-0.4,0.1S41.6,55.8,41.6,56z"/>
		<path d="M44.7,54.8c0-0.2,0-0.4,0.1-0.5s0.1-0.3,0.2-0.4c0.1-0.1,0.2-0.2,0.4-0.3c0.1-0.1,0.3-0.1,0.5-0.1c0.3,0,0.5,0.1,0.6,0.2
			c0.2,0.1,0.3,0.3,0.3,0.5h0v-0.6h0.6v3.2c0,0.4-0.1,0.7-0.4,0.9c-0.2,0.2-0.6,0.3-1,0.3h-0.9v-0.6h0.9c0.2,0,0.4-0.1,0.5-0.2
			c0.1-0.1,0.2-0.3,0.2-0.5v-0.1l0-0.6h0c-0.1,0.2-0.2,0.4-0.3,0.5c-0.2,0.1-0.4,0.2-0.6,0.2c-0.2,0-0.3,0-0.5-0.1
			c-0.1-0.1-0.3-0.1-0.4-0.3c-0.1-0.1-0.2-0.2-0.2-0.4c-0.1-0.2-0.1-0.3-0.1-0.5V54.8z M45.4,55.4c0,0.2,0.1,0.4,0.2,0.5
			c0.1,0.1,0.3,0.2,0.5,0.2c0.2,0,0.4-0.1,0.5-0.2c0.1-0.1,0.2-0.3,0.2-0.5v-0.6c0-0.2-0.1-0.4-0.2-0.5c-0.1-0.1-0.3-0.2-0.5-0.2
			c-0.2,0-0.4,0.1-0.5,0.2c-0.1,0.1-0.2,0.3-0.2,0.5V55.4z"/>
		<path d="M48.4,54.8c0-0.2,0-0.4,0.1-0.5c0.1-0.2,0.2-0.3,0.3-0.4s0.3-0.2,0.5-0.3c0.2-0.1,0.4-0.1,0.6-0.1c0.2,0,0.4,0,0.6,0.1
			c0.2,0.1,0.3,0.1,0.4,0.3s0.2,0.3,0.3,0.4s0.1,0.3,0.1,0.5v0.6h-2.2v0.2c0,0.2,0.1,0.4,0.2,0.6s0.3,0.2,0.6,0.2
			c0.2,0,0.3,0,0.5-0.1c0.1-0.1,0.2-0.1,0.3-0.2h0.7c0,0.1-0.1,0.3-0.2,0.4c-0.1,0.1-0.2,0.2-0.3,0.3c-0.1,0.1-0.3,0.1-0.4,0.2
			C50.2,57,50,57,49.9,57c-0.2,0-0.4,0-0.6-0.1c-0.2-0.1-0.3-0.2-0.4-0.3s-0.2-0.3-0.3-0.4s-0.1-0.3-0.1-0.5V54.8z M49.1,55h1.5
			v-0.1c0-0.2-0.1-0.4-0.2-0.5c-0.1-0.1-0.3-0.2-0.6-0.2c-0.2,0-0.4,0.1-0.6,0.2s-0.2,0.3-0.2,0.5V55z"/>
		<path d="M53,56.5c0-0.2,0.1-0.3,0.2-0.4c0.1-0.1,0.2-0.2,0.4-0.2s0.3,0.1,0.4,0.2c0.1,0.1,0.2,0.2,0.2,0.4s-0.1,0.3-0.2,0.4
			C53.9,57,53.7,57,53.6,57s-0.3-0.1-0.4-0.2C53,56.8,53,56.6,53,56.5z"/>
		<path d="M55.9,57.4h0.8c0.2,0,0.4-0.1,0.5-0.2c0.1-0.1,0.2-0.3,0.2-0.5v-2.5h-1.4v-0.6h2.1v3.1c0,0.2,0,0.4-0.1,0.5
			s-0.2,0.3-0.3,0.4c-0.1,0.1-0.3,0.2-0.4,0.3C57.2,58,57,58,56.8,58h-0.9V57.4z M57.3,52.7c0-0.1,0-0.2,0.1-0.3
			c0.1-0.1,0.2-0.1,0.3-0.1h0.1c0.1,0,0.2,0,0.3,0.1c0.1,0.1,0.1,0.2,0.1,0.3c0,0.1,0,0.2-0.1,0.3C58.1,53,58,53,57.9,53h-0.1
			c-0.1,0-0.2,0-0.3-0.1C57.3,52.9,57.3,52.8,57.3,52.7z"/>
		<path d="M59.6,53.6h0.6v0.6h0c0-0.2,0.1-0.4,0.3-0.5s0.4-0.2,0.6-0.2c0.2,0,0.3,0,0.5,0.1c0.1,0.1,0.3,0.2,0.4,0.3
			c0.1,0.1,0.2,0.3,0.2,0.4c0.1,0.2,0.1,0.3,0.1,0.6v0.9c0,0.2,0,0.4-0.1,0.6c-0.1,0.2-0.1,0.3-0.2,0.4c-0.1,0.1-0.2,0.2-0.4,0.3
			C61.6,57,61.4,57,61.2,57c-0.2,0-0.5-0.1-0.6-0.2c-0.2-0.1-0.3-0.3-0.3-0.5h0c0,0,0,0,0,0.1c0,0,0,0.1,0,0.1c0,0.1,0,0.1,0,0.2
			c0,0.1,0,0.1,0,0.2v1h-0.7V53.6z M60.3,54.9v0.8c0,0.2,0.1,0.4,0.2,0.5c0.1,0.1,0.3,0.2,0.5,0.2c0.2,0,0.4-0.1,0.5-0.2
			c0.1-0.1,0.2-0.3,0.2-0.5v-0.8c0-0.2-0.1-0.4-0.2-0.6c-0.1-0.1-0.3-0.2-0.5-0.2c-0.2,0-0.4,0.1-0.5,0.2
			C60.4,54.5,60.3,54.6,60.3,54.9z"/>
		<path d="M63.2,54.8c0-0.2,0-0.4,0.1-0.5s0.1-0.3,0.2-0.4c0.1-0.1,0.2-0.2,0.4-0.3c0.1-0.1,0.3-0.1,0.5-0.1c0.3,0,0.5,0.1,0.6,0.2
			c0.2,0.1,0.3,0.3,0.3,0.5h0v-0.6H66v3.2c0,0.4-0.1,0.7-0.4,0.9c-0.2,0.2-0.6,0.3-1,0.3h-0.9v-0.6h0.9c0.2,0,0.4-0.1,0.5-0.2
			c0.1-0.1,0.2-0.3,0.2-0.5v-0.1l0-0.6h0c-0.1,0.2-0.2,0.4-0.3,0.5c-0.2,0.1-0.4,0.2-0.6,0.2c-0.2,0-0.3,0-0.5-0.1
			c-0.1-0.1-0.3-0.1-0.4-0.3c-0.1-0.1-0.2-0.2-0.2-0.4c-0.1-0.2-0.1-0.3-0.1-0.5V54.8z M63.9,55.4c0,0.2,0.1,0.4,0.2,0.5
			c0.1,0.1,0.3,0.2,0.5,0.2c0.2,0,0.4-0.1,0.5-0.2c0.1-0.1,0.2-0.3,0.2-0.5v-0.6c0-0.2-0.1-0.4-0.2-0.5c-0.1-0.1-0.3-0.2-0.5-0.2
			c-0.2,0-0.4,0.1-0.5,0.2c-0.1,0.1-0.2,0.3-0.2,0.5V55.4z"/>
		<path d="M24.9,67.9h1.2v-2.2H25v-0.6h1.7v2.8h1v0.6h-2.9V67.9z M25.8,64.2c0-0.1,0-0.2,0.1-0.3c0.1-0.1,0.2-0.1,0.3-0.1h0.1
			c0.1,0,0.2,0,0.3,0.1c0.1,0.1,0.1,0.2,0.1,0.3c0,0.1,0,0.2-0.1,0.3c-0.1,0.1-0.2,0.1-0.3,0.1h-0.1c-0.1,0-0.2,0-0.3-0.1
			C25.9,64.4,25.8,64.3,25.8,64.2z"/>
		<path d="M28,65.1h0.6v0.6h0.1c0-0.2,0.1-0.4,0.3-0.5c0.2-0.1,0.4-0.2,0.6-0.2c0.2,0,0.3,0,0.5,0.1c0.1,0.1,0.3,0.1,0.4,0.2
			c0.1,0.1,0.2,0.2,0.2,0.4c0,0.1,0.1,0.3,0.1,0.5v2.2H30v-2.1c0-0.2-0.1-0.4-0.2-0.5c-0.1-0.1-0.3-0.2-0.5-0.2
			c-0.2,0-0.4,0.1-0.5,0.2s-0.2,0.3-0.2,0.6v2.1H28V65.1z"/>
		<path d="M31.2,66.4c0-0.2,0-0.4,0.1-0.6s0.1-0.3,0.2-0.4c0.1-0.1,0.2-0.2,0.4-0.3c0.1-0.1,0.3-0.1,0.5-0.1c0.2,0,0.5,0.1,0.6,0.2
			s0.3,0.3,0.3,0.5h0.1c0-0.1,0-0.1,0-0.2c0-0.1,0-0.1,0-0.2c0-0.1,0-0.1,0-0.2v-1h0.7v4.4h-0.6v-0.6h-0.1c0,0.2-0.1,0.4-0.3,0.5
			c-0.2,0.1-0.4,0.2-0.6,0.2c-0.2,0-0.3,0-0.5-0.1c-0.1-0.1-0.3-0.2-0.4-0.3c-0.1-0.1-0.2-0.3-0.2-0.4c-0.1-0.2-0.1-0.4-0.1-0.6
			V66.4z M31.8,66.4v0.8c0,0.2,0.1,0.4,0.2,0.5c0.1,0.1,0.3,0.2,0.5,0.2c0.2,0,0.4-0.1,0.5-0.2c0.1-0.1,0.2-0.3,0.2-0.5v-0.8
			c0-0.2-0.1-0.4-0.2-0.5c-0.1-0.1-0.3-0.2-0.5-0.2c-0.2,0-0.4,0.1-0.5,0.2C31.9,66,31.8,66.2,31.8,66.4z"/>
		<path d="M34.4,66.4c0-0.2,0-0.4,0.1-0.5c0.1-0.2,0.2-0.3,0.3-0.4s0.3-0.2,0.5-0.3c0.2-0.1,0.4-0.1,0.6-0.1c0.2,0,0.4,0,0.6,0.1
			c0.2,0.1,0.3,0.1,0.4,0.3s0.2,0.3,0.3,0.4s0.1,0.3,0.1,0.5V67H35v0.2c0,0.2,0.1,0.4,0.2,0.6s0.3,0.2,0.6,0.2c0.2,0,0.3,0,0.5-0.1
			c0.1-0.1,0.2-0.1,0.3-0.2h0.7c0,0.1-0.1,0.3-0.2,0.4c-0.1,0.1-0.2,0.2-0.3,0.3c-0.1,0.1-0.3,0.1-0.4,0.2c-0.2,0-0.3,0.1-0.5,0.1
			c-0.2,0-0.4,0-0.6-0.1c-0.2-0.1-0.3-0.2-0.4-0.3s-0.2-0.3-0.3-0.4s-0.1-0.3-0.1-0.5V66.4z M35,66.5h1.5v-0.1
			c0-0.2-0.1-0.4-0.2-0.5c-0.1-0.1-0.3-0.2-0.6-0.2c-0.2,0-0.4,0.1-0.6,0.2S35,66.1,35,66.4V66.5z"/>
		<path d="M38.6,66.8l-1.1-1.6h0.8l0.6,1c0,0,0.1,0.1,0.1,0.2c0,0,0,0,0,0.1h0c0,0,0,0,0-0.1c0,0,0-0.1,0.1-0.2l0.6-1h0.8l-1.1,1.6
			l1.2,1.8h-0.8l-0.7-1c0,0,0-0.1-0.1-0.1c0,0,0-0.1,0-0.1c0,0,0,0,0-0.1h0c0,0,0,0.1,0,0.1c0,0,0,0,0,0.1c0,0,0,0.1,0,0.1l-0.7,1
			h-0.8L38.6,66.8z"/>
		<path d="M41.6,68c0-0.2,0.1-0.3,0.2-0.4c0.1-0.1,0.2-0.2,0.4-0.2s0.3,0.1,0.4,0.2c0.1,0.1,0.2,0.2,0.2,0.4s-0.1,0.3-0.2,0.4
			c-0.1,0.1-0.2,0.2-0.4,0.2s-0.3-0.1-0.4-0.2C41.7,68.3,41.6,68.2,41.6,68z"/>
		<path d="M44.1,68.5v-4.4h0.7v1c0,0.1,0,0.1,0,0.2c0,0.1,0,0.1,0,0.2c0,0.1,0,0.1,0,0.2h0.1c0-0.2,0.1-0.4,0.3-0.5
			c0.2-0.1,0.4-0.2,0.6-0.2c0.2,0,0.3,0,0.5,0.1c0.1,0.1,0.3,0.1,0.4,0.2s0.2,0.2,0.2,0.4c0.1,0.2,0.1,0.3,0.1,0.5v2.2h-0.7v-2.1
			c0-0.2-0.1-0.4-0.2-0.5c-0.1-0.1-0.3-0.2-0.5-0.2c-0.2,0-0.4,0.1-0.5,0.2s-0.2,0.3-0.2,0.6v2.1H44.1z"/>
		<path d="M47.1,65.1h1v-1h0.7v1H50v0.6h-1.3v1.8c0,0.1,0,0.2,0.1,0.3s0.2,0.1,0.3,0.1H50v0.6h-0.9c-0.3,0-0.6-0.1-0.8-0.3
			c-0.2-0.2-0.3-0.4-0.3-0.7v-1.8h-1V65.1z"/>
		<path d="M50.3,68.5v-3.4h0.6v0.5h0c0-0.2,0.1-0.3,0.2-0.4c0.1-0.1,0.2-0.1,0.4-0.1c0.2,0,0.3,0,0.4,0.1c0.1,0.1,0.2,0.2,0.2,0.4h0
			c0-0.2,0.1-0.3,0.2-0.4c0.1-0.1,0.2-0.1,0.4-0.1c0.2,0,0.4,0.1,0.5,0.2s0.2,0.4,0.2,0.6v2.6h-0.6v-2.6c0-0.1,0-0.2-0.1-0.3
			c-0.1-0.1-0.1-0.1-0.2-0.1c-0.2,0-0.3,0.1-0.3,0.4v2.5h-0.5v-2.6c0-0.1,0-0.2-0.1-0.3c-0.1-0.1-0.1-0.1-0.2-0.1
			c-0.2,0-0.3,0.1-0.3,0.4v2.5H50.3z"/>
		<path d="M53.4,64.6V64h1.8v3.4c0,0.1,0,0.2,0.1,0.3s0.2,0.1,0.3,0.1h1v0.6h-1c-0.3,0-0.6-0.1-0.8-0.3c-0.2-0.2-0.3-0.4-0.3-0.8
			v-2.8H53.4z"/>
		<path d="M24.8,76.6h0.6v0.6h0c0-0.2,0.1-0.4,0.3-0.5s0.4-0.2,0.6-0.2c0.2,0,0.3,0,0.5,0.1c0.1,0.1,0.3,0.2,0.4,0.3
			c0.1,0.1,0.2,0.3,0.2,0.4c0.1,0.2,0.1,0.3,0.1,0.6v0.9c0,0.2,0,0.4-0.1,0.6c-0.1,0.2-0.1,0.3-0.2,0.4c-0.1,0.1-0.2,0.2-0.4,0.3
			c-0.1,0.1-0.3,0.1-0.5,0.1c-0.2,0-0.5-0.1-0.6-0.2c-0.2-0.1-0.3-0.3-0.3-0.5h0c0,0,0,0,0,0.1c0,0,0,0.1,0,0.1c0,0.1,0,0.1,0,0.2
			c0,0.1,0,0.1,0,0.2v1h-0.7V76.6z M25.5,77.9v0.8c0,0.2,0.1,0.4,0.2,0.5c0.1,0.1,0.3,0.2,0.5,0.2c0.2,0,0.4-0.1,0.5-0.2
			c0.1-0.1,0.2-0.3,0.2-0.5v-0.8c0-0.2-0.1-0.4-0.2-0.6c-0.1-0.1-0.3-0.2-0.5-0.2c-0.2,0-0.4,0.1-0.5,0.2
			C25.5,77.5,25.5,77.7,25.5,77.9z"/>
		<path d="M27.9,79.1c0-0.3,0.1-0.6,0.3-0.8c0.2-0.2,0.5-0.3,0.9-0.3h0.9v-0.3c0-0.2-0.1-0.3-0.2-0.4c-0.1-0.1-0.3-0.2-0.5-0.2
			c-0.2,0-0.3,0-0.5,0.1s-0.2,0.2-0.2,0.3H28c0.1-0.3,0.2-0.5,0.5-0.7c0.2-0.2,0.6-0.2,0.9-0.2c0.4,0,0.8,0.1,1,0.3
			c0.2,0.2,0.4,0.5,0.4,0.8V80h-0.6v-0.7h0c0,0.2-0.2,0.4-0.4,0.5c-0.2,0.1-0.4,0.2-0.7,0.2c-0.3,0-0.6-0.1-0.8-0.3
			C28,79.6,27.9,79.4,27.9,79.1z M28.5,79c0,0.2,0.1,0.3,0.2,0.4s0.3,0.1,0.5,0.1c0.1,0,0.2,0,0.4,0c0.1,0,0.2-0.1,0.3-0.1
			c0.1-0.1,0.1-0.1,0.2-0.2c0-0.1,0.1-0.2,0.1-0.3v-0.4h-0.9c-0.2,0-0.3,0-0.4,0.1S28.5,78.8,28.5,79z"/>
		<path d="M31.1,77.9c0-0.2,0-0.4,0.1-0.5s0.1-0.3,0.2-0.4c0.1-0.1,0.2-0.2,0.4-0.3c0.1-0.1,0.3-0.1,0.5-0.1c0.3,0,0.5,0.1,0.6,0.2
			c0.2,0.1,0.3,0.3,0.3,0.5h0v-0.6h0.6v3.2c0,0.4-0.1,0.7-0.4,0.9c-0.2,0.2-0.6,0.3-1,0.3h-0.9v-0.6h0.9c0.2,0,0.4-0.1,0.5-0.2
			c0.1-0.1,0.2-0.3,0.2-0.5v-0.1l0-0.6h0c-0.1,0.2-0.2,0.4-0.3,0.5c-0.2,0.1-0.4,0.2-0.6,0.2c-0.2,0-0.3,0-0.5-0.1
			c-0.1-0.1-0.3-0.1-0.4-0.3c-0.1-0.1-0.2-0.2-0.2-0.4c-0.1-0.2-0.1-0.3-0.1-0.5V77.9z M31.8,78.5c0,0.2,0.1,0.4,0.2,0.5
			c0.1,0.1,0.3,0.2,0.5,0.2c0.2,0,0.4-0.1,0.5-0.2c0.1-0.1,0.2-0.3,0.2-0.5v-0.6c0-0.2-0.1-0.4-0.2-0.5c-0.1-0.1-0.3-0.2-0.5-0.2
			c-0.2,0-0.4,0.1-0.5,0.2c-0.1,0.1-0.2,0.3-0.2,0.5V78.5z"/>
		<path d="M34.4,77.9c0-0.2,0-0.4,0.1-0.5c0.1-0.2,0.2-0.3,0.3-0.4s0.3-0.2,0.5-0.3c0.2-0.1,0.4-0.1,0.6-0.1c0.2,0,0.4,0,0.6,0.1
			c0.2,0.1,0.3,0.1,0.4,0.3s0.2,0.3,0.3,0.4s0.1,0.3,0.1,0.5v0.6H35v0.2c0,0.2,0.1,0.4,0.2,0.6s0.3,0.2,0.6,0.2c0.2,0,0.3,0,0.5-0.1
			c0.1-0.1,0.2-0.1,0.3-0.2h0.7c0,0.1-0.1,0.3-0.2,0.4c-0.1,0.1-0.2,0.2-0.3,0.3c-0.1,0.1-0.3,0.1-0.4,0.2c-0.2,0-0.3,0.1-0.5,0.1
			c-0.2,0-0.4,0-0.6-0.1c-0.2-0.1-0.3-0.2-0.4-0.3s-0.2-0.3-0.3-0.4s-0.1-0.3-0.1-0.5V77.9z M35,78h1.5v-0.1c0-0.2-0.1-0.4-0.2-0.5
			c-0.1-0.1-0.3-0.2-0.6-0.2c-0.2,0-0.4,0.1-0.6,0.2S35,77.7,35,77.9V78z"/>
		<path d="M37.5,76.8c0-0.2,0-0.4,0.1-0.5c0.1-0.2,0.2-0.3,0.3-0.4c0.1-0.1,0.3-0.2,0.5-0.3c0.2-0.1,0.4-0.1,0.6-0.1
			c0.2,0,0.4,0,0.6,0.1c0.2,0.1,0.3,0.1,0.4,0.3s0.2,0.2,0.3,0.4s0.1,0.3,0.1,0.5c0,0.3-0.1,0.6-0.3,0.9s-0.4,0.6-0.8,0.9l-0.7,0.6
			c0,0-0.1,0.1-0.1,0.1c0,0-0.1,0-0.1,0.1c0,0-0.1,0-0.1,0.1v0c0.1,0,0.1,0,0.2,0c0.1,0,0.1,0,0.2,0c0.1,0,0.1,0,0.2,0h1.6V80h-2.9
			v-0.7l1.3-1.1c0.1-0.1,0.3-0.2,0.4-0.4s0.2-0.2,0.3-0.3c0.1-0.1,0.1-0.2,0.1-0.3c0-0.1,0-0.2,0-0.4c0-0.2-0.1-0.4-0.2-0.5
			c-0.1-0.1-0.3-0.2-0.5-0.2c-0.2,0-0.4,0.1-0.6,0.2c-0.1,0.1-0.2,0.3-0.2,0.5H37.5z"/>
		<path d="M41.6,79.5c0-0.2,0.1-0.3,0.2-0.4c0.1-0.1,0.2-0.2,0.4-0.2s0.3,0.1,0.4,0.2c0.1,0.1,0.2,0.2,0.2,0.4s-0.1,0.3-0.2,0.4
			c-0.1,0.1-0.2,0.2-0.4,0.2s-0.3-0.1-0.4-0.2C41.7,79.8,41.6,79.7,41.6,79.5z"/>
		<path d="M44.1,80v-4.4h0.7v1c0,0.1,0,0.1,0,0.2c0,0.1,0,0.1,0,0.2c0,0.1,0,0.1,0,0.2h0.1c0-0.2,0.1-0.4,0.3-0.5
			c0.2-0.1,0.4-0.2,0.6-0.2c0.2,0,0.3,0,0.5,0.1c0.1,0.1,0.3,0.1,0.4,0.2s0.2,0.2,0.2,0.4c0.1,0.2,0.1,0.3,0.1,0.5V80h-0.7v-2.1
			c0-0.2-0.1-0.4-0.2-0.5c-0.1-0.1-0.3-0.2-0.5-0.2c-0.2,0-0.4,0.1-0.5,0.2s-0.2,0.3-0.2,0.6V80H44.1z"/>
		<path d="M47.1,76.6h1v-1h0.7v1H50v0.6h-1.3v1.8c0,0.1,0,0.2,0.1,0.3s0.2,0.1,0.3,0.1H50V80h-0.9c-0.3,0-0.6-0.1-0.8-0.3
			c-0.2-0.2-0.3-0.4-0.3-0.7v-1.8h-1V76.6z"/>
		<path d="M50.3,80v-3.4h0.6v0.5h0c0-0.2,0.1-0.3,0.2-0.4c0.1-0.1,0.2-0.1,0.4-0.1c0.2,0,0.3,0,0.4,0.1c0.1,0.1,0.2,0.2,0.2,0.4h0
			c0-0.2,0.1-0.3,0.2-0.4c0.1-0.1,0.2-0.1,0.4-0.1c0.2,0,0.4,0.1,0.5,0.2s0.2,0.4,0.2,0.6V80h-0.6v-2.6c0-0.1,0-0.2-0.1-0.3
			c-0.1-0.1-0.1-0.1-0.2-0.1c-0.2,0-0.3,0.1-0.3,0.4V80h-0.5v-2.6c0-0.1,0-0.2-0.1-0.3c-0.1-0.1-0.1-0.1-0.2-0.1
			c-0.2,0-0.3,0.1-0.3,0.4V80H50.3z"/>
		<path d="M53.4,76.2v-0.6h1.8V79c0,0.1,0,0.2,0.1,0.3s0.2,0.1,0.3,0.1h1V80h-1c-0.3,0-0.6-0.1-0.8-0.3c-0.2-0.2-0.3-0.4-0.3-0.8
			v-2.8H53.4z"/>
	</g>
	<line class="st0" x1="264.1" y1="14.4" x2="0" y2="14.4"/>
	<line class="st0" x1="264.1" y1="26" x2="0" y2="26"/>
	<line class="st0" x1="264.1" y1="2.9" x2="0" y2="2.9"/>
	<line class="st0" x1="264.1" y1="37.5" x2="0" y2="37.5"/>
	<line class="st0" x1="264.1" y1="49" x2="0" y2="49"/>
	<line class="st0" x1="264.1" y1="60.5" x2="0" y2="60.5"/>
	<line class="st0" x1="264.1" y1="72.1" x2="0" y2="72.1"/>
	<line class="st0" x1="264.1" y1="83.6" x2="0" y2="83.6"/>
	<line class="st0" x1="264.1" y1="95.1" x2="0" y2="95.1"/>
	<line class="st0" x1="264.1" y1="106.7" x2="0" y2="106.7"/>
	<line class="st0" x1="264.1" y1="118.2" x2="0" y2="118.2"/>
	<line class="st0" x1="264.1" y1="129.7" x2="0" y2="129.7"/>
	<line class="st0" x1="264.1" y1="141.3" x2="0" y2="141.3"/>
	<line class="st0" x1="264.1" y1="152.8" x2="0" y2="152.8"/>
</g>
<g id="Calque_3">
	<rect x="252.2" y="5.7" width="3.7" height="5.8"/>
	<rect x="252.2" y="17.3" width="3.7" height="5.8"/>
	<rect x="252.2" y="28.8" width="3.7" height="5.8"/>
	<rect x="252.2" y="40.3" width="3.7" height="5.8"/>
	<rect x="252.2" y="51.9" width="3.7" height="5.8"/>
	<rect x="252.2" y="63.4" width="3.7" height="5.8"/>
	<rect x="252.2" y="74.9" width="3.7" height="5.8"/>
	<rect x="252.2" y="86.5" width="3.7" height="5.8"/>
	<rect x="252.2" y="98" width="3.7" height="5.8"/>
	<rect x="252.2" y="109.5" width="3.7" height="5.8"/>
	<rect x="252.2" y="121.1" width="3.7" height="5.8"/>
	<rect x="252.2" y="132.6" width="3.7" height="5.8"/>
	<rect x="252.2" y="144.1" width="3.7" height="5.8"/>
	<rect x="252.2" y="17.3" width="3.7" height="5.8"/>
	<rect x="252.2" y="5.7" width="3.7" height="5.8"/>
	<rect x="252.2" y="5.7" width="3.7" height="5.8"/>
	<rect x="252.2" y="-5.8" width="3.7" height="5.8"/>
	<rect x="252.2" y="-5.8" width="3.7" height="5.8"/>
	<rect x="252.2" y="28.8" width="3.7" height="5.8"/>
	<rect x="252.2" y="40.3" width="3.7" height="5.8"/>
	<rect x="252.2" y="51.9" width="3.7" height="5.8"/>
	<rect x="252.2" y="63.4" width="3.7" height="5.8"/>
	<rect x="252.2" y="74.9" width="3.7" height="5.8"/>
</g>
<g id="Calque_1">
	<g>
		<polygon class="st1" points="21,68.8 16.6,68.8 16.6,62.7 19.3,62.7 21,64.5 		"/>
		<polyline class="st1" points="19.3,62.7 19.3,64.5 21,64.5 		"/>
	</g>
	<g>
		<polygon class="st1" points="21,80.3 16.6,80.3 16.6,74.2 19.3,74.2 21,75.9 		"/>
		<polyline class="st1" points="19.3,74.2 19.3,75.9 21,75.9 		"/>
	</g>
	<g>
		<rect x="5.4" y="6.7" class="st1" width="7" height="4.7"/>
		<polyline class="st1" points="8.9,6.7 8.9,5.3 5.4,5.3 5.4,6.7 		"/>
	</g>
	<g>
		<rect x="15.3" y="18.2" class="st1" width="7" height="4.7"/>
		<polyline class="st1" points="18.8,18.2 18.8,16.8 15.3,16.8 15.3,18.2 		"/>
	</g>
	<g>
		<rect x="15.3" y="41.1" class="st1" width="7" height="4.7"/>
		<polyline class="st1" points="18.8,41.1 18.8,39.8 15.3,39.8 15.3,41.1 		"/>
	</g>
	<g>
		<polygon class="st2" points="-68.3,17.1 -76.9,17.1 -76.9,5.3 -71.7,5.3 -68.3,8.7 		"/>
		<polyline class="st2" points="-71.7,5.3 -71.7,8.7 -68.3,8.7 		"/>
	</g>
	<g>
		<polygon class="st2" points="-68.3,39.4 -76.9,39.4 -76.9,27.7 -71.7,27.7 -68.3,31 		"/>
		<polyline class="st2" points="-71.7,27.7 -71.7,31 -68.3,31 		"/>
	</g>
	<g>
		<polygon class="st2" points="-68.3,61.7 -76.9,61.7 -76.9,50 -71.7,50 -68.3,53.3 		"/>
		<polyline class="st2" points="-71.7,50 -71.7,53.3 -68.3,53.3 		"/>
	</g>
	<g>
		<polygon class="st2" points="-68.3,84 -76.9,84 -76.9,72.3 -71.7,72.3 -68.3,75.6 		"/>
		<polyline class="st2" points="-71.7,72.3 -71.7,75.6 -68.3,75.6 		"/>
	</g>
	<g>
		<polygon class="st2" points="-68.3,106.3 -76.9,106.3 -76.9,94.6 -71.7,94.6 -68.3,98 		"/>
		<polyline class="st2" points="-71.7,94.6 -71.7,98 -68.3,98 		"/>
	</g>
	<g>
		<polygon class="st1" points="29.7,34.3 25.3,34.3 25.3,28.3 28,28.3 29.7,30 		"/>
		<polyline class="st1" points="28,28.3 28,30 29.7,30 		"/>
	</g>
	<g>
		<polygon class="st1" points="29.7,57.3 25.3,57.3 25.3,51.2 28,51.2 29.7,53 		"/>
		<polyline class="st1" points="28,51.2 28,53 29.7,53 		"/>
	</g>
	<g>
		<polygon class="st2" points="-68.3,128.6 -76.9,128.6 -76.9,116.9 -71.7,116.9 -68.3,120.3 		"/>
		<polyline class="st2" points="-71.7,116.9 -71.7,120.3 -68.3,120.3 		"/>
	</g>
	<g>
		<rect x="-62.6" y="8" class="st2" width="13.6" height="9.1"/>
		<polyline class="st2" points="-55.8,8 -55.8,5.3 -62.6,5.3 -62.6,8 		"/>
	</g>
	<g>
		<rect x="-62.6" y="30.3" class="st2" width="13.6" height="9.1"/>
		<polyline class="st2" points="-55.8,30.3 -55.8,27.7 -62.6,27.7 -62.6,30.3 		"/>
	</g>
	<g>
		<rect x="-62.6" y="52.6" class="st2" width="13.6" height="9.1"/>
		<polyline class="st2" points="-55.8,52.6 -55.8,50 -62.6,50 -62.6,52.6 		"/>
	</g>
	<g>
		<rect x="-62.6" y="74.9" class="st2" width="13.6" height="9.1"/>
		<polyline class="st2" points="-55.8,74.9 -55.8,72.3 -62.6,72.3 -62.6,74.9 		"/>
	</g>
	<g>
		<rect x="-62.6" y="97.2" class="st2" width="13.6" height="9.1"/>
		<polyline class="st2" points="-55.8,97.2 -55.8,94.6 -62.6,94.6 -62.6,97.2 		"/>
	</g>
	<g>
		<rect x="-62.6" y="119.6" class="st2" width="13.6" height="9.1"/>
		<polyline class="st2" points="-55.8,119.6 -55.8,116.9 -62.6,116.9 -62.6,119.6 		"/>
	</g>
</g>
</svg>
