<?xml version="1.0" encoding="utf-8"?>
<!-- Generator: Adobe Illustrator 15.1.0, SVG Export Plug-In . SVG Version: 6.00 Build 0)  -->
<!DOCTYPE svg PUBLIC "-//W3C//DTD SVG 1.1//EN" "http://www.w3.org/Graphics/SVG/1.1/DTD/svg11.dtd">
<svg version="1.1" id="Calque_1" xmlns="http://www.w3.org/2000/svg" xmlns:xlink="http://www.w3.org/1999/xlink" x="0px" y="0px"
	 width="822.051px" height="822.051px" viewBox="0 0 822.051 822.051" enable-background="new 0 0 822.051 822.051"
	 xml:space="preserve">
<path fill="#EE2712" d="M425.333,546.257c0-77.868,63.122-140.987,140.983-140.987c77.865,0,140.991,63.12,140.991,140.987
	c0,77.863-63.126,140.982-140.991,140.982C488.455,687.239,425.333,624.12,425.333,546.257z"/>
<path fill="#EE2712" d="M339.2,397.001c-67.434-38.928-90.538-125.158-51.604-192.588c38.934-67.438,125.159-90.547,192.597-51.613
	c67.425,38.938,90.534,125.168,51.602,192.602C492.86,412.827,406.634,435.934,339.2,397.001z"/>
<path fill="#EE2712" d="M182.554,668.326c-67.435-38.933-90.542-125.156-51.609-192.59c38.933-67.43,125.159-90.54,192.592-51.608
	c67.438,38.933,90.534,125.164,51.603,192.599C336.204,684.154,249.983,707.257,182.554,668.326z"/>
</svg>
