<?xml version="1.0" encoding="utf-8"?>
<!-- Generator: Adobe Illustrator 15.1.0, SVG Export Plug-In . SVG Version: 6.00 Build 0)  -->
<!DOCTYPE svg PUBLIC "-//W3C//DTD SVG 1.1//EN" "http://www.w3.org/Graphics/SVG/1.1/DTD/svg11.dtd">
<svg version="1.1" id="Calque_1" xmlns="http://www.w3.org/2000/svg" xmlns:xlink="http://www.w3.org/1999/xlink" x="0px" y="0px"
	 width="595.3px" height="53.858px" viewBox="0 0 595.3 53.858" enable-background="new 0 0 595.3 53.858" xml:space="preserve">
<g id="XMLID_1_">
	<path id="XMLID_2_" fill="#1D1D1B" d="M45.458,38.223L40.168,52.26H0V46.97c5.507-2.27,9.07-6.265,9.07-12.85v-3.456
		c0-8.854-5.507-11.661-9.07-12.741v-5.291h40.708l1.943,13.173l-2.808,1.729c-3.347-3.996-7.234-7.991-12.957-7.991h-0.755
		c-7.343,0-10.582,3.24-10.582,10.474h5.831c5.074,0,6.802-3.239,7.342-5.182l0.324-0.865h3.456v17.168h-3.456l-0.324-0.756
		c-0.648-1.944-2.268-5.182-7.342-5.182h-5.831c0,7.126,2.699,10.365,11.445,10.365h0.54c6.263,0,10.798-4.534,15.009-9.609
		L45.458,38.223z M20.083,8.962L25.806,0h11.23v1.188L25.591,8.853h-5.507V8.962z"/>
	<path id="XMLID_5_" fill="#1D1D1B" d="M83.574,11.769l1.404,12.741l-4.751,1.188c-3.023-3.888-8.422-6.047-14.361-6.047
		c-4.859,0-8.854,1.404-8.854,4.319c0,2.375,2.807,3.564,8.746,4.319l5.724,0.756c8.854,1.188,15.765,3.563,15.765,11.446
		c0,7.99-7.126,12.741-16.629,12.741c-5.075,0-9.394-1.403-13.929-3.887l-1.404,2.914h-5.399l-2.699-15.117l4.751-1.727
		c3.996,6.046,10.474,10.149,18.464,10.149c4.751,0,8.746-1.403,8.746-4.644c0-3.13-3.671-3.886-8.746-4.534l-6.803-0.864
		c-3.995-0.431-14.684-2.16-14.684-11.554c0-7.99,7.882-12.093,16.304-12.093c4.643,0,8.098,1.187,10.906,2.807l0.864-3.023h6.587
		V11.769z"/>
	<path id="XMLID_7_" fill="#1D1D1B" d="M130.004,12.741v5.183c-5.183,1.512-7.019,5.722-4.535,10.258l5.291,10.257
		c2.916,5.723,5.723,7.126,10.15,8.532v5.182h-22.783V46.97l1.619-0.541c3.996-1.403,5.507-3.563,3.78-6.586l-0.324-0.648h-16.736
		l-0.324,0.648c-1.835,3.13-0.216,5.291,3.78,6.586l1.619,0.541v5.182H88.757V46.97c4.427-1.405,7.342-2.916,10.149-8.532
		l5.399-10.474c2.16-4.535,0.432-8.638-4.643-10.149v-5.184h30.341V12.741z M120.718,33.904l-5.723-13.064l-5.939,13.064H120.718z"
		/>
	<path id="XMLID_10_" fill="#1D1D1B" d="M191.011,32.177c0,9.934-6.911,20.083-21.596,20.083h-25.374V46.97
		c5.831-2.052,8.422-6.372,8.422-12.311v-4.211c0-7.666-2.591-11.122-8.422-12.525v-5.183h26.67
		C184.316,12.741,191.011,22.459,191.011,32.177z M158.833,30.234v4.319c0,8.745,4.103,11.013,12.31,11.013
		c8.746,0,13.065-7.342,13.065-13.281c0-5.938-4.103-12.849-12.741-12.849C163.477,19.435,158.833,21.595,158.833,30.234z"/>
	<path id="XMLID_13_" fill="#1D1D1B" d="M203.428,26.885c3.023,0,5.507,2.483,5.507,5.615c0,3.131-2.484,5.615-5.507,5.615
		c-3.023,0-5.398-2.483-5.398-5.615C198.029,29.368,200.405,26.885,203.428,26.885z"/>
	<path id="XMLID_15_" fill="#1D1D1B" d="M257.201,24.942c0,7.451-5.507,12.309-13.282,12.309h-15.44v0.215
		c0,4.428,3.563,7.884,9.178,9.719v5.184h-23.971v-5.184c3.239-1.296,8.422-3.562,8.422-14.037v-1.188
		c0-10.366-5.183-12.634-8.422-13.821v-5.183h29.262C252.773,12.741,257.201,18.787,257.201,24.942z M250.722,25.158
		c0-3.779-3.348-5.723-7.882-5.723h-2.592c-8.422,0-11.661,2.484-11.661,10.798v0.431h14.469
		C247.482,30.773,250.722,28.937,250.722,25.158z"/>
	<path id="XMLID_18_" fill="#1D1D1B" d="M281.927,17.924c-1.728,0.324-3.239,1.512-3.239,3.563c0,1.403,0.432,2.268,2.268,4.319
		l3.131,3.671c0.971-1.188,1.943-2.483,2.916-3.671c0.107-0.216,0.323-0.323,0.432-0.431c1.403-1.729,1.943-2.592,1.943-3.888
		c0-1.944-1.512-3.023-3.239-3.563v-5.183h23.322v5.183c-9.069,1.512-13.604,7.234-18.679,13.821l-3.456,4.536v2.159
		c0,4.966,5.183,7.451,8.638,8.532v5.182h-23.754V46.97c3.456-1.081,8.638-3.565,8.638-8.532V36.28l-3.563-4.536
		c-5.291-6.802-9.61-12.309-18.572-13.821v-5.183h23.215V17.924z"/>
	<path id="XMLID_20_" fill="#1D1D1B" d="M336.672,36.28h-8.855v0.216c0,5.614,3.564,9.069,9.07,10.582v5.182h-23.97v-5.182
		c3.238-1.296,8.42-3.562,8.42-14.038v-1.187c0-10.367-5.182-12.634-8.42-13.822v-5.183h28.396c10.257,0,15.009,5.938,15.009,11.986
		c0,5.938-4.319,11.229-13.172,11.553c2.375,4.211,4.428,6.803,8.637,6.803c2.482,0,3.78-0.863,4.535-1.728
		c0.217-0.324,0.648-0.757,0.973-0.757c0.433,0,0.755,1.188,0.755,2.81c0.324,4.642-2.16,9.717-7.45,9.717
		C343.042,53.123,338.939,42.11,336.672,36.28z M327.817,30.017h14.576c4.968,0,7.452-2.052,7.452-5.182
		c0-3.132-2.809-5.508-8.963-5.508h-2.375C330.84,19.435,327.817,22.135,327.817,30.017z"/>
	<path id="XMLID_23_" fill="#1D1D1B" d="M406.101,38.223L400.81,52.26H360.75V46.97c5.508-2.27,9.07-6.265,9.07-12.85v-3.456
		c0-8.854-5.506-11.661-9.07-12.741v-5.291h40.709l1.941,13.065l-2.807,1.728c-3.347-3.996-7.233-7.99-12.956-7.99h-0.757
		c-7.343,0-10.581,3.24-10.581,10.473h5.83c5.073,0,6.804-3.239,7.343-5.183l0.324-0.863h3.456v17.168h-3.456l-0.324-0.756
		c-0.649-1.944-2.27-5.183-7.343-5.183h-5.83c0,7.126,2.699,10.365,11.445,10.365h0.539c6.265,0,10.799-4.536,15.009-9.611
		L406.101,38.223z M380.726,8.962L386.449,0h11.23v1.188l-11.445,7.666h-5.508V8.962z"/>
	<path id="XMLID_26_" fill="#1D1D1B" d="M442.489,33.148v-1.404c0-5.291-0.324-10.689-7.989-14.037v-5.075h22.889v5.184
		c-6.37,2.375-8.42,6.154-8.42,12.848v3.349c0,6.478,1.509,12.741,4.642,18.247h-13.604v-2.59c0-7.343-5.398-13.066-10.258-18.033
		c-2.374-2.375-4.858-5.075-7.56-8.747v10.15c0,7.774,1.62,11.122,8.207,13.93v5.182h-22.676V46.97
		c6.479-2.486,8.099-6.156,8.099-12.958v-3.349c0-6.37-1.62-10.797-8.099-12.848v-5.184h18.896c0.866,5.075,3.673,9.178,7.235,13.39
		c2.482,2.806,4.859,5.614,7.233,8.314c0.107,0.107,0.217,0.216,0.327,0.324c0.43,0.541,0.969,1.08,1.293,1.62v-0.108
		C442.596,35.2,442.489,34.12,442.489,33.148z"/>
	<path id="XMLID_28_" fill="#1D1D1B" d="M506.517,38.223l-5.29,14.037H461.06V46.97c5.506-2.27,9.071-6.265,9.071-12.85v-3.456
		c0-8.854-5.506-11.661-9.071-12.741v-5.291h40.706l1.944,13.065l-2.807,1.728c-3.346-3.996-7.235-7.99-12.958-7.99h-0.756
		c-7.341,0-10.58,3.24-10.58,10.473h5.83c5.074,0,6.802-3.239,7.341-5.183l0.325-0.863h3.455v17.168h-3.455l-0.325-0.756
		c-0.646-1.944-2.267-5.183-7.341-5.183h-5.83c0,7.126,2.699,10.365,11.443,10.365h0.542c6.262,0,10.796-4.536,15.008-9.611
		L506.517,38.223z M481.035,8.962L486.759,0h11.229v1.188l-11.445,7.666h-5.508V8.962z"/>
	<path id="XMLID_31_" fill="#1D1D1B" d="M553.487,38.223l-5.29,14.037H508.03V46.97c5.506-2.27,9.071-6.265,9.071-12.85v-3.456
		c0-8.854-5.506-11.661-9.071-12.741v-5.291h40.706l1.944,13.065l-2.807,1.728c-3.346-3.996-7.235-7.99-12.958-7.99h-0.756
		c-7.341,0-10.58,3.24-10.58,10.473h5.83c5.074,0,6.802-3.239,7.342-5.183l0.324-0.863h3.455v17.168h-3.455l-0.324-0.756
		c-0.647-1.944-2.268-5.183-7.342-5.183h-5.83c0,7.126,2.699,10.365,11.445,10.365h0.54c6.262,0,10.796-4.536,15.008-9.611
		L553.487,38.223z"/>
	<path id="XMLID_33_" fill="#1D1D1B" d="M591.605,11.769l1.401,12.741l-4.749,1.188c-3.023-3.888-8.422-6.047-14.361-6.047
		c-4.859,0-8.854,1.404-8.854,4.319c0,2.375,2.809,3.564,8.747,4.319l5.721,0.756c8.855,1.188,15.767,3.563,15.767,11.446
		c0,7.99-7.128,12.741-16.629,12.741c-5.076,0-9.396-1.403-13.93-3.887l-1.403,2.914h-5.4l-2.699-15.117l4.752-1.727
		c3.997,6.046,10.476,10.149,18.464,10.149c4.751,0,8.748-1.403,8.748-4.644c0-3.13-3.673-3.886-8.748-4.534l-6.802-0.864
		c-3.997-0.431-14.684-2.16-14.684-11.554c0-7.99,7.88-12.093,16.304-12.093c4.642,0,8.098,1.187,10.904,2.807l0.866-3.023h6.586
		V11.769z"/>
</g>
</svg>
