<?xml version="1.0" encoding="UTF-8" standalone="no"?>
<!-- Created with Inkscape (http://www.inkscape.org/) -->
<svg width="50mm" height="50mm" viewBox="0 0 50 50" version="1.1" id="svg952" sodipodi:docname="counter_cloud_action.svg" inkscape:version="1.2.2 (1:1.2.2+202212051552+b0a8486541)" inkscape:export-filename="counter_cloud_action.pdf" inkscape:export-xdpi="96" inkscape:export-ydpi="96" xmlns:inkscape="http://www.inkscape.org/namespaces/inkscape" xmlns:sodipodi="http://sodipodi.sourceforge.net/DTD/sodipodi-0.dtd" xmlns="http://www.w3.org/2000/svg" xmlns:svg="http://www.w3.org/2000/svg">
  <sodipodi:namedview id="namedview954" pagecolor="#ffffff" bordercolor="#000000" borderopacity="0.25" inkscape:showpageshadow="2" inkscape:pageopacity="0.0" inkscape:pagecheckerboard="0" inkscape:deskcolor="#d1d1d1" inkscape:document-units="mm" showgrid="false" inkscape:zoom="3.5634119" inkscape:cx="96.677008" inkscape:cy="113.5148" inkscape:window-width="2472" inkscape:window-height="1368" inkscape:window-x="2000" inkscape:window-y="64" inkscape:window-maximized="0" inkscape:current-layer="g4192" showguides="true"/>
  <defs id="defs949"/>
  <g inkscape:label="Layer 1" inkscape:groupmode="layer" id="layer1">
    <g id="g4755" transform="translate(671.3739,-532.05804)" inkscape:label="counter cloud">
      <g id="g4192" transform="matrix(0.83135438,0,0,0.83135438,-109.00813,93.945395)" style="stroke-width:1.20286">
        <path id="circle2566" style="stroke:#000000;stroke-width:0.846879;fill:#000000;fill-opacity:0.99831098;stroke-opacity:1" d="m -616.72593,557.05804 a 29.647972,29.647972 0 0 1 -29.64797,29.64798 29.647972,29.647972 0 0 1 -29.64797,-29.64798 29.647972,29.647972 0 0 1 29.64797,-29.64797 29.647972,29.647972 0 0 1 29.64797,29.64797 z"/>
        <g aria-label="COUNTER   CLOUD" transform="matrix(0.15244898,-0.14252478,0.14252478,0.15244898,-605.67797,437.07058)" id="text2574" style="font-size:35.2778px;font-family:'Routed Gothic';-inkscape-font-specification:'Routed Gothic, Normal';display:inline;fill:#ffffff;stroke-width:4.05796">
          <path d="m -601.71705,202.26851 q 0.50903,-0.46436 1.19041,-0.4331 0.68137,0.0313 1.14574,0.54029 0.48759,0.53448 0.87203,1.72265 0.38443,1.18817 0.50766,2.75454 0.1,1.54092 -0.59211,3.33812 -0.66666,1.77399 -2.16829,3.14388 -3.23233,2.94874 -7.99616,2.07175 -4.7616,-0.92566 -8.26759,-4.76883 -2.2754,-2.49424 -3.33049,-5.54214 -1.05508,-3.0479 -0.55496,-5.97568 0.52557,-2.951 2.68894,-4.92456 1.19622,-1.09127 2.61122,-1.636 1.415,-0.54474 2.46476,-0.56973 1.02653,-0.0505 2.11378,0.17014 1.08726,0.22058 1.44447,0.40768 0.35944,0.13842 0.62154,0.27237 0.2621,0.13396 0.44785,0.33757 0.34828,0.38177 0.42105,0.92161 0.075,0.49116 -0.16521,0.94348 -0.0786,0.11832 -0.15718,0.23665 -0.0786,0.11832 -0.18039,0.2112 -0.38177,0.34827 -0.89839,0.4465 -0.49116,0.075 -0.92026,-0.13977 -0.31077,-0.13619 -0.69566,-0.25139 -0.40811,-0.14065 -1.23327,-0.22728 -0.82292,-0.1353 -1.81418,0.20939 -0.96581,0.32148 -1.83116,1.11091 -1.98521,1.81104 -1.68027,5.26348 0.30494,3.45243 3.09115,6.5066 2.78621,3.05417 6.19622,3.67396 3.43546,0.59657 5.39522,-1.19125 0.81445,-0.74299 1.20203,-1.74942 0.38758,-1.00644 0.38134,-1.9334 -0.006,-0.92696 -0.14645,-1.59182 -0.13796,-0.71352 -0.34023,-1.0886 -0.25317,-0.32863 -0.33264,-0.72246 -0.0772,-0.44249 0.038,-0.82738 0.14065,-0.40812 0.47152,-0.70996 z" id="path1359" style="stroke-width:4.05796"/>
          <path d="m -582.76295,178.67874 q 2.51925,2.01402 4.10845,4.9928 1.58921,2.97878 1.85917,6.19282 0.26997,3.21404 -0.96787,5.94394 -1.20744,2.71368 -3.79108,4.09208 -2.58363,1.37839 -5.5404,0.88634 -2.92638,-0.50826 -5.44563,-2.52228 -2.51925,-2.01403 -4.10845,-4.99281 -1.5892,-2.97878 -1.85917,-6.19282 -0.26997,-3.21403 0.93747,-5.92772 1.23784,-2.7299 3.82148,-4.10829 2.58363,-1.37839 5.51001,-0.87013 2.95677,0.49204 5.47602,2.50607 z m 2.5796,13.61791 q 0.55683,-3.42085 -1.38914,-7.06834 -1.94596,-3.64748 -5.09741,-5.08994 -3.15145,-1.44246 -5.52231,-0.17758 -2.37087,1.26487 -2.9277,4.68573 -0.55683,3.42085 1.38914,7.06834 1.94596,3.64749 5.09741,5.08994 3.15145,1.44246 5.52231,0.17759 2.37087,-1.26488 2.9277,-4.68574 z" id="path1361" style="stroke-width:4.05796"/>
          <path d="m -558.28882,165.20918 q 0.35602,-0.58181 1.02589,-0.7431 0.66988,-0.16129 1.25169,0.19473 0.58182,0.35601 0.7431,1.02589 l 3.80635,15.80909 q 0.77417,3.21541 -1.32224,5.98803 -2.06291,2.76455 -5.57976,3.6113 -3.51685,0.84675 -6.64549,-0.66784 -3.09514,-1.52265 -3.86931,-4.73806 l -3.80634,-15.80909 q -0.16129,-0.66988 0.19473,-1.25169 0.35601,-0.58182 1.02589,-0.7431 0.66987,-0.16129 1.25169,0.19473 0.58181,0.35601 0.7431,1.02589 l 3.80634,15.80909 q 0.40321,1.67469 2.25844,2.60999 1.88871,0.92724 4.26678,0.35468 2.37806,-0.57257 3.60427,-2.24979 1.2597,-1.68528 0.85649,-3.35997 l -3.80635,-15.80909 q -0.16128,-0.66988 0.19473,-1.25169 z" id="path1363" style="stroke-width:4.05796"/>
          <path d="m -540.24131,187.52411 q -0.48854,0.476 -1.1775,0.46705 -0.68896,-0.009 -1.16497,-0.49749 -0.476,-0.48854 -0.46705,-1.17751 l 0.2865,-22.04676 q 0.009,-0.68896 0.53194,-1.16452 0.55743,-0.47511 1.14305,-0.4675 l 0.55117,0.007 0.82675,0.0108 q 0.44783,0.006 0.82362,0.25188 0.41025,0.2465 0.61246,0.59367 l 10.16248,18.66825 0.23009,-17.7063 q 0.009,-0.68897 0.4975,-1.16497 0.48854,-0.47601 1.1775,-0.46705 0.68896,0.009 1.16496,0.49749 0.47601,0.48854 0.46706,1.1775 l -0.2865,22.04677 q -0.008,0.58561 -0.49705,1.13051 -0.48898,0.51046 -1.17795,0.5015 l -0.48227,-0.006 -0.62006,-0.008 q -0.96455,-0.0125 -1.43608,-0.84556 l -10.4318,-19.1541 -0.23636,18.18858 q -0.009,0.68896 -0.49749,1.16497 z" id="path1365" style="stroke-width:4.05796"/>
          <path d="m -513.62722,167.09405 q -0.34266,-0.58978 -0.16615,-1.25581 0.17651,-0.66602 0.76629,-1.00869 0.58977,-0.34266 1.2558,-0.16615 l 16.51747,4.37747 q 0.66603,0.17651 1.00869,0.76629 0.34266,0.58978 0.16615,1.2558 -0.17651,0.66603 -0.76629,1.00869 -0.58978,0.34266 -1.2558,0.16615 l -6.66027,-1.76511 -5.22472,19.7144 q -0.17651,0.66603 -0.76629,1.00869 -0.58978,0.34266 -1.2558,0.16615 -0.66603,-0.17651 -1.00869,-0.76629 -0.34266,-0.58977 -0.16615,-1.2558 l 5.22472,-19.7144 -6.66027,-1.76511 q -0.66603,-0.17651 -1.00869,-0.76628 z" id="path1367" style="stroke-width:4.05796"/>
          <path d="m -468.5221,182.48508 q 0.19034,0.655 -0.14156,1.25881 -0.3319,0.60382 -0.9869,0.79416 -0.65499,0.19034 -1.25881,-0.14156 l -11.11017,-6.10694 -3.38537,6.1589 7.24576,3.98278 q 0.60382,0.3319 0.79416,0.9869 0.19034,0.655 -0.14156,1.25881 -0.3319,0.60382 -0.9869,0.79416 -0.655,0.19034 -1.25881,-0.14156 l -7.24577,-3.98279 -4.04916,7.36653 11.59322,6.37246 q 0.60381,0.3319 0.79415,0.9869 0.19034,0.655 -0.14155,1.25881 -0.3319,0.60381 -0.9869,0.79415 -0.655,0.19034 -1.25881,-0.14155 l -13.04238,-7.16902 q -0.51324,-0.28212 -0.76396,-0.97031 -0.22054,-0.67159 0.11136,-1.2754 l 10.62077,-19.32204 q 0.28212,-0.51324 0.95371,-0.73378 0.68819,-0.25072 1.292,0.0812 l 12.55933,6.9035 q 0.60381,0.3319 0.79415,0.9869 z" id="path1369" style="stroke-width:4.05796"/>
          <path d="m -462.36393,199.60541 5.4638,5.05188 q 1.6442,1.52024 2.96629,1.66349 1.37077,0.14134 2.7039,-1.3005 1.33314,-1.44183 1.06162,-2.77205 -0.22284,-1.33213 -1.86704,-2.85237 l -5.4638,-5.05188 z m -2.24528,2.42836 -6.73584,7.28506 q -0.46777,0.50591 -1.14934,0.53261 -0.68157,0.0267 -1.18748,-0.44107 -0.50591,-0.46777 -0.5326,-1.14934 -0.0267,-0.68157 0.44106,-1.18748 l 7.8351,-8.47395 7.13344,-7.71508 q 0.46777,-0.50591 1.17463,-0.50922 0.73217,0.0201 1.16219,0.41768 l 6.67797,6.17452 q 2.32718,2.15173 2.82725,4.96013 0.52347,2.7831 -1.83875,5.33793 -1.19281,1.29007 -2.60895,1.8575 -1.39276,0.54214 -2.68955,0.42229 -1.24811,-0.12177 -2.54059,-0.75376 l -3.53477,9.96329 q -0.0449,0.0993 -0.0897,0.19854 -0.0449,0.0993 -0.11503,0.17517 -0.0449,0.0993 -0.13842,0.20045 -0.32744,0.35414 -0.81046,0.47057 -0.48303,0.11644 -0.9522,-0.0358 -0.32121,-0.10932 -0.57416,-0.3432 -0.35414,-0.32744 -0.47057,-0.81046 -0.11644,-0.48302 0.0358,-0.95219 l 3.84123,-10.85294 z" id="path1371" style="stroke-width:4.05796"/>
          <path d="m -430.31086,264.41623 q 0.18938,0.66248 -0.14179,1.25879 -0.33117,0.5963 -0.99366,0.78568 -0.6956,0.19885 -1.93074,0.0145 -1.23513,-0.18438 -2.69273,-0.77097 -1.42447,-0.59606 -2.72603,-2.01554 -1.29209,-1.38636 -1.85076,-3.34068 -1.20257,-4.20676 1.70247,-8.08285 2.94762,-3.85242 7.94937,-5.28225 3.24616,-0.92796 6.44519,-0.51671 3.19903,0.41126 5.5985,2.16184 2.40894,1.7837 3.21381,4.59925 0.44504,1.55684 0.30329,3.06643 -0.14176,1.50959 -0.58645,2.46083 -0.41157,0.94177 -1.09289,1.81732 -0.68131,0.87555 -1.0078,1.11221 -0.2839,0.26031 -0.52048,0.43543 -0.23659,0.17513 -0.50158,0.25088 -0.49686,0.14204 -1.0127,-0.033 -0.47324,-0.15137 -0.77143,-0.56776 -0.071,-0.12303 -0.142,-0.24606 -0.071,-0.12302 -0.10888,-0.25552 -0.14203,-0.49686 -1.4e-4,-1.00323 0.15137,-0.47324 0.53464,-0.76196 0.26024,-0.21771 0.53467,-0.51115 0.30755,-0.3029 0.75228,-1.00333 0.48732,-0.67678 0.61968,-1.71788 0.14182,-1.00798 -0.18013,-2.1342 -0.73858,-2.58368 -3.96612,-3.84673 -3.22754,-1.26305 -7.20244,-0.12676 -3.97489,1.13628 -6.04721,3.91438 -2.06285,2.81121 -1.33373,5.36177 0.30301,1.05997 1.03188,1.85488 0.72887,0.79491 1.56179,1.20176 0.83293,0.40686 1.49073,0.57712 0.70039,0.19393 1.12629,0.17967 0.40696,-0.0805 0.79501,0.0236 0.43065,0.12771 0.72409,0.40214 0.3029,0.30755 0.426,0.73816 z" id="path1373" style="stroke-width:4.05796"/>
          <path d="m -412.44734,273.41561 q 0.50547,0.45799 0.53937,1.14617 0.0339,0.68819 -0.42409,1.19365 -0.45799,0.50547 -1.14618,0.53937 l -20.37027,1.00364 0.62388,12.6626 q 0.0339,0.68818 -0.42408,1.19365 -0.458,0.50546 -1.14618,0.53937 -0.68819,0.0339 -1.19365,-0.42409 -0.50547,-0.458 -0.53937,-1.14618 l -0.70526,-14.31425 q -0.0288,-0.58495 0.42579,-1.15923 0.4563,-0.53988 1.14448,-0.57378 l 22.02191,-1.08501 q 0.68819,-0.0339 1.19365,0.42409 z" id="path1375" style="stroke-width:4.05796"/>
          <path d="m -421.38002,316.63801 q -3.14681,0.70747 -6.4653,0.0859 -3.31849,-0.62154 -5.99597,-2.41988 -2.67748,-1.79833 -4.03456,-4.47096 -1.36342,-2.63876 -0.82433,-5.51705 0.53909,-2.87828 2.7714,-4.87863 2.22597,-1.96649 5.37277,-2.67395 3.14681,-0.70747 6.4653,-0.0859 3.3185,0.62154 5.99598,2.41988 2.67748,1.79833 4.0409,4.4371 1.35708,2.67262 0.81799,5.55091 -0.53909,2.87828 -2.76506,4.84477 -2.23231,2.00035 -5.37912,2.70781 z m -12.242,-6.49888 q 2.3221,2.57297 6.38556,3.33404 4.06346,0.76107 7.15931,-0.79714 3.09585,-1.55821 3.59054,-4.19946 0.4947,-2.64125 -1.8274,-5.21422 -2.32209,-2.57297 -6.38555,-3.33404 -4.06346,-0.76107 -7.15931,0.79714 -3.09585,1.55821 -3.59055,4.19946 -0.49469,2.64125 1.8274,5.21422 z" id="path1377" style="stroke-width:4.05796"/>
          <path d="m -426.00593,344.12385 q 0.23384,0.64076 -0.0568,1.26547 -0.29065,0.62472 -0.93141,0.85856 -0.64075,0.23385 -1.26547,-0.0568 l -14.74329,-6.85938 q -2.99863,-1.39512 -3.86418,-4.7616 -0.88008,-3.33524 0.64584,-6.615 1.52592,-3.27975 4.65856,-4.78606 3.11809,-1.47507 6.11673,-0.0799 l 14.74329,6.85938 q 0.62471,0.29065 0.85856,0.93141 0.23384,0.64076 -0.0568,1.26547 -0.29065,0.62472 -0.93141,0.85856 -0.64076,0.23385 -1.26547,-0.0568 l -14.74329,-6.85939 q -1.56179,-0.72663 -3.44848,0.14345 -1.90123,0.90131 -2.93304,3.11905 -1.03182,2.21774 -0.48212,4.22136 0.53516,2.03485 2.09695,2.76148 l 14.74329,6.85938 q 0.62472,0.29065 0.85856,0.93141 z" id="path1379" style="stroke-width:4.05796"/>
          <path d="m -452.04993,342.87911 17.12273,13.89079 q 0.53509,0.43408 0.58408,1.13926 0.0273,0.73193 -0.34168,1.18675 l -4.51451,5.56489 q -0.65113,0.80263 -1.66167,1.44677 -1.03225,0.6709 -2.60613,1.07984 -1.54713,0.43064 -3.26843,0.36509 -1.7213,-0.0655 -3.89947,-0.9897 -2.17311,-0.8757 -4.31345,-2.61204 -2.14035,-1.73635 -3.47204,-3.70392 -1.32665,-1.91912 -1.74569,-3.58992 -0.41904,-1.6708 -0.34339,-3.29519 0.1024,-1.60268 0.54605,-2.75107 0.42195,-1.12164 1.07308,-1.92427 l 4.5145,-5.56488 q 0.43409,-0.53509 1.13927,-0.58408 0.73193,-0.0273 1.18675,0.34168 z m -0.79942,3.61022 -3.47269,4.28068 q -0.30386,0.37456 -0.58247,0.99141 -0.25186,0.63856 -0.3346,1.72485 -0.056,1.10799 0.23735,2.27756 0.29333,1.16956 1.33223,2.67779 1.06566,1.52994 2.80468,2.94073 1.73903,1.41078 3.42906,2.11639 1.71679,0.72731 2.9217,0.77319 1.20491,0.0459 2.2508,-0.25905 1.07265,-0.28323 1.6188,-0.68304 0.57291,-0.3781 0.87677,-0.75266 l 3.4727,-4.28068 z" id="path1381" style="stroke-width:4.05796"/>
        </g>
        <g aria-label="ACTION" transform="matrix(0.13331203,-0.16056745,0.16056745,0.13331203,-621.39126,433.14297)" id="text2582" style="font-size:35.2778px;font-family:'Routed Gothic';-inkscape-font-specification:'Routed Gothic, Normal';letter-spacing:6.11188px;display:inline;fill:#ffffff;stroke-width:4.05796">
          <path d="m -658.7822,292.83646 q 0.0462,-0.24651 0.19855,-0.46831 0.15233,-0.2218 0.34536,-0.37819 0.19302,-0.15639 0.42355,-0.28167 0.23372,-0.091 0.47384,-0.11337 0.27442,-0.0256 0.55843,0.0518 l 22.65681,5.50045 q 0.49622,0.12675 0.8465,0.54391 0.35029,0.41716 0.39504,0.89739 l 0.0895,0.96046 0.0895,0.96047 q 0.048,0.51453 -0.2535,0.99243 -0.26716,0.47471 -0.70031,0.65348 l -21.25015,9.59257 q -0.26483,0.12848 -0.53924,0.15406 -0.34303,0.032 -0.66454,-0.0765 -0.32151,-0.10843 -0.5872,-0.36047 -0.26249,-0.21774 -0.39417,-0.51687 -0.12848,-0.26483 -0.15406,-0.53925 -0.048,-0.51453 0.2192,-0.98924 0.27036,-0.4404 0.73461,-0.65667 l 3.71718,-1.69585 -1.04861,-11.25116 -3.96654,-0.97973 q -0.49622,-0.12675 -0.8465,-0.54391 -0.34709,-0.38285 -0.39504,-0.89739 -0.0288,-0.30872 0.0518,-0.55843 z m 8.55484,3.80453 0.83761,8.98721 12.68468,-5.71485 z" id="path1346" style="stroke-width:4.05796"/>
          <path d="m -641.48023,334.30384 q 0.22365,0.65171 -0.076,1.26447 -0.29964,0.61276 -0.95135,0.83642 -0.68429,0.23484 -1.92736,0.11509 -1.24306,-0.11974 -2.72926,-0.62955 -1.45361,-0.52099 -2.82739,-1.87069 -1.3626,-1.31712 -2.02239,-3.23966 -1.42023,-4.13836 1.27879,-8.16061 2.74279,-4.00084 7.6632,-5.68946 3.19337,-1.09593 6.40949,-0.852 3.21612,0.24394 5.70359,1.86705 2.49865,1.65571 3.44919,4.42547 0.5256,1.53152 0.46273,3.04645 -0.0629,1.51493 -0.45737,2.48805 -0.36191,0.96194 -0.99666,1.87182 -0.63475,0.90988 -0.94846,1.16324 -0.26994,0.27475 -0.49707,0.46197 -0.22714,0.18722 -0.48782,0.27668 -0.48878,0.16775 -1.01304,0.0199 -0.48049,-0.12649 -0.79998,-0.52677 -0.0773,-0.11916 -0.15463,-0.23832 -0.0773,-0.11916 -0.12205,-0.2495 -0.16774,-0.48878 -0.0524,-1.00186 0.12649,-0.48049 0.49419,-0.78879 0.24854,-0.23099 0.50729,-0.53833 0.29135,-0.31853 0.69896,-1.04119 0.45138,-0.70125 0.52928,-1.74784 0.0891,-1.01401 -0.29113,-2.12191 -0.87227,-2.54167 -4.16126,-3.63475 -3.289,-1.09308 -7.19925,0.24887 -3.91026,1.34195 -5.83494,4.2243 -1.91349,2.91493 -1.05241,5.42401 0.35785,1.04273 1.12717,1.79857 0.76932,0.75583 1.62232,1.11871 0.853,0.36288 1.51879,0.49862 0.70955,0.15715 1.13412,0.12071 0.40221,-0.10161 0.79516,-0.0179 0.43672,0.10508 0.74406,0.36384 0.31853,0.29134 0.46391,0.71495 z" id="path1348" style="stroke-width:4.05796"/>
          <path d="m -625.43082,336.22079 q 0.14542,-0.66641 0.7253,-1.03855 0.57988,-0.37213 1.2463,-0.22671 0.66641,0.14542 1.03854,0.7253 l 9.22898,14.38106 q 0.37214,0.57988 0.22672,1.2463 -0.14542,0.66641 -0.72531,1.03855 -0.57988,0.37213 -1.24629,0.22671 -0.66641,-0.14542 -1.03855,-0.7253 l -3.72136,-5.79882 -17.16449,11.01523 q -0.57989,0.37214 -1.2463,0.22672 -0.66641,-0.14543 -1.03855,-0.72531 -0.37213,-0.57988 -0.22671,-1.24629 0.14542,-0.66641 0.7253,-1.03855 l 17.1645,-11.01523 -3.72137,-5.79882 q -0.37213,-0.57988 -0.22671,-1.24629 z" id="path1350" style="stroke-width:4.05796"/>
          <path d="m -607.30421,357.1764 q 0.68192,0.0156 1.15782,0.51391 0.4759,0.49826 0.46025,1.18018 -0.0156,0.68191 -0.51391,1.15781 l -15.94435,15.22891 q -0.49826,0.4759 -1.18017,0.46025 -0.68192,-0.0156 -1.15782,-0.51391 -0.47591,-0.49826 -0.46026,-1.18018 0.0156,-0.68191 0.51392,-1.15781 l 15.94435,-15.22891 q 0.49826,-0.4759 1.18017,-0.46025 z" id="path1352" style="stroke-width:4.05796"/>
          <path d="m -587.65476,380.70744 q -0.65237,3.15869 -2.58637,5.92606 -1.934,2.76737 -4.67601,4.46569 -2.74201,1.69832 -5.73641,1.83326 -2.96615,0.15468 -5.36642,-1.52277 -2.40027,-1.67746 -3.30278,-4.53579 -0.87428,-2.8386 -0.22191,-5.99729 0.65236,-3.15869 2.58637,-5.92606 1.934,-2.76737 4.67601,-4.46569 2.74201,-1.69832 5.70816,-1.853 2.9944,-0.13494 5.39467,1.54251 2.40027,1.67745 3.27454,4.51605 0.90251,2.85834 0.25015,6.01703 z m -10.96675,8.4754 q 3.30132,-1.05526 5.66949,-4.44387 2.36817,-3.38862 2.2244,-6.85151 -0.14377,-3.4629 -2.34637,-5.00221 -2.2026,-1.53931 -5.50392,-0.48405 -3.30133,1.05526 -5.66949,4.44387 -2.36817,3.38862 -2.2244,6.85151 0.14376,3.4629 2.34636,5.0022 2.2026,1.53931 5.50393,0.48406 z" id="path1354" style="stroke-width:4.05796"/>
          <path d="m -584.02597,403.00401 q -0.62027,0.28377 -1.266,0.0434 -0.64574,-0.24035 -0.92951,-0.86062 -0.28377,-0.62026 -0.0434,-1.266 l 7.69138,-20.66361 q 0.24035,-0.64573 0.89291,-0.91748 0.68484,-0.25973 1.23371,-0.0554 l 0.51659,0.19228 0.77489,0.28843 q 0.41973,0.15623 0.69076,0.51443 0.30332,0.37022 0.37686,0.7652 l 3.28507,20.99971 6.17714,-16.59546 q 0.24036,-0.64573 0.86062,-0.9295 0.62027,-0.28377 1.26601,-0.0434 0.64573,0.24035 0.9295,0.86062 0.28377,0.62026 0.0434,1.266 l -7.69138,20.66361 q -0.2043,0.54887 -0.8486,0.89722 -0.63228,0.31605 -1.27802,0.0757 l -0.45202,-0.16824 -0.58116,-0.21632 q -0.90403,-0.3365 -1.06762,-1.27964 l -3.37512,-21.54787 -6.34539,17.04748 q -0.24035,0.64573 -0.86062,0.9295 z" id="path1356" style="stroke-width:4.05796"/>
        </g>
        <path style="fill:#ff5e00;fill-opacity:0.998311;stroke:none;stroke-width:2.81468" d="m -665.00358,563.58864 c 0.0194,-0.0543 0.0435,-0.1072 0.0582,-0.163 0.0402,-0.1528 -0.003,-0.36733 0,-0.5239 0.009,-0.43633 0.0264,-0.87557 0.0699,-1.30976 0.0899,-0.89901 0.14672,-1.80195 0.35511,-2.68354 0.16447,-0.69581 0.40772,-1.3597 0.62872,-2.0374 0.14786,-0.45343 0.25449,-0.91943 0.37839,-1.37961 0.22014,-0.81759 0.43189,-1.64199 0.52393,-2.48562 0.055,-0.50388 0.0932,-1.0066 0.0932,-1.5135 0,-0.0352 -6.3e-4,-0.70128 0.0341,-1.03629 0.0679,0.50458 0.14071,0.93319 0.14071,1.38689 0,0.63413 -0.31182,1.21032 -0.28543,1.84397 0.0136,0.32496 0.0333,0.64694 0.0117,0.97213 -0.0377,0.56503 -0.15135,1.12924 -0.23868,1.68813 -0.12589,0.80569 -0.23599,1.61476 -0.39004,2.41577 -0.0363,0.18904 -0.10799,0.37114 -0.14553,0.55883 -0.004,0.0193 -0.0514,0.12904 -0.0291,0.15135 0.0223,0.0223 0.26848,-0.46344 0.27943,-0.48315 0.17487,-0.31475 0.38598,-0.60893 0.54722,-0.93139 0.12676,-0.25351 0.19996,-0.53085 0.2736,-0.80331 0.0917,-0.33923 0.16285,-0.68289 0.26779,-1.0187 0.16717,-0.53492 0.33686,-1.06698 0.44243,-1.61828 0.14435,-0.75378 0.19336,-1.52749 0.22121,-2.29352 0.0423,-0.23279 0.0383,-0.8927 0.15479,-1.55315 0.024,0.81435 -0.0791,2.26326 -0.0791,3.07828 v 0.89646 c 0,0.72095 -0.0605,1.44423 -0.0291,2.16546 0.0173,0.3978 0.0997,0.79106 0.12807,1.18751 0.0351,0.49148 0.0929,0.95759 0.20375,1.43782 0.0584,0.25284 0.11161,0.50465 0.17464,0.75675 0.041,0.16391 0.12731,0.32588 0.18629,0.48315 0.0767,0.20452 0.13677,0.56462 0.33764,0.69854 0.32414,0.2161 0.4895,0.23284 0.88486,0.23284 0.26208,0 0.56253,0.004 0.80918,-0.0989 0.21814,-0.0909 0.41403,-0.24512 0.58797,-0.40166 0.54502,-0.4905 0.49581,-1.05746 0.18046,-1.68813 -0.0898,-0.17963 -0.2294,-0.33083 -0.34346,-0.4948 -0.14225,-0.20447 -0.24823,-0.43065 -0.39003,-0.6345 -0.16507,-0.23727 -0.36191,-0.45085 -0.5123,-0.69854 -0.26607,-0.43822 -0.3836,-0.95747 -0.48318,-1.45528 -0.18066,-0.90328 -0.2768,-1.94385 -0.19792,-2.864 0.062,-0.72307 0.14972,-1.25526 0.2523,-1.97332 0.12603,-0.88214 0.36472,-1.47454 0.13898,-2.35073 -0.13019,-0.50531 -0.25187,-0.98902 -0.55354,-1.52489 0.48438,0.51698 0.97617,1.44858 1.06157,2.20366 0.11573,1.05211 -0.10178,1.30155 -0.10178,2.3588 0,0.50694 -0.027,1.00815 0.0291,1.5135 0.018,0.16195 0.0913,0.31653 0.163,0.45987 0.0241,0.0483 0.0643,0.0877 0.0873,0.13389 0.0113,0.0226 0.0408,0.0893 0.0408,0.064 0,-0.44013 0.12802,-0.839 0.23868,-1.26318 0.12933,-0.49572 0.25183,-1.00021 0.35511,-1.50186 0.20215,-0.98183 0.11664,-1.94312 -0.0698,-2.92221 -0.10398,-0.54584 -0.28296,-1.07407 -0.48901,-1.58917 -0.10979,-0.27447 -0.23052,-0.5215 -0.27943,-0.81496 -0.0149,-0.0897 -0.0247,-0.19976 -0.0116,-0.29105 0.006,-0.0396 0.0127,-0.15291 0.0291,-0.11643 0.23319,0.51819 0.31219,1.10254 0.55886,1.61827 0.18985,0.39695 0.4731,0.7408 0.60543,1.16423 0.16978,0.54326 0.25051,1.10705 0.35511,1.66485 0.16199,0.8639 0.32991,1.72428 0.44243,2.59622 0.10222,0.7922 0.0872,1.59404 0.18628,2.38667 0.008,0.0618 0.0695,0.69291 0.18629,0.63451 0.1261,-0.0631 0.33472,-0.81784 0.37839,-0.94885 0.34594,-1.03777 0.54061,-2.15359 0.41332,-3.24819 -0.11547,-0.99301 -0.50798,-1.95013 -0.54139,-2.95132 -0.0581,-1.74136 0.16357,-3.32263 0.52708,-4.5996 -0.0654,1.25588 -0.23849,1.92805 -0.22959,3.10046 0.005,0.67207 0.29782,1.79271 0.59002,2.25327 0.2729,0.43013 0.73764,0.63228 0.85311,1.21342 6.2e-4,0.007 0.002,0.0965 0.006,0.0931 0.0542,-0.0542 0.0767,-1.15025 0.0815,-1.22244 0.0443,-0.6638 0.10013,-1.33753 0.19211,-1.99664 0.10476,-0.75076 0.23149,-1.50179 0.23183,-2.26083 3.5e-4,-0.7472 -0.0638,-1.14532 -0.11242,-1.60132 -0.01,-0.30941 -0.0236,-0.60887 0.004,-0.89668 0.0828,0.27499 0.16855,1.46623 0.23303,1.93907 0.0973,0.7134 0.10594,1.24531 0.20779,1.95823 0.0824,0.5764 0.26352,1.12456 0.28526,1.71142 0.0132,0.35782 -0.0931,0.69996 -0.0931,1.05363 0,0.0312 -0.02,0.21994 0.006,0.23285 0.10152,0.0507 0.3122,-0.4563 0.33764,-0.51809 0.28254,-0.68612 0.39004,-1.19013 0.39004,-1.9268 0,-0.005 -0.0406,-1.03922 0.0408,-0.68689 0.1019,0.44152 0.0879,0.90606 0.18047,1.3505 0.0924,0.44339 0.25227,0.86909 0.3551,1.30976 0.17839,0.7645 0.2453,1.56413 0.163,2.34592 -0.0121,0.11519 -0.0781,0.79849 -0.0291,0.89645 0.0133,0.0266 0.0498,0.002 0.0698,0.0117 0.0516,0.0258 0.0965,0.078 0.15718,0.0931 0.005,10e-4 0.0988,10e-4 0.099,0 0.0213,-0.14176 10e-4,-0.28403 0.0291,-0.42494 0.0839,-0.41947 0.38918,-0.67521 0.68111,-0.96049 0.76407,-0.74666 1.17428,-1.47804 1.63001,-2.42741 0.29483,-0.6142 0.66932,-1.43444 0.69857,-2.13636 0.0358,-0.85891 -0.28652,-1.81269 -0.5414,-2.61369 -0.16113,-0.50639 -0.28501,-1.03546 -0.33182,-1.56589 -0.0111,-0.12591 -0.0301,-0.24962 -0.0406,-0.37496 -0.005,-0.0563 -0.0215,-0.21693 -0.0143,-0.41234 0.0453,0.2552 0.11,0.63956 0.13634,0.77563 0.0662,0.19864 0.20172,0.36102 0.30272,0.54137 0.13304,0.23755 0.24832,0.49049 0.40168,0.716 0.1292,0.18999 0.28058,0.36301 0.42497,0.54137 0.62557,0.77273 0.58667,1.76719 0.49482,2.701 -0.0531,0.54017 -0.12012,1.06638 -0.2445,1.59499 -0.089,0.37821 -0.27794,0.71009 -0.41333,1.07109 -0.0108,0.0288 -0.11414,0.22349 -0.0757,0.26195 0.0317,0.0317 0.34919,-0.41267 0.37839,-0.45404 0.26827,-0.38001 0.41808,-0.77564 0.57633,-1.2108 0.0819,-0.22526 0.17989,-0.45119 0.22704,-0.68689 0.0993,-0.49638 0.0806,-0.98819 0.0349,-1.49022 -0.0134,-0.14702 -0.0544,-0.28992 -0.0699,-0.43658 -0.005,-0.0488 -0.01,-0.0982 -0.0233,-0.14553 -0.004,-0.015 -0.01,-0.0617 -0.006,-0.0466 0.0947,0.35984 0.2153,0.72488 0.29107,1.08855 0.0623,0.29893 0.10309,0.60272 0.16301,0.90228 0.10377,0.51886 0.11802,1.07666 -0.0582,1.58335 -0.1737,0.49939 -0.53276,0.89123 -0.78007,1.3505 -0.37973,0.70518 -0.48859,1.45154 -0.33182,2.23532 0.045,0.22487 0.15028,0.62941 0.39585,0.72764 0.18702,0.0748 0.46107,0.0489 0.64036,-0.0408 0.109,-0.0545 0.17619,-0.17617 0.25615,-0.25613 0.30559,-0.30558 0.55255,-0.68972 0.73932,-1.09437 0.11056,-0.23952 0.17857,-0.49683 0.29689,-0.73346 0.1,-0.19989 0.20728,-0.39827 0.26197,-0.61704 0.0342,-0.13687 0.0403,-0.28124 0.0698,-0.41913 0.0648,-0.30223 0.1432,-0.5939 0.12225,-0.90809 -0.0353,-0.52948 -0.26755,-1.09188 -0.36092,-1.6241 -0.13884,-0.79129 -0.20059,-1.57881 -0.29108,-2.37502 -0.0422,-0.37145 -0.0931,-0.74292 -0.0931,-1.11767 0,-0.75259 0.10488,-1.53324 0.30271,-2.2586 0.0446,-0.16354 0.11654,-0.30643 0.18629,-0.45986 0.0238,-0.0524 0.0546,-0.10452 0.0757,-0.15717 0.008,-0.0205 0.0442,-0.0742 0.0408,-0.0524 -0.0881,0.55092 -0.0967,1.10105 -0.13389,1.65902 -0.0387,0.58023 -0.10281,1.15948 -0.12807,1.74052 -0.0309,0.71044 0.0222,1.47817 0.26196,2.15382 0.1604,0.45202 0.43009,0.85765 0.60543,1.30393 0.29872,0.76034 0.55086,1.5915 0.60543,2.40995 0.0438,0.6569 -0.0349,1.24183 -0.0349,1.88605 0,0.20498 0.007,0.40701 0.064,0.6054 0.0183,0.0639 0.0305,0.12771 0.0466,0.1921 0.008,0.0306 0.0234,0.12417 0.0175,0.0931 -0.16543,-0.86845 0.23844,-1.5548 0.41915,-2.38085 0.24744,-1.1311 0.0969,-2.73656 -0.19442,-3.84339 -0.0595,-0.36695 -0.29837,-1.52608 -0.34901,-2.30962 0.17268,0.79105 0.76894,3.04711 0.916,3.35887 0.20266,0.42962 0.34727,0.88345 0.52975,1.3214 0.21396,0.51346 0.46178,1.00453 0.61125,1.5426 0.16774,0.60381 0.22105,1.23712 0.18629,1.86276 -0.0114,0.20563 -0.09,0.2945 -0.1156,0.499 -0.008,0.0644 0.0457,0.24523 0.0457,0.31014 0,0.0272 -0.005,0.10813 0,0.0815 0.11392,-0.56955 0.4183,-1.00926 0.40268,-1.58704 -0.0106,-0.39231 -0.10873,-1.24016 -0.10103,-1.63249 0.015,-0.76412 -0.13121,-1.2369 0.13092,-1.96276 0.1902,-0.85647 0.64086,-1.84383 1.01891,-2.33743 0.51362,-0.67061 1.77823,-0.9965 2.85576,-0.96422 -1.38548,0.47353 -1.99645,0.85989 -2.44118,1.38271 -1.11541,1.38494 -1.30324,3.6596 -0.52713,5.25593 0.11833,0.22754 0.27926,0.43749 0.41915,0.65197 0.1162,0.17817 0.21487,0.36745 0.33764,0.54136 0.34302,0.48594 0.61377,0.83506 0.74514,1.42618 0.13163,0.59227 0.12182,2.52775 0.83829,2.70684 0.48284,0.12068 0.67475,-0.66929 0.7044,-0.99542 0.0597,-0.65694 0.0899,-1.32942 0.006,-1.98501 -0.0568,-0.44292 -0.20877,-0.86528 -0.33182,-1.29229 -0.15995,-0.55507 -0.29673,-1.11796 -0.48318,-1.66485 -0.21295,-0.62463 -0.34108,-1.18143 -0.25032,-1.83947 0.0278,-0.20166 0.0933,-0.39224 0.14553,-0.58794 0.0149,-0.0559 0.0283,-0.11388 0.0466,-0.16881 0.009,-0.0264 0.0214,-0.109 0.0175,-0.0815 -0.15961,1.11725 0.0181,2.36409 0.54139,3.37044 0.37984,0.73042 0.89612,1.36271 1.12354,2.17128 0.19874,0.7066 0.21897,1.49028 0.163,2.21785 -0.0531,0.6908 -0.20241,1.366 -0.12225,2.06069 0.0803,0.696 0.55351,1.56368 1.37386,1.46111 0.32828,-0.0411 0.78825,-0.39396 0.88486,-0.71601 0.0494,-0.16468 0.0111,-0.33401 0.0349,-0.50062 0.0427,-0.29878 0.10579,-0.60492 0.0932,-0.90809 -0.0121,-0.28953 -0.072,-0.58261 -0.12226,-0.86735 -0.0617,-0.34957 -0.11886,-0.70441 -0.20957,-1.0478 -0.14976,-0.56694 -0.37629,-1.13277 -0.59378,-1.67649 -0.0661,-0.16511 -0.1339,-0.31956 -0.20375,-0.48316 -0.12932,-0.30284 -0.2606,-0.60404 -0.37258,-0.91392 -0.1576,-0.43612 -0.28423,-0.88174 -0.43079,-1.3214 -0.17092,-0.51274 -0.49482,-1.20306 -0.49482,-1.75216 0,-0.0498 -0.0154,-0.23679 0.0466,-0.26777 0.0391,-0.0196 0.0846,0.16253 0.0931,0.20956 0.0513,0.28208 0.11998,0.56007 0.1921,0.83825 0.22952,0.88523 0.4929,1.72918 0.96054,2.52055 0.15849,0.2682 0.29867,0.54985 0.47154,0.80914 0.27999,0.41996 0.63193,0.81999 0.99547,1.17005 0.60319,0.58081 1.37522,1.04691 1.793,1.79291 0.32675,0.58346 0.51417,1.24524 0.58797,1.90933 0.0474,0.42691 0.009,1.13878 0.29689,1.48439 0.33096,0.39713 0.91516,0.45609 1.36222,0.21538 0.41264,-0.22218 0.37423,-0.5713 0.39003,-0.96631 0.007,-0.16537 0.0116,-0.32906 0.0116,-0.49479 0,-1.07295 -0.43468,-2.41324 -0.90233,-3.36462 -0.18872,-0.38392 -0.42017,-0.74635 -0.59961,-1.13512 -0.19144,-0.41477 -0.31859,-0.85898 -0.49482,-1.28065 -0.19956,-0.4775 -0.43061,-0.92837 -0.57632,-1.42618 -0.13338,-0.45566 -0.25774,-0.91564 -0.40168,-1.36797 -0.009,-0.0277 -0.13916,-0.29743 -0.10479,-0.33181 0.0399,-0.0399 0.0523,0.10001 0.0757,0.15136 0.0668,0.14696 0.12308,0.29756 0.18047,0.44822 0.19187,0.50367 0.31547,1.0322 0.5181,1.53096 0.22428,0.55201 0.46957,1.11496 0.79172,1.61828 0.15864,0.24785 0.36568,0.45869 0.53557,0.69853 0.15672,0.22124 0.28172,0.45976 0.44825,0.67526 0.17049,0.22061 0.34774,0.43558 0.50065,0.66943 0.16973,0.25958 0.31667,0.53319 0.489,0.79167 0.15592,0.23388 0.33901,0.44737 0.49482,0.68108 0.11397,0.17094 0.20605,0.35523 0.31436,0.52972 0.18461,0.29742 0.38215,0.58485 0.55304,0.89064 0.19686,0.35226 0.34763,0.72707 0.51228,1.09437 0.21212,0.47318 0.48228,0.91252 0.62872,1.41454 0.19354,0.6635 0.22287,1.38728 0.27361,2.07232 0.059,0.79613 0.0159,2.21469 -0.39004,2.90475 -0.12892,0.21916 -0.32896,0.35467 -0.51229,0.5239 -0.0849,0.0784 -0.15703,0.16867 -0.23868,0.25031 -0.21692,0.2169 -0.79482,0.51875 -1.10607,0.58793 -0.29118,0.0647 -0.60665,0.0708 -0.90232,0.099 -0.79052,0.0753 -1.62734,0.11566 -2.39262,-0.13388 -0.20388,-0.0665 -0.39485,-0.1747 -0.5705,-0.29688 -0.17937,-0.12478 -0.35615,-0.29371 -0.58214,-0.32599 -0.23792,-0.034 -0.51457,0.0498 -0.75097,0.064 -0.37035,0.0222 -0.74139,0.003 -1.11189,0.0233 -0.30543,0.0164 -0.60916,0.0573 -0.91397,0.0815 -0.74302,0.059 -1.49656,0.0764 -2.24125,0.0466 -0.37876,-0.0152 -0.75582,-0.0534 -1.13518,-0.0582 -0.91545,-0.0116 -1.82954,0.10917 -2.73608,0.2212 -1.07949,0.13341 -2.16488,0.19864 -3.24254,0.34928 -0.77417,0.10821 -1.5524,0.21063 -2.32276,0.34344 -0.80856,0.1394 -1.61388,0.27849 -2.43336,0.33763 -2.13599,0.15413 -4.24242,-0.13825 -6.33955,-0.5239 -1.1331,-0.20838 -2.218,-0.38953 -3.33569,-0.68108 -1.44022,-0.37568 -2.68546,-0.72987 -3.7199,-1.86276 -0.29806,-0.32644 -0.52082,-0.85493 -0.71021,-1.25737 -0.007,-0.0151 -0.15733,-0.33494 -0.18047,-0.32598 -0.0592,0.0229 -0.11642,0.0504 -0.17464,0.0757 z" id="path554" sodipodi:nodetypes="cscssscsscscscssscssscccssssssssssssssscsssccsssssssssssccssssscsscsscccssccssssscsscssscscccssscsccccssssscsscsscssssssscsssssscssscsscsssssscscccsscsscsccscccscssssssssscssssssscssssssssscscssssssssssssssssssssssssssssssssssssssssssssssssssc"/>
        <g id="g8741" transform="matrix(0.20869596,0,0,0.20869596,-534.15609,420.59366)" style="stroke-width:5.76368">
          <path id="path2999" style="fill:#ffffff;fill-opacity:1;stroke-width:30.5014" d="m -562.4378,624.71704 c -21.0476,1.9e-4 -38.10992,17.06274 -38.10982,38.11034 0.007,2.15363 0.1964,4.30279 0.56638,6.42441 -2.3293,-0.67231 -4.74159,-1.01362 -7.16597,-1.01389 -14.27737,5e-5 -25.85137,11.57428 -25.85114,25.85165 5e-5,14.27717 11.57397,25.85109 25.85114,25.85114 56.52538,0 107.6327,0 154.9864,0 7.81916,6e-5 14.15785,-6.33863 14.15779,-14.15779 7e-5,-7.81916 -6.33863,-14.15786 -14.15779,-14.1578 -0.94619,0.003 -1.8897,0.10079 -2.81637,0.29198 0.99522,-2.79729 1.5069,-5.7436 1.51309,-8.71265 -2e-4,-14.44512 -11.71039,-26.15507 -26.15551,-26.15499 -3.30329,10e-4 -6.57647,0.628 -9.64644,1.84743 -4.82356,-9.11727 -14.29266,-14.82045 -24.60728,-14.8208 -4.7674,0.004 -9.45392,1.23206 -13.61054,3.56671 -6.04699,-13.92016 -19.77709,-22.92551 -34.95394,-22.92574 z" sodipodi:nodetypes="ccccsccscccccccc" inkscape:label="cloud"/>
          <g id="g8651" inkscape:label="circuits" style="stroke-width:5.76368">
            <g id="path5265" style="stroke-width:5.76368">
              <path style="color:#000000;fill:#ffffff;stroke-width:18.2997;-inkscape-stroke:none" d="m -552.33394,672.03602 h -22.57393 v 16.10466" id="path2022"/>
              <path style="color:#000000;fill:#000000;stroke-width:5.76368;-inkscape-stroke:none" d="m -576.49609,670.44922 v 17.6914 h 3.17578 v -14.51757 h 20.98633 v -3.17383 z" id="path2024"/>
              <g id="g2004" style="stroke-width:5.76368">
                <g id="path2014" style="stroke-width:5.76368">
                  <path style="color:#000000;fill:#ffffff;fill-rule:evenodd;stroke-width:6.09988;-inkscape-stroke:none" d="m -574.90787,690.78651 c -1.4605,0 -2.64583,-1.18533 -2.64583,-2.64583 0,-1.4605 1.18533,-2.64583 2.64583,-2.64583 1.4605,0 2.64583,1.21708 2.64583,2.64583 0,1.4605 -1.18533,2.64583 -2.64583,2.64583 z" id="path2018"/>
                  <path style="color:#000000;fill:#000000;fill-rule:evenodd;stroke-width:5.76368;-inkscape-stroke:none" d="m -574.9082,684.96484 c -1.74681,0 -3.17383,1.42898 -3.17383,3.17578 0,1.74681 1.42702,3.17579 3.17383,3.17579 1.74681,0 3.17578,-1.42898 3.17578,-3.17579 0,-1.72142 -1.42131,-3.17578 -3.17578,-3.17578 z m 0,1.0586 c 1.16652,0 2.11718,0.98111 2.11718,2.11718 0,1.17419 -0.943,2.11719 -2.11718,2.11719 -1.17419,0 -2.11719,-0.943 -2.11719,-2.11719 0,-1.17418 0.943,-2.11718 2.11719,-2.11718 z" id="path2020"/>
                </g>
                <g id="path2006" style="stroke-width:5.76368">
                  <path style="color:#000000;fill:#ffffff;fill-rule:evenodd;stroke-width:6.09988;-inkscape-stroke:none" d="m -576.77876,673.90691 c -1.03273,-1.03273 -1.03273,-2.70905 0,-3.74178 1.03273,-1.03273 2.70905,-1.03273 3.74178,0 1.03273,1.03273 1.01028,2.7315 0,3.74178 -1.03273,1.03273 -2.70905,1.03273 -3.74178,0 z" id="path2010"/>
                  <path style="color:#000000;fill:#000000;fill-rule:evenodd;stroke-width:5.76368;-inkscape-stroke:none" d="m -574.9082,668.86523 c -0.81374,0 -1.62655,0.30819 -2.24414,0.92579 -1.23519,1.23518 -1.23519,3.25505 0,4.49023 1.23518,1.23518 3.25505,1.23518 4.49023,0 1.21723,-1.21723 1.24061,-3.24963 0,-4.49023 -0.61759,-0.6176 -1.43236,-0.92579 -2.24609,-0.92579 z m 0,1.05079 c 0.54078,0 1.08095,0.2079 1.49609,0.62304 0.82485,0.82486 0.80333,2.19082 0,2.99414 -0.83028,0.83028 -2.16191,0.83028 -2.99219,0 -0.83027,-0.83027 -0.83027,-2.16386 0,-2.99414 0.41514,-0.41514 0.95531,-0.62304 1.4961,-0.62304 z" id="path2012"/>
                </g>
              </g>
            </g>
            <g id="path6039" style="stroke-width:5.76368">
              <path style="color:#000000;fill:#ffffff;stroke-width:18.2997;-inkscape-stroke:none" d="m -468.05199,720.20913 v -45.38797 h -38.78882" id="path2046"/>
              <path style="color:#000000;fill:#000000;stroke-width:5.76368;-inkscape-stroke:none" d="m -506.83984,673.23437 v 3.17383 h 37.20117 v 43.80078 h 3.17383 v -46.97461 z" id="path2048"/>
              <g id="g2028" style="stroke-width:5.76368">
                <g id="path2038" style="stroke-width:5.76368">
                  <path style="color:#000000;fill:#ffffff;fill-rule:evenodd;stroke-width:6.09988;-inkscape-stroke:none" d="m -509.48664,674.82116 c 0,-1.4605 1.18533,-2.64583 2.64583,-2.64583 1.4605,0 2.64583,1.18533 2.64583,2.64583 0,1.4605 -1.21708,2.64583 -2.64583,2.64583 -1.4605,0 -2.64583,-1.18533 -2.64583,-2.64583 z" id="path2042"/>
                  <path style="color:#000000;fill:#000000;fill-rule:evenodd;stroke-width:5.76368;-inkscape-stroke:none" d="m -506.83984,671.64648 c -1.74681,0 -3.17578,1.42702 -3.17578,3.17383 0,1.74681 1.42897,3.17578 3.17578,3.17578 1.72142,0 3.17382,-1.4213 3.17382,-3.17578 0,-1.74681 -1.42701,-3.17383 -3.17382,-3.17383 z m 0,1.0586 c 1.17418,0 2.11523,0.94104 2.11523,2.11523 0,1.16652 -0.97916,2.11719 -2.11523,2.11719 -1.17419,0 -2.11719,-0.943 -2.11719,-2.11719 0,-1.17419 0.943,-2.11523 2.11719,-2.11523 z" id="path2044"/>
                </g>
                <g id="path2030" style="stroke-width:5.76368">
                  <path style="color:#000000;fill:#ffffff;fill-rule:evenodd;stroke-width:6.09988;-inkscape-stroke:none" d="m -469.92288,672.95027 c 1.03273,-1.03273 2.70905,-1.03273 3.74178,0 1.03273,1.03273 1.03273,2.70905 0,3.74178 -1.03273,1.03273 -2.7315,1.01028 -3.74178,0 -1.03273,-1.03273 -1.03273,-2.70905 0,-3.74178 z" id="path2034"/>
                  <path style="color:#000000;fill:#000000;fill-rule:evenodd;stroke-width:5.76368;-inkscape-stroke:none" d="m -468.05273,671.65039 c -0.81374,0 -1.62655,0.30819 -2.24414,0.92578 -1.23519,1.23518 -1.23519,3.25505 0,4.49024 1.21723,1.21723 3.24962,1.2406 4.49023,0 1.23518,-1.23519 1.23518,-3.25506 0,-4.49024 -0.61759,-0.61759 -1.43236,-0.92578 -2.24609,-0.92578 z m 0,1.05078 c 0.54078,0 1.0829,0.20791 1.49804,0.62305 0.83028,0.83027 0.83028,2.16386 0,2.99414 -0.82485,0.82485 -2.19081,0.80333 -2.99414,0 -0.83027,-0.83028 -0.83027,-2.16387 0,-2.99414 0.41514,-0.41514 0.95531,-0.62305 1.4961,-0.62305 z" id="path2036"/>
                </g>
              </g>
            </g>
            <g id="path5254" style="stroke-width:5.76368">
              <path style="color:#000000;fill:#ffffff;stroke-width:18.2997;-inkscape-stroke:none" d="m -552.18455,671.94897 v 15.76089" id="path2062"/>
              <path style="color:#000000;fill:#000000;stroke-width:5.76368;-inkscape-stroke:none" d="m -553.77148,671.94922 v 15.75976 h 3.17382 v -15.75976 z" id="path2064"/>
              <g id="g2052" style="stroke-width:5.76368">
                <g id="path2054" style="stroke-width:5.76368">
                  <path style="color:#000000;fill:#ffffff;fill-rule:evenodd;stroke-width:6.09988;-inkscape-stroke:none" d="m -552.18455,690.35569 c -1.4605,0 -2.64583,-1.18533 -2.64583,-2.64583 0,-1.4605 1.18533,-2.64583 2.64583,-2.64583 1.4605,0 2.64583,1.21708 2.64583,2.64583 0,1.4605 -1.18533,2.64583 -2.64583,2.64583 z" id="path2058"/>
                  <path style="color:#000000;fill:#000000;fill-rule:evenodd;stroke-width:5.76368;-inkscape-stroke:none" d="m -552.18359,684.53516 c -1.74681,0 -3.17578,1.42702 -3.17578,3.17382 0,1.74681 1.42897,3.17579 3.17578,3.17579 1.74681,0 3.17382,-1.42898 3.17382,-3.17579 0,-1.72142 -1.41935,-3.17382 -3.17382,-3.17382 z m 0,1.05859 c 1.16652,0 2.11523,0.97916 2.11523,2.11523 0,1.17419 -0.94105,2.11719 -2.11523,2.11719 -1.17419,0 -2.11719,-0.943 -2.11719,-2.11719 0,-1.17418 0.943,-2.11523 2.11719,-2.11523 z" id="path2060"/>
                </g>
              </g>
            </g>
            <g id="path6094" style="stroke-width:5.76368">
              <path style="color:#000000;fill:#ffffff;stroke-width:18.2997;-inkscape-stroke:none" d="m -574.00107,648.0539 h 21.79939 v 24.15632 h 12.92557 v 11.45111" id="path2110"/>
              <path style="color:#000000;fill:#000000;stroke-width:5.76368;-inkscape-stroke:none" d="m -574.00195,646.4668 v 3.17382 h 20.21289 v 24.15625 h 12.92578 v 9.86524 h 3.17383 v -13.03906 h -12.92383 V 646.4668 Z" id="path2112"/>
              <g id="g2068" style="stroke-width:5.76368">
                <g id="path2102" style="stroke-width:5.76368">
                  <path style="color:#000000;fill:#ffffff;fill-rule:evenodd;stroke-width:6.09988;-inkscape-stroke:none" d="m -539.27611,686.30716 c -1.4605,0 -2.64583,-1.18533 -2.64583,-2.64583 0,-1.4605 1.18533,-2.64583 2.64583,-2.64583 1.4605,0 2.64583,1.21708 2.64583,2.64583 0,1.4605 -1.18533,2.64583 -2.64583,2.64583 z" id="path2106"/>
                  <path style="color:#000000;fill:#000000;fill-rule:evenodd;stroke-width:5.76368;-inkscape-stroke:none" d="m -539.27539,680.48633 c -1.74681,0 -3.17578,1.42897 -3.17578,3.17578 0,1.74681 1.42897,3.17383 3.17578,3.17383 1.74681,0 3.17383,-1.42702 3.17383,-3.17383 0,-1.72142 -1.41935,-3.17578 -3.17383,-3.17578 z m 0,1.05859 c 1.16652,0 2.11523,0.98111 2.11523,2.11719 0,1.17419 -0.94104,2.11523 -2.11523,2.11523 -1.17419,0 -2.11719,-0.94104 -2.11719,-2.11523 0,-1.17419 0.943,-2.11719 2.11719,-2.11719 z" id="path2108"/>
                </g>
                <g id="path2094" style="stroke-width:5.76368">
                  <path style="color:#000000;fill:#ffffff;fill-rule:evenodd;stroke-width:6.09988;-inkscape-stroke:none" d="m -537.40522,674.08111 c -1.03273,1.03273 -2.70905,1.03273 -3.74178,0 -1.03273,-1.03273 -1.03273,-2.70905 0,-3.74178 1.03273,-1.03273 2.7315,-1.01028 3.74178,0 1.03273,1.03273 1.03273,2.70905 0,3.74178 z" id="path2098"/>
                  <path style="color:#000000;fill:#000000;fill-rule:evenodd;stroke-width:5.76368;-inkscape-stroke:none" d="m -539.26758,669.04297 c -0.8153,-0.003 -1.6336,0.30157 -2.2539,0.92187 -1.23519,1.23519 -1.23519,3.25506 0,4.49024 1.23518,1.23518 3.25505,1.23518 4.49023,0 1.23518,-1.23518 1.23518,-3.25505 0,-4.49024 -0.60862,-0.60861 -1.42103,-0.91895 -2.23633,-0.92187 z m 0,1.06055 c 0.54484,0.003 1.08662,0.20771 1.48828,0.60937 0.83028,0.83028 0.83028,2.16387 0,2.99414 -0.83027,0.83028 -2.16386,0.83028 -2.99414,0 -0.83027,-0.83027 -0.83027,-2.16386 0,-2.99414 0.41243,-0.41243 0.96103,-0.61207 1.50586,-0.60937 z" id="path2100"/>
                </g>
                <g id="path2086" style="stroke-width:5.76368">
                  <path style="color:#000000;fill:#ffffff;fill-rule:evenodd;stroke-width:6.09988;-inkscape-stroke:none" d="m -550.33079,674.08111 c -1.03273,1.03273 -2.70905,1.03273 -3.74178,0 -1.03273,-1.03273 -1.03273,-2.70905 0,-3.74178 1.03273,-1.03273 2.7315,-1.01028 3.74178,0 1.03273,1.03273 1.03273,2.70905 0,3.74178 z" id="path2090"/>
                  <path style="color:#000000;fill:#000000;fill-rule:evenodd;stroke-width:5.76368;-inkscape-stroke:none" d="m -552.19336,669.04297 c -0.8153,-0.003 -1.6336,0.30157 -2.25391,0.92187 -1.23518,1.23519 -1.23518,3.25506 0,4.49024 1.23519,1.23518 3.25506,1.23518 4.49024,0 1.23518,-1.23518 1.23518,-3.25505 0,-4.49024 -0.60862,-0.60861 -1.42103,-0.91895 -2.23633,-0.92187 z m 0,1.06055 c 0.54483,0.003 1.08662,0.20771 1.48828,0.60937 0.83028,0.83028 0.83028,2.16387 0,2.99414 -0.83027,0.83028 -2.16386,0.83028 -2.99414,0 -0.83027,-0.83027 -0.83027,-2.16386 0,-2.99414 0.41243,-0.41243 0.96103,-0.61207 1.50586,-0.60937 z" id="path2092"/>
                </g>
                <g id="path2078" style="stroke-width:5.76368">
                  <path style="color:#000000;fill:#ffffff;fill-rule:evenodd;stroke-width:6.09988;-inkscape-stroke:none" d="m -550.33079,649.92479 c -1.03273,1.03273 -2.70905,1.03273 -3.74178,0 -1.03273,-1.03273 -1.03273,-2.70905 0,-3.74178 1.03273,-1.03273 2.7315,-1.01028 3.74178,0 1.03273,1.03273 1.03273,2.70905 0,3.74178 z" id="path2082"/>
                  <path style="color:#000000;fill:#000000;fill-rule:evenodd;stroke-width:5.76368;-inkscape-stroke:none" d="m -552.19336,644.88672 c -0.8153,-0.003 -1.6336,0.30157 -2.25391,0.92187 -1.23518,1.23519 -1.23518,3.25506 0,4.49024 1.23519,1.23518 3.25506,1.23518 4.49024,0 1.23518,-1.23518 1.23518,-3.25505 0,-4.49024 -0.60862,-0.60861 -1.42103,-0.91895 -2.23633,-0.92187 z m 0,1.06055 c 0.54483,0.003 1.08662,0.20771 1.48828,0.60937 0.83028,0.83028 0.83028,2.16387 0,2.99414 -0.83027,0.83028 -2.16386,0.83028 -2.99414,0 -0.83027,-0.83027 -0.83027,-2.16386 0,-2.99414 0.41243,-0.41243 0.96103,-0.61207 1.50586,-0.60937 z" id="path2084"/>
                </g>
                <g id="path2070" style="stroke-width:5.76368">
                  <path style="color:#000000;fill:#ffffff;fill-rule:evenodd;stroke-width:6.09988;-inkscape-stroke:none" d="m -571.35524,648.0539 c 0,1.4605 -1.18533,2.64583 -2.64583,2.64583 -1.4605,0 -2.64583,-1.18533 -2.64583,-2.64583 0,-1.4605 1.21708,-2.64583 2.64583,-2.64583 1.4605,0 2.64583,1.18533 2.64583,2.64583 z" id="path2074"/>
                  <path style="color:#000000;fill:#000000;fill-rule:evenodd;stroke-width:5.76368;-inkscape-stroke:none" d="m -574.00195,644.87891 c -1.72142,0 -3.17383,1.4213 -3.17383,3.17578 0,1.74681 1.42702,3.17383 3.17383,3.17383 1.74681,0 3.17578,-1.42702 3.17578,-3.17383 0,-1.74681 -1.42897,-3.17578 -3.17578,-3.17578 z m 0,1.05859 c 1.17418,0 2.11718,0.943 2.11718,2.11719 0,1.17419 -0.943,2.11523 -2.11718,2.11523 -1.17419,0 -2.11524,-0.94104 -2.11524,-2.11523 0,-1.16652 0.97916,-2.11719 2.11524,-2.11719 z" id="path2076"/>
                </g>
              </g>
            </g>
            <g id="path4823" style="stroke-width:5.76368">
              <path style="color:#000000;fill:#ffffff;stroke-width:18.2997;-inkscape-stroke:none" d="M -591.63897,720.28328 V 698.48906 H -611.1313 V 681.1822" id="path2142"/>
              <path style="color:#000000;fill:#000000;stroke-width:5.76368;-inkscape-stroke:none" d="m -612.71875,681.18164 v 18.89453 h 19.49219 v 20.20703 h 3.17578 v -23.38086 h -19.49219 v -15.7207 z" id="path2144"/>
              <g id="g2116" style="stroke-width:5.76368">
                <g id="path2134" style="stroke-width:5.76368">
                  <path style="color:#000000;fill:#ffffff;fill-rule:evenodd;stroke-width:6.09988;-inkscape-stroke:none" d="m -611.1313,678.53637 c 1.4605,0 2.64583,1.18533 2.64583,2.64583 0,1.4605 -1.18533,2.64583 -2.64583,2.64583 -1.4605,0 -2.64583,-1.21708 -2.64583,-2.64583 0,-1.4605 1.18533,-2.64583 2.64583,-2.64583 z" id="path2138"/>
                  <path style="color:#000000;fill:#000000;fill-rule:evenodd;stroke-width:5.76368;-inkscape-stroke:none" d="m -611.13086,678.00781 c -1.74681,0 -3.17578,1.42702 -3.17578,3.17383 0,1.72142 1.4213,3.17578 3.17578,3.17578 1.74681,0 3.17383,-1.42897 3.17383,-3.17578 0,-1.74681 -1.42702,-3.17383 -3.17383,-3.17383 z m 0,1.0586 c 1.17419,0 2.11719,0.94104 2.11719,2.11523 0,1.17419 -0.943,2.11719 -2.11719,2.11719 -1.16652,0 -2.11719,-0.98111 -2.11719,-2.11719 0,-1.17419 0.943,-2.11523 2.11719,-2.11523 z" id="path2140"/>
                </g>
                <g id="path2126" style="stroke-width:5.76368">
                  <path style="color:#000000;fill:#ffffff;fill-rule:evenodd;stroke-width:6.09988;-inkscape-stroke:none" d="m -613.00219,696.61817 c 1.03273,-1.03273 2.70905,-1.03273 3.74178,0 1.03273,1.03273 1.03273,2.70905 0,3.74178 -1.03273,1.03273 -2.7315,1.01028 -3.74178,0 -1.03273,-1.03273 -1.03273,-2.70905 0,-3.74178 z" id="path2130"/>
                  <path style="color:#000000;fill:#000000;fill-rule:evenodd;stroke-width:5.76368;-inkscape-stroke:none" d="m -611.13086,695.31836 c -0.81374,0 -1.6285,0.30819 -2.24609,0.92578 -1.23519,1.23518 -1.23519,3.25505 0,4.49023 1.21723,1.21724 3.24963,1.24061 4.49023,0 1.23518,-1.23518 1.23518,-3.25505 0,-4.49023 -0.61759,-0.61759 -1.4304,-0.92578 -2.24414,-0.92578 z m 0,1.05078 c 0.54079,0 1.08096,0.20791 1.49609,0.62305 0.83028,0.83027 0.83028,2.16386 0,2.99414 -0.82485,0.82485 -2.19081,0.80333 -2.99414,0 -0.83027,-0.83028 -0.83027,-2.16387 0,-2.99414 0.41514,-0.41514 0.95726,-0.62305 1.49805,-0.62305 z" id="path2132"/>
                </g>
                <g id="path2118" style="stroke-width:5.76368">
                  <path style="color:#000000;fill:#ffffff;fill-rule:evenodd;stroke-width:6.09988;-inkscape-stroke:none" d="m -593.50986,696.61817 c 1.03273,-1.03273 2.70905,-1.03273 3.74178,0 1.03273,1.03273 1.03273,2.70905 0,3.74178 -1.03273,1.03273 -2.7315,1.01028 -3.74178,0 -1.03273,-1.03273 -1.03273,-2.70905 0,-3.74178 z" id="path2122"/>
                  <path style="color:#000000;fill:#000000;fill-rule:evenodd;stroke-width:5.76368;-inkscape-stroke:none" d="m -591.63867,695.31836 c -0.81374,0 -1.6285,0.30819 -2.2461,0.92578 -1.23518,1.23518 -1.23518,3.25505 0,4.49023 1.21724,1.21724 3.24963,1.24061 4.49024,0 1.23518,-1.23518 1.23518,-3.25505 0,-4.49023 -0.61759,-0.61759 -1.43041,-0.92578 -2.24414,-0.92578 z m 0,1.05078 c 0.54079,0 1.08095,0.20791 1.49609,0.62305 0.83028,0.83027 0.83028,2.16386 0,2.99414 -0.82485,0.82485 -2.18886,0.80333 -2.99219,0 -0.83027,-0.83028 -0.83027,-2.16387 0,-2.99414 0.41514,-0.41514 0.95531,-0.62305 1.4961,-0.62305 z" id="path2124"/>
                </g>
              </g>
            </g>
            <g id="path5238" style="stroke-width:5.76368">
              <path style="color:#000000;fill:#ffffff;stroke-width:18.2997;-inkscape-stroke:none" d="m -591.59291,709.45819 h 16.3853 v -6.77733" id="path2158"/>
              <path style="color:#000000;fill:#000000;stroke-width:5.76368;-inkscape-stroke:none" d="m -576.79492,702.68164 v 5.18945 h -14.79883 v 3.17383 h 17.97461 v -8.36328 z" id="path2160"/>
              <g id="g2148" style="stroke-width:5.76368">
                <g id="path2150" style="stroke-width:5.76368">
                  <path style="color:#000000;fill:#ffffff;fill-rule:evenodd;stroke-width:6.09988;-inkscape-stroke:none" d="m -575.20761,700.03503 c 1.4605,0 2.64583,1.18533 2.64583,2.64583 0,1.4605 -1.18533,2.64583 -2.64583,2.64583 -1.4605,0 -2.64583,-1.21708 -2.64583,-2.64583 0,-1.4605 1.18533,-2.64583 2.64583,-2.64583 z" id="path2154"/>
                  <path style="color:#000000;fill:#000000;fill-rule:evenodd;stroke-width:5.76368;-inkscape-stroke:none" d="m -575.20703,699.50586 c -1.74681,0 -3.17578,1.42897 -3.17578,3.17578 0,1.72142 1.4213,3.17383 3.17578,3.17383 1.74681,0 3.17383,-1.42702 3.17383,-3.17383 0,-1.74681 -1.42702,-3.17578 -3.17383,-3.17578 z m 0,1.05859 c 1.17419,0 2.11523,0.943 2.11523,2.11719 0,1.17419 -0.94104,2.11523 -2.11523,2.11523 -1.16652,0 -2.11719,-0.97915 -2.11719,-2.11523 0,-1.17419 0.943,-2.11719 2.11719,-2.11719 z" id="path2156"/>
                </g>
              </g>
            </g>
            <g id="path6027" style="stroke-width:5.76368">
              <path style="color:#000000;fill:#ffffff;stroke-width:18.2997;-inkscape-stroke:none" d="m -468.03997,686.01039 h -13.36533 v 11.85627" id="path2182"/>
              <path style="color:#000000;fill:#000000;stroke-width:5.76368;-inkscape-stroke:none" d="m -482.99219,684.42383 v 13.44336 h 3.17383 v -10.26953 h 11.7793 v -3.17383 z" id="path2184"/>
              <g id="g2164" style="stroke-width:5.76368">
                <g id="path2174" style="stroke-width:5.76368">
                  <path style="color:#000000;fill:#ffffff;fill-rule:evenodd;stroke-width:6.09988;-inkscape-stroke:none" d="m -481.4053,700.51249 c -1.4605,0 -2.64583,-1.18533 -2.64583,-2.64583 0,-1.4605 1.18533,-2.64583 2.64583,-2.64583 1.4605,0 2.64583,1.21708 2.64583,2.64583 0,1.4605 -1.18533,2.64583 -2.64583,2.64583 z" id="path2178"/>
                  <path style="color:#000000;fill:#000000;fill-rule:evenodd;stroke-width:5.76368;-inkscape-stroke:none" d="m -481.40625,694.69141 c -1.74681,0 -3.17383,1.42897 -3.17383,3.17578 0,1.74681 1.42702,3.17383 3.17383,3.17383 1.74681,0 3.17578,-1.42702 3.17578,-3.17383 0,-1.72142 -1.4213,-3.17578 -3.17578,-3.17578 z m 0,1.05859 c 1.16652,0 2.11719,0.98111 2.11719,2.11719 0,1.17419 -0.943,2.11523 -2.11719,2.11523 -1.17419,0 -2.11523,-0.94104 -2.11523,-2.11523 0,-1.17419 0.94104,-2.11719 2.11523,-2.11719 z" id="path2180"/>
                </g>
                <g id="path2166" style="stroke-width:5.76368">
                  <path style="color:#000000;fill:#ffffff;fill-rule:evenodd;stroke-width:6.09988;-inkscape-stroke:none" d="m -483.27619,687.88128 c -1.03273,-1.03273 -1.03273,-2.70905 0,-3.74178 1.03273,-1.03273 2.70905,-1.03273 3.74178,0 1.03273,1.03273 1.01028,2.7315 0,3.74178 -1.03273,1.03273 -2.70905,1.03273 -3.74178,0 z" id="path2170"/>
                  <path style="color:#000000;fill:#000000;fill-rule:evenodd;stroke-width:5.76368;-inkscape-stroke:none" d="m -481.40625,682.83984 c -0.81374,0 -1.62655,0.30819 -2.24414,0.92578 -1.23518,1.23519 -1.23518,3.25506 0,4.49024 1.23518,1.23518 3.25505,1.23518 4.49023,0 1.21723,-1.21723 1.24061,-3.24963 0,-4.49024 -0.61759,-0.61759 -1.43235,-0.92578 -2.24609,-0.92578 z m 0,1.05078 c 0.54079,0 1.08291,0.20791 1.49805,0.62305 0.82485,0.82485 0.80332,2.19082 0,2.99414 -0.83028,0.83028 -2.16387,0.83028 -2.99414,0 -0.83028,-0.83027 -0.83028,-2.16386 0,-2.99414 0.41513,-0.41514 0.9553,-0.62305 1.49609,-0.62305 z" id="path2172"/>
                </g>
              </g>
            </g>
            <g id="path6060" style="stroke-width:5.76368">
              <path style="color:#000000;fill:#ffffff;stroke-width:18.2997;-inkscape-stroke:none" d="m -506.27209,691.89308 v 18.28298" id="path2206"/>
              <path style="color:#000000;fill:#000000;stroke-width:5.76368;-inkscape-stroke:none" d="m -507.85937,691.89258 v 18.2832 h 3.17382 v -18.2832 z" id="path2208"/>
              <g id="g2188" style="stroke-width:5.76368">
                <g id="path2198" style="stroke-width:5.76368">
                  <path style="color:#000000;fill:#ffffff;fill-rule:evenodd;stroke-width:6.09988;-inkscape-stroke:none" d="m -506.27209,712.82189 c -1.4605,0 -2.64583,-1.18533 -2.64583,-2.64583 0,-1.4605 1.18533,-2.64583 2.64583,-2.64583 1.4605,0 2.64583,1.21708 2.64583,2.64583 0,1.4605 -1.18533,2.64583 -2.64583,2.64583 z" id="path2202"/>
                  <path style="color:#000000;fill:#000000;fill-rule:evenodd;stroke-width:5.76368;-inkscape-stroke:none" d="m -506.27148,707.00195 c -1.74681,0 -3.17579,1.42702 -3.17579,3.17383 0,1.74681 1.42898,3.17578 3.17579,3.17578 1.7468,0 3.17382,-1.42897 3.17382,-3.17578 0,-1.72142 -1.41935,-3.17383 -3.17382,-3.17383 z m 0,1.05664 c 1.16651,0 2.11523,0.98112 2.11523,2.11719 0,1.17419 -0.94105,2.11719 -2.11523,2.11719 -1.17419,0 -2.11719,-0.943 -2.11719,-2.11719 0,-1.17419 0.943,-2.11719 2.11719,-2.11719 z" id="path2204"/>
                </g>
                <g id="path2190" style="stroke-width:5.76368">
                  <path style="color:#000000;fill:#ffffff;fill-rule:evenodd;stroke-width:6.09988;-inkscape-stroke:none" d="m -506.27209,694.53891 c -1.4605,0 -2.64583,-1.18533 -2.64583,-2.64583 0,-1.4605 1.18533,-2.64583 2.64583,-2.64583 1.4605,0 2.64583,1.21708 2.64583,2.64583 0,1.4605 -1.18533,2.64583 -2.64583,2.64583 z" id="path2194"/>
                  <path style="color:#000000;fill:#000000;fill-rule:evenodd;stroke-width:5.76368;-inkscape-stroke:none" d="m -506.27148,688.71875 c -1.74681,0 -3.17579,1.42702 -3.17579,3.17383 0,1.74681 1.42898,3.17578 3.17579,3.17578 1.7468,0 3.17382,-1.42897 3.17382,-3.17578 0,-1.72142 -1.41935,-3.17383 -3.17382,-3.17383 z m 0,1.05859 c 1.16651,0 2.11523,0.97916 2.11523,2.11524 0,1.17419 -0.94105,2.11719 -2.11523,2.11719 -1.17419,0 -2.11719,-0.943 -2.11719,-2.11719 0,-1.17419 0.943,-2.11524 2.11719,-2.11524 z" id="path2196"/>
                </g>
              </g>
            </g>
            <path style="color:#000000;fill:#000000;stroke-width:5.76368;-inkscape-stroke:none" d="m -565.05664,624.61609 v 23.78235 h 3.09961 v -23.78235 z" id="path642" sodipodi:nodetypes="ccccc"/>
            <g id="path1258" transform="translate(-3.7505952,-15.582117)" style="stroke-width:5.76368">
              <path style="color:#000000;fill:#fefefe;stroke-width:17.8674;-inkscape-stroke:none" d="m -464.10441,721.50546 h 18.11274" id="path2226"/>
              <path style="color:#000000;fill:#000000;stroke-width:5.76368;-inkscape-stroke:none" d="m -464.10352,719.95508 v 3.09961 h 18.11133 v -3.09961 z" id="path2228"/>
              <g id="g2216" style="stroke-width:5.76368">
                <g id="path2218" style="stroke-width:5.76368">
                  <path style="color:#000000;fill:#fefefe;fill-rule:evenodd;stroke-width:5.95579;-inkscape-stroke:none" d="m -443.40834,721.50546 c 0,1.426 -1.15733,2.58333 -2.58333,2.58333 -1.426,0 -2.58333,-1.15733 -2.58333,-2.58333 0,-1.426 1.18833,-2.58333 2.58333,-2.58333 1.426,0 2.58333,1.15733 2.58333,2.58333 z" id="path2222"/>
                  <path style="color:#000000;fill:#000000;fill-rule:evenodd;stroke-width:5.76368;-inkscape-stroke:none" d="m -445.99219,718.40625 c -1.68076,0 -3.09961,1.38658 -3.09961,3.09961 0,1.70555 1.39407,3.09961 3.09961,3.09961 1.70555,0 3.09961,-1.39406 3.09961,-3.09961 0,-1.70555 -1.39406,-3.09961 -3.09961,-3.09961 z m 0,1.0332 c 1.14645,0 2.06641,0.91996 2.06641,2.06641 0,1.14645 -0.91996,2.06641 -2.06641,2.06641 -1.14645,0 -2.0664,-0.91996 -2.0664,-2.06641 0,-1.13896 0.95716,-2.06641 2.0664,-2.06641 z" id="path2224"/>
                </g>
              </g>
            </g>
            <g id="path1490" transform="translate(-3.7505952,-15.582117)" style="stroke-width:5.76368">
              <path style="color:#000000;fill:#fefefe;stroke-width:17.8674;-inkscape-stroke:none" d="M -520.99897,735.78997 V 673.97209" id="path2232"/>
              <path style="color:#000000;fill:#000000;stroke-width:5.76368;-inkscape-stroke:none" d="m -522.54883,673.97266 v 61.8164 h 3.09961 v -61.8164 z" id="path2234"/>
            </g>
            <g id="path1492" transform="translate(-3.7505952,-15.582117)" style="stroke-width:5.76368">
              <path style="color:#000000;fill:#fefefe;stroke-width:17.8674;-inkscape-stroke:none" d="m -530.65856,674.8685 h 19.47592" id="path2256"/>
              <path style="color:#000000;fill:#000000;stroke-width:5.76368;-inkscape-stroke:none" d="m -530.6582,673.31836 v 3.09961 h 19.47461 v -3.09961 z" id="path2258"/>
              <g id="g2238" style="stroke-width:5.76368">
                <g id="path2248" style="stroke-width:5.76368">
                  <path style="color:#000000;fill:#fefefe;fill-rule:evenodd;stroke-width:5.95579;-inkscape-stroke:none" d="m -508.59931,674.8685 c 0,1.426 -1.15733,2.58333 -2.58333,2.58333 -1.426,0 -2.58333,-1.15733 -2.58333,-2.58333 0,-1.426 1.18833,-2.58333 2.58333,-2.58333 1.426,0 2.58333,1.15733 2.58333,2.58333 z" id="path2252"/>
                  <path style="color:#000000;fill:#000000;fill-rule:evenodd;stroke-width:5.76368;-inkscape-stroke:none" d="m -511.18359,671.76758 c -1.68076,0 -3.09961,1.38853 -3.09961,3.10156 0,1.70555 1.39406,3.09961 3.09961,3.09961 1.70554,0 3.10156,-1.39406 3.10156,-3.09961 0,-1.70555 -1.39602,-3.10156 -3.10156,-3.10156 z m 0,1.03515 c 1.14645,0 2.06836,0.91996 2.06836,2.06641 0,1.14645 -0.92191,2.06641 -2.06836,2.06641 -1.14646,0 -2.06641,-0.91996 -2.06641,-2.06641 0,-1.13896 0.95717,-2.06641 2.06641,-2.06641 z" id="path2254"/>
                </g>
                <g id="path2240" style="stroke-width:5.76368">
                  <path style="color:#000000;fill:#fefefe;fill-rule:evenodd;stroke-width:5.95579;-inkscape-stroke:none" d="m -528.07523,674.8685 c 0,1.426 -1.15733,2.58333 -2.58333,2.58333 -1.426,0 -2.58333,-1.15733 -2.58333,-2.58333 0,-1.426 1.18833,-2.58333 2.58333,-2.58333 1.426,0 2.58333,1.15733 2.58333,2.58333 z" id="path2244"/>
                  <path style="color:#000000;fill:#000000;fill-rule:evenodd;stroke-width:5.76368;-inkscape-stroke:none" d="m -530.6582,671.76758 c -1.68076,0 -3.09961,1.38853 -3.09961,3.10156 0,1.70555 1.39406,3.09961 3.09961,3.09961 1.70554,0 3.09961,-1.39406 3.09961,-3.09961 0,-1.70555 -1.39407,-3.10156 -3.09961,-3.10156 z m 0,1.03515 c 1.14645,0 2.0664,0.91996 2.0664,2.06641 0,1.14645 -0.91995,2.06641 -2.0664,2.06641 -1.14645,0 -2.06641,-0.91996 -2.06641,-2.06641 0,-1.13896 0.95717,-2.06641 2.06641,-2.06641 z" id="path2246"/>
                </g>
              </g>
            </g>
            <g id="path1508" transform="translate(-3.7505952,-15.582117)" style="stroke-width:5.76368">
              <path style="color:#000000;fill:#fefefe;stroke-width:17.8674;-inkscape-stroke:none" d="m -520.97561,711.04775 h -7.6385" id="path2272"/>
              <path style="color:#000000;fill:#000000;stroke-width:5.76368;-inkscape-stroke:none" d="m -528.61328,709.49805 v 3.09961 h 7.63672 v -3.09961 z" id="path2274"/>
              <g id="g2262" style="stroke-width:5.76368">
                <g id="path2264" style="stroke-width:5.76368">
                  <path style="color:#000000;fill:#fefefe;fill-rule:evenodd;stroke-width:5.95579;-inkscape-stroke:none" d="m -531.19744,711.04775 c 0,-1.426 1.15733,-2.58333 2.58333,-2.58333 1.426,0 2.58333,1.15733 2.58333,2.58333 0,1.426 -1.18833,2.58333 -2.58333,2.58333 -1.426,0 -2.58333,-1.15733 -2.58333,-2.58333 z" id="path2268"/>
                  <path style="color:#000000;fill:#000000;fill-rule:evenodd;stroke-width:5.76368;-inkscape-stroke:none" d="m -528.61328,707.94727 c -1.70555,0 -3.10156,1.39406 -3.10156,3.0996 0,1.70555 1.39601,3.10157 3.10156,3.10157 1.68076,0 3.09961,-1.38853 3.09961,-3.10157 0,-1.70554 -1.39407,-3.0996 -3.09961,-3.0996 z m 0,1.0332 c 1.14645,0 2.06641,0.91995 2.06641,2.0664 0,1.13897 -0.95717,2.06836 -2.06641,2.06836 -1.14645,0 -2.06836,-0.9219 -2.06836,-2.06836 0,-1.14645 0.92191,-2.0664 2.06836,-2.0664 z" id="path2270"/>
                </g>
              </g>
            </g>
            <g id="path1514" transform="translate(-3.7505952,-15.582117)" style="stroke-width:5.76368">
              <path style="color:#000000;fill:#fefefe;stroke-width:17.8674;-inkscape-stroke:none" d="m -520.97561,720.05565 h -7.6385" id="path2288"/>
              <path style="color:#000000;fill:#000000;stroke-width:5.76368;-inkscape-stroke:none" d="m -528.61328,718.50586 v 3.09961 h 7.63672 v -3.09961 z" id="path2290"/>
              <g id="g2278" style="stroke-width:5.76368">
                <g id="path2280" style="stroke-width:5.76368">
                  <path style="color:#000000;fill:#fefefe;fill-rule:evenodd;stroke-width:5.95579;-inkscape-stroke:none" d="m -531.19744,720.05565 c 0,-1.426 1.15733,-2.58333 2.58333,-2.58333 1.426,0 2.58333,1.15733 2.58333,2.58333 0,1.426 -1.18833,2.58333 -2.58333,2.58333 -1.426,0 -2.58333,-1.15733 -2.58333,-2.58333 z" id="path2284"/>
                  <path style="color:#000000;fill:#000000;fill-rule:evenodd;stroke-width:5.76368;-inkscape-stroke:none" d="m -528.61328,716.95508 c -1.70555,0 -3.10156,1.39406 -3.10156,3.09961 0,1.70554 1.39601,3.10156 3.10156,3.10156 1.68076,0 3.09961,-1.38853 3.09961,-3.10156 0,-1.70555 -1.39407,-3.09961 -3.09961,-3.09961 z m 0,1.0332 c 1.14645,0 2.06641,0.91996 2.06641,2.06641 0,1.13896 -0.95717,2.06836 -2.06641,2.06836 -1.14645,0 -2.06836,-0.92191 -2.06836,-2.06836 0,-1.14645 0.92191,-2.06641 2.06836,-2.06641 z" id="path2286"/>
                </g>
              </g>
            </g>
            <g id="path1518" transform="translate(-3.7505952,-15.582117)" style="stroke-width:5.76368">
              <path style="color:#000000;fill:#fefefe;stroke-width:17.8674;-inkscape-stroke:none" d="m -520.97561,729.06355 h -7.6385" id="path2304"/>
              <path style="color:#000000;fill:#000000;stroke-width:5.76368;-inkscape-stroke:none" d="m -528.61328,727.51367 v 3.09961 h 7.63672 v -3.09961 z" id="path2306"/>
              <g id="g2294" style="stroke-width:5.76368">
                <g id="path2296" style="stroke-width:5.76368">
                  <path style="color:#000000;fill:#fefefe;fill-rule:evenodd;stroke-width:5.95579;-inkscape-stroke:none" d="m -531.19744,729.06355 c 0,-1.426 1.15733,-2.58333 2.58333,-2.58333 1.426,0 2.58333,1.15733 2.58333,2.58333 0,1.426 -1.18833,2.58333 -2.58333,2.58333 -1.426,0 -2.58333,-1.15733 -2.58333,-2.58333 z" id="path2300"/>
                  <path style="color:#000000;fill:#000000;fill-rule:evenodd;stroke-width:5.76368;-inkscape-stroke:none" d="m -528.61328,725.96289 c -1.70555,0 -3.10156,1.39602 -3.10156,3.10156 0,1.70555 1.39601,3.09961 3.10156,3.09961 1.68076,0 3.09961,-1.38657 3.09961,-3.09961 0,-1.70554 -1.39407,-3.10156 -3.09961,-3.10156 z m 0,1.0332 c 1.14645,0 2.06641,0.92191 2.06641,2.06836 0,1.13897 -0.95717,2.06641 -2.06641,2.06641 -1.14645,0 -2.06836,-0.91996 -2.06836,-2.06641 0,-1.14645 0.92191,-2.06836 2.06836,-2.06836 z" id="path2302"/>
                </g>
              </g>
            </g>
          </g>
        </g>
      </g>
    </g>
  </g>
</svg>