<?xml version="1.0" encoding="UTF-8"?>
<!-- Created with Inkscape (http://www.inkscape.org/) -->
<svg width="100" height="20" preserveAspectRatio="xMinYMin meet" version="1.1" viewBox="0 0 100 20" xmlns="http://www.w3.org/2000/svg">
 <path transform="matrix(.012897 0 0 .0070997 39.558 37.735)" d="m-3067.1-3104.9 58.34 12.236 63.405-41.123 39.908-28.851 39.672-5.3368 40.762 22.462 37.734-17.464 41.183 42.46 38.849 2.8954 40.383 20.043 39.317 17.458 39.684 13.054 38.118-78.668 39.429-45.539 39.597 35.919 39.497 3.831 39.808 7.7617 39.733 4.0667 42.733 159.15 38.577-104.71 38.317 21.476 39.442 1.1441 39.857 92.087 42.554-31.636 37.661-19.318 39.097-10.979 39.366-6.2074 37.762-29.38 39.972-17.323 38.902-0.7499 39.14-0.518 40.852 78.533 42.258 15.769 39.772 7.8328 43.266 40.503 38.215-39.138 39.206 42.93 40.652-12.437 38.715 9.6923 40.444 109.94 48.956-3.706 39.685 0.5105 39.189-6.0784 39.109-9.0191 37.404-37.457 36.808-47.937 34.024-19.546 39.186-22.675 34.735-83.814 36.225-86.279 40.678 8.2898 42.248 55.534 38.685 90.975 39.629-162.06 36.781-10.031 40.855 8.7981 38.376-8.3136 40.229 86.907 40.766 5.1274 41.482 113.11 43.803-14.454 38.158-41.149 38.523 21.139 39.653 14.977 40.972 4.1792 39.523 30.475 44.814 38.935 39.269-18.518 39.151 0.043 37.932-31.019 39.929 3.1917 38.703 110.31 50.532-111.67 27.477-20.707 40.196 30.252 39.572-17.864 37.564-84.815 34.787 13.98 40.47 19.996 40.069-28.48 37.529-36.812 41.443 57.544 38.137-22.972 38.624-16.366 39.352-5.0288 39.41 1.0142 39.945-0.6637 36.277-68.792 37.82-21.225 43.745 19.82 34.167-32.68 41.646-33.015 40.388-0.4006 39.978 5.6423 38.712-18.2 41.788 29.441 37.117-5.3337 37.862-36.894 40.318-30.84 42.996 33.53 39.45 76.393 37.695 6.9418 39.204 30.794 40.674 5.0987 39.191 2.1929 40.699 59.522 44.809 45.539 40.978 117.34 53.898 13.975 42.648 26.461 44.643 18.022 42.641-13.276 36.681-54.458 31.438 42.233 46.699 2.9814 38.899-9.3847 38.709-22.68 35.975-8.7641 38.259-4.635 39.247-3.5116 39.438 14.521 42.138-19.758 37.085 10.312 41.897 30.7 45.321 50.338 51.02-7.3435 42.574 85.618 60.167 7.8075 43.068-23.092 33.7-11.294 36.608-12.673 37.186 8.4349 41.804-26.55 32.498-11.404 36.024-34.817 32.263 14.507 43.512-8.9326 36.545-16.272 36.909-10.05 37.828 21.742 44.391-54.079 28.237 35.512 47.412-38.738 33.641 31.271 46.564 15.26 44.359-9.5883 37.889-4.0247 38.94-11.348 37.382 10.888 43.463-2.9756 37.019-134.76 8.9289 2.8275 38.264-44.942 34.013 11.293 41.079 26.742 44.365-5.3005 38.463-23.301 35.083-86.752 30.068-1.4075 40.081 95.438 51.998 11.505 42.523 9.2098 43.316 36.006 47.148-41.551 29.785-20.464 36.842 17.409 44.502 63.724 60.905 67.149 64.976-5.8604 41.954 45.432 64.027 37.573 67.608-24.763 35.808 17.64 52.069-105.72s-2.6348-6.4142 4.886 11.895l58.938 25.716 60.759-40.979 23.814-7.0209 32.026-107.07v-1.4923l30.124-4.8785 38.114-0.7112 39.241-22.75 33.857-4.546 38.421-9.4229 38.14 37.73 58.632 61.038 75.597-71.988 10.202 15.189 46.19-5.7266 42.582 8.6296 52.57-18.483 35.839-72.324-0.2913-8.7036 25.245-16.026" fill="none" stroke="#0060df" stroke-linecap="round" stroke-width="4px"/>
</svg>
