<?xml version="1.0" encoding="UTF-8"?>
<!-- Created with Inkscape (http://www.inkscape.org/) -->
<svg width="100" height="20" preserveAspectRatio="xMinYMin meet" version="1.1" viewBox="0 0 100 20" xmlns="http://www.w3.org/2000/svg">
 <path d="m-1.9e-4 11.513 0.29104-0.06017 1.9e-4 1.62e-4 0.60287 0.15539 0.4889 0.03594 0.48955-0.37265 0.549-0.11184 0.52642 0.35333 0.46003-1.2692 0.66013 0.12548 0.49372-0.51812 0.58386-1.3432 0.76019-0.0069 0.65052 0.08479 0.51552-0.8143 0.79466 0.53638 0.40872-0.9166 0.83079-0.02581 0.59582 0.11927 0.52297 0.17058 0.49648 0.41886 0.43043 0.48187 0.34576 0.22796 0.42416-0.29466 0.61487 0.44228 0.3894 0.77337 0.27975 0.15431 0.43604 0.28312 0.4136-2e-3 0.49064-0.2235 0.56051 0.03265 0.48974-0.02343 0.50031-0.55115 0.63835-0.07616 0.54009 0.11247 0.46957-0.02579 0.51337 0.07733 0.48616 0.30564 0.39728-0.15256 0.57714 0.53753 0.39669 0.0335 0.47678 0.69804 0.33344-0.11909 0.53447-0.45066 0.59966 0.19413 0.4623 3.98e-4 0.5066 0.32256 0.42249-0.6905 0.65522 0.41183 0.42018-0.1712 0.53656 0.01914 0.51219 0.10984 0.4774 0.02038 0.50635 0.16318 0.46257-0.45816 0.60152 0.26815 0.45673 0.25526 0.46922 0.72465 0.38166 0.07053 0.50746 0.66509 0.40526 0.30009 0.4593-0.01283 0.52007 0.01741 0.49936-0.3277 0.5867 1.6692 0.33718 0.17346 0.51201-0.15794 0.5527-0.43832 0.5547-0.46292 0.54219-0.20132 0.54677 1.6727 0.42728-0.66352 0.58233 0.07909 0.56471 0.41113 0.47937-0.79602 0.51641-0.65337 0.5139-0.11418 0.5117 0.02895 0.51499 0.42944 0.52808 0.18928 0.52708 0.6566 0.54153-0.03303 0.52795 0.20614 0.55278 0.39416 0.51346-1.1849 0.46917 0.16668 0.51468-0.11683 0.47876-1.1406 0.47058 0.12983 0.50298 0.2112 0.4574-1.9666 0.42456 0.20725 0.53316-0.0271 0.51109-0.55682 0.50978-0.71848 0.50778-0.7107 0.57929-0.06223 0.57822 0.0082 0.58364 0.15559 0.54185-0.82079 0.67753 1.2909 0.40558 0.08561 0.50832-0.62215 0.70099 1.1361 0.34323 1.3069 0.3222 0.0565 0.49348 0.02699 0.50862 0.78635 0.43967 1.3305 0.3713 0.54741 0.46828-0.56935 0.5957-0.24336 0.52962-0.94054 0.57346 0.59527 0.47834-0.18188 0.53829 0.06481 0.52171 0.32826 0.50903-0.86274 0.49391-0.28925 0.52514-0.13109 0.50998-0.26087 0.50914-0.25665 0.52788 0.47974 0.4887-0.2774 0.52249 0.16572 0.50225-0.8847 0.53972 0.14044 0.51655 1.1504 0.50402 1.2046 0.44165-0.05405 0.52326-2.0009 0.52603-0.29678 0.52504-0.28466 0.53788 0.21644 0.49999-0.3929 0.55946 0.03829 0.53088 0.54056 0.46647-0.02124 0.52099 0.03275 0.51486 0.17218 0.49812 0.07424 0.49271-0.39332 0.51978-1.6296 0.83656-0.0184 0.58972-0.81576 0.9199 0.42974 0.46736-0.738 1.052 0.25975 0.52473-2.0985 3.0695 0.53386 0.7259 0.18295 0.59241 0.12152 0.59845 0.23479 0.44946 0.78915-0.0077-0.41804 0.65496-0.67171 1.4247 0.15681 0.81533-0.06079 0.88681 0.57019 0.13833-0.75019 1.4719 0.73761 0.20504 0.12322 0.31841 0.11864 0.36072 0.05359 0.44743 0.36965 0.17533 0.89002 0.02305 0.64268-0.0041-0.3382-0.01668-0.16565 0.31264 0.70045-0.0044-0.38101 0.38925 0.01273 0.39047-0.71988 1.1082 0.47432 0.29239 0.75714 0.01533 0.55773 2.45e-4 0.08265 2.45e-4 0.0037 0.19215-0.14311 0.46188 0.56803 0.07452 0.4419-0.0075-0.12188 0.44464-0.71414 0.99211 0.48868 0.24089-0.05524 0.45101-1.4329 2.093 2.6216 0.0042 0.26519 0.0089 0.09255 0.02175 0.4782 2.1519-0.3971 0.41976-0.06857 0.44641-0.21509 0.64608-0.12071 0.43337-0.13724" fill="none" stroke="#0182f9" stroke-linecap="round" stroke-width=".1px"/>
</svg>
