<?xml version="1.0" encoding="UTF-8" standalone="no"?>
<!-- Created with Inkscape (http://www.inkscape.org/) -->

<svg
   version="1.1"
   id="svg1"
   width="1600"
   height="1600"
   viewBox="0 0 1600 1600"
   sodipodi:docname="godot.svg"
   inkscape:version="1.3.2 (1:1.3.2+202311252150+091e20ef0f)"
   xmlns:inkscape="http://www.inkscape.org/namespaces/inkscape"
   xmlns:sodipodi="http://sodipodi.sourceforge.net/DTD/sodipodi-0.dtd"
   xmlns:xlink="http://www.w3.org/1999/xlink"
   xmlns="http://www.w3.org/2000/svg"
   xmlns:svg="http://www.w3.org/2000/svg">
  <defs
     id="defs1" />
  <sodipodi:namedview
     id="namedview1"
     pagecolor="#ffffff"
     bordercolor="#666666"
     borderopacity="1.0"
     inkscape:showpageshadow="2"
     inkscape:pageopacity="0.0"
     inkscape:pagecheckerboard="0"
     inkscape:deskcolor="#d1d1d1"
     inkscape:zoom="1.9020213"
     inkscape:cx="1123.0158"
     inkscape:cy="1180.5862"
     inkscape:window-width="2560"
     inkscape:window-height="1371"
     inkscape:window-x="0"
     inkscape:window-y="32"
     inkscape:window-maximized="1"
     inkscape:current-layer="g1" />
  <g
     inkscape:groupmode="layer"
     inkscape:label="Image"
     id="g1">
    <image
       width="1600"
       height="1600"
       preserveAspectRatio="none"
       xlink:href="godot.png"
       id="image1" />
    <path
       style="fill:#f85609;fill-opacity:1"
       d="m 916.2729,1306.372 c 48.1556,-11.0513 18.55291,-78.8817 21.96576,-113.853 -2.45027,-50.8545 -7.84742,-101.4353 -16.88179,-151.4709 -3.47495,-57.13398 12.66694,-112.84982 15.29162,-169.74706 4.17391,-54.32155 9.35373,-108.62351 16.08136,-162.57081 9.08847,-37.9406 -0.73762,-71.71054 -24.78509,-102.92862 -19.50981,-5.22488 -15.21956,55.1467 -33.3096,70.19839 -9.37246,25.27298 -43.45161,78.31062 -70.82762,45.98419 -34.23116,-35.95875 -22.23597,-89.86858 -30.53729,-134.75714 -12.8157,-15.77232 10.20024,-46.09783 7.27158,-14.42088 -0.0445,31.2079 36.79661,41.26863 38.76896,72.37637 9.66383,-26.56594 -31.73053,-50.24646 12.22187,-75.53359 22.06759,-26.03168 -0.81054,-72.52223 37.7081,-90.26944 42.05105,-15.39849 -2.32787,-56.85282 7.25478,-87.79357 -32.66266,-15.89561 -10.79458,-32.67472 9.7907,-40.80794 -2.56876,-48.07817 52.46099,-63.78597 89.45141,-45.78651 43.33155,9.05163 10.57705,68.50552 42.22555,76.56019 27.7962,16.03518 -36.1899,18.41176 -9.0436,39.79575 -6.3047,42.07892 64.5826,2.12957 86.525,25.98079 49.5105,24.69236 87.349,68.94955 117.7839,114.31496 25.1208,43.20873 -21.7168,87.00884 -23.2116,127.1801 21.0242,51.19621 41.6633,103.06518 53.9363,157.18531 3.7935,33.14908 26.8662,81.29267 -14.8519,98.84583 -23.3416,27.1333 1.1333,77.16738 -2.89,112.95838 4.8137,37.5594 -0.675,75.4813 6.7207,112.6939 3.8921,36.1552 -5.0412,75.6066 5.6145,109.9254 25.7867,6.5695 18.0206,40.691 16.8637,65.4029 -22.0143,15.1754 -77.8087,12.83 -65.2496,-29.6575 -25.1272,-92.6917 -38.9492,-276.9075 -50.9353,-309.5169 -12.6699,-34.8028 -11.0444,-111.38476 -65.9976,-81.01727 -26.0228,7.96919 -12.4992,43.91288 -46.0035,42.37736 -51.48487,6.08381 -21.888,54.54351 -34.9574,88.92871 -5.9884,30.1895 9.0958,195.2807 1.2092,280.1451 -27.13024,13.2497 -66.60056,21.6481 -107.18976,8.7405"
       id="path1"
       sodipodi:nodetypes="cccccccccccccccccccccccccccccccccc" />
    <circle
       style="font-variation-settings:'wdth' 311, 'wght' 317;fill:#f85609;fill-opacity:1;stroke-linecap:round;stroke-linejoin:round;stroke-dashoffset:34.0156;paint-order:markers stroke fill"
       id="path29"
       cx="512.49084"
       cy="653.58478"
       r="128.94598" />
  </g>
</svg>
