<?xml version="1.0" encoding="utf-8"?>
<!-- Generator: Adobe Illustrator 23.0.4, SVG Export Plug-In . SVG Version: 6.00 Build 0)  -->
<svg version="1.1" id="Calque_1" xmlns="http://www.w3.org/2000/svg" xmlns:xlink="http://www.w3.org/1999/xlink" x="0px" y="0px"
	 viewBox="0 0 400 100" style="enable-background:new 0 0 400 100;" xml:space="preserve">
<style type="text/css">
	.st0{fill:none;stroke:#000000;stroke-width:5;stroke-miterlimit:10;}
</style>
<path class="st0" d="M382.7,31.8C359.4,15.7,346,8.2,314.5,7.5C303.7,7.2,286,5,275.2,4.8c-57.3-0.6-124-2.6-182.7,4.9
	c-22,2.8-34.4,1.2-52.4,11.6c-8.3,4.9-16,13.6-20.7,21.8s-5.7,18.6-0.9,26.7C24,79.1,35.4,83.4,46.2,86c15.5,3.8,31.3,6.7,47.3,7.3
	c61,2.3,137.8,0.3,178.5-0.7c31-0.8,79.9-10.4,114.7-28.4c4.4-2.3,7.9-6.4,9-11c1.2-5.2-1.6-10.4-4.5-14.9
	c-4.2-6.7-9.3-13.3-16.6-16.7c-5.1-2.4-10.8-3.1-16.4-3.6c-63.7-6.7-126.4-4.6-190.6-5.1c-42.5-0.3-64.2-0.2-110.6,6.4
	c-9.4,1.3-34.8,9.7-41.8,15.8S3.4,50.2,4.6,59.2c1.4,10.2,10,18.4,19.9,22.4c9.9,4.1,20.9,4.7,31.6,5.2"/>
</svg>
