<?xml version="1.0" encoding="UTF-8" standalone="no"?>
<!-- Created with Inkscape (http://www.inkscape.org/) -->

<svg
   width="210mm"
   height="30.683125mm"
   viewBox="0 0 210 30.683124"
   version="1.1"
   id="svg43548"
   xmlns="http://www.w3.org/2000/svg"
   xmlns:svg="http://www.w3.org/2000/svg">
  <defs
     id="defs43545" />
  <g
     id="layer1">
    <path
       d="m 12.93809,21.891639 q 0,-0.898953 -0.791078,-1.654073 -0.75512,-0.75512 -1.690031,-1.222575 Q 9.5220704,18.547535 7.939914,17.828373 6.3577576,17.073253 5.4588052,16.56984 3.5530259,15.491097 2.2585343,13.621276 1.0000008,11.751455 1.0000008,9.3063038 q 0,-3.5598518 2.517067,-5.9330864 2.5170669,-2.37323457 6.0769188,-2.37323457 3.5958104,0 6.1128764,2.55302507 2.553026,2.5170669 2.553026,6.1128769 h -5.034134 q -0.07192,-1.5102402 -1.114701,-2.5530251 -1.042785,-1.078743 -2.5170674,-1.078743 -1.5102402,0 -2.4091927,0.7551201 -0.8989525,0.719162 -0.8989525,2.157486 0,0.6112877 0.359581,1.1866172 0.3955391,0.539372 1.1506592,1.042785 0.7551201,0.503413 1.438324,0.898952 0.719162,0.359581 1.8698214,0.898953 1.150659,0.539371 1.797905,0.898952 5.357757,2.912606 5.357757,7.659076 0,3.487935 -2.517067,5.86117 -2.517067,2.373234 -6.1488354,2.373234 -3.5238938,0 -6.0769188,-2.517067 -2.517067,-2.553025 -2.517067,-6.076918 h 5.0341339 q 0.071916,1.474282 1.078743,2.517067 1.0427849,1.042784 2.4811089,1.042784 1.4742824,0 2.4091924,-0.791078 0.934911,-0.791078 0.934911,-2.049611 z"
       style="font-weight:normal;font-size:35.9581px;line-height:1.25;font-family:reglo;-inkscape-font-specification:reglo;stroke-width:0.264583"
       id="path608" />
    <path
       d="M 21.855679,21.352267 V 0.99998283 h 5.034134 V 21.352267 q 0.03596,1.654073 1.042785,2.624941 1.006827,0.934911 2.517067,0.934911 1.474282,-0.03596 2.553025,-1.078743 1.078743,-1.042785 1.078743,-2.481109 V 0.99998283 h 5.034134 V 21.352267 q 0,3.523894 -2.553025,6.076919 -2.517067,2.517067 -6.112877,2.517067 -3.523894,0 -6.076919,-2.517067 -2.517067,-2.553025 -2.517067,-6.076919 z"
       style="font-weight:normal;font-size:35.9581px;line-height:1.25;font-family:reglo;-inkscape-font-specification:reglo;stroke-width:0.264583"
       id="path610" />
    <path
       d="m 60.87016,10.744628 q 0,3.523893 -2.553025,6.076919 -2.517067,2.517067 -6.112877,2.517067 H 48.644406 V 29.766462 H 43.610272 V 19.338614 14.30448 6.0341167 0.99998283 h 8.593986 q 3.59581,0 6.112877,2.55302507 2.553025,2.5170669 2.553025,6.1128769 z m -5.034134,0 V 9.6658848 Q 55.800068,8.1556446 54.721325,7.1128597 53.67854,6.0341167 52.204258,6.0341167 H 48.644406 V 14.30448 h 3.559852 q 1.474282,-0.03596 2.553025,-1.078743 1.078743,-1.042785 1.078743,-2.481109 z"
       style="font-weight:normal;font-size:35.9581px;line-height:1.25;font-family:reglo;-inkscape-font-specification:reglo;stroke-width:0.264583"
       id="path612" />
    <path
       d="m 69.320271,24.732328 h 9.708687 v 5.034134 H 69.320271 64.645718 64.286137 V 0.99998283 h 0.359581 4.674553 9.708687 V 6.0341167 h -9.708687 v 6.8320393 h 9.708687 v 5.034134 h -9.708687 z"
       style="font-weight:normal;font-size:35.9581px;line-height:1.25;font-family:reglo;-inkscape-font-specification:reglo;stroke-width:0.264583"
       id="path614" />
    <path
       d="M 83.164128,29.766462 V 0.99998283 h 0.359581 4.674553 3.559852 q 3.59581,0 6.112877,2.55302507 2.553029,2.5170669 2.553029,6.1128769 v 1.0787432 q 0,2.445151 -1.330454,4.53072 -1.294491,2.049612 -3.451977,3.128355 l 4.998171,11.362759 H 94.85051 L 90.283832,19.338614 h -2.08557 V 29.766462 Z M 95.389882,10.744628 V 9.6658848 Q 95.353924,8.1556446 94.275181,7.1128597 93.232396,6.0341167 91.758114,6.0341167 H 88.198262 V 14.30448 h 3.559852 q 1.474282,-0.03596 2.553025,-1.078743 1.078743,-1.042785 1.078743,-2.481109 z"
       style="font-weight:normal;font-size:35.9581px;line-height:1.25;font-family:reglo;-inkscape-font-specification:reglo;stroke-width:0.264583"
       id="path616" />
    <path
       d="m 109.44948,29.766462 h -5.03413 V 0.99998283 h 0.35958 4.67455 9.70869 V 6.0341167 h -9.70869 v 6.8320393 h 9.70869 v 5.034134 h -9.70869 z"
       style="font-weight:normal;font-size:35.9581px;line-height:1.25;font-family:reglo;-inkscape-font-specification:reglo;stroke-width:0.264583"
       id="path618" />
    <path
       d="m 128.32747,24.732328 h 9.70869 v 5.034134 h -9.70869 -5.03413 V 24.732328 0.99998283 h 5.03413 z"
       style="font-weight:normal;font-size:35.9581px;line-height:1.25;font-family:reglo;-inkscape-font-specification:reglo;stroke-width:0.264583"
       id="path620" />
    <path
       d="M 141.38023,21.352267 V 0.99998283 h 5.03414 V 21.352267 q 0.036,1.654073 1.04278,2.624941 1.00683,0.934911 2.51707,0.934911 1.47428,-0.03596 2.55303,-1.078743 1.07874,-1.042785 1.07874,-2.481109 V 0.99998283 h 5.03413 V 21.352267 q 0,3.523894 -2.55302,6.076919 -2.51707,2.517067 -6.11288,2.517067 -3.52389,0 -6.07692,-2.517067 -2.51707,-2.553025 -2.51707,-6.076919 z"
       style="font-weight:normal;font-size:35.9581px;line-height:1.25;font-family:reglo;-inkscape-font-specification:reglo;stroke-width:0.264583"
       id="path622" />
    <path
       d="m 168.31281,29.766462 h -5.03414 V 0.99998283 h 5.03414 z"
       style="font-weight:normal;font-size:35.9581px;line-height:1.25;font-family:reglo;-inkscape-font-specification:reglo;stroke-width:0.264583"
       id="path624" />
    <path
       d="M 173.13119,29.766462 V 0.99998283 h 0.35958 4.67456 3.55985 q 3.59581,0 6.11287,2.55302507 2.55303,2.5170669 2.55303,6.1128769 V 21.172477 q 0,3.523893 -2.55303,6.076918 -2.51706,2.517067 -6.11287,2.517067 h -3.55985 -4.67456 z m 12.22576,-8.593985 V 9.6658848 q -0.036,-1.5102402 -1.11471,-2.5530251 -1.04278,-1.078743 -2.51706,-1.078743 h -3.55985 V 24.732328 h 3.55985 q 1.47428,-0.03596 2.55302,-1.078743 1.07875,-1.042784 1.07875,-2.481108 z"
       style="font-weight:normal;font-size:35.9581px;line-height:1.25;font-family:reglo;-inkscape-font-specification:reglo;stroke-width:0.264583"
       id="path626" />
    <path
       d="m 199.38054,24.732328 h 9.70868 v 5.034134 h -9.70868 -4.67456 -0.35958 V 0.99998283 h 0.35958 4.67456 9.70868 V 6.0341167 h -9.70868 v 6.8320393 h 9.70868 v 5.034134 h -9.70868 z"
       style="font-weight:normal;font-size:35.9581px;line-height:1.25;font-family:reglo;-inkscape-font-specification:reglo;stroke-width:0.264583"
       id="path628" />
  </g>
</svg>
