<?xml version="1.0" encoding="UTF-8" standalone="no"?>
<!-- Created with Inkscape (http://www.inkscape.org/) -->

<svg
   width="107.21976mm"
   height="62.902683mm"
   viewBox="0 0 107.21976 62.902683"
   version="1.1"
   id="svg43548"
   xmlns="http://www.w3.org/2000/svg"
   xmlns:svg="http://www.w3.org/2000/svg">
  <defs
     id="defs43545" />
  <g
     id="layer1">
    <path
       d="m 13.648945,21.706399 q 0,-0.898953 -0.838183,-1.654073 -0.800084,-0.75512 -1.790664,-1.222575 Q 10.029518,18.362296 8.3531518,17.643134 6.6767858,16.888013 5.7243052,16.3846 3.705046,15.305857 2.3334738,13.436036 1.0000008,11.566215 1.0000008,9.121064 q 0,-3.5598518 2.666946,-5.9330864 2.6669459,-2.37323456 6.4387692,-2.37323456 3.809924,0 6.476869,2.55302506 2.705046,2.517067 2.705046,6.1128769 H 13.953739 Q 13.877539,7.9704048 12.772663,6.9276199 11.667785,5.848877 10.105716,5.848877 q -1.6001673,0 -2.552648,0.75512 -0.9524807,0.719162 -0.9524807,2.157486 0,0.6112877 0.3809923,1.1866173 0.4190915,0.5393717 1.2191753,1.0427847 0.8000838,0.503414 1.5239692,0.898953 0.7619849,0.359581 1.9811599,0.898952 1.219175,0.539372 1.904962,0.898953 5.676785,2.912606 5.676785,7.659075 0,3.487935 -2.666946,5.86117 -2.666946,2.373235 -6.514969,2.373235 -3.7337241,0 -6.4387692,-2.517067 -2.666946,-2.553025 -2.666946,-6.076919 h 5.3338919 q 0.076198,1.474282 1.1429769,2.517067 1.1048776,1.042785 2.6288464,1.042785 1.562069,0 2.552648,-0.791079 0.990581,-0.791078 0.990581,-2.049611 z"
       style="font-weight:normal;font-size:35.9581px;line-height:1.25;font-family:reglo;-inkscape-font-specification:reglo;stroke-width:0.264583"
       id="path1127" />
    <path
       d="M 23.097532,21.167027 V 0.81474304 h 5.333892 V 21.167027 q 0.0381,1.654073 1.104878,2.624942 1.066779,0.93491 2.666946,0.93491 1.562068,-0.03596 2.705045,-1.078743 1.142977,-1.042785 1.142977,-2.481109 V 0.81474304 h 5.333892 V 21.167027 q 0,3.523894 -2.705045,6.076919 -2.666946,2.517067 -6.476869,2.517067 -3.733724,0 -6.43877,-2.517067 -2.666946,-2.553025 -2.666946,-6.076919 z"
       style="font-weight:normal;font-size:35.9581px;line-height:1.25;font-family:reglo;-inkscape-font-specification:reglo;stroke-width:0.264583"
       id="path1129" />
    <path
       d="m 64.435135,10.559388 q 0,3.523894 -2.705046,6.076919 -2.666946,2.517067 -6.476868,2.517067 H 51.481397 V 29.581223 H 46.147505 V 19.153374 14.11924 5.848877 0.81474304 h 9.105716 q 3.809922,0 6.476868,2.55302506 2.705046,2.517067 2.705046,6.1128769 z m -5.333892,0 V 9.480645 Q 59.063143,7.9704048 57.920167,6.9276199 56.815289,5.848877 55.253221,5.848877 h -3.771824 v 8.270363 h 3.771824 q 1.562068,-0.03596 2.705045,-1.078743 1.142977,-1.042785 1.142977,-2.481109 z"
       style="font-weight:normal;font-size:35.9581px;line-height:1.25;font-family:reglo;-inkscape-font-specification:reglo;stroke-width:0.264583"
       id="path1131" />
    <path
       d="M 73.388408,24.547089 H 83.6752 v 5.034134 H 73.388408 68.435509 68.054516 V 0.81474304 H 68.435509 73.388408 83.6752 V 5.848877 H 73.388408 v 6.832039 H 83.6752 V 17.71505 H 73.388408 Z"
       style="font-weight:normal;font-size:35.9581px;line-height:1.25;font-family:reglo;-inkscape-font-specification:reglo;stroke-width:0.264583"
       id="path1133" />
    <path
       d="M 88.056599,29.581223 V 0.81474304 h 0.380992 4.9529 3.771824 q 3.809925,0 6.476865,2.55302506 2.70505,2.517067 2.70505,6.1128769 v 1.078743 q 0,2.445151 -1.40967,4.53072 -1.37157,2.049612 -3.65753,3.128355 l 5.29579,11.36276 h -6.13397 L 95.600247,19.153374 H 93.390491 V 29.581223 Z M 101.01034,10.559388 V 9.480645 Q 100.97224,7.9704048 99.829261,6.9276199 98.724383,5.848877 97.162315,5.848877 h -3.771824 v 8.270363 h 3.771824 q 1.562068,-0.03596 2.705045,-1.078743 1.14298,-1.042785 1.14298,-2.481109 z"
       style="font-weight:normal;font-size:35.9581px;line-height:1.25;font-family:reglo;-inkscape-font-specification:reglo;stroke-width:0.264583"
       id="path1135" />
    <path
       d="M 6.9330872,62.178533 H 1.8989533 V 33.412054 h 0.359581 4.6745529 9.7086868 v 5.034134 H 6.9330872 v 6.832039 h 9.7086868 v 5.034134 H 6.9330872 Z"
       style="font-weight:normal;font-size:35.9581px;line-height:1.25;font-family:reglo;-inkscape-font-specification:reglo;stroke-width:0.264583"
       id="path1137" />
    <path
       d="m 25.811076,57.144399 h 9.708687 v 5.034134 H 25.811076 20.776942 V 57.144399 33.412054 h 5.034134 z"
       style="font-weight:normal;font-size:35.9581px;line-height:1.25;font-family:reglo;-inkscape-font-specification:reglo;stroke-width:0.264583"
       id="path1139" />
    <path
       d="M 38.863847,53.764338 V 33.412054 h 5.034134 v 20.352284 q 0.03596,1.654073 1.042784,2.624941 1.006827,0.934911 2.517067,0.934911 1.474282,-0.03596 2.553025,-1.078743 Q 51.0896,55.202662 51.0896,53.764338 V 33.412054 h 5.034134 v 20.352284 q 0,3.523894 -2.553025,6.076919 -2.517067,2.517067 -6.112877,2.517067 -3.523893,0 -6.076918,-2.517067 -2.517067,-2.553025 -2.517067,-6.076919 z"
       style="font-weight:normal;font-size:35.9581px;line-height:1.25;font-family:reglo;-inkscape-font-specification:reglo;stroke-width:0.264583"
       id="path1141" />
    <path
       d="M 65.796406,62.178533 H 60.762272 V 33.412054 h 5.034134 z"
       style="font-weight:normal;font-size:35.9581px;line-height:1.25;font-family:reglo;-inkscape-font-specification:reglo;stroke-width:0.264583"
       id="path1143" />
    <path
       d="M 70.614789,62.178533 V 33.412054 h 0.359581 4.674553 3.559852 q 3.59581,0 6.112877,2.553025 2.553025,2.517067 2.553025,6.112877 v 11.506592 q 0,3.523893 -2.553025,6.076918 -2.517067,2.517067 -6.112877,2.517067 H 75.648923 70.97437 Z M 82.840543,53.584548 V 42.077956 q -0.03596,-1.51024 -1.114701,-2.553025 -1.042785,-1.078743 -2.517067,-1.078743 h -3.559852 v 18.698211 h 3.559852 q 1.474282,-0.03596 2.553025,-1.078743 1.078743,-1.042784 1.078743,-2.481108 z"
       style="font-weight:normal;font-size:35.9581px;line-height:1.25;font-family:reglo;-inkscape-font-specification:reglo;stroke-width:0.264583"
       id="path1145" />
    <path
       d="m 96.864133,57.144399 h 9.708687 v 5.034134 H 96.864133 92.18958 91.829999 V 33.412054 h 0.359581 4.674553 9.708687 v 5.034134 h -9.708687 v 6.832039 h 9.708687 v 5.034134 h -9.708687 z"
       style="font-weight:normal;font-size:35.9581px;line-height:1.25;font-family:reglo;-inkscape-font-specification:reglo;stroke-width:0.264583"
       id="path1147" />
  </g>
</svg>
