<?xml version="1.0" standalone="no"?>
<!DOCTYPE svg PUBLIC "-//W3C//DTD SVG 20010904//EN"
 "http://www.w3.org/TR/2001/REC-SVG-20010904/DTD/svg10.dtd">
<svg version="1.0" xmlns="http://www.w3.org/2000/svg"
 width="700.000000pt" height="700.000000pt" viewBox="0 0 700.000000 700.000000"
 preserveAspectRatio="xMidYMid meet">
<metadata>
Created by potrace 1.14, written by Peter Selinger 2001-2017
</metadata>
<g transform="translate(0.000000,700.000000) scale(0.100000,-0.100000)"
fill="#000000" stroke="none">
<path d="M1915 5694 c-138 -22 -147 -24 -255 -61 -542 -183 -925 -659 -987
-1228 -12 -108 -4 -389 12 -415 2 -4 7 -22 10 -41 44 -255 212 -560 417 -755
50 -48 170 -144 213 -171 150 -93 337 -174 465 -199 14 -3 32 -7 40 -9 8 -3
33 -7 55 -10 22 -4 51 -9 65 -12 14 -3 774 -7 1690 -8 916 -2 1669 -3 1674 -4
4 -1 -296 -305 -668 -677 -372 -372 -676 -679 -676 -682 0 -4 79 -86 176 -183
l176 -177 984 984 c541 541 984 987 984 991 0 5 -443 451 -984 992 l-985 985
-179 -180 -180 -180 601 -601 c331 -331 638 -638 682 -682 l79 -81 -1622 1
c-1124 0 -1648 3 -1705 11 -353 47 -659 300 -773 636 -79 235 -66 490 37 710
142 306 448 523 773 548 44 4 83 9 86 11 3 3 5 117 6 254 l1 250 -66 -2 c-36
-1 -102 -8 -146 -15z"/>
</g>
</svg>
