<?xml version="1.0" encoding="UTF-8" standalone="no"?>
<!-- Created with Inkscape (http://www.inkscape.org/) -->

<svg
   version="1.1"
   id="svg1654"
   xml:space="preserve"
   width="800"
   height="800"
   viewBox="0 0 800 800"
   sodipodi:docname="06.svg"
   inkscape:version="1.3.2 (1:1.3.2+202311252150+091e20ef0f)"
   xmlns:inkscape="http://www.inkscape.org/namespaces/inkscape"
   xmlns:sodipodi="http://sodipodi.sourceforge.net/DTD/sodipodi-0.dtd"
   xmlns="http://www.w3.org/2000/svg"
   xmlns:svg="http://www.w3.org/2000/svg"
   xmlns:rdf="http://www.w3.org/1999/02/22-rdf-syntax-ns#"
   xmlns:cc="http://creativecommons.org/ns#"
   xmlns:dc="http://purl.org/dc/elements/1.1/"><metadata
     id="metadata1660"><rdf:RDF><cc:Work
         rdf:about=""><dc:format>image/svg+xml</dc:format><dc:type
           rdf:resource="http://purl.org/dc/dcmitype/StillImage" /><dc:title /></cc:Work></rdf:RDF></metadata><defs
     id="defs1658"><clipPath
       clipPathUnits="userSpaceOnUse"
       id="clipPath1670"><path
         d="M 0,600 H 600 V 0 H 0 Z"
         id="path1668"
         inkscape:connector-curvature="0" /></clipPath></defs><sodipodi:namedview
     pagecolor="#ffffff"
     bordercolor="#666666"
     borderopacity="1"
     objecttolerance="10"
     gridtolerance="10"
     guidetolerance="10"
     inkscape:pageopacity="0"
     inkscape:pageshadow="2"
     inkscape:window-width="2560"
     inkscape:window-height="1371"
     id="namedview1656"
     showgrid="false"
     inkscape:zoom="0.74540179"
     inkscape:cx="638.58178"
     inkscape:cy="369.59933"
     inkscape:window-x="0"
     inkscape:window-y="32"
     inkscape:window-maximized="1"
     inkscape:current-layer="g1662"
     inkscape:showpageshadow="2"
     inkscape:pagecheckerboard="0"
     inkscape:deskcolor="#d1d1d1" /><g
     id="g1662"
     inkscape:groupmode="layer"
     inkscape:label="line-arrows-106-publicdomainvectors.org"
     transform="matrix(1.3333333,0,0,-1.3333333,0,800)"><g
       id="g1664"
       style="stroke:none;stroke-opacity:1;fill:#000000;fill-opacity:1"><g
         id="g1666"
         clip-path="url(#clipPath1670)"
         style="stroke:none;stroke-opacity:1;fill:#000000;fill-opacity:1"><path
           d="m 187.906,186.34 c 1.282,7.861 2.571,15.76 3.859,23.646 3.836,23.54 7.629,46.766 11.073,67.894 7.675,47.046 13.162,80.674 13.162,80.674 -0.751,-0.653 -1.489,-1.316 -2.232,-1.967 0.139,0.857 0.275,1.721 0.414,2.586 1.056,0.94 2.117,1.88 3.187,2.822 0.733,-1.112 1.451,-2.23 2.184,-3.338 -0.145,-0.865 -0.296,-1.73 -0.435,-2.593 -0.516,0.776 -1.022,1.555 -1.535,2.338 0,0 -5.566,-33.659 -13.357,-80.744 -3.496,-21.139 -7.338,-44.378 -11.237,-67.929 -1.211,-7.313 -2.422,-14.64 -3.629,-21.935 7.294,1.208 14.619,2.421 21.933,3.631 23.552,3.898 46.79,7.74 67.931,11.237 47.084,7.792 80.743,13.355 80.743,13.355 -0.782,0.514 -1.564,1.018 -2.34,1.536 0.863,0.14 1.729,0.291 2.598,0.436 1.105,-0.731 2.223,-1.452 3.337,-2.184 -0.945,-1.071 -1.885,-2.131 -2.825,-3.188 -0.864,-0.139 -1.727,-0.275 -2.588,-0.413 0.653,0.743 1.317,1.479 1.971,2.232 0,0 -33.628,-5.486 -80.677,-13.164 -21.127,-3.442 -44.352,-7.234 -67.891,-11.074 -7.887,-1.286 -15.787,-2.574 -23.646,-3.858"
           style="fill:#000000;fill-opacity:1;fill-rule:nonzero;stroke:none;stroke-opacity:1"
           id="path1672"
           inkscape:connector-curvature="0" /><path
           d="m 411.082,409.519 c -7.859,-1.282 -15.759,-2.571 -23.645,-3.858 -23.541,-3.838 -46.764,-7.632 -67.891,-11.075 -47.05,-7.675 -80.676,-13.162 -80.676,-13.162 0.654,0.751 1.318,1.489 1.97,2.233 -0.861,-0.14 -1.724,-0.276 -2.589,-0.414 -0.938,-1.056 -1.88,-2.118 -2.821,-3.189 1.11,-0.731 2.228,-1.451 3.335,-2.183 0.868,0.142 1.733,0.297 2.596,0.437 -0.776,0.515 -1.557,1.022 -2.338,1.533 0,0 33.657,5.565 80.742,13.358 21.141,3.496 44.381,7.337 67.93,11.236 7.312,1.21 14.642,2.423 21.935,3.629 -1.208,-7.293 -2.418,-14.619 -3.629,-21.934 -3.899,-23.55 -7.742,-46.789 -11.239,-67.928 -7.79,-47.086 -13.356,-80.744 -13.356,-80.744 -0.51,0.78 -1.022,1.563 -1.533,2.338 -0.143,-0.862 -0.294,-1.729 -0.437,-2.596 0.733,-1.106 1.45,-2.225 2.183,-3.338 1.07,0.945 2.131,1.885 3.189,2.825 0.138,0.865 0.274,1.728 0.415,2.587 -0.745,-0.652 -1.483,-1.315 -2.233,-1.969 0,0 5.486,33.629 13.161,80.675 3.443,21.128 7.235,44.351 11.075,67.893 1.287,7.885 2.577,15.786 3.856,23.646"
           style="fill:#000000;fill-opacity:1;fill-rule:nonzero;stroke:none;stroke-opacity:1"
           id="path1674"
           inkscape:connector-curvature="0" /><path
           d="m 171.444,169.882 c 3.182,23.336 6.537,47.97 9.916,72.747 3.867,28.376 7.728,56.701 11.282,82.751 3.738,27.423 7.046,51.694 9.524,69.879 18.185,2.478 42.455,5.785 69.877,9.523 26.053,3.554 54.378,7.416 82.753,11.282 24.777,3.376 49.41,6.732 72.746,9.915 -3.181,-23.339 -6.536,-47.973 -9.913,-72.748 -3.868,-28.376 -7.728,-56.701 -11.284,-82.754 -3.738,-27.422 -7.043,-51.692 -9.524,-69.874 -18.182,-2.48 -42.452,-5.788 -69.876,-9.525 -26.052,-3.557 -54.378,-7.416 -82.75,-11.283 -24.778,-3.378 -49.411,-6.732 -72.751,-9.913 m 258.71,258.709 c -0.02,-0.002 -0.043,-0.006 -0.066,-0.009 -24.23,-3.197 -49.919,-6.584 -75.765,-9.993 -28.341,-3.74 -56.626,-7.471 -82.636,-10.902 -28.204,-3.722 -53.061,-6.999 -71.376,-9.414 -0.344,-0.045 -0.685,-0.092 -1.024,-0.135 -0.045,-0.339 -0.09,-0.681 -0.136,-1.024 -2.414,-18.316 -5.693,-43.175 -9.414,-71.375 -3.431,-26.014 -7.162,-54.297 -10.9,-82.638 -3.412,-25.843 -6.797,-51.537 -9.995,-75.765 -0.003,-0.023 -0.005,-0.044 -0.009,-0.066 0.022,0.002 0.044,0.005 0.066,0.007 24.231,3.197 49.923,6.583 75.767,9.994 28.339,3.741 56.623,7.469 82.637,10.903 28.202,3.721 53.057,6.998 71.374,9.411 0.346,0.048 0.686,0.091 1.025,0.137 0.043,0.339 0.089,0.678 0.136,1.023 2.415,18.317 5.694,43.174 9.412,71.375 3.434,26.015 7.162,54.298 10.901,82.639 3.412,25.844 6.799,51.535 9.997,75.765 0,0.024 0.005,0.044 0.006,0.067"
           style="fill:#000000;fill-opacity:1;fill-rule:nonzero;stroke:none;stroke-opacity:1"
           id="path1676"
           inkscape:connector-curvature="0" /><path
           d="m 155.259,153.694 c 1.236,11.418 2.522,23.293 3.845,35.536 3.049,28.154 6.318,58.346 9.641,89.066 3.689,34.087 7.419,68.551 10.89,100.636 1.321,12.2 2.592,23.947 3.796,35.061 11.114,1.203 22.86,2.474 35.061,3.795 32.085,3.473 66.549,7.204 100.638,10.894 30.722,3.32 60.91,6.589 89.063,9.635 12.244,1.326 24.12,2.613 35.537,3.846 -1.237,-11.417 -2.519,-23.293 -3.846,-35.533 -3.048,-28.154 -6.316,-58.345 -9.64,-89.066 -3.689,-34.086 -7.42,-68.549 -10.89,-100.635 -1.322,-12.203 -2.591,-23.95 -3.796,-35.065 -11.114,-1.202 -22.86,-2.472 -35.063,-3.793 -32.085,-3.472 -66.546,-7.203 -100.636,-10.889 -30.72,-3.327 -60.91,-6.595 -89.064,-9.642 -12.241,-1.325 -24.117,-2.609 -35.536,-3.846 m 292.004,292.004 c -12.731,-1.295 -26.054,-2.653 -39.84,-4.058 -28.118,-2.863 -58.26,-5.931 -88.924,-9.055 -34.016,-3.462 -68.392,-6.968 -100.388,-10.224 -13.682,-1.395 -26.788,-2.73 -39.069,-3.979 -1.25,-12.281 -2.585,-25.386 -3.979,-39.068 -3.255,-31.996 -6.762,-66.373 -10.224,-100.388 -3.124,-30.665 -6.193,-60.807 -9.056,-88.926 -1.404,-13.786 -2.761,-27.108 -4.058,-39.841 12.732,1.298 26.054,2.654 39.84,4.059 28.12,2.863 58.261,5.931 88.926,9.057 34.014,3.458 68.39,6.966 100.387,10.223 13.683,1.393 26.788,2.731 39.07,3.981 1.249,12.278 2.582,25.384 3.978,39.067 3.258,31.995 6.764,66.374 10.223,100.388 3.124,30.663 6.195,60.805 9.059,88.925 1.402,13.786 2.762,27.108 4.055,39.839"
           style="fill:#000000;fill-opacity:1;fill-rule:nonzero;stroke:none;stroke-opacity:1"
           id="path1678"
           inkscape:connector-curvature="0" /><path
           d="m 140.568,139.004 c 1.823,22.454 3.835,47.279 5.987,73.83 2.642,32.555 5.507,67.878 8.457,104.265 3.134,38.672 6.346,78.268 9.399,115.914 37.645,3.054 77.239,6.264 115.915,9.399 36.384,2.951 71.708,5.814 104.266,8.456 26.551,2.154 51.374,4.165 73.828,5.988 -1.823,-22.453 -3.835,-47.279 -5.985,-73.83 -2.644,-32.557 -5.507,-67.88 -8.457,-104.265 -3.138,-38.676 -6.346,-78.27 -9.402,-115.913 -37.643,-3.054 -77.239,-6.268 -115.912,-9.402 -36.386,-2.952 -71.71,-5.814 -104.267,-8.456 -26.55,-2.152 -51.375,-4.167 -73.829,-5.986 M 462.696,461.13 c -23.814,-1.736 -50.445,-3.678 -79.076,-5.762 -32.491,-2.369 -67.727,-4.936 -104.008,-7.582 -40.496,-2.949 -81.982,-5.973 -121.143,-8.831 -2.856,-39.16 -5.884,-80.647 -8.831,-121.142 -2.648,-36.282 -5.212,-71.517 -7.581,-104.009 -2.086,-28.632 -4.026,-55.262 -5.764,-79.075 23.814,1.735 50.444,3.676 79.075,5.763 32.491,2.37 67.73,4.934 104.01,7.582 40.495,2.948 81.98,5.971 121.143,8.829 2.857,39.162 5.88,80.649 8.831,121.144 2.648,36.279 5.21,71.517 7.582,104.01 2.085,28.631 4.028,55.262 5.762,79.073"
           style="fill:#000000;fill-opacity:1;fill-rule:nonzero;stroke:none;stroke-opacity:1"
           id="path1680"
           inkscape:connector-curvature="0" /><path
           d="m 127.173,125.606 c 0.376,6.861 0.765,13.971 1.168,21.315 1.481,26.983 3.158,57.538 4.982,90.774 2.06,37.529 4.323,78.755 6.684,121.778 1.298,23.682 2.625,47.857 3.956,72.096 0.38,6.923 0.758,13.846 1.139,20.753 6.908,0.38 13.83,0.76 20.754,1.14 24.238,1.329 48.412,2.658 72.097,3.955 43.022,2.362 84.246,4.625 121.776,6.685 33.234,1.822 63.791,3.5 90.776,4.98 7.344,0.404 14.452,0.794 21.311,1.169 -0.375,-6.859 -0.766,-13.968 -1.169,-21.312 -1.479,-26.982 -3.157,-57.538 -4.983,-90.776 -2.059,-37.529 -4.321,-78.753 -6.684,-121.774 -1.297,-23.684 -2.622,-47.86 -3.953,-72.1 -0.382,-6.924 -0.759,-13.846 -1.139,-20.754 -6.906,-0.377 -13.83,-0.757 -20.756,-1.136 -24.236,-1.334 -48.412,-2.66 -72.097,-3.956 -43.021,-2.362 -84.246,-4.623 -121.775,-6.683 -33.238,-1.826 -63.793,-3.502 -90.776,-4.982 -7.344,-0.405 -14.451,-0.795 -21.311,-1.172 m 349.513,349.515 c -8.744,-0.393 -17.913,-0.806 -27.485,-1.236 -26.946,-1.211 -57.443,-2.582 -90.605,-4.073 -37.418,-1.684 -78.5,-3.531 -121.344,-5.457 -23.574,-1.062 -47.627,-2.144 -71.733,-3.227 -9.338,-0.422 -18.67,-0.84 -27.965,-1.257 -0.417,-9.298 -0.837,-18.628 -1.258,-27.966 -1.083,-24.106 -2.165,-48.159 -3.226,-71.733 -1.927,-42.842 -3.773,-83.925 -5.457,-121.345 -1.491,-33.159 -2.863,-63.657 -4.074,-90.604 -0.431,-9.572 -0.844,-18.742 -1.237,-27.485 8.743,0.393 17.915,0.806 27.484,1.237 26.947,1.21 57.446,2.583 90.606,4.074 37.42,1.682 78.503,3.53 121.347,5.457 23.572,1.06 47.622,2.141 71.731,3.226 9.336,0.419 18.668,0.841 27.965,1.256 0.418,9.297 0.838,18.629 1.256,27.963 1.087,24.109 2.166,48.162 3.227,71.737 1.927,42.841 3.774,83.925 5.457,121.342 1.491,33.163 2.864,63.661 4.076,90.609 0.429,9.569 0.843,18.741 1.235,27.482"
           style="fill:#000000;fill-opacity:1;fill-rule:nonzero;stroke:none;stroke-opacity:1"
           id="path1682"
           inkscape:connector-curvature="0" /><path
           d="m 49.92,48.355 c -1.565,11.914 -3.546,27.036 -5.83,44.423 -3.488,26.571 -7.796,59.399 -12.361,94.18 -5.252,40.029 -10.829,82.506 -15.438,117.628 -5.167,39.386 -8.737,66.574 -8.737,66.574 -0.371,-0.562 -0.727,-1.131 -1.089,-1.692 -0.1,0.732 -0.2,1.464 -0.293,2.2 0.511,0.809 1.02,1.619 1.55,2.421 0.75,-0.934 1.489,-1.876 2.239,-2.808 0.095,-0.736 0.19,-1.473 0.282,-2.206 -0.523,0.655 -1.046,1.314 -1.572,1.97 0,0 3.529,-27.21 8.642,-66.623 C 21.871,269.279 27.386,226.781 32.577,186.737 37.09,151.946 41.348,119.114 44.794,92.541 47,75.525 48.927,60.683 50.457,48.89 62.248,47.361 77.09,45.436 94.104,43.229 c 26.575,-3.447 59.407,-7.704 94.199,-12.216 40.043,-5.191 82.542,-10.709 117.683,-15.266 39.413,-5.11 66.625,-8.64 66.625,-8.64 -0.658,0.525 -1.318,1.045 -1.97,1.57 0.731,-0.091 1.468,-0.185 2.204,-0.281 0.935,-0.75 1.875,-1.491 2.811,-2.236 -0.803,-0.535 -1.617,-1.042 -2.423,-1.553 -0.735,0.092 -1.47,0.195 -2.201,0.29 0.562,0.365 1.131,0.719 1.694,1.093 0,0 -27.19,3.567 -66.576,8.736 -35.122,4.612 -77.6,10.186 -117.628,15.439 -34.782,4.564 -67.608,8.873 -94.179,12.361 -17.39,2.283 -32.509,4.267 -44.423,5.829"
           style="fill:#000000;fill-opacity:1;fill-rule:nonzero;stroke:none;stroke-opacity:1"
           id="path1684"
           inkscape:connector-curvature="0" /><path
           d="m 549.067,547.504 c -11.912,1.565 -27.034,3.547 -44.42,5.829 -26.573,3.488 -59.397,7.797 -94.181,12.362 -40.029,5.251 -82.506,10.828 -117.628,15.439 -39.385,5.166 -66.575,8.736 -66.575,8.736 0.563,0.371 1.132,0.727 1.693,1.088 -0.731,0.101 -1.465,0.201 -2.2,0.295 -0.807,-0.511 -1.619,-1.022 -2.422,-1.551 0.936,-0.75 1.876,-1.489 2.808,-2.24 0.74,-0.093 1.474,-0.189 2.208,-0.28 -0.655,0.522 -1.314,1.045 -1.971,1.571 0,0 27.21,-3.53 66.623,-8.642 35.142,-4.557 77.642,-10.073 117.685,-15.263 34.791,-4.513 67.622,-8.771 94.196,-12.219 17.017,-2.205 31.856,-4.132 43.65,-5.661 1.53,-11.791 3.454,-26.634 5.661,-43.649 3.448,-26.573 7.706,-59.406 12.217,-94.198 5.193,-40.042 10.708,-82.544 15.265,-117.683 5.113,-39.414 8.641,-66.625 8.641,-66.625 -0.524,0.659 -1.046,1.316 -1.571,1.972 0.091,-0.734 0.187,-1.471 0.28,-2.206 0.75,-0.933 1.492,-1.875 2.242,-2.811 0.529,0.803 1.039,1.617 1.55,2.422 -0.092,0.739 -0.193,1.471 -0.294,2.202 -0.363,-0.56 -0.718,-1.129 -1.09,-1.692 0,0 -3.569,27.189 -8.737,66.573 -4.608,35.123 -10.185,77.601 -15.438,117.629 -4.564,34.783 -8.873,67.609 -12.36,94.18 -2.284,17.387 -4.268,32.509 -5.832,44.422"
           style="fill:#000000;fill-opacity:1;fill-rule:nonzero;stroke:none;stroke-opacity:1"
           id="path1686"
           inkscape:connector-curvature="0" /><path
           d="m 59.668,58.104 c -1.054,10.146 -2.269,21.859 -3.615,34.821 -3.064,29.501 -6.936,66.802 -11.13,107.183 -2.357,22.72 -4.818,46.427 -7.257,69.915 -2.642,25.437 -5.236,50.4 -7.581,73.014 -5.212,50.189 -8.891,85.651 -8.891,85.651 -0.838,-1.406 -1.668,-2.803 -2.505,-4.188 -0.186,1.735 -0.372,3.477 -0.561,5.226 1.183,2.004 2.383,4.019 3.58,6.057 1.633,-2.169 3.262,-4.333 4.892,-6.485 0.171,-1.761 0.338,-3.515 0.508,-5.259 -1.136,1.505 -2.277,3.008 -3.42,4.521 0,0 3.578,-35.529 8.633,-85.801 2.279,-22.647 4.795,-47.644 7.355,-73.111 2.366,-23.514 4.752,-47.24 7.041,-69.979 4.066,-40.404 7.819,-77.72 10.787,-107.227 1.234,-12.265 2.356,-23.407 3.338,-33.166 9.758,-0.98 20.901,-2.104 33.164,-3.336 29.507,-2.969 66.822,-6.722 107.228,-10.789 22.74,-2.29 46.465,-4.672 69.98,-7.04 25.467,-2.561 50.464,-5.076 73.11,-7.354 50.271,-5.058 85.801,-8.634 85.801,-8.634 -1.512,1.14 -3.017,2.283 -4.521,3.422 1.745,-0.171 3.499,-0.34 5.261,-0.509 2.152,-1.629 4.315,-3.26 6.483,-4.892 -2.04,-1.198 -4.054,-2.4 -6.059,-3.581 -1.749,0.187 -3.489,0.376 -5.224,0.56 1.386,0.839 2.78,1.67 4.188,2.505 0,0 -35.46,3.683 -85.649,8.892 -22.617,2.345 -47.579,4.939 -73.016,7.582 -23.49,2.438 -47.193,4.901 -69.915,7.258 -40.381,4.191 -77.681,8.065 -107.183,11.128 -12.964,1.346 -24.675,2.562 -34.822,3.616"
           style="fill:#000000;fill-opacity:1;fill-rule:nonzero;stroke:none;stroke-opacity:1"
           id="path1688"
           inkscape:connector-curvature="0" /><path
           d="m 539.322,537.757 c -10.149,1.052 -21.859,2.269 -34.823,3.615 -29.501,3.064 -66.803,6.935 -107.184,11.128 -22.72,2.357 -46.424,4.819 -69.914,7.259 -25.438,2.639 -50.399,5.236 -73.015,7.579 -50.187,5.213 -85.65,8.893 -85.65,8.893 1.406,0.835 2.804,1.666 4.188,2.504 -1.734,0.186 -3.476,0.373 -5.225,0.561 -2.005,-1.182 -4.02,-2.384 -6.059,-3.58 2.171,-1.632 4.334,-3.262 6.485,-4.892 1.761,-0.17 3.515,-0.34 5.261,-0.51 -1.505,1.137 -3.009,2.28 -4.522,3.423 0,0 35.529,-3.578 85.801,-8.634 22.648,-2.278 47.642,-4.794 73.111,-7.356 23.515,-2.365 47.24,-4.75 69.98,-7.04 40.405,-4.065 77.719,-7.82 107.227,-10.787 12.263,-1.233 23.408,-2.357 33.163,-3.337 0.984,-9.758 2.103,-20.902 3.339,-33.165 2.968,-29.507 6.721,-66.822 10.786,-107.227 2.29,-22.741 4.676,-46.465 7.042,-69.98 2.561,-25.468 5.078,-50.464 7.356,-73.11 5.056,-50.275 8.631,-85.8 8.631,-85.8 -1.14,1.51 -2.283,3.014 -3.421,4.521 0.17,-1.745 0.342,-3.499 0.512,-5.263 1.629,-2.152 3.258,-4.317 4.89,-6.484 1.196,2.038 2.396,4.055 3.578,6.06 -0.187,1.749 -0.372,3.491 -0.56,5.223 -0.838,-1.383 -1.667,-2.779 -2.504,-4.187 0,0 -3.678,35.461 -8.891,85.648 -2.345,22.619 -4.94,47.578 -7.578,73.017 -2.442,23.489 -4.903,47.192 -7.261,69.915 -4.192,40.382 -8.064,77.68 -11.129,107.184 -1.344,12.961 -2.562,24.674 -3.614,34.822"
           style="fill:#000000;fill-opacity:1;fill-rule:nonzero;stroke:none;stroke-opacity:1"
           id="path1690"
           inkscape:connector-curvature="0" /><path
           d="m 70.348,68.782 c -0.562,7.458 -1.169,15.54 -1.817,24.172 -1.182,15.694 -2.522,33.485 -3.981,52.871 -1.584,21.05 -3.322,44.158 -5.155,68.512 -2.01,26.683 -4.132,54.91 -6.266,83.262 -2.339,31.102 -4.674,62.083 -6.813,90.541 -2.325,30.859 -4.367,58.003 -5.869,77.986 -1.581,21.021 -2.499,33.221 -2.499,33.221 -1.481,-2.663 -2.937,-5.305 -4.39,-7.92 -0.252,3.137 -0.509,6.3 -0.769,9.483 2.079,3.819 4.181,7.692 6.315,11.613 2.706,-3.835 5.402,-7.65 8.082,-11.446 0.207,-3.223 0.411,-6.425 0.616,-9.599 -1.864,2.628 -3.737,5.266 -5.618,7.913 0,0 0.859,-12.246 2.342,-33.34 1.406,-20.049 3.319,-47.278 5.492,-78.224 2.005,-28.532 4.185,-59.586 6.374,-90.754 1.995,-28.405 3.98,-56.674 5.856,-83.393 1.712,-24.382 3.335,-47.509 4.816,-68.575 1.36,-19.396 2.612,-37.192 3.713,-52.894 0.535,-7.607 1.04,-14.787 1.511,-21.488 6.701,-0.472 13.881,-0.977 21.488,-1.51 15.702,-1.104 33.498,-2.353 52.892,-3.715 21.066,-1.48 44.195,-3.102 68.578,-4.815 26.719,-1.875 54.988,-3.863 83.392,-5.859 31.168,-2.184 62.22,-4.364 90.755,-6.37 30.943,-2.174 58.173,-4.087 78.224,-5.494 21.092,-1.483 33.34,-2.341 33.34,-2.341 -2.648,1.879 -5.284,3.753 -7.915,5.616 3.175,-0.202 6.378,-0.405 9.601,-0.616 3.796,-2.679 7.609,-5.373 11.444,-8.079 -3.92,-2.136 -7.793,-4.237 -11.611,-6.317 -3.185,0.259 -6.348,0.517 -9.483,0.772 2.614,1.448 5.256,2.908 7.918,4.388 0,0 -12.2,0.917 -33.22,2.501 -19.983,1.499 -47.129,3.544 -77.984,5.866 -28.46,2.14 -59.442,4.474 -90.542,6.814 -28.353,2.135 -56.579,4.258 -83.264,6.266 -24.354,1.834 -47.461,3.568 -68.512,5.154 -19.384,1.459 -37.174,2.798 -52.871,3.98 -8.631,0.65 -16.713,1.26 -24.17,1.818"
           style="fill:#000000;fill-opacity:1;fill-rule:nonzero;stroke:none;stroke-opacity:1"
           id="path1692"
           inkscape:connector-curvature="0" /><path
           d="m 528.641,527.078 c -7.458,0.559 -15.539,1.166 -24.17,1.818 -15.699,1.181 -33.485,2.52 -52.87,3.977 -21.053,1.585 -44.161,3.324 -68.514,5.158 -26.683,2.006 -54.909,4.13 -83.262,6.264 -31.101,2.338 -62.083,4.672 -90.542,6.813 -30.857,2.325 -58.002,4.368 -77.984,5.869 -21.021,1.581 -33.222,2.502 -33.222,2.502 2.663,1.477 5.305,2.936 7.92,4.386 -3.137,0.255 -6.299,0.51 -9.483,0.769 -3.82,-2.078 -7.691,-4.18 -11.612,-6.316 3.834,-2.706 7.648,-5.399 11.445,-8.081 3.224,-0.207 6.424,-0.411 9.6,-0.614 -2.629,1.864 -5.267,3.736 -7.913,5.618 0,0 12.245,-0.86 33.339,-2.341 20.048,-1.408 47.279,-3.32 78.224,-5.493 28.532,-2.008 59.585,-4.187 90.752,-6.375 28.404,-1.996 56.675,-3.98 83.395,-5.855 24.384,-1.712 47.508,-3.335 68.575,-4.815 19.396,-1.363 37.195,-2.614 52.894,-3.717 7.606,-0.532 14.785,-1.039 21.488,-1.508 0.473,-6.702 0.977,-13.882 1.51,-21.489 1.101,-15.701 2.352,-33.498 3.714,-52.893 1.483,-21.066 3.103,-44.194 4.814,-68.576 1.879,-26.721 3.864,-54.99 5.86,-83.393 2.187,-31.17 4.367,-62.222 6.371,-90.755 2.173,-30.944 4.088,-58.174 5.494,-78.221 1.48,-21.095 2.341,-33.34 2.341,-33.34 -1.88,2.646 -3.751,5.284 -5.616,7.912 0.203,-3.176 0.408,-6.375 0.616,-9.601 2.68,-3.797 5.373,-7.609 8.078,-11.444 2.137,3.921 4.238,7.793 6.318,11.613 -0.258,3.183 -0.516,6.347 -0.77,9.481 -1.455,-2.612 -2.909,-5.254 -4.39,-7.918 0,0 -0.918,12.2 -2.502,33.219 -1.499,19.986 -3.543,47.13 -5.867,77.987 -2.139,28.458 -4.472,59.441 -6.814,90.54 -2.131,28.355 -4.256,56.58 -6.263,83.264 -1.835,24.355 -3.571,47.462 -5.157,68.512 -1.458,19.384 -2.797,37.174 -3.978,52.87 -0.65,8.633 -1.258,16.713 -1.819,24.173"
           style="fill:#000000;fill-opacity:1;fill-rule:nonzero;stroke:none;stroke-opacity:1"
           id="path1694"
           inkscape:connector-curvature="0" /><path
           d="m 84.964,83.401 c -0.105,2.756 -0.214,5.572 -0.325,8.452 -0.661,17.184 -1.418,36.878 -2.253,58.579 -0.916,23.789 -1.935,50.245 -3.02,78.498 -1.208,31.345 -2.502,65.018 -3.825,99.373 -1.471,38.268 -2.963,77.057 -4.357,113.281 -1.277,33.189 -2.443,63.468 -3.389,88.044 24.576,-0.946 54.856,-2.111 88.046,-3.388 36.222,-1.393 75.014,-2.886 113.279,-4.356 34.356,-1.324 68.029,-2.617 99.375,-3.825 28.254,-1.087 54.707,-2.104 78.496,-3.02 21.703,-0.836 64.276,-2.475 67.033,-2.581 0.107,-2.755 0.213,-5.572 0.328,-8.451 0.659,-17.183 1.418,-36.879 2.251,-58.58 0.916,-23.788 1.932,-50.244 3.021,-78.497 1.208,-31.345 2.5,-65.02 3.823,-99.372 1.473,-38.267 2.964,-77.058 4.36,-113.282 1.278,-33.189 2.441,-63.471 3.386,-88.044 -24.576,0.946 -54.854,2.108 -88.046,3.387 -36.221,1.394 -75.014,2.887 -113.278,4.358 -34.356,1.324 -68.029,2.617 -99.375,3.822 -28.252,1.09 -54.708,2.106 -78.497,3.022 -21.701,0.836 -64.277,2.471 -67.033,2.58 m 431.921,431.918 c -3.97,0.182 -8.08,0.368 -12.322,0.562 -17.179,0.78 -36.864,1.677 -58.548,2.663 -23.763,1.081 -50.183,2.281 -78.39,3.565 -31.28,1.42 -64.872,2.95 -99.13,4.507 -38.144,1.735 -76.79,3.492 -112.866,5.132 -36.087,1.64 -68.707,3.123 -94.237,4.285 1.161,-25.532 2.643,-58.151 4.284,-94.238 1.64,-36.073 3.398,-74.724 5.132,-112.864 1.558,-34.258 3.086,-67.85 4.509,-99.133 1.282,-28.208 2.483,-54.627 3.564,-78.389 0.986,-21.682 1.882,-41.369 2.663,-58.547 0.192,-4.241 0.38,-8.351 0.56,-12.321 3.972,-0.183 8.082,-0.368 12.323,-0.562 17.177,-0.78 36.863,-1.678 58.547,-2.665 23.763,-1.077 50.182,-2.279 78.389,-3.563 31.282,-1.422 64.874,-2.951 99.132,-4.51 38.144,-1.731 76.79,-3.49 112.863,-5.131 36.088,-1.641 68.71,-3.124 94.239,-4.283 -1.162,25.53 -2.643,58.151 -4.286,94.237 -1.639,36.075 -3.397,74.723 -5.132,112.865 -1.555,34.258 -3.084,67.851 -4.506,99.133 -1.282,28.207 -2.485,54.626 -3.562,78.389 -0.99,21.682 -1.884,41.368 -2.667,58.546 -0.193,4.242 -0.378,8.352 -0.559,12.322"
           style="fill:#000000;fill-opacity:1;fill-rule:nonzero;stroke:none;stroke-opacity:1"
           id="path1696"
           inkscape:connector-curvature="0" /><path
           d="m 99.084,97.519 c -0.09,17.27 -0.192,36.873 -0.306,58.447 -0.142,26.773 -0.301,56.953 -0.471,89.638 -0.194,36.758 -0.405,76.917 -0.625,118.601 -0.119,22.858 -0.242,46.117 -0.365,69.367 -0.117,22.54 -0.235,44.98 -0.351,66.887 21.904,-0.116 44.347,-0.235 66.887,-0.352 23.249,-0.123 46.51,-0.246 69.368,-0.367 41.68,-0.219 181.467,-0.952 208.239,-1.093 10.19,-0.053 33.632,-0.177 58.445,-0.306 0.131,-24.813 0.252,-48.256 0.305,-58.447 0.143,-26.773 0.874,-166.556 1.096,-208.238 0.119,-22.859 0.244,-46.12 0.364,-69.368 0.119,-22.541 0.237,-44.982 0.352,-66.885 -21.904,0.113 -44.345,0.232 -66.883,0.351 -23.25,0.122 -46.511,0.244 -69.369,0.363 -41.681,0.219 -181.466,0.956 -208.241,1.096 -21.574,0.115 -41.175,0.216 -58.445,0.306 m 404.8,404.801 c -20.872,0.299 -121.008,1.743 -153.129,2.205 -36.653,0.527 -76.674,1.105 -118.187,1.703 -22.755,0.327 -45.901,0.66 -69.028,0.995 -24.592,0.354 -49.054,0.706 -72.812,1.049 -0.534,0.007 -1.065,0.014 -1.597,0.023 0.007,-0.534 0.015,-1.065 0.022,-1.598 0.343,-23.76 0.696,-48.223 1.049,-72.813 0.334,-23.125 0.666,-46.273 0.995,-69.027 0.596,-41.514 1.175,-81.534 1.701,-118.188 0.462,-32.119 1.905,-132.257 2.207,-153.129 20.872,-0.302 121.009,-1.745 153.127,-2.206 36.656,-0.529 76.676,-1.105 118.19,-1.703 22.754,-0.329 45.899,-0.66 69.028,-0.994 24.59,-0.354 49.051,-0.706 72.81,-1.049 0.535,-0.007 1.067,-0.013 1.599,-0.023 -0.01,0.532 -0.016,1.066 -0.023,1.596 -0.343,23.762 -0.695,48.225 -1.05,72.814 -0.333,23.128 -0.668,46.273 -0.994,69.027 -0.598,41.515 -1.175,81.535 -1.703,118.187 -0.46,32.12 -1.903,132.259 -2.205,153.131"
           style="fill:#000000;fill-opacity:1;fill-rule:nonzero;stroke:none;stroke-opacity:1"
           id="path1698"
           inkscape:connector-curvature="0" /><path
           d="m 113.357,111.793 c 0.401,15.291 0.843,32.13 1.322,50.364 0.786,30.037 1.689,64.38 2.678,102.126 0.546,20.811 1.12,42.729 1.72,65.543 0.641,24.473 1.311,50.002 2.001,76.263 0.587,22.392 1.188,45.297 1.796,68.461 23.164,0.61 46.069,1.209 68.46,1.797 26.263,0.689 51.791,1.358 76.264,2.001 22.815,0.598 44.73,1.171 65.543,1.719 37.748,0.99 72.088,1.891 102.129,2.679 18.233,0.479 35.069,0.918 50.363,1.321 -0.403,-15.292 -0.844,-32.129 -1.32,-50.363 -0.791,-30.04 -1.69,-64.381 -2.68,-102.128 -0.548,-20.811 -1.12,-42.728 -1.723,-65.544 -0.639,-24.47 -1.31,-50.001 -1.999,-76.264 -0.587,-22.391 -1.187,-45.293 -1.795,-68.461 -23.165,-0.608 -46.069,-1.208 -68.464,-1.794 -26.26,-0.69 -51.79,-1.359 -76.259,-1.999 -22.816,-0.604 -44.732,-1.175 -65.544,-1.722 -37.748,-0.989 -72.088,-1.891 -102.129,-2.679 -18.234,-0.478 -35.071,-0.92 -50.363,-1.32 m 377.563,377.56 c -17.058,-0.25 -36.188,-0.533 -57.164,-0.844 -29.98,-0.444 -64.235,-0.95 -101.861,-1.508 -20.733,-0.305 -42.559,-0.63 -65.272,-0.964 -24.351,-0.362 -49.742,-0.736 -75.848,-1.123 -25.189,-0.373 -51.018,-0.755 -77.123,-1.142 -0.386,-26.105 -0.77,-51.935 -1.141,-77.123 -0.387,-26.106 -0.761,-51.497 -1.124,-75.848 -0.334,-22.712 -0.658,-44.54 -0.965,-65.271 -0.556,-37.629 -1.064,-71.881 -1.507,-101.864 -0.311,-20.976 -0.593,-40.106 -0.845,-57.162 17.055,0.253 36.186,0.537 57.16,0.848 29.982,0.439 64.236,0.95 101.863,1.506 20.736,0.307 42.559,0.632 65.272,0.965 24.352,0.362 49.741,0.737 75.849,1.122 25.188,0.372 51.016,0.755 77.124,1.142 0.388,26.106 0.768,51.934 1.14,77.122 0.387,26.108 0.761,51.499 1.123,75.851 0.333,22.711 0.659,44.536 0.964,65.271 0.557,37.627 1.065,71.88 1.509,101.862 0.309,20.976 0.595,40.107 0.846,57.16"
           style="fill:#000000;fill-opacity:1;fill-rule:nonzero;stroke:none;stroke-opacity:1"
           id="path1700"
           inkscape:connector-curvature="0" /></g></g></g></svg>
