<?xml version="1.0" encoding="UTF-8" standalone="no"?>
<!-- Created with Inkscape (http://www.inkscape.org/) -->
<svg xmlns:dc="http://purl.org/dc/elements/1.1/" xmlns:cc="http://creativecommons.org/ns#" xmlns:rdf="http://www.w3.org/1999/02/22-rdf-syntax-ns#" xmlns:svg="http://www.w3.org/2000/svg" xmlns="http://www.w3.org/2000/svg" xmlns:sodipodi="http://sodipodi.sourceforge.net/DTD/sodipodi-0.dtd" xmlns:inkscape="http://www.inkscape.org/namespaces/inkscape" version="1.1" id="svg23679" xml:space="preserve" width="800" height="800" viewBox="0 0 800 800" sodipodi:docname="black-halftone-distorted-shape.svg" inkscape:version="0.92.4 (5da689c313, 2019-01-14)"><metadata id="metadata23685"><rdf:RDF><cc:Work rdf:about=""><dc:format>image/svg+xml</dc:format><dc:type rdf:resource="http://purl.org/dc/dcmitype/StillImage"/><dc:title/></cc:Work></rdf:RDF></metadata><defs id="defs23683"><clipPath clipPathUnits="userSpaceOnUse" id="clipPath23695"><path d="M 0,600 H 600 V 0 H 0 Z" id="path23693" inkscape:connector-curvature="0"/></clipPath></defs><sodipodi:namedview pagecolor="#ffffff" bordercolor="#666666" borderopacity="1" objecttolerance="10" gridtolerance="10" guidetolerance="10" inkscape:pageopacity="0" inkscape:pageshadow="2" inkscape:window-width="724" inkscape:window-height="480" id="namedview23681" showgrid="false" inkscape:zoom="0.295" inkscape:cx="400" inkscape:cy="400" inkscape:window-x="0" inkscape:window-y="0" inkscape:window-maximized="0" inkscape:current-layer="g23687"/><g id="g23687" inkscape:groupmode="layer" inkscape:label="dotted-pattern-23-publicdomainvectors.org" transform="matrix(1.3333333,0,0,-1.3333333,0,800)"><g id="g23689"><g id="g23691" clip-path="url(#clipPath23695)"><path d="m 528.351,221.391 c 12.52,-0.008 27.75,-13.139 33.081,-30.714 5.63,-18.581 -1.673,-34.619 -15.184,-34.639 -13.509,0.02 -27.427,16.031 -32.056,34.639 -4.339,17.547 1.637,30.706 14.159,30.714" style="fill:#231f20;fill-opacity:1;fill-rule:nonzero;stroke:none" id="path23697" inkscape:connector-curvature="0"/><path d="m 508.066,269.995 c 11.402,-0.007 25.949,-9.271 31.912,-22.15 6.434,-13.948 0.893,-26.445 -11.627,-26.454 -12.522,0.009 -26.421,12.473 -31.713,26.454 -4.852,12.849 0.027,22.143 11.428,22.15" style="fill:#231f20;fill-opacity:1;fill-rule:nonzero;stroke:none" id="path23699" inkscape:connector-curvature="0"/><path d="m 488.187,302.238 c 10.302,-0.006 23.611,-5.776 29.387,-14.225 6.35,-9.302 1.894,-18.011 -9.508,-18.018 -11.401,0.007 -24.53,8.683 -29.755,18.018 -4.698,8.417 -0.429,14.219 9.876,14.225" style="fill:#231f20;fill-opacity:1;fill-rule:nonzero;stroke:none" id="path23701" inkscape:connector-curvature="0"/><path d="m 470.449,321.195 c 9.323,-0.004 21.128,-3.148 26.264,-8.07 5.683,-5.456 1.776,-10.883 -8.526,-10.887 -10.305,0.004 -22.261,5.403 -26.945,10.887 -4.174,4.899 -0.119,8.066 9.207,8.07" style="fill:#231f20;fill-opacity:1;fill-rule:nonzero;stroke:none" id="path23703" inkscape:connector-curvature="0"/><path d="m 455.736,331.229 c 8.512,-0.003 18.784,-1.617 23.057,-4.204 4.687,-2.852 0.979,-5.825 -8.344,-5.83 -9.326,0.005 -20.011,2.97 -23.872,5.83 -3.474,2.579 0.649,4.201 9.159,4.204" style="fill:#231f20;fill-opacity:1;fill-rule:nonzero;stroke:none" id="path23705" inkscape:connector-curvature="0"/><path d="m 444.266,337.228 c 7.878,0 16.787,-1.25 20.141,-2.796 3.614,-1.673 -0.159,-3.201 -8.671,-3.203 -8.51,0.002 -17.964,1.538 -20.929,3.204 -2.742,1.552 1.579,2.795 9.459,2.795" style="fill:#231f20;fill-opacity:1;fill-rule:nonzero;stroke:none" id="path23707" inkscape:connector-curvature="0"/><path d="m 435.676,343.443 c 7.402,-0.006 15.21,-1.67 17.775,-3.334 2.652,-1.724 -1.307,-2.881 -9.185,-2.881 -7.88,0 -16.266,1.171 -18.421,2.882 -2.116,1.677 2.428,3.327 9.831,3.333" style="fill:#231f20;fill-opacity:1;fill-rule:nonzero;stroke:none" id="path23709" inkscape:connector-curvature="0"/><path d="m 429.384,352.289 c 7.056,-0.007 14.013,-2.36 15.957,-4.83 1.879,-2.406 -2.263,-4.016 -9.665,-4.016 -7.403,0 -14.942,1.635 -16.467,4.016 -1.599,2.496 3.117,4.823 10.175,4.83" style="fill:#231f20;fill-opacity:1;fill-rule:nonzero;stroke:none" id="path23711" inkscape:connector-curvature="0"/><path d="m 424.953,364.594 c 6.814,-0.007 13.146,-3.114 14.534,-6.602 1.302,-3.307 -3.047,-5.703 -10.103,-5.703 -7.058,0 -13.894,2.414 -14.964,5.704 -1.13,3.505 3.723,6.594 10.533,6.601" style="fill:#231f20;fill-opacity:1;fill-rule:nonzero;stroke:none" id="path23713" inkscape:connector-curvature="0"/><path d="m 422.173,380.523 c 6.658,-0.002 12.495,-3.9 13.365,-8.421 0.816,-4.277 -3.771,-7.506 -10.585,-7.508 -6.81,0.002 -13.087,3.24 -13.765,7.51 -0.705,4.525 4.328,8.417 10.985,8.419" style="fill:#231f20;fill-opacity:1;fill-rule:nonzero;stroke:none" id="path23715" inkscape:connector-curvature="0"/><path d="m 420.98,400.136 c 6.593,0 11.998,-4.723 12.374,-10.275 0.349,-5.278 -4.523,-9.331 -11.181,-9.338 -6.657,0.007 -12.477,4.065 -12.772,9.34 -0.294,5.554 4.989,10.273 11.579,10.273" style="fill:#231f20;fill-opacity:1;fill-rule:nonzero;stroke:none" id="path23717" inkscape:connector-curvature="0"/><path d="m 483.004,221.391 c 12.52,-0.007 26.83,-13.172 31.188,-30.714 4.608,-18.614 -3.359,-34.619 -16.87,-34.639 -13.51,0.02 -26.765,16.005 -30.37,34.639 -3.375,17.518 3.529,30.707 16.052,30.714" style="fill:#231f20;fill-opacity:1;fill-rule:nonzero;stroke:none" id="path23719" inkscape:connector-curvature="0"/><path d="m 466.776,269.995 c 11.4,-0.007 24.997,-9.307 29.862,-22.15 5.277,-13.986 -1.114,-26.443 -13.634,-26.454 -12.523,0.011 -25.573,12.442 -29.705,26.455 -3.757,12.817 2.076,22.142 13.477,22.149" style="fill:#231f20;fill-opacity:1;fill-rule:nonzero;stroke:none" id="path23721" inkscape:connector-curvature="0"/><path d="m 450.871,302.238 c 10.305,-0.006 22.731,-5.815 27.44,-14.225 5.21,-9.343 -0.135,-18.011 -11.535,-18.018 -11.401,0.007 -23.643,8.645 -27.733,18.018 -3.634,8.378 1.525,14.219 11.828,14.225" style="fill:#231f20;fill-opacity:1;fill-rule:nonzero;stroke:none" id="path23723" inkscape:connector-curvature="0"/><path d="m 436.681,321.195 c 9.323,-0.006 20.382,-3.176 24.561,-8.07 4.674,-5.491 -0.066,-10.883 -10.371,-10.887 -10.303,0.004 -21.43,5.364 -25.101,10.887 -3.218,4.868 1.587,8.064 10.911,8.07" style="fill:#231f20;fill-opacity:1;fill-rule:nonzero;stroke:none" id="path23725" inkscape:connector-curvature="0"/><path d="m 424.912,331.229 c 8.512,-0.003 18.186,-1.63 21.665,-4.204 3.854,-2.869 -0.573,-5.828 -9.896,-5.83 -9.324,0.002 -19.293,2.946 -22.317,5.83 -2.685,2.562 2.037,4.201 10.548,4.204" style="fill:#231f20;fill-opacity:1;fill-rule:nonzero;stroke:none" id="path23727" inkscape:connector-curvature="0"/><path d="m 415.736,337.228 c 7.875,0 16.327,-1.247 19.072,-2.796 2.96,-1.675 -1.384,-3.203 -9.896,-3.203 -8.511,0 -17.394,1.536 -19.703,3.204 -2.134,1.553 2.647,2.795 10.527,2.795" style="fill:#231f20;fill-opacity:1;fill-rule:nonzero;stroke:none" id="path23729" inkscape:connector-curvature="0"/><path d="m 408.863,343.443 c 7.405,-0.003 14.866,-1.656 16.982,-3.334 2.152,-1.711 -2.234,-2.881 -10.109,-2.881 -7.88,0 -15.837,1.19 -17.499,2.882 -1.662,1.697 3.224,3.33 10.626,3.333" style="fill:#231f20;fill-opacity:1;fill-rule:nonzero;stroke:none" id="path23731" inkscape:connector-curvature="0"/><path d="m 403.829,352.289 c 7.056,-0.007 13.774,-2.34 15.38,-4.83 1.52,-2.386 -2.941,-4.016 -10.346,-4.016 -7.402,0 -14.607,1.658 -15.787,4.016 -1.251,2.518 3.697,4.823 10.753,4.83" style="fill:#231f20;fill-opacity:1;fill-rule:nonzero;stroke:none" id="path23733" inkscape:connector-curvature="0"/><path d="m 400.287,364.594 c 6.811,-0.007 12.989,-3.1 14.133,-6.602 1.059,-3.293 -3.535,-5.703 -10.591,-5.703 -7.056,0 -13.646,2.424 -14.477,5.704 -0.876,3.515 4.122,6.594 10.935,6.601" style="fill:#231f20;fill-opacity:1;fill-rule:nonzero;stroke:none" id="path23735" inkscape:connector-curvature="0"/><path d="m 398.061,380.523 c 6.657,-0.002 12.415,-3.895 13.127,-8.421 0.667,-4.271 -4.09,-7.506 -10.901,-7.508 -6.813,0.002 -12.919,3.244 -13.448,7.51 -0.548,4.529 4.563,8.417 11.222,8.419" style="fill:#231f20;fill-opacity:1;fill-rule:nonzero;stroke:none" id="path23737" inkscape:connector-curvature="0"/><path d="m 397.108,400.136 c 6.592,0 11.985,-4.721 12.293,-10.275 0.287,-5.276 -4.683,-9.335 -11.34,-9.338 -6.659,0.003 -12.381,4.066 -12.613,9.34 -0.228,5.554 5.068,10.273 11.66,10.273" style="fill:#231f20;fill-opacity:1;fill-rule:nonzero;stroke:none" id="path23739" inkscape:connector-curvature="0"/><path d="m 437.657,221.391 c 12.52,-0.012 25.906,-13.198 29.295,-30.714 3.582,-18.64 -5.047,-34.627 -18.557,-34.639 -13.508,0.012 -26.103,15.982 -28.682,34.639 -2.402,17.499 5.421,30.702 17.944,30.714" style="fill:#231f20;fill-opacity:1;fill-rule:nonzero;stroke:none" id="path23741" inkscape:connector-curvature="0"/><path d="m 425.484,269.995 c 11.402,-0.007 24.043,-9.337 27.815,-22.149 4.115,-14.019 -3.122,-26.444 -15.642,-26.455 -12.523,0.011 -24.738,12.413 -27.696,26.455 -2.675,12.79 4.123,22.142 15.523,22.149" style="fill:#231f20;fill-opacity:1;fill-rule:nonzero;stroke:none" id="path23743" inkscape:connector-curvature="0"/><path d="m 413.558,302.238 c 10.3,-0.004 21.838,-5.853 25.485,-14.225 4.073,-9.379 -2.157,-18.011 -13.559,-18.018 -11.4,0.007 -22.775,8.608 -25.705,18.018 -2.584,8.342 3.475,14.221 13.779,14.225" style="fill:#231f20;fill-opacity:1;fill-rule:nonzero;stroke:none" id="path23745" inkscape:connector-curvature="0"/><path d="m 402.914,321.195 c 9.324,-0.002 19.627,-3.21 22.856,-8.07 3.658,-5.531 -1.912,-10.883 -12.212,-10.887 -10.304,0.004 -20.618,5.322 -23.261,10.887 -2.276,4.83 3.294,8.068 12.617,8.07" style="fill:#231f20;fill-opacity:1;fill-rule:nonzero;stroke:none" id="path23747" inkscape:connector-curvature="0"/><path d="m 394.088,331.229 c 8.511,0 17.584,-1.648 20.276,-4.204 3.02,-2.89 -2.126,-5.819 -11.45,-5.83 -9.323,0.011 -18.58,2.917 -20.766,5.83 -1.896,2.538 3.429,4.204 11.94,4.204" style="fill:#231f20;fill-opacity:1;fill-rule:nonzero;stroke:none" id="path23749" inkscape:connector-curvature="0"/><path d="m 387.204,337.228 c 7.878,0 15.864,-1.248 18.005,-2.796 2.304,-1.674 -2.61,-3.201 -11.121,-3.203 -8.511,0.002 -16.825,1.531 -18.478,3.204 -1.527,1.553 3.716,2.795 11.594,2.795" style="fill:#231f20;fill-opacity:1;fill-rule:nonzero;stroke:none" id="path23751" inkscape:connector-curvature="0"/><path d="m 382.052,343.443 c 7.403,0.003 14.521,-1.639 16.185,-3.334 1.66,-1.695 -3.155,-2.879 -11.033,-2.881 -7.878,0.002 -15.398,1.212 -16.575,2.882 -1.2,1.721 4.019,3.336 11.423,3.333" style="fill:#231f20;fill-opacity:1;fill-rule:nonzero;stroke:none" id="path23753" inkscape:connector-curvature="0"/><path d="m 378.276,352.289 c 7.055,0 13.54,-2.317 14.802,-4.83 1.17,-2.363 -3.623,-4.013 -11.026,-4.016 -7.404,0.003 -14.27,1.678 -15.108,4.016 -0.898,2.537 4.276,4.83 11.332,4.83" style="fill:#231f20;fill-opacity:1;fill-rule:nonzero;stroke:none" id="path23755" inkscape:connector-curvature="0"/><path d="m 375.618,364.594 c 6.811,-0.007 12.84,-3.09 13.734,-6.602 0.817,-3.282 -4.021,-5.698 -11.076,-5.703 -7.056,0.005 -13.399,2.434 -13.992,5.704 -0.629,3.524 4.523,6.594 11.334,6.601" style="fill:#231f20;fill-opacity:1;fill-rule:nonzero;stroke:none" id="path23757" inkscape:connector-curvature="0"/><path d="m 373.95,380.523 c 6.657,-0.002 12.336,-3.891 12.889,-8.421 0.521,-4.266 -4.41,-7.506 -11.221,-7.508 -6.811,0.002 -12.75,3.247 -13.129,7.51 -0.39,4.533 4.804,8.417 11.461,8.419" style="fill:#231f20;fill-opacity:1;fill-rule:nonzero;stroke:none" id="path23759" inkscape:connector-curvature="0"/><path d="m 373.235,400.136 c 6.591,0 11.975,-4.719 12.213,-10.275 0.221,-5.274 -4.841,-9.331 -11.498,-9.338 -6.657,0.007 -12.288,4.067 -12.454,9.34 -0.163,5.554 5.147,10.273 11.739,10.273" style="fill:#231f20;fill-opacity:1;fill-rule:nonzero;stroke:none" id="path23761" inkscape:connector-curvature="0"/><path d="m 392.31,221.391 c 12.52,-0.012 24.98,-13.218 27.403,-30.714 2.559,-18.658 -6.735,-34.627 -20.245,-34.639 -13.511,0.012 -25.441,15.969 -26.994,34.639 -1.438,17.484 7.314,30.702 19.836,30.714" style="fill:#231f20;fill-opacity:1;fill-rule:nonzero;stroke:none" id="path23763" inkscape:connector-curvature="0"/><path d="m 384.194,269.995 c 11.402,-0.007 23.074,-9.363 25.767,-22.149 2.943,-14.046 -5.131,-26.444 -17.651,-26.455 -12.522,0.011 -23.905,12.392 -25.688,26.455 -1.599,12.769 6.172,22.142 17.572,22.149" style="fill:#231f20;fill-opacity:1;fill-rule:nonzero;stroke:none" id="path23765" inkscape:connector-curvature="0"/><path d="m 376.243,302.238 c 10.303,-0.003 20.938,-5.886 23.536,-14.225 2.915,-9.415 -4.183,-18.011 -15.585,-18.018 -11.4,0.007 -21.915,8.58 -23.681,18.018 -1.542,8.316 5.427,14.222 15.73,14.225" style="fill:#231f20;fill-opacity:1;fill-rule:nonzero;stroke:none" id="path23767" inkscape:connector-curvature="0"/><path d="m 369.148,321.195 c 9.324,-0.002 18.862,-3.245 21.149,-8.07 2.634,-5.571 -3.751,-10.883 -14.054,-10.887 -10.303,0.004 -19.817,5.285 -21.419,10.887 -1.354,4.795 5,8.068 14.324,8.07" style="fill:#231f20;fill-opacity:1;fill-rule:nonzero;stroke:none" id="path23769" inkscape:connector-curvature="0"/><path d="m 363.265,331.229 c 8.51,0 16.978,-1.673 18.883,-4.204 2.175,-2.921 -3.676,-5.823 -13,-5.83 -9.324,0.007 -17.882,2.884 -19.212,5.83 -1.123,2.51 4.816,4.204 13.329,4.204" style="fill:#231f20;fill-opacity:1;fill-rule:nonzero;stroke:none" id="path23771" inkscape:connector-curvature="0"/><path d="m 358.675,337.228 c 7.877,0 15.404,-1.247 16.935,-2.796 1.648,-1.676 -3.835,-3.201 -12.345,-3.203 -8.513,0.002 -16.255,1.529 -17.253,3.204 -0.914,1.558 4.785,2.795 12.663,2.795" style="fill:#231f20;fill-opacity:1;fill-rule:nonzero;stroke:none" id="path23773" inkscape:connector-curvature="0"/><path d="m 355.239,343.443 c 7.404,0.003 14.185,-1.615 15.393,-3.334 1.169,-1.673 -4.08,-2.879 -11.957,-2.881 -7.878,0.002 -14.955,1.234 -15.651,2.882 -0.73,1.747 4.811,3.336 12.215,3.333" style="fill:#231f20;fill-opacity:1;fill-rule:nonzero;stroke:none" id="path23775" inkscape:connector-curvature="0"/><path d="m 352.723,352.289 c 7.054,0 13.312,-2.296 14.222,-4.83 0.826,-2.341 -4.302,-4.013 -11.706,-4.016 -7.404,0.003 -13.926,1.695 -14.426,4.016 -0.542,2.552 4.854,4.83 11.91,4.83" style="fill:#231f20;fill-opacity:1;fill-rule:nonzero;stroke:none" id="path23777" inkscape:connector-curvature="0"/><path d="m 350.95,364.594 c 6.814,-0.007 12.695,-3.079 13.334,-6.602 0.582,-3.272 -4.507,-5.698 -11.561,-5.703 -7.056,0.005 -13.15,2.441 -13.507,5.704 -0.375,3.529 4.923,6.594 11.734,6.601" style="fill:#231f20;fill-opacity:1;fill-rule:nonzero;stroke:none" id="path23779" inkscape:connector-curvature="0"/><path d="m 349.837,380.523 c 6.659,-0.002 12.254,-3.888 12.652,-8.421 0.37,-4.262 -4.725,-7.506 -11.539,-7.508 -6.811,0.002 -12.583,3.249 -12.811,7.51 -0.233,4.535 5.041,8.417 11.698,8.419" style="fill:#231f20;fill-opacity:1;fill-rule:nonzero;stroke:none" id="path23781" inkscape:connector-curvature="0"/><path d="m 349.361,400.136 c 6.593,0 11.961,-4.719 12.135,-10.275 0.157,-5.273 -5,-9.331 -11.659,-9.338 -6.657,0.007 -12.191,4.068 -12.294,9.34 -0.095,5.555 5.226,10.273 11.818,10.273" style="fill:#231f20;fill-opacity:1;fill-rule:nonzero;stroke:none" id="path23783" inkscape:connector-curvature="0"/><path d="m 346.963,221.391 c 12.52,-0.012 24.055,-13.23 25.511,-30.714 1.532,-18.672 -8.422,-34.624 -21.933,-34.639 -13.509,0.015 -24.782,15.961 -25.309,34.639 -0.47,17.477 9.208,30.702 21.731,30.714" style="fill:#231f20;fill-opacity:1;fill-rule:nonzero;stroke:none" id="path23785" inkscape:connector-curvature="0"/><path d="m 342.904,269.995 c 11.4,-0.007 22.102,-9.382 23.718,-22.149 1.765,-14.065 -7.139,-26.446 -19.659,-26.455 -12.523,0.009 -23.077,12.381 -23.678,26.455 -0.527,12.758 8.219,22.142 19.619,22.149" style="fill:#231f20;fill-opacity:1;fill-rule:nonzero;stroke:none" id="path23787" inkscape:connector-curvature="0"/><path d="m 338.93,302.238 c 10.302,-0.004 20.026,-5.912 21.583,-14.225 1.752,-9.441 -6.209,-18.011 -17.609,-18.018 -11.4,0.007 -21.06,8.565 -21.656,18.018 -0.509,8.301 7.376,14.221 17.682,14.225" style="fill:#231f20;fill-opacity:1;fill-rule:nonzero;stroke:none" id="path23789" inkscape:connector-curvature="0"/><path d="m 335.382,321.195 c 9.324,0 18.074,-3.28 19.442,-8.07 1.586,-5.607 -5.592,-10.883 -15.894,-10.887 -10.306,0.004 -19.038,5.262 -19.578,10.887 -0.448,4.772 6.707,8.07 16.03,8.07" style="fill:#231f20;fill-opacity:1;fill-rule:nonzero;stroke:none" id="path23791" inkscape:connector-curvature="0"/><path d="m 332.439,331.229 c 8.512,0 16.363,-1.699 17.497,-4.204 1.316,-2.952 -5.23,-5.821 -14.554,-5.83 -9.323,0.009 -17.208,2.857 -17.66,5.83 -0.368,2.487 6.207,4.204 14.717,4.204" style="fill:#231f20;fill-opacity:1;fill-rule:nonzero;stroke:none" id="path23793" inkscape:connector-curvature="0"/><path d="m 330.145,337.228 c 7.877,0 14.943,-1.244 15.868,-2.796 0.986,-1.681 -5.062,-3.201 -13.574,-3.203 -8.51,0.002 -15.689,1.524 -16.024,3.204 -0.302,1.559 5.852,2.795 13.73,2.795" style="fill:#231f20;fill-opacity:1;fill-rule:nonzero;stroke:none" id="path23795" inkscape:connector-curvature="0"/><path d="m 328.426,343.443 c 7.405,0.003 13.862,-1.589 14.598,-3.334 0.69,-1.65 -5.002,-2.879 -12.879,-2.881 -7.878,0.002 -14.494,1.252 -14.727,2.882 -0.242,1.765 5.605,3.336 13.008,3.333" style="fill:#231f20;fill-opacity:1;fill-rule:nonzero;stroke:none" id="path23797" inkscape:connector-curvature="0"/><path d="m 327.168,352.289 c 7.057,-0.003 13.094,-2.28 13.645,-4.83 0.49,-2.323 -4.982,-4.013 -12.387,-4.016 -7.403,0.003 -13.574,1.704 -13.744,4.016 -0.178,2.561 5.431,4.827 12.486,4.83" style="fill:#231f20;fill-opacity:1;fill-rule:nonzero;stroke:none" id="path23799" inkscape:connector-curvature="0"/><path d="m 326.281,364.594 c 6.814,-0.009 12.547,-3.072 12.935,-6.602 0.347,-3.265 -4.991,-5.701 -12.048,-5.703 -7.055,0.002 -12.898,2.443 -13.019,5.704 -0.124,3.532 5.322,6.592 12.132,6.601" style="fill:#231f20;fill-opacity:1;fill-rule:nonzero;stroke:none" id="path23801" inkscape:connector-curvature="0"/><path d="m 325.726,380.523 c 6.658,-0.002 12.172,-3.885 12.413,-8.421 0.22,-4.259 -5.044,-7.506 -11.858,-7.508 -6.81,0.002 -12.412,3.25 -12.492,7.51 -0.073,4.536 5.279,8.417 11.937,8.419" style="fill:#231f20;fill-opacity:1;fill-rule:nonzero;stroke:none" id="path23803" inkscape:connector-curvature="0"/><path d="m 325.488,400.136 c 6.592,0 11.949,-4.718 12.055,-10.275 0.092,-5.272 -5.159,-9.335 -11.817,-9.338 -6.658,0.003 -12.098,4.068 -12.135,9.34 -0.029,5.555 5.305,10.273 11.897,10.273" style="fill:#231f20;fill-opacity:1;fill-rule:nonzero;stroke:none" id="path23805" inkscape:connector-curvature="0"/><path d="m 301.613,221.391 c 12.523,-0.014 23.129,-13.237 23.619,-30.714 0.507,-18.678 -10.108,-34.624 -23.619,-34.639 -13.508,0.015 -24.123,15.961 -23.617,34.639 0.491,17.477 11.097,30.7 23.617,30.714" style="fill:#231f20;fill-opacity:1;fill-rule:nonzero;stroke:none" id="path23807" inkscape:connector-curvature="0"/><path d="m 301.613,269.995 c 11.404,-0.007 21.127,-9.391 21.672,-22.149 0.581,-14.075 -9.149,-26.446 -21.672,-26.455 -12.52,0.009 -22.25,12.38 -21.669,26.454 0.545,12.759 10.268,22.143 21.669,22.15" style="fill:#231f20;fill-opacity:1;fill-rule:nonzero;stroke:none" id="path23809" inkscape:connector-curvature="0"/><path d="m 301.613,302.238 c 10.306,-0.004 19.112,-5.925 19.635,-14.225 0.579,-9.454 -8.231,-18.011 -19.635,-18.018 -11.401,0.007 -20.208,8.564 -19.631,18.018 0.522,8.3 9.328,14.221 19.631,14.225" style="fill:#231f20;fill-opacity:1;fill-rule:nonzero;stroke:none" id="path23811" inkscape:connector-curvature="0"/><path d="m 301.613,321.195 c 9.325,-0.002 17.28,-3.299 17.739,-8.07 0.525,-5.628 -7.433,-10.883 -17.739,-10.887 -10.303,0.004 -18.26,5.259 -17.734,10.887 0.457,4.771 8.411,8.068 17.734,8.07" style="fill:#231f20;fill-opacity:1;fill-rule:nonzero;stroke:none" id="path23813" inkscape:connector-curvature="0"/><path d="m 301.613,331.229 c 8.514,0 15.73,-1.719 16.109,-4.204 0.435,-2.975 -6.784,-5.821 -16.109,-5.83 -9.323,0.009 -16.542,2.855 -16.104,5.83 0.379,2.485 7.596,4.204 16.104,4.204" style="fill:#231f20;fill-opacity:1;fill-rule:nonzero;stroke:none" id="path23815" inkscape:connector-curvature="0"/><path d="m 301.613,337.228 c 7.878,0 14.487,-1.238 14.802,-2.796 0.324,-1.682 -6.288,-3.201 -14.802,-3.203 -8.508,0.002 -15.123,1.521 -14.798,3.204 0.314,1.557 6.923,2.795 14.798,2.795" style="fill:#231f20;fill-opacity:1;fill-rule:nonzero;stroke:none" id="path23817" inkscape:connector-curvature="0"/><path d="m 301.613,343.443 c 7.405,0.003 13.552,-1.57 13.805,-3.334 0.223,-1.63 -5.927,-2.879 -13.805,-2.881 -7.875,0.002 -14.025,1.251 -13.8,2.882 0.251,1.763 6.398,3.336 13.8,3.333" style="fill:#231f20;fill-opacity:1;fill-rule:nonzero;stroke:none" id="path23819" inkscape:connector-curvature="0"/><path d="m 301.613,352.289 c 7.058,-0.003 12.881,-2.27 13.069,-4.83 0.159,-2.313 -5.664,-4.013 -13.069,-4.016 -7.402,0.003 -13.223,1.703 -13.065,4.016 0.19,2.56 6.011,4.827 13.065,4.83" style="fill:#231f20;fill-opacity:1;fill-rule:nonzero;stroke:none" id="path23821" inkscape:connector-curvature="0"/><path d="m 301.613,364.594 c 6.814,-0.009 12.402,-3.069 12.536,-6.602 0.112,-3.262 -5.478,-5.701 -12.536,-5.703 -7.054,0.002 -12.645,2.443 -12.533,5.704 0.131,3.532 5.723,6.592 12.533,6.601" style="fill:#231f20;fill-opacity:1;fill-rule:nonzero;stroke:none" id="path23823" inkscape:connector-curvature="0"/><path d="m 301.613,380.523 c 6.66,-0.002 12.092,-3.884 12.176,-8.421 0.072,-4.258 -5.362,-7.506 -12.176,-7.508 -6.81,0.002 -12.242,3.25 -12.174,7.51 0.084,4.535 5.516,8.417 12.174,8.419" style="fill:#231f20;fill-opacity:1;fill-rule:nonzero;stroke:none" id="path23825" inkscape:connector-curvature="0"/><path d="m 301.613,400.136 c 6.594,0 11.94,-4.718 11.978,-10.275 0.028,-5.271 -5.318,-9.335 -11.978,-9.338 -6.658,0.003 -12.003,4.068 -11.975,9.34 0.038,5.555 5.385,10.273 11.975,10.273" style="fill:#231f20;fill-opacity:1;fill-rule:nonzero;stroke:none" id="path23827" inkscape:connector-curvature="0"/><path d="m 256.267,221.391 c 12.522,-0.012 22.2,-13.237 21.729,-30.714 -0.525,-18.678 -11.797,-34.627 -25.308,-34.639 -13.511,0.012 -23.466,15.967 -21.932,34.639 1.455,17.484 12.991,30.702 25.511,30.714" style="fill:#231f20;fill-opacity:1;fill-rule:nonzero;stroke:none" id="path23829" inkscape:connector-curvature="0"/><path d="m 260.326,269.995 c 11.4,-0.007 20.146,-9.391 19.618,-22.15 -0.6,-14.073 -11.155,-26.445 -23.677,-26.454 -12.52,0.009 -21.425,12.39 -19.661,26.454 1.617,12.768 12.316,22.143 23.72,22.15" style="fill:#231f20;fill-opacity:1;fill-rule:nonzero;stroke:none" id="path23831" inkscape:connector-curvature="0"/><path d="m 264.299,302.238 c 10.306,-0.003 18.191,-5.924 17.683,-14.225 -0.594,-9.453 -10.256,-18.011 -21.656,-18.018 -11.404,0.007 -19.362,8.577 -17.61,18.018 1.557,8.313 11.282,14.222 21.583,14.225" style="fill:#231f20;fill-opacity:1;fill-rule:nonzero;stroke:none" id="path23833" inkscape:connector-curvature="0"/><path d="m 267.849,321.195 c 9.321,-0.002 16.472,-3.298 16.03,-8.07 -0.541,-5.625 -9.274,-10.883 -19.58,-10.887 -10.301,0.004 -17.48,5.281 -15.894,10.887 1.365,4.79 10.12,8.068 19.444,8.07" style="fill:#231f20;fill-opacity:1;fill-rule:nonzero;stroke:none" id="path23835" inkscape:connector-curvature="0"/><path d="m 270.79,331.229 c 8.513,0 15.084,-1.717 14.719,-4.204 -0.454,-2.973 -8.339,-5.823 -17.66,-5.83 -9.324,0.007 -15.873,2.879 -14.556,5.83 1.133,2.505 8.985,4.204 17.497,4.204" style="fill:#231f20;fill-opacity:1;fill-rule:nonzero;stroke:none" id="path23837" inkscape:connector-curvature="0"/><path d="m 273.084,337.228 c 7.879,0 14.032,-1.236 13.731,-2.796 -0.336,-1.679 -7.512,-3.201 -16.025,-3.203 -8.512,0.002 -14.561,1.521 -13.574,3.204 0.926,1.552 7.99,2.795 15.868,2.795" style="fill:#231f20;fill-opacity:1;fill-rule:nonzero;stroke:none" id="path23839" inkscape:connector-curvature="0"/><path d="m 274.803,343.443 c 7.402,0.003 13.247,-1.568 13.01,-3.334 -0.236,-1.629 -6.85,-2.881 -14.729,-2.881 -7.878,0 -13.566,1.231 -12.879,2.882 0.74,1.743 7.193,3.336 14.598,3.333" style="fill:#231f20;fill-opacity:1;fill-rule:nonzero;stroke:none" id="path23841" inkscape:connector-curvature="0"/><path d="m 276.061,352.289 c 7.055,-0.003 12.664,-2.269 12.487,-4.83 -0.171,-2.312 -6.343,-4.013 -13.745,-4.016 -7.405,0.003 -12.875,1.692 -12.387,4.016 0.551,2.55 6.588,4.827 13.645,4.83" style="fill:#231f20;fill-opacity:1;fill-rule:nonzero;stroke:none" id="path23843" inkscape:connector-curvature="0"/><path d="m 276.947,364.594 c 6.811,-0.009 12.256,-3.069 12.133,-6.602 -0.123,-3.26 -5.964,-5.701 -13.019,-5.703 -7.057,0.002 -12.396,2.44 -12.047,5.704 0.382,3.529 6.121,6.592 12.933,6.601" style="fill:#231f20;fill-opacity:1;fill-rule:nonzero;stroke:none" id="path23845" inkscape:connector-curvature="0"/><path d="m 277.503,380.523 c 6.658,-0.005 12.01,-3.883 11.936,-8.421 -0.079,-4.258 -5.681,-7.506 -12.492,-7.508 -6.812,0.002 -12.076,3.249 -11.857,7.51 0.241,4.534 5.755,8.414 12.413,8.419" style="fill:#231f20;fill-opacity:1;fill-rule:nonzero;stroke:none" id="path23847" inkscape:connector-curvature="0"/><path d="m 277.742,400.136 c 6.59,0 11.926,-4.718 11.896,-10.275 -0.037,-5.271 -5.477,-9.335 -12.135,-9.338 -6.658,0.003 -11.909,4.067 -11.817,9.34 0.106,5.555 5.462,10.273 12.056,10.273" style="fill:#231f20;fill-opacity:1;fill-rule:nonzero;stroke:none" id="path23849" inkscape:connector-curvature="0"/><path d="m 210.919,221.391 c 12.523,-0.012 21.274,-13.229 19.837,-30.714 -1.554,-18.67 -13.485,-34.627 -26.995,-34.639 -13.51,0.012 -22.804,15.981 -20.244,34.639 2.421,17.496 14.882,30.702 27.402,30.714" style="fill:#231f20;fill-opacity:1;fill-rule:nonzero;stroke:none" id="path23851" inkscape:connector-curvature="0"/><path d="m 219.034,269.995 c 11.401,-0.007 19.172,-9.38 17.572,-22.15 -1.782,-14.062 -13.164,-26.445 -25.687,-26.454 -12.52,0.009 -20.594,12.409 -17.651,26.454 2.691,12.787 14.365,22.143 25.766,22.15" style="fill:#231f20;fill-opacity:1;fill-rule:nonzero;stroke:none" id="path23853" inkscape:connector-curvature="0"/><path d="m 226.985,302.238 c 10.303,-0.003 17.273,-5.909 15.731,-14.225 -1.769,-9.438 -12.281,-18.011 -23.682,-18.018 -11.401,0.007 -18.497,8.603 -15.584,18.018 2.598,8.339 13.234,14.222 23.535,14.225" style="fill:#231f20;fill-opacity:1;fill-rule:nonzero;stroke:none" id="path23855" inkscape:connector-curvature="0"/><path d="m 234.081,321.195 c 9.325,-0.002 15.677,-3.275 14.324,-8.07 -1.602,-5.602 -11.117,-10.883 -21.42,-10.887 -10.301,0.004 -16.686,5.316 -14.053,10.887 2.287,4.825 11.825,8.068 21.149,8.07" style="fill:#231f20;fill-opacity:1;fill-rule:nonzero;stroke:none" id="path23857" inkscape:connector-curvature="0"/><path d="m 239.966,331.229 c 8.511,0 14.451,-1.694 13.327,-4.204 -1.328,-2.946 -9.887,-5.823 -19.212,-5.83 -9.324,0.007 -15.176,2.909 -13.001,5.83 1.905,2.533 10.374,4.204 18.886,4.204" style="fill:#231f20;fill-opacity:1;fill-rule:nonzero;stroke:none" id="path23859" inkscape:connector-curvature="0"/><path d="m 244.554,337.228 c 7.878,0 13.579,-1.238 12.662,-2.796 -0.994,-1.675 -8.739,-3.201 -17.25,-3.203 -8.512,0.002 -13.993,1.526 -12.346,3.204 1.532,1.547 9.057,2.795 16.934,2.795" style="fill:#231f20;fill-opacity:1;fill-rule:nonzero;stroke:none" id="path23861" inkscape:connector-curvature="0"/><path d="m 247.99,343.443 c 7.405,0.005 12.942,-1.585 12.215,-3.334 -0.698,-1.645 -7.773,-2.881 -15.651,-2.881 -7.877,0 -13.124,1.207 -11.954,2.882 1.207,1.716 7.988,3.338 15.39,3.333" style="fill:#231f20;fill-opacity:1;fill-rule:nonzero;stroke:none" id="path23863" inkscape:connector-curvature="0"/><path d="m 250.507,352.289 c 7.056,0 12.45,-2.277 11.909,-4.83 -0.5,-2.321 -7.021,-4.011 -14.426,-4.016 -7.402,0.005 -12.531,1.675 -11.707,4.016 0.911,2.534 7.169,4.83 14.224,4.83" style="fill:#231f20;fill-opacity:1;fill-rule:nonzero;stroke:none" id="path23865" inkscape:connector-curvature="0"/><path d="m 252.279,364.594 c 6.81,-0.009 12.109,-3.072 11.735,-6.602 -0.358,-3.263 -6.451,-5.698 -13.507,-5.703 -7.055,0.005 -12.146,2.432 -11.562,5.704 0.637,3.522 6.523,6.592 13.334,6.601" style="fill:#231f20;fill-opacity:1;fill-rule:nonzero;stroke:none" id="path23867" inkscape:connector-curvature="0"/><path d="m 253.392,380.523 c 6.657,-0.005 11.928,-3.884 11.698,-8.421 -0.231,-4.259 -6.001,-7.508 -12.811,-7.508 -6.811,0 -11.909,3.246 -11.538,7.51 0.397,4.531 5.994,8.414 12.651,8.419" style="fill:#231f20;fill-opacity:1;fill-rule:nonzero;stroke:none" id="path23869" inkscape:connector-curvature="0"/><path d="m 253.867,400.136 c 6.591,-0.006 11.915,-4.718 11.819,-10.275 -0.101,-5.272 -5.637,-9.335 -12.294,-9.338 -6.66,0.003 -11.816,4.067 -11.66,9.34 0.175,5.554 5.543,10.267 12.135,10.273" style="fill:#231f20;fill-opacity:1;fill-rule:nonzero;stroke:none" id="path23871" inkscape:connector-curvature="0"/><path d="m 165.572,221.391 c 12.523,-0.012 20.347,-13.215 17.945,-30.714 -2.579,-18.657 -15.174,-34.624 -28.683,-34.639 -13.51,0.015 -22.14,15.999 -18.557,34.639 3.389,17.516 16.775,30.702 29.295,30.714" style="fill:#231f20;fill-opacity:1;fill-rule:nonzero;stroke:none" id="path23873" inkscape:connector-curvature="0"/><path d="m 177.744,269.995 c 11.401,-0.007 18.198,-9.359 15.524,-22.15 -2.958,-14.041 -15.173,-26.445 -27.696,-26.454 -12.52,0.009 -19.757,12.436 -15.642,26.454 3.773,12.813 16.413,22.143 27.814,22.15" style="fill:#231f20;fill-opacity:1;fill-rule:nonzero;stroke:none" id="path23875" inkscape:connector-curvature="0"/><path d="m 189.672,302.238 c 10.303,-0.003 16.362,-5.883 13.778,-14.225 -2.93,-9.41 -14.305,-18.011 -25.706,-18.018 -11.401,0.007 -17.632,8.639 -13.558,18.018 3.645,8.372 15.181,14.222 25.486,14.225" style="fill:#231f20;fill-opacity:1;fill-rule:nonzero;stroke:none" id="path23877" inkscape:connector-curvature="0"/><path d="m 200.315,321.195 c 9.323,-0.002 14.893,-3.24 12.617,-8.07 -2.645,-5.564 -12.957,-10.883 -23.26,-10.887 -10.305,0.004 -15.872,5.356 -12.213,10.887 3.229,4.86 13.531,8.068 22.856,8.07" style="fill:#231f20;fill-opacity:1;fill-rule:nonzero;stroke:none" id="path23879" inkscape:connector-curvature="0"/><path d="m 209.141,331.229 c 8.511,-0.003 13.836,-1.666 11.939,-4.204 -2.185,-2.913 -11.442,-5.821 -20.765,-5.83 -9.325,0.009 -14.469,2.94 -11.45,5.83 2.691,2.556 11.765,4.201 20.276,4.204" style="fill:#231f20;fill-opacity:1;fill-rule:nonzero;stroke:none" id="path23881" inkscape:connector-curvature="0"/><path d="m 216.024,337.228 c 7.878,0.002 13.122,-1.242 11.596,-2.796 -1.654,-1.672 -9.968,-3.201 -18.479,-3.203 -8.511,0.002 -13.425,1.529 -11.12,3.204 2.139,1.545 10.125,2.795 18.003,2.795" style="fill:#231f20;fill-opacity:1;fill-rule:nonzero;stroke:none" id="path23883" inkscape:connector-curvature="0"/><path d="m 221.177,343.443 c 7.405,0.005 12.619,-1.61 11.42,-3.334 -1.175,-1.668 -8.695,-2.879 -16.573,-2.881 -7.878,0.002 -12.69,1.185 -11.032,2.882 1.667,1.692 8.783,3.338 16.185,3.333" style="fill:#231f20;fill-opacity:1;fill-rule:nonzero;stroke:none" id="path23885" inkscape:connector-curvature="0"/><path d="m 224.954,352.289 c 7.055,0 12.229,-2.293 11.329,-4.83 -0.835,-2.338 -7.701,-4.013 -15.106,-4.016 -7.402,0.003 -12.196,1.653 -11.025,4.016 1.262,2.513 7.745,4.83 14.802,4.83" style="fill:#231f20;fill-opacity:1;fill-rule:nonzero;stroke:none" id="path23887" inkscape:connector-curvature="0"/><path d="m 227.61,364.594 c 6.813,-0.007 11.965,-3.077 11.335,-6.602 -0.591,-3.27 -6.936,-5.698 -13.991,-5.703 -7.057,0.005 -11.898,2.422 -11.077,5.704 0.889,3.513 6.923,6.594 13.733,6.601" style="fill:#231f20;fill-opacity:1;fill-rule:nonzero;stroke:none" id="path23889" inkscape:connector-curvature="0"/><path d="m 229.279,380.523 c 6.658,-0.005 11.848,-3.886 11.462,-8.421 -0.379,-4.261 -6.318,-7.506 -13.131,-7.508 -6.81,0.002 -11.741,3.242 -11.22,7.51 0.558,4.528 6.232,8.414 12.889,8.419" style="fill:#231f20;fill-opacity:1;fill-rule:nonzero;stroke:none" id="path23891" inkscape:connector-curvature="0"/><path d="m 229.994,400.136 c 6.592,-0.006 11.902,-4.719 11.738,-10.275 -0.166,-5.272 -5.795,-9.335 -12.453,-9.338 -6.657,0.003 -11.719,4.066 -11.497,9.34 0.24,5.554 5.621,10.267 12.212,10.273" style="fill:#231f20;fill-opacity:1;fill-rule:nonzero;stroke:none" id="path23893" inkscape:connector-curvature="0"/><path d="m 120.225,221.391 c 12.523,-0.012 19.425,-13.196 16.052,-30.714 -3.605,-18.634 -16.86,-34.624 -30.37,-34.639 -13.509,0.015 -21.471,16.024 -16.87,34.639 4.365,17.542 18.668,30.702 31.188,30.714" style="fill:#231f20;fill-opacity:1;fill-rule:nonzero;stroke:none" id="path23895" inkscape:connector-curvature="0"/><path d="m 136.453,269.995 c 11.401,-0.012 17.234,-9.332 13.477,-22.15 -4.132,-14.012 -17.182,-26.445 -29.705,-26.454 -12.52,0.009 -18.912,12.469 -13.634,26.455 4.862,12.844 18.461,22.137 29.862,22.149" style="fill:#231f20;fill-opacity:1;fill-rule:nonzero;stroke:none" id="path23897" inkscape:connector-curvature="0"/><path d="m 152.358,302.238 c 10.303,-0.006 15.462,-5.847 11.828,-14.225 -4.089,-9.373 -16.332,-18.011 -27.733,-18.018 -11.401,0.007 -16.744,8.675 -11.534,18.018 4.716,8.407 17.135,14.219 27.439,14.225" style="fill:#231f20;fill-opacity:1;fill-rule:nonzero;stroke:none" id="path23899" inkscape:connector-curvature="0"/><path d="m 166.548,321.195 c 9.323,-0.004 14.129,-3.202 10.911,-8.07 -3.67,-5.522 -14.798,-10.883 -25.101,-10.887 -10.304,0.004 -15.045,5.395 -10.371,10.887 4.175,4.897 15.238,8.066 24.561,8.07" style="fill:#231f20;fill-opacity:1;fill-rule:nonzero;stroke:none" id="path23901" inkscape:connector-curvature="0"/><path d="m 178.316,331.229 c 8.512,-0.003 13.234,-1.642 10.549,-4.204 -3.026,-2.883 -12.994,-5.828 -22.317,-5.83 -9.323,0.002 -13.754,2.966 -9.896,5.83 3.479,2.575 13.154,4.201 21.664,4.204" style="fill:#231f20;fill-opacity:1;fill-rule:nonzero;stroke:none" id="path23903" inkscape:connector-curvature="0"/><path d="m 187.493,337.228 c 7.879,0 12.663,-1.244 10.528,-2.796 -2.309,-1.669 -11.193,-3.203 -19.705,-3.203 -8.51,0 -12.854,1.528 -9.895,3.204 2.747,1.544 11.196,2.795 19.072,2.795" style="fill:#231f20;fill-opacity:1;fill-rule:nonzero;stroke:none" id="path23905" inkscape:connector-curvature="0"/><path d="m 194.366,343.443 c 7.403,-0.003 12.283,-1.633 10.626,-3.334 -1.665,-1.69 -9.62,-2.879 -17.499,-2.881 -7.876,0.002 -12.26,1.168 -10.108,2.882 2.12,1.671 9.576,3.33 16.981,3.333" style="fill:#231f20;fill-opacity:1;fill-rule:nonzero;stroke:none" id="path23907" inkscape:connector-curvature="0"/><path d="m 199.4,352.289 c 7.056,-0.003 12.003,-2.312 10.752,-4.83 -1.179,-2.358 -8.383,-4.019 -15.786,-4.016 -7.405,-0.003 -11.868,1.632 -10.345,4.016 1.599,2.494 8.323,4.827 15.379,4.83" style="fill:#231f20;fill-opacity:1;fill-rule:nonzero;stroke:none" id="path23909" inkscape:connector-curvature="0"/><path d="m 202.942,364.594 c 6.813,-0.003 11.814,-3.086 10.935,-6.602 -0.831,-3.279 -7.421,-5.701 -14.477,-5.703 -7.056,0.002 -11.651,2.41 -10.591,5.704 1.136,3.503 7.323,6.598 14.133,6.601" style="fill:#231f20;fill-opacity:1;fill-rule:nonzero;stroke:none" id="path23911" inkscape:connector-curvature="0"/><path d="m 205.168,380.523 c 6.658,0 11.767,-3.89 11.222,-8.421 -0.532,-4.264 -6.635,-7.503 -13.448,-7.508 -6.81,0.005 -11.567,3.237 -10.901,7.51 0.719,4.522 6.47,8.419 13.127,8.419" style="fill:#231f20;fill-opacity:1;fill-rule:nonzero;stroke:none" id="path23913" inkscape:connector-curvature="0"/><path d="m 206.12,400.136 c 6.593,0 11.889,-4.719 11.659,-10.275 -0.23,-5.273 -5.953,-9.335 -12.611,-9.338 -6.657,0.003 -11.626,4.064 -11.34,9.34 0.308,5.552 5.701,10.273 12.292,10.273" style="fill:#231f20;fill-opacity:1;fill-rule:nonzero;stroke:none" id="path23915" inkscape:connector-curvature="0"/><path d="m 74.878,221.391 c 12.523,-0.012 18.504,-13.167 14.159,-30.714 -4.622,-18.61 -18.547,-34.627 -32.058,-34.639 -13.508,0.012 -20.806,16.055 -15.182,34.639 5.338,17.572 20.561,30.702 33.081,30.714" style="fill:#231f20;fill-opacity:1;fill-rule:nonzero;stroke:none" id="path23917" inkscape:connector-curvature="0"/><path d="m 95.163,269.995 c 11.402,-0.011 16.275,-9.299 11.428,-22.149 -5.3,-13.978 -19.19,-26.446 -31.713,-26.455 -12.52,0.009 -18.067,12.509 -11.627,26.455 5.96,12.88 20.511,22.138 31.912,22.149" style="fill:#231f20;fill-opacity:1;fill-rule:nonzero;stroke:none" id="path23919" inkscape:connector-curvature="0"/><path d="m 115.042,302.238 c 10.306,-0.006 14.58,-5.812 9.877,-14.225 -5.224,-9.335 -18.354,-18.011 -29.756,-18.018 -11.401,0.007 -15.855,8.716 -9.508,18.018 5.783,8.444 19.085,14.219 29.387,14.225" style="fill:#231f20;fill-opacity:1;fill-rule:nonzero;stroke:none" id="path23921" inkscape:connector-curvature="0"/><path d="m 132.78,321.195 c 9.325,-0.004 13.377,-3.169 9.207,-8.07 -4.681,-5.485 -16.639,-10.881 -26.945,-10.887 -10.302,0.006 -14.204,5.426 -8.527,10.887 5.139,4.922 16.942,8.066 26.265,8.07" style="fill:#231f20;fill-opacity:1;fill-rule:nonzero;stroke:none" id="path23923" inkscape:connector-curvature="0"/><path d="m 147.493,331.229 c 8.51,-0.003 12.634,-1.623 9.159,-4.204 -3.863,-2.858 -14.547,-5.828 -23.872,-5.83 -9.323,0.002 -13.032,2.982 -8.343,5.83 4.272,2.588 14.544,4.201 23.056,4.204" style="fill:#231f20;fill-opacity:1;fill-rule:nonzero;stroke:none" id="path23925" inkscape:connector-curvature="0"/><path d="m 158.964,337.228 c 7.879,0 12.2,-1.24 9.457,-2.796 -2.964,-1.663 -12.418,-3.201 -20.928,-3.203 -8.512,0.002 -12.286,1.528 -8.669,3.204 3.354,1.543 12.262,2.795 20.14,2.795" style="fill:#231f20;fill-opacity:1;fill-rule:nonzero;stroke:none" id="path23927" inkscape:connector-curvature="0"/><path d="m 167.554,343.443 c 7.404,0 11.947,-1.656 9.831,-3.334 -2.16,-1.706 -10.542,-2.881 -18.421,-2.881 -7.878,0 -11.838,1.158 -9.185,2.882 2.567,1.659 10.37,3.333 17.775,3.333" style="fill:#231f20;fill-opacity:1;fill-rule:nonzero;stroke:none" id="path23929" inkscape:connector-curvature="0"/><path d="m 173.845,352.289 c 7.058,0 11.771,-2.333 10.176,-4.83 -1.525,-2.382 -9.063,-4.016 -16.467,-4.016 -7.405,0 -11.546,1.611 -9.666,4.016 1.938,2.476 8.901,4.83 15.957,4.83" style="fill:#231f20;fill-opacity:1;fill-rule:nonzero;stroke:none" id="path23931" inkscape:connector-curvature="0"/><path d="m 178.276,364.594 c 6.81,-0.007 11.665,-3.097 10.533,-6.602 -1.068,-3.291 -7.906,-5.698 -14.964,-5.703 -7.056,0.005 -11.407,2.398 -10.103,5.704 1.383,3.489 7.721,6.594 14.534,6.601" style="fill:#231f20;fill-opacity:1;fill-rule:nonzero;stroke:none" id="path23933" inkscape:connector-curvature="0"/><path d="m 181.056,380.523 c 6.657,-0.002 11.691,-3.894 10.985,-8.421 -0.674,-4.269 -6.955,-7.503 -13.765,-7.508 -6.813,0.005 -11.401,3.231 -10.585,7.51 0.876,4.517 6.707,8.417 13.365,8.419" style="fill:#231f20;fill-opacity:1;fill-rule:nonzero;stroke:none" id="path23935" inkscape:connector-curvature="0"/><path d="m 182.248,400.136 c 6.591,0 11.881,-4.721 11.58,-10.275 -0.293,-5.276 -6.115,-9.335 -12.772,-9.338 -6.658,0.003 -11.535,4.062 -11.182,9.34 0.375,5.551 5.782,10.273 12.374,10.273" style="fill:#231f20;fill-opacity:1;fill-rule:nonzero;stroke:none" id="path23937" inkscape:connector-curvature="0"/></g></g></g></svg>