<?xml version="1.0" encoding="UTF-8"?>
<!-- Generator: Adobe Illustrator 24.2.3, SVG Export Plug-In . SVG Version: 6.00 Build 0)  -->
<svg version="1.1" id="svg1545" xmlns:cc="http://creativecommons.org/ns#" xmlns:dc="http://purl.org/dc/elements/1.1/" xmlns:inkscape="http://www.inkscape.org/namespaces/inkscape" xmlns:rdf="http://www.w3.org/1999/02/22-rdf-syntax-ns#" xmlns:sodipodi="http://sodipodi.sourceforge.net/DTD/sodipodi-0.dtd" xmlns:svg="http://www.w3.org/2000/svg" xmlns="http://www.w3.org/2000/svg" xmlns:xlink="http://www.w3.org/1999/xlink" x="0px" y="0px" viewBox="0 0 647.6 403.3" style="enable-background:new 0 0 647.6 403.3;" xml:space="preserve">
<style type="text/css">
	.st0{fill:#231F20;}
</style>
<sodipodi:namedview bordercolor="#666666" borderopacity="1.0" id="base" inkscape:current-layer="layer1" inkscape:cx="427.31329" inkscape:cy="292.74019" inkscape:document-rotation="0" inkscape:document-units="mm" inkscape:pageopacity="0.0" inkscape:pageshadow="2" inkscape:window-height="1001" inkscape:window-maximized="1" inkscape:window-width="1920" inkscape:window-x="-9" inkscape:window-y="-9" inkscape:zoom="0.98994949" pagecolor="#ffffff" showgrid="false">
	</sodipodi:namedview>
<g id="layer1" transform="translate(4.5188752,-126.93017)" inkscape:groupmode="layer" inkscape:label="Layer 1">
	<g id="g2185">
		<path id="path2122" class="st0" d="M295.3,529.2c-9.4-2.9-17.8-12.7-23.4-27c-3.4-8.7-8.5-36.3-10.7-57c-2.5-23.9-5-34.2-8.7-34.7    c-1.9-0.3-6.3,4.8-8.8,10.1c-2.4,5.3-2.2,20,0.5,33.9c3.3,16.8,2.5,27.3-2.9,36.7c-4.8,8.5-15.7,17-27,21.1    c-5.8,2.1-14.6,2.3-18.7,0.4c-3.7-1.8-8.3-7.2-9.8-11.5c-2.9-8.4-2.9-22.4,0-41c0.6-3.7,1.5-12.2,2-18.8    c1.7-23.2-1.4-40.9-8.6-47.5c-6.2-5.8-16.8-0.5-27.9,13.9c-9.9,12.8-14.8,20.5-22.3,34.7c-7.6,14.5-17.8,26.5-30.9,36.3    c-8.5,6.4-12.6,7.9-21.5,7.9c-8.5,0-15.2-1.9-23.5-6.9c-6.1-3.6-15.7-12.9-18.8-18.1c-9.1-15.7-7.2-30.3,5.4-40.3    c2.4-1.9,11.6-8.4,20.5-14.6c28.7-19.8,36.6-26.5,39.9-33.8c1.5-3.3,1.5-3.6,0.3-6.8c-2.1-5.4-6.4-7.9-23.6-13.8    c-24.3-8.2-44.4-18.3-59.4-29.8C7,314.9-1.7,302.3-3.9,292c-1.8-8.7,0.4-18.3,6.3-27.4c9.1-13.9,20.3-20.8,33.4-20.8    c15.9,0,31.8,11.1,49.1,34.3c8.7,11.6,11.3,13.3,20.2,13.3c4.6,0,6.3-0.3,9.4-2c8.7-4.6,10.6-11.6,5.7-20.5    c-9.5-17-12.2-23.4-16.4-38.2c-1.7-6.1-1.9-8.2-2-21c-0.1-13.8,0-14.4,2-19.8c5.3-14.1,15.2-25.6,25.4-29.5    c16.2-6.1,28.5,5,46.2,41.7c6,12.6,9.9,22.3,17.4,43.9c2.8,8,5.8,16.1,6.7,18c4.9,10.6,14.7,20.4,24.1,23.9    c7.9,3,13.5,1.5,16.6-4.6c1.4-2.8,1.6-4,1.2-10.3c-0.2-3.9-1.1-9.9-1.9-13.2c-3.1-12-6-32.1-6.9-47.7c-0.7-13.3-0.7-16.3,0.4-23    c3.2-19.9,10.3-32,22-37.5c6.1-2.8,14.5-4.7,21.1-4.7c16.4,0,28.9,12.7,34.2,34.7c3.6,15.1,4.3,21.1,4.7,41.5    c0.2,12.1,0.8,22.2,1.5,26.6c3.8,23.8,17.9,45.1,28.6,43.1c7.6-1.4,14.6-14.3,15.7-28.9c0.7-10-0.5-17.5-6.8-40.9    c-7.7-28.7-6.6-47,4-67.4c7.6-14.6,16.1-23,26.8-26.8c6.3-2.2,18-2.8,24.2-1.2c18.8,4.8,30.1,20.2,30.1,41c0,2.7-0.3,6.1-0.7,7.5    c-0.4,1.4-1.7,8.5-3.1,15.8c-1.3,7.2-3.4,17.2-4.6,22.1c-6.5,27.5-10.2,51.3-9.5,61.1c0.6,8.5,4.6,13.8,12.1,15.9    c12,3.4,21.7-3.6,26.6-19.1c3-9.3,4.5-21.9,5.3-42.7c1.1-28.5,4.5-39.3,18.4-57.9c16.1-21.6,42.4-30.1,59-19.1    c6.7,4.5,13.8,16.3,16.1,27c0.9,4.2,1.1,7.7,0.7,14.2c-0.9,16.9-4.4,26.9-21.4,60.7c-12.5,24.8-14,29.4-13.2,38.4    c0.9,9.3,5,16,10.3,16.8c4.1,0.6,10-2.9,14.7-8.7c4.3-5.3,4.3-5.4,10.4-21c8.9-22.7,16.8-33,30.9-40.1c10.1-5.1,21.6-6.3,29.9-3.3    c8.6,3.1,17.5,15.3,20.8,28.1c2.9,11.6,0.6,27.5-5.6,37.8c-4,6.8-6.7,9.8-12.3,13.8c-4.9,3.5-7.8,4.8-24.1,10.9    c-12.4,4.7-24.1,10.3-29.1,14.1c-8.2,6.2-9.3,13.8-3.6,23.1c3.1,4.9,12.6,14.3,22.4,22.2c17.1,13.7,24.7,22,30.4,33.2    c3.5,7,4.6,12,4.6,22.1c0,8.3-0.2,10.1-2.1,15.8c-2.6,8-4.3,11.3-8.3,16.5c-7,9.1-14.5,14.2-23,15.8c-5.6,1.1-14.1-0.2-19.8-3    c-15.5-7.6-30.4-33.2-38.2-66c-1.5-6.4-4.1-12.6-6.4-15.6c-3.5-4.4-8.2-5.2-11.4-1.8c-5.7,6-5.7,18.9,0,42.2    c4.5,18.4,1.1,45.3-7.4,58.7c-4.5,7.1-11.3,11.8-17.2,11.8c-4.2,0-9.6-2.3-14-6c-7.9-6.7-13.1-17.6-18.9-40.1    c-4.5-17.1-12.2-40-16.5-48.7c-4-8.2-8.7-13.5-12.4-14.3c-3.1-0.6-7.9,3-11,8.5l-2.4,4.2l0.9,6.1c0.5,3.3,2.4,12,4.2,19.2    c6.7,26.6,7,36.7,1.5,53.2c-3.2,9.5-14.2,23.2-21.5,26.9c-5.4,2.7-12.9,1.9-17-2c-2.4-2.2-6.2-9.2-9.2-16.7    c-3.1-7.9-5.6-21.8-8.8-48.7c-1.2-10.3-3-16.9-6.2-23.7c-3.1-6.5-6.9-10.1-11.3-10.6c-4.3-0.5-7.3,0.7-9.7,3.8    c-3.4,4.5-3.7,6.8-3.2,25.1c0.9,28.9-1.7,47.3-8.6,62c-3.5,7.5-7.1,11.6-12.2,14.2c-3.2,1.6-4.9,1.9-9.9,1.9    C301.1,530.2,297,529.8,295.3,529.2L295.3,529.2z"/>
	</g>
</g>
</svg>