<?xml version="1.0" encoding="UTF-8"?>
<!DOCTYPE svg PUBLIC "-//W3C//DTD SVG 1.1//EN" "http://www.w3.org/Graphics/SVG/1.1/DTD/svg11.dtd">
<svg version="1.1" id="Layer_1" xmlns="http://www.w3.org/2000/svg" xmlns:xlink="http://www.w3.org/1999/xlink" x="0px" y="0px" viewBox="0 0 2151.4758 1638.0796" enable-background="new 0 0 2151.4758 1638.0796" xml:space="preserve">
<path d="M1991.3591,995.0066l63.6277,8.8588l-41.0074-22.6933l112.4894,8.9864l-70.6658-33.8589l46.3105,12.5628l-86.3145-63.1986  l88.7588-4.0222l-143.7926-47.9421l52.3351,1.5781l-81.5491-34.2144l34.8853-2.498l-75.4246-22.97l38.0917-4.9927l-65.6576-15.8434  l0.1392-0.0756l-0.2931,0.0385l-14.5834-3.519l31.4841-9.5987l-16.642-1.1867l113.6685-41.8027l-66.9871-0.9846l109.1587-25.4886  l-80.4442-11.1489l158.6733-90.839l-179.792,27.6955l18.7509-12.2966l-79.9626,17.322l127.7966-60.624l-149.7474,11.3781  l111.88-76.772l-79.2048,18.9048l63.2944-64.751l-146.3737,67.0712l69.4636-82.0855l-8.1002,4.4397l15.2834-18.6317  l-21.1042,11.9911l6.3103-6.4236l-64.4264,29.3288l8.056-10.6256l-42.234,26.1845l-32.517,14.8026l157.1122-180.4231  l-69.5083,36.8293l18.8373-29.5605l-17.9963,13.2968l61.923-106.0992l-177.8894,142.5017l32.4353-63.9646l-8.3422,7.5319  l23.5864-48.0557l-53.2418,49.3437l53.9878-100.665l-109.2162,94.144l57.5548-129.8369l-83.3461,83.519l12.5714-36.1593  l-51.7845,61.2691l4.047-13.1567l-53.252,67.8388l57.6265-203.5283l-46.4165,61.9506l10.9657-44.8799  c0,0-40.1334,57.8222-78.5568,113.1802l11.4391-53.5137l-31.9973,49.0847l6.4993-32.9453l-60.3064,95.7899l6.5129-113.5722  l-35.97,79.6065l11.2155-189.9232l-30.6122,67.443l0.7498-8.3107l-21.9404,44.6121l3.5289-46.7952l-31.4059,66.3016l0.822-14.1555  l-6.2823,13.8768l-0.657-21.0874c0,0-8.4313,24.1445-11.4452,32.7757l-0.3976-8.0829l-9.911,30.1137l1.1345-32.1053l-7.0807,16.6345  l2.2087-94.1882l-1.1165,2.7117l1.0603-41.5421l-54.5754,131.7852l-5.1882-204.5239l-92.2255,259.2787l-0.207,1.0713  l-31.0598-273.4376l-28.6444,110.3373l-4.7965-22.439l-10.4707,66.3526l-4.891,21.194l-7.3068-28.0864L999.5279,283.543  l-2.2322,9.6724l-16.2703-86.1329l-5.9053,32.3772l-16.717-79.4764l-6.4968,40.312l-4.3713-13.7646l-2.256-10.1594l-0.3108,2.0766  l-20.7624-65.379l-2.7499,46.0758L889.2613,30.9059l-25.854,212.3851l-34.4632-85.5076l1.0299,64.2842l-8.2316-24.436  l-1.5469,36.6533l-31.9349-72.6995c0,0,2.0439,43.6478,3.304,70.5576l-2.8527-5.8866l4.0244,47.7103l-71.8525-173.2207  l3.5347,135.4125l-2.642-5.6974l1.0541,15.6857l-3.7427-6.6151l2.5171,16.9094l-53.2206-113.0265l5.0411,68.9653l-23.629-41.4731  c0,0,5.3041,34.9135,7.4483,49.027l-59.8888-110.185l22.7632,173.0956l-35.4732-58.414l23.3495,129.3103l-26.4581-39.4236  l9.376,41.1595l-26.561-33.4351l24.3868,77.6748l-132.4348-165.116l18.2726,57.2608l-43.456-53.3153l7.0123,21.3922  l-25.1554-28.9966l32.1016,88.6365l-34.327-37.107l27.5764,69.1639l-34.4211-34.7882l45.7639,104.4387l-105.771-92.3848  l65.7842,124.6072l-38.2862-25.8993l-9.0869-7.0349l0.9121,1.5049l-137.2751-92.8619l107.942,154.7923l-36.6987-23.8577  l59.2918,81.7924l-14.571-7.9192l5.4697,6.4171l-91.4132-53.7829l27.3743,34.4191l-177.7718-66.9834l205.7804,183.2132  l-107.0641-24.2336l51.6989,34.5929l-60.7399-18.8062l40.5617,31.9615l-91.4261-29.8324l86.1448,70.0208l-176.3834,0.8978  l97.1657,36.7972L25.0071,749.6481l188.7926,54.4277L54.2269,791.7081c0,0,53.3919,25.4271,90.6213,43.157l-6.4539,1.3432  l14.1158,2.3057c29.5101,14.0537,34.4328,16.3982,68.587,32.6636l-13.0973,3.7791l25.6948,2.2202  c5.0491,2.4046,5.3829,2.5636,10.3121,4.911l-85.6266,12.6641l63.1692,14.1439l-41.0872,15.7176l67.8124,0.1179l23.1204,3.1486  l-68.3701,32.794l41.8494-3.3607c5.087,0.0098,21.8286,0.0419,37.6118,0.0722l-44.5453,19.0669l49.2978-1.8412l-70.0387,26.2109  l128.4424,1.1567l-118.9421,67.1263l62.5603-9.2438l-120.6786,105.6141l244.2523-89.6631l21.9932-16.2377l0.7702-0.204  l-99.2701,117.4275l78.9742-43.3376l-47.7664,51.5603l73.9357-36.3068l-10.325,13.7089l46.4433-28.9995l2.9901,2.7051  l-16.0703,26.1847l15.2775-11.6924l-84.7395,137.6517l15.3588-11.7213l-10.735,16.8325l25.7909-19.0414l-19.5338,33.5167  l52.9805-42.4945l-83.4995,163.2477l123.795-110.9857l-48.1047,108.3542l117.7664-117.8782l-25.8073,67.1042l48.0145-53.1954  l-6.2015,17.1786l21.1192-24.3951l-2.9223,10.0084l36.4841-47.8735l-12.2604,49.4691l19.9855-28.5918l-40.9961,138.3544  l30.852-40.1508l-37.7538,143.2891l101.7615-141.1249l-36.5462,184.7086l133.6406-212.0081l-3.899,49.1764l49.8998-104.3037  l-23.2961,256.0518l68.1497-138.3025l0.8694,20.2452l23.2553-69.2037l2.4475-4.967l0.0073,0.1732l0.1995-0.5928l6.2116-12.6058  l-0.4005,12.1509l11.6071-27.4497l-1.6482,84.8093l22.5657-55.4423l1.5176,18.1183l5.3768-18.4521l0.2587,29.5781l11.2981-30.1661  l1.1768,104.0865l24.6962-66.4559l2.3754,74.1899l20.5391-58.9813l2.7465,54.6722l35.6707-108.7633l11.406,62.4668l9.5099,102.4706  l5.5822-19.8176l0.103,0.5636l0.5309-2.8138l21.3849-75.9194l11.0328,87.5446l32.2593-130.8357l1.9692,7.5203l11.6488,69.075  l10.7783-53.1605l4.5066,23.994l21.8633-119.1725l1.1399-0.1021l0.0558,0.1746l8.8093,33.092l0.4447-4.1427l41.5916,130.1115  c0,0,3.761-65.0975,7.4742-129.3719l0.8157-7.3585l37.8041,135.0769l0.1698-1.7963l0.9537,3.4421l4.3732-45.0508l23.0768,78.8229  l11.3671-137.808l87.2582,233.5939l1.5769-164.1027l12.0232,25.47c0,0-5.4435-73.4938-10.8589-146.6102l0.1942-20.2177  l109.3424,221.2064l-4.4008-47.7135l33.2775,63.1122l-19.23-162.0397l60.053,98.6383c0,0-16.4835-90.6995-32.9506-181.3091  l16.2426,24.3778l-9.189-40.9708l24.0468,32.0991l-12.2117-43.1417l19.047,24.9938l-7.3478-25.166l77.6893,102.0341  l-11.0549-37.9222l104.0669,122.6277l-76.3456-218.1833l56.4597,57.4258l-31.4291-72.3492l13.2544,11.4028l15.4163,14.7874  l-1.2018-2.5587l115.3872,99.2689l-80.8632-150.4265l202.6229,133.8116l-182.8976-256.1696l61.8665,31.1075l-37.2444-40.9708  l17.572,5.885l143.7677,88.735l-41.4747-54.4771l139.0007,46.5515l-143.2501-118.2937l166.0526,33.8018L1991.3591,995.0066z"/>
</svg>