<?xml version="1.0" encoding="UTF-8"?>
<svg xmlns:rdf="http://www.w3.org/1999/02/22-rdf-syntax-ns#" xmlns="http://www.w3.org/2000/svg" xmlns:cc="http://creativecommons.org/ns#" xmlns:dc="http://purl.org/dc/elements/1.1/" xmlns:svg="http://www.w3.org/2000/svg" xmlns:inkscape="http://www.inkscape.org/namespaces/inkscape" xmlns:sodipodi="http://sodipodi.sourceforge.net/DTD/sodipodi-0.dtd" xmlns:ns1="http://sozi.baierouge.fr" xmlns:xlink="http://www.w3.org/1999/xlink" id="svg3151" viewBox="0 0 307.16 308.43" version="1.1">
  <g id="layer1" transform="translate(-11.21 -8.8207)">
    <path id="path3592" d="m84.744 316.95c-0.0144-0.16871-0.096-0.95092-0.18152-1.7382-0.21084-1.9421 0.11557-2.863 1.0148-2.863 0.59136 0 0.81159 0.43292 1.0307 2.0261 0.15327 1.1144 0.15968 2.2187 0.0142 2.454-0.30138 0.48765-1.8386 0.58676-1.8782 0.1211z"/>
    <path id="path3590" d="m98.267 314.47c0-0.18287 0.55327-0.86255 1.2295-1.5104 0.76928-0.73702 1.1473-1.437 1.0098-1.87-0.12081-0.38063 0.009-1.1935 0.28806-1.8064 0.43481-0.9543 0.40726-1.1877-0.19186-1.6258-1.0051-0.73497-0.85522-2.1454 0.50122-4.7158 3.347-6.3426 4.3388-8.5975 4.7668-10.838 0.25779-1.3497 1.3355-4.8466 2.395-7.7709 3.2467-8.9614 3.9809-12.948 3.8924-21.138-0.0526-4.8697 0.0373-5.6424 0.84819-7.2878 0.49886-1.0123 1.1452-1.9796 1.4364-2.1497 0.29116-0.17005 0.65776-0.90625 0.81467-1.636 0.1569-0.72974 0.81545-2.0532 1.4634-2.9411 0.648-0.88787 1.1782-1.7348 1.1782-1.8821 0-0.14728 0.82822-1.5288 1.8405-3.07s1.8405-3.0064 1.8405-3.2561c0-0.54679 1.9053-2.3752 3.1307-3.0045 0.4847-0.24887 1.589-0.42557 2.454-0.39266 2.2408 0.0853 8.493-1.7394 11.824-3.4506 1.5603-0.80166 3.8492-1.6934 5.0864-1.9817 2.6736-0.62294 7.7779-3.4032 11.397-6.2077 2.3665-1.834 2.6901-1.971 3.5575-1.5068 1.2521 0.67011 1.3978 2.4916 0.53857 6.7346-0.36442 1.7996-0.58176 3.413-0.48299 3.5854 0.27533 0.48048 0.94107-0.0777 0.94107-0.789 0-1.1148 2.9081-6.2084 3.925-6.8747 1.1542-0.75624 1.2808-1.7694 0.26718-2.1383-1.1271-0.4102-4.5581-4.2791-5.0962-5.7466-0.26805-0.73108-0.75941-1.3292-1.0919-1.3292-0.62466 0-2.9088 0.67118-4.3436 1.2764-2.4027 1.0134-8.4473 1.5689-9.4076 0.86462-0.22533-0.16527-1.0075-0.99707-1.7382-1.8485-1.4717-1.7148-1.7468-3.7813-0.8379-6.2947 0.46075-1.2742 0.41094-1.439-0.818-2.707-1.4046-1.4492-1.8168-3.5607-0.69513-3.5607 0.33817 0 0.61349 0.36239 0.61349 0.8075 0 0.47604 0.48343 1.0575 1.1778 1.4165 0.64778 0.33497 1.551 1.2416 2.0071 2.0147l0.82933 1.4056-0.98461 0.85611c-1.6042 1.3948-1.3627 3.4915 0.61937 5.377 1.5362 1.4613 1.6818 1.5113 3.4434 1.1822 1.0117-0.189 2.5417-0.72008 3.4002-1.1802 0.85843-0.46009 1.7476-0.836 1.9758-0.83536 0.45417 0.001 4.4868-1.5944 7.8904-3.1223 1.1871-0.53289 2.3704-0.96888 2.6294-0.96888 0.97417 0 3.4518-1.0366 5.1018-2.1344 0.94033-0.62567 1.8235-1.1376 1.9626-1.1376 0.13911 0 1.3756-0.7457 2.7477-1.6571 1.4246-0.94625 2.6482-1.5036 2.8525-1.2994 0.48381 0.4838-0.70299 3.2288-2.1624 5.0015-2.5222 3.0637-4.2386 4.6753-6.9057 6.4842-0.78732 0.53398-2.237 1.6255-3.2215 2.4256-1.6634 1.3519-1.7375 1.4932-1.0466 1.9984 1.4208 1.0389 3.5583 0.65937 6.0274-1.0702 1.2671-0.88764 2.9445-2.1968 3.7275-2.9094 0.78299-0.7125 2.3074-1.7081 3.3876-2.2124 1.9901-0.9291 8.7084-5.2868 9.1082-5.9079 0.11974-0.186 1.2796-1.0795 2.5776-1.9855 1.2979-0.90601 3.5531-2.7079 5.0116-4.0043 3.8409-3.414 4.6601-5.4688 5.7383-14.393 0.27416-2.2693 0.19213-2.4-1.0797-1.7193-1.0478 0.56078-1.8098 0.11236-1.1532-0.67871 0.54824-0.66059 0.28451-1.0838-0.7625-1.2237-0.38908-0.052-1.1215-0.22306-1.6277-0.3802-0.81966-0.25446-0.92024-0.14526-0.92024 0.99912 0 0.99414-0.23133 1.3728-1.0225 1.6736-0.56237 0.21381-1.0225 0.59705-1.0225 0.85163 0 0.25871 0.29234 0.35069 0.66278 0.20854 0.52723-0.20232 0.61202-0.0649 0.41458 0.67199-0.13651 0.50947-0.25072 1.0752-0.25379 1.2572-0.003 0.18198-0.17332 0.22721-0.37833 0.10051-0.20502-0.12671-0.49083 0.46849-0.63514 1.3227-0.33513 1.9836-2.3511 4.2012-5.0733 5.5806-1.4905 0.75529-2.2995 0.95387-2.8114 0.69009-0.39533-0.20369-1.2156-0.56601-1.8229-0.80517-1.3195-0.51967-2.0719-2.7876-1.8827-5.6754 0.1436-2.1919 0.86109-2.6984 1.4898-1.0516 0.83751 2.1936 1.4621 2.6394 3.3876 2.4182 1.4791-0.16992 2.0504-0.5232 3.5098-2.1704 3.2637-3.6835 3.6986-4.747 3.8144-9.3294 0.18304-7.2388 0.005-9.6114-0.72115-9.6114-0.29191 0-1.5268-0.56211-2.7441-1.2491-1.6981-0.95836-2.3869-1.1545-2.959-0.8427-0.41012 0.22355-1.2074 0.50196-1.7718 0.6187-0.56439 0.11673-1.9178 1.0789-3.0076 2.1382-1.7658 1.7162-1.9575 2.0735-1.7615 3.2814 0.12099 0.74555 0.04 1.4668-0.18001 1.6027-0.67359 0.4163-1.5911-0.67598-1.5911-1.8942 0-0.63402-0.18405-1.2665-0.409-1.4055-0.22495-0.13903-0.40899 0.12969-0.40899 0.59715 0 0.69708-0.1797 0.80482-0.99925 0.59912-1.6873-0.42348-1.962 0.20536-0.59291 1.3574 1.1934 1.0041 1.2273 1.106 0.53688 1.6109-0.88067 0.64397-3.1852 0.70606-4.2886 0.11556-0.43511-0.23286-0.79111-0.78501-0.79111-1.227 0-0.52614-0.27746-0.8036-0.8036-0.8036-0.9397 0-1.756-1.2938-1.4007-2.2199 0.17631-0.45943 0.00066-0.64312-0.61496-0.64312-0.47396 0-0.86175-0.18405-0.86175-0.409s0.18405-0.40899 0.409-0.40899 0.409-0.27608 0.409-0.6135c0-0.38173-0.38628-0.61349-1.0225-0.61349-0.56237 0-1.0225-0.13982-1.0225-0.31071 0-0.17088-0.58069-0.30892-1.2904-0.30674-1.0987 0.003-1.3135-0.16316-1.4455-1.1208-0.0853-0.61861 0.0353-1.1247 0.26793-1.1247 0.23265 0 0.42384-0.32209 0.42488-0.71575 0.003-1.2188 2.3512-3.3742 3.6757-3.3742 0.65017 0 1.3047-0.19827 1.4544-0.44061 0.18856-0.30511-0.30565-0.35393-1.6071-0.15876-1.5902 0.23847-1.923 0.16843-2.1622-0.45511-0.16607-0.43277-0.0836-0.80335 0.19978-0.89781 0.26542-0.0885 0.48258-0.47681 0.48258-0.86297s0.22793-0.93004 0.5065-1.2086c0.27858-0.27857 0.50864-0.82119 0.51125-1.2058 0.006-0.82088 2.1749-1.6722 4.2992-1.6872 1.3458-0.009 1.384 0.0258 0.63757 0.59041-0.43665 0.33027-1.2649 0.6033-1.8405 0.60675-0.57562 0.003-1.3226 0.19509-1.6601 0.42587-0.43575 0.29804-0.021 0.34052 1.4315 0.14664 1.1247-0.15013 2.2777-0.45856 2.5622-0.6854 0.28448-0.22685 1.8029-0.50443 3.3742-0.61686 2.7313-0.19542 3.4092-0.52293 2.3884-1.1538-0.29157-0.1802 0.0513-0.55839 0.90761-1.0012 1.6522-0.85436 3.9242-0.68795 6.1566 0.45091 1.8491 0.94335 2.4023 0.99127 2.4023 0.20809 0-0.63927-2.1621-1.8704-3.2847-1.8704-0.38779 0-0.93589-0.27812-1.218-0.61803-0.45726-0.55097-0.56264-0.55003-0.97115 0.009-0.38284 0.52355-0.82062 0.55795-2.6605 0.20903-3.4546-0.65515-3.8581-0.5885-3.5627 0.58849 0.18687 0.74456 0.0459 1.1167-0.54227 1.4315-1.2276 0.657-2.2352 0.51557-4.4265-0.62131-1.501-0.77877-2.3182-0.97118-3.1926-0.75173-1.048 0.26304-1.0883 0.3289-0.37206 0.60893 0.4417 0.17269 1.3246 0.32693 1.9619 0.34273 0.74098 0.0184 1.0946 0.2131 0.98076 0.54-0.33159 0.95205-6.4772 0.1598-7.9728-1.0278-0.35265-0.28002-0.38619-0.56673-0.1058-0.90457 0.68408-0.82427 0.0167-1.0328-3.3049-1.0328-1.7475 0-3.6658-0.18575-4.2629-0.41279-0.79993-0.30413-1.5643-0.2503-2.9039 0.2045-2.7039 0.91799-3.1599 0.83607-2.8246-0.50745 0.34628-1.3875 0.9094-2.0321 4.4502-5.094 2.6261-2.2709 2.8478-2.3811 3.5369-1.7575 1.0201 0.92321 4.233 0.70096 4.424-0.30604 0.079-0.41652-0.11358-0.71574-0.46068-0.71574-0.60632 0-2.1746-1.996-2.0085-2.5562 0.05-0.16871-0.19159-0.30675-0.53693-0.30675-0.34533 0-1.0837-0.29865-1.6408-0.66366-0.64257-0.42103-1.4444-0.57737-2.1931-0.42762-0.89074 0.17815-1.4665-0.0128-2.347-0.77839-0.64168-0.55794-1.5648-1.1177-2.0515-1.2438-0.51196-0.13272-1.0045-0.68838-1.1688-1.3187-0.27091-1.0391-0.29922-1.0496-0.61428-0.22711-0.18214 0.47547-0.85031 0.98072-1.4897 1.1265-1.1386 0.25951-3.3184 2.5327-2.8642 2.9869 0.12733 0.12734 0.81621 0.0277 1.5308-0.22143 1.2226-0.42619 1.3951-0.35713 2.9217 1.1694l1.6223 1.6223 1.4959-0.67682c1.9869-0.89893 5.9567-1.2329 5.7057-0.47998-0.099 0.29689-0.86758 0.68267-1.708 0.85729-2.1702 0.4509-3.1152 1.0458-3.1152 1.9611 0 0.4368-0.43295 1.0779-0.96212 1.4246-0.52916 0.34672-1.3114 1.2878-1.7382 2.0912-0.42687 0.80344-1.2362 1.7053-1.7986 2.0042-0.56237 0.2989-2.0048 1.3876-3.2055 2.4192-2.1035 1.8075-3.1588 2.1274-2.6508 0.80355 0.19079-0.4972-0.0104-0.60407-0.93811-0.49815-0.73231 0.0836-1.1367 0.34544-1.0644 0.68914 0.0641 0.30487-0.10154 0.81713-0.36814 1.1384-0.4133 0.49799-0.62168 0.45542-1.414-0.28889l-0.92922-0.87296-0.57652 1.1661c-0.5509 1.1142-1.2034 4.8738-1.7639 10.164-0.35511 3.3512-1.6346 5.5215-3.2552 5.5215-0.71853 0-0.57716-0.8834 0.47127-2.9449 0.30893-0.60743 0.56168-1.4503 0.56168-1.8731 0-1.3552 2.53-10.867 3.3689-12.666 0.47585-1.0202 0.7111-2.1324 0.56999-2.6946-0.13879-0.55298 0.01-1.2876 0.35141-1.7392 0.70582-0.9327 0.82524-2.3899 0.16229-1.9802-0.25048 0.1548-2.137 0.2508-4.1922 0.21333-3.4309-0.0625-3.921-0.17787-5.9863-1.4088-1.2372-0.73735-3.0777-1.6727-4.09-2.0786s-2.2743-0.94165-2.8045-1.1906c-1.4797-0.69467-6.7617-0.52525-7.9526 0.25508-0.54983 0.36027-1.3668 0.55904-1.8154 0.44172-0.66094-0.17283-0.96179 0.14192-1.5858 1.6591-0.42357 1.0298-0.91901 1.8731-1.101 1.874-0.18199 0.00081-0.20897 0.19879-0.06 0.4399 0.14901 0.2411 0.34895 2.2196 0.44431 4.3967 0.18522 4.2288 1.1542 9.8473 1.9877 11.525 0.27941 0.56237 0.63802 1.7396 0.79692 2.616 0.15891 0.87644 0.53094 1.9807 0.82675 2.454 0.29581 0.47324 0.65886 1.5506 0.80678 2.3942 0.25937 1.4792 0.22708 1.5337-0.90748 1.5337-0.83624 0-1.3346-0.29566-1.7236-1.0225-0.30097-0.56237-0.67287-1.0225-0.82644-1.0225s-0.82144-0.51817-1.4842-1.1515c-0.6627-0.63331-1.5373-1.279-1.9436-1.4349-0.45361-0.17406-0.64518-0.52706-0.49641-0.91474 0.13863-0.36126 0.0693-0.5244-0.16206-0.38141-0.22237 0.13743-0.40432-0.0207-0.40432-0.3514s-0.54392-1.059-1.2087-1.6183c-0.66479-0.55939-1.3255-1.4824-1.4683-2.0512-0.14276-0.56879-0.6111-1.3523-1.0408-1.7412-0.42967-0.38882-0.78121-0.94708-0.78121-1.2406 0-0.29347-0.73619-1.2846-1.636-2.2026-0.89979-0.91797-1.6364-1.8917-1.637-2.1638-0.0004-0.2721-0.5599-1.1389-1.2431-1.9262-0.68316-0.78732-1.5392-2.0449-1.9022-2.7947-0.36308-0.74977-1.1161-1.5366-1.6733-1.7484-0.55725-0.21187-1.516-0.74329-2.1307-1.1809-0.61462-0.43765-1.2643-0.66313-1.4436-0.50106-0.17938 0.16207-0.19947 0.0738-0.0446-0.19606 0.3579-0.62385-1.2166-1.499-2.0924-1.1629-0.3581 0.13741-0.79061 0.0241-0.96114-0.25183-0.23083-0.37349-3.2614-0.52484-11.861-0.59238-6.3531-0.0499-11.348 0.035-11.099 0.1887 0.24865 0.15367-0.27208 0.29839-1.1572 0.3216-0.8851 0.0232-1.6093-0.098-1.6093-0.26932 0-0.3259-4.3487-0.13377-4.9166 0.21722-0.46617 0.28811-5.3178-0.78154-6.5353-1.4408-0.56237-0.30455-1.4336-0.59941-1.936-0.65525-1.3012-0.1446-7.052-3.0118-8.0574-4.0172-0.46474-0.46474-0.93701-0.85146-1.0495-0.85938-0.22768-0.016-3.157-2.5919-5.0999-4.4846-1.24-1.2079-3.08-4.8572-3.08-6.1085 0-0.35196-0.19344-0.63993-0.42986-0.63993-0.23643 0-0.72427-0.69018-1.0841-1.5337-0.50991-1.1954-0.66319-3.1126-0.69487-8.6912-0.0372-6.5472 0.0348-7.3144 0.84465-8.9979 0.48691-1.0123 1.0034-2.5884 1.1478-3.5026 0.23052-1.4594 0.14751-1.7218-0.6808-2.1516-0.51883-0.26923-1.4955-0.82866-2.1703-1.2432-0.67485-0.41453-1.457-0.66895-1.7382-0.56539-0.28118 0.10355-0.51124-0.0767-0.51124-0.40052 0-0.57811-2.9061-3.1786-3.5547-3.1809-0.18191-0.00082-1.3027-2.0238-2.4906-4.496-2.1295-4.4316-2.1686-4.5815-2.7775-10.665-0.60549-6.0491-0.58099-7.8684 0.21718-16.126 0.76819-7.9471 1.4902-11.868 2.9748-16.155 0.6621-1.9121 1.3114-3.8446 1.4429-4.2945 0.13151-0.4499 0.64132-1.5542 1.1329-2.454 4.8539-8.8845 7.2424-12.393 10.163-14.928 0.90691-0.78732 2.3014-2.092 3.0988-2.8993 3.2067-3.2465 13.831-9.206 19.952-11.192 1.1783-0.3823 2.2475-0.86508 2.3759-1.0728 0.12839-0.20775 0.78683-0.37772 1.4632-0.37772 0.67635 0 1.5831-0.18912 2.015-0.42026 0.83516-0.44697 2.7939-0.90868 7.7499-1.8268 4.3358-0.80322 18.96-0.57298 22.086 0.34772 1.2372 0.36445 2.721 0.66482 3.2974 0.66749 0.57635 0.0027 1.8165 0.37621 2.756 0.83009 0.93943 0.45388 2.8167 1.1093 4.1718 1.4564l2.4638 0.63119 2.5512-1.3149c1.4032-0.7232 3.0397-1.5626 3.6368-1.8654 0.59708-0.30278 1.6573-0.55051 2.3561-0.55051 0.69876 0 2.8789-0.35468 4.8449-0.78818 4.9947-1.1014 13.261-1.7369 22.388-1.7212 9.0243 0.01552 11.785 0.19693 19.747 1.2975 12.567 1.7371 17.405 2.9403 22.731 5.6529 1.3178 0.6712 3.3118 1.3463 4.431 1.5002 2.1232 0.29201 7.1041-0.30078 10.964-1.3049 6.0296-1.5684 24.747-2.4593 36.401-1.7326 12.688 0.79119 18.743 1.5843 23.108 3.0267 0.89979 0.29733 2.6482 0.76617 3.8855 1.0419 1.2372 0.27569 2.9857 0.90132 3.8855 1.3903 0.89979 0.48897 2.7403 1.2297 4.09 1.6461 2.6895 0.82973 3.0976 0.99603 4.908 2 0.67484 0.37425 2.7079 1.5009 4.518 2.5036 3.8596 2.1382 7.5831 5.3782 9.5924 8.3467 0.90627 1.339 1.8066 2.1922 2.454 2.3255 0.56237 0.11581 1.6667 0.37455 2.454 0.57498 0.78732 0.20043 1.9378 0.2626 2.5566 0.13815 0.91684-0.18438 1.4184 0.06648 2.7098 1.3552 0.87155 0.86982 2.4661 2.0079 3.5435 2.5292 4.8206 2.3322 8.5818 5.8319 10.864 10.109 1.8491 3.4651 2.3734 5.4017 2.654 9.8021 0.22616 3.5472 0.14597 4.4137-0.60421 6.5298-1.1942 3.3685-1.1139 4.9829 0.36355 7.3127 1.5906 2.5081 3.0309 5.3629 4.0866 8.0999 1.6931 4.3898 2.7352 20.464 1.6798 25.91-0.26152 1.3497-0.48334 3.6503-0.49293 5.1125-0.0153 2.3376-0.41246 3.8865-1.5764 6.1484-0.17744 0.34481-0.4522 1.2169-0.61058 1.938-0.15838 0.72112-0.45786 1.4161-0.6655 1.5444-0.20764 0.12833-0.37753 0.56583-0.37753 0.97223 0 0.40639-1.1503 2.2764-2.5562 4.1555-2.2963 3.0693-2.8761 3.5774-5.7024 4.998-2.2758 1.1439-4.0296 1.6975-6.3394 2.0013-3.6718 0.48288-4.3714 0.87916-4.0204 2.2775 0.24554 0.97833-1.4733 4.5944-2.1839 4.5944-0.17494 0-0.92102 0.5383-1.6579 1.1962-1.5298 1.3658-6.4932 3.1422-9.8955 3.5416-2.238 0.26271-2.2996 0.24292-2.4995-0.80273-0.1928-1.0086-0.11045-1.0721 1.3906-1.0721 0.87756 0 2.3171-0.3681 3.199-0.81799 0.88187-0.4499 1.8408-0.82256 2.1309-0.82814 0.84084-0.0162 4.23-2.6675 5.4435-4.2584 0.9809-1.286 1.1945-2.0279 1.3787-4.7878 0.0247-0.36959 0.34446-0.78697 0.71068-0.92749 1.1316-0.43424 6.4458-1.4483 7.3096-1.3948 1.9713 0.12202 4.2319-0.93626 5.926-2.7742 1.5991-1.7348 4.4989-7.2607 6.6104-12.597 1.335-3.3738 2.3999-11.784 2.4524-19.367 0.043-6.2096-0.0578-7.2672-1.0816-11.347-0.62098-2.4744-1.3814-4.7895-1.6899-5.1447-0.30848-0.35514-0.56334-1.0913-0.56635-1.636-0.003-0.54465-0.36919-1.4504-0.81371-2.0128-2.9988-3.7938-4.1124-5.5903-3.93-6.3394 0.10954-0.44989 0.6-1.9223 1.0899-3.272 1.1049-3.0438 1.4226-9.9882 0.53713-11.738-0.30733-0.60744-0.55879-1.5605-0.55879-2.118 0-0.55748-0.27607-1.2897-0.61349-1.6271-0.33743-0.33742-0.6135-0.84012-0.6135-1.1171s-1.7207-2.1766-3.8237-4.2214c-2.8583-2.7791-4.6396-4.1299-7.0552-5.3498-1.7773-0.8976-3.3787-1.8639-3.5586-2.1472-0.18611-0.29318-1.1556-0.51789-2.2495-0.5214-3.5595-0.0114-7.3029-1.8943-8.4117-4.231-0.38857-0.81886-0.86191-1.4888-1.0519-1.4888-0.18995 0-1.2646-0.87423-2.388-1.9427-2.5869-2.4604-3.0952-2.8607-4.3703-3.4416-0.57082-0.26009-1.0379-0.62739-1.0379-0.81623s-0.3681-0.34335-0.818-0.34335c-0.56606 0-0.82794-0.28343-0.85028-0.92024-0.0178-0.50613-0.12512-0.69018-0.23858-0.409-0.11346 0.28119-0.38586 0.51125-0.60534 0.51125s-0.29815-0.16327-0.17482-0.36282-0.004-0.3546-0.28261-0.34457c-1.4023 0.0505-1.9413-0.17548-1.9706-0.82635-0.0178-0.39366-0.12022-0.50041-0.22768-0.23722-0.22218 0.54414-3.7248-0.43686-4.445-1.2449-0.22576-0.25332-0.68588-0.51182-1.0225-0.57445-0.33661-0.06263-0.98011-0.27959-1.43-0.48214-7.149-3.2186-16.291-5.1332-26.38-5.5249-7.2294-0.28068-8.4946-0.44898-8.5599-1.1387-0.0494-0.52124-0.64255-0.33763-0.64255 0.1989 0 0.81655-1.5346 0.87507-2.1154 0.08066-0.47867-0.65462-0.646-0.66971-1.6277-0.14672-0.85381 0.45485-1.1319 0.4706-1.2658 0.07166-0.24809-0.73891-2.9665-0.66821-2.9665 0.07715 0 0.46736-0.69409 0.58065-3.3742 0.55073-2.4894-0.02779-2.9988-0.11434-1.9427-0.33006 1.3132-0.26824 1.2521-0.29684-0.73989-0.34624-1.2493-0.03098-2.0714 0.10784-1.9361 0.3269 0.12942 0.2094 0.0483 0.49634-0.18036 0.63763-0.22862 0.14129-0.41567-0.000817-0.41567-0.3158 0-0.54004-0.99415-0.60772-5.0102-0.34109-0.39366 0.02614-0.71574 0.32359-0.71574 0.66101 0 0.43738-0.4403 0.6117-1.5337 0.60723-1.015-0.0041-1.3461-0.12517-0.97883-0.35787 0.34811-0.22057 0.39997-0.44737 0.13916-0.60856-0.67072-0.41453-1.7405 0.18986-1.6216 0.9161 0.0896 0.54711-0.55812 0.7607-3.5715 1.1776-2.0245 0.28012-4.1037 0.69463-4.6205 0.92112-1.3081 0.57337-1.7328 0.51461-1.4579-0.20168 0.16963-0.44204-0.0435-0.6135-0.76266-0.6135-1.2723 0-1.6596 0.38964-1.0808 1.0871 0.35638 0.42941 0.26938 0.54888-0.39971 0.54888-0.59218 0-0.78283-0.1887-0.61982-0.6135 0.17275-0.45016-0.0757-0.62992-0.93308-0.67517-1.939-0.10235-3.5998 0.10633-4.011 0.50398-0.57348 0.5545-1.4573 0.45647-1.2298-0.1364 0.28317-0.73792-1.4176-1.7281-1.9882-1.1575-0.63159 0.6316-1.2246 0.54711-0.96205-0.13707 0.22061-0.57492-0.54687-1.1004-1.8189-1.2453-0.36383-0.04145-1.175-0.47924-1.8025-0.97287-0.6528-0.51349-1.4488-0.79982-1.8603-0.6692-0.39562 0.12556-0.83769 0.03676-0.98237-0.19733-0.14468-0.2341-0.63269-0.42563-1.0845-0.42563-0.63529 0-0.76259 0.18535-0.5618 0.81799 0.31579 0.99496-0.11608 1.0389-1.3964 0.14211-0.94633-0.66284-1.5493-0.82488-4.6363-1.2459-1.3809-0.18832-2.2261-0.94124-1.0566-0.94124 1.2682 0-0.19623-0.45199-2.0545-0.63409-1.3932-0.13653-2.1037-0.05275-2.1037 0.24805 0 0.24982-0.23006 0.37752-0.51125 0.28379-0.28118-0.09373-0.44011-0.33913-0.35317-0.54533 0.0869-0.2062-0.81112-0.55896-1.9957-0.78391-2.4368-0.46274-5.8427-0.31064-5.4989 0.24558 0.12506 0.20235-0.0538 0.36791-0.39742 0.36791-0.3612 0-0.53402-0.23656-0.40962-0.56072 0.28162-0.73391-0.84343-1.1449-2.2012-0.80415-0.98287 0.24668-1.0069 0.29806-0.27425 0.58591 0.90465 0.35542-5.1817 0.43638-6.6611 0.08861-0.50613-0.11898-0.92024-0.47244-0.92024-0.78548 0-0.63474-0.19003-0.67137-1.5683-0.30233-0.71315 0.19095-0.81667 0.34323-0.409 0.60165 0.34646 0.21961-0.10507 0.34828-1.2362 0.35225-1.4174 0.005-1.7338-0.11924-1.5466-0.60723 0.33638-0.8766-4.3253-0.8766-5.2019 0-0.72145 0.72146-1.5339 0.81125-1.3877 0.15337 0.19402-0.8731-0.81665-0.7982-1.0456 0.07749-0.23564 0.90109-1.4001 0.89517-1.1936-0.0061 0.11253-0.49094-1.5065-0.20778-1.953 0.34157-0.35876 0.44143-2.454 0.50362-2.454 0.07283 0-0.51061-2.2272-0.12569-3.7748 0.65238-0.72303 0.3635-1.6958 0.46861-2.7607 0.29831-1.0847-0.17346-1.6444-0.10944-1.6444 0.1881 0 0.2878-0.46628 0.35779-1.2884 0.19337-0.96923-0.19385-1.4202-0.07734-1.8207 0.47035-0.29428 0.40245-1.0442 0.72453-1.6769 0.72022-0.62948-0.0043-1.456 0.26767-1.8366 0.60434-0.38064 0.33668-0.93278 0.52678-1.227 0.42244-0.2942-0.10433-1.2178 0.15285-2.0524 0.57152s-1.8703 0.76122-2.3016 0.76122c-0.43132 0-1.0184 0.2822-1.3047 0.62712-0.46191 0.55657-0.62517 0.52874-1.4513-0.24735-0.51196-0.48096-1.1158-0.76016-1.3418-0.62045-0.22607 0.13971-0.52662 0.06697-0.66792-0.16165-0.14129-0.22862-0.79818-0.41567-1.4598-0.41567-0.66157 0-1.5573-0.35444-1.9905-0.78764-0.48922-0.48922-1.1091-0.70359-1.636-0.56579-0.55284 0.14457-0.84834 0.02715-0.84834-0.3371 0-0.57176-1.0414-0.78585-3.8024-0.78168-0.85413 0.0013-1.4542-0.15751-1.3334-0.3529 0.32648-0.52824-2.3095-0.82137-3.1983-0.35567-0.51521 0.26994-0.85511 0.26091-1.0333-0.02744-0.14606-0.23633-1.549-0.45611-3.1177-0.48839-2.5922-0.05335-3.7094-0.05032-7.2875 0.01973-0.8494 0.01663-1.1012 0.18472-0.93309 0.62284 0.26472 0.68984-1.1699 0.86197-1.5851 0.19018-0.28498-0.46111-3.4556-0.10098-4.069 0.46218-0.23719 0.21775-0.15753 0.36155 0.2045 0.36914 1.5053 0.03157-0.98991 0.84407-2.8359 0.92345-1.1078 0.04763-1.9342 0.21605-1.8365 0.37427 0.1632 0.26422-2.1852 1.0569-4.1415 1.3979-1.7664 0.30788-5.7635 1.4279-6.4362 1.8034-0.39061 0.21808-0.90684 0.3965-1.1472 0.3965-0.74491 0-3.9129 1.5637-4.4298 2.1865-0.26975 0.32503-1.1177 0.70863-1.8843 0.85245-0.84094 0.15776-1.4889 0.56102-1.6335 1.0166-0.13181 0.4153-0.74034 0.85625-1.3523 0.97991-1.2492 0.25243-6.6801 4.9748-8.3124 7.228-0.58562 0.80839-1.5293 1.7742-2.097 2.1461-0.56773 0.37199-1.1612 1.193-1.3188 1.8246-0.15763 0.63152-0.52965 1.4243-0.82672 1.7617-1.3391 1.521-4.7131 8.2462-4.7131 9.3944 0 0.93092-1.0189 3.0326-1.9566 4.0358-0.28882 0.30901-0.42923 0.86452-0.31203 1.2345 0.11721 0.36996-0.0466 1.1729-0.36404 1.7842-0.31743 0.61138-0.70805 2.1758-0.86805 3.4765-0.15999 1.3007-0.45415 2.4703-0.65368 2.5991-0.61087 0.39448-1.2715 20.713-0.68519 21.076 0.18735 0.11579 0.34238 1.1659 0.3445 2.3336 0.006 3.474 1.7304 9.4409 3.4286 11.866 2.8002 3.9989 6.0944 6.8214 7.9613 6.8214 0.42683 0 0.99018 0.25802 1.2519 0.57337s0.94065 0.69002 1.5087 0.83261c1.446 0.36292 1.1091 1.4973-0.69732 2.3479-1.3567 0.63883-1.5124 0.90867-2.1936 3.801-0.56606 2.4037-0.68346 4.1116-0.51502 7.4929 0.20871 4.1898 0.80444 6.5088 3.0162 11.742 0.53343 1.262 3.5434 5.6691 4.2312 6.1952 0.33742 0.25809 1.0736 0.88073 1.636 1.3836 1.1955 1.0691 5.1436 3.6686 5.5718 3.6686 0.1618 0 0.58476 0.24777 0.93989 0.5506 0.96661 0.82424 5.6823 2.5683 8.0076 2.9616 1.1247 0.19023 8.3947 0.36409 16.155 0.38636l14.11 0.0405 3.344 1.2273c1.8392 0.67503 3.5877 1.4068 3.8855 1.6261 0.29779 0.21933 1.0927 0.66725 1.7664 0.99537 1.4537 0.70795 7.1594 6.2622 7.1594 6.9694 0 0.27048 0.70988 1.616 1.5775 2.99 0.86763 1.374 2.0551 3.4184 2.6388 4.5432 0.58371 1.1248 2.0824 3.1328 3.3305 4.4624 1.248 1.3296 2.2692 2.7007 2.2692 3.047 0 0.45659 0.12321 0.50642 0.44833 0.18131 0.32512-0.32512 0.28714-0.82533-0.13817-1.82-2.9581-6.9184-3.8679-14.771-2.3126-19.962 0.69043-2.3044 2.927-4.2148 6.2158-5.3092 3.7532-1.249 7.2707-0.74803 13.05 1.8586 3.6573 1.6496 4.665 1.9251 7.6857 2.1015l3.4765 0.20298 1.9893-2.4824c1.0941-1.3653 3.2709-3.4354 4.8374-4.6002 3.1037-2.3079 3.7536-2.4351 8.481-1.6604 2.036 0.33367 2.4422 0.25798 4.908-0.9145 2.5947-1.2338 2.8732-1.2775 8.0052-1.2551 3.7332 0.0163 5.987 0.2263 7.5664 0.70504 1.2372 0.375 3.6298 0.70883 5.317 0.74184 1.6871 0.033 3.2515 0.19585 3.4765 0.36187 0.22495 0.16602 1.2442 0.41043 2.2649 0.54314 1.0208 0.1327 2.7272 0.72823 3.7921 1.3234 1.9469 1.0881 6.13 5.4347 7.1926 7.4737 0.73796 1.416 0.72425 1.4084 5.5462 3.0837 8.6434 3.0029 15.22 3.4558 33.556 2.3106 3.8241-0.23884 7.3358-0.51732 7.8038-0.61885 0.46796-0.10152 1.7563-0.28882 2.863-0.41623 13.469-1.5506 20.437-2.8438 23.385-4.3401 1.4261-0.72382 2.7143-1.5126 2.8628-1.7529 0.14849-0.24026 0.27756-1.1744 0.28682-2.0759 0.0148-1.439 0.14168-1.6535 1.0393-1.7567 1.535-0.17653 4.0659-1.3383 6.1838-2.8385 2.0578-1.4577 2.8141-1.6594 2.8141-0.75077 0 0.36396 0.50588 0.63636 1.3292 0.71575 1.0379 0.10007 1.3591 0.33898 1.4654 1.09 0.23789 1.6806-0.30899 2.8726-1.7749 3.8687-0.78341 0.53235-1.3375 1.0548-1.2312 1.1611 0.20591 0.2059-0.29588 0.93957-3.9433 5.7655-1.6341 2.1621-2.844 3.3185-4.1168 3.9346-2.1452 1.0385-2.5189 1.0666-3.3346 0.25094-0.55033-0.55032-0.55318-0.81585-0.0248-2.3133 0.32826-0.93038 0.49777-1.7907 0.37671-1.9117-0.12107-0.12106-1.8255 0.21149-3.7876 0.73901s-4.7638 1.0913-6.2259 1.2529c-1.4622 0.16158-3.9468 0.57667-5.5215 0.92243-1.5746 0.34576-4.0593 0.7438-5.5215 0.88454s-3.8548 0.41216-5.317 0.60316c-1.4723 0.19231-2.8275 0.19084-3.0373-0.003-0.21076-0.19505-0.57365-0.19035-0.81799 0.0106-0.24155 0.19865-3.384 0.63397-6.9831 0.96738-8.1393 0.754-20.781 0.37831-24.335-0.72318-1.2372-0.38344-2.9857-0.83239-3.8855-0.99767-1.8015-0.33092-4.5098-1.162-5.6237-1.7258-0.97502-0.49348-0.90695-0.0796 0.45094 2.7419 2.184 4.538 2.9618 7.4703 3.2938 12.417 0.18736 2.7919 0.15714 5.3923-0.0739 6.3626-0.21494 0.90253-0.39073 1.917-0.39066 2.2544 0.00008 0.33742-0.24959 2.3419-0.5548 4.4545-0.30522 2.1125-0.47853 3.9646-0.38512 4.1158 0.35242 0.57024 0.26226 6.8425-0.12373 8.6076-1.297 5.931-3.7065 11.025-5.9881 12.66-0.45625 0.32688-1.3175 1.1091-1.9139 1.7382-0.59639 0.62914-1.2866 1.1439-1.5337 1.1439-0.24717 0-0.4494 0.17621-0.4494 0.39158 0 0.44925-4.8658 4.3929-6.8507 5.5523-0.73108 0.42705-1.3292 0.92538-1.3292 1.1074 0 0.29833-1.1917 0.891-2.2495 1.1187-0.22495 0.0484-0.50102 0.21823-0.6135 0.37733-0.11247 0.15911-0.89482 0.70877-1.7385 1.2215-0.84372 0.51271-1.764 1.242-2.045 1.6207-0.28102 0.37867-0.97106 0.91722-1.5334 1.1968-3.6035 1.7913-5.5466 3.4094-7.478 6.2276-0.69378 1.0123-1.4237 1.9508-1.622 2.0857-0.51045 0.34715-1.5339 2.3978-1.5339 3.0735 0 0.72362 0.49125 0.71424 2.3061-0.044 0.80399-0.33593 1.6136-0.51697 1.7991-0.40232 0.69043 0.42671 0.85837-0.70157 0.21092-1.417-0.36961-0.40842-0.70972-1.271-0.75581-1.917-0.15672-2.1964 1.0559-1.2514 2.9606 2.3072 1.7185 3.2107 2.41 4.3878 5.3705 9.1422 0.57915 0.93007 1.3784 2.2167 1.7762 2.8593l0.72316 1.1682 1.4113-1.3679c0.77622-0.75234 1.71-1.3701 2.075-1.3727 0.36556-0.002 1.0958-0.82076 1.6255-1.8211 0.52899-0.99897 1.2128-2.1033 1.5196-2.454 0.30682-0.35072 0.69496-1.0862 0.86255-1.6344 0.16759-0.54819 1.1823-2.8488 2.255-5.1125 2.4123-5.0907 3.7915-8.1826 4.4814-10.046 0.29145-0.78732 1.0828-2.6278 1.7586-4.09 2.7593-5.97 3.2747-7.3068 4.1768-10.834 1.4269-5.5792 1.9928-7.1618 2.5611-7.1618 0.28479 0 1.0222 0.73591 1.6386 1.6354 0.61647 0.89945 1.9491 2.7648 2.9613 4.1452 1.0123 1.3804 2.059 2.8991 2.3261 3.3748 0.51092 0.90997 4.8459 5.1594 5.2633 5.1594 0.34642 0 6.0685 3.3893 6.3268 3.7475 0.28224 0.39137 5.6967 3.0778 10.828 5.3725 2.2495 1.0059 5.8955 2.6783 8.1023 3.7165 2.2068 1.0381 4.234 1.8875 4.505 1.8875s1.2161 0.38771 2.1003 0.86159c0.88415 0.47387 2.3538 1.1013 3.2659 1.3944 3.3205 1.0668 5.9366 2.1757 7.1193 3.0179 0.66509 0.47359 1.4633 0.86107 1.7737 0.86107 0.31044 0 1.91 0.92984 3.5545 2.0663 1.6446 1.1365 3.9388 2.4398 5.0984 2.8962 1.1596 0.45644 3.3046 1.4433 4.7668 2.193s3.2053 1.609 3.8737 1.9095c3.2532 1.4629 6.2821 4.0698 8.1138 6.9834 1.2842 2.0428 3.9634 7.1931 3.9634 7.6189 0 0.23049 1.0123 2.6314 2.2495 5.3353s2.2495 5.1935 2.2495 5.5325c0 0.33895 0.47917 1.6796 1.0648 2.9792 3.2372 7.1835 4.2632 11.682 2.7932 12.246-0.99433 0.38156-1.4191-0.34788-1.809-3.1066-0.19779-1.3993-0.6514-2.9895-1.008-3.5338-0.38242-0.58364-0.549-1.3857-0.40609-1.9551 0.15217-0.60631 0.003-1.2048-0.40075-1.6086-0.35369-0.3537-0.64308-0.93842-0.64308-1.2994 0-0.36096-0.46012-1.5643-1.0225-2.6741-0.56237-1.1098-1.0225-2.3-1.0225-2.6449 0-0.34489-0.19533-0.62709-0.43406-0.62709-0.44392 0-0.29007 2.0375 0.43237 5.726 0.19827 1.0123 0.5803 3.1288 0.84896 4.7035 0.26866 1.5746 0.92413 4.0352 1.4566 5.4679 0.99616 2.6804 1.2635 4.9615 0.58143 4.9615-0.38582 0-0.99079-0.97351-2.2874-3.681-1.0148-2.119-3.3999-10.169-4.5338-15.302-0.34356-1.5553-0.96453-3.7639-1.3799-4.908-0.4154-1.1441-0.88196-3.0685-1.0368-4.2766-0.30079-2.3468-1.869-6.1921-2.8611-7.0155-0.33116-0.27484-0.60212-0.65194-0.60212-0.83801 0-0.18606-0.69018-1.2719-1.5337-2.413-1.293-1.7491-2.1756-2.3904-5.6237-4.0862-2.2495-1.1064-4.6421-2.1393-5.317-2.2954-0.67484-0.15611-1.5031-0.51961-1.8405-0.80779-0.33742-0.28817-1.2974-0.65085-2.1333-0.80596-0.89676-0.1664-1.6106-0.56813-1.7413-0.97996-0.12184-0.38387-1.4278-1.3308-2.9021-2.1043-3.0548-1.6027-4.2357-2.2548-6.4368-3.5545-0.85641-0.50567-1.9042-0.91939-2.3284-0.91939-0.42418 0-1.3799-0.3546-2.1239-0.78801-0.74394-0.4334-2.0428-0.91401-2.8864-1.068-0.84356-0.154-1.5337-0.43618-1.5337-0.62707 0-0.19088-0.78221-0.57878-1.7382-0.86201-0.95603-0.28322-2.3616-0.93448-3.1236-1.4472-0.76194-0.51276-2.1058-1.1263-2.9863-1.3634-0.88051-0.23709-1.7032-0.69751-1.8281-1.0231-0.12495-0.32563-0.72283-0.59206-1.3286-0.59206-0.60579 0-1.2763-0.17223-1.49-0.38272-0.60113-0.59212-5.3857-2.8893-6.0179-2.8893-0.30952 0-1.1812-0.55214-1.9371-1.227-0.75587-0.67484-1.6157-1.227-1.9107-1.227s-0.76625-0.3681-1.0472-0.81799c-0.28097-0.4499-0.90977-0.818-1.3973-0.818-0.79724 0-3.1626-1.6641-8.0523-5.6652-1.1274-0.92253-1.7322-1.1999-1.8494-0.84833-0.0958 0.28735 0.21982 0.84147 0.70134 1.2314 0.48152 0.38991 1.0138 1.0667 1.1828 1.5039 0.3634 0.94012 4.6852 4.6044 6.5961 5.5926 0.7357 0.38045 3.3296 2.0144 5.7642 3.6309 4.286 2.8459 8.7881 5.7667 12.659 8.2127 1.0301 0.65091 2.9772 1.7765 4.3269 2.5012 3.84 2.062 9.591 5.4634 10.994 6.5025 0.70156 0.51947 2.2187 1.4473 3.3714 2.0619 2.006 1.0695 2.1498 1.0895 3.3539 0.46687 2.4819-1.2834 4.9295-0.54585 4.9666 1.4967 0.008 0.42291 0.3272 0.71575 0.78093 0.71575 0.42235 0 1.0058 0.28671 1.2967 0.63713 0.56496 0.68073 2.2883 1.4808 5.3586 2.4876 2.9648 0.97221 5.3868 3.6927 6.5567 7.3646 2.4672 7.744 3.3289 12.804 2.4818 14.574-0.29931 0.62522-0.4377 1.3091-0.30752 1.5197 0.336 0.54367-1.2649 3.532-2.0545 3.835-0.44323 0.17008-0.57366 0.52217-0.39822 1.075 0.17366 0.54716 0.0463 0.90436-0.38079 1.0683-0.35294 0.13544-0.6417 0.48361-0.6417 0.77372 0 0.2901-0.96752 1.7888-2.15 3.3305-2.6963 3.5151-8.2839 11.938-8.6429 13.028-0.39093 1.1872-2.6552 3.5548-3.1231 3.2657-0.59416-0.36721-0.48187-2.2905 0.16415-2.8116 0.30963-0.24974 1.5305-2.2946 2.7131-4.544 1.1826-2.2495 2.3096-4.2648 2.5045-4.4785 0.62784-0.68831 0.37742-1.084-0.41696-0.6589-0.42424 0.22705-1.2064 1.0937-1.7382 1.926-0.53178 0.83223-1.4586 2.2634-2.0595 3.1803-0.60092 0.91693-1.1071 2.0874-1.1247 2.601-0.0177 0.51364-0.67998 1.5817-1.4718 2.3735-0.79179 0.79179-1.8263 2.2622-2.2988 3.2674-0.47255 1.0053-1.2798 2.1587-1.7939 2.563-0.51407 0.40437-1.1684 1.5154-1.4541 2.469-0.53227 1.7766-1.6242 2.7396-2.657 2.3434-0.31985-0.12274-0.58154-0.59703-0.58154-1.054 0-0.45696-0.23006-0.8382-0.51125-0.84721-0.28118-0.009-0.0333-0.27619 0.55089-0.59375 0.7439-0.40439 1.2588-1.2266 1.7186-2.7444 0.36107-1.1918 1.6016-4.8357 2.7567-8.0974 3.7441-10.572 4.4874-12.811 4.3119-12.986-0.0949-0.0949-0.5049 0.34959-0.91113 0.98771-0.40623 0.63813-0.97309 1.3074-1.2597 1.4873-0.28659 0.17989-0.52107 0.56638-0.52107 0.85887 0 0.2925-0.53066 1.2644-1.1792 2.1597-0.64858 0.89534-1.3017 2.1653-1.4513 2.8221-0.14963 0.65682-0.7985 1.9304-1.4419 2.8302-0.64342 0.89979-1.8488 2.9243-2.6785 4.499-0.82976 1.5746-1.7668 3.1535-2.0823 3.5087-0.31551 0.35513-0.58564 0.90728-0.6003 1.227-0.0146 0.31971-0.61281 1.7776-1.3292 3.2398-1.1007 2.2465-1.594 2.8032-3.1832 3.5922-1.527 0.75815-2.0896 0.85428-2.9918 0.51124-0.61115-0.23236-1.5651-0.42247-2.1199-0.42247-0.60362 0-1.0977-0.28744-1.2302-0.71575-0.12184-0.39366-0.42374-1.0838-0.67089-1.5337-0.24716-0.4499-1.1549-2.2444-2.0172-3.9877-0.86231-1.7434-1.7248-3.1697-1.9166-3.1697-0.19182 0-1.5508 0.62657-3.02 1.3924-1.4692 0.76581-4.3941 1.9754-6.4998 2.688-2.1057 0.71259-4.1448 1.4643-4.5313 1.6705-0.38652 0.20617-1.5828 0.56774-2.6585 0.80349-1.0756 0.23575-2.2778 0.52631-2.6715 0.6457-0.50285 0.15249-0.70904-0.004-0.69321-0.52625 0.0294-0.97076 4.9618-4.5728 9.3894-6.857 1.8936-0.9769 3.5115-1.9819 3.5953-2.2333 0.13267-0.39802-15.861 7.5032-18.403 9.0916-1.3465 0.84131-3.105 1.1803-4.5154 0.87053-1.0567-0.23208-1.1884-0.4102-0.99864-1.3502 0.12023-0.59557 0.33669-1.388 0.48102-1.7608 0.24054-0.6215 0.11956-0.62877-1.452-0.0873-0.94295 0.32487-2.2353 0.86003-2.8719 1.1892-1.3199 0.68253-3.4832 0.79376-3.8514 0.19801-0.13615-0.2203-0.0485-0.77245 0.19476-1.227 0.60613-1.1326-0.41417-1.1276-1.441 0.007-0.56931 0.62908-1.0449 0.76965-1.9394 0.5732-0.92368-0.20288-1.3177-0.071-1.7863 0.59799-0.61345 0.87583-1.7818 1.1786-1.7818 0.46174 0-0.4985 1.3848-2.9764 2.8687-5.1333 1.2641-1.8373 3.2105-5.0785 4.9072-8.1716 0.61696-1.1247 1.4664-2.6466 1.8876-3.382 0.67098-1.1714 0.68986-1.3867 0.15238-1.7377-0.85623-0.55923-1.8061-0.31754-1.9635 0.49958-0.26138 1.3573-5.4508 6.0138-6.7358 6.0442-0.17318 0.004-1.0014 0.42635-1.8405 0.93835-0.83908 0.512-2.5379 1.2717-3.7751 1.6883-1.2372 0.41656-2.6176 0.98036-3.0675 1.2529-0.44989 0.27254-1.4622 0.61818-2.2495 0.76808-3.4432 0.65559-6.1582 1.781-9.3318 3.8682-1.8707 1.2304-3.6864 2.672-4.0348 3.2038-0.72481 1.1062-2.763 1.3388-3.1393 0.35824-0.81828-2.1324-0.71031-4.6 0.33128-7.5714 0.5914-1.6871 1.4491-4.3558 1.906-5.9305 0.45693-1.5746 1.069-3.4151 1.3602-4.09 0.29118-0.67485 1.1294-2.7914 1.8628-4.7035 3.0607-7.9801 3.2516-8.5889 2.6925-8.5889-0.29621 0-0.77625 0.87423-1.0668 1.9427-0.29051 1.0685-0.85059 2.5869-1.2446 3.3742-1.9868 3.97-2.975 6.5416-5.1076 13.292-1.2792 4.0491-2.5536 7.8221-2.832 8.3844-2.3533 4.7523-3.1949 5.6931-3.9329 4.3967-0.57369-1.0077-1.1936-0.89007-1.0778 0.2045 0.0822 0.77626-0.12654 0.94149-1.334 1.056-1.1991 0.11374-1.6118-0.0803-2.5428-1.1955l-1.1114-1.3313-1.1752 1.346c-1.3346 1.5286-2.0493 1.4876-3.8934-0.22333l-1.1563-1.0728 0.16892-5.1689c0.26156-8.0034 2.8698-25.718 4.3631-29.633 0.24154-0.63325 0.43917-1.5075 0.43917-1.9427 0-3.1947-2.4262 4.034-3.6467 10.865-1.3121 7.3438-2.7149 13.436-3.3117 14.384-0.46508 0.73828-0.46772 0.99677-0.0157 1.5414 0.57921 0.69791 0.63265 0.60466-2.0238 3.5314-1.3149 1.4488-5.3552 4.4695-5.9779 4.4695-0.26317 0-0.5767 0.25593-0.69674 0.56873-0.12003 0.3128-1.2476 1.0723-2.5057 1.6879-1.2581 0.61552-2.3867 1.2798-2.5081 1.4762-0.37948 0.61401-0.99043 0.39041-0.99043-0.36248 0-0.39578 0.38602-0.96068 0.85782-1.2553 0.4718-0.29464 0.76576-0.62778 0.65324-0.74029-0.11251-0.11252-1.3672 0.65134-2.7883 1.6974-2.8693 2.1123-3.8458 2.1994-6.0864 0.54287-1.1883-0.87856-1.2176-0.98336-1.0895-3.8949 0.13473-3.0619-0.0372-3.4412-1.0848-2.3937-0.45809 0.45809-0.59535 1.7101-0.58533 5.3389 0.0137 4.9573-0.38712 6.5174-1.7886 6.9623-0.43075 0.13672-1.2561-0.14877-1.9823-0.68571-1.0048-0.74285-1.8024-0.9245-4.1433-0.94352-1.5945-0.013-2.9798 0.10713-3.0785 0.26686s0.0568 0.67799 0.34561 1.1517c0.4625 0.75859 0.4032 0.95685-0.49739 1.663-0.56237 0.44094-1.5318 1.2572-2.1543 1.8138-1.1377 1.0174-1.9357 1.2976-1.9357 0.67966z"/>
    <path id="path3588" d="m150.77 302.62c0.32337-0.52323-0.42677-1.4418-0.92564-1.1335-0.65661 0.4058-0.5594 1.4598 0.13463 1.4598 0.32415 0 0.6801-0.14683 0.79101-0.32628z" fill="#ccc"/>
    <path id="path3586" d="m128.94 298.85c0-0.22495-0.18405-0.409-0.409-0.409s-0.409 0.18405-0.409 0.409 0.18405 0.409 0.409 0.409 0.409-0.18405 0.409-0.409z" fill="#999"/>
    <path id="path3584" d="m238.23 294.87c0.065-1.1811-0.0199-2.1474-0.18864-2.1472-0.16871 0.00014-0.30675 0.27633-0.30675 0.61375 0 0.33743-0.26521 0.6135-0.58936 0.6135-1.0307 0-1.0643 0.67572-0.135 2.7163 0.96872 2.1272 1.0071 2.0707 1.2198-1.7963z" fill="#b3b3b3"/>
    <path id="path3582" d="m130.99 297.01c0.55267-0.66593 0.42048-0.74917-0.58004-0.36523-0.35583 0.13654-0.64695 0.41261-0.64695 0.61349 0 0.56574 0.66272 0.43165 1.227-0.24826z" fill="#999"/>
    <path id="path3580" d="m201.9 290.3c2.0513-0.88069 4.8023-1.9878 6.1133-2.4602 2.4586-0.88592 12.44-5.9 13.148-6.6047 0.21923-0.21826 0.42203-1.0825 0.45065-1.9205 0.0286-0.83802 0.37451-2.3519 0.76862-3.3642 0.64956-1.6684 0.67522-2.4866 0.27444-8.75-0.24316-3.8002-0.53835-7.0057-0.65597-7.1234-0.30344-0.30344-0.62363 0.0938-0.79951 0.99188-0.17562 0.89672-3.2185 5.5462-4.1187 6.2933-0.33693 0.27963-0.62605 0.80796-0.6425 1.1741-0.0164 0.36611-0.38251 1.2178-0.81349 1.8926-1.1036 1.7281-1.0615 1.5403-1.5481 6.9114l-0.44087 4.8664-1.958 1.9795c-2.0869 2.1098-2.6008 2.3259-3.359 1.4123-0.37065-0.44661-0.2762-1.3459 0.41881-3.9877 0.49356-1.8761 1.0141-4.6074 1.1568-6.0695 0.14269-1.4622 0.49801-3.087 0.7896-3.6107 0.55677-0.99999 0.37857-2.1153-0.33799-2.1153-0.23201 0-0.42183 0.28384-0.42183 0.63076 0 0.34691-0.18883 0.85305-0.41961 1.1247-0.23079 0.27169-1.105 1.4512-1.9427 2.621-3.0533 4.264-6.6794 8.706-7.4384 9.1122-0.42777 0.22894-0.90042 0.80271-1.0503 1.2751-0.14991 0.47234-0.53823 1.1627-0.86294 1.5342-1.903 2.177-3.8288 5.0464-3.6169 5.3892 0.54246 0.87772 3.6543 0.36554 7.3069-1.2026z" fill="#b3b3b3"/>
    <path id="path3578" d="m234.51 287.69c-0.33402-0.33402-0.45501-0.28824-0.45501 0.17212 0 0.34492 0.1342 0.76133 0.29823 0.92535 0.16402 0.16403 0.36877 0.0866 0.45501-0.17211 0.0862-0.2587-0.048-0.6751-0.29823-0.92536z" fill="#b3b3b3"/>
    <path id="path3576" d="m152.66 287.61c0-0.409-0.409-0.6135-1.227-0.6135s-1.227 0.2045-1.227 0.6135 0.40899 0.61349 1.227 0.61349c0.81799 0 1.227-0.20449 1.227-0.61349z" fill="#ccc"/>
    <path id="path3574" d="m197.39 281.98c0.83703-1.6309 2.2547-4.2536 3.1504-5.8282 1.5388-2.7053 2.5484-4.7345 5.3458-10.745 0.65656-1.4106 1.2872-3.159 1.4014-3.8855 0.15203-0.96689-0.28827-0.38925-1.6431 2.1556-1.5844 2.9762-3.9407 7.7073-4.8886 9.8159-0.31046 0.69059-0.78634 1.4799-2.3993 3.9796-0.61401 0.95156-1.1164 1.8857-1.1164 2.0759 0 0.19021-0.43969 0.7589-0.9771 1.2638-1.3674 1.2846-1.8548 4.1326-0.7073 4.1326 0.17177 0 0.99716-1.3344 1.8342-2.9652z" fill="#ccc"/>
    <path id="path3572" d="m240.98 275.24c0.66252-3.0976 1.5838-6.7191 2.0472-8.0478 0.46345-1.3287 0.84263-2.6646 0.84263-2.9687 0-0.98138-1.4213 0.24037-1.9147 1.6458-2.0449 5.8254-3.124 10.587-3.2573 14.373-0.11113 3.1565-0.0942 3.2254 0.48118 1.9511 0.328-0.72649 1.1384-3.8553 1.801-6.9529z" fill="#b3b3b3"/>
    <path id="path3570" d="m250.41 280.32c0-0.2095-0.27607-0.15179-0.61349 0.12824-0.33743 0.28004-0.60765 0.80871-0.60049 1.1748 0.0109 0.55923 0.10902 0.53873 0.61349-0.12825 0.33027-0.43665 0.60049-0.96532 0.60049-1.1748z" fill="#b3b3b3"/>
    <path id="path3568" d="m231.85 280.56c-0.1359-0.1359-0.23257 0.10566-0.21481 0.53681 0.0196 0.47646 0.11654 0.57337 0.2471 0.24711 0.11814-0.29525 0.10362-0.64801-0.0323-0.78392z" fill="#b3b3b3"/>
    <path id="path3566" d="m247.49 279.12c0.95864-1.5392 3.9718-4.4956 7.981-7.8307 3.0825-2.5642 10.885-10.111 10.888-10.53 0.007-1.0466-4.3134-0.45129-7.1517 0.98535-1.8665 0.94473-6.3434 5.2795-6.3434 6.142 0 0.31641-0.3681 0.90841-0.81799 1.3156-0.4499 0.40716-0.818 0.96529-0.818 1.2403 0 0.27502-0.27545 0.72863-0.61211 1.008-0.66737 0.55386-3.0689 5.0746-3.0689 5.7771 0 0.23898-0.36809 0.90247-0.81799 1.4744-0.88219 1.1215-1.0407 1.7476-0.44236 1.7476 0.20661 0 0.74819-0.59815 1.2035-1.3292z" fill="#b3b3b3"/>
    <path id="path3564" d="m154.98 277.46c0.58897-1.1651 2.0326-3.5907 3.2081-5.3903s2.3704-3.7321 2.6554-4.2945l0.51807-1.0225-1.1778 1.0307c-0.64776 0.56691-1.8219 1.4708-2.6092 2.0087-1.5643 1.0687-2.0847 1.4885-3.8018 3.067-0.62883 0.57806-1.3082 1.051-1.5096 1.051-0.78969 0-0.85456 0.92702-0.20812 2.9744 0.37127 1.1759 0.75149 2.3798 0.84492 2.6752 0.26851 0.84909 0.92359 0.18777 2.08-2.0998z" fill="#ccc"/>
    <path id="path3562" d="m251.64 279.2c0-0.23823-0.18405-0.31939-0.409-0.18036-0.22494 0.13902-0.40899 0.33393-0.40899 0.43313s0.18405 0.18036 0.40899 0.18036c0.22495 0 0.409-0.19491 0.409-0.43313z" fill="#b3b3b3"/>
    <path id="path3560" d="m231.83 276.46c-0.48375-0.48375-0.6372 0.23011-0.33875 1.5759l0.30926 1.3946 0.13142-1.3686c0.0723-0.7527 0.0264-1.4736-0.10193-1.6019z" fill="#b3b3b3"/>
    <path id="path3558" d="m183.11 274.69c-0.13169-0.21308-0.41376-0.27967-0.62684-0.14798-0.21307 0.13169-0.27966 0.41376-0.14797 0.62684 0.13168 0.21307 0.41376 0.27966 0.62683 0.14797 0.21308-0.13168 0.27967-0.41376 0.14798-0.62683z" fill="#ccc"/>
    <path id="path3556" d="m211.4 274.43c-0.1359-0.1359-0.23257 0.10566-0.21481 0.53681 0.0196 0.47646 0.11654 0.57337 0.2471 0.2471 0.11815-0.29524 0.10362-0.648-0.0323-0.78391z" fill="#b3b3b3"/>
    <path id="path3554" d="m232.01 274.52c0-0.33742-0.18405-0.61349-0.409-0.61349s-0.409 0.27607-0.409 0.61349 0.18405 0.6135 0.409 0.6135 0.409-0.27608 0.409-0.6135z" fill="#b3b3b3"/>
    <path id="path3552" d="m168.2 270.3c-0.005-0.59602-0.061-0.60682-0.40273-0.0781-0.51763 0.80096-0.51763 1.3424 0 1.0225 0.22495-0.13903 0.40618-0.564 0.40273-0.94438z" fill="#ccc"/>
    <path id="path3550" d="m153.11 265.65c1.2184-1.1936 3.0435-2.5212 4.0558-2.9502 1.0123-0.42905 2.9319-1.3051 4.2659-1.9467 1.4777-0.71077 2.7401-1.0667 3.2309-0.91098 0.73363 0.23284 0.78216 0.11469 0.54432-1.3251-0.14363-0.86938-0.26316-1.9948-0.26563-2.5009-0.006-1.2419-1.107-1.1889-2.1226 0.10225-0.44237 0.56237-1.1482 1.0225-1.5685 1.0225s-0.87792 0.18405-1.017 0.409c-0.13903 0.22494-0.58897 0.40899-0.99988 0.40899s-1.2743 0.27494-1.9186 0.61098c-0.64432 0.33603-1.5856 0.61211-2.0917 0.61349-0.50613 0.001-0.92024 0.17617-0.92024 0.38839 0 0.21224-0.53903 0.70429-1.1978 1.0935-0.65882 0.38917-1.2817 1.0282-1.3841 1.42-0.10246 0.39181-0.62171 0.77399-1.1539 0.84928-0.91705 0.12975-0.96421 0.28259-0.90268 2.9256 0.0357 1.5338 0.20296 3.2822 0.37167 3.8855 0.30018 1.0733 0.31267 1.0644 0.58276-0.41422 0.19898-1.0894 0.8941-2.1165 2.4913-3.6812z" fill="#ccc"/>
    <path id="path3548" d="m170.25 266.01c0-0.23886 0.34357-1.1826 0.76348-2.0972 1.4549-3.1688 2.5646-6.0375 2.3994-6.2028-0.20517-0.20517-2.3449 4.113-2.3449 4.7322 0 0.24658-0.46012 1.3563-1.0225 2.4661-1.1796 2.3278-1.2651 2.7555-0.40899 2.045 0.33742-0.28003 0.61349-0.70458 0.61349-0.94344z" fill="#ccc"/>
    <path id="path3546" d="m117.08 263.25c0-0.21167-0.18405-0.38486-0.409-0.38486s-0.409 0.28694-0.409 0.63764 0.18405 0.52388 0.409 0.38486c0.22495-0.13903 0.409-0.42597 0.409-0.63764z" fill="#999"/>
    <path id="path3544" d="m145.97 262.58c-0.12413-0.12412 0.0583-0.77492 0.40549-1.4462 0.44565-0.86179 0.48234-1.1709 0.12484-1.0518-0.27847 0.0928-0.7319 0.93278-1.0076 1.8666-0.51694 1.7508-0.31239 2.6714 0.33607 1.5127 0.20179-0.36058 0.26534-0.75715 0.14122-0.88128z" fill="#999"/>
    <path id="path3542" d="m132.54 261.94c0.28914-0.68048 0.31982-1.1247 0.0777-1.1247-0.22013 0-0.40023 0.0472-0.40023 0.10495 0 0.0577-0.18084 0.73549-0.40186 1.5062-0.44484 1.551-0.0202 1.2659 0.72441-0.48636z" fill="#999"/>
    <path id="path3540" d="m117.89 259.8c0-0.22495-0.1784-0.13293-0.39646 0.2045-0.21807 0.33742-0.39647 0.79754-0.39647 1.0225 0 0.22495 0.1784 0.13292 0.39647-0.2045 0.21806-0.33742 0.39646-0.79754 0.39646-1.0225z" fill="#999"/>
    <path id="path3538" d="m148.98 259.36c0-0.57564-0.16677-0.94356-0.3706-0.81758-0.20383 0.12597-0.27439 0.59695-0.1568 1.0466 0.29429 1.1254 0.5274 1.0241 0.5274-0.22905z" fill="#ccc"/>
    <path id="path3536" d="m208.66 257.75c0.0123-0.22494-0.15593-0.13292-0.37399 0.2045s-0.38635 0.88957-0.37399 1.227c0.0237 0.64779 0.70539-0.65676 0.74798-1.4315z" fill="#b3b3b3"/>
    <path id="path3534" d="m167.78 256.86c0.007-0.26396 0.65718-1.3238 1.4445-2.3553 0.78732-1.0314 1.4315-2.0172 1.4315-2.1905 0-0.17332 0.66291-0.99763 1.4731-1.8318 0.81023-0.83417 2.1674-2.4817 3.016-3.6611l1.5428-2.1445-1.6867-1.5435c-0.9277-0.84891-2.653-2.0329-3.834-2.631-1.181-0.59815-2.1472-1.2415-2.1472-1.4297 0-0.18816-0.45751-0.34212-1.0167-0.34212-0.72979 0-1.3165 0.453-2.079 1.6053-0.58428 0.88291-1.3231 1.7054-1.6418 1.8276-0.63608 0.24409-0.77731 1.4952-0.23806 2.109 0.60949 0.69367 1.661 4.0231 1.8666 5.91 0.11026 1.0123 0.32976 3.3571 0.48778 5.2108 0.24827 2.9124 0.36073 3.2736 0.82775 2.6585 0.29725-0.3915 0.54631-0.92778 0.55346-1.1917z" fill="#ccc"/>
    <path id="path3532" d="m246.24 257.74c-0.12592-0.12592-0.35462 0.10107-0.50821 0.50443-0.22195 0.5829-0.17498 0.62988 0.22896 0.22896 0.27951-0.27744 0.40518-0.60746 0.27925-0.73339z" fill="#b3b3b3"/>
    <path id="path3530" d="m121.23 252.07c0.73766-2.0047 0.61165-3.4672-0.17726-2.0575-0.69106 1.2349-2.3326 5.973-2.3132 6.6769 0.0224 0.81279 1.5002-1.9282 2.4904-4.6194z" fill="#999"/>
    <path id="path3528" d="m149.63 256.19c0.41416-1.0793 4.2912-3.6313 6.603-4.3463 1.3012-0.40245 3.1941-1.2135 4.2064-1.8023 1.0123-0.58883 2.121-1.0728 2.4638-1.0755 0.53549-0.004 0.56687-0.37966 0.22264-2.6634-0.25568-1.6963-0.5923-2.6585-0.9301-2.6585-1.1215 0-0.42273-1.2161 2.3336-4.0613 1.5746-1.6254 2.863-3.0689 2.863-3.2078 0-0.13889 0.49272-0.76682 1.0949-1.3954 0.60221-0.62857 0.96822-1.2696 0.81335-1.4244-0.15486-0.15487-1.0617 0.60178-2.0152 1.6814-1.0601 1.2004-2.5671 2.3319-3.879 2.9124-2.2441 0.99312-2.7231 1.6568-3.1676 4.3888-0.18263 1.1225-0.51851 1.6534-1.2133 1.9175-0.52842 0.2009-1.0832 0.56347-1.233 0.8057-0.14971 0.24223-0.87764 0.69339-1.6176 1.0026-0.73999 0.30918-2.0547 1.4107-2.9216 2.4478s-1.769 1.8856-2.0047 1.8856c-0.74111 0-3.0792 4.0362-3.0792 5.3155 0 0.91582 1.133 1.1312 1.4606 0.27761z" fill="#ccc"/>
    <path id="path3526" d="m159.02 248.57c-0.26933-0.43578 0.8506-3.1447 1.4544-3.5179 0.25105-0.15516 0.84944 0.11089 1.3298 0.59121 0.64909 0.6491 0.76904 1.0386 0.46718 1.5172-0.50771 0.80489-2.9663 1.8707-3.2513 1.4095z" fill="#ccc"/>
    <path id="path3524" d="m211.38 250.39c0.19983-0.85656 0.15556-1.1035-0.14661-0.81799-0.23808 0.22495-0.56168 0.96114-0.71911 1.636-0.19982 0.85655-0.15556 1.1035 0.14662 0.81799 0.23807-0.22495 0.56167-0.96114 0.7191-1.636z" fill="#b3b3b3"/>
    <path id="path3522" d="m174.75 249.78c0-0.22495-0.18405-0.409-0.409-0.409s-0.409 0.18405-0.409 0.409c0 0.22494 0.18405 0.40899 0.409 0.40899s0.409-0.18405 0.409-0.40899z" fill="#ccc"/>
    <path id="path3520" d="m211.16 246.12c-0.24709-0.46169-0.62838-0.83943-0.84732-0.83943-0.25221 0-0.25787 0.26227-0.0155 0.71575 0.21043 0.39366 0.51655 1.0838 0.68025 1.5337 0.25778 0.70841 0.32004 0.72498 0.46472 0.12369 0.0919-0.38187-0.0351-1.0721-0.28218-1.5337z" fill="#b3b3b3"/>
    <path id="path3518" d="m252.05 245.48c0.28003-0.33742 0.41713-0.61349 0.30466-0.61349-0.11248 0-0.43362 0.27607-0.71366 0.61349s-0.41713 0.6135-0.30466 0.6135c0.11248 0 0.43362-0.27608 0.71366-0.6135z" fill="#b3b3b3"/>
    <path id="path3516" d="m158.56 240.27c0.17207-0.96803 0.11495-1.5337-0.15489-1.5337-0.23515 0-0.42753 0.25307-0.42753 0.56237 0 0.30931-0.11637 1.1835-0.25859 1.9427-0.174 0.92885-0.12333 1.2466 0.15489 0.97137 0.22741-0.22495 0.53617-1.0992 0.68612-1.9427z" fill="#ccc"/>
    <path id="path3514" d="m207.06 241.39c-0.28003-0.33742-0.6932-0.61349-0.91815-0.61349-0.22815 0-0.18386 0.27127 0.10016 0.61349 0.28003 0.33743 0.6932 0.6135 0.91815 0.6135 0.22815 0 0.18386-0.27127-0.10016-0.6135z" fill="#ccc"/>
    <path id="path3512" d="m215.8 239.75c-0.12949-0.33743-0.394-0.6135-0.58782-0.6135-0.19383 0-0.24647 0.27607-0.11699 0.6135 0.12949 0.33742 0.394 0.61349 0.58782 0.61349 0.19383 0 0.24647-0.27607 0.11699-0.61349z" fill="#b3b3b3"/>
    <path id="path3510" d="m219.89 235.9c-0.3535-0.39163-1.0343 0.75556-0.73545 1.2392 0.23728 0.38393 0.39624 0.31308 0.60833-0.27111 0.1579-0.43496 0.21511-0.8706 0.12712-0.96808z" fill="#b3b3b3"/>
    <path id="path3508" d="m229.96 236.07c0-0.31087-0.18405-0.67896-0.409-0.81799-0.23288-0.14393-0.40899 0.2083-0.40899 0.81799 0 0.6097 0.17611 0.96193 0.40899 0.818 0.22495-0.13903 0.409-0.50713 0.409-0.818z" fill="#b3b3b3"/>
    <path id="path3506" d="m200.93 235.72c0-0.3093 0.55215-0.6728 1.227-0.80777 1.3617-0.27234 1.6824-1.0838 0.42824-1.0838-0.66046 0-2.6268 0.66333-3.2472 1.0954-0.24805 0.17275 0.82825 1.3586 1.2331 1.3586 0.19741 0 0.35892-0.25306 0.35892-0.56237z" fill="#ccc"/>
    <path id="path3504" d="m206.82 233.58c0.98518-0.37805 0.39507-0.89579-0.76766-0.67352-0.56512 0.10803-0.92675 0.35942-0.80362 0.55864 0.26266 0.42499 0.68305 0.45572 1.5713 0.11488z" fill="#ccc"/>
    <path id="path3502" d="m231.44 232.71c-0.13591-0.1359-0.23258 0.10566-0.21482 0.53681 0.0196 0.47646 0.11654 0.57337 0.2471 0.2471 0.11815-0.29524 0.10362-0.648-0.0323-0.78391z" fill="#b3b3b3"/>
    <path id="path3500" d="m210.72 229.43c-0.0524-2.9389-1.1489-8.2822-1.6997-8.2822-0.23592 0-0.28114 0.30559-0.10591 0.71575 0.16819 0.39366 0.33879 1.0838 0.37913 1.5337 0.0403 0.4499 0.22222 2.5204 0.40421 4.6012 0.36352 4.1563 1.0889 5.1721 1.0223 1.4315z" fill="#b3b3b3"/>
    <path id="path3498" d="m240.6 227.78c0-0.17708-0.41179-0.35298-0.91509-0.3909-0.71918-0.0542-0.78485 0.0134-0.30675 0.3157 0.74781 0.47281 1.2218 0.50198 1.2218 0.0752z" fill="#b3b3b3"/>
    <path id="path3492" d="m213.4 213.37c-0.13902-0.22494-0.43682-0.40899-0.66177-0.40899s-0.29525 0.18405-0.15622 0.40899c0.13902 0.22495 0.43682 0.409 0.66177 0.409s0.29525-0.18405 0.15622-0.409z" fill="#b3b3b3"/>
    <path id="path3490" d="m205.67 209.05c-0.13654-0.35582-0.24826-0.72392-0.24826-0.818 0-0.0941-0.28254-0.17104-0.62788-0.17104-0.50115 0-0.53952 0.16511-0.19011 0.81799 0.51665 0.96535 1.4271 1.1114 1.0662 0.17105z" fill="#b3b3b3"/>
    <path id="path3488" d="m201.74 207.27c0.30425-1.2888 1.225-1.5811 1.5129-0.48027 0.19595 0.74932 0.94776 1.254 0.94776 0.63628 0-0.50165-1.2149-2.528-1.8135-3.0248-0.35226-0.29234-0.64047-0.88287-0.64047-1.3123 0-0.89545-0.9138-1.3718-1.9033-0.99208-0.6198 0.23784-0.62134 0.30126-0.0184 0.7595 1.1784 0.89564 1.6171 2.7336 0.91006 3.8128-0.81862 1.2494-0.79127 1.8918 0.0734 1.7253 0.3838-0.0739 0.80299-0.57989 0.93153-1.1244z" fill="#b3b3b3"/>
    <path id="path3486" d="m194.38 180.22c0-0.46318-0.18405-0.72839-0.409-0.58936-0.22494 0.13903-0.40899 0.51799-0.40899 0.84213 0 0.32415 0.18405 0.58936 0.40899 0.58936 0.22495 0 0.409-0.37896 0.409-0.84213z" fill="#666"/>
    <path id="path3484" d="m193.89 175.53c-0.12592-0.12593-0.35462 0.10107-0.50821 0.50443-0.22195 0.5829-0.17497 0.62988 0.22896 0.22895 0.27952-0.27743 0.40518-0.60745 0.27925-0.73338z" fill="#666"/>
    <path id="path3482" d="m195.45 175.45c-0.13591-0.1359-0.23257 0.10566-0.21482 0.53681 0.0196 0.47646 0.11654 0.57337 0.2471 0.2471 0.11815-0.29524 0.10362-0.648-0.0323-0.78391z" fill="#666"/>
    <path id="path3480" d="m197.48 174.52c0.35472 0 0.15394-2.4163-0.21998-2.6474-0.56234-0.34755-1.7916 1.6988-1.491 2.4822 0.15176 0.39548 0.51028 0.56032 0.89641 0.41215 0.35392-0.13581 0.72047-0.24693 0.81455-0.24693z" fill="#666"/>
    <path id="path3478" d="m199.43 172.4c0.26707-1.0213-0.0176-1.6871-0.57433-1.343-0.48454 0.29946-0.50137 2.232-0.0194 2.232 0.19871 0 0.4659-0.40004 0.59376-0.88897z" fill="#666"/>
    <path id="path3476" d="m194.79 171.56c0-0.2502 0.27389-0.75755 0.60863-1.1274 0.33476-0.36989 0.72586-1.2586 0.86912-1.9749 0.20729-1.0364 0.12475-1.3024-0.40414-1.3024-0.41611 0-0.66519 0.34408-0.66615 0.92024-0.00081 0.50613-0.37296 1.5295-0.82693 2.2741s-0.71664 1.5298-0.5837 1.7449c0.29364 0.47513 1.0032 0.0971 1.0032-0.53444z" fill="#666"/>
    <path id="path3474" d="m164.93 170.84c0-0.22495-0.36809-0.409-0.81799-0.409s-0.81799 0.18405-0.81799 0.409 0.36809 0.409 0.81799 0.409 0.81799-0.18405 0.81799-0.409z" fill="#666"/>
    <path id="path3472" d="m193.51 169.8c0.12928-0.66712 0.0603-0.69716-0.51124-0.22278-0.7817 0.64875-0.87903 1.407-0.14943 1.1641 0.28119-0.0936 0.57849-0.51721 0.66067-0.9413z" fill="#666"/>
    <path id="path3470" d="m169.02 170c0-0.23823-0.18405-0.31939-0.409-0.18036-0.22494 0.13902-0.40899 0.33393-0.40899 0.43313s0.18405 0.18036 0.40899 0.18036c0.22495 0 0.409-0.19491 0.409-0.43313z" fill="#666"/>
    <path id="path3468" d="m188.04 169.61c-0.13903-0.22495-0.43682-0.409-0.66177-0.409s-0.29525 0.18405-0.15622 0.409c0.13902 0.22495 0.43682 0.409 0.66177 0.409 0.22494 0 0.29525-0.18405 0.15622-0.409z" fill="#666"/>
    <path id="path3466" d="m174.35 167.06c2.4067-0.75113 2.1819-1.712-0.31319-1.3385-2.2865 0.34221-2.5562 0.47491-2.5562 1.2577 0 0.72294 0.74467 0.74391 2.8694 0.0808z" fill="#666"/>
    <path id="path3464" d="m181.09 166.75c-0.13903-0.22495-0.33394-0.409-0.43314-0.409s-0.18036 0.18405-0.18036 0.409 0.19491 0.409 0.43314 0.409c0.23822 0 0.31938-0.18405 0.18036-0.409z" fill="#666"/>
    <path id="path3462" d="m189.47 165.42c0.004-0.45881-0.30536-0.71574-0.86181-0.71574-0.67983 0-0.76929 0.11902-0.41255 0.54888 0.25054 0.30188 0.34667 0.65773 0.21362 0.79078-0.13304 0.13304-0.10844 0.45785 0.0547 0.72178 0.36448 0.58974 0.99652-0.25566 1.0061-1.3457z" fill="#666"/>
    <path id="path3460" d="m174.78 163.66c1.6149-0.22061 1.9312-0.427 2.3484-1.5322 0.26515-0.70246 0.33982-1.4195 0.16594-1.5934-0.56993-0.56993-2.9491-0.8786-2.9491-0.38261 0 0.25306 0.37896 0.46012 0.84213 0.46012s0.72838 0.18405 0.58936 0.409c-0.13903 0.22494-0.83 0.40899-1.5355 0.40899-0.83479 0-1.6833 0.38379-2.4298 1.099-1.4488 1.388-1.4558 1.8898-0.0224 1.6075 0.6186-0.12183 1.9646-0.33624 2.991-0.47647z" fill="#666"/>
    <path id="path3458" d="m179.25 163.89c0-0.22494-0.18405-0.40899-0.409-0.40899s-0.40899 0.18405-0.40899 0.40899c0 0.22495 0.18404 0.409 0.40899 0.409s0.409-0.18405 0.409-0.409z" fill="#666"/>
    <path id="path3456" d="m189.47 161.25c0-0.32414-0.17133-0.69524-0.38074-0.82466-0.48625-0.30052-0.97529 0.46534-0.64175 1.005 0.37609 0.60854 1.0225 0.49452 1.0225-0.18036z" fill="#666"/>
    <path id="path3454" d="m182.93 160.61c0-0.22495-0.46012-0.409-1.0225-0.409-0.56237 0-1.0225 0.18405-1.0225 0.409s0.46012 0.409 1.0225 0.409c0.56237 0 1.0225-0.18405 1.0225-0.409z" fill="#666"/>
    <path id="path3452" d="m185.59 159.8c0.13903-0.22495 0.0687-0.409-0.15622-0.409-0.22495 0-0.52275 0.18405-0.66177 0.409-0.13903 0.22494-0.0687 0.40899 0.15622 0.40899 0.22495 0 0.52274-0.18405 0.66177-0.40899z" fill="#666"/>
    <path id="path3450" d="m183.62 158.31c-0.1166-0.11659-0.6419-0.13701-1.1674-0.0454l-0.95536 0.16662 1.0225 0.43018c0.92982 0.3912 1.6712 0.0196 1.1002-0.55142z" fill="#666"/>
    <path id="path3448" d="m163.71 155.71c-0.80577-0.52073-1.7533-0.52073-1.4315 0 0.13903 0.22495 0.65603 0.40618 1.1489 0.40273 0.72852-0.005 0.78138-0.0804 0.28261-0.40273z" fill="#666"/>
    <path id="path3446" d="m185.61 155.06c-0.43631-0.31903-1.1722-0.57234-1.6354-0.56291-0.65155 0.0132-0.5182 0.18996 0.58942 0.78098 1.5813 0.8438 2.2947 0.69507 1.0459-0.21807z" fill="#666"/>
    <path id="path3444" d="m180.07 153.87c0-0.34083 0.36356-0.61349 0.818-0.61349 0.48067 0 0.81799-0.27267 0.81799-0.6612 0-0.45097-0.25002-0.59581-0.78635-0.45556-1.3415 0.35081-5.3681-2.7377-5.947-4.5615-0.25532-0.80444-0.52426-0.89237-2.397-0.78366-1.5562 0.0903-2.1424 0.29629-2.2353 0.78531-0.0692 0.36457 0.20512 0.77741 0.60967 0.91741 1.2932 0.44753 4.3479 2.5084 4.5307 3.0567 0.0971 0.29124-0.21849 0.63284-0.70129 0.75909-1.4958 0.39115-0.67686 1.1313 1.6169 1.4614 1.204 0.17327 2.2777 0.40368 2.3861 0.51201 0.43498 0.43498 1.2876 0.15916 1.2876-0.41653z" fill="#666"/>
    <path id="path3442" d="m138.35 152.59c0-0.33742-0.18405-0.49975-0.409-0.36072-0.22494 0.13902-0.40899 0.52884-0.40899 0.86626 0 0.33743 0.18405 0.49975 0.40899 0.36073 0.22495-0.13903 0.409-0.52885 0.409-0.86627z" fill="#666"/>
    <path id="path3440" d="m159.62 152.84c0-0.22495-0.27607-0.409-0.61349-0.409s-0.6135 0.18405-0.6135 0.409 0.27608 0.409 0.6135 0.409 0.61349-0.18405 0.61349-0.409z" fill="#666"/>
    <path id="path3438" d="m187.65 151.99c0.65054-1.258 0.56457-2.4171-0.17929-2.4171-0.2147 0-0.9765 0.58613-1.6929 1.3025-1.2214 1.2213-1.2567 1.336-0.56678 1.8405 1.1326 0.82814 1.7268 0.65128 2.439-0.72593z" fill="#666"/>
    <path id="path3436" d="m153.07 152.41c0-0.23823-0.18405-0.31939-0.409-0.18036-0.22495 0.13902-0.409 0.33393-0.409 0.43313s0.18405 0.18036 0.409 0.18036 0.409-0.19491 0.409-0.43313z" fill="#666"/>
    <path id="path3434" d="m163.93 151.58c0.42148-0.68196-0.52646-1.464-1.0907-0.89979-0.47194 0.47195-0.17657 1.3444 0.45517 1.3444 0.19839 0 0.48437-0.20009 0.63551-0.44464z" fill="#666"/>
    <path id="path3432" d="m139.44 149.39c-0.13529-0.35254-0.4358-0.64099-0.66781-0.64099-0.47055 0-0.57804 1.3434-0.14235 1.7791 0.449 0.449 1.0794-0.43658 0.81016-1.1382z" fill="#666"/>
    <path id="path3430" d="m148.47 148.1c-0.52001-0.52001-1.5287 0.23201-1.5287 1.1397v0.92172l0.89752-0.89752c0.49364-0.49364 0.77765-1.0174 0.63114-1.1639z" fill="#666"/>
    <path id="path3428" d="m185.79 149.58c0-0.42158-2.1148-1.6465-2.8427-1.6465-0.23612 0-0.42931 0.15907-0.42931 0.3535 0 0.28193 1.04 0.82389 3.1697 1.6517 0.0562 0.0218 0.10225-0.13958 0.10225-0.35875z" fill="#666"/>
    <path id="path3426" d="m162.89 148.96c0-0.38173-0.38627-0.61349-1.0225-0.61349-0.99299 0-1.3059 0.39825-0.74983 0.95432 0.51451 0.51451 1.7723 0.27263 1.7723-0.34083z" fill="#666"/>
    <path id="path3424" d="m273.69 145.34c0.96416-1.6176 1.5269-2.2103 1.82-1.9172 0.72268 0.72267 1.0788 0.47348 1.0788-0.75492 0-0.87666 0.23616-1.2431 0.92025-1.4278 0.89551-0.24186 0.8879-0.26557-0.28334-0.88234-1.1721-0.61723-1.229-0.60128-2.1769 0.60983-0.53531 0.68401-1.2075 1.2436-1.4938 1.2436-0.97116 0-1.7638 1.424-2.0081 3.6075-0.31289 2.797 0.26784 2.6673 2.143-0.47874z" fill="#fff"/>
    <path id="path3422" d="m145.9 146.68c-0.3506-0.5673-0.59602-0.46152-0.59602 0.2569 0 0.35069 0.18705 0.52202 0.41566 0.38073 0.22862-0.14129 0.30979-0.42823 0.18036-0.63763z" fill="#666"/>
    <path id="path3420" d="m140.73 145.75c0.19139-0.98683-0.60893-0.84017-0.87034 0.1595-0.13996 0.5352-0.0457 0.78331 0.25904 0.68185 0.26349-0.0877 0.53857-0.46633 0.6113-0.84135z" fill="#666"/>
    <path id="path3418" d="m173.93 144.24c-0.79026-0.49962-1.6326-0.50455-1.6326-0.01 0 0.21377 0.32209 0.5704 0.71575 0.79252 0.93445 0.52725 1.8085-0.21921 0.91682-0.78297z" fill="#666"/>
    <path id="path3416" d="m158.39 140.17c0-0.1708-0.95847-0.40264-2.1299-0.5152-1.1715-0.11257-2.1994-0.4132-2.2844-0.66808-0.23004-0.69013-0.9026-0.11777-0.9026 0.76811 0 0.59359 0.35011 0.79815 1.5337 0.89611 1.9325 0.15994 3.7832-0.0753 3.7832-0.48094z" fill="#666"/>
    <path id="path3414" d="m183.54 139.75c-0.13903-0.22494-0.33394-0.40899-0.43314-0.40899s-0.18036 0.18405-0.18036 0.40899c0 0.22495 0.19491 0.409 0.43314 0.409 0.23822 0 0.31938-0.18405 0.18036-0.409z" fill="#666"/>
    <path id="path3404" d="m87.633 311.36c0-0.4182-0.36758-0.64348-1.0499-0.64348-1.0293 0-1.0488-0.0542-0.99146-2.7607 0.0778-3.6735 0.065-3.7832-0.43988-3.7832-0.23996 0-1.0596-0.47539-1.8213-1.0564-1.8784-1.4328-2.8085-4.5917-2.5511-8.6648 0.20832-3.2966 0.28193-3.2106-2.9622-3.4608-1.3086-0.10093-1.4806-0.26848-2.0028-1.9509-0.31423-1.0123-0.70284-2.2086-0.86357-2.6585-0.57107-1.5985-1.2658-3.8608-1.4076-4.5835-0.0791-0.40339-0.45803-1.5153-0.84199-2.4708-0.38396-0.95557-0.60014-1.9927-0.4804-2.3048 0.11975-0.31206-0.0234-0.91162-0.31809-1.3324-0.2947-0.42074-0.7282-1.4081-0.96334-2.1942-0.23514-0.78606-0.98609-2.9936-1.6688-4.9057-0.68268-1.9121-1.2476-3.7689-1.2553-4.1264-0.008-0.35744-0.52018-1.3323-1.1388-2.1663-1.3647-1.84-5.0113-6.3841-5.7226-7.1312-0.28303-0.29725-0.5146-0.71678-0.5146-0.93228 0-0.36557-1.9273-3.0518-4.226-5.8901-1.276-1.5756-1.4272-4.6526-0.94134-19.159l0.35407-10.571 1.1528-1.3129c0.63402-0.72212 1.855-1.6516 2.7134-2.0655 0.85836-0.41391 1.8764-0.90713 2.2623-1.096 0.3859-0.18891 2.0423-0.7321 3.681-1.2071 11.255-3.2624 12.279-3.0263 17.288 3.986 2.2366 3.1312 5.2854 7.5185 5.7326 8.2494 0.22495 0.36764 1.0072 1.395 1.7382 2.2831 0.73108 0.88804 1.3292 1.7851 1.3292 1.9934 0 0.20832 0.52619 1.0494 1.1693 1.8691 1.3816 1.7609 1.5887 2.7692 1.902 9.2613 0.13029 2.6994 0.41335 5.8282 0.62902 6.9529 0.21567 1.1248 0.33446 4.2933 0.26397 7.0412-0.0941 3.6698 0.005 5.0474 0.37387 5.1889 0.27612 0.10596 0.60351-0.0718 0.72754-0.39502 0.31734-0.82697 2.0394-0.73133 2.8442 0.15796 0.37114 0.4101 0.79347 1.6114 0.93851 2.6696s0.42206 2.0219 0.61559 2.1415 0.35187 0.77155 0.35187 1.4488c0 1.043-0.14076 1.2113-0.92024 1.1006-0.69568-0.0988-1.0531-0.57982-1.4645-1.9712-1.1571-3.9128-1.3303-4.1843-2.4852-3.8961-4.3373 1.0825-4.6516 0.93061-3.908-1.8886 0.31234-1.184 0.46722-2.2534 0.34418-2.3763-0.12304-0.12293-1.2284-0.22352-2.4564-0.22352-2.1765 0-2.2262 0.0257-1.9775 1.0217 0.34829 1.3942 0.41069 1.4149 1.3724 0.45319 0.94048-0.94048 2.0883-0.74999 2.0883 0.34656 0 0.39127-0.28816 1.289-0.64035 1.995-0.60427 1.2113-0.75988 1.2791-2.7607 1.203-1.4151-0.0538-3.2974 0.30802-5.6592 1.0878-3.3511 1.1064-4.8456 1.1844-4.8456 0.25281 0-0.22772 0.50613-0.52476 1.1247-0.66007 2.6492-0.57951 8.023-2.4125 7.4289-2.534-0.65551-0.13407-3.2877 0.39143-4.5176 0.90191-0.9752 0.40477-2.909-1.5108-2.7386-2.7128 0.10129-0.71477 0.53409-1.0535 1.7701-1.3853 0.89979-0.24155 2.0961-0.65739 2.6585-0.9241 0.92626-0.43927 0.86852-0.46224-0.6135-0.24401-2.8017 0.41256-4.6854 0.28172-5.722-0.39746-0.54874-0.35955-1.0962-0.65373-1.2166-0.65373-0.58163 0-0.082 1.3482 1.2126 3.272 0.78732 1.17 1.4315 2.2007 1.4315 2.2906s-0.35174 0.1634-0.78164 0.1634c-0.74393 0-2.609-1.8287-3.0087-2.9501-0.10319-0.28949-0.30753-0.41631-0.45408-0.28181-0.28615 0.26263 1.6073 3.8884 2.2323 4.2747 0.57393 0.35471 0.44802 1.4112-0.1682 1.4112-0.29941 0-0.77065-0.4228-1.0472-0.93955-0.6473-1.2095-2.0894-2.1724-2.0894-1.3952 0 0.29434 0.22291 0.75806 0.49534 1.0305 0.81211 0.81211-0.90269 2.204-2.7153 2.204-0.90294 0-1.4426 0.17794-1.3532 0.44617 0.17141 0.51423 4.8082 0.42169 5.3513-0.1068 0.19065-0.18553 0.8679-0.0382 1.505 0.32748 0.97666 0.56053 1.2345 1.0833 1.6434 3.3323 0.26674 1.4671 0.83181 3.4731 1.2557 4.4577 0.4239 0.98462 0.77073 2.2267 0.77073 2.7602 0 0.53346 0.62397 2.8567 1.3866 5.1627 1.816 5.4911 2.6522 10.464 1.8456 10.974-0.48188 0.30508-0.47551 0.36206 0.0397 0.35589 0.33742-0.004 1.0276-0.35281 1.5337-0.77504 1.0785-0.8997 1.155-2.404 0.49928-9.8127-0.4299-4.8571-0.38725-4.7506-2.9533-7.3813-1.3718-1.4064-1.4716-3.2088-0.32159-5.8086 0.91325-2.0646 1.6454-2.8048 3.7317-3.7727 1.1379-0.52795 1.7193-0.58501 2.5895-0.25417 1.4449 0.54934 1.169 1.3455-0.59097 1.7055-0.75951 0.15534-1.6137 0.62019-1.8982 1.033-0.2845 0.41282-0.7076 0.97287-0.94022 1.2446-0.91445 1.068-0.0276 3.3351 1.8511 4.7323 0.92132 0.68517 1.0971 0.68837 3.033 0.0552 1.6814-0.54997 2.055-0.84414 2.055-1.6184 0-1.1421 1.1737-2.4485 1.7141-1.9081 0.42222 0.42222 0.0125 2.5394-0.49147 2.5394-0.17856 0-0.51713 0.55214-0.75239 1.227-0.23525 0.67484-0.60895 1.227-0.83044 1.227s-0.51067 0.34017-0.64263 0.75592c-0.13196 0.41577-0.66577 0.94996-1.1862 1.1871-0.90852 0.41395-0.93251 0.54303-0.60053 3.2318 0.35953 2.9118 0.59435 14.554 0.37623 18.653-0.074 1.3903-0.34367 2.4794-0.65831 2.6585-0.29314 0.16686-0.66309 1.1776-0.8221 2.2461l-0.2891 1.9427h1.2734c1.4737 0 1.6339 0.47887 0.42806 1.2795-0.70579 0.46863-0.85772 1.0331-0.92024 3.419-0.0619 2.3608-0.19933 2.8816-0.79062 2.995-0.43658 0.0838-0.71575-0.11365-0.71575-0.50615z"/>
    <path id="path3390" d="m72.533 257.52c-0.4101-0.91598-0.95324-1.873-1.207-2.1268-0.25375-0.25375-0.46136-0.75668-0.46136-1.1176 0-0.36095-0.66079-1.3777-1.4684-2.2594-0.80762-0.88173-1.7247-2.068-2.038-2.6362-0.6896-1.2506-2.6236-3.6031-2.6265-3.1948-0.007 1.0023 7.7555 13 8.411 13 0.0748 0-0.19958-0.74944-0.60968-1.6654z" fill="#ececec"/>
    <path id="path3388" d="m70.339 257.25c-0.37491-0.37491-0.82379-0.53953-0.9975-0.36582-0.17371 0.17372 0.0385 0.57497 0.47165 0.89168 1.0213 0.74677 1.4099 0.35816 0.52585-0.52586z" fill="#ececec"/>
    <path id="path3386" d="m67.84 253.57c-0.41576-0.41575-0.7588 0.21018-0.41768 0.76211 0.25768 0.41694 0.35402 0.41727 0.49255 0.002 0.0947-0.28417 0.061-0.62786-0.0749-0.76377z" fill="#ececec"/>
    <path id="path3384" d="m73.318 254.11c0-0.31336-0.27608-0.67567-0.6135-0.80516-0.33742-0.12948-0.61349-0.50075-0.61349-0.82504 0-0.3243-0.50614-1.364-1.1247-2.3105-1.7666-2.7029-1.5958-0.863 0.18444 1.9864 1.5482 2.4781 2.1673 3.0364 2.1673 1.9543z" fill="#ececec"/>
    <path id="path3382" d="m83.633 253.35c0.84008-0.65577 1.4012-4.5944 0.71499-5.0185-0.59167-0.36567-1.0232 0.28271-1.6891 2.538-0.57529 1.9484-1.6457 2.4858-3.0796 1.5463-1.0862-0.71173-1.3528-0.74538-1.3528-0.1708 0 0.55849 2.3645 1.5797 3.705 1.6002 0.57561 0.009 1.3413-0.21406 1.7015-0.49524z" fill="#ececec"/>
    <path id="path3380" d="m92.132 251.21c0-1.6497-0.16955-2.6585-0.44682-2.6585-0.29687 0-0.37279 0.78922-0.22621 2.3517 0.12133 1.2934 0.23038 2.4898 0.24232 2.6585 0.0119 0.16871 0.11374 0.30674 0.22622 0.30674 0.11247 0 0.20449-1.1963 0.20449-2.6585z" fill="#ececec"/>
    <path id="path3378" d="m89.894 249.47c-0.37399-4.6183-1.0263-5.359-0.76115-0.86429 0.21407 3.6289 0.35796 4.443 0.78525 4.443 0.14614 0 0.1353-1.6104-0.0241-3.5787z" fill="#ececec"/>
    <path id="path3376" d="m77.987 246.77c0.20256-0.85748 0.13556-1.1189-0.25394-0.99099-0.29099 0.0956-0.58822 0.80377-0.66049 1.5738-0.15308 1.6309 0.48804 1.2223 0.91443-0.58277z" fill="#ececec"/>
    <path id="path3374" d="m63.724 247.35c-0.14828-0.23992-0.46532-0.43621-0.70453-0.43621-0.27121 0-0.24017 0.23467 0.0824 0.62338 0.56096 0.67591 1.0623 0.52507 0.62211-0.18717z" fill="#ececec"/>
    <path id="path3372" d="m69.228 247.68c0-0.61824-2.7054-5.0372-3.4748-5.6758-1.2226-1.0147-0.65526 0.83603 1.0778 3.5158 1.6002 2.4744 2.397 3.1924 2.397 2.16z" fill="#ececec"/>
    <path id="path3370" d="m91.432 244.15c-0.2286-2.521-0.93793-3.6056-0.93351-1.4273 0.002 1.2118 0.7818 4.3625 1.0201 4.1241 0.0796-0.0796 0.0407-1.2932-0.0866-2.6968z" fill="#ececec"/>
    <path id="path3368" d="m84.77 245.67c0-0.71461-2.941-1.6398-4.3641-1.3728-2.1151 0.3968-2.1695 1.0924-0.0607 0.77611 1.4505-0.21751 1.9915-0.11247 2.8024 0.5441 0.98103 0.79438 1.6224 0.81518 1.6224 0.0526z" fill="#ececec"/>
    <path id="path3366" d="m64.32 245.28c0-0.22495-0.19491-0.40899-0.43314-0.40899-0.23822 0-0.31938 0.18404-0.18036 0.40899 0.13903 0.22495 0.33394 0.409 0.43314 0.409s0.18036-0.18405 0.18036-0.409z" fill="#ececec"/>
    <path id="path3364" d="m61.179 243.79c-0.38861-0.59309-0.77831-0.86308-0.866-0.6-0.25708 0.77124 0.24924 1.6784 0.93679 1.6784 0.55712 0 0.54836-0.1334-0.0708-1.0784z" fill="#ececec"/>
    <path id="path3362" d="m62.811 238.63c-0.1178-2.7556-0.19449-5.2863-0.17043-5.6237 0.024-0.33742 0.15728-3.6871 0.29604-7.4438 0.22308-6.0391 0.34376-6.9131 1.0418-7.5448 0.83073-0.75179 5.4044-2.2805 9.5448-3.1903 1.3497-0.29656 2.9141-0.73312 3.4765-0.97014 0.95311-0.4017 0.91038-0.43271-0.62982-0.45687-0.90877-0.0143-2.7492 0.27333-4.09 0.6391-1.3407 0.36576-3.1739 0.79944-4.0736 0.96375-1.8287 0.33391-5.9193 1.8998-6.5344 2.5014-0.52056 0.5091-0.33507 12.681 0.20144 13.218 0.59872 0.59872 0.48805 1.057-0.25528 1.057-0.51645 0-0.59447 0.24173-0.36299 1.1247 0.16216 0.61861 0.26994 2.9235 0.2395 5.1219-0.052 3.7531 0.33603 5.6143 1.1704 5.6143 0.19974 0 0.26483-2.2324 0.14609-5.0102z" fill="#ececec"/>
    <path id="path3360" d="m78.278 240.71c1.3383-0.40096 1.501-0.56654 1.07-1.089-0.40532-0.49128-0.40472-0.65101 0.003-0.78821 0.28118-0.0946 0.51124-0.54478 0.51124-1.0003 0-0.68908-0.17982-0.78312-1.0702-0.55965-0.58862 0.14774-1.6186 0.37828-2.2888 0.51233-1.1006 0.22012-1.195 0.36179-0.97477 1.4628 0.1341 0.67052 0.24382 1.3802 0.24382 1.577 0 0.4792 0.61719 0.45087 2.5059-0.11499z" fill="#ececec"/>
    <path id="path3358" d="m89.269 240.08c0-0.82249-0.11823-0.98606-0.46331-0.64098-0.25481 0.25481-0.35262 0.75174-0.21733 1.1043 0.3744 0.97569 0.68064 0.76724 0.68064-0.46331z" fill="#ececec"/>
    <path id="path3356" d="m90.057 235.7-0.89293-0.85181 0.29614 1.0225c0.16287 0.56237 0.50857 2.0348 0.76822 3.272l0.47209 2.2495 0.1247-2.4202c0.10568-2.051-0.0115-2.5501-0.76822-3.272z" fill="#ececec"/>
    <path id="path3354" d="m65.501 224.94 0.0466-5.4034 1.688-0.45453c1.0038-0.27031 1.5384-0.60415 1.3189-0.82367-0.21952-0.21953-0.96544-0.18614-1.8403 0.0824l-1.4712 0.45152-0.28912 3.9351c-0.49893 6.7908-0.66633 14.912-0.34248 16.614 0.36324 1.9094 0.81149-5.347 0.88963-14.401z" fill="#ececec"/>
    <path id="path3352" d="m81.907 237.85c0-1.4893-0.17854-1.4353-0.56375 0.17042-0.16018 0.6677-0.10047 1.1247 0.14696 1.1247 0.22924 0 0.41679-0.58282 0.41679-1.2952z" fill="#ececec"/>
    <path id="path3350" d="m79.453 234.64c0-0.52094-1.6479-0.52094-2.454 0-0.45634 0.2949-0.22061 0.39807 0.92024 0.40273 0.84356 0.003 1.5337-0.17779 1.5337-0.40273z" fill="#ececec"/>
    <path id="path3348" d="m91.723 234.29c0-0.19462-0.3339-0.79277-0.74199-1.3292-0.40809-0.53647-1.0807-1.7116-1.4946-2.6114-0.90623-1.9699-2.6179-4.2945-3.1623-4.2945-0.2166 0-0.0289 0.59816 0.41715 1.3292 0.44602 0.73108 1.2154 2.0654 1.7097 2.9652 1.6607 3.0229 2.5183 4.2945 2.8963 4.2945 0.2066 0 0.37564-0.15923 0.37564-0.35384z" fill="#ececec"/>
    <path id="path3346" d="m79.447 226.56c-0.003-1.5184-0.18468-3.0368-0.40274-3.3742-0.27372-0.42356-0.39841 0.43113-0.40273 2.7607-0.004 1.981 0.16261 3.3742 0.40273 3.3742 0.23289 0 0.4063-1.1887 0.40274-2.7607z" fill="#ececec"/>
    <path id="path3344" d="m71.08 225.75c-0.10434-0.28119 0.0609-0.51125 0.3672-0.51125 0.30629 0 0.66284 0.27607 0.79232 0.6135 0.27195 0.70868 1.0791 0.83105 1.0791 0.16359 0-0.46487-2.5911-3.2311-3.0266-3.2311-0.33074 0-0.30237 3.6306 0.0383 4.9049l0.27256 1.0194 0.33339-1.2239c0.18336-0.67316 0.24802-1.454 0.14369-1.7352z" fill="#ececec"/>
    <path id="path3342" d="m81.089 227.87c0-0.3507-0.18405-0.52388-0.409-0.38486-0.22495 0.13903-0.409 0.42596-0.409 0.63764 0 0.21167 0.18405 0.38485 0.409 0.38485s0.409-0.28693 0.409-0.63763z" fill="#ececec"/>
    <path id="path3340" d="m84.361 227.74c0-0.19873-0.46013-0.44927-1.0225-0.55678-1.1483-0.21951-1.4205 0.34511-0.30674 0.63616 1.1769 0.30756 1.3292 0.29846 1.3292-0.0794z" fill="#ececec"/>
    <path id="path3338" d="m83.134 226.08c0-0.21167-0.18405-0.49861-0.409-0.63763-0.22495-0.13903-0.409 0.0342-0.409 0.38486 0 0.35069 0.18405 0.63763 0.409 0.63763s0.409-0.17319 0.409-0.38486z" fill="#ececec"/>
    <path id="path3336" d="m75.363 224.14c0-0.15421-0.3531-0.66035-0.78466-1.1247-0.43156-0.4644-0.94833-1.4885-1.1484-2.2758-0.29387-1.1566-0.58472-1.4573-1.5146-1.5657-2.3354-0.27236-2.2273 0.68127 0.34417 3.0342 2.2678 2.0751 3.1035 2.5954 3.1035 1.9321z" fill="#ececec"/>
    <path id="path3334" d="m85.179 223.88c0-0.29443-0.28973-0.89258-0.64385-1.3292-0.62142-0.76625-0.63587-0.75828-0.41458 0.22858 0.1261 0.56237 0.23178 1.1605 0.23485 1.3292 0.01 0.54878 0.82358 0.32298 0.82358-0.22858z" fill="#ececec"/>
    <path id="path3332" d="m77.625 216.9c0.56369-0.21631 0.59906-0.38036 0.18865-0.87489-0.60262-0.7261-1.5013-0.79615-1.722-0.13422-0.087 0.26093-0.0754 1.0379 0.0256 1.7266 0.16325 1.1123 0.21896 1.157 0.49883 0.40046 0.17328-0.46843 0.62726-0.97149 1.0088-1.1179z" fill="#ececec"/>
    <path id="path3330" d="m71.887 217.46c0.13902-0.22495-0.12619-0.409-0.58936-0.409s-0.84213 0.18405-0.84213 0.409 0.26521 0.409 0.58936 0.409c0.32414 0 0.7031-0.18405 0.84213-0.409z" fill="#ececec"/>
    <path id="path3328" d="m79.624 310c-0.27207-1.2074-2.7728-9.2439-3.2453-10.429-0.17122-0.42957-0.0991-0.71574 0.18031-0.71574 0.25607 0 0.57154 0.32208 0.70104 0.71574s0.49182 1.2957 0.80516 2.0046c0.31334 0.70884 0.56971 1.4628 0.56971 1.6754 0 0.21263 0.2944 0.97675 0.65423 1.698 0.35984 0.7213 0.7535 2.406 0.8748 3.7438 0.22774 2.5115-0.0934 3.2892-0.53991 1.3076z"/>
    <path id="path3326" d="m92.309 310.26c-0.42948-0.69492-0.25295-6.8179 0.22217-7.7057 1.354-2.53 1.8973-8.5178 1.4677-16.175-0.43517-7.7556-0.47537-12.936-0.10217-13.167 0.19771-0.1222 0.66012 0.0785 1.0276 0.4459 0.54112 0.54112 0.69371 1.7745 0.80293 6.4901 0.0742 3.2021 0.21183 6.0563 0.30592 6.3426 0.13634 0.41493 0.45121 0.40355 1.5512-0.0561 0.75908-0.31716 2.1151-0.70083 3.0133-0.85259l1.6332-0.27593-0.73268-3.349c-0.40298-1.8419-1.0978-5.0054-1.5441-7.03-0.44629-2.0245-1.1062-4.3793-1.4664-5.2327-0.36025-0.85346-0.54626-1.7277-0.41336-1.9427 0.38918-0.6297 1.3612-0.45024 1.7589 0.32475 0.59797 1.1651 3.4813 13.186 3.9686 16.546 0.27194 1.8749 0.24923 1.9299-0.8893 2.1538-0.64261 0.12636-1.9966 0.43631-3.0089 0.68876-1.0123 0.25246-2.3466 0.54649-2.9652 0.6534-1.3063 0.22577-1.3196 0.33452-0.67929 5.5553 0.44081 3.5942 0.40494 3.8878-0.85769 7.0206-1.3259 3.2898-1.6808 4.6956-1.5958 6.3208 0.15079 2.8815 0.0123 3.6996-0.62634 3.6996-0.32415 0-0.71579-0.20457-0.87032-0.4546z"/>
    <path id="path3324" d="m75.508 297.33c-0.15389-0.61315-0.80156-2.2655-1.4393-3.672-1.3237-2.9193-1.4769-3.7567-0.54598-2.9841 0.33742 0.28004 0.61349 0.76617 0.61349 1.0803s0.55215 1.6058 1.227 2.8705c1.2389 2.3217 1.5628 3.8202 0.82579 3.8202-0.22067 0-0.52712-0.50166-0.68101-1.1148z"/>
    <path id="path3322" d="m72.418 289.63c-0.12771-0.21387-0.349-1.2171-0.49175-2.2293l-0.25954-1.8405 0.64615 1.7661c0.59072 1.6146 0.66495 3.2412 0.10514 2.3037z"/>
    <path id="path3320" d="m70.93 283.37c-0.56326-1.88-0.6069-2.9204-0.1225-2.9204 0.32886 0 1.008 4.0932 0.72598 4.3753-0.0709 0.0709-0.3425-0.58376-0.60348-1.4549z"/>
    <path id="path3318" d="m89.576 269.92c-0.39365-0.0896-0.71574-0.51758-0.71574-0.95098 0-0.43341-0.27607-0.78801-0.61349-0.78801-0.84579 0-0.77292-1.1162 0.10224-1.5663 0.82713-0.4254 1.6452-0.22213 2.6585 0.6606 1.411 1.2292 0.41705 3.0656-1.4315 2.6447z"/>
    <path id="path3316" d="m47.878 226.72c-0.60775-0.26974-1.528-0.86885-2.045-1.3314-1.7203-1.539-3.5802-2.6603-4.5149-2.722-1.1122-0.0735-1.9158-0.99459-1.9336-2.2163-0.0227-1.5667 0.7114-1.4295 2.728 0.50991 1.9728 1.8972 5.1996 4.2717 5.805 4.2717 0.38043 0 1.6789 1.3693 1.6789 1.7704 0 0.36835-0.40081 0.3025-1.7185-0.28233z"/>
    <path id="path3314" d="m34.361 221.47c-0.39366-0.40303-0.71574-1.1929-0.71574-1.7553 0-0.56237-0.20174-0.97648-0.4483-0.92024-0.24657 0.0562-0.60874-0.31186-0.80482-0.81799-0.27318-0.70515-0.21233-0.92025 0.26037-0.92025 0.6268 0 2.9946 1.5035 3.5427 2.2495 0.16526 0.22495 0.29365 0.68507 0.28529 1.0225-0.0105 0.42262-0.21491 0.32718-0.65712-0.30675-0.35306-0.50613-0.80353-0.92024-1.001-0.92024-0.51325 0-0.44423 1.3873 0.0959 1.9274 0.25026 0.25025 0.38829 0.61682 0.30675 0.81458-0.0815 0.19777-0.47035 0.0298-0.86401-0.37321z"/>
    <path id="path3312" d="m37.736 221.37c0-0.0992 0.18405-0.29411 0.40899-0.43314 0.22495-0.13902 0.409-0.0579 0.409 0.18036 0 0.23823-0.18405 0.43314-0.409 0.43314-0.22494 0-0.40899-0.0812-0.40899-0.18036z"/>
    <path id="path3310" d="m31.192 220.33c-0.45475-0.84971-0.16921-1.0142 0.98904-0.56974 0.35582 0.13654 0.64695 0.50464 0.64695 0.818 0 0.85698-1.1368 0.68448-1.636-0.24826z"/>
    <path id="path3308" d="m29.159 218.71c-0.33091-0.20927-0.46456-0.51759-0.29701-0.68514s0.61577 0.007 0.99604 0.38676c0.73921 0.73921 0.2967 0.9281-0.69903 0.29838z"/>
    <path id="path3306" d="m26.5 216.83c-0.44344-0.33523-1.0416-0.5192-1.3292-0.40882-0.63014 0.24181-0.70332-0.4319-0.0882-0.81206 0.23912-0.14779 0.75975 0.0254 1.157 0.38486 0.39719 0.35946 0.93774 0.65356 1.2012 0.65356 0.26347 0 0.47904 0.18405 0.47904 0.40899 0 0.56637-0.47015 0.49136-1.4198-0.22653z"/>
    <path id="path3304" d="m21.053 214c-0.38494-0.48938-0.79191-0.91051-0.90439-0.93585-0.97388-0.21944-2.3758-0.94811-2.7943-1.4523-0.28117-0.33878-0.94348-0.72446-1.4718-0.85707-0.52834-0.1326-1.0698-0.52572-1.2033-0.8736-0.52632-1.3716 0.99069-0.94892 4.0101 1.1172 1.7415 1.1917 3.534 2.3754 3.9832 2.6306 1.466 0.83243 1.5497 1.1711 0.30099 1.2165-0.80346 0.0292-1.4598-0.25974-1.9205-0.8454z"/>
    <path id="path3302" d="m84.931 211.26c-0.30177-0.48828-0.38339-1.8237-0.57061-9.3366-0.13542-5.4341-0.27637-6.0929-1.2492-5.8385-0.43737 0.11437-0.79522 0.46256-0.79522 0.77375 0 0.93809-1.5532 0.64735-1.8935-0.35445-0.17195-0.50614-0.36226-3.0368-0.4229-5.6237-0.11087-4.7294-0.45097-9.1334-0.78529-10.169-0.2748-0.85102-1.1734 0.0682-2.1984 2.2489-0.72418 1.5406-0.97239 1.7709-1.4667 1.3606-0.32728-0.27162-0.59506-1.0126-0.59506-1.6466 0-0.63402-0.16371-1.254-0.3638-1.3776-0.2001-0.12367-0.45352-0.82471-0.56317-1.5579-0.10965-0.73317-0.51195-2.4373-0.89401-3.787s-0.96931-3.7423-1.305-5.317c-0.33568-1.5746-0.86719-4.0593-1.1811-5.5215-0.31393-1.4622-0.57756-3.4407-0.58582-4.3967-0.008-0.95603-0.1786-1.7382-0.37852-1.7382-0.19991 0-0.49296-0.69018-0.65121-1.5337-0.15825-0.84355-0.31677-1.6232-0.35226-1.7326-0.0355-0.10939 0.23529-0.25664 0.60174-0.32721 0.72415-0.13946 0.92761 0.40459 1.8027 4.8206 1.1721 5.9146 2.2444 10.861 3.2587 15.032 0.58797 2.4177 1.199 4.9335 1.3578 5.5908 0.45425 1.88 1.0943 1.6589 1.667-0.5758 0.28962-1.13 0.87732-2.4678 1.306-2.9729 0.73219-0.86261 0.81303-0.87503 1.3342-0.20496 0.60763 0.78119 0.90917 3.4168 1.3338 11.659 0.20029 3.8872 0.4225 5.4192 0.78603 5.4192 0.27875 0 0.62766-0.64417 0.77536-1.4315 0.19814-1.0562 0.47816-1.4315 1.068-1.4315 0.97557 0 1.0527 1.0924 0.16655 2.3576-0.54519 0.77836-0.54865 0.87128-0.025 0.67032 0.4381-0.16811 0.72504 0.20475 1.0271 1.3346 0.23051 0.86235 0.39506 1.936 0.36566 2.3859s0.0858 3.6037 0.25605 7.0084c0.20499 4.0998 0.16853 6.2775-0.10794 6.4484-0.22959 0.1419-0.55447 0.0363-0.72194-0.23468z"/>
    <path id="path3300" d="m69.539 204.46c-1.173-1.7725-3.0288-5.7069-3.412-7.2336-0.14265-0.56836-0.46947-1.0306-0.72627-1.0271-0.89846 0.0121-1.515 0.67807-1.255 1.3557 0.17236 0.44917 0.0541 0.68304-0.34553 0.68304-0.3342 0-0.84342-0.59815-1.1316-1.3292-0.28819-0.73108-0.99996-1.9734-1.5817-2.7607-0.58176-0.78732-1.3346-1.9831-1.6729-2.6573-0.86608-1.7258-2.0466-1.8757-2.0466-0.25983 0 0.67806-0.21329 1.3647-0.47398 1.5258-0.35067 0.21673-0.40321-0.38416-0.20195-2.3097 0.45734-4.3756 0.99918-4.1878 4.1586 1.4414 1.7907 3.1906 2.0522 3.4833 2.5293 2.8309 0.29262-0.40019 0.53205-1.0409 0.53205-1.4237 0-0.38284 0.28382-0.80498 0.6307-0.93809 0.45771-0.17563 0.85036 0.27041 1.4315 1.6261 0.44043 1.0275 0.80079 2.0113 0.80079 2.1862 0 0.17491 0.45781 0.99264 1.0174 1.8172 0.55955 0.82454 1.1298 1.947 1.2671 2.4943 0.13736 0.54731 0.5184 1.2181 0.84675 1.4906 0.581 0.48219 1.7767 2.9575 1.7767 3.678 0 0.89084-1.2114 0.2183-2.1433-1.1899z"/>
    <path id="path3298" d="m144.15 205.58c0.0984-0.29524 0.4205-0.61732 0.71575-0.71574 0.30675-0.10225 0.46012 0.0511 0.35787 0.35787-0.0984 0.29524-0.4205 0.61733-0.71574 0.71574-0.30675 0.10225-0.46013-0.0511-0.35788-0.35787z"/>
    <path id="path3296" d="m147.31 205.32c-0.87932-0.13598-1.0308-0.3382-0.87264-1.1653 0.18688-0.97756 0.14185-0.9961-1.938-0.7981-2.5064 0.23861-2.9173 0.43421-2.6077 1.2411 0.36417 0.94901-0.2105 0.71174-2.013-0.83109-0.91981-0.78732-1.8233-1.4315-2.0078-1.4315-0.18446 0-0.33538-0.1645-0.33538-0.36556 0-0.20105 1.2423-0.34115 2.7607-0.31133 1.5184 0.0298 3.905-0.0991 5.3035-0.28654l2.5428-0.34076 0.9233 1.9004c0.79386 1.634 0.83874 1.9539 0.32018 2.2818-0.33171 0.20977-0.69514 0.35664-0.80761 0.32638-0.11247-0.0303-0.68328-0.12905-1.2684-0.21953z"/>
    <path id="path3294" d="m52.013 201.12c-0.73754-0.89173-1.5829-1.7142-1.8786-1.8276-0.77555-0.2976-1.7646 0.17-1.7646 0.83427 0 0.73349-0.98887 0.73597-1.5963 0.004-0.36206-0.43626-0.32672-0.62053 0.15442-0.80516 0.41647-0.1599 0.62393-0.78775 0.62393-1.8883 0-1.8934 0.43577-2.0886 1.3949-0.62477 0.36904 0.56323 1.6786 2.0316 2.91 3.2631 1.2315 1.2315 2.239 2.335 2.239 2.4524 0 0.63154-0.8979 0.0245-2.0827-1.408z"/>
    <path id="path3292" d="m136.99 200.01c-0.14997-0.14996-0.27267-0.69563-0.27267-1.2126 0-0.98596-1.0518-1.7867-2.3469-1.7867-0.42056 0-1.3781-0.63295-2.128-1.4066-1.3344-1.3768-1.3528-1.4439-0.86564-3.1697 0.27372-0.96974 0.91332-3.4196 1.4213-5.4441 0.50803-2.0245 1.0461-4.058 1.1958-4.5188 0.22033-0.67838-0.0784-1.0593-1.5698-2.002-2.3756-1.5016-2.5311-3.108-0.179-1.8492 1.5873 0.84951 0.31753-1.9026-1.5877-3.4412-1.2171-0.98285-0.59785-1.7888 0.80119-1.0428 2.1071 1.1236 5.2586 4.2167 5.2586 5.1611 0 0.51947-0.1886 0.94448-0.41912 0.94448-0.51458 0-1.1719 1.6426-1.6366 4.09-0.63697 3.3545-1.5726 6.6549-2.011 7.0932-0.70085 0.70085-0.49546 2.5387 0.37137 3.3232 0.59091 0.53477 1.1052 0.64558 1.9427 0.41858 1.3136-0.35601 4.0117-0.43807 6.6605-0.20257 1.0123 0.09 2.2546 0.0227 2.7607-0.14951 1.259-0.42844 1.2217 0.54318-0.0675 1.7543-0.68156 0.64029-1.252 0.84399-1.8406 0.6572-0.70902-0.22503-0.8356-0.11365-0.75054 0.66038 0.0655 0.59608-0.14366 0.98244-0.58137 1.0739-0.50252 0.10498-0.62855-0.068-0.47561-0.65282 0.11443-0.43761 0.008-0.91931-0.23656-1.0704-0.26748-0.16531-0.44463 0.0753-0.44463 0.60403 0 1.36-2.21 2.958-2.9993 2.1688z"/>
    <path id="path3290" d="m135.69 179.02c-0.13902-0.22494-0.42596-0.40899-0.63763-0.40899s-0.38486 0.18405-0.38486 0.40899c0 0.22495 0.28694 0.409 0.63763 0.409 0.3507 0 0.52389-0.18405 0.38486-0.409z"/>
    <path id="path3288" d="m45.2 198.38c-0.71214-0.28735-0.64062-0.95612 0.10225-0.95612 0.33742 0 0.61349 0.27607 0.61349 0.61349 0 0.33743-0.046 0.59897-0.10225 0.58121-0.0562-0.0177-0.33231-0.12512-0.61349-0.23858z"/>
    <path id="path3286" d="m154.4 195.85c-1.6389-0.66564-4.2696-2.6833-6.48-4.9702-2.6313-2.7222 0.66287-2.4552 3.636 0.29475 1.6022 1.4819 2.0708 1.7241 2.5562 1.3212 0.46619-0.3869 0.73348-0.3779 1.2391 0.0417 0.52228 0.43345 0.70609 0.43564 0.96822 0.0115 0.25759-0.41679 0.58475-0.38844 1.6048 0.13905 1.2317 0.63692 1.7233 1.4595 0.87227 1.4595-0.81945 0-1.0279 0.0869-1.3122 0.54688-0.21471 0.34741-0.42118 0.3373-0.79754-0.0391-0.27931-0.27931-0.77917-0.50783-1.1108-0.50783-0.44885 0-0.37567 0.24197 0.2863 0.9466 1.5616 1.6623 1.2132 1.8424-1.4623 0.75578z"/>
    <path id="path3284" d="m42.439 195.38c-0.13903-0.22495-0.0687-0.409 0.15622-0.409 0.22495 0 0.52275 0.18405 0.66177 0.409 0.13903 0.22494 0.0687 0.40899-0.15622 0.40899-0.22495 0-0.52274-0.18405-0.66177-0.40899z"/>
    <path id="path3282" d="m34.061 193.23c-0.003-0.16871 0.0398-0.40069 0.096-0.51551 0.0562-0.11483-0.71264-0.74825-1.7086-1.4076-0.99598-0.65937-1.9714-1.4857-2.1676-1.8362-0.19618-0.35056-0.71565-0.63737-1.1544-0.63737-0.43872 0-0.79768-0.169-0.79768-0.37555s-0.11171-0.66667-0.24825-1.0225c-0.34145-0.8898 0.61152-0.8227 0.97718 0.0688 0.16146 0.39366 0.5642 0.71574 0.89498 0.71574s0.8208 0.44003 1.0889 0.97785c0.32869 0.65929 0.88787 1.0093 1.7164 1.0745 1.1973 0.0942 1.2226 0.0585 0.98284-1.3868-0.38538-2.323-0.33931-3.0229 0.21158-3.2144 0.28119-0.0977 0.51125 0.0791 0.51125 0.39309 0 0.31394 1.3992 1.9975 3.1094 3.7413s3.003 3.2769 2.8729 3.407c-0.34451 0.34452-1.4833-0.70083-1.4833-1.3616 0-0.30989-0.24399-0.56342-0.5422-0.56342s-0.97446-0.46012-1.5028-1.0225c-1.388-1.4774-2.0438-1.314-2.0512 0.51124-0.003 0.84356-0.18467 1.8098-0.40273 2.1472-0.21806 0.33743-0.39929 0.47546-0.40274 0.30675z"/>
    <path id="path3280" d="m54.505 190.68c0-0.33742 0.18405-0.61349 0.409-0.61349s0.409 0.27607 0.409 0.61349-0.18405 0.6135-0.409 0.6135-0.409-0.27608-0.409-0.6135z"/>
    <path id="path3278" d="m185.93 189.83c-0.13528-0.35255-0.0375-0.84948 0.21734-1.1043 0.25482-0.25481 0.4633-0.88661 0.4633-1.404 0-0.51738 0.16943-0.94069 0.3765-0.94069s0.49358-0.53307 0.63668-1.1846c0.1431-0.65151 0.64084-1.5258 1.1061-1.9427 0.84196-0.75462 0.8445-0.75147 0.544 0.67334-0.16605 0.78731-0.62724 2.1677-1.0249 3.0675-0.39762 0.89979-0.84931 2.0501-1.0037 2.5562-0.32578 1.0677-0.96101 1.2025-1.3153 0.27926z"/>
    <path id="path3276" d="m138.35 189.7c0-0.24902-0.046-0.59079-0.10225-0.7595-0.0562-0.16871 0.67996-0.41115 1.636-0.53875 1.9154-0.25563 2.5269 0.55887 0.75374 1.0039-0.54147 0.1359-1.2777 0.35959-1.636 0.49709-0.35832 0.1375-0.65149 0.0463-0.65149-0.20275z"/>
    <path id="path3274" d="m52.255 187.36c-0.67484-1.0203-1.4087-2.2099-1.6307-2.6435-0.22205-0.43369-0.54414-0.78852-0.71574-0.78852-0.17161 0-0.31202-0.27608-0.31202-0.6135s-0.16977-0.61349-0.37727-0.61349c-0.20751 0-0.58253-0.62192-0.8334-1.382-0.25086-0.76012-0.81728-1.7089-1.2587-2.1084-0.44143-0.39949-0.8026-0.97389-0.8026-1.2764 0-0.30255-0.17838-0.5501-0.39639-0.5501-0.21802 0-0.90195-1.0583-1.5198-2.3517-0.6179-1.2935-1.5438-2.872-2.0576-3.5079-0.51377-0.63586-0.93436-1.3721-0.93463-1.636-0.00028-0.26392-0.4604-1.0146-1.0225-1.6682-0.5621-0.65359-1.022-1.3343-1.022-1.5127 0-0.17837-0.46481-0.82585-1.0329-1.4388-0.56811-0.61299-0.96688-1.3127-0.88616-1.5548 0.24595-0.73786 1.5978-0.49115 2.0697 0.37772 0.7299 1.3439 5.6187 9.32 6.4451 10.515 0.42143 0.6095 0.76625 1.2041 0.76625 1.3213 0 0.20714 1.5976 2.8061 4.2891 6.9774 1.4249 2.2084 3.4818 5.8412 3.4818 6.1495 0 0.10449-0.23006 0.18326-0.51124 0.17505-0.28119-0.008-1.0634-0.84969-1.7382-1.87z"/>
    <path id="path3272" d="m180.64 188.36c-0.16118-0.26081 0.0562-0.71096 0.48711-1.0086 2.2701-1.5679 2.2801-1.7776 0.16473-3.4776-1.814-1.4578-2.0999-2.6686-0.74806-3.1686 0.58835-0.21765 0.72633-0.42833 0.40899-0.62446-0.72213-0.4463-0.60494-4.1329 0.15133-4.7606 1.0309-0.85554 4.6998-2.4401 5.65-2.4401 0.94149 0 1.6739 1.2226 2.1457 3.5818 0.20496 1.0248 0.12558 1.3261-0.34932 1.3261-0.338 0-0.84366-0.27607-1.1237-0.61349-0.6377-0.76838-1.7976-0.79093-2.415-0.047-0.3749 0.45173-0.18698 0.73363 0.92738 1.3911 0.88867 0.52434 1.57 1.347 1.8711 2.2594 0.40867 1.2383 0.3522 1.693-0.41222 3.3192-0.58747 1.2498-1.1105 1.8476-1.5532 1.7753-0.48339-0.079-0.64957 0.17686-0.60253 0.9277 0.0544 0.86826-0.19386 1.1176-1.5273 1.5337-1.987 0.62014-2.704 0.62618-3.075 0.0259z"/>
    <path id="path3270" d="m25.518 185.6c-0.3086-0.19549-0.4872-0.5771-0.39689-0.84804 0.1117-0.33511 0.48723-0.22382 1.1746 0.34809 0.69163 0.57547 0.81684 0.84301 0.39689 0.84804-0.33742 0.004-0.86599-0.1526-1.1746-0.34809z"/>
    <path id="path3268" d="m145.05 185.38c-0.12535-0.32665-0.0996-0.80148 0.0572-1.0552 0.27447-0.44411-0.72728-1.3608-2.455-2.2466-1.1999-0.61517-1.2786-1.7385-0.13319-1.9009 0.86276-0.12229 0.80789-0.21853-0.63651-1.1164-2.2334-1.3884-3.6238-5.1325-1.6205-4.3638 0.33088 0.12696 1.4052 0.0285 2.3873-0.2188 2.1504-0.54148 7.5174 0.38869 10.35 1.7937 1.9368 0.96083 4.9836 3.411 4.9836 4.0078 0 0.58779-2.2992 0.4429-2.814-0.17732-0.25309-0.30495-1.61-0.66501-3.0153-0.80014s-3.4394-0.5505-4.52-0.92304c-1.0807-0.37254-2.0548-0.58742-2.1647-0.47752s-0.30595 0.85378-0.43566 1.6531c-0.23236 1.4319-0.20953 1.4598 1.5512 1.8976 4.6852 1.1649 5.574 1.6369 3.5387 1.8792-0.5135 0.0611-1.4858 0.33996-2.1606 0.61959l-1.227 0.50843 1.1247 0.42708c1.6694 0.63392 1.3657 1.0872-0.72858 1.0872-1.2429 0-1.9284-0.1956-2.0812-0.59391z"/>
    <path id="path3266" d="m154.3 178.61c-0.80022-0.51714-1.636-0.51714-1.636 0 0 0.22495 0.50613 0.40618 1.1247 0.40273 0.87646-0.005 0.98931-0.0938 0.51125-0.40273z"/>
    <path id="path3264" d="m142.44 177.18c0-0.33742-0.16436-0.6135-0.36524-0.6135s-0.47118 0.27608-0.60066 0.6135c-0.1434 0.3737-0.00082 0.61349 0.36524 0.61349 0.33036 0 0.60066-0.27607 0.60066-0.61349z"/>
    <path id="path3262" d="m148.03 176.45c0.16833-0.27237-0.09-0.32986-0.72212-0.16072-0.54131 0.14484-1.1331 0.26586-1.3151 0.26893-0.18199 0.003-0.22781 0.17235-0.10184 0.37618 0.27646 0.44733 1.7726 0.10852 2.139-0.48439z"/>
    <path id="path3260" d="m23.012 182.7c0-0.22495 0.0812-0.409 0.18036-0.409 0.0992 0 0.29411 0.18405 0.43314 0.409 0.13902 0.22494 0.0579 0.40899-0.18036 0.40899-0.23823 0-0.43314-0.18405-0.43314-0.40899z"/>
    <path id="path3258" d="m21.069 181.61c-0.28119-0.11346-0.51125-0.46703-0.51125-0.7857 0-0.31868-0.27451-0.57942-0.61003-0.57942-0.33551 0-0.83991-0.36809-1.1209-0.81799-0.28097-0.4499-0.83738-0.81799-1.2365-0.81799-0.76559 0-2.4543-2.3626-2.0993-2.937 0.22055-0.35687 6.4587 4.8293 6.8536 5.6978 0.23424 0.51519-0.33072 0.62165-1.2756 0.24037z"/>
    <path id="path3256" d="m13.366 175.67c-0.20626-0.35947-0.74312-0.72168-1.193-0.80492-0.53902-0.0997-0.86213-0.53373-0.94741-1.2726-0.16976-1.4707 1.0397-1.5243 2.3729-0.1051 0.77011 0.81975 0.87614 1.192 0.54856 1.9262-0.35206 0.78901-0.45592 0.82311-0.78107 0.25644z"/>
    <path id="path3254" d="m276.18 135.28c-1.3695-0.34978-1.5452-1.9634-0.37577-3.4501 0.96342-1.2248 3.6477-6.4741 3.6477-7.1333 0-0.22226 0.83164-2.5846 1.8481-5.2497s2.0217-5.9498 2.234-7.2995c0.21223-1.3497 0.66098-4.0701 0.99722-6.0453s0.52078-3.8273 0.41008-4.1158c-0.41749-1.088 1.7656-2.1319 5.3491-2.5578 2.1851-0.25974 4.1038-1.0524 6.7211-2.7767 1.5751-1.0377 3.0585-1.8867 3.2963-1.8867 0.23783 0 0.54486 0.56223 0.6823 1.2494 0.19157 0.95788 0.40391 1.181 0.91001 0.9563 1.4718-0.65351 3.5659-0.64392 4.1159 0.0189 0.45885 0.55287 0.44755 0.87231-0.07 1.9781-0.97932 2.0925-1.8239 4.0668-2.4013 5.6132-0.29395 0.78732-1.141 2.2597-1.8823 3.272-0.74133 1.0123-1.8426 2.5767-2.4474 3.4765-1.6754 2.4929-3.935 5.8874-4.7238 7.0964-0.99254 1.5213-2.3434 3.2392-3.8863 4.9422-0.7267 0.80211-2.2595 2.5627-3.4063 3.9124s-2.6075 3.0312-3.2461 3.7366c-2.6256 2.9003-5.9562 4.7271-7.7728 4.2632z"/>
    <path id="path3252" d="m281.91 126.61c0-0.38646 1.3853-2.6656 4.0672-6.6914 1.3517-2.0291 4.1634-6.8484 5.187-8.8908 0.42142-0.84085 1.8245-3.2899 3.118-5.4423 1.2934-2.1524 2.3517-4.0705 2.3517-4.2625 0-0.19198-0.96626-0.0987-2.1472 0.20717-6.9883 1.8102-7.659 2.2099-7.6866 4.5807-0.01 0.84576-0.28317 2.2739-0.60734 3.1737-0.32415 0.8998-0.59215 2.4429-0.59554 3.429-0.008 2.1908-0.67107 4.5605-1.9602 7.0004-2.0388 3.8587-3.2861 8.2773-2.1359 7.5664 0.22494-0.13902 0.40899-0.44078 0.40899-0.67057z" fill="#fff"/>
  </g>
  <metadata>
    <rdf:RDF>
      <cc:Work>
        <dc:format>image/svg+xml</dc:format>
        <dc:type rdf:resource="http://purl.org/dc/dcmitype/StillImage"/>
        <cc:license rdf:resource="http://creativecommons.org/licenses/publicdomain/"/>
        <dc:publisher>
          <cc:Agent rdf:about="http://openclipart.org/">
            <dc:title>Openclipart</dc:title>
          </cc:Agent>
        </dc:publisher>
        <dc:title>Radio announcement</dc:title>
        <dc:date>2013-08-01T16:59:36</dc:date>
        <dc:description>Illustration of a man speaking into a 1940s-period radio microphone. Internal Illustration from the pulp magazine Weird Tales (September 1941, vol. 36, no. 1).\nTraced from http://commons.wikimedia.org/wiki/File:WeirdTalesv36n1pg025_Weird_Tales_Witch%27s_Hour.png</dc:description>
        <dc:source>https://openclipart.org/detail/181394/radio-announcement-by-liftarn-181394</dc:source>
        <dc:creator>
          <cc:Agent>
            <dc:title>liftarn</dc:title>
          </cc:Agent>
        </dc:creator>
        <dc:subject>
          <rdf:Bag>
            <rdf:li>1940s</rdf:li>
            <rdf:li>40s</rdf:li>
            <rdf:li>announcement</rdf:li>
            <rdf:li>man</rdf:li>
            <rdf:li>microphone</rdf:li>
            <rdf:li>retro</rdf:li>
            <rdf:li>speech bubble</rdf:li>
            <rdf:li>vintage</rdf:li>
          </rdf:Bag>
        </dc:subject>
      </cc:Work>
      <cc:License rdf:about="http://creativecommons.org/licenses/publicdomain/">
        <cc:permits rdf:resource="http://creativecommons.org/ns#Reproduction"/>
        <cc:permits rdf:resource="http://creativecommons.org/ns#Distribution"/>
        <cc:permits rdf:resource="http://creativecommons.org/ns#DerivativeWorks"/>
      </cc:License>
    </rdf:RDF>
  </metadata>
</svg>