<?xml version="1.0" encoding="UTF-8" standalone="no"?>
<!-- Created with Inkscape (http://www.inkscape.org/) -->

<svg
   version="1.1"
   id="svg1316"
   width="1085.3333"
   height="717.33331"
   viewBox="0 0 1085.3333 717.33331"
   sodipodi:docname="thumb.svg"
   inkscape:export-filename="thumb.png"
   inkscape:export-xdpi="96"
   inkscape:export-ydpi="96"
   inkscape:version="1.2.1 (1:1.2.1+202210291243+9c6d41e410)"
   xmlns:inkscape="http://www.inkscape.org/namespaces/inkscape"
   xmlns:sodipodi="http://sodipodi.sourceforge.net/DTD/sodipodi-0.dtd"
   xmlns="http://www.w3.org/2000/svg"
   xmlns:svg="http://www.w3.org/2000/svg">
  <defs
     id="defs1320" />
  <sodipodi:namedview
     id="namedview1318"
     pagecolor="#ffffff"
     bordercolor="#666666"
     borderopacity="1.0"
     inkscape:showpageshadow="2"
     inkscape:pageopacity="0.0"
     inkscape:pagecheckerboard="0"
     inkscape:deskcolor="#d1d1d1"
     showgrid="false"
     inkscape:zoom="0.75606612"
     inkscape:cx="201.70194"
     inkscape:cy="226.83201"
     inkscape:window-width="2560"
     inkscape:window-height="1366"
     inkscape:window-x="0"
     inkscape:window-y="32"
     inkscape:window-maximized="1"
     inkscape:current-layer="g1322" />
  <g
     inkscape:groupmode="layer"
     inkscape:label="Image"
     id="g1322">
    <rect
       style="fill:#ffffff;stroke-width:5;stroke-linecap:round;stroke-linejoin:round;stroke-dasharray:0.999999, 0.999999;stop-color:#000000;fill-opacity:1"
       id="rect1795"
       width="1085.3333"
       height="717.33331"
       x="0"
       y="0" />
    <path
       d="m 202.73473,85.003653 q 5.10508,0 9.55565,2.617984 2.61799,1.57079 2.61799,4.057879 0,1.178097 -0.58905,2.748887 -1.37444,3.730634 -3.79608,3.730634 -0.98175,0 -1.83259,-0.523597 -3.20703,-1.767141 -6.87221,-1.767141 -5.89048,0 -11.84639,4.123327 -5.95593,4.057874 -9.81746,10.864644 -3.79608,6.80677 -3.79608,14.46439 v 12.69724 h 22.05654 q 2.22529,0 3.14159,1.04719 0.98175,0.98175 0.98175,3.40338 0,2.42164 -0.98175,3.46883 -0.9163,0.98175 -3.14159,0.98175 h -42.14959 q -2.22529,0 -3.20704,-0.98175 -0.9163,-1.04719 -0.9163,-3.46883 0,-2.42163 0.9163,-3.40338 0.98175,-1.04719 3.20704,-1.04719 h 10.2756 V 95.344702 h -8.31211 q -2.22529,0 -3.20704,-0.981746 -0.9163,-1.047194 -0.9163,-3.468835 0,-2.421633 0.9163,-3.403379 0.98175,-1.047202 3.20704,-1.047202 h 13.35174 q 2.22528,0 3.14158,1.047202 0.98174,0.981746 0.98174,3.403379 v 13.220839 q 3.14158,-5.759572 7.59216,-10.07925 4.45059,-4.319686 9.49021,-6.675872 5.03963,-2.356185 9.94835,-2.356185 z"
       style="font-weight:normal;font-size:40.7552px;line-height:1.25;font-family:'Courier Prime';-inkscape-font-specification:'Courier Prime';stroke-width:3.35103"
       id="path1229" />
    <path
       d="m 465.34767,150.96157 q 8.96661,0 16.16607,4.05788 7.19947,4.05789 11.25734,11.3228 4.12333,7.19946 4.12333,16.29697 0,9.0975 -4.12333,16.36242 -4.05787,7.19947 -11.25734,11.25735 -7.19946,4.05788 -16.16607,4.05788 -8.96661,0 -16.16607,-4.05788 -7.19947,-4.05788 -11.3228,-11.25735 -4.05788,-7.26492 -4.05788,-16.36242 0,-9.09751 4.05788,-16.29697 4.12333,-7.26491 11.3228,-11.3228 7.19946,-4.05788 16.16607,-4.05788 z m 0,9.68656 q -6.34862,0 -11.19189,2.81433 -4.77783,2.74889 -7.39582,7.78852 -2.61799,4.97417 -2.61799,11.38824 0,6.41407 2.61799,11.4537 2.61799,4.97417 7.39582,7.78851 4.84327,2.74889 11.19189,2.74889 6.34861,0 11.12644,-2.74889 4.84328,-2.81434 7.46127,-7.78851 2.61798,-5.03963 2.61798,-11.4537 0,-6.41407 -2.61798,-11.38824 -2.61799,-5.03963 -7.46127,-7.78852 -4.77783,-2.81433 -11.12644,-2.81433 z"
       style="font-weight:normal;font-size:40.7552px;line-height:1.25;font-family:'Courier Prime';-inkscape-font-specification:'Courier Prime';stroke-width:3.35103"
       id="path1231" />
    <path
       d="m 486.81515,264.8423 q 2.22529,0 3.14159,1.04719 0.98175,0.98175 0.98175,3.40339 v 47.12377 h 5.36687 q 2.22529,0 3.14159,1.0472 0.98174,0.98174 0.98174,3.40338 0,2.42164 -0.98174,3.46883 -0.9163,0.98175 -3.14159,0.98175 h -10.4065 q -2.22529,0 -3.20703,-0.98175 -0.9163,-0.98175 -0.9163,-3.40338 v -7.91942 q -4.31968,6.67588 -10.1447,10.21016 -5.75957,3.53428 -12.43544,3.53428 -5.95592,0 -10.34105,-2.55254 -4.38513,-2.61799 -6.74132,-7.46126 -2.35618,-4.84328 -2.35618,-11.3228 v -31.67765 h -5.36688 q -2.22529,0 -3.20703,-0.98173 -0.9163,-1.04721 -0.9163,-3.46884 0,-2.42164 0.9163,-3.40339 0.98174,-1.04719 3.20703,-1.04719 h 11.061 q 2.22529,0 3.14158,1.04719 0.98175,0.98175 0.98175,3.40339 v 35.14648 q 0,5.82502 2.68343,9.2284 2.68344,3.40338 7.91942,3.40338 5.56322,0 10.34105,-3.20702 4.84327,-3.20704 7.72305,-8.83571 2.8798,-5.62868 2.8798,-12.56634 v -18.71862 h -9.29385 q -2.22529,0 -3.20704,-0.98173 -0.91629,-1.04721 -0.91629,-3.46884 0,-2.42164 0.91629,-3.40339 0.98175,-1.04719 3.20704,-1.04719 z"
       style="font-weight:normal;font-size:40.7552px;line-height:1.25;font-family:'Courier Prime';-inkscape-font-specification:'Courier Prime';stroke-width:3.35103"
       id="path1233" />
    <path
       d="m 643.08394,403.89409 q 2.22529,0 3.14159,1.04719 0.98175,0.98175 0.98175,3.40339 v 72.51825 h 21.00934 q 2.22529,0 3.14159,1.04719 0.98175,0.98174 0.98175,3.40339 0,2.42163 -0.98175,3.46882 -0.9163,0.98175 -3.14159,0.98175 h -51.31255 q -2.22528,0 -3.20703,-0.98175 -0.9163,-1.04719 -0.9163,-3.46882 0,-2.42165 0.9163,-3.40339 0.98175,-1.04719 3.20703,-1.04719 h 20.48576 v -68.06767 h -17.86777 q -2.22529,0 -3.20703,-0.98175 -0.9163,-1.04719 -0.9163,-3.46883 0,-2.42164 0.9163,-3.40339 0.98174,-1.04719 3.20703,-1.04719 z"
       style="font-weight:normal;font-size:40.7552px;line-height:1.25;font-family:'Courier Prime';-inkscape-font-specification:'Courier Prime';stroke-width:3.35103"
       id="path1235" />
    <path
       d="m 930.41174,425.12235 q 12.30451,0 18.4568,5.49776 6.15228,5.49778 6.15228,16.29697 v 26.04898 q 0,5.17052 4.31965,5.17052 h 2.29079 q 2.22527,0 3.14158,1.0472 0.98176,0.98174 0.98176,3.40338 0,2.42164 -0.98176,3.46884 -0.91631,0.98174 -3.14158,0.98174 h -4.18877 q -4.2543,0 -7.33036,-2.09439 -3.0107,-2.15983 -3.92702,-6.28317 -5.36684,4.71238 -11.65004,7.26492 -6.21772,2.55253 -13.22084,2.55253 -6.61041,0 -11.71549,-2.22529 -5.03962,-2.29074 -7.91941,-6.61041 -2.87978,-4.31968 -2.87978,-10.27561 0,-10.34104 7.39581,-15.24977 7.39582,-4.97417 19.1113,-4.97417 10.4065,0 19.8967,3.33793 v -5.56323 q 0,-6.34861 -3.59974,-9.29385 -3.53427,-3.01069 -11.45368,-3.01069 -4.90872,0 -10.21015,1.37445 -5.30142,1.37444 -10.07925,3.79608 -1.11265,0.58905 -2.02894,0.58905 -2.15984,0 -3.59974,-3.14158 -0.71994,-1.5708 -0.71994,-2.618 0,-2.29073 2.42164,-3.53428 5.49777,-2.87978 11.78094,-4.38512 6.34862,-1.57079 12.69724,-1.57079 z m -5.03963,33.24843 q -7.52671,0 -11.91184,2.61799 -4.31968,2.55253 -4.31968,8.1812 0,4.77783 3.27249,7.46127 3.33793,2.61798 9.29385,2.61798 13.02449,0 23.49643,-10.79919 v -7.13402 q -4.45062,-1.43988 -9.55565,-2.15983 -5.10507,-0.7854 -10.2756,-0.7854 z"
       style="font-weight:normal;font-size:40.7552px;line-height:1.25;font-family:'Courier Prime';-inkscape-font-specification:'Courier Prime';stroke-width:3.35103"
       id="path1237" />
    <path
       d="m 204.07645,540.5956 q 2.22529,0 3.14159,1.04719 0.98174,0.98174 0.98174,3.40339 v 72.51824 h 5.36687 q 2.2253,0 3.14159,1.0472 0.98174,0.98174 0.98174,3.40338 0,2.42164 -0.98174,3.46883 -0.91629,0.98175 -3.14159,0.98175 h -10.40649 q -2.22529,0 -3.20704,-0.98175 -0.9163,-1.04719 -0.9163,-3.46883 v -5.23598 q -4.12332,5.36688 -9.55565,8.24666 -5.43232,2.87979 -11.84639,2.87979 -8.11576,0 -14.52983,-3.79608 -6.41407,-3.86153 -10.07925,-10.99555 -3.66518,-7.19947 -3.66518,-16.88601 0,-9.68656 3.66518,-16.82057 3.66518,-7.19947 10.07925,-10.99555 6.41407,-3.86153 14.52983,-3.86153 12.30454,0 20.74755,10.7992 v -25.85263 h -10.60285 q -2.22529,0 -3.20703,-0.98175 -0.9163,-1.04719 -0.9163,-3.46882 0,-2.42165 0.9163,-3.40339 0.98174,-1.04719 3.20703,-1.04719 z m -25.78717,33.64113 q -5.82502,0 -10.01381,2.81434 -4.18877,2.74889 -6.41406,7.72306 -2.15984,4.97417 -2.15984,11.4537 0,6.47952 2.15984,11.45369 2.22529,4.97417 6.41406,7.78851 4.18879,2.74889 10.01381,2.74889 5.82502,0 10.34105,-2.61799 4.58147,-2.61799 7.13401,-7.59216 2.61799,-4.97418 2.61799,-11.78094 0,-6.80677 -2.61799,-11.78095 -2.55254,-4.97418 -7.13401,-7.59216 -4.51603,-2.61799 -10.34105,-2.61799 z"
       style="font-weight:normal;font-size:40.7552px;line-height:1.25;font-family:'Courier Prime';-inkscape-font-specification:'Courier Prime';stroke-width:3.35103"
       id="path1239" />
    <path
       d="m 465.64221,564.55018 q 9.49021,0 16.16611,3.86153 6.74131,3.79608 10.34105,10.60284 3.59966,6.74132 4.12325,15.57703 0,2.22529 -0.98167,3.14159 -0.91631,0.91629 -3.14158,0.91629 h -47.38561 q 0.45815,9.752 5.75957,14.79163 5.36688,4.97418 15.11888,4.97418 6.02137,0 11.91181,-1.50535 5.89052,-1.57079 10.34105,-4.12332 1.11264,-0.58906 2.02895,-0.58906 2.29079,0 3.73062,3.46884 0.58912,1.37444 0.58912,2.48709 0,2.61798 -2.87983,4.05788 -5.03965,2.55253 -11.91184,4.12332 -6.87221,1.5708 -13.80988,1.5708 -9.8829,0 -16.88602,-3.79608 -7.00311,-3.79609 -10.66829,-10.9301 -3.66519,-7.13401 -3.66519,-16.95146 0,-9.35931 3.99243,-16.55878 3.99244,-7.19946 11.061,-11.12644 7.06857,-3.99243 16.16607,-3.99243 z m 0,9.4902 q -8.05031,0 -13.35173,4.12333 -5.23598,4.05788 -6.87222,11.3228 h 39.98979 q -1.37447,-7.52672 -6.34868,-11.45369 -4.9087,-3.99244 -13.41716,-3.99244 z"
       style="font-weight:normal;font-size:40.7552px;line-height:1.25;font-family:'Courier Prime';-inkscape-font-specification:'Courier Prime';stroke-width:3.35103"
       id="path1241" />
    <g
       id="g1063"
       transform="matrix(4.168117,0,0,4.3039988,41.395742,-173.36788)">
      <path
         style="fill:none;stroke:#000000;stroke-width:0.264583px;stroke-linecap:butt;stroke-linejoin:miter;stroke-opacity:1"
         d="M 14.430368,71.294801 18.857453,117.95776 85.382006,101.08225 81.771547,56.831817 Z"
         id="path359"
         sodipodi:nodetypes="ccccc" />
      <path
         style="fill:none;stroke:#000000;stroke-width:0.264583px;stroke-linecap:butt;stroke-linejoin:miter;stroke-dasharray:0.264583, 0.264583;stroke-dashoffset:0;stroke-opacity:1"
         d="m 30.826094,67.773462 4.570242,45.988818"
         id="path361"
         sodipodi:nodetypes="cc" />
      <path
         style="fill:none;stroke:#000000;stroke-width:0.264583px;stroke-linecap:butt;stroke-linejoin:miter;stroke-dasharray:0.264583, 0.264583;stroke-dashoffset:0;stroke-opacity:1"
         d="M 48.100957,64.063309 52.119728,109.52"
         id="path363"
         sodipodi:nodetypes="cc" />
      <path
         style="fill:none;stroke:#000000;stroke-width:0.264583px;stroke-linecap:butt;stroke-linejoin:miter;stroke-dasharray:0.264583, 0.264583;stroke-dashoffset:0;stroke-opacity:1"
         d="M 64.648313,60.509404 68.93275,105.25499"
         id="path365"
         sodipodi:nodetypes="cc" />
      <path
         style="fill:none;stroke:#000000;stroke-width:0.264583px;stroke-linecap:butt;stroke-linejoin:miter;stroke-dasharray:0.264583, 0.264583;stroke-dashoffset:0;stroke-opacity:1"
         d="M 83.266591,77.859897 16.64391,94.626278"
         id="path367" />
      <path
         style="fill:none;stroke:#000000;stroke-width:0.264583px;stroke-linecap:butt;stroke-linejoin:miter;stroke-opacity:1"
         d="M 66.545105,82.068055 32.976158,90.516074"
         id="path923" />
    </g>
    <g
       id="g1077"
       transform="matrix(4.3039988,0,0,4.3039988,-269.73518,-203.37388)">
      <path
         style="fill:none;stroke:#000000;stroke-width:0.264583px;stroke-linecap:butt;stroke-linejoin:miter;stroke-opacity:1"
         d="m 128.67468,170.5186 -3.58267,0.57118 1.22672,-26.6881 2.67036,28.78265 16.11526,-3.93518 18.10343,1.09024 13.32779,-7.33533 16.61774,-1.97545 -0.9393,-28.74828 -16.88567,3.00257 -13.42107,7.91827 -18.80027,-2.48164 -16.78827,3.68215"
         id="path1035"
         sodipodi:nodetypes="ccccccccccccc" />
      <path
         style="fill:none;stroke:#000000;stroke-width:0.264583px;stroke-linecap:butt;stroke-linejoin:miter;stroke-opacity:1"
         d="m 143.107,140.71953 13.26683,-9.57455 18.95451,4.13792"
         id="path1037" />
      <path
         style="fill:none;stroke:#000000;stroke-width:0.264583px;stroke-linecap:butt;stroke-linejoin:miter;stroke-dasharray:0.264583, 0.264583;stroke-dashoffset:0;stroke-opacity:1"
         d="m 156.37383,131.14498 0.66815,11.41397"
         id="path1039"
         sodipodi:nodetypes="cc" />
      <path
         style="fill:none;stroke:#000000;stroke-width:0.264583px;stroke-linecap:butt;stroke-linejoin:miter;stroke-dasharray:0.264583, 0.264583;stroke-dashoffset:0;stroke-opacity:1"
         d="m 161.90727,143.20117 1.30051,27.13822"
         id="path1041" />
      <path
         style="fill:none;stroke:#000000;stroke-width:0.264583px;stroke-linecap:butt;stroke-linejoin:miter;stroke-dasharray:0.264583, 0.264583;stroke-dashoffset:0;stroke-opacity:1"
         d="m 175.32834,135.2829 1.20723,27.72116"
         id="path1043" />
      <path
         style="fill:none;stroke:#000000;stroke-width:0.264583px;stroke-linecap:butt;stroke-linejoin:miter;stroke-dasharray:0.264583, 0.264583;stroke-dashoffset:0;stroke-opacity:1"
         d="m 143.107,140.71953 1.99735,28.52962"
         id="path1045" />
    </g>
    <g
       id="g1087"
       transform="matrix(4.3039988,0,0,4.3039988,474.43133,-410.60525)">
      <path
         style="fill:none;stroke:#000000;stroke-width:0.264583px;stroke-linecap:butt;stroke-linejoin:miter;stroke-opacity:1"
         d="m 13.893966,142.74476 16.878715,-0.12158 14.947264,-4.7783 16.012317,5.7776 12.417253,-5.61324 29.185615,22.7438 -18.846876,7.35567 -20.462491,-3.60084 -15.947978,8.47839 -19.878278,0.0655 z"
         id="path925"
         sodipodi:nodetypes="ccccccccccc" />
      <path
         style="fill:none;stroke:#000000;stroke-width:0.264583px;stroke-linecap:butt;stroke-linejoin:miter;stroke-dasharray:0.264583, 0.264583;stroke-dashoffset:0;stroke-opacity:1"
         d="m 30.772681,142.62318 17.305104,30.36308"
         id="path927"
         sodipodi:nodetypes="cc" />
      <path
         style="fill:none;stroke:#000000;stroke-width:0.264583px;stroke-linecap:butt;stroke-linejoin:miter;stroke-dasharray:0.264583, 0.264583;stroke-dashoffset:0;stroke-opacity:1"
         d="m 61.732262,143.62248 22.75599,24.48623"
         id="path929" />
      <path
         style="fill:none;stroke:#000000;stroke-width:0.264583px;stroke-linecap:butt;stroke-linejoin:miter;stroke-dasharray:0.264583, 0.264583;stroke-dashoffset:0;stroke-opacity:1"
         d="m 88.74232,149.38114 -15.632064,6.48445 -19.805137,-8.37128 -14.054073,10.00479 -18.20431,0.39916"
         id="path931"
         sodipodi:nodetypes="ccccc" />
      <path
         style="fill:none;stroke:#000000;stroke-width:0.264583px;stroke-linecap:butt;stroke-linejoin:miter;stroke-opacity:1"
         d="m 39.239516,157.47886 15.884283,-5.26647 17.986449,3.65319"
         id="path933"
         sodipodi:nodetypes="ccc" />
      <path
         style="fill:none;stroke:#000000;stroke-width:0.264583px;stroke-linecap:butt;stroke-linejoin:miter;stroke-dasharray:0.264583, 0.264583;stroke-dashoffset:0;stroke-opacity:1"
         d="m 45.719945,137.84488 7.585174,9.64943"
         id="path1031"
         sodipodi:nodetypes="cc" />
      <path
         style="fill:none;stroke:#000000;stroke-width:0.264583px;stroke-linecap:butt;stroke-linejoin:miter;stroke-dasharray:0.264583, 0.264583;stroke-dashoffset:0;stroke-opacity:1"
         d="m 55.123799,152.21239 8.901964,12.29548"
         id="path1033" />
      <path
         style="fill:none;stroke:#000000;stroke-width:0.264583px;stroke-linecap:butt;stroke-linejoin:miter;stroke-opacity:1"
         d="m 39.314315,157.45406 13.990804,-9.95975 19.805097,8.37126"
         id="path1047" />
    </g>
    <g
       id="g1069"
       transform="matrix(4.3039988,0,0,4.3039988,112.56476,148.82417)">
      <path
         style="fill:none;stroke:#000000;stroke-width:0.264583px;stroke-linecap:butt;stroke-linejoin:miter;stroke-opacity:1"
         d="m 142.37955,66.433181 -3.39957,36.435589 27.11197,7.01004 2.53507,-35.751226 z"
         id="path1049" />
      <path
         style="fill:none;stroke:#000000;stroke-width:0.264583px;stroke-linecap:butt;stroke-linejoin:miter;stroke-opacity:1"
         d="m 142.37955,66.433181 28.3876,4.590901 -2.7315,36.709458 -1.78262,-0.12641"
         id="path1051" />
      <path
         style="fill:none;stroke:#000000;stroke-width:0.264583px;stroke-linecap:butt;stroke-linejoin:miter;stroke-opacity:1"
         d="m 169.52169,70.822663 0.19852,-4.520078 -27.34066,0.130596"
         id="path1053" />
      <path
         style="fill:none;stroke:#000000;stroke-width:0.264583px;stroke-linecap:butt;stroke-linejoin:miter;stroke-opacity:1"
         d="m 167.69894,66.26108 0.0525,-3.054477 -25.37187,3.226578"
         id="path1055" />
    </g>
  </g>
</svg>
