<?xml version="1.0" encoding="utf-8"?>
<!-- Generator: Adobe Illustrator 23.1.1, SVG Export Plug-In . SVG Version: 6.00 Build 0)  -->
<svg version="1.1" xmlns="http://www.w3.org/2000/svg" xmlns:xlink="http://www.w3.org/1999/xlink" x="0px" y="0px"
	 viewBox="0 0 1000 1000" style="enable-background:new 0 0 1000 1000;" xml:space="preserve">
<style type="text/css">
	.st0{fill:#F4F4F4;}
	.st1{fill:#00A651;}
	.st2{fill:#82CA9C;}
	.st3{fill:#FFFFFF;}
	.st4{fill:none;stroke:#82CA9C;stroke-width:6;stroke-miterlimit:10;}
</style>
<g id="Calque_1">
	<rect class="st0" width="1000" height="1000"/>
	<text transform="matrix(1 0 0 1 4379.4751 3189.5061)" style="font-family:'Optima-Bold'; font-size:8.05px;">W</text>
	<text transform="matrix(1 0 0 1 4386.9609 3189.5061)" style="font-family:'Optima-Bold'; font-size:8.05px;">orl</text>
	<text transform="matrix(1 0 0 1 4396.8071 3189.5061)" style="font-family:'Optima-Bold'; font-size:8.05px;">d</text>
	<text transform="matrix(1 0 0 1 4403.6812 3189.5061)" style="font-family:'Optima-Bold'; font-size:8.05px;">W</text>
	<text transform="matrix(1 0 0 1 4411.4902 3189.5061)" style="font-family:'Optima-Bold'; font-size:8.05px;">ide</text>
	<text transform="matrix(1 0 0 1 4423.9829 3189.5061)" style="font-family:'Optima-Bold'; font-size:8.05px;">W</text>
	<text transform="matrix(1 0 0 1 4431.4702 3189.5061)" style="font-family:'Optima-Bold'; font-size:8.05px;">eb</text>
	<path class="st1" d="M645,574.4c9.8-31,19.3-62.2,28.6-93.4c-22.7-67.2-46-134.3-64.3-202.8c-11,1.3-21.4,2-32.5,2
		c-11,0-21.4-0.6-32.5-2c-3.5,11.5-7.1,22.9-10.7,34.4c9-0.2,17.8-0.8,27-1.9C584.3,399.8,616.6,486.5,645,574.4L645,574.4z
		 M399.2,720.8c1.4-0.1,2.7-0.1,4.1-0.1c10.4,0,21.4,1.9,32.5,3.2c17.3-51.2,34.7-100.3,51.9-148.4c-6-17.3-12.2-34.6-18.3-51.9
		C446.3,587.8,422.7,652.6,399.2,720.8L399.2,720.8z M366.8,576.3c10.9-30.3,21.9-60.6,32.7-91c-18.7-68.8-36.8-137.7-53.4-207.2
		c-17.5,1.3-35.7,3.3-53.3,3.3c-18.2,0-35.7-1.9-53.9-3.3l5.8,18.9c1.7,5.6,3.4,11.2,5.2,16.8c15.7-0.4,31.9-2,47.5-3.2
		C318.6,399.8,342.5,488.2,366.8,576.3L366.8,576.3z M839.4,280.1c-10.4,0-20.2-0.6-30.5-2c-2.8,11.4-5.8,22.8-8.8,34.2
		c6.8-0.3,13.8-0.8,20.5-1.7c-50.8,138.2-97.8,273.1-140.5,410.2c1.8-0.1,3.5-0.2,5.3-0.2c10.4,0,21.4,1.9,32.5,3.2
		c45.5-149.5,96.2-295.7,151.4-445.8C859.5,279.5,849.1,280.1,839.4,280.1L839.4,280.1z"/>
	<path class="st2" d="M334.4,668.1c10.5-30.7,21.4-61.2,32.4-91.7c-24.3-88.2-48.2-176.5-69.4-265.7c-15.6,1.2-31.7,2.8-47.5,3.2
		c-1.9,0-3.9,0.1-5.8,0.1c-18.2,0-35.7-1.9-53.9-3.3l5.8,18.9c1.7,5.6,3.4,11.2,5.2,16.8c15.7-0.4,31.9-2,47.5-3.2
		C274.6,452.3,304.5,560.2,334.4,668.1z M615.2,668.1c10-31.2,20-62.4,29.9-93.7c-28.4-87.9-60.7-174.5-84.4-263.7
		c-9.2,1.1-17.9,1.7-27,1.9c-1.8,0-3.7,0.1-5.5,0.1c-11,0-21.4-0.6-32.5-2c-3.5,11.5-7.1,22.9-10.7,34.4c9-0.2,17.8-0.8,27-1.9
		C541.1,453,583.3,558.9,615.2,668.1z M450.7,471.8c-32.5,92.2-66.5,183.5-100.3,281.5c1.4-0.1,2.7-0.1,4.1-0.1
		c10.4,0,21.4,1.9,32.5,3.2c4-12,8.1-23.9,12.2-35.7c23.5-68.1,47.1-133,70.2-197.2C463.2,506.3,457,489,450.7,471.8L450.7,471.8z
		 M800.1,312.4c-3.2,0.1-6.3,0.2-9.4,0.2c-10.4,0-20.2-0.6-30.5-2c-2.8,11.4-5.8,22.8-8.8,34.2c6.8-0.3,13.8-0.8,20.5-1.7
		c-50.8,138.2-97.8,273.1-140.5,410.2c1.8-0.1,3.5-0.2,5.3-0.2c10.4,0,21.4,1.9,32.5,3.2c3.6-11.9,7.3-23.7,11-35.6
		c42.6-137.1,89.6-272,140.5-410.2C813.9,311.5,806.9,312.1,800.1,312.4L800.1,312.4z"/>
	<path class="st3" d="M771.8,343.1c-6.7,0.9-13.6,1.5-20.5,1.7c-3.2,0.1-6.3,0.2-9.4,0.2c-10.4,0-20.2-0.6-30.5-2
		c-11.5,46.3-24.3,92.2-37.8,137.8c-9.2,31.2-18.8,62.4-28.6,93.4c-9.8,31.3-19.8,62.5-29.9,93.7C583.3,558.9,541.1,453,511.8,343.1
		c-9.2,1.1-17.9,1.7-27,1.9c-1.8,0-3.7,0.1-5.5,0.1c-11,0-21.4-0.6-32.5-2c-14.4,47.9-30.6,95.2-47.4,142.2
		c-10.8,30.4-21.8,60.6-32.7,91c-11,30.5-21.9,61-32.4,91.7c-29.9-107.9-59.8-215.7-85.8-324.9c-15.6,1.2-31.7,2.8-47.5,3.2
		c-1.9,0-3.9,0.1-5.8,0.1c-18.2,0-35.7-1.9-53.9-3.3l5.8,18.9c43.5,141.7,87.7,282.7,125.4,427c11-1.3,22.1-3.2,33.1-3.2
		c10.4,0,21.4,1.9,32.5,3.2c4-12,8.1-23.9,12.2-35.7c33.7-98,67.8-189.2,100.3-281.5c6.2,17.2,12.5,34.5,18.7,51.8
		c6.2,17.3,12.3,34.6,18.3,51.9c24.4,70.1,47.4,140.9,67,213.4c11.1-1.3,22.1-3.2,33.2-3.2c10.4,0,21.4,1.9,32.5,3.2
		c3.6-11.9,7.3-23.7,11-35.6C673.9,616.2,720.9,481.3,771.8,343.1L771.8,343.1z"/>
	<path class="st4" d="M771.8,343.1c-6.7,0.9-13.6,1.5-20.5,1.7c-3.2,0.1-6.3,0.2-9.4,0.2c-10.4,0-20.2-0.6-30.5-2
		c-11.5,46.3-24.3,92.2-37.8,137.8c-9.2,31.2-18.8,62.4-28.6,93.4c-9.8,31.3-19.8,62.5-29.9,93.7C583.3,558.9,541.1,453,511.8,343.1
		c-9.2,1.1-17.9,1.7-27,1.9c-1.8,0-3.7,0.1-5.5,0.1c-11,0-21.4-0.6-32.5-2c-14.4,47.9-30.6,95.2-47.4,142.2
		c-10.8,30.4-21.8,60.6-32.7,91c-11,30.5-21.9,61-32.4,91.7c-29.9-107.9-59.8-215.7-85.8-324.9c-15.6,1.2-31.7,2.8-47.5,3.2
		c-1.9,0-3.9,0.1-5.8,0.1c-18.2,0-35.7-1.9-53.9-3.3l5.8,18.9c43.5,141.7,87.7,282.7,125.4,427c11-1.3,22.1-3.2,33.1-3.2
		c10.4,0,21.4,1.9,32.5,3.2c4-12,8.1-23.9,12.2-35.7c33.7-98,67.8-189.2,100.3-281.5c6.2,17.2,12.5,34.5,18.7,51.8
		c6.2,17.3,12.3,34.6,18.3,51.9c24.4,70.1,47.4,140.9,67,213.4c11.1-1.3,22.1-3.2,33.2-3.2c10.4,0,21.4,1.9,32.5,3.2
		c3.6-11.9,7.3-23.7,11-35.6C673.9,616.2,720.9,481.3,771.8,343.1L771.8,343.1z"/>
	<path class="st1" d="M57.3,228.7c-2.1-2.7-4.3-5.5-6.5-8.2c0.8-0.4,1.7-1,2.6-1.5c0.9-0.6,1.9-1.2,3-2c1.1-0.8,2-1.5,2.9-2.2
		c0.8-0.7,1.6-1.4,2.2-2c1.9,3,3.8,5.9,5.7,8.7c1.9,2.9,4.2,6.1,6.8,9.7l6.4,8.9c1.8,2.5,3.5,4.9,5.2,7.2c1.7,2.3,3.2,4.3,4.4,5.9
		c2.5-1.8,4.9-3.6,7.3-5.6s4.7-3.9,7-6.1c0.3,0.5,0.5,1,0.7,1.4c0.2,0.4,0.6,1,1.1,1.7c0.5,0.7,0.9,1.2,1.2,1.6
		c0.3,0.4,0.6,0.6,0.9,0.8c-1.2,0.8-2.7,1.8-4.4,3c-1.7,1.2-4.1,2.9-7.1,5.1c-2.7,1.9-4.8,3.5-6.5,4.7l-3.9,2.8
		c-1,0.7-1.7,1.3-2.2,1.6c-0.5,0.4-0.9,0.7-1.2,1c-1.8-2.8-3.6-5.7-5.6-8.5c-1.9-2.9-4.2-6.1-6.8-9.7l-6.4-8.9
		C61.8,234.6,59.4,231.5,57.3,228.7L57.3,228.7z M112.2,222.3c1.1,1.8,2.3,3.5,3.7,4.8c1.3,1.4,2.7,2.4,4.2,3.2s3,1.1,4.6,1
		c1.6,0,3.1-0.5,4.7-1.5c3.2-1.9,5.4-4.7,6.6-8.2l1.2,0.1l0.8,4.8c-0.6,1.6-1.6,3.1-2.9,4.6c-1.3,1.5-3.2,3-5.9,4.6
		c-2.3,1.4-4.6,2.3-7,2.9c-2.4,0.6-4.8,0.7-7.2,0.2c-2.4-0.5-4.7-1.6-6.9-3.2c-2.2-1.6-4.2-4-6.1-7c-1.8-3-3-5.8-3.5-8.5
		c-0.5-2.7-0.5-5.2,0-7.5c0.5-2.3,1.6-4.5,3.1-6.4c1.5-1.9,3.4-3.6,5.7-5c4.6-2.7,8.8-3.5,12.9-2.3c4,1.2,7.5,4.3,10.4,9.1l0.9,1.4
		c0.2,0.4,0.4,0.7,0.4,0.9L112.2,222.3L112.2,222.3z M120.9,212.7c-2.2-3.4-4.3-5.9-6.3-7.5s-3.9-1.9-5.7-0.8
		c-1,0.6-1.7,1.5-1.9,2.6c-0.3,1.1-0.3,2.3-0.1,3.7c0.2,1.3,0.7,2.7,1.3,4.2c0.6,1.5,1.3,2.9,2.1,4.3L120.9,212.7z M149.1,182.3
		c0.3,0.6,0.7,1.2,1.1,1.7l-6.4,3.1c0.5,1.1,1.1,2.4,1.7,3.9c0.7,1.5,1.4,2.9,2.1,4.4l2.2,4.3c0.7,1.4,1.3,2.6,1.8,3.5
		c1.3,2.5,2.4,4.4,3.3,5.9c0.9,1.5,1.7,2.5,2.4,3.2c0.7,0.7,1.4,1,2.1,1c0.7,0,1.4-0.2,2.2-0.6c0.9-0.5,1.5-0.9,1.9-1.2
		c0.4-0.3,0.7-0.7,1-1.2l1.5,2.9c-0.7,0.9-1.7,1.9-3,3c-1.3,1.1-2.6,2-3.9,2.7c-6,3.2-11,1.1-14.7-6.1c-0.7-1.4-1.5-2.9-2.4-4.7
		c-0.9-1.8-1.7-3.6-2.6-5.4c-0.9-1.9-1.8-3.7-2.7-5.5c-0.9-1.8-1.7-3.5-2.5-5l-5,2.7c-0.2-0.6-0.4-1.3-0.7-1.9
		c-0.3-0.6-0.7-1.2-1.2-1.8l5.1-2.4c-0.8-1.5-1.5-2.8-2.2-4.1c-0.7-1.3-1.6-2.8-2.6-4.5c1.3-1.5,2.6-3.1,3.8-4.7
		c1.2-1.6,2.4-3.2,3.6-4.9l1,0.1c0.3,0.8,0.7,1.7,1.1,2.8c0.5,1.1,1,2.2,1.5,3.3c0.5,1.2,1.1,2.3,1.6,3.5c0.6,1.2,1.2,2.3,1.7,3.3
		l6.2-3.4C148.5,181.1,148.8,181.8,149.1,182.3L149.1,182.3z M153.4,170.7c-0.7-3.6-1.1-6.4-1.2-8.4c-0.1-2,0.1-3.4,0.5-4.2
		c0.5-0.8,1.2-1.4,2.1-1.9c0.6-0.3,1.2-0.5,1.9-0.5c0.7-0.1,1.4-0.1,2.1,0.1s1.3,0.4,1.9,0.8c0.6,0.4,1.1,1,1.4,1.7
		c0.1,0.3,0.2,0.6,0.3,1c0.1,0.4,0.1,0.9,0.1,1.6c-0.1,0.7-0.1,1.7-0.3,2.8c-0.1,1.2-0.4,2.7-0.7,4.6c-0.3,1.9-0.7,4.2-1.2,6.9
		c-0.5,2.7-1.1,5.9-1.8,9.7l-2.2,0.1C155.1,179.1,154.1,174.3,153.4,170.7L153.4,170.7z M183.1,198c0.8,0.5,1.6,0.9,2.6,1.2
		c0.9,0.3,2,0.4,3.1,0.3c1.1-0.1,2.3-0.4,3.6-0.9c1.7-0.7,2.9-1.8,3.4-3.1c0.6-1.3,0.6-2.5,0.2-3.5c-0.5-1.1-1.3-1.9-2.4-2.2
		c-1.1-0.3-2.5-0.5-4-0.5c-1.5,0-3.1,0-4.9,0c-1.7,0-3.4-0.1-5.1-0.5c-1.6-0.4-3.2-1.1-4.6-2.1c-1.4-1-2.6-2.6-3.6-4.8
		c-0.9-2.1-1.3-4-1.2-5.9c0.1-1.8,0.6-3.5,1.4-5c0.8-1.5,1.9-2.8,3.2-3.9c1.4-1.1,2.8-2,4.3-2.7c2.1-0.9,4-1.4,5.9-1.5
		c1.9-0.1,3.9,0.1,6,0.5c0,1.2,0.1,2.4,0.3,3.7c0.2,1.3,0.5,2.5,0.8,3.6l-2.1,0.9c-0.4-0.5-0.9-1.1-1.6-1.6c-0.7-0.6-1.4-1-2.3-1.4
		c-0.9-0.4-1.8-0.6-2.8-0.7c-1-0.1-2.1,0.2-3.3,0.7c-1.5,0.6-2.6,1.6-3.2,2.8c-0.7,1.2-0.7,2.5-0.2,3.8c0.5,1.2,1.4,1.9,2.5,2.3
		c1.2,0.3,2.5,0.5,4,0.5c1.5,0,3.2-0.1,4.9-0.2c1.8-0.1,3.5,0,5.1,0.3c1.7,0.3,3.2,1,4.7,2c1.5,1,2.7,2.6,3.6,4.8
		c0.9,2.2,1.3,4.2,1.2,6.1c-0.1,1.9-0.6,3.6-1.5,5.2c-0.9,1.6-2.1,3-3.6,4.1s-3.2,2.2-5.1,3c-2.2,1-4.4,1.5-6.4,1.6
		c-2.1,0.1-3.7,0.1-5.1-0.2c-0.4-2.6-1.1-5.1-2-7.6l1.8-0.8C181.7,196.9,182.4,197.5,183.1,198L183.1,198z M232.3,132
		c-2.3,0.8-4,2.1-5,4c-1,1.9-1.2,3.7-0.6,5.6c0.6,1.9,1.7,3.2,3.3,4.1c1.5,0.8,3.3,1.4,5.4,1.8c2.1,0.4,4.2,0.7,6.5,0.9
		c2.3,0.2,4.5,0.7,6.7,1.4c2.2,0.7,4.1,1.8,5.9,3.3c1.8,1.5,3.1,3.7,4.1,6.6c0.8,2.5,1.1,5,0.9,7.5c-0.3,2.4-1,4.7-2.3,6.8
		c-1.3,2.1-3,3.9-5.2,5.6c-2.2,1.6-4.8,2.9-7.9,3.9c-2.8,0.9-5.3,1.4-7.7,1.6c-2.4,0.1-4.2,0-5.7-0.5c-0.1-2-0.2-3.7-0.3-5.3
		s-0.4-3.3-0.7-5.1l1.5-0.5c0.6,1.1,1.3,2,2.2,2.8c0.9,0.8,1.9,1.4,3,1.9c1.1,0.5,2.4,0.7,3.7,0.8c1.4,0,2.8-0.2,4.3-0.7
		c3.1-1,5.1-2.5,6-4.5c0.9-2,1.1-4.1,0.4-6.2c-0.6-1.9-1.7-3.3-3.3-4.2c-1.5-0.9-3.3-1.5-5.3-1.9c-2-0.4-4.1-0.7-6.4-0.9
		c-2.3-0.2-4.5-0.7-6.6-1.4c-2.1-0.7-4-1.8-5.8-3.3c-1.7-1.5-3.1-3.7-4.1-6.6c-0.9-2.6-1.2-5.1-0.9-7.5c0.3-2.4,1-4.5,2.1-6.4
		c1.1-1.9,2.6-3.5,4.4-4.9c1.8-1.4,3.9-2.5,6.2-3.2c2.8-0.9,5.3-1.4,7.6-1.4c2.3,0,4.4,0.3,6.2,1c-0.1,1.3-0.1,2.6-0.1,3.8l0.1,4.6
		l-1.1,0.4C240.6,131.7,236.8,130.5,232.3,132L232.3,132z M258.1,128c-1.2-4.2-2.6-8.5-3.9-12.8c0.7-0.1,1.6-0.2,2.6-0.4
		c1.1-0.2,2.2-0.5,3.3-0.8c1.1-0.3,2.2-0.6,3.2-1c1-0.4,1.8-0.7,2.5-1c1,4.4,2,8.8,3,13c1,4.3,2.2,9,3.6,14l0.2,0.1
		c0.8-2.5,2-4.7,3.6-6.4c1.6-1.7,3.7-2.9,6.2-3.6c3.9-1,7.2-0.7,9.9,1s4.7,5.1,6.1,10.1c0.7,2.6,1.3,5,1.7,7
		c0.4,2.1,0.9,4.1,1.5,6.1c0.4,1.7,1,3.5,1.6,5.4c0.6,1.9,1.2,3.8,1.8,5.6c-0.7,0.1-1.6,0.3-2.6,0.5l-3.3,0.9l-3.3,0.9
		c-1,0.3-1.9,0.6-2.5,0.8c-0.4-2.8-1-6-1.9-9.7c-0.9-3.7-1.9-7.9-3.2-12.6c-0.9-3.3-2.1-5.5-3.6-6.7c-1.5-1.2-3.3-1.6-5.3-1
		c-2.3,0.6-3.8,2.1-4.3,4.4c-0.5,2.3-0.3,5.3,0.6,8.8l0.8,3.1c0.2,0.7,0.5,1.8,0.9,3.1c0.4,1.4,0.8,2.9,1.3,4.5
		c0.5,1.6,1,3.3,1.5,4.9c0.5,1.7,1,3.1,1.5,4.3c-0.7,0.1-1.6,0.3-2.6,0.5l-3.3,0.9l-3.3,0.9c-1,0.3-1.9,0.6-2.5,0.8
		c-0.9-4.3-1.9-8.5-2.9-12.8c-1-4.3-2.2-9-3.6-14l-1.4-5.1C260.7,136.9,259.4,132.2,258.1,128L258.1,128z M305.9,129.2
		c1.8-2.2,3.9-4.1,6.3-5.6c2.4-1.5,4.8-2.5,7.3-3c2.1-0.4,4.1-0.6,5.9-0.5c1.9,0.1,3.5,0.5,5,1.3c1.5,0.8,2.8,1.9,3.8,3.4
		c1.1,1.5,1.8,3.4,2.3,5.7c0.7,3.4,1.3,6.5,1.8,9.4c0.5,2.9,1.1,5.7,1.7,8.6c0.3,1.3,0.6,2.2,0.9,2.9c0.3,0.7,0.7,1.2,1.2,1.4
		c0.4,0.3,1,0.4,1.6,0.4c0.6,0,1.3-0.1,2.1-0.3l0.4,1.9c-1.4,0.9-2.6,1.7-3.6,2.2c-1,0.5-2.1,0.9-3.3,1.2c-1.9,0.4-3.6,0.3-5-0.4
		c-1.4-0.7-2.6-1.9-3.6-3.5c-0.9,1.9-2,3.6-3.4,4.9c-1.4,1.3-3.3,2.3-5.7,2.8c-2,0.4-3.8,0.5-5.3,0.3c-1.5-0.2-2.9-0.7-4-1.5
		c-1.1-0.8-2-1.7-2.7-2.9c-0.7-1.1-1.2-2.4-1.4-3.6c-0.4-1.7-0.4-3.3-0.1-4.7s0.9-2.6,1.7-3.7c0.8-1.1,1.9-2.1,3.2-3
		c1.3-0.9,2.8-1.8,4.5-2.5c2.1-1,3.7-1.8,5-2.5c1.2-0.7,2.1-1.3,2.6-1.8s0.9-1,0.9-1.6c0.1-0.5,0.1-1.1-0.1-1.8
		c-0.4-1.9-1.4-3.4-3-4.4c-1.6-1.1-3.6-1.3-6-0.8c-0.9,0.2-1.8,0.5-2.7,0.9s-1.7,1-2.5,1.6c-0.8,0.6-1.5,1.2-2.1,1.9
		c-0.6,0.6-1,1.3-1.3,2l-0.6,0.1L305.9,129.2L305.9,129.2z M329.1,146.8c-0.5-2.3-0.8-4-1-5.2c-0.2-1.2-0.4-2.2-0.6-3.1
		c-1,0.9-2,1.6-3.2,2.3c-1.2,0.7-2.2,1.4-3.1,2.2c-0.9,0.8-1.6,1.8-2,3c-0.4,1.2-0.4,2.8,0,4.8c0.4,1.9,1.1,3.3,2.2,4.2
		c1,0.9,2.2,1.1,3.6,0.9c1.7-0.4,3-1.3,3.8-2.9C329.5,151.4,329.6,149.3,329.1,146.8L329.1,146.8z M358.2,124.6
		c0.8-3.9,2-6.8,3.7-8.9c1.7-2,3.9-3.3,6.6-3.7c0.3,0,0.5-0.1,0.7-0.1c0.2,0,0.4,0,0.6-0.1c0,0.8,0,1.7,0.1,2.6
		c0.1,0.9,0.2,2,0.4,3.2l0.4,2.5l0.2,1.4c0,0,0.2,0.9,0.3,1.3l-0.6,0.8c-0.6-0.2-1.2-0.4-1.9-0.5c-0.7-0.1-1.5-0.1-2.3,0.1
		c-2.4,0.4-4.1,1.5-5.3,3.3c-1.1,1.8-1.5,3.7-1.2,5.9l0.5,3.2c0.5,3.2,1.1,6.3,1.6,9.1c0.5,2.8,1.2,5.6,1.9,8.2
		c-0.7,0-1.6,0.1-2.6,0.3l-3.4,0.6l-3.3,0.5c-1,0.2-1.9,0.4-2.6,0.6c-0.2-2.7-0.4-5.5-0.8-8.4s-0.8-5.9-1.4-9.2l-0.5-3.2
		c-0.5-3.2-1.1-6.3-1.6-9.1s-1.2-5.6-1.9-8.5c0.9,0,1.8-0.1,2.8-0.2c0.9-0.1,1.9-0.2,2.8-0.3c0.9-0.1,1.8-0.3,2.7-0.6
		c0.9-0.2,1.8-0.5,2.7-0.7l1.4,9.7L358.2,124.6L358.2,124.6z M388.6,129.8c0.3,2.1,0.7,4.1,1.4,5.9c0.7,1.8,1.5,3.3,2.5,4.6
		c1,1.3,2.3,2.2,3.7,2.8c1.5,0.6,3.1,0.8,4.9,0.6c3.7-0.4,6.8-2,9.4-4.8l1,0.6l-1.2,4.7c-1.2,1.2-2.7,2.2-4.5,3
		c-1.8,0.8-4.2,1.4-7.2,1.8c-2.6,0.3-5.1,0.3-7.6-0.2c-2.4-0.4-4.6-1.4-6.6-2.8c-2-1.4-3.7-3.4-5-5.8c-1.3-2.4-2.2-5.4-2.7-8.9
		c-0.4-3.5-0.3-6.5,0.3-9.2c0.6-2.7,1.7-5,3.1-6.9s3.2-3.4,5.4-4.6c2.2-1.1,4.6-1.9,7.2-2.2c5.3-0.6,9.5,0.4,12.7,3.2
		c3.2,2.8,5.1,7,5.8,12.6l0.2,1.7c0.1,0.5,0.1,0.8,0,1L388.6,129.8L388.6,129.8z M400.4,124.7c-0.6-4-1.5-7.1-2.6-9.4
		c-1.2-2.3-2.8-3.3-4.9-3.1c-1.2,0.1-2.1,0.7-2.8,1.6c-0.7,0.9-1.2,2-1.5,3.3s-0.5,2.8-0.6,4.4c0,1.6,0,3.2,0.1,4.7
		C388.1,126.2,400.4,124.7,400.4,124.7z M470.2,112.4c-1.1,3.4-2.3,7-3.4,10.5c-1.2,3.6-2.3,7.1-3.4,10.6c-1.1,3.5-2,6.6-2.8,9.3
		c-1.2-0.1-2.6-0.1-4.1,0l-2.1,0.1c-0.7,0-1.4,0.1-2.1,0.2c-0.7-2.2-1.5-5-2.6-8.5c-1.1-3.5-2.2-7.1-3.5-11
		c-1.2-3.9-2.5-7.8-3.8-11.8c-1.3-4-2.5-7.6-3.6-10.9c-1.1-3.3-2.1-6.1-2.8-8.4c-0.8-2.3-1.3-3.7-1.5-4.3c1.2,0.1,2.3,0.1,3.5,0.2
		s2.2,0.1,3.3,0c1.1,0,2.2-0.1,3.3-0.2c1.1-0.1,2.2-0.2,3.3-0.4c0.9,3.4,1.9,6.9,2.9,10.5c1,3.6,2,7.1,3.1,10.6
		c1,3.5,2.1,6.9,3,10.1c1,3.3,1.9,6.3,2.7,9.1l0.2,0c1.1-3.4,2.3-7.1,3.5-11.1c1.3-4,2.5-7.9,3.7-11.7c1.2-3.8,2.3-7.3,3.2-10.6
		c1-3.2,1.7-5.8,2.3-7.7c0.7,0.1,1.4,0.2,2,0.2s1.3,0.1,2,0.1c0.7,0,1.4-0.1,2-0.2c0.6-0.1,1.3-0.2,2-0.3c0.2,1.2,0.7,2.7,1.3,4.7
		c0.6,2,1.4,4.1,2.2,6.5c0.8,2.4,1.8,4.9,2.7,7.6c1,2.7,1.9,5.3,2.9,7.9c1,2.6,1.9,5.1,2.7,7.4c0.8,2.3,1.5,4.4,2,6.1l0.2,0
		c1-3.4,2-7.2,3.1-11.3c1.1-4.1,2.1-8.1,3.2-11.9c1-3.8,1.9-7.4,2.8-10.6c0.8-3.2,1.4-5.6,1.7-7.2c1.3,0.2,2.5,0.3,3.4,0.3
		c0.6,0,1.2-0.1,1.8-0.2c0.6-0.1,1.2-0.2,1.9-0.3c-0.3,1-0.9,2.7-1.6,5c-0.7,2.3-1.6,5.1-2.6,8.3c-1,3.2-2,6.6-3.2,10.4
		c-1.1,3.7-2.3,7.5-3.4,11.3c-1.1,3.8-2.2,7.5-3.3,11.1c-1.1,3.6-2,6.9-2.7,9.7c-1.2-0.1-2.6-0.1-4.1,0l-2.1,0.1
		c-0.7,0-1.4,0.1-2.1,0.2c-1.9-6.5-4-12.9-6.4-19.4c-2.4-6.4-4.8-12.9-7.5-19.6l-0.2,0C472.4,105.9,471.3,109,470.2,112.4z
		 M519.1,94.7c0.1-4.4,0.1-8.9,0-13.4c0.7,0.1,1.6,0.3,2.6,0.4c1.1,0.1,2.2,0.2,3.4,0.3c1.2,0,2.3,0.1,3.4,0c1.1,0,2-0.1,2.7-0.2
		c-0.4,4.5-0.7,8.9-1,13.3c-0.3,4.4-0.5,9.2-0.7,14.5l0.2,0.2c1.5-2.2,3.3-3.9,5.3-5c2.1-1.2,4.4-1.7,7-1.6c4,0.2,7.1,1.4,9.2,3.9
		s3,6.2,2.8,11.4c-0.1,2.7-0.3,5.1-0.4,7.2c-0.2,2.1-0.3,4.2-0.4,6.3c-0.1,1.7-0.1,3.6-0.1,5.6c0,2,0,4,0,5.8
		c-0.7-0.1-1.6-0.2-2.6-0.3l-3.4-0.1l-3.4-0.1c-1.1,0-2,0-2.7,0.1c0.5-2.8,0.9-6.1,1.1-9.8c0.3-3.8,0.5-8.1,0.7-13
		c0.1-3.4-0.3-5.9-1.4-7.5c-1.1-1.6-2.7-2.5-4.8-2.6c-2.4-0.1-4.2,0.9-5.4,2.9c-1.2,2-1.9,4.9-2,8.6l-0.1,3.2c0,0.8-0.1,1.8-0.1,3.3
		c0,1.4-0.1,3-0.1,4.7c0,1.7,0,3.4,0,5.2c0,1.7,0,3.3,0.1,4.6c-0.7-0.1-1.6-0.2-2.6-0.3l-3.4-0.1l-3.4-0.1c-1.1,0-2,0-2.7,0.1
		c0.4-4.3,0.7-8.7,1-13.1c0.3-4.4,0.5-9.2,0.7-14.5l0.2-5.2C518.9,103.9,519,99.1,519.1,94.7L519.1,94.7z M564.2,110
		c2.4-1.6,5-2.8,7.6-3.5c2.7-0.7,5.3-1,7.9-0.8c2.1,0.2,4.1,0.6,5.8,1.2c1.7,0.6,3.2,1.5,4.5,2.7c1.2,1.2,2.1,2.6,2.7,4.3
		c0.6,1.7,0.8,3.8,0.5,6.1c-0.3,3.4-0.6,6.6-1,9.5c-0.3,2.9-0.6,5.8-0.9,8.7c-0.1,1.3-0.1,2.3,0,3c0.1,0.7,0.4,1.3,0.7,1.7
		c0.3,0.4,0.8,0.7,1.4,0.9c0.6,0.2,1.3,0.3,2.1,0.4l-0.2,1.9c-1.6,0.5-3,0.9-4.1,1.1c-1.1,0.2-2.3,0.3-3.5,0.2
		c-2-0.2-3.5-0.8-4.7-1.9c-1.1-1.1-2-2.5-2.4-4.4c-1.4,1.6-2.9,2.8-4.7,3.7c-1.7,0.9-3.8,1.2-6.3,1c-2-0.2-3.7-0.6-5.1-1.3
		c-1.4-0.7-2.5-1.5-3.4-2.6c-0.8-1.1-1.4-2.3-1.7-3.6c-0.3-1.3-0.4-2.6-0.3-3.9c0.2-1.8,0.6-3.3,1.2-4.5c0.7-1.2,1.6-2.3,2.7-3.1
		c1.1-0.8,2.4-1.5,3.9-2c1.5-0.5,3.2-0.9,5-1.1c2.3-0.3,4.1-0.6,5.5-0.9c1.3-0.3,2.4-0.6,3-0.9c0.7-0.3,1.1-0.7,1.4-1.2
		c0.2-0.5,0.4-1,0.4-1.7c0.2-1.9-0.4-3.6-1.6-5.1s-3.1-2.3-5.5-2.5c-0.9-0.1-1.9,0-2.8,0.1s-1.9,0.4-2.9,0.8
		c-0.9,0.4-1.8,0.7-2.5,1.2c-0.8,0.4-1.4,0.9-1.8,1.5l-0.6-0.1L564.2,110L564.2,110z M581.3,133.5c0.2-2.3,0.4-4.1,0.5-5.3
		c0.1-1.2,0.2-2.3,0.3-3.2c-1.2,0.5-2.4,1-3.7,1.2c-1.3,0.3-2.5,0.7-3.6,1.2c-1.1,0.5-2,1.3-2.8,2.3c-0.8,1-1.2,2.5-1.4,4.6
		c-0.2,2,0.1,3.5,0.8,4.6c0.7,1.1,1.8,1.7,3.2,1.9c1.8,0.2,3.3-0.4,4.5-1.6C580.3,138.1,581.1,136.1,581.3,133.5z M624.9,114.5
		c-0.1,0.7-0.1,1.4,0,2l-7-1.1c-0.3,1.2-0.5,2.6-0.8,4.2c-0.3,1.6-0.5,3.2-0.8,4.9l-0.7,4.8c-0.2,1.5-0.4,2.8-0.5,3.9
		c-0.4,2.8-0.6,5-0.7,6.7c-0.1,1.7,0,3.1,0.2,4c0.2,0.9,0.6,1.6,1.1,2c0.5,0.4,1.3,0.6,2.2,0.8c1,0.1,1.8,0.2,2.3,0.1
		c0.5-0.1,1-0.2,1.5-0.4l-0.4,3.3c-1.1,0.3-2.5,0.6-4.2,0.8c-1.6,0.2-3.2,0.2-4.8,0c-6.8-0.9-9.6-5.3-8.6-13.4
		c0.2-1.5,0.4-3.3,0.7-5.2c0.3-1.9,0.6-3.9,1-6s0.7-4.1,1-6c0.3-2,0.6-3.8,0.8-5.5l-5.6-0.6c0.2-0.6,0.4-1.3,0.5-2
		c0.1-0.6,0.1-1.4,0-2.2l5.6,1c0.2-1.7,0.4-3.2,0.5-4.6c0.1-1.4,0.3-3.2,0.4-5.2c2-0.5,3.9-1.1,5.8-1.7c1.9-0.6,3.8-1.2,5.8-1.9
		l0.7,0.7c-0.2,0.8-0.4,1.8-0.7,3s-0.5,2.3-0.7,3.6c-0.2,1.2-0.5,2.5-0.6,3.8c-0.2,1.3-0.4,2.5-0.5,3.7l7,0.7
		C625.2,113.1,625,113.8,624.9,114.5L624.9,114.5z M682.3,130.9c-1.9,3.1-3.9,6.2-5.9,9.4c-2,3.2-3.9,6.3-5.8,9.4
		c-1.9,3.1-3.5,5.9-5,8.3c-1.2-0.4-2.5-0.7-4-1l-2-0.4c-0.7-0.1-1.4-0.2-2.1-0.3c-0.1-2.3-0.3-5.2-0.4-8.8
		c-0.2-3.6-0.4-7.5-0.7-11.5c-0.3-4.1-0.5-8.2-0.8-12.3c-0.3-4.2-0.6-8-0.9-11.4c-0.3-3.5-0.5-6.4-0.7-8.9c-0.2-2.4-0.3-3.9-0.4-4.5
		c1.1,0.4,2.2,0.7,3.3,1c1.1,0.3,2.1,0.6,3.2,0.8c1,0.2,2.1,0.4,3.2,0.6c1.1,0.2,2.2,0.3,3.2,0.4c0,3.5,0.1,7.2,0.2,10.9
		c0.1,3.7,0.2,7.4,0.4,11.1c0.2,3.6,0.3,7.2,0.5,10.6c0.2,3.4,0.3,6.6,0.4,9.5l0.2,0c1.9-3,3.9-6.4,6.1-9.9c2.2-3.6,4.3-7,6.4-10.5
		c2.1-3.4,4-6.6,5.7-9.5c1.7-2.9,3.1-5.2,4.1-6.9c0.7,0.3,1.3,0.5,1.9,0.7c0.6,0.2,1.3,0.4,1.9,0.6c0.7,0.1,1.3,0.3,2,0.3
		c0.6,0.1,1.3,0.1,2,0.2c0,1.2,0,2.8,0.2,4.9c0.1,2.1,0.3,4.4,0.6,6.9c0.2,2.5,0.5,5.2,0.8,8c0.3,2.8,0.6,5.6,0.9,8.4
		c0.3,2.8,0.6,5.4,0.8,7.8c0.2,2.5,0.4,4.6,0.5,6.5l0.2,0c1.8-3.1,3.7-6.5,5.7-10.2s4-7.3,6-10.8c1.9-3.5,3.7-6.7,5.2-9.6
		c1.6-2.9,2.7-5.1,3.4-6.6c1.3,0.6,2.3,0.9,3.2,1.1c0.6,0.1,1.2,0.2,1.8,0.3c0.6,0.1,1.3,0.1,1.9,0.1c-0.6,0.9-1.5,2.4-2.8,4.5
		c-1.3,2.1-2.8,4.5-4.5,7.4c-1.7,2.8-3.6,5.9-5.6,9.3c-2,3.4-4,6.7-6,10.1c-2,3.4-4,6.7-5.9,10c-1.9,3.3-3.6,6.2-5,8.8
		c-1.2-0.4-2.5-0.7-4-1l-2-0.4c-0.7-0.1-1.4-0.2-2.1-0.3c-0.3-6.8-0.8-13.5-1.5-20.3c-0.7-6.8-1.6-13.7-2.5-20.8l-0.2,0
		C686,125.1,684.3,127.9,682.3,130.9L682.3,130.9z M730.1,154c-0.6,2.1-1,4.1-1.1,6c-0.1,1.9,0.1,3.7,0.5,5.2c0.5,1.6,1.2,2.9,2.3,4
		c1.1,1.1,2.5,2,4.3,2.5c3.6,1,7.1,0.8,10.5-0.7l0.7,1l-3,3.8c-1.6,0.6-3.4,0.9-5.3,1c-2,0.1-4.4-0.3-7.4-1.2
		c-2.5-0.7-4.8-1.8-6.9-3.2c-2.1-1.4-3.7-3.1-5-5.2c-1.3-2.1-2-4.5-2.3-7.3c-0.3-2.7,0.1-5.8,1.1-9.2c1-3.3,2.3-6.1,3.9-8.3
		c1.6-2.2,3.5-3.9,5.6-5.1c2.1-1.2,4.3-1.9,6.8-2c2.4-0.2,4.9,0.1,7.5,0.9c5.1,1.5,8.6,4.1,10.4,7.9c1.8,3.8,1.9,8.4,0.3,13.9
		l-0.5,1.6c-0.1,0.5-0.3,0.8-0.4,0.9L730.1,154L730.1,154z M743,154.1c1-3.9,1.5-7.1,1.3-9.7c-0.2-2.6-1.3-4.1-3.3-4.7
		c-1.1-0.3-2.2-0.2-3.2,0.3s-1.9,1.4-2.7,2.4s-1.6,2.3-2.2,3.8c-0.7,1.5-1.3,2.9-1.8,4.4L743,154.1z M788.7,183.5
		c-1.5,3.9-2.6,7.1-3.2,9.5c-0.8-0.4-1.7-0.9-2.7-1.3l-3.4-1.4L776,189c-1-0.4-1.9-0.7-2.8-1c1.4-3,2.9-6.1,4.2-9.3
		c1.4-3.2,2.9-6.8,4.6-11l4.1-10.2c1.7-4.1,3.1-7.8,4.3-11.1c1.2-3.3,2.3-6.5,3.4-9.9c0.8,0.4,1.7,0.9,2.7,1.4c1,0.5,2.1,1,3.3,1.5
		c1.2,0.5,2.4,0.9,3.4,1.2c1,0.3,2,0.6,2.9,0.8c-0.8,1.4-1.9,3.6-3.2,6.5c-1.3,3-2.6,6.3-4.1,9.9l-2.9,7.2c2.5-1.3,5.2-2.8,8.1-4.4
		c2.9-1.6,5.7-3.1,8.4-4.7c2.7-1.5,5.1-2.9,7.3-4.2c2.2-1.3,3.8-2.3,4.8-3c0.7,0.4,1.3,0.7,2,1.1c0.7,0.4,1.3,0.7,2,1
		c0.7,0.3,1.4,0.5,2.2,0.7c0.8,0.2,1.6,0.4,2.5,0.7c-1.2,0.5-3,1.4-5.5,2.6c-2.5,1.2-5.2,2.5-8,3.9c-2.8,1.4-5.6,2.8-8.2,4.1
		c-2.6,1.3-4.7,2.4-6.2,3.2c0.6,3.1,1.3,6.5,2.1,10.2s1.5,7.4,2.3,11c0.8,3.6,1.5,6.9,2.2,9.9s1.3,5.3,1.8,6.9
		c-1.4-0.7-2.7-1.2-3.8-1.7l-3.4-1.4l-3.3-1.3c-1.1-0.4-2.2-0.8-3.3-1.2c-1-4.8-2-9.7-2.8-14.5c-0.9-4.9-1.8-9.8-2.8-14.7l-0.1-0.1
		C792,174.9,790.2,179.6,788.7,183.5z M841.1,181.5c2.3-1.4,4.7-2.1,7-2.4c2.4-0.2,4.7,0.2,7,1.4c3.6,1.8,5.9,4.2,6.8,7.3
		c0.9,3.1,0.2,6.9-2.1,11.6c-1.2,2.5-2.3,4.6-3.3,6.4c-1,1.8-2,3.7-2.9,5.6c-0.8,1.5-1.5,3.2-2.4,5.1c-0.8,1.8-1.6,3.6-2.3,5.4
		c-0.6-0.4-1.4-0.8-2.3-1.3l-3-1.5l-3-1.5c-1-0.5-1.8-0.8-2.5-1c1.6-2.3,3.2-5.2,5-8.5s3.7-7.2,5.9-11.6c1.5-3,2.1-5.5,1.7-7.4
		c-0.3-1.9-1.4-3.4-3.3-4.3c-2.2-1.1-4.2-0.9-6.2,0.5c-1.9,1.4-3.7,3.7-5.4,7.1l-1.4,2.9c-1.4,2.9-2.8,5.7-4,8.4
		c-1.2,2.6-2.3,5.2-3.2,7.7c-0.6-0.4-1.3-0.8-2.3-1.3l-3.1-1.5l-3-1.5c-0.9-0.5-1.7-0.8-2.5-1c1.4-2.3,2.8-4.7,4.2-7.3
		c1.4-2.6,2.8-5.3,4.2-8.3l1.4-2.9c1.4-2.9,2.8-5.7,4-8.3c1.2-2.6,2.3-5.3,3.4-8c0.8,0.5,1.6,1,2.4,1.5c0.8,0.5,1.6,0.9,2.5,1.4
		c0.9,0.4,1.7,0.8,2.6,1.2c0.9,0.3,1.8,0.7,2.8,1.1l-3,5.3L841.1,181.5L841.1,181.5z M863.4,208.8c1.8-3.1,3.9-5.5,6.2-7.2
		c2.3-1.7,4.7-2.9,7.2-3.5c2.5-0.6,5-0.7,7.5-0.2c2.5,0.5,4.8,1.3,7,2.6c5.4,3.2,8.7,7.2,9.8,12c1.1,4.8,0.1,9.8-3,15
		c-1.7,2.8-3.6,5.1-5.8,6.9c-2.2,1.8-4.5,3-6.9,3.7c-2.4,0.7-4.9,0.8-7.5,0.4s-5.1-1.4-7.5-2.9c-2.1-1.2-3.9-2.7-5.6-4.5
		c-1.7-1.8-2.9-3.8-3.8-6s-1.1-4.8-0.8-7.5C860.5,214.8,861.6,211.9,863.4,208.8L863.4,208.8z M888.6,220.3
		c2.4-4.1,3.8-7.5,4.1-10.3c0.3-2.8-0.7-5-3-6.4c-2.1-1.3-4.5-1-7.2,0.7c-2.7,1.8-5.6,5.3-8.8,10.6c-1.2,1.9-2.1,3.8-2.9,5.6
		c-0.8,1.8-1.2,3.5-1.4,5c-0.2,1.5-0.1,2.9,0.4,4.1c0.4,1.2,1.3,2.2,2.6,3C876.7,235.3,882.1,231.2,888.6,220.3L888.6,220.3z
		 M955.2,246.1c0.8,0.9,1.5,1.7,2.3,2.2c0.4,0.3,0.9,0.6,1.3,0.8l1.6,0.9c-0.7,0.3-1.8,0.9-3.3,1.8c-1.5,0.9-3.2,2-5.1,3.3
		c-1.9,1.3-4.1,2.7-6.3,4.3c-2.3,1.5-4.5,3.1-6.8,4.7c-2.3,1.6-4.5,3.1-6.7,4.6c-2.2,1.5-4.1,2.9-5.8,4.1c-0.5-0.5-1.1-1-1.7-1.5
		l-1.8-1.3l-1.8-1.4c-0.6-0.5-1.2-0.9-1.9-1.2c0.7-2,1.5-4.2,2.3-6.5c0.8-2.3,1.7-4.5,2.5-6.8c0.8-2.2,1.6-4.4,2.4-6.6
		c0.8-2.1,1.5-4.1,2.2-5.9l-0.1-0.1c-3.8,2.8-7.6,5.5-11.3,8.1c-3.7,2.6-7.4,5.3-10.9,8c-0.5-0.5-1.1-1-1.7-1.5l-1.8-1.4l-1.9-1.4
		c-0.6-0.5-1.3-0.9-2-1.3c0.7-1.9,1.6-4.2,2.5-6.7c0.9-2.5,1.9-5.2,2.8-7.8c0.9-2.7,1.8-5.3,2.7-7.9c0.9-2.6,1.7-5,2.4-7.2
		c0.7-2.2,1.3-4,1.9-5.6c0.5-1.6,0.8-2.6,1-3.2c0.9,0.8,1.7,1.5,2.4,2.2c0.7,0.7,1.5,1.3,2.3,1.9c0.8,0.6,1.6,1.1,2.4,1.7
		c0.8,0.5,1.7,1,2.5,1.5c-1.8,4.5-3.6,9.1-5.4,13.9s-3.5,9.1-5,13.1l0.1,0.1c4.1-2.8,8-5.7,11.8-8.6s7.6-5.8,11.5-8.8
		c0.5,0.5,1.1,1.1,1.6,1.6c0.6,0.5,1.1,1,1.7,1.5s1.2,0.9,1.9,1.3c0.6,0.4,1.3,0.8,2,1.1c-1.8,4.5-3.6,9-5.2,13.5
		c-1.7,4.5-3.4,9-5,13.6l0.1,0.1C940,257.8,947.7,252,955.2,246.1L955.2,246.1z M225.2,864.7c-1.2,3.4-2.5,6.9-3.7,10.4
		c-1.3,3.5-2.5,7-3.7,10.5c-1.2,3.4-2.2,6.5-3.1,9.2c-1.2-0.1-2.6-0.2-4.1-0.2h-2.1c-0.7,0-1.4,0.1-2.1,0.2c-0.6-2.2-1.4-5-2.3-8.5
		c-1-3.5-2-7.2-3.1-11.1c-1.1-3.9-2.3-7.9-3.5-11.9c-1.2-4-2.3-7.7-3.3-11c-1-3.3-1.9-6.2-2.6-8.5c-0.7-2.3-1.2-3.8-1.4-4.3
		c1.2,0.1,2.3,0.2,3.5,0.3c1.1,0.1,2.2,0.1,3.3,0.1c1.1,0,2.2,0,3.3-0.1c1.1-0.1,2.2-0.2,3.3-0.3c0.8,3.4,1.7,7,2.6,10.6
		c0.9,3.6,1.8,7.2,2.8,10.7c0.9,3.5,1.9,6.9,2.7,10.2s1.7,6.3,2.5,9.1h0.2c1.2-3.4,2.5-7,3.8-11c1.4-3.9,2.7-7.8,4-11.6
		c1.3-3.8,2.5-7.3,3.5-10.5c1.1-3.2,1.9-5.7,2.5-7.6c0.7,0.1,1.4,0.2,2,0.3c0.6,0.1,1.3,0.1,2,0.1c0.7,0,1.4,0,2-0.1
		c0.6-0.1,1.3-0.2,2-0.3c0.2,1.2,0.6,2.8,1.2,4.8c0.6,2,1.3,4.2,2.1,6.6c0.8,2.4,1.6,5,2.5,7.6c0.9,2.7,1.8,5.3,2.7,8
		c0.9,2.6,1.7,5.1,2.5,7.5c0.8,2.4,1.4,4.4,1.9,6.2h0.2c1.1-3.4,2.2-7.1,3.4-11.2c1.2-4.1,2.4-8,3.5-11.8s2.1-7.3,3.1-10.5
		c0.9-3.2,1.6-5.6,1.9-7.2c1.3,0.3,2.5,0.4,3.4,0.4c0.6,0,1.2,0,1.8-0.1c0.6-0.1,1.2-0.2,1.9-0.3c-0.4,1-1,2.7-1.8,5
		c-0.8,2.3-1.7,5-2.8,8.2c-1.1,3.1-2.2,6.6-3.5,10.3c-1.2,3.7-2.5,7.4-3.7,11.2c-1.2,3.8-2.4,7.4-3.6,11c-1.2,3.6-2.2,6.8-3,9.7
		c-1.2-0.1-2.6-0.2-4.1-0.2h-2.1c-0.7,0-1.4,0.1-2.1,0.2c-1.7-6.5-3.7-13.1-5.8-19.5s-4.5-13.1-6.9-19.8h-0.2
		C227.5,858.2,226.4,861.3,225.2,864.7L225.2,864.7z M266.1,876.5c0-3.6,0.5-6.7,1.6-9.4c1.1-2.7,2.6-4.9,4.4-6.7
		c1.8-1.8,3.9-3.1,6.3-4c2.4-0.9,4.8-1.3,7.4-1.3c6.3,0,11.1,1.8,14.6,5.3c3.4,3.5,5.2,8.3,5.2,14.4c0,3.3-0.5,6.2-1.4,8.9
		c-1,2.6-2.3,4.9-4.1,6.7c-1.7,1.9-3.8,3.2-6.2,4.1s-5.1,1.4-8,1.4c-2.4,0-4.8-0.3-7.1-1c-2.3-0.6-4.4-1.7-6.3-3.3
		c-1.9-1.5-3.4-3.5-4.5-6C266.7,883.1,266.1,880.1,266.1,876.5L266.1,876.5z M293.6,873.5c0-4.7-0.6-8.4-1.8-11
		c-1.2-2.6-3.1-3.9-5.9-3.9c-2.5,0-4.4,1.4-5.8,4.3c-1.4,2.9-2.1,7.4-2.1,13.6c0,2.3,0.1,4.3,0.4,6.3c0.3,1.9,0.7,3.6,1.3,5
		c0.6,1.4,1.4,2.5,2.4,3.3c1,0.8,2.2,1.2,3.7,1.2C291.1,892.4,293.6,886.1,293.6,873.5L293.6,873.5z M324.1,866
		c1.4-3.7,3.1-6.4,5.1-8.2c2-1.7,4.3-2.6,7.1-2.6c0.3,0,0.5,0,0.7,0c0.2,0,0.4,0,0.6,0c-0.2,0.8-0.3,1.7-0.4,2.6
		c-0.1,0.9-0.1,2-0.1,3.2v3.9c0,0.5,0,0.9,0.1,1.4l-0.7,0.6c-0.5-0.3-1.1-0.6-1.8-0.8c-0.7-0.2-1.4-0.3-2.3-0.3
		c-2.4,0-4.3,0.8-5.7,2.4c-1.4,1.6-2.1,3.4-2.1,5.6v3.2c0,3.3,0,6.4,0.1,9.3c0.1,2.9,0.3,5.7,0.5,8.4c-0.7-0.1-1.6-0.2-2.6-0.2h-6.8
		c-1,0-1.9,0.1-2.7,0.2c0.3-2.7,0.4-5.5,0.5-8.4c0.1-2.9,0.1-6,0.1-9.3v-3.2c0-3.3,0-6.3-0.1-9.2c-0.1-2.9-0.3-5.8-0.5-8.7
		c0.9,0.1,1.8,0.2,2.8,0.3c0.9,0.1,1.9,0.1,2.8,0.1c0.9,0,1.8,0,2.8-0.1c0.9-0.1,1.9-0.2,2.8-0.3l-0.2,9.8L324.1,866L324.1,866z
		 M345.2,847.4c-0.1-4.4-0.3-8.9-0.5-13.4c0.7,0.1,1.6,0.2,2.7,0.3c1.1,0.1,2.2,0.1,3.4,0.1c1.2,0,2.3,0,3.4-0.1
		c1.1-0.1,2-0.2,2.7-0.3c-0.2,4.5-0.4,9-0.5,13.4c-0.1,4.4-0.2,9.2-0.2,14.5v5.2c0,5.3,0.1,10.1,0.2,14.5c0.1,4.4,0.3,8.8,0.5,13.1
		c-0.7-0.1-1.6-0.2-2.7-0.2h-6.8c-1.1,0-2,0.1-2.7,0.2c0.2-4.3,0.4-8.7,0.5-13.1c0.1-4.4,0.2-9.2,0.2-14.5v-5.2
		C345.3,856.6,345.3,851.8,345.2,847.4L345.2,847.4z M401.7,867.1c0,5.3,0.1,10.1,0.2,14.5c0.1,4.4,0.3,8.8,0.5,13.1
		c-0.7-0.1-1.6-0.2-2.7-0.2h-6.5c-1,0-1.8,0.1-2.3,0.2c0.1-0.1,0.1-0.5,0.2-1c0.1-0.6,0.1-1.3,0.2-2c0.1-0.8,0.1-1.4,0.2-2.1
		c0.1-0.6,0.1-1,0.1-1.2l-0.2-0.2c-1,2.4-2.4,4.3-4.2,5.6s-4.2,2-7.3,2c-2.7,0-5.1-0.5-7-1.6s-3.5-2.5-4.8-4.4
		c-1.2-1.9-2.1-4.1-2.7-6.6c-0.6-2.5-0.9-5.2-0.9-8.1c0-2.9,0.4-5.6,1.2-8c0.8-2.4,1.9-4.6,3.3-6.4c1.4-1.8,3-3.2,5-4.2
		c1.9-1,3.9-1.5,6.1-1.5c2.4,0,4.6,0.6,6.5,1.7c1.9,1.1,3.3,2.5,4.2,4.3h0.2c0-4.8-0.1-9.4-0.2-13.6c-0.1-4.3-0.3-8.7-0.5-13.2
		c0.7,0.1,1.6,0.2,2.7,0.3c1.1,0.1,2.2,0.1,3.4,0.1c1.2,0,2.3,0,3.4-0.1c1.1-0.1,2-0.2,2.7-0.3c-0.2,4.5-0.4,9-0.5,13.4
		c-0.1,4.4-0.2,9.2-0.2,14.5L401.7,867.1L401.7,867.1z M376.5,876.3c0,2.7,0.2,5,0.6,6.9c0.4,1.9,0.9,3.4,1.5,4.5
		c0.6,1.2,1.4,2,2.2,2.5c0.8,0.5,1.7,0.8,2.6,0.8c2.2,0,4-1.2,5.4-3.7c1.4-2.5,2.1-6.6,2.1-12.4c0-5-0.7-8.6-2-10.9
		c-1.3-2.3-3.1-3.4-5.2-3.4c-0.9,0-1.7,0.2-2.6,0.7c-0.9,0.5-1.6,1.3-2.3,2.5c-0.7,1.2-1.3,2.8-1.7,4.9
		C376.7,870.7,376.5,873.2,376.5,876.3L376.5,876.3z M464.3,864.7c-1.2,3.4-2.5,6.9-3.7,10.4c-1.3,3.5-2.5,7-3.7,10.5
		c-1.2,3.4-2.2,6.5-3.1,9.2c-1.2-0.1-2.6-0.2-4.1-0.2h-2.1c-0.7,0-1.4,0.1-2.1,0.2c-0.6-2.2-1.4-5-2.3-8.5c-1-3.5-2-7.2-3.1-11.1
		c-1.1-3.9-2.3-7.9-3.5-11.9c-1.2-4-2.3-7.7-3.3-11c-1-3.3-1.9-6.2-2.6-8.5c-0.7-2.3-1.2-3.8-1.4-4.3c1.2,0.1,2.3,0.2,3.5,0.3
		c1.1,0.1,2.2,0.1,3.3,0.1c1.1,0,2.2,0,3.3-0.1c1.1-0.1,2.2-0.2,3.3-0.3c0.8,3.4,1.7,7,2.6,10.6c0.9,3.6,1.8,7.2,2.8,10.7
		c0.9,3.5,1.9,6.9,2.7,10.2s1.7,6.3,2.5,9.1h0.2c1.2-3.4,2.5-7,3.8-11c1.4-3.9,2.7-7.8,4-11.6c1.3-3.8,2.5-7.3,3.5-10.5
		c1.1-3.2,1.9-5.7,2.5-7.6c0.7,0.1,1.4,0.2,2,0.3c0.6,0.1,1.3,0.1,2,0.1c0.7,0,1.4,0,2-0.1c0.6-0.1,1.3-0.2,2-0.3
		c0.2,1.2,0.6,2.8,1.2,4.8c0.6,2,1.3,4.2,2.1,6.6c0.8,2.4,1.6,5,2.5,7.6c0.9,2.7,1.8,5.3,2.7,8c0.9,2.6,1.7,5.1,2.5,7.5
		c0.8,2.4,1.4,4.4,1.9,6.2h0.2c1.1-3.4,2.2-7.1,3.4-11.2c1.2-4.1,2.4-8,3.5-11.8s2.1-7.3,3.1-10.5c0.9-3.2,1.6-5.6,1.9-7.2
		c1.3,0.3,2.5,0.4,3.4,0.4c0.6,0,1.2,0,1.8-0.1c0.6-0.1,1.2-0.2,1.9-0.3c-0.4,1-1,2.7-1.8,5c-0.8,2.3-1.7,5-2.8,8.2
		c-1.1,3.1-2.2,6.6-3.5,10.3c-1.2,3.7-2.5,7.4-3.7,11.2c-1.2,3.8-2.4,7.4-3.6,11c-1.2,3.6-2.2,6.8-3,9.7c-1.2-0.1-2.6-0.2-4.1-0.2
		h-2.1c-0.7,0-1.4,0.1-2.1,0.2c-1.7-6.5-3.7-13.1-5.8-19.5s-4.5-13.1-6.9-19.8h-0.2C466.6,858.2,465.5,861.3,464.3,864.7
		L464.3,864.7z M510.6,840.8c0-1.8,0.6-3.3,1.9-4.5c1.2-1.2,2.7-1.9,4.5-1.9s3.3,0.6,4.5,1.9c1.2,1.2,1.9,2.7,1.9,4.5
		s-0.6,3.3-1.9,4.5c-1.2,1.2-2.7,1.9-4.5,1.9s-3.3-0.6-4.5-1.9C511.2,844.1,510.6,842.6,510.6,840.8z M511.6,873.9
		c0-3.3,0-6.3-0.1-9.2s-0.3-5.8-0.5-8.7c0.8,0.1,1.6,0.2,2.7,0.3c1,0.1,2.1,0.1,3.4,0.1c2.5,0,4.5-0.1,6-0.4
		c-0.3,2.9-0.4,5.8-0.5,8.7s-0.1,5.9-0.1,9.2v3.2c0,3.3,0,6.4,0.1,9.3c0.1,2.9,0.3,5.7,0.5,8.4c-0.7-0.1-1.6-0.2-2.6-0.2h-6.8
		c-1,0-1.9,0.1-2.7,0.2c0.3-2.7,0.4-5.5,0.5-8.4c0.1-2.9,0.1-6,0.1-9.3L511.6,873.9L511.6,873.9z M568,867.1
		c0,5.3,0.1,10.1,0.2,14.5c0.1,4.4,0.3,8.8,0.5,13.1c-0.7-0.1-1.6-0.2-2.7-0.2h-6.5c-1,0-1.8,0.1-2.3,0.2c0.1-0.1,0.1-0.5,0.2-1
		c0.1-0.6,0.1-1.3,0.2-2c0.1-0.8,0.1-1.4,0.2-2.1c0.1-0.6,0.1-1,0.1-1.2l-0.2-0.2c-1,2.4-2.4,4.3-4.2,5.6s-4.2,2-7.3,2
		c-2.7,0-5.1-0.5-7-1.6s-3.5-2.5-4.8-4.4c-1.2-1.9-2.1-4.1-2.7-6.6c-0.6-2.5-0.9-5.2-0.9-8.1c0-2.9,0.4-5.6,1.2-8
		c0.8-2.4,1.9-4.6,3.3-6.4c1.4-1.8,3-3.2,5-4.2c1.9-1,3.9-1.5,6.1-1.5c2.4,0,4.6,0.6,6.5,1.7c1.9,1.1,3.3,2.5,4.2,4.3h0.2
		c0-4.8-0.1-9.4-0.2-13.6c-0.1-4.3-0.3-8.7-0.5-13.2c0.7,0.1,1.6,0.2,2.7,0.3c1.1,0.1,2.2,0.1,3.4,0.1c1.2,0,2.3,0,3.4-0.1
		c1.1-0.1,2-0.2,2.7-0.3c-0.2,4.5-0.4,9-0.5,13.4c-0.1,4.4-0.2,9.2-0.2,14.5L568,867.1L568,867.1z M542.7,876.3c0,2.7,0.2,5,0.6,6.9
		c0.4,1.9,0.9,3.4,1.5,4.5c0.6,1.2,1.4,2,2.2,2.5c0.8,0.5,1.7,0.8,2.6,0.8c2.2,0,4-1.2,5.4-3.7c1.4-2.5,2.1-6.6,2.1-12.4
		c0-5-0.7-8.6-2-10.9c-1.3-2.3-3.1-3.4-5.2-3.4c-0.9,0-1.7,0.2-2.6,0.7c-0.9,0.5-1.6,1.3-2.3,2.5c-0.7,1.2-1.3,2.8-1.7,4.9
		C542.9,870.7,542.7,873.2,542.7,876.3L542.7,876.3z M587.5,875.5c0,2.1,0.2,4.2,0.6,6c0.4,1.9,1.1,3.5,2,4.9c0.9,1.4,2,2.4,3.4,3.2
		c1.4,0.8,3,1.2,4.8,1.2c3.7,0,7-1.2,9.9-3.6l1,0.7l-1.8,4.5c-1.3,1-3,1.8-4.8,2.5c-1.9,0.6-4.3,0.9-7.4,0.9c-2.6,0-5.1-0.4-7.5-1.1
		c-2.4-0.7-4.4-1.9-6.2-3.6c-1.8-1.7-3.2-3.8-4.3-6.3c-1-2.5-1.6-5.6-1.6-9.1c0-3.5,0.5-6.5,1.4-9.1c0.9-2.6,2.2-4.7,3.9-6.4
		c1.7-1.7,3.6-3,5.9-3.9c2.3-0.9,4.8-1.3,7.4-1.3c5.3,0,9.4,1.6,12.2,4.7s4.2,7.5,4.2,13.2v1.7c0,0.5,0,0.8-0.1,1L587.5,875.5
		L587.5,875.5z M599.9,871.9c-0.1-4-0.6-7.2-1.5-9.7s-2.4-3.6-4.5-3.6c-1.2,0-2.2,0.4-3,1.2c-0.8,0.8-1.4,1.8-1.9,3.1
		c-0.5,1.3-0.8,2.7-1.1,4.3c-0.2,1.6-0.4,3.2-0.4,4.7L599.9,871.9z M667.3,864.7c-1.2,3.4-2.5,6.9-3.7,10.4c-1.3,3.5-2.5,7-3.7,10.5
		c-1.2,3.4-2.2,6.5-3.1,9.2c-1.2-0.1-2.6-0.2-4.1-0.2h-2.1c-0.7,0-1.4,0.1-2.1,0.2c-0.6-2.2-1.4-5-2.3-8.5c-1-3.5-2-7.2-3.1-11.1
		c-1.1-3.9-2.3-7.9-3.5-11.9c-1.2-4-2.3-7.7-3.3-11c-1-3.3-1.9-6.2-2.6-8.5c-0.7-2.3-1.2-3.8-1.4-4.3c1.2,0.1,2.3,0.2,3.5,0.3
		c1.1,0.1,2.2,0.1,3.3,0.1c1.1,0,2.2,0,3.3-0.1c1.1-0.1,2.2-0.2,3.3-0.3c0.8,3.4,1.7,7,2.6,10.6c0.9,3.6,1.8,7.2,2.8,10.7
		c0.9,3.5,1.9,6.9,2.7,10.2s1.7,6.3,2.5,9.1h0.2c1.2-3.4,2.5-7,3.8-11c1.4-3.9,2.7-7.8,4-11.6c1.3-3.8,2.5-7.3,3.5-10.5
		c1.1-3.2,1.9-5.7,2.5-7.6c0.7,0.1,1.4,0.2,2,0.3c0.6,0.1,1.3,0.1,2,0.1c0.7,0,1.4,0,2-0.1c0.6-0.1,1.3-0.2,2-0.3
		c0.2,1.2,0.6,2.8,1.2,4.8c0.6,2,1.3,4.2,2.1,6.6c0.8,2.4,1.6,5,2.5,7.6c0.9,2.7,1.8,5.3,2.7,8c0.9,2.6,1.7,5.1,2.5,7.5
		c0.8,2.4,1.4,4.4,1.9,6.2h0.2c1.1-3.4,2.2-7.1,3.4-11.2c1.2-4.1,2.4-8,3.5-11.8s2.1-7.3,3.1-10.5c0.9-3.2,1.6-5.6,1.9-7.2
		c1.3,0.3,2.5,0.4,3.4,0.4c0.6,0,1.2,0,1.8-0.1c0.6-0.1,1.2-0.2,1.9-0.3c-0.4,1-1,2.7-1.8,5c-0.8,2.3-1.7,5-2.8,8.2
		c-1.1,3.1-2.2,6.6-3.5,10.3c-1.2,3.7-2.5,7.4-3.7,11.2c-1.2,3.8-2.4,7.4-3.6,11c-1.2,3.6-2.2,6.8-3,9.7c-1.2-0.1-2.6-0.2-4.1-0.2
		h-2.1c-0.7,0-1.4,0.1-2.1,0.2c-1.7-6.5-3.7-13.1-5.8-19.5c-2.2-6.5-4.5-13.1-6.9-19.8h-0.2C669.7,858.2,668.6,861.3,667.3,864.7
		L667.3,864.7z M720.1,875.5c0,2.1,0.2,4.2,0.6,6c0.4,1.9,1.1,3.5,2,4.9s2,2.4,3.4,3.2c1.4,0.8,3,1.2,4.8,1.2c3.7,0,7-1.2,9.9-3.6
		l1,0.7l-1.8,4.5c-1.3,1-3,1.8-4.8,2.5c-1.9,0.6-4.3,0.9-7.4,0.9c-2.6,0-5.1-0.4-7.5-1.1c-2.4-0.7-4.4-1.9-6.2-3.6
		c-1.8-1.7-3.2-3.8-4.3-6.3c-1-2.5-1.6-5.6-1.6-9.1c0-3.5,0.5-6.5,1.4-9.1c0.9-2.6,2.2-4.7,3.9-6.4c1.7-1.7,3.6-3,5.9-3.9
		c2.3-0.9,4.8-1.3,7.4-1.3c5.3,0,9.4,1.6,12.2,4.7s4.2,7.5,4.2,13.2v1.7c0,0.5,0,0.8-0.1,1L720.1,875.5L720.1,875.5z M732.5,871.9
		c-0.1-4-0.6-7.2-1.5-9.7c-0.9-2.4-2.4-3.6-4.5-3.6c-1.2,0-2.2,0.4-3,1.2c-0.8,0.8-1.4,1.8-1.9,3.1c-0.5,1.3-0.8,2.7-1.1,4.3
		c-0.2,1.6-0.4,3.2-0.4,4.7L732.5,871.9z M750.7,861.9c0-5.3-0.1-10.1-0.2-14.5c-0.1-4.4-0.3-8.9-0.5-13.4c0.7,0.1,1.6,0.2,2.7,0.3
		c1.1,0.1,2.2,0.1,3.4,0.1c1.2,0,2.3,0,3.4-0.1c1.1-0.1,2-0.2,2.7-0.3c-0.2,4.5-0.4,9-0.5,13.4c-0.1,4.4-0.2,9.2-0.2,14.5h0.2
		c0.9-2.3,2.3-4,4.2-5.2c1.9-1.2,4.1-1.8,6.5-1.8c2.3,0,4.4,0.5,6.3,1.5s3.5,2.4,4.9,4.1c1.4,1.7,2.4,3.7,3.2,6.1
		c0.8,2.3,1.1,4.8,1.1,7.5c0,4-0.6,7.4-1.7,10.2c-1.1,2.8-2.5,5-4.3,6.7c-1.7,1.7-3.7,2.9-5.8,3.6c-2.1,0.7-4.3,1-6.4,1
		c-2.6,0-4.8-0.5-6.5-1.5c-1.8-1-3.2-2.3-4.3-3.9c-1.1,0.6-2.3,1.4-3.4,2.3c-1.2,0.9-2.3,1.7-3.5,2.4h-1.9c0.2-4.5,0.4-9,0.5-13.4
		c0.1-4.4,0.2-9.3,0.2-14.5L750.7,861.9L750.7,861.9L750.7,861.9z M761.5,875.7c0,2.4,0.1,4.6,0.3,6.6c0.2,2,0.5,3.8,1,5.3
		c0.5,1.5,1.2,2.6,2.1,3.5c0.9,0.9,2.1,1.3,3.5,1.3c2.3,0,4.1-1.4,5.5-4.3c1.4-2.9,2.1-7.6,2.1-14.1c0-9.3-2.3-14-6.9-14
		c-1.1,0-2.2,0.3-3.1,0.8c-0.9,0.5-1.7,1.4-2.4,2.7c-0.7,1.3-1.2,2.9-1.5,4.9C761.7,870.4,761.5,872.8,761.5,875.7L761.5,875.7z"/>
	<rect x="1240" class="st1" width="1000" height="1000"/>
</g>
<g id="Calque_2">
	<path class="st3" d="M1875.6,568.6c9.1-28.9,18-57.9,26.6-87.1c-21.2-62.7-42.9-125.2-59.9-189.1c-10.3,1.2-20,1.8-30.3,1.8
		c-10.3,0-20-0.6-30.3-1.8c-3.2,10.7-6.6,21.4-10,32c8.4-0.2,16.6-0.7,25.1-1.7C1819,405.9,1849.1,486.6,1875.6,568.6L1875.6,568.6z
		 M1646.4,705.1c1.3-0.1,2.5-0.1,3.8-0.1c9.7,0,20,1.8,30.3,3c16.1-47.7,32.3-93.5,48.4-138.4c-5.6-16.2-11.3-32.3-17.1-48.4
		C1690.3,581.1,1668.3,641.5,1646.4,705.1L1646.4,705.1z M1616.2,570.4c10.2-28.3,20.4-56.5,30.5-84.8
		c-17.4-64.1-34.3-128.4-49.8-193.2c-16.4,1.2-33.3,3-49.7,3c-17,0-33.3-1.8-50.3-3l5.4,17.6c1.6,5.2,3.2,10.5,4.8,15.7
		c14.7-0.3,29.7-1.9,44.3-3C1571.3,405.8,1593.5,488.2,1616.2,570.4L1616.2,570.4z M2056.8,294.2c-9.7,0-18.8-0.6-28.5-1.8
		c-2.6,10.7-5.4,21.3-8.2,31.9c6.4-0.3,12.9-0.8,19.1-1.6c-47.4,128.8-91.2,254.6-130.9,382.4c1.6-0.1,3.3-0.1,4.9-0.1
		c9.7,0,20,1.8,30.3,3c42.4-139.3,89.7-275.7,141.2-415.6C2075.5,293.6,2065.9,294.2,2056.8,294.2L2056.8,294.2z"/>
	<path class="st2" d="M1586,655.9c9.8-28.6,19.9-57.1,30.2-85.5c-22.7-82.2-44.9-164.5-64.7-247.7c-14.6,1.1-29.6,2.6-44.3,3
		c-1.8,0-3.6,0.1-5.4,0.1c-17,0-33.3-1.8-50.3-3l5.4,17.6c1.6,5.2,3.2,10.5,4.8,15.7c14.7-0.3,29.7-1.9,44.3-3
		C1530.3,454.8,1558.1,555.3,1586,655.9z M1847.7,655.9c9.3-29.1,18.7-58.2,27.8-87.4c-26.4-81.9-56.6-162.7-78.7-245.9
		c-8.6,1-16.7,1.6-25.1,1.7c-1.7,0-3.4,0.1-5.2,0.1c-10.3,0-20-0.6-30.3-1.8c-3.2,10.7-6.6,21.4-10,32c8.4-0.2,16.6-0.7,25.1-1.7
		C1778.7,455.4,1818.1,554.1,1847.7,655.9z M1694.5,472.9c-30.3,86-62,171-93.5,262.4c1.3-0.1,2.5-0.1,3.8-0.1c9.7,0,20,1.8,30.3,3
		c3.8-11.2,7.6-22.2,11.3-33.2c21.9-63.5,43.9-124,65.4-183.8C1706.1,505.1,1700.3,489,1694.5,472.9L1694.5,472.9z M2020.1,324.3
		c-3,0.1-5.9,0.2-8.8,0.2c-9.7,0-18.8-0.6-28.5-1.8c-2.6,10.7-5.4,21.3-8.2,31.9c6.4-0.3,12.9-0.8,19.1-1.6
		c-47.4,128.8-91.2,254.6-130.9,382.4c1.6-0.1,3.3-0.1,4.9-0.1c9.7,0,20,1.8,30.3,3c3.4-11.1,6.8-22.1,10.2-33.2
		c39.7-127.9,83.5-253.6,130.9-382.4C2033,323.5,2026.5,324,2020.1,324.3L2020.1,324.3z"/>
	<path class="st4" d="M1993.8,353c-6.2,0.8-12.7,1.4-19.1,1.6c-3,0.1-5.9,0.2-8.8,0.2c-9.7,0-18.8-0.6-28.5-1.8
		c-10.7,43.1-22.6,85.9-35.2,128.5c-8.6,29.1-17.5,58.1-26.6,87.1c-9.2,29.2-18.5,58.3-27.8,87.4c-29.7-101.8-69.1-200.5-96.3-302.9
		c-8.6,1-16.7,1.6-25.1,1.7c-1.7,0-3.4,0.1-5.2,0.1c-10.3,0-20-0.6-30.3-1.8c-13.5,44.6-28.6,88.7-44.1,132.6
		c-10.1,28.3-20.3,56.5-30.5,84.8c-10.2,28.4-20.4,56.9-30.2,85.5c-27.9-100.6-55.7-201.1-80-302.9c-14.6,1.1-29.6,2.6-44.3,3
		c-1.8,0-3.6,0.1-5.4,0.1c-17,0-33.3-1.8-50.3-3l5.4,17.6c40.6,132.1,81.8,263.6,116.9,398c10.3-1.2,20.6-3,30.9-3
		c9.7,0,20,1.8,30.3,3c3.8-11.2,7.6-22.2,11.3-33.2c31.5-91.4,63.2-176.4,93.5-262.4c5.8,16.1,11.6,32.2,17.4,48.3
		c5.8,16.1,11.5,32.2,17.1,48.4c22.7,65.3,44.2,131.3,62.5,199c10.3-1.2,20.6-3,30.9-3c9.7,0,20,1.8,30.3,3
		c3.4-11.1,6.8-22.1,10.2-33.2C1902.6,607.6,1946.4,481.8,1993.8,353L1993.8,353z"/>
	<path class="st4" d="M1993.8,353c-6.2,0.8-12.7,1.4-19.1,1.6c-3,0.1-5.9,0.2-8.8,0.2c-9.7,0-18.8-0.6-28.5-1.8
		c-10.7,43.1-22.6,85.9-35.2,128.5c-8.6,29.1-17.5,58.1-26.6,87.1c-9.2,29.2-18.5,58.3-27.8,87.4c-29.7-101.8-69.1-200.5-96.3-302.9
		c-8.6,1-16.7,1.6-25.1,1.7c-1.7,0-3.4,0.1-5.2,0.1c-10.3,0-20-0.6-30.3-1.8c-13.5,44.6-28.6,88.7-44.1,132.6
		c-10.1,28.3-20.3,56.5-30.5,84.8c-10.2,28.4-20.4,56.9-30.2,85.5c-27.9-100.6-55.7-201.1-80-302.9c-14.6,1.1-29.6,2.6-44.3,3
		c-1.8,0-3.6,0.1-5.4,0.1c-17,0-33.3-1.8-50.3-3l5.4,17.6c40.6,132.1,81.8,263.6,116.9,398c10.3-1.2,20.6-3,30.9-3
		c9.7,0,20,1.8,30.3,3c3.8-11.2,7.6-22.2,11.3-33.2c31.5-91.4,63.2-176.4,93.5-262.4c5.8,16.1,11.6,32.2,17.4,48.3
		c5.8,16.1,11.5,32.2,17.1,48.4c22.7,65.3,44.2,131.3,62.5,199c10.3-1.2,20.6-3,30.9-3c9.7,0,20,1.8,30.3,3
		c3.4-11.1,6.8-22.1,10.2-33.2C1902.6,607.6,1946.4,481.8,1993.8,353L1993.8,353z"/>
	<path class="st3" d="M1327.6,246.3c-2-2.6-4-5.1-6.1-7.6c0.7-0.4,1.6-0.9,2.4-1.4c0.9-0.5,1.8-1.2,2.8-1.9c1-0.7,1.9-1.4,2.7-2.1
		c0.8-0.6,1.5-1.3,2.1-1.8c1.7,2.8,3.5,5.5,5.3,8.1c1.8,2.7,3.9,5.7,6.4,9.1l6,8.3c1.7,2.3,3.3,4.5,4.9,6.7c1.6,2.1,3,4,4.1,5.5
		c2.3-1.7,4.6-3.4,6.8-5.2s4.4-3.7,6.6-5.7c0.2,0.5,0.5,1,0.7,1.3c0.2,0.4,0.6,0.9,1,1.6c0.5,0.6,0.9,1.1,1.2,1.5
		c0.3,0.3,0.6,0.6,0.8,0.8c-1.1,0.8-2.5,1.7-4.1,2.8c-1.6,1.1-3.8,2.7-6.6,4.7c-2.5,1.8-4.5,3.2-6,4.4l-3.6,2.6
		c-0.9,0.7-1.6,1.2-2,1.5c-0.5,0.4-0.8,0.7-1.1,0.9c-1.7-2.6-3.4-5.3-5.2-8c-1.8-2.7-3.9-5.7-6.4-9.1l-6-8.3
		C1331.8,251.8,1329.6,248.9,1327.6,246.3L1327.6,246.3z M1378.8,240.3c1,1.7,2.2,3.2,3.4,4.5c1.2,1.3,2.6,2.3,3.9,2.9
		c1.4,0.7,2.8,1,4.3,0.9c1.5,0,2.9-0.5,4.4-1.4c3-1.8,5-4.3,6.2-7.7l1.1,0.1l0.8,4.5c-0.6,1.5-1.5,2.9-2.7,4.3
		c-1.2,1.4-3,2.8-5.5,4.3c-2.1,1.3-4.3,2.2-6.5,2.7c-2.2,0.6-4.5,0.6-6.7,0.1c-2.2-0.5-4.4-1.5-6.5-3c-2.1-1.5-4-3.7-5.7-6.5
		c-1.7-2.8-2.8-5.4-3.3-7.9c-0.5-2.5-0.5-4.8,0-7c0.5-2.2,1.5-4.2,2.9-5.9c1.4-1.8,3.2-3.3,5.3-4.6c4.2-2.6,8.2-3.3,12-2.2
		c3.7,1.1,7,4,9.7,8.5l0.8,1.3c0.2,0.4,0.4,0.7,0.4,0.8L1378.8,240.3L1378.8,240.3z M1387,231.4c-2-3.2-4-5.5-5.8-7
		c-1.9-1.5-3.6-1.7-5.3-0.7c-0.9,0.6-1.5,1.4-1.8,2.4c-0.3,1-0.3,2.2,0,3.4c0.2,1.2,0.6,2.5,1.2,3.9c0.6,1.4,1.2,2.7,1.9,4
		L1387,231.4z M1413.2,203.1c0.3,0.6,0.7,1.1,1.1,1.6l-5.9,2.9c0.4,1.1,1,2.3,1.6,3.6c0.6,1.4,1.3,2.7,2,4.1l2,4
		c0.6,1.3,1.2,2.4,1.7,3.3c1.2,2.3,2.2,4.1,3.1,5.5c0.9,1.4,1.6,2.4,2.3,3c0.7,0.6,1.3,0.9,1.9,0.9c0.6,0,1.3-0.2,2.1-0.6
		c0.8-0.4,1.4-0.8,1.8-1.1c0.3-0.3,0.7-0.7,0.9-1.1l1.4,2.7c-0.7,0.9-1.6,1.8-2.8,2.8c-1.2,1-2.4,1.8-3.7,2.5
		c-5.6,2.9-10.2,1-13.7-5.7c-0.7-1.3-1.4-2.8-2.2-4.4c-0.8-1.6-1.6-3.3-2.4-5.1c-0.8-1.7-1.7-3.5-2.5-5.1c-0.8-1.7-1.6-3.2-2.3-4.7
		l-4.6,2.5c-0.1-0.6-0.4-1.2-0.7-1.8c-0.3-0.5-0.7-1.1-1.1-1.7l4.8-2.2c-0.7-1.4-1.4-2.6-2.1-3.8c-0.7-1.2-1.5-2.6-2.5-4.2
		c1.2-1.4,2.4-2.9,3.6-4.4c1.1-1.5,2.3-3,3.4-4.5l0.9,0.1c0.3,0.8,0.6,1.6,1.1,2.6c0.4,1,0.9,2,1.4,3.1c0.5,1.1,1,2.2,1.5,3.3
		c0.5,1.1,1.1,2.1,1.6,3.1l5.8-3.2C1412.7,201.9,1413,202.5,1413.2,203.1L1413.2,203.1z M1417.3,192.3c-0.6-3.4-1-5.9-1.1-7.8
		c-0.1-1.8,0.1-3.1,0.5-3.9c0.4-0.8,1.1-1.3,2-1.8c0.5-0.3,1.1-0.4,1.8-0.5c0.7-0.1,1.3-0.1,1.9,0s1.2,0.4,1.8,0.8
		c0.5,0.4,1,0.9,1.3,1.6c0.1,0.3,0.2,0.6,0.3,0.9c0.1,0.3,0.1,0.9,0,1.5c-0.1,0.7-0.1,1.5-0.2,2.6c-0.1,1.1-0.3,2.5-0.6,4.3
		c-0.3,1.8-0.7,3.9-1.1,6.4c-0.5,2.5-1,5.5-1.7,9l-2,0.1C1418.8,200.1,1417.9,195.6,1417.3,192.3L1417.3,192.3z M1445,217.7
		c0.7,0.5,1.5,0.8,2.4,1.1c0.9,0.3,1.8,0.3,2.9,0.3c1-0.1,2.1-0.4,3.3-0.9c1.6-0.7,2.7-1.6,3.2-2.8c0.5-1.2,0.6-2.3,0.1-3.3
		c-0.5-1.1-1.2-1.7-2.3-2c-1.1-0.3-2.3-0.5-3.7-0.5c-1.4,0-2.9,0-4.5,0c-1.6,0-3.2-0.1-4.7-0.4c-1.5-0.3-3-1-4.3-1.9
		c-1.3-0.9-2.4-2.4-3.3-4.5c-0.8-1.9-1.2-3.7-1.1-5.5c0.1-1.7,0.5-3.3,1.3-4.7c0.8-1.4,1.8-2.6,3-3.7c1.3-1.1,2.6-1.9,4-2.5
		c1.9-0.8,3.8-1.3,5.5-1.4c1.7-0.1,3.6,0.1,5.6,0.4c0,1.1,0.1,2.2,0.2,3.4c0.2,1.2,0.4,2.3,0.7,3.4l-1.9,0.8c-0.4-0.5-0.9-1-1.5-1.5
		c-0.6-0.5-1.3-1-2.1-1.3c-0.8-0.4-1.7-0.6-2.6-0.6c-0.9-0.1-2,0.2-3.1,0.6c-1.4,0.6-2.4,1.5-3,2.6c-0.6,1.1-0.7,2.3-0.2,3.5
		c0.5,1.1,1.3,1.8,2.4,2.1c1.1,0.3,2.3,0.5,3.8,0.5c1.4,0,2.9-0.1,4.6-0.2c1.6-0.1,3.2,0,4.8,0.3c1.5,0.3,3,0.9,4.4,1.8
		c1.4,0.9,2.5,2.4,3.3,4.4c0.9,2,1.3,3.9,1.1,5.7c-0.1,1.8-0.6,3.4-1.4,4.9c-0.8,1.5-2,2.8-3.4,3.9c-1.4,1.1-3,2-4.7,2.8
		c-2.1,0.9-4.1,1.4-6,1.5c-1.9,0.1-3.5,0.1-4.7-0.2c-0.4-2.4-1-4.8-1.8-7.1l1.7-0.7C1443.6,216.7,1444.3,217.2,1445,217.7
		L1445,217.7z M1490.8,156.2c-2.2,0.7-3.8,2-4.7,3.7c-1,1.7-1.1,3.5-0.6,5.2c0.6,1.8,1.6,3,3,3.8c1.4,0.8,3.1,1.3,5,1.7
		c1.9,0.4,3.9,0.7,6.1,0.9c2.1,0.2,4.2,0.7,6.2,1.3c2,0.7,3.8,1.7,5.5,3.1c1.6,1.4,2.9,3.4,3.8,6.1c0.8,2.4,1.1,4.7,0.8,7
		c-0.2,2.3-1,4.4-2.2,6.3c-1.2,2-2.8,3.7-4.9,5.2c-2.1,1.5-4.5,2.7-7.4,3.7c-2.6,0.9-4.9,1.3-7.1,1.5c-2.2,0.1-4,0-5.3-0.5
		c-0.1-1.8-0.2-3.5-0.3-5c-0.1-1.5-0.3-3.1-0.6-4.8l1.4-0.4c0.5,1,1.2,1.8,2.1,2.6c0.8,0.8,1.8,1.4,2.8,1.8c1,0.4,2.2,0.7,3.5,0.7
		c1.3,0,2.6-0.2,4-0.7c2.9-0.9,4.7-2.4,5.6-4.2c0.9-1.9,1-3.8,0.3-5.8c-0.6-1.8-1.6-3.1-3-3.9c-1.4-0.8-3.1-1.4-4.9-1.7
		c-1.9-0.4-3.9-0.6-6-0.9c-2.1-0.2-4.2-0.7-6.1-1.3c-2-0.7-3.8-1.7-5.4-3.1c-1.6-1.4-2.9-3.4-3.8-6.1c-0.8-2.5-1.1-4.8-0.9-7
		c0.2-2.2,0.9-4.2,1.9-5.9c1-1.8,2.4-3.3,4.1-4.6c1.7-1.3,3.6-2.3,5.8-3c2.6-0.9,4.9-1.3,7-1.3c2.1,0,4.1,0.3,5.8,0.9
		c-0.1,1.2-0.1,2.4-0.1,3.5l0.1,4.3l-1.1,0.4C1498.6,155.9,1495,154.8,1490.8,156.2L1490.8,156.2z M1514.9,152.4
		c-1.2-3.9-2.4-7.9-3.7-11.9c0.7-0.1,1.5-0.2,2.5-0.4c1-0.2,2-0.4,3.1-0.7c1.1-0.3,2.1-0.6,3-0.9c0.9-0.3,1.7-0.6,2.3-0.9
		c0.9,4.1,1.8,8.2,2.8,12.2c1,4,2.1,8.4,3.4,13.1l0.2,0.1c0.7-2.4,1.8-4.4,3.3-5.9c1.5-1.6,3.4-2.7,5.8-3.3c3.6-1,6.7-0.7,9.2,0.9
		s4.4,4.7,5.7,9.4c0.7,2.5,1.2,4.7,1.6,6.6c0.4,1.9,0.9,3.8,1.4,5.7c0.4,1.5,0.9,3.2,1.5,5c0.6,1.8,1.1,3.5,1.7,5.2
		c-0.7,0.1-1.5,0.2-2.4,0.5l-3,0.8l-3,0.8c-1,0.3-1.8,0.5-2.4,0.8c-0.3-2.6-0.9-5.6-1.7-9.1c-0.8-3.4-1.8-7.4-3-11.8
		c-0.8-3-1.9-5.1-3.4-6.3c-1.4-1.1-3.1-1.5-5-1c-2.2,0.6-3.5,2-4,4.1c-0.5,2.2-0.3,4.9,0.6,8.2l0.8,2.9c0.2,0.7,0.5,1.7,0.8,2.9
		c0.4,1.3,0.8,2.7,1.2,4.2c0.5,1.5,0.9,3,1.4,4.6c0.5,1.6,0.9,2.9,1.4,4c-0.7,0.1-1.5,0.2-2.4,0.5l-3,0.8l-3,0.8
		c-1,0.3-1.8,0.5-2.4,0.8c-0.9-4-1.8-7.9-2.7-11.9c-1-4-2.1-8.4-3.4-13.1l-1.3-4.7C1517.3,160.7,1516.1,156.3,1514.9,152.4
		L1514.9,152.4z M1559.4,153.6c1.7-2.1,3.7-3.8,5.8-5.2c2.2-1.4,4.5-2.3,6.8-2.8c2-0.4,3.8-0.6,5.5-0.5c1.7,0.1,3.3,0.5,4.7,1.2
		c1.4,0.7,2.6,1.7,3.6,3.1c1,1.4,1.7,3.1,2.1,5.3c0.7,3.1,1.2,6,1.7,8.7c0.5,2.7,1,5.4,1.6,8c0.2,1.2,0.5,2.1,0.8,2.7
		c0.3,0.6,0.7,1.1,1.1,1.3c0.4,0.3,0.9,0.4,1.5,0.4c0.6,0,1.2-0.1,2-0.3l0.4,1.8c-1.3,0.9-2.4,1.6-3.3,2.1c-0.9,0.5-1.9,0.9-3.1,1.1
		c-1.8,0.4-3.4,0.2-4.7-0.4c-1.3-0.6-2.4-1.7-3.4-3.3c-0.8,1.8-1.8,3.3-3.1,4.6c-1.3,1.2-3.1,2.1-5.3,2.6c-1.9,0.4-3.5,0.5-4.9,0.3
		c-1.4-0.2-2.7-0.7-3.7-1.4c-1-0.7-1.9-1.6-2.5-2.7c-0.6-1.1-1.1-2.2-1.3-3.4c-0.3-1.6-0.4-3.1-0.1-4.4c0.3-1.3,0.8-2.4,1.6-3.5
		c0.8-1,1.8-2,3-2.8c1.2-0.8,2.6-1.6,4.2-2.4c2-0.9,3.5-1.7,4.6-2.3c1.1-0.6,1.9-1.2,2.5-1.7c0.5-0.5,0.8-1,0.9-1.5
		c0.1-0.5,0.1-1-0.1-1.7c-0.4-1.8-1.3-3.1-2.8-4.1c-1.5-1-3.4-1.2-5.6-0.8c-0.8,0.2-1.7,0.5-2.5,0.9s-1.6,0.9-2.3,1.5
		c-0.7,0.6-1.4,1.1-1.9,1.7c-0.6,0.6-1,1.2-1.2,1.8l-0.5,0.1L1559.4,153.6L1559.4,153.6z M1581,169.9c-0.4-2.1-0.8-3.7-1-4.8
		c-0.2-1.1-0.4-2.1-0.6-2.9c-0.9,0.8-1.9,1.5-3,2.1c-1.1,0.6-2,1.3-2.9,2.1c-0.8,0.8-1.5,1.7-1.9,2.8c-0.4,1.1-0.4,2.6,0,4.5
		c0.4,1.8,1,3.1,2,3.9c1,0.8,2.1,1.1,3.3,0.8c1.6-0.3,2.8-1.2,3.5-2.7C1581.4,174.2,1581.5,172.3,1581,169.9L1581,169.9z
		 M1608.2,149.3c0.7-3.6,1.9-6.4,3.4-8.3c1.6-1.9,3.6-3.1,6.1-3.5c0.2,0,0.5-0.1,0.6-0.1c0.2,0,0.4,0,0.6-0.1c0,0.8,0,1.6,0.1,2.4
		c0.1,0.9,0.2,1.8,0.4,3l0.4,2.4l0.2,1.3c0,0,0.2,0.9,0.3,1.2l-0.6,0.7c-0.5-0.2-1.1-0.4-1.8-0.5c-0.7-0.1-1.4-0.1-2.2,0.1
		c-2.2,0.4-3.9,1.4-4.9,3c-1,1.7-1.4,3.5-1.1,5.5l0.5,3c0.5,3,1,5.8,1.5,8.5c0.5,2.7,1.1,5.2,1.7,7.6c-0.7,0-1.5,0.1-2.4,0.2
		l-3.1,0.5l-3.1,0.5c-0.9,0.2-1.7,0.3-2.4,0.5c-0.2-2.5-0.4-5.1-0.8-7.8c-0.4-2.7-0.8-5.5-1.3-8.5l-0.5-3c-0.5-3-1-5.8-1.5-8.5
		c-0.5-2.6-1.1-5.3-1.8-7.9c0.9,0,1.7-0.1,2.6-0.2c0.9-0.1,1.7-0.2,2.6-0.3c0.8-0.1,1.7-0.3,2.5-0.5c0.9-0.2,1.7-0.4,2.5-0.7
		l1.3,9.1L1608.2,149.3L1608.2,149.3z M1636.5,154.1c0.2,2,0.7,3.8,1.3,5.5c0.6,1.7,1.4,3.1,2.4,4.3c1,1.2,2.1,2,3.5,2.6
		c1.4,0.6,2.9,0.7,4.6,0.5c3.4-0.4,6.3-1.9,8.8-4.5l1,0.6l-1.1,4.4c-1.1,1.1-2.5,2-4.2,2.8c-1.7,0.8-3.9,1.3-6.8,1.7
		c-2.4,0.3-4.8,0.2-7.1-0.2c-2.3-0.4-4.3-1.3-6.2-2.6c-1.9-1.3-3.4-3.1-4.7-5.4c-1.3-2.2-2.1-5-2.5-8.3c-0.4-3.2-0.3-6.1,0.3-8.6
		c0.6-2.5,1.5-4.6,2.9-6.4c1.3-1.8,3-3.2,5-4.2c2-1.1,4.3-1.7,6.7-2c4.9-0.6,8.9,0.4,11.8,3c3,2.6,4.8,6.5,5.4,11.7l0.2,1.6
		c0.1,0.4,0.1,0.7,0,0.9L1636.5,154.1L1636.5,154.1z M1647.6,149.3c-0.6-3.7-1.4-6.6-2.5-8.8c-1.1-2.1-2.6-3.1-4.5-2.9
		c-1.1,0.1-2,0.6-2.6,1.5c-0.7,0.8-1.1,1.9-1.4,3.1c-0.3,1.2-0.5,2.6-0.5,4.1c0,1.5,0,3,0.1,4.4
		C1636.1,150.7,1647.6,149.3,1647.6,149.3z M1712.6,137.9c-1.1,3.2-2.1,6.5-3.2,9.8c-1.1,3.3-2.1,6.6-3.1,9.9
		c-1,3.2-1.9,6.1-2.6,8.6c-1.2-0.1-2.4-0.1-3.8,0l-2,0.1c-0.7,0-1.3,0.1-1.9,0.2c-0.6-2-1.4-4.7-2.4-7.9c-1-3.2-2.1-6.6-3.2-10.3
		c-1.2-3.6-2.3-7.3-3.5-11c-1.2-3.7-2.3-7.1-3.4-10.2c-1-3.1-1.9-5.7-2.6-7.8c-0.7-2.2-1.2-3.5-1.4-4c1.1,0.1,2.2,0.1,3.2,0.2
		c1.1,0,2.1,0.1,3.1,0c1,0,2-0.1,3-0.2c1-0.1,2-0.2,3-0.4c0.8,3.2,1.7,6.4,2.7,9.8c0.9,3.4,1.9,6.7,2.9,9.9c1,3.3,1.9,6.4,2.8,9.5
		c0.9,3.1,1.8,5.9,2.5,8.5l0.2,0c1-3.2,2.1-6.6,3.3-10.3s2.3-7.4,3.4-10.9c1.1-3.6,2.1-6.8,3-9.9c0.9-3,1.6-5.4,2.1-7.2
		c0.7,0.1,1.3,0.2,1.9,0.2s1.2,0.1,1.9,0.1c0.6,0,1.3-0.1,1.9-0.2c0.6-0.1,1.2-0.2,1.9-0.3c0.2,1.1,0.6,2.6,1.3,4.4
		c0.6,1.8,1.3,3.9,2.1,6.1c0.8,2.2,1.6,4.6,2.5,7.1c0.9,2.5,1.8,4.9,2.7,7.4c0.9,2.4,1.7,4.7,2.5,6.9s1.4,4.1,1.9,5.7l0.2,0
		c0.9-3.2,1.9-6.7,2.9-10.5c1-3.8,2-7.5,2.9-11.1c0.9-3.6,1.8-6.9,2.6-9.8c0.8-3,1.3-5.2,1.6-6.7c1.3,0.2,2.3,0.3,3.2,0.3
		c0.6,0,1.1-0.1,1.7-0.2c0.6-0.1,1.2-0.2,1.8-0.3c-0.3,1-0.8,2.5-1.5,4.7c-0.7,2.2-1.5,4.7-2.4,7.7c-0.9,3-1.9,6.2-3,9.7
		c-1.1,3.5-2.1,7-3.2,10.5c-1.1,3.5-2.1,7-3,10.4c-1,3.4-1.8,6.4-2.6,9.1c-1.2-0.1-2.4-0.1-3.8,0l-2,0.1c-0.7,0-1.3,0.1-1.9,0.2
		c-1.8-6.1-3.8-12.1-6-18c-2.2-6-4.5-12.1-6.9-18.2l-0.2,0C1714.6,131.8,1713.7,134.7,1712.6,137.9z M1758.2,121.4
		c0.1-4.1,0.1-8.3,0-12.5c0.6,0.1,1.5,0.2,2.5,0.4c1,0.1,2,0.2,3.1,0.2c1.1,0,2.2,0,3.2,0c1,0,1.8-0.1,2.5-0.2
		c-0.4,4.2-0.7,8.3-0.9,12.4c-0.3,4.1-0.5,8.6-0.7,13.5l0.1,0.2c1.4-2,3-3.6,5-4.7c1.9-1.1,4.1-1.6,6.5-1.5c3.8,0.1,6.6,1.4,8.5,3.6
		c1.9,2.3,2.8,5.8,2.6,10.7c-0.1,2.6-0.2,4.8-0.4,6.7c-0.2,1.9-0.3,3.9-0.4,5.8c-0.1,1.6-0.1,3.3-0.1,5.2c0,1.9,0,3.7,0,5.4
		c-0.6-0.1-1.5-0.2-2.5-0.2l-3.2-0.1l-3.2-0.1c-1,0-1.8,0-2.5,0.1c0.5-2.6,0.8-5.6,1-9.2c0.2-3.5,0.5-7.6,0.6-12.1
		c0.1-3.2-0.3-5.5-1.3-7c-1-1.5-2.5-2.3-4.4-2.4c-2.3-0.1-3.9,0.8-5.1,2.7c-1.1,1.9-1.8,4.6-1.9,8l-0.1,3c0,0.7-0.1,1.7-0.1,3
		c0,1.3,0,2.8-0.1,4.4c0,1.6,0,3.2,0,4.8c0,1.6,0,3,0.1,4.2c-0.6-0.1-1.5-0.2-2.5-0.2l-3.2-0.1l-3.2-0.1c-1,0-1.8,0-2.5,0.1
		c0.4-4,0.7-8.1,0.9-12.2c0.3-4.1,0.5-8.6,0.7-13.5l0.2-4.9C1758,130,1758.1,125.5,1758.2,121.4L1758.2,121.4z M1800.2,135.6
		c2.2-1.5,4.6-2.6,7.1-3.3c2.5-0.7,4.9-0.9,7.3-0.7c2,0.2,3.8,0.6,5.4,1.2c1.6,0.6,3,1.4,4.1,2.5c1.1,1.1,2,2.4,2.5,4
		c0.5,1.6,0.7,3.5,0.5,5.7c-0.3,3.2-0.6,6.1-0.9,8.9c-0.3,2.7-0.6,5.4-0.8,8.1c-0.1,1.2-0.1,2.1,0,2.8c0.1,0.7,0.3,1.2,0.6,1.6
		c0.3,0.4,0.8,0.6,1.3,0.8c0.6,0.2,1.2,0.3,2,0.3l-0.2,1.8c-1.5,0.5-2.8,0.8-3.8,1c-1,0.2-2.1,0.3-3.3,0.2c-1.8-0.2-3.3-0.7-4.4-1.7
		c-1.1-1-1.8-2.4-2.3-4.1c-1.3,1.5-2.7,2.6-4.3,3.5c-1.6,0.8-3.6,1.1-5.8,0.9c-1.9-0.2-3.5-0.6-4.8-1.2c-1.3-0.6-2.3-1.4-3.1-2.4
		c-0.8-1-1.3-2.1-1.6-3.3c-0.3-1.2-0.4-2.4-0.3-3.6c0.1-1.6,0.5-3,1.2-4.2c0.6-1.1,1.5-2.1,2.5-2.9c1-0.8,2.3-1.4,3.7-1.8
		c1.4-0.5,3-0.8,4.7-1.1c2.1-0.3,3.8-0.6,5.1-0.9c1.3-0.3,2.2-0.6,2.8-0.9c0.6-0.3,1.1-0.7,1.3-1.1c0.2-0.4,0.3-1,0.4-1.6
		c0.2-1.8-0.3-3.4-1.5-4.8s-2.9-2.2-5.1-2.4c-0.8-0.1-1.7,0-2.6,0.1c-0.9,0.1-1.8,0.4-2.7,0.7c-0.9,0.3-1.6,0.7-2.4,1.1
		c-0.7,0.4-1.3,0.9-1.7,1.4l-0.5,0L1800.2,135.6L1800.2,135.6z M1816.2,157.5c0.2-2.1,0.3-3.8,0.5-4.9c0.1-1.1,0.2-2.1,0.3-2.9
		c-1.1,0.5-2.3,0.9-3.5,1.2c-1.2,0.3-2.3,0.6-3.3,1.1c-1,0.5-1.9,1.2-2.6,2.1c-0.7,0.9-1.2,2.4-1.3,4.3c-0.2,1.8,0.1,3.3,0.8,4.3
		c0.7,1,1.7,1.6,3,1.7c1.6,0.1,3-0.4,4.2-1.5C1815.3,161.8,1816,160,1816.2,157.5z M1856.8,139.8c-0.1,0.6-0.1,1.3,0,1.9l-6.5-1
		c-0.2,1.1-0.5,2.4-0.8,3.9c-0.3,1.5-0.5,3-0.7,4.5l-0.6,4.5c-0.2,1.4-0.4,2.7-0.5,3.6c-0.3,2.6-0.5,4.7-0.6,6.3
		c-0.1,1.6,0,2.8,0.2,3.7c0.2,0.9,0.5,1.5,1,1.9c0.5,0.4,1.2,0.6,2,0.7c0.9,0.1,1.6,0.1,2.1,0.1c0.5-0.1,0.9-0.2,1.4-0.4l-0.4,3.1
		c-1.1,0.3-2.3,0.6-3.9,0.7c-1.5,0.2-3,0.1-4.5,0c-6.3-0.8-9-5-8-12.5c0.2-1.4,0.4-3.1,0.7-4.9c0.3-1.8,0.6-3.7,0.9-5.6
		c0.3-1.9,0.6-3.8,0.9-5.6c0.3-1.9,0.5-3.6,0.7-5.2l-5.2-0.6c0.2-0.6,0.4-1.2,0.5-1.8c0.1-0.6,0.1-1.3,0-2l5.2,0.9
		c0.2-1.5,0.4-3,0.5-4.3c0.1-1.3,0.3-3,0.4-4.9c1.8-0.5,3.6-1,5.4-1.5c1.8-0.6,3.6-1.1,5.4-1.8l0.7,0.6c-0.2,0.8-0.4,1.7-0.6,2.8
		c-0.2,1.1-0.4,2.2-0.7,3.3c-0.2,1.2-0.4,2.3-0.6,3.6c-0.2,1.2-0.3,2.4-0.5,3.5l6.6,0.7C1857.1,138.5,1856.9,139.2,1856.8,139.8
		L1856.8,139.8z M1910.4,155.1c-1.8,2.9-3.6,5.8-5.5,8.7c-1.9,3-3.7,5.9-5.4,8.8c-1.8,2.9-3.3,5.5-4.6,7.7c-1.1-0.3-2.3-0.7-3.7-1
		l-1.9-0.4c-0.6-0.1-1.3-0.2-1.9-0.3c-0.1-2.1-0.2-4.9-0.4-8.2c-0.2-3.4-0.4-7-0.6-10.7c-0.2-3.8-0.5-7.6-0.8-11.5
		c-0.3-3.9-0.5-7.4-0.8-10.7c-0.3-3.2-0.5-6-0.6-8.3c-0.2-2.3-0.3-3.7-0.4-4.2c1.1,0.3,2.1,0.7,3.1,1c1,0.3,2,0.6,3,0.8
		c1,0.2,2,0.4,3,0.5c1,0.1,2,0.3,3,0.4c0,3.3,0.1,6.7,0.2,10.2c0.1,3.5,0.2,6.9,0.4,10.3c0.2,3.4,0.3,6.7,0.4,9.9
		c0.1,3.2,0.3,6.1,0.4,8.8l0.1,0c1.8-2.8,3.6-5.9,5.7-9.2c2-3.3,4-6.6,6-9.8c1.9-3.2,3.7-6.1,5.3-8.8c1.6-2.7,2.9-4.8,3.8-6.4
		c0.6,0.2,1.2,0.5,1.8,0.7c0.6,0.2,1.2,0.4,1.8,0.5c0.6,0.1,1.3,0.2,1.9,0.3c0.6,0.1,1.2,0.1,1.9,0.1c0,1.1,0,2.6,0.1,4.6
		c0.1,1.9,0.3,4.1,0.5,6.4c0.2,2.4,0.5,4.8,0.7,7.5c0.3,2.6,0.5,5.2,0.8,7.8c0.3,2.6,0.5,5,0.7,7.3c0.2,2.3,0.4,4.3,0.4,6l0.1,0
		c1.7-2.9,3.4-6,5.4-9.5c1.9-3.5,3.8-6.8,5.6-10.1c1.8-3.2,3.4-6.2,4.9-8.9c1.5-2.7,2.5-4.7,3.2-6.1c1.2,0.5,2.2,0.9,3,1
		c0.5,0.1,1.1,0.2,1.7,0.3c0.6,0.1,1.2,0.1,1.8,0.1c-0.5,0.9-1.4,2.3-2.6,4.2c-1.2,1.9-2.6,4.2-4.2,6.9c-1.6,2.6-3.3,5.5-5.2,8.7
		c-1.9,3.1-3.7,6.3-5.6,9.4c-1.9,3.2-3.7,6.3-5.5,9.3c-1.8,3-3.3,5.8-4.7,8.2c-1.1-0.3-2.3-0.7-3.7-1l-1.9-0.4
		c-0.6-0.1-1.3-0.2-1.9-0.3c-0.3-6.3-0.7-12.6-1.4-19c-0.7-6.3-1.5-12.8-2.3-19.4l-0.1,0C1913.8,149.7,1912.2,152.3,1910.4,155.1
		L1910.4,155.1z M1954.9,176.7c-0.6,1.9-0.9,3.8-1,5.6c-0.1,1.8,0,3.4,0.5,4.9c0.4,1.5,1.2,2.7,2.2,3.8c1,1.1,2.3,1.8,4,2.3
		c3.3,1,6.6,0.8,9.8-0.6l0.7,0.9l-2.8,3.6c-1.5,0.6-3.1,0.9-5,0.9c-1.8,0.1-4.1-0.3-6.9-1.1c-2.4-0.7-4.5-1.7-6.4-2.9
		c-1.9-1.3-3.5-2.9-4.6-4.9c-1.2-2-1.9-4.2-2.1-6.8c-0.3-2.6,0.1-5.4,1-8.6c0.9-3.1,2.1-5.7,3.7-7.8c1.5-2.1,3.2-3.6,5.2-4.7
		c1.9-1.1,4-1.7,6.3-1.9c2.3-0.2,4.6,0.1,7,0.8c4.8,1.4,8,3.9,9.7,7.4c1.7,3.5,1.8,7.8,0.3,12.9l-0.4,1.5c-0.1,0.4-0.2,0.7-0.3,0.8
		L1954.9,176.7L1954.9,176.7z M1967,176.7c1-3.6,1.4-6.6,1.2-9c-0.2-2.4-1.2-3.9-3-4.4c-1.1-0.3-2.1-0.2-3,0.3
		c-0.9,0.5-1.8,1.3-2.5,2.3c-0.8,1-1.5,2.2-2.1,3.5c-0.6,1.4-1.2,2.7-1.6,4.1L1967,176.7z M2009.5,204.2c-1.4,3.6-2.4,6.6-3,8.8
		c-0.8-0.4-1.6-0.8-2.5-1.2l-3.1-1.3l-3.1-1.3c-0.9-0.4-1.8-0.7-2.6-0.9c1.3-2.8,2.7-5.7,4-8.6c1.3-3,2.7-6.4,4.3-10.2l3.8-9.5
		c1.5-3.9,2.9-7.3,4-10.3c1.1-3,2.2-6.1,3.2-9.2c0.8,0.4,1.6,0.8,2.5,1.3c0.9,0.4,1.9,0.9,3.1,1.4c1.2,0.5,2.2,0.9,3.2,1.2
		c1,0.3,1.8,0.6,2.7,0.8c-0.8,1.3-1.8,3.3-3,6.1c-1.2,2.8-2.5,5.8-3.8,9.2l-2.7,6.7c2.3-1.2,4.8-2.6,7.5-4.1
		c2.7-1.5,5.3-2.9,7.8-4.3c2.5-1.4,4.8-2.7,6.8-3.9c2-1.2,3.5-2.1,4.5-2.8c0.6,0.4,1.2,0.7,1.9,1c0.6,0.3,1.3,0.6,1.9,0.9
		c0.6,0.3,1.3,0.5,2,0.7c0.7,0.2,1.5,0.4,2.3,0.6c-1.1,0.5-2.8,1.3-5.2,2.4c-2.3,1.1-4.8,2.3-7.5,3.6c-2.7,1.3-5.2,2.6-7.7,3.8
		c-2.4,1.3-4.4,2.3-5.7,3c0.6,2.9,1.2,6,1.9,9.5c0.7,3.5,1.4,6.9,2.2,10.2c0.7,3.3,1.4,6.4,2.1,9.2c0.6,2.8,1.2,5,1.7,6.5
		c-1.3-0.6-2.5-1.2-3.6-1.6l-3.1-1.3l-3-1.2c-1-0.4-2-0.8-3.1-1.1c-1-4.5-1.8-9-2.6-13.6c-0.8-4.6-1.7-9.1-2.6-13.7l-0.1-0.1
		C2012.6,196.2,2010.9,200.5,2009.5,204.2z M2058.4,202.3c2.2-1.3,4.4-2,6.6-2.2c2.2-0.2,4.4,0.2,6.5,1.3c3.4,1.7,5.5,3.9,6.3,6.8
		c0.9,2.8,0.2,6.5-1.9,10.8c-1.1,2.3-2.2,4.3-3.1,6c-1,1.7-1.9,3.4-2.7,5.2c-0.7,1.4-1.4,3-2.2,4.7c-0.8,1.7-1.5,3.4-2.2,5
		c-0.5-0.4-1.3-0.8-2.2-1.2l-2.8-1.4l-2.8-1.4c-0.9-0.4-1.7-0.8-2.3-1c1.5-2.2,3-4.8,4.7-8c1.6-3.1,3.5-6.7,5.5-10.8
		c1.4-2.8,1.9-5.1,1.6-6.9c-0.3-1.8-1.3-3.1-3.1-4c-2-1-3.9-0.8-5.7,0.4c-1.8,1.3-3.5,3.5-5,6.6l-1.3,2.7c-1.3,2.7-2.6,5.3-3.7,7.8
		c-1.1,2.5-2.1,4.9-3,7.2c-0.5-0.4-1.2-0.8-2.1-1.2l-2.9-1.4l-2.8-1.4c-0.9-0.4-1.6-0.7-2.3-1c1.3-2.1,2.6-4.4,3.9-6.8
		c1.3-2.4,2.6-5,3.9-7.7l1.3-2.7c1.3-2.7,2.6-5.3,3.7-7.8c1.1-2.4,2.2-4.9,3.1-7.5c0.8,0.5,1.5,1,2.3,1.4c0.8,0.5,1.5,0.9,2.3,1.3
		c0.8,0.4,1.6,0.8,2.4,1.1c0.8,0.3,1.7,0.7,2.6,1l-2.8,4.9L2058.4,202.3L2058.4,202.3z M2079.2,227.7c1.7-2.9,3.7-5.1,5.8-6.8
		c2.2-1.6,4.4-2.7,6.7-3.3c2.3-0.6,4.6-0.6,7-0.2c2.3,0.4,4.5,1.3,6.5,2.5c5,3,8.1,6.7,9.1,11.2c1.1,4.5,0.1,9.1-2.8,14
		c-1.6,2.6-3.4,4.8-5.4,6.4c-2,1.6-4.2,2.8-6.5,3.4c-2.3,0.6-4.6,0.8-7,0.3c-2.4-0.4-4.7-1.3-7-2.7c-1.9-1.2-3.7-2.5-5.2-4.2
		c-1.6-1.6-2.7-3.5-3.5-5.6c-0.8-2.1-1-4.4-0.8-7C2076.5,233.3,2077.5,230.6,2079.2,227.7L2079.2,227.7z M2102.7,238.5
		c2.3-3.8,3.5-7,3.8-9.6c0.3-2.6-0.6-4.6-2.8-5.9c-2-1.2-4.2-1-6.8,0.7c-2.5,1.6-5.3,4.9-8.2,9.9c-1.1,1.8-2,3.5-2.7,5.2
		c-0.7,1.7-1.2,3.2-1.3,4.7c-0.2,1.4-0.1,2.7,0.3,3.8c0.4,1.1,1.2,2,2.4,2.8C2091.6,252.4,2096.7,248.6,2102.7,238.5L2102.7,238.5z
		 M2164.8,262.5c0.7,0.9,1.4,1.5,2.1,2.1c0.4,0.3,0.8,0.6,1.2,0.8l1.5,0.8c-0.7,0.3-1.7,0.9-3.1,1.7c-1.4,0.8-3,1.9-4.8,3.1
		c-1.8,1.2-3.8,2.5-5.9,4c-2.1,1.4-4.2,2.9-6.4,4.4c-2.1,1.5-4.2,2.9-6.2,4.3c-2,1.4-3.9,2.7-5.4,3.8c-0.5-0.5-1-1-1.6-1.4l-1.6-1.2
		l-1.7-1.3c-0.6-0.4-1.1-0.8-1.8-1.1c0.7-1.9,1.4-3.9,2.2-6c0.8-2.1,1.6-4.2,2.3-6.3c0.8-2.1,1.5-4.1,2.3-6.1c0.7-2,1.4-3.8,2.1-5.5
		l-0.1-0.1c-3.6,2.6-7.1,5.1-10.5,7.6c-3.5,2.5-6.9,5-10.2,7.5c-0.5-0.5-1-1-1.6-1.4l-1.7-1.3l-1.7-1.3c-0.6-0.5-1.2-0.9-1.9-1.2
		c0.7-1.8,1.5-3.9,2.3-6.3c0.9-2.4,1.8-4.8,2.6-7.3c0.9-2.5,1.7-4.9,2.6-7.4c0.8-2.4,1.6-4.7,2.3-6.7c0.7-2,1.3-3.8,1.7-5.2
		c0.5-1.5,0.8-2.5,0.9-3c0.8,0.7,1.6,1.4,2.3,2c0.7,0.6,1.4,1.2,2.2,1.8c0.7,0.5,1.5,1.1,2.3,1.6c0.8,0.5,1.6,1,2.3,1.4
		c-1.7,4.2-3.4,8.5-5.1,13c-1.7,4.4-3.3,8.5-4.6,12.3l0.1,0.1c3.8-2.6,7.5-5.3,11-8s7.1-5.4,10.7-8.2c0.5,0.5,1,1,1.5,1.5
		c0.5,0.5,1.1,0.9,1.6,1.4c0.6,0.4,1.1,0.8,1.7,1.2c0.6,0.4,1.2,0.7,1.8,1.1c-1.7,4.2-3.3,8.4-4.9,12.6c-1.6,4.2-3.1,8.4-4.7,12.7
		l0.1,0.1C2150.6,273.4,2157.8,268,2164.8,262.5L2164.8,262.5z M1484.2,839.2c-1.2,3.2-2.3,6.4-3.5,9.7c-1.2,3.3-2.3,6.6-3.4,9.8
		c-1.1,3.2-2.1,6.1-2.9,8.6c-1.2-0.1-2.4-0.2-3.8-0.2h-2c-0.7,0-1.3,0-2,0.2c-0.6-2.1-1.3-4.7-2.2-8c-0.9-3.3-1.9-6.7-2.9-10.4
		c-1.1-3.7-2.1-7.3-3.2-11.1c-1.1-3.7-2.1-7.1-3.1-10.2c-1-3.1-1.8-5.7-2.4-7.9c-0.7-2.2-1.1-3.5-1.3-4c1.1,0.1,2.2,0.2,3.2,0.3
		c1.1,0.1,2.1,0.1,3.1,0.1c1,0,2,0,3-0.1c1-0.1,2-0.2,3-0.3c0.8,3.2,1.6,6.5,2.4,9.9c0.9,3.4,1.7,6.7,2.6,10
		c0.9,3.3,1.7,6.5,2.6,9.5s1.6,5.9,2.3,8.5h0.2c1.1-3.2,2.3-6.6,3.6-10.2c1.3-3.7,2.5-7.3,3.7-10.8c1.2-3.5,2.3-6.8,3.3-9.8
		c1-3,1.8-5.3,2.3-7.1c0.6,0.1,1.3,0.2,1.9,0.3c0.6,0.1,1.2,0.1,1.9,0.1c0.6,0,1.3,0,1.9-0.1c0.6-0.1,1.2-0.2,1.9-0.3
		c0.2,1.1,0.6,2.6,1.1,4.4c0.6,1.9,1.2,3.9,1.9,6.2c0.7,2.3,1.5,4.6,2.3,7.1c0.8,2.5,1.7,5,2.5,7.4c0.8,2.5,1.6,4.8,2.3,7
		c0.7,2.2,1.3,4.1,1.7,5.8h0.2c1-3.2,2.1-6.6,3.2-10.4c1.1-3.8,2.2-7.5,3.3-11s2-6.8,2.9-9.8c0.9-3,1.5-5.2,1.8-6.7
		c1.3,0.3,2.3,0.4,3.2,0.4c0.6,0,1.1,0,1.7-0.1c0.6-0.1,1.2-0.2,1.8-0.3c-0.4,1-0.9,2.5-1.7,4.7c-0.8,2.2-1.6,4.7-2.6,7.6
		c-1,2.9-2.1,6.1-3.2,9.6c-1.2,3.5-2.3,6.9-3.5,10.4c-1.2,3.5-2.3,6.9-3.3,10.3c-1.1,3.4-2,6.4-2.8,9c-1.2-0.1-2.4-0.2-3.8-0.2h-2
		c-0.7,0-1.3,0-2,0.2c-1.6-6.1-3.4-12.2-5.4-18.2c-2-6-4.2-12.2-6.4-18.4h-0.2C1486.4,833.2,1485.3,836,1484.2,839.2L1484.2,839.2z
		 M1522.3,850.2c0-3.4,0.5-6.3,1.5-8.8c1-2.5,2.4-4.6,4.1-6.3c1.7-1.7,3.7-2.9,5.9-3.8c2.2-0.8,4.5-1.2,6.9-1.2
		c5.9,0,10.4,1.7,13.6,5c3.2,3.3,4.8,7.8,4.8,13.4c0,3.1-0.5,5.8-1.4,8.3c-0.9,2.5-2.2,4.5-3.8,6.3c-1.6,1.7-3.6,3-5.8,3.9
		c-2.3,0.9-4.7,1.3-7.4,1.3c-2.3,0-4.5-0.3-6.6-0.9c-2.2-0.6-4.1-1.6-5.9-3c-1.8-1.4-3.2-3.3-4.2-5.6
		C1522.9,856.4,1522.3,853.5,1522.3,850.2L1522.3,850.2z M1548,847.4c0-4.4-0.6-7.8-1.7-10.2c-1.1-2.4-2.9-3.6-5.5-3.6
		c-2.3,0-4.1,1.4-5.4,4.1c-1.3,2.7-2,6.9-2,12.7c0,2.1,0.1,4.1,0.4,5.9c0.2,1.8,0.7,3.4,1.2,4.7c0.6,1.3,1.3,2.4,2.3,3.1
		c0.9,0.8,2.1,1.1,3.5,1.1C1545.6,865.1,1548,859.2,1548,847.4L1548,847.4z M1576.4,840.4c1.3-3.5,2.9-6,4.7-7.6
		c1.9-1.6,4.1-2.4,6.6-2.4c0.2,0,0.5,0,0.6,0c0.2,0,0.4,0,0.6,0c-0.2,0.8-0.3,1.6-0.3,2.4c-0.1,0.9-0.1,1.9-0.1,3v3.7
		c0,0.5,0,0.9,0.1,1.3l-0.7,0.6c-0.5-0.3-1.1-0.6-1.7-0.8c-0.6-0.2-1.3-0.3-2.1-0.3c-2.3,0-4,0.7-5.3,2.2c-1.3,1.5-2,3.2-2,5.2v3
		c0,3.1,0,5.9,0.1,8.6c0.1,2.7,0.2,5.3,0.5,7.8c-0.7-0.1-1.5-0.2-2.4-0.2h-6.3c-1,0-1.8,0-2.5,0.2c0.2-2.5,0.4-5.1,0.5-7.8
		c0.1-2.7,0.1-5.6,0.1-8.6v-3c0-3.1,0-5.9-0.1-8.6s-0.2-5.4-0.5-8.1c0.9,0.1,1.7,0.2,2.6,0.3c0.9,0.1,1.7,0.1,2.6,0.1
		c0.9,0,1.7,0,2.6-0.1c0.9-0.1,1.7-0.2,2.6-0.3l-0.2,9.2L1576.4,840.4L1576.4,840.4z M1596,823.1c-0.1-4.1-0.3-8.3-0.5-12.5
		c0.6,0.1,1.5,0.2,2.5,0.3c1,0.1,2.1,0.1,3.2,0.1c1.1,0,2.2,0,3.2-0.1c1-0.1,1.8-0.2,2.5-0.3c-0.2,4.2-0.4,8.4-0.5,12.5
		c-0.1,4.1-0.2,8.6-0.2,13.5v4.9c0,4.9,0,9.4,0.2,13.5c0.1,4.1,0.2,8.2,0.5,12.2c-0.7-0.1-1.5-0.2-2.5-0.2h-6.3c-1,0-1.8,0-2.5,0.2
		c0.2-4.1,0.3-8.1,0.5-12.2c0.1-4.1,0.2-8.6,0.2-13.5v-4.9C1596.2,831.7,1596.1,827.2,1596,823.1L1596,823.1z M1648.8,841.5
		c0,4.9,0,9.4,0.2,13.5c0.1,4.1,0.2,8.2,0.5,12.2c-0.7-0.1-1.5-0.2-2.5-0.2h-6c-0.9,0-1.6,0-2.1,0.2c0-0.1,0.1-0.4,0.2-1
		c0-0.6,0.1-1.2,0.2-1.9c0.1-0.7,0.1-1.3,0.2-2c0-0.6,0.1-1,0.1-1.1l-0.2-0.2c-1,2.3-2.3,4-3.9,5.2c-1.7,1.2-3.9,1.8-6.8,1.8
		c-2.6,0-4.7-0.5-6.5-1.5c-1.8-1-3.3-2.3-4.4-4.1c-1.2-1.8-2-3.8-2.6-6.2c-0.6-2.4-0.8-4.9-0.8-7.6c0-2.7,0.4-5.2,1.1-7.5
		c0.8-2.3,1.8-4.3,3.1-5.9c1.3-1.7,2.8-3,4.6-3.9c1.8-1,3.7-1.4,5.7-1.4c2.3,0,4.3,0.5,6,1.6c1.8,1.1,3.1,2.4,3.9,4h0.2
		c0-4.5-0.1-8.7-0.2-12.7c-0.1-4-0.3-8.1-0.5-12.3c0.6,0.1,1.5,0.2,2.5,0.3c1,0.1,2.1,0.1,3.2,0.1c1.1,0,2.2,0,3.2-0.1
		c1-0.1,1.8-0.2,2.5-0.3c-0.2,4.2-0.4,8.4-0.5,12.5c-0.1,4.1-0.2,8.6-0.2,13.5L1648.8,841.5L1648.8,841.5z M1625.2,850
		c0,2.6,0.2,4.7,0.5,6.5c0.3,1.8,0.8,3.2,1.4,4.2c0.6,1.1,1.3,1.9,2.1,2.3c0.8,0.5,1.6,0.7,2.4,0.7c2.1,0,3.7-1.2,5.1-3.5
		c1.3-2.3,2-6.2,2-11.6c0-4.7-0.6-8-1.9-10.2c-1.3-2.1-2.9-3.2-4.8-3.2c-0.8,0-1.6,0.2-2.4,0.7c-0.8,0.5-1.5,1.2-2.2,2.4
		c-0.7,1.1-1.2,2.6-1.6,4.5C1625.4,844.8,1625.2,847.2,1625.2,850L1625.2,850z M1707.1,839.2c-1.2,3.2-2.3,6.4-3.5,9.7
		c-1.2,3.3-2.3,6.6-3.4,9.8c-1.1,3.2-2.1,6.1-2.9,8.6c-1.2-0.1-2.4-0.2-3.8-0.2h-2c-0.7,0-1.3,0-2,0.2c-0.6-2.1-1.3-4.7-2.2-8
		c-0.9-3.3-1.9-6.7-2.9-10.4c-1.1-3.7-2.1-7.3-3.2-11.1c-1.1-3.7-2.1-7.1-3.1-10.2c-1-3.1-1.8-5.7-2.4-7.9c-0.7-2.2-1.1-3.5-1.3-4
		c1.1,0.1,2.2,0.2,3.2,0.3c1.1,0.1,2.1,0.1,3.1,0.1c1,0,2,0,3-0.1c1-0.1,2-0.2,3-0.3c0.8,3.2,1.6,6.5,2.4,9.9
		c0.9,3.4,1.7,6.7,2.6,10c0.9,3.3,1.7,6.5,2.6,9.5c0.8,3.1,1.6,5.9,2.3,8.5h0.2c1.1-3.2,2.3-6.6,3.6-10.2c1.3-3.7,2.5-7.3,3.7-10.8
		c1.2-3.5,2.3-6.8,3.3-9.8c1-3,1.8-5.3,2.3-7.1c0.6,0.1,1.3,0.2,1.9,0.3c0.6,0.1,1.2,0.1,1.9,0.1c0.6,0,1.3,0,1.9-0.1
		c0.6-0.1,1.2-0.2,1.9-0.3c0.2,1.1,0.6,2.6,1.1,4.4c0.6,1.9,1.2,3.9,1.9,6.2c0.7,2.3,1.5,4.6,2.3,7.1c0.8,2.5,1.7,5,2.5,7.4
		c0.8,2.5,1.6,4.8,2.3,7c0.7,2.2,1.3,4.1,1.7,5.8h0.2c1-3.2,2.1-6.6,3.2-10.4c1.1-3.8,2.2-7.5,3.3-11s2-6.8,2.9-9.8
		c0.9-3,1.5-5.2,1.8-6.7c1.3,0.3,2.3,0.4,3.2,0.4c0.6,0,1.1,0,1.7-0.1c0.6-0.1,1.2-0.2,1.8-0.3c-0.4,1-0.9,2.5-1.7,4.7
		c-0.8,2.2-1.6,4.7-2.6,7.6c-1,2.9-2.1,6.1-3.2,9.6c-1.2,3.5-2.3,6.9-3.5,10.4c-1.2,3.5-2.3,6.9-3.3,10.3c-1.1,3.4-2,6.4-2.8,9
		c-1.2-0.1-2.4-0.2-3.8-0.2h-2c-0.7,0-1.3,0-2,0.2c-1.6-6.1-3.4-12.2-5.4-18.2c-2-6-4.2-12.2-6.4-18.4h-0.1
		C1709.3,833.2,1708.2,836,1707.1,839.2L1707.1,839.2z M1750.3,816.9c0-1.7,0.6-3.1,1.7-4.2c1.2-1.1,2.6-1.7,4.2-1.7
		s3.1,0.6,4.2,1.7c1.2,1.2,1.7,2.6,1.7,4.2c0,1.7-0.6,3.1-1.7,4.2c-1.2,1.2-2.6,1.7-4.2,1.7s-3.1-0.6-4.2-1.7
		C1750.8,820,1750.3,818.6,1750.3,816.9z M1751.2,847.8c0-3.1,0-5.9-0.1-8.6c-0.1-2.7-0.2-5.4-0.5-8.1c0.7,0.1,1.5,0.2,2.5,0.3
		c0.9,0.1,2,0.1,3.2,0.1c2.4,0,4.2-0.1,5.6-0.4c-0.3,2.7-0.4,5.4-0.5,8.1c-0.1,2.7-0.1,5.5-0.1,8.6v3c0,3.1,0,5.9,0.1,8.6
		c0.1,2.7,0.2,5.3,0.5,7.8c-0.7-0.1-1.5-0.2-2.4-0.2h-6.3c-1,0-1.8,0-2.5,0.2c0.2-2.5,0.4-5.1,0.5-7.8c0.1-2.7,0.1-5.6,0.1-8.6
		L1751.2,847.8L1751.2,847.8z M1803.8,841.5c0,4.9,0,9.4,0.2,13.5c0.1,4.1,0.2,8.2,0.5,12.2c-0.7-0.1-1.5-0.2-2.5-0.2h-6
		c-0.9,0-1.6,0-2.1,0.2c0-0.1,0.1-0.4,0.2-1c0-0.6,0.1-1.2,0.2-1.9c0.1-0.7,0.1-1.3,0.2-2c0-0.6,0.1-1,0.1-1.1l-0.2-0.2
		c-1,2.3-2.3,4-3.9,5.2c-1.7,1.2-3.9,1.8-6.8,1.8c-2.6,0-4.7-0.5-6.5-1.5c-1.8-1-3.3-2.3-4.4-4.1c-1.2-1.8-2-3.8-2.6-6.2
		c-0.6-2.4-0.8-4.9-0.8-7.6c0-2.7,0.4-5.2,1.1-7.5c0.8-2.3,1.8-4.3,3.1-5.9c1.3-1.7,2.8-3,4.6-3.9c1.8-1,3.7-1.4,5.7-1.4
		c2.3,0,4.3,0.5,6,1.6c1.8,1.1,3.1,2.4,3.9,4h0.2c0-4.5-0.1-8.7-0.2-12.7c-0.1-4-0.3-8.1-0.5-12.3c0.6,0.1,1.5,0.2,2.5,0.3
		c1,0.1,2.1,0.1,3.2,0.1c1.1,0,2.2,0,3.2-0.1c1-0.1,1.8-0.2,2.5-0.3c-0.2,4.2-0.4,8.4-0.5,12.5c-0.1,4.1-0.2,8.6-0.2,13.5
		L1803.8,841.5L1803.8,841.5z M1780.2,850c0,2.6,0.2,4.7,0.5,6.5c0.3,1.8,0.8,3.2,1.4,4.2c0.6,1.1,1.3,1.9,2.1,2.3
		c0.8,0.5,1.6,0.7,2.4,0.7c2.1,0,3.7-1.2,5.1-3.5c1.3-2.3,2-6.2,2-11.6c0-4.7-0.6-8-1.9-10.2c-1.3-2.1-2.9-3.2-4.8-3.2
		c-0.8,0-1.6,0.2-2.4,0.7c-0.8,0.5-1.5,1.2-2.2,2.4c-0.7,1.1-1.2,2.6-1.6,4.5C1780.4,844.8,1780.2,847.2,1780.2,850L1780.2,850z
		 M1821.9,849.3c0,2,0.2,3.9,0.6,5.6c0.4,1.8,1,3.3,1.8,4.5c0.8,1.3,1.9,2.3,3.2,3c1.3,0.7,2.8,1.1,4.5,1.1c3.5,0,6.5-1.1,9.2-3.4
		l0.9,0.7l-1.7,4.2c-1.3,1-2.8,1.7-4.5,2.3c-1.8,0.6-4.1,0.9-6.9,0.9c-2.5,0-4.8-0.3-7-1c-2.2-0.7-4.1-1.8-5.8-3.3
		c-1.7-1.5-3-3.5-4-5.9c-1-2.4-1.5-5.2-1.5-8.5c0-3.3,0.4-6.1,1.3-8.5c0.9-2.4,2.1-4.4,3.6-6c1.6-1.6,3.4-2.8,5.5-3.6
		c2.1-0.8,4.4-1.2,6.9-1.2c5,0,8.7,1.5,11.4,4.4c2.6,2.9,3.9,7,3.9,12.3v1.6c0,0.5,0,0.8-0.1,0.9L1821.9,849.3L1821.9,849.3z
		 M1833.5,845.9c-0.1-3.8-0.6-6.8-1.4-9c-0.8-2.3-2.2-3.4-4.2-3.4c-1.1,0-2,0.4-2.8,1.1c-0.8,0.8-1.4,1.7-1.8,2.9
		c-0.5,1.2-0.8,2.5-1,4c-0.2,1.5-0.4,2.9-0.4,4.4L1833.5,845.9z M1896.4,839.2c-1.2,3.2-2.3,6.4-3.5,9.7c-1.2,3.3-2.3,6.6-3.4,9.8
		c-1.1,3.2-2.1,6.1-2.9,8.6c-1.2-0.1-2.4-0.2-3.8-0.2h-2c-0.7,0-1.3,0-2,0.2c-0.6-2.1-1.3-4.7-2.2-8c-0.9-3.3-1.9-6.7-2.9-10.4
		c-1.1-3.7-2.1-7.3-3.2-11.1c-1.1-3.7-2.1-7.1-3.1-10.2c-1-3.1-1.8-5.7-2.4-7.9c-0.7-2.2-1.1-3.5-1.3-4c1.1,0.1,2.2,0.2,3.2,0.3
		c1.1,0.1,2.1,0.1,3.1,0.1c1,0,2,0,3-0.1c1-0.1,2-0.2,3-0.3c0.8,3.2,1.6,6.5,2.4,9.9c0.9,3.4,1.7,6.7,2.6,10
		c0.9,3.3,1.7,6.5,2.6,9.5c0.8,3.1,1.6,5.9,2.3,8.5h0.2c1.1-3.2,2.3-6.6,3.6-10.2c1.3-3.7,2.5-7.3,3.7-10.8c1.2-3.5,2.3-6.8,3.3-9.8
		c1-3,1.8-5.3,2.3-7.1c0.6,0.1,1.3,0.2,1.9,0.3c0.6,0.1,1.2,0.1,1.9,0.1c0.6,0,1.3,0,1.9-0.1c0.6-0.1,1.2-0.2,1.9-0.3
		c0.2,1.1,0.6,2.6,1.1,4.4c0.6,1.9,1.2,3.9,1.9,6.2c0.7,2.3,1.5,4.6,2.3,7.1c0.8,2.5,1.7,5,2.5,7.4c0.8,2.5,1.6,4.8,2.3,7
		c0.7,2.2,1.3,4.1,1.7,5.8h0.1c1-3.2,2.1-6.6,3.2-10.4c1.1-3.8,2.2-7.5,3.3-11c1.1-3.6,2-6.8,2.9-9.8c0.9-3,1.5-5.2,1.8-6.7
		c1.3,0.3,2.3,0.4,3.2,0.4c0.6,0,1.1,0,1.7-0.1c0.6-0.1,1.2-0.2,1.8-0.3c-0.4,1-0.9,2.5-1.7,4.7c-0.8,2.2-1.6,4.7-2.6,7.6
		c-1,2.9-2.1,6.1-3.2,9.6c-1.2,3.5-2.3,6.9-3.5,10.4c-1.2,3.5-2.3,6.9-3.3,10.3c-1.1,3.4-2,6.4-2.8,9c-1.2-0.1-2.4-0.2-3.8-0.2h-2
		c-0.7,0-1.3,0-2,0.2c-1.6-6.1-3.4-12.2-5.4-18.2c-2-6-4.2-12.2-6.4-18.4h-0.2C1898.6,833.2,1897.5,836,1896.4,839.2L1896.4,839.2z
		 M1945.6,849.3c0,2,0.2,3.9,0.6,5.6c0.4,1.8,1,3.3,1.8,4.5c0.8,1.3,1.9,2.3,3.2,3c1.3,0.7,2.8,1.1,4.5,1.1c3.5,0,6.5-1.1,9.2-3.4
		l0.9,0.7l-1.7,4.2c-1.3,1-2.8,1.7-4.5,2.3c-1.8,0.6-4.1,0.9-6.9,0.9c-2.5,0-4.8-0.3-7-1c-2.2-0.7-4.1-1.8-5.8-3.3
		c-1.7-1.5-3-3.5-4-5.9c-1-2.4-1.5-5.2-1.5-8.5c0-3.3,0.4-6.1,1.3-8.5c0.9-2.4,2.1-4.4,3.6-6c1.6-1.6,3.4-2.8,5.5-3.6
		c2.1-0.8,4.4-1.2,6.9-1.2c5,0,8.7,1.5,11.4,4.4c2.6,2.9,3.9,7,3.9,12.3v1.6c0,0.5,0,0.8-0.1,0.9L1945.6,849.3L1945.6,849.3z
		 M1957.2,845.9c-0.1-3.8-0.6-6.8-1.4-9c-0.8-2.3-2.2-3.4-4.2-3.4c-1.1,0-2,0.4-2.8,1.1c-0.8,0.8-1.4,1.7-1.8,2.9
		c-0.4,1.2-0.8,2.5-1,4c-0.2,1.5-0.4,2.9-0.4,4.4L1957.2,845.9z M1974.1,836.6c0-4.9-0.1-9.4-0.2-13.5c-0.1-4.1-0.3-8.3-0.4-12.5
		c0.6,0.1,1.5,0.2,2.5,0.3c1,0.1,2.1,0.1,3.2,0.1c1.1,0,2.2,0,3.2-0.1c1-0.1,1.8-0.2,2.5-0.3c-0.2,4.2-0.4,8.4-0.5,12.5
		c-0.1,4.1-0.2,8.6-0.2,13.5h0.2c0.9-2.1,2.2-3.7,3.9-4.8c1.8-1.1,3.8-1.7,6-1.7c2.2,0,4.1,0.5,5.9,1.4c1.8,1,3.3,2.2,4.6,3.8
		c1.3,1.6,2.3,3.5,3,5.7c0.7,2.2,1.1,4.5,1.1,7c0,3.8-0.5,6.9-1.5,9.5c-1,2.6-2.4,4.7-4,6.3c-1.6,1.6-3.4,2.7-5.4,3.4
		c-2,0.6-4,1-5.9,1c-2.4,0-4.4-0.5-6.1-1.4c-1.7-0.9-3-2.1-4.1-3.6c-1.1,0.6-2.1,1.3-3.2,2.1c-1.1,0.8-2.2,1.6-3.3,2.3h-1.8
		c0.2-4.2,0.3-8.4,0.4-12.5c0.1-4.1,0.2-8.6,0.2-13.5L1974.1,836.6L1974.1,836.6L1974.1,836.6z M1984.2,849.5c0,2.2,0.1,4.3,0.3,6.2
		c0.2,1.9,0.5,3.5,1,4.9c0.5,1.4,1.1,2.5,2,3.3c0.8,0.8,1.9,1.2,3.3,1.2c2.2,0,3.9-1.3,5.1-4c1.3-2.7,1.9-7.1,1.9-13.2
		c0-8.7-2.2-13.1-6.5-13.1c-1.1,0-2,0.3-2.9,0.8c-0.9,0.5-1.6,1.3-2.3,2.5c-0.6,1.2-1.1,2.7-1.4,4.6
		C1984.3,844.5,1984.2,846.8,1984.2,849.5L1984.2,849.5z"/>
</g>
</svg>
