<?xml version="1.0" encoding="UTF-8" standalone="no"?>
<svg
   xmlns:dc="http://purl.org/dc/elements/1.1/"
   xmlns:cc="http://creativecommons.org/ns#"
   xmlns:rdf="http://www.w3.org/1999/02/22-rdf-syntax-ns#"
   xmlns:svg="http://www.w3.org/2000/svg"
   xmlns="http://www.w3.org/2000/svg"
   version="1.1"
   id="svg2"
   xml:space="preserve"
   width="1555.0485"
   height="1215.2932"
   viewBox="0 0 1555.0485 1215.2932"><metadata
     id="metadata8"><rdf:RDF><cc:Work
         rdf:about=""><dc:format>image/svg+xml</dc:format><dc:type
           rdf:resource="http://purl.org/dc/dcmitype/StillImage" /><dc:title></dc:title></cc:Work></rdf:RDF></metadata><defs
     id="defs6"><clipPath
       id="clipPath414"
       clipPathUnits="userSpaceOnUse"><path
         id="path412"
         d="m 87.852,487.27 h 45.769 l 15.574,-42.786 h -45.769 z" /></clipPath><clipPath
       id="clipPath432"
       clipPathUnits="userSpaceOnUse"><path
         id="path430"
         d="m 148.504,487.27 h 55.719 L 188.648,444.484 H 132.93 Z" /></clipPath><clipPath
       id="clipPath444"
       clipPathUnits="userSpaceOnUse"><path
         id="path442"
         d="M 54,541 H 787.004 V 76.297 H 54 Z" /></clipPath><clipPath
       id="clipPath450"
       clipPathUnits="userSpaceOnUse"><path
         id="path448"
         d="m 192.305,487.27 h 63.68 v -42.785 h -63.68 z" /></clipPath></defs><g
     id="g10"
     transform="matrix(1.3333333,0,0,1.3333333,25.682635,-8.6856972e-5)"><g
       id="g1149"
       transform="translate(-19.261209)"><g
         id="g14"
         transform="matrix(0.999849,-0.267949,0.267909,1,0,0)"><path
           d="m 187.486,162.803 c -0.717,-7.532 -4.937,-14.381 -12.162,-19.638 -7.127,-5.187 -17.496,-9.023 -31.055,-8.211 -14.437,0.866 -28.644,2.067 -43.169,2.792 -0.099,2.993 -0.148,5.992 -0.172,8.981 3.121,2.395 6.262,4.756 9.398,7.065 0.035,7.205 1.899,85.122 2.241,91.937 -3.21,3.116 -6.424,6.259 -9.682,9.464 0.148,2.919 0.331,5.839 0.563,8.733 12.735,-2.604 23.242,-4.186 35.799,-6.138 -0.394,-2.922 -0.732,-5.845 -1.023,-8.751 -3.607,-1.951 -7.218,-3.93 -10.712,-5.866 -0.812,-11.624 -1.245,-25.65 -1.618,-37.207 6.414,-0.915 13.987,-1.983 20.597,-3.005 14.576,-2.258 25.167,-8.702 32.05,-16.424 6.874,-7.72 9.666,-16.215 8.945,-23.732 z m -63.107,-10.265 c 4.384,-0.352 16.436,-1.311 20.82,-1.663 18.254,-1.465 26.183,7.773 26.705,14.937 0.521,7.155 -6.053,18.741 -25.208,21.335 -6.77,0.916 -14.787,1.909 -21.329,2.718 -0.375,-11.225 -0.909,-25.927 -0.988,-37.327 z"
           style="fill:#000000;fill-opacity:1;fill-rule:nonzero;stroke:#000000;stroke-width:0.72449899;stroke-linecap:butt;stroke-linejoin:miter;stroke-miterlimit:4;stroke-dasharray:none;stroke-opacity:1"
           id="path16" /></g><g
         id="g18"
         transform="matrix(0.999869,0.0416631,-0.0416576,1,0,0)"><path
           d="m 637.82,729.298 c 0.002,-15.973 -11.701,-31.7 -38.279,-31.699 l -41.939,0.002 -0.002,7.922 9.145,6.829 -0.002,82.657 -9.142,6.826 0.002,7.926 31.941,10e-4 -0.002,-7.926 -9.145,-6.826 10e-4,-34.015 19.143,-10e-4 c 26.578,0.002 38.28,-15.728 38.279,-31.696 z m -57.422,-17.069 19.995,-0.001 c 17.436,0 23.775,9.631 23.773,17.068 10e-4,7.438 -6.338,16.948 -23.774,16.948 h -19.991 z"
           style="fill:#000000;fill-opacity:1;fill-rule:nonzero;stroke:#000000;stroke-width:0.74939901;stroke-linecap:butt;stroke-linejoin:miter;stroke-miterlimit:4;stroke-dasharray:none;stroke-opacity:1"
           id="path20" /></g><g
         id="g22"
         transform="matrix(0.999869,0.730785,-0.730689,1,0,0)"><path
           d="m 717.119,-100.818 c 0.052,-5.889 -2.076,-11.432 -6.645,-15.374 -4.54,-3.913 -11.44,-6.187 -20.418,-5.091 -9.469,1.151 -18.766,2.585 -28.252,3.568 -0.025,1.89 -0.073,3.792 -0.14,5.689 2.041,1.43 4.128,2.869 6.186,4.279 -0.593,19.973 -2.089,39.973 -2.541,59.631 -2.335,1.82 -4.701,3.635 -7.094,5.434 -0.036,1.89 -0.067,3.757 -0.095,5.644 8.239,-0.638 16.049,-1.412 23.682,-2.06 0.048,-1.875 0.096,-3.777 0.139,-5.653 -2.157,-1.439 -4.31,-2.85 -6.505,-4.277 0.197,-8.754 0.386,-15.579 0.707,-24.431 7.48,-0.735 6.151,-0.608 13.627,-1.341 18.55,-1.807 27.246,-14.141 27.349,-26.018 z m -39.844,-8.113 c 4.983,-0.602 8.717,-1.058 13.687,-1.623 11.994,-1.363 16.529,5.409 16.488,10.833 -0.045,5.514 -4.626,12.889 -16.794,14.125 -3.337,0.337 -10.766,1.114 -14.101,1.453 0.309,-7.944 0.656,-16.792 0.72,-24.788 z"
           style="fill:#000000;fill-opacity:1;fill-rule:nonzero;stroke:#000000;stroke-width:0.60557801;stroke-linecap:butt;stroke-linejoin:miter;stroke-miterlimit:4;stroke-dasharray:none;stroke-opacity:1"
           id="path24" /></g><g
         id="g26"><path
           d="M 1051.277,146.5 856.949,84.113 808.965,201.688 775.379,213.684 964.91,292.863 998.496,273.668 974.504,259.273 Z"
           style="fill:none;stroke:#000000;stroke-width:4.5;stroke-linecap:round;stroke-linejoin:round;stroke-miterlimit:4;stroke-dasharray:none;stroke-opacity:1"
           id="path28" /></g><g
         id="g30"><path
           d="m 990.66,235.539 173.375,74.121 -146.347,91.18 -347.872,-165.563 107.961,-64.183 36.614,10.867"
           style="fill:none;stroke:#000000;stroke-width:4.5;stroke-linecap:round;stroke-linejoin:round;stroke-miterlimit:4;stroke-dasharray:none;stroke-opacity:1"
           id="path32" /></g><g
         id="g34"><path
           d="m 739.391,328.855 158.343,74.383 c 0,0 -48.824,26 -73.773,50.989 -24.949,24.984 -50.844,82.359 -94.164,107.371 L 581.051,460.824 c 40.996,-21.402 68.094,-66.39 94.164,-87.578 26.074,-21.191 64.176,-44.391 64.176,-44.391 z"
           style="fill:none;stroke:#000000;stroke-width:4.5;stroke-linecap:round;stroke-linejoin:round;stroke-miterlimit:4;stroke-dasharray:none;stroke-opacity:1"
           id="path36" /></g><g
         id="g38"><path
           d="m 669.816,235.277 -44.621,108.215 41.383,23.395"
           style="fill:none;stroke:#000000;stroke-width:4.5;stroke-linecap:round;stroke-linejoin:round;stroke-miterlimit:4;stroke-dasharray:none;stroke-opacity:1"
           id="path40" /></g><g
         id="g42"><path
           d="m 831.277,450.027 175.028,85.629 78.73,-45.476 m 28.785,-22.215 48.637,-36.637 1.578,-121.668"
           style="fill:none;stroke:#000000;stroke-width:4.5;stroke-linecap:round;stroke-linejoin:round;stroke-miterlimit:4;stroke-dasharray:none;stroke-opacity:1"
           id="path44" /></g><g
         id="g46"><path
           d="M 50.941,240.641 9.262,92.512 305.793,2.25 328.137,139.039 m 5.218,26.223 8.54,48.461 154.71,85.105 L 218.309,447.445 76.305,329.773 61.633,277.309"
           style="fill:none;stroke:#000000;stroke-width:4.5;stroke-linecap:round;stroke-linejoin:round;stroke-miterlimit:4;stroke-dasharray:none;stroke-opacity:1"
           id="path48" /></g><g
         id="g50"><path
           d="m 76.305,329.773 265.59,-116.05"
           style="fill:none;stroke:#000000;stroke-width:4.5;stroke-linecap:round;stroke-linejoin:round;stroke-miterlimit:4;stroke-dasharray:none;stroke-opacity:1"
           id="path52" /></g><g
         id="g54"><path
           d="m 238.75,352.984 95.41,-46.422 36.098,25.79 -97.985,51.578 z"
           style="fill:none;stroke:#000000;stroke-width:4.5;stroke-linecap:round;stroke-linejoin:round;stroke-miterlimit:4;stroke-dasharray:none;stroke-opacity:1"
           id="path56" /></g><g
         id="g58"><path
           d="m 679.043,810.398 -10.602,92.309 -214,-7.918 -11.996,14.399 -56.73,-11.715 -3.086,-15.645 -138.828,-87.094 1.554,-110.425 m 0.399,-29.414 2.844,-116.899 154.504,98.375 -1.2,19.195 46.438,8.399 13.195,-15.598 240.496,-9.597 -18.011,138.25"
           style="fill:none;stroke:#000000;stroke-width:4.5;stroke-linecap:round;stroke-linejoin:round;stroke-miterlimit:4;stroke-dasharray:none;stroke-opacity:1"
           id="path60" /></g><g
         id="g62"><path
           d="m 401.902,655.566 c 0,4.801 -13.257,205.782 -13.257,205.782"
           style="fill:none;stroke:#000000;stroke-width:4.5;stroke-linecap:round;stroke-linejoin:round;stroke-miterlimit:4;stroke-dasharray:none;stroke-opacity:1"
           id="path64" /></g><g
         id="g66"><path
           d="M 442.445,909.188 448.34,663.965"
           style="fill:none;stroke:#000000;stroke-width:4.5;stroke-linecap:round;stroke-linejoin:round;stroke-miterlimit:4;stroke-dasharray:none;stroke-opacity:1"
           id="path68" /></g><g
         id="g70"><path
           d="m 276.188,548.793 1.199,-27.594 c 0,0 132.57,107.094 137.582,114.36 5.008,7.261 3.484,14.25 3.484,14.25"
           style="fill:none;stroke:#000000;stroke-width:4.5;stroke-linecap:round;stroke-linejoin:round;stroke-miterlimit:4;stroke-dasharray:none;stroke-opacity:1"
           id="path72" /></g><g
         id="g74"><path
           d="m 361.715,538.594 -0.598,-40.188 c 0,0 60.258,118.008 63.781,128.032 3.528,10.023 1.954,24.421 1.954,24.421"
           style="fill:none;stroke:#000000;stroke-width:4.5;stroke-linecap:round;stroke-linejoin:round;stroke-miterlimit:4;stroke-dasharray:none;stroke-opacity:1"
           id="path76" /></g><g
         id="g78"><path
           d="m 312.652,536.797 1.203,-27.594 c 0,0 100.75,111.668 105.547,121.266 4.801,9.597 3.493,19.937 3.493,19.937"
           style="fill:none;stroke:#000000;stroke-width:4.5;stroke-linecap:round;stroke-linejoin:round;stroke-miterlimit:4;stroke-dasharray:none;stroke-opacity:1"
           id="path80" /></g><g
         id="g82"><path
           d="m 666.629,627.465 -1.199,-27.594 c 0,0 -215.696,30.117 -220.707,37.383 -5.008,7.266 -5.016,15.449 -5.016,15.449"
           style="fill:none;stroke:#000000;stroke-width:4.5;stroke-linecap:round;stroke-linejoin:round;stroke-miterlimit:4;stroke-dasharray:none;stroke-opacity:1"
           id="path84" /></g><g
         id="g86"><path
           d="m 582.898,569.398 -1.199,-27.593 c 0,0 -143.383,76.308 -146.906,86.328 -3.527,10.023 -3.633,23.371 -3.633,23.371"
           style="fill:none;stroke:#000000;stroke-width:4.5;stroke-linecap:round;stroke-linejoin:round;stroke-miterlimit:4;stroke-dasharray:none;stroke-opacity:1"
           id="path88" /></g><g
         id="g90"><path
           d="m 630.16,593.633 -1.199,-27.594 c 0,0 -183.875,56.527 -188.672,66.125 -4.801,9.598 -4.84,19.941 -4.84,19.941"
           style="fill:none;stroke:#000000;stroke-width:4.5;stroke-linecap:round;stroke-linejoin:round;stroke-miterlimit:4;stroke-dasharray:none;stroke-opacity:1"
           id="path92" /></g><g
         id="g94"><path
           d="m 55.609,236.672 c 0,0 -45.929,69.832 -52.714,88.496 -5.602,15.406 30.984,76.707 43.281,98.012 12.219,21.168 6.844,36.144 6.844,36.144 -4.645,8.86 -5.532,19.168 0.339,24.379 0,0 7.805,7.34 9.649,7.957"
           style="fill:none;stroke:#000000;stroke-width:4.5;stroke-linecap:round;stroke-linejoin:round;stroke-miterlimit:4;stroke-dasharray:none;stroke-opacity:1"
           id="path96" /></g><g
         id="g98"><path
           d="m 328.168,139.312 c 0,0 43.273,-16.632 58.324,-14.933 15.051,1.695 76.668,4.183 76.668,4.183 l 9.207,0.157 c 10.27,-0.231 36.391,0.113 56.891,-4.313 5.203,-1.125 41.691,4.137 36.144,10.856 -9.828,11.898 -21.543,-2.176 -36.054,2.269 -10.84,3.324 -20.317,11.157 -26.239,10.574"
           style="fill:none;stroke:#000000;stroke-width:4.5;stroke-linecap:round;stroke-linejoin:round;stroke-miterlimit:4;stroke-dasharray:none;stroke-opacity:1"
           id="path100" /></g><g
         id="g102"><path
           d="m 678.91,809.875 c 0,0 126.309,-3.371 144.969,-10.156 18.66,-6.789 108.57,-55.141 108.57,-55.141"
           style="fill:none;stroke:#000000;stroke-width:4.5;stroke-linecap:round;stroke-linejoin:round;stroke-miterlimit:4;stroke-dasharray:none;stroke-opacity:1"
           id="path104" /></g><g
         id="g106"><path
           d="m 245.852,684.945 c 0,0 -76.79,-45.98 -90.36,-62.949 -13.574,-16.965 -55.101,-85.262 -55.101,-85.262"
           style="fill:none;stroke:#000000;stroke-width:4.5;stroke-linecap:round;stroke-linejoin:round;stroke-miterlimit:4;stroke-dasharray:none;stroke-opacity:1"
           id="path108" /></g><g
         id="g110"><path
           d="m 557.02,141.406 c 8.949,8.559 13.238,23.75 37.011,30.227 l 5.805,1.66 c 0,0 34.605,10.066 51.094,16.141 16.488,6.078 58.953,22.058 58.953,22.058"
           style="fill:none;stroke:#000000;stroke-width:4.5;stroke-linecap:round;stroke-linejoin:round;stroke-miterlimit:4;stroke-dasharray:none;stroke-opacity:1"
           id="path112" /></g><g
         id="g114"><path
           d="m 544.664,182.598 c 6.391,4.234 37.535,7.691 46.898,10.613 l 5.575,1.797 c 0,0 34.605,10.066 51.093,16.14 7.942,2.926 24.911,5.75 33.657,13.082"
           style="fill:none;stroke:#000000;stroke-width:4.5;stroke-linecap:round;stroke-linejoin:round;stroke-miterlimit:4;stroke-dasharray:none;stroke-opacity:1"
           id="path116" /></g><g
         id="g118"><path
           d="m 84.371,500.902 c -2.781,9.786 4.875,24.684 16.02,35.832"
           style="fill:none;stroke:#000000;stroke-width:4.5;stroke-linecap:round;stroke-linejoin:round;stroke-miterlimit:4;stroke-dasharray:none;stroke-opacity:1"
           id="path120" /></g><g
         id="g122"><path
           d="m 114.402,471.078 c 0.176,4.36 10.848,12.762 12.996,17.059 0.805,1.609 -0.621,4.996 0.34,6.433 0.824,1.235 1.047,3.668 0.336,5.078 -3.769,7.547 -13.191,-5.039 -14.285,-8.328"
           style="fill:none;stroke:#000000;stroke-width:4.5;stroke-linecap:round;stroke-linejoin:round;stroke-miterlimit:4;stroke-dasharray:none;stroke-opacity:1"
           id="path124" /></g><g
         id="g126"><path
           d="m 76.887,480.484 c 0,3.36 -2.664,4.95 -3.723,8.129 -2.297,7.535 -2.004,22.196 3.383,25.731 5.391,3.539 6.773,-3.688 6.773,-3.723 0,-13.566 4.25,-18.375 12.188,-29.121 l 0.676,-0.676 c 1.968,-5.41 3.664,-10.992 5.418,-16.254 1.816,-5.453 -1.844,-14.597 0.675,-19.636 3.118,-6.239 9.985,2.183 10.836,4.738 0.992,2.984 1.992,38.43 0.594,41.226 -1.883,3.77 14.449,28.118 1.527,39.122"
           style="fill:none;stroke:#000000;stroke-width:4.5;stroke-linecap:round;stroke-linejoin:round;stroke-miterlimit:4;stroke-dasharray:none;stroke-opacity:1"
           id="path128" /></g><g
         id="g130"><path
           d="m 61.992,472.699 c -0.695,3.649 0.184,7.508 1.016,10.832 1.859,7.446 -2.606,18.965 8.461,18.965"
           style="fill:none;stroke:#000000;stroke-width:4.5;stroke-linecap:round;stroke-linejoin:round;stroke-miterlimit:4;stroke-dasharray:none;stroke-opacity:1"
           id="path132" /></g><g
         id="g134"><path
           d="m 1000.965,719.176 c -5.906,2.957 -13.149,7.578 -28.52,11.023 -11.351,2.543 -23.625,6.801 -39.996,14.379"
           style="fill:none;stroke:#000000;stroke-width:4.5;stroke-linecap:round;stroke-linejoin:round;stroke-miterlimit:4;stroke-dasharray:none;stroke-opacity:1"
           id="path136" /></g><g
         id="g138"><path
           d="m 65.355,270.328 c 0,0 -30.183,47.621 -34.507,59.516 0.226,16.449 33.261,87.09 47.328,95.211 11.25,7.504 14.836,7.05 23.539,19.062"
           style="fill:none;stroke:#000000;stroke-width:4.5;stroke-linecap:round;stroke-linejoin:round;stroke-miterlimit:4;stroke-dasharray:none;stroke-opacity:1"
           id="path140" /></g><g
         id="g142"><path
           d="m 333.199,164.445 c 0,0 49.961,-19.832 65.012,-18.136 10.867,1.222 36.898,2.726 50.351,4.89 18.797,3.028 17.504,7.875 17.504,7.875"
           style="fill:none;stroke:#000000;stroke-width:4.5;stroke-linecap:round;stroke-linejoin:round;stroke-miterlimit:4;stroke-dasharray:none;stroke-opacity:1"
           id="path144" /></g><g
         id="g146"><path
           d="m 1065.766,459.742 c 16.644,23.203 37.8,54.926 37.8,63.727 1.297,15.593 -93.863,106.211 -93.863,106.211 -12.523,13.039 -17.367,17.886 -24.5,27.574"
           style="fill:none;stroke:#000000;stroke-width:4.5;stroke-linecap:round;stroke-linejoin:round;stroke-miterlimit:4;stroke-dasharray:none;stroke-opacity:1"
           id="path148" /></g><g
         id="g150"><path
           d="m 683.473,778.457 c 0,0 111.566,-2.492 130.226,-9.277 18.66,-6.789 118.75,-55.992 118.75,-55.992 l 3.653,-2.016 c 5.781,-3.336 16.921,-10.242 17.937,-18.992 1.016,-8.75 8.238,-19.766 12.34,-22.41 9.766,-6.29 19.547,-18.184 22.91,-9.434 3.352,6.699 -22.937,20.422 -10.105,28.976 5.097,2.086 13.136,3.856 23.48,0.79"
           style="fill:none;stroke:#000000;stroke-width:4.5;stroke-linecap:round;stroke-linejoin:round;stroke-miterlimit:4;stroke-dasharray:none;stroke-opacity:1"
           id="path152" /></g><g
         id="g154"><path
           d="m 246.43,656.176 c 0,0 -63.141,-39.668 -75.453,-55.016 -12.317,-15.344 -50.442,-76.969 -50.442,-76.969"
           style="fill:none;stroke:#000000;stroke-width:4.5;stroke-linecap:round;stroke-linejoin:round;stroke-miterlimit:4;stroke-dasharray:none;stroke-opacity:1"
           id="path156" /></g><g
         id="g158"><path
           d="m 532.105,162.234 c 6.196,1.825 24.774,13.879 28.282,12.125 1.34,-0.668 3.301,-0.886 3.301,-2.117 0,-10.535 -12.649,-14.472 -20.465,-17.078 l -2.711,-0.969 c -13.137,-3.023 -42.324,13.508 -35.969,-5.558"
           style="fill:none;stroke:#000000;stroke-width:4.5;stroke-linecap:round;stroke-linejoin:round;stroke-miterlimit:4;stroke-dasharray:none;stroke-opacity:1"
           id="path160" /></g><g
         id="g162"><path
           d="m 560.25,176.598 c 4.406,8.507 -5.957,10.66 -10.672,8.3 -7.367,-3.683 -21.879,-15.957 -29.758,-18.582"
           style="fill:none;stroke:#000000;stroke-width:4.5;stroke-linecap:round;stroke-linejoin:round;stroke-miterlimit:4;stroke-dasharray:none;stroke-opacity:1"
           id="path164" /></g><g
         id="g166"><path
           d="m 531.871,186.812 c 1.609,1.391 1.649,7.93 -4.504,9.141 -4.57,1.27 -8.039,-8.508 -24.285,-13.41"
           style="fill:none;stroke:#000000;stroke-width:4.5;stroke-linecap:round;stroke-linejoin:round;stroke-miterlimit:4;stroke-dasharray:none;stroke-opacity:1"
           id="path168" /></g><g
         id="g170"><path
           d="m 497.758,171.035 c 8.953,-5.492 1.316,-14.305 -3.965,-12.574 -4.813,1.578 -14.152,7.344 -18.855,8.887 5.972,-3.504 20.46,-12.848 22.636,-17.465 0.848,-1.801 -1.937,-5.176 -3.16,-5.633 -4.355,-1.629 -27.48,7.5 -28.434,18.219 0,7.383 7.012,3.461 8.582,5.773 1.723,2.543 1.524,5.633 3.793,7.418 3.899,3.051 6.524,0.606 8.946,1.399 1.32,0.433 2.16,3.941 3.969,4.828 2.652,1.304 9.187,0.98 11.707,-0.102"
           style="fill:none;stroke:#000000;stroke-width:4.5;stroke-linecap:round;stroke-linejoin:round;stroke-miterlimit:4;stroke-dasharray:none;stroke-opacity:1"
           id="path172" /></g><g
         id="g174"><path
           d="m 504.945,181.016 c 7.438,-4.414 5.832,-11.848 1.012,-12.305 -6.269,-0.598 -12.758,6.586 -18.207,8.371"
           style="fill:none;stroke:#000000;stroke-width:4.5;stroke-linecap:round;stroke-linejoin:round;stroke-miterlimit:4;stroke-dasharray:none;stroke-opacity:1"
           id="path176" /></g><g
         id="g178"><path
           d="m 547.754,184.523 c 4.969,9.133 -4.102,9.852 -8.91,6.965 -3.098,-1.859 -9.598,-7.59 -12.41,-9.84 -5.657,-4.527 -10.356,-8.195 -16.598,-11.316"
           style="fill:none;stroke:#000000;stroke-width:4.5;stroke-linecap:round;stroke-linejoin:round;stroke-miterlimit:4;stroke-dasharray:none;stroke-opacity:1"
           id="path180" /></g><g
         id="g182"><path
           d="m 991.754,690.297 c 2.062,-2.34 7.062,-3.168 9.223,-1.899 6.609,3.305 2.054,12.704 1.472,28.414 -6.211,11.942 8.004,9.79 13.547,0.071 3.723,-1.043 6.895,-6.418 9.508,-9.961 7.43,-10.067 7.996,-20.988 10.351,-25.774 5.872,-13.988 -3.035,-23.152 -6.898,-29.957 m 4.051,5.735 c 24.918,-59.961 106.613,-78.438 111.582,-129.86 -1.695,-20.359 -57.68,-93.316 -57.68,-93.316"
           style="fill:none;stroke:#000000;stroke-width:4.5;stroke-linecap:round;stroke-linejoin:round;stroke-miterlimit:4;stroke-dasharray:none;stroke-opacity:1"
           id="path184" /></g><g
         id="g186"><path
           d="m 1018.062,688.863 c -2.832,7.809 0.301,26.914 -3.207,29.801"
           style="fill:none;stroke:#000000;stroke-width:4.5;stroke-linecap:round;stroke-linejoin:round;stroke-miterlimit:4;stroke-dasharray:none;stroke-opacity:1"
           id="path188" /></g><g
         id="g190"><path
           d="m 1026.871,675.758 c -1.062,4.117 4.25,21.402 0,29.43"
           style="fill:none;stroke:#000000;stroke-width:4.5;stroke-linecap:round;stroke-linejoin:round;stroke-miterlimit:4;stroke-dasharray:none;stroke-opacity:1"
           id="path192" /></g></g></g></svg>