<?xml version="1.0" encoding="utf-8"?>
<!-- Generator: Adobe Illustrator 23.0.4, SVG Export Plug-In . SVG Version: 6.00 Build 0)  -->
<svg version="1.1" xmlns="http://www.w3.org/2000/svg" xmlns:xlink="http://www.w3.org/1999/xlink" x="0px" y="0px"
	 viewBox="0 0 446.3 425.9" style="enable-background:new 0 0 446.3 425.9;" xml:space="preserve">
<style type="text/css">
	.st0{fill:none;stroke:#000000;stroke-miterlimit:10;}
	.st1{fill:#E94E1B;}
	.st2{clip-path:url(#SVGID_2_);}
</style>
<g id="Calque_1">
	<rect x="0.5" y="4" class="st0" width="139.5" height="176.8"/>
	<g>
		<line class="st0" x1="0.5" y1="21.8" x2="140" y2="21.8"/>
		<rect x="34" y="7.9" class="st0" width="102.2" height="9.8"/>
		<circle cx="8.3" cy="12.8" r="2.1"/>
		<circle cx="15.2" cy="12.8" r="2.1"/>
		<circle cx="22.1" cy="12.8" r="2.1"/>
	</g>
	<g>
		<path d="M44.4,196.3c0,0.9-0.7,1.8-1.4,2c-0.5,0.1-1.5,0.1-2,0.1l-0.1-0.8c0.5,0,1.5,0,1.9-0.1c0.4-0.1,0.9-0.8,0.9-1.3
			c0-0.5-0.1-0.8-0.2-1c-0.3-0.5-0.9-0.7-2-0.7c-0.2,0-0.3,0.1-0.5,0.1c-0.3,0-0.6,0-0.8,0.1c0,0.1,0,0.2,0,0.3
			c0.1,1,0.1,1.9,0.1,2.9c0,0.2,0,0.5,0,0.8c0,0.3,0,0.6,0,0.8c0,0.6,0,0.9,0.1,1.3l-0.8,0.1c-0.1-0.5-0.1-1-0.1-1.4
			c0-0.3,0-0.6,0-0.8c0-0.3,0-0.5,0-0.8c-0.1-1-0.1-1.9-0.1-2.9l0-1.2l1.5-0.1c0.2,0,0.4-0.1,0.5-0.1c1.4,0,2.1,0.3,2.6,1
			C44.2,195.1,44.4,195.7,44.4,196.3z"/>
		<path d="M49.9,199.6c-0.1,0.1-0.2,0.3-0.3,0.4c-0.3,0.4-0.6,0.8-0.9,1.1c-0.2,0.1-0.3,0.1-0.3,0.1c-0.2,0.1-0.3,0.1-0.3-0.1
			c-0.1-0.2-0.1-0.5-0.1-0.7c0-1,0.3-2.4,0.5-3.1c0-0.2,0.1-0.4,0.1-0.5c0,0.1-0.1,0.1-0.1,0.2l-0.1,0.3h0c0,0,0,0-0.1,0
			c-0.2,0.3-0.4,0.6-0.5,0.8c-0.3,0.6-0.6,1.2-1,1.7c-0.2,0.3-0.5,0.6-0.6,0.8c-0.3,0.4-0.4,0.6-0.6,0.5c-0.3-0.1-0.5-1.4-0.5-1.6
			c0-0.5,0-0.9,0.1-1.4c0.1-0.8,0.6-2.4,1.4-2.8c0.1,0,0.2-0.1,0.3-0.1c0.4,0,1,0.4,1.4,0.7c0.1-0.2,0.2-0.4,0.2-0.6h0
			c0.8,0,0.9-0.1,0.9,0c0,0,0,0.2,0,0.3h0c0,0.2-0.1,0.4-0.1,0.5c-0.1,0.4-0.1,0.8-0.2,1.2c-0.1,0.7-0.4,1.8-0.4,2.7
			c0.1-0.1,0.3-0.3,0.6-0.7c0,0,0.3-0.5,0.3-0.5h0l0.2,0.4H50C50,199.4,50,199.6,49.9,199.6z M47.8,196.8c-0.3-0.3-0.7-0.6-0.9-0.6
			c0,0,0-0.2,0-0.3c-0.6,0.3-0.9,1.8-1,2.4c-0.1,0.4-0.1,0.8-0.1,1.3h0c0,0.1,0.1,0.3,0.1,0.4c0.2-0.3,0.4-0.6,0.5-0.7
			c0.4-0.6,0.6-1.1,0.9-1.7C47.4,197.4,47.6,197.1,47.8,196.8z M45.9,200.4L45.9,200.4L45.9,200.4L45.9,200.4z"/>
		<path d="M55.9,196.9c0,0.1,0,0.3,0,0.4c-0.1,1.3-0.4,3-0.9,4c-0.4,0.7-0.8,1.8-2.7,2c-0.3,0-0.7,0.1-1.1,0.1c-0.1,0-0.2,0-0.3,0
			c-0.8-0.1-1.4-0.7-1.4-1.5h0.6c0,0.3,0.4,0.6,0.8,0.6c0,0,0.1,0,0.2,0c0.3,0,0.7-0.1,1-0.1c1.5-0.2,1.8-0.8,2.2-1.5
			c0.5-1,0.7-2.5,0.8-3.7c0-0.1,0-0.2,0-0.3c0-0.1,0-0.3,0-0.4c-0.1,0.2-0.2,0.4-0.3,0.6c-0.5,0.7-1,1.4-1.6,2c-0.3,0.4-0.7,0.6-1,1
			c0,0.1-0.7,0.9-1,0.9c-0.1,0-0.1,0-0.2-0.1c-0.1-0.1-0.2-0.4-0.2-0.8c0-0.4,0.1-0.9,0.1-1.1c0.2-1.1,0.5-3,1.6-3.7
			c0.1,0,0.1,0,0.2,0c0.3,0,1,0.3,1.1,0.4c0.2,0.1,0.5,0.2,0.7,0.4c0-0.1,0-0.2,0-0.4v0c0,0,0-0.1,0-0.1c0-0.6,1-0.7,1-0.1
			C55.8,195.8,55.9,196.3,55.9,196.9z M54.5,196.5c0.1-0.2,0.2-0.3,0.2-0.3l-0.4,0.5c0.1,0.1-0.1,0.1-0.5-0.2
			c-0.1,0-0.6-0.3-0.9-0.3h0c0,0,0,0,0,0c-0.7,0.4-0.9,1.2-1.2,3c0,0.2-0.1,0.5-0.1,0.8c0.1-0.1,0.2-0.2,0.3-0.3
			c0.4-0.6,0.8-0.8,1-1.1C53.6,197.8,54.1,197.1,54.5,196.5z"/>
		<path d="M57.7,198.9c0,0-0.1,0.1-0.2,0.1c0,0.3,0,0.4,0.1,0.6c0,0.1,0.3,0.4,0.6,0.6l0.1,0.1c0.1,0,0.3,0.1,0.6,0.1
			c0.1,0,0.2,0,0.2,0l0.7-0.8l0.5,0.6l-0.8,0.9h0c-0.1,0.1-0.3,0.2-0.5,0.2c-0.4,0-0.7-0.1-0.9-0.2c-0.3-0.2-0.6-0.6-0.8-0.9l0,0
			c-0.1-0.2-0.2-0.5-0.2-0.9c-0.2,0.1-0.3,0.1-0.4,0.1h0v-0.9h0c0,0,0.2-0.1,0.4-0.1c0.1-1.2,0.6-2.5,1.1-2.9
			c0.1-0.1,0.2-0.1,0.5-0.2c0.1,0,0.2,0,0.3,0c0.5,0,1,0.6,1.3,1c0.2,0.2,0.3,0.4,0.2,0.6c-0.1,0.2-0.2,0.3-0.3,0.4
			C59.4,197.9,58.6,198.4,57.7,198.9z M57.6,198c0.7-0.3,1.3-0.6,2-1.5c0,0,0,0,0,0c-0.2-0.2-0.5-0.5-0.8-0.5c-0.1,0-0.2,0-0.3,0
			c-0.2,0-0.2-0.1-0.2-0.2C58,196.2,57.7,197.2,57.6,198z"/>
		<path d="M69.3,199.5c-0.4,0.4-1.4,1.7-1.5,1.7c-0.3,0-0.5-0.3-0.5-0.9c0-0.4,0.1-0.8,0.1-0.9c0-0.4,0.1-0.7,0.1-1.1
			c-0.2,0.3-0.3,0.6-0.4,0.6c-0.4,0.7-0.7,1.8-1.3,2.3h0h0c-0.2,0-0.4-0.4-0.4-0.5c-0.2-0.4-0.4-0.8-0.7-1.2h0
			c-0.2-0.4-0.3-0.9-0.3-1.4c0-0.5,0.1-1,0.3-1.4c0.2-0.4,0.4-0.6,0.6-0.8h0c0.3-0.4,0.5-0.6,0.7-0.7c0,0,0.1-0.1,0.2-0.1
			c0.4,0,1.4,0.6,1.6,0.6h0v0.9h0c-0.3,0-1.2-0.6-1.6-0.6c-0.2,0.1-0.2,0.2-0.4,0.5c-0.3,0.3-0.4,0.5-0.4,0.6
			c-0.2,0.4-0.2,0.6-0.2,1c0,0.3,0.1,0.6,0.2,0.9c0.1,0.3,0.4,0.8,0.6,1.2c0.4-0.5,0.6-1.1,0.9-1.7c0.3-0.7,0.5-0.9,0.5-0.7h0.4
			c0.2-1,0.3-1.9,0.6-3c0-0.1,0.1-0.4,0.2-0.7h-0.9c0,0-0.2,0.1-0.2-0.2c0.1-0.1-0.5-0.6,0.2-0.7c0.3-0.1,0.7,0,1.1,0h0h0l0.1,0.2h0
			c0.6,0.1,0.4,0.6,0.1,1.6c-0.5,1.5-0.5,2.7-0.8,4.7c0,0.1,0,0.3-0.1,0.4c0.3-0.4,0.8-1,0.9-1.1h0L69.3,199.5z"/>
		<path d="M71,195.8c0-0.4,0.4-0.9,0.3-0.7c0-0.1,0-0.2,0-0.5c0-0.4,0-0.8-0.1-0.9l0.5-0.4c0.1,0.2,0.2,0.8,0.2,1.4
			c0,0.3,0,0.6-0.1,0.7c-0.1,0.3-0.3,0.8-0.3,0.5H71z"/>
		<path d="M77.3,199.6c-0.1,0.1-0.2,0.3-0.3,0.4c-0.3,0.4-0.6,0.8-0.9,1.1c-0.2,0.1-0.3,0.1-0.3,0.1c-0.2,0.1-0.3,0.1-0.3-0.1
			c-0.1-0.2-0.1-0.5-0.1-0.7c0-1,0.3-2.4,0.5-3.1c0-0.2,0.1-0.4,0.1-0.5c0,0.1-0.1,0.1-0.1,0.2l-0.1,0.3h0c0,0,0,0-0.1,0
			c-0.2,0.3-0.4,0.6-0.5,0.8c-0.3,0.6-0.6,1.2-1,1.7c-0.2,0.3-0.5,0.6-0.6,0.8c-0.3,0.4-0.4,0.6-0.6,0.5c-0.3-0.1-0.5-1.4-0.5-1.6
			c0-0.5,0-0.9,0.1-1.4c0.1-0.8,0.6-2.4,1.4-2.8c0.1,0,0.2-0.1,0.3-0.1c0.4,0,1,0.4,1.4,0.7c0.1-0.2,0.2-0.4,0.2-0.6h0
			c0.8,0,0.9-0.1,0.9,0c0,0,0,0.2,0,0.3h0c0,0.2-0.1,0.4-0.1,0.5c-0.1,0.4-0.1,0.8-0.2,1.2c-0.1,0.7-0.4,1.8-0.4,2.7
			c0.1-0.1,0.3-0.3,0.6-0.7c0,0,0.3-0.5,0.3-0.5h0l0.2,0.4h0.2C77.4,199.4,77.3,199.6,77.3,199.6z M75.1,196.8
			c-0.3-0.3-0.7-0.6-0.9-0.6c0,0,0-0.2,0-0.3c-0.6,0.3-0.9,1.8-1,2.4c-0.1,0.4-0.1,0.8-0.1,1.3h0c0,0.1,0.1,0.3,0.1,0.4
			c0.2-0.3,0.4-0.6,0.5-0.7c0.4-0.6,0.6-1.1,0.9-1.7C74.8,197.4,75,197.1,75.1,196.8z M73.2,200.4L73.2,200.4L73.2,200.4L73.2,200.4
			z"/>
		<path d="M81.7,196.1c0,0.1,0.1,0.2,0.1,0.3c0,0.3-0.1,0.5-0.1,0.6h-0.6c0-0.3,0.1-0.5,0.1-0.6c-0.1-0.1-0.1-0.1-0.3-0.3
			c-0.1-0.1-0.3-0.1-0.4-0.1c-0.4,0-0.8,0.3-1,0.7c-0.3,0.6-0.4,1.1-0.4,1.7c0,0.1,0,0.2,0,0.3c0,0.2,0.1,0.5,0.2,0.8l0,0.5
			c0.1-0.1,0.2-0.1,0.4,0c0.1,0,0.2,0.1,0.3,0.1c0.2,0,0.5-0.1,0.7-0.3h0c0.3-0.3,0.5-0.4,0.6-0.5h0l0.4,0.5
			c-0.2,0.3-0.4,0.5-0.6,0.6c-0.4,0.4-0.7,0.5-1.1,0.5c-0.3,0-0.5-0.1-0.7-0.2c-0.3-0.2-0.4-0.3-0.5-0.4c-0.1-0.2-0.1-0.5-0.1-0.6
			c-0.1-0.3-0.2-0.6-0.2-0.9c0-0.2,0-0.3,0-0.5c0-0.8,0.2-1.6,0.5-2.2c0.4-0.7,1-1.2,1.5-1.2c0.3,0,0.5,0.1,0.8,0.3
			C81.4,195.6,81.6,195.9,81.7,196.1L81.7,196.1z"/>
		<path d="M86.2,196.4c0,0.3-0.1,0.5-0.1,0.6h-0.6c0-0.3,0.1-0.5,0.1-0.6c-0.1-0.1-0.1-0.1-0.3-0.3c-0.1-0.1-0.3-0.1-0.4-0.1
			c-0.4,0-0.8,0.3-1,0.7c-0.3,0.6-0.4,1.1-0.4,1.7c0,0.1,0,0.2,0,0.3c0,0.2,0.1,0.5,0.2,0.8l0,0.5c0.1-0.1,0.2-0.1,0.4,0
			c0.1,0,0.2,0.1,0.3,0.1c0.2,0,0.5-0.1,0.7-0.3c0.3-0.3,0.5-0.4,0.6-0.5h0l0.4,0.5c-0.2,0.3-0.4,0.5-0.6,0.6
			c-0.4,0.4-0.7,0.5-1.1,0.5c-0.3,0-0.5-0.1-0.7-0.2c-0.3-0.2-0.4-0.3-0.5-0.4c-0.1-0.2-0.1-0.5-0.1-0.6c-0.1-0.3-0.2-0.6-0.2-0.9
			c0-0.2,0-0.3,0-0.5c0-0.8,0.2-1.6,0.5-2.2c0.4-0.7,1-1.2,1.5-1.2c0.3,0,0.5,0.1,0.8,0.3c0.2,0.2,0.4,0.4,0.6,0.7
			C86.2,196.2,86.2,196.3,86.2,196.4z"/>
		<path d="M92.9,198.5c-0.2,1-0.8,1.8-1.7,2.4c-0.5,0.3-0.9,0.5-1,0.3h0c-0.3-0.2-0.1-1.2-0.1-1.3c0-0.2,0.1-0.4,0.1-0.6
			c-0.4,0.6-0.9,1-1.4,1.3l-1.3,0.5c-0.2,0-0.2,0-0.5-0.2h0v-0.3c0,0,0,0,0-0.1c0.1-0.5,0.3-0.8,0.3-1.1c0.3-1.2,0.8-1.9,1.2-3
			c0,0,0-0.1,0-0.1c-0.6,0.6-1,0.9-1,0.7l-0.4,0.1h0c0-0.5,0.1-0.4,1.2-1.4l0,0c0.4-0.4,0.7-0.6,0.9-0.7h0l0.4,0.4
			c0,0.1-1.6,4-1.7,4.1c0,0.2-0.1,0.4-0.1,0.5c0.4-0.1,0.8-0.3,0.8-0.3c0.8-0.5,1.5-1.4,2.4-2.8c0.1-0.1,0.1-0.2,0.2-0.3
			c0.2-0.3,0.3-0.6,0.4-0.8c0,0,0,0,0-0.1h0v0c0-0.3,0-0.6,0.4-0.6c0.2,0,0.3,0.3,0.3,0.6c0,0.2-0.2,0.5-0.4,1
			c-0.1,0.2-0.2,0.3-0.2,0.4c0,0.1-0.1,0.1-0.1,0.2c-0.4,0.8-0.6,1.6-0.8,2.4c0,0.1,0.1,0.2,0.1,0.4c0,0,0.1,0,0.1-0.1h0
			c0.8-0.6,1.3-1.1,1.4-1.8h0L92.9,198.5L92.9,198.5z"/>
		<path d="M94.7,198.9c0,0-0.1,0.1-0.2,0.1c0,0.3,0,0.4,0.1,0.6c0,0.1,0.3,0.4,0.6,0.6l0.1,0.1c0.1,0,0.3,0.1,0.6,0.1
			c0.1,0,0.2,0,0.2,0l0.7-0.8l0.5,0.6l-0.8,0.9h0c-0.1,0.1-0.3,0.2-0.5,0.2c-0.4,0-0.7-0.1-0.9-0.2c-0.3-0.2-0.6-0.6-0.8-0.9l0,0
			c-0.1-0.2-0.2-0.5-0.2-0.9c-0.2,0.1-0.3,0.1-0.4,0.1h0v-0.9h0c0,0,0.2-0.1,0.4-0.1c0.1-1.2,0.6-2.5,1.1-2.9
			c0.1-0.1,0.2-0.1,0.5-0.2c0.1,0,0.2,0,0.3,0c0.5,0,1,0.6,1.3,1c0.2,0.2,0.3,0.4,0.2,0.6c-0.1,0.2-0.2,0.3-0.3,0.4
			C96.4,197.9,95.7,198.4,94.7,198.9z M94.6,198c0.7-0.3,1.3-0.6,2-1.5c0,0,0,0,0,0c-0.2-0.2-0.5-0.5-0.8-0.5c-0.1,0-0.2,0-0.3,0
			c-0.2,0-0.2-0.1-0.2-0.2C95,196.2,94.7,197.2,94.6,198z"/>
		<path d="M99.9,196.1C100,196.2,100,196.1,99.9,196.1c-0.1,0.2-0.1,0.4-0.2,0.6c-0.3,1.2-0.4,1.5-0.6,2.6c-0.1,0.2-0.1,0.4-0.2,0.6
			c0.3-0.1,0.5-0.2,0.7-0.3l0.3,0.8c-0.4,0.3-0.8,0.4-1,0.5c0,0-0.6,0.5-0.6-0.5c0-0.5,0.2-1,0.2-1.3c0.3-1.3,0.3-1.6,0.7-2.7
			c0,0,0-0.1,0-0.1c-0.3,0.1-0.4,0.1-0.6,0.1v-0.9c0.3,0,0.4,0,0.9-0.2c0.4-0.1,0.4-0.2,0.5-0.1C100.1,195.5,100.1,195.6,99.9,196.1
			z M100.7,193.1v1.1h0c-0.3,0-0.4,0.1-0.7,0.3h0l-0.3-1h0C99.9,193.4,100.2,193.1,100.7,193.1L100.7,193.1z"/>
		<path d="M103.3,200L103.3,200c-0.3,0.1-0.9,1.1-1.8,1.1c-0.1,0-0.2,0-0.3,0c-0.2,0-0.3-0.2-0.3-0.7c0-0.1,0-0.2,0-0.3
			c0.1-0.7,0.2-1.3,0.3-1.8c0.2-1.4,0.4-2.1,0.8-3.3c0.1-0.2,0.1-0.4,0.2-0.6c-0.3,0.2-0.5,0.2-0.6,0.2h0v-0.9h0
			c0.1,0,0.3-0.1,0.6-0.2c0.1-0.1,0.2-0.2,0.3-0.2c0.4-0.2,0.5-0.3,0.6-0.4c0,0-0.1,0.2-0.1,0.7c0,0.4-0.3,1.4-0.3,1.6
			c-0.4,1.3-0.6,2-0.8,3.2c-0.1,0.6-0.2,1.2-0.3,1.8l0,0c0.8,0,0.7-0.7,1.5-1h0L103.3,200z"/>
	</g>
	<circle class="st1" cx="11.7" cy="32.2" r="5.6"/>
	<g>
		<path d="M358.7,191.9c0,0.9-0.7,1.8-1.4,2c-0.5,0.1-1.5,0.1-2,0.1l-0.1-0.8c0.5,0,1.5,0,1.9-0.1c0.4-0.1,0.9-0.8,0.9-1.3
			c0-0.5-0.1-0.8-0.2-1c-0.3-0.5-0.9-0.7-2-0.7c-0.2,0-0.3,0.1-0.5,0.1c-0.3,0-0.6,0-0.8,0.1c0,0.1,0,0.2,0,0.3
			c0.1,1,0.1,1.9,0.1,2.9c0,0.2,0,0.5,0,0.8c0,0.3,0,0.6,0,0.8c0,0.6,0,0.9,0.1,1.3l-0.8,0.1c-0.1-0.5-0.1-1-0.1-1.4
			c0-0.3,0-0.6,0-0.8c0-0.3,0-0.5,0-0.8c-0.1-1-0.1-1.9-0.1-2.9l0-1.2l1.5-0.1c0.2,0,0.4-0.1,0.5-0.1c1.4,0,2.1,0.3,2.6,1
			C358.6,190.6,358.7,191.3,358.7,191.9z"/>
		<path d="M364.3,195.2c-0.1,0.1-0.2,0.3-0.3,0.4c-0.3,0.4-0.6,0.8-0.9,1.1c-0.2,0.1-0.3,0.1-0.3,0.1c-0.2,0.1-0.3,0.1-0.3-0.1
			c-0.1-0.2-0.1-0.5-0.1-0.7c0-1,0.3-2.4,0.5-3.1c0-0.2,0.1-0.4,0.1-0.5c0,0.1-0.1,0.1-0.1,0.2l-0.1,0.3h0c0,0,0,0-0.1,0
			c-0.2,0.3-0.4,0.6-0.5,0.8c-0.3,0.6-0.6,1.2-1,1.7c-0.2,0.3-0.5,0.6-0.6,0.8c-0.3,0.4-0.4,0.6-0.6,0.5c-0.3-0.1-0.5-1.4-0.5-1.6
			c0-0.5,0-0.9,0.1-1.4c0.1-0.8,0.6-2.4,1.4-2.8c0.1,0,0.2-0.1,0.3-0.1c0.4,0,1,0.4,1.4,0.7c0.1-0.2,0.2-0.4,0.2-0.6h0
			c0.8,0,0.9-0.1,0.9,0c0,0,0,0.2,0,0.3h0c0,0.2-0.1,0.4-0.1,0.5c-0.1,0.4-0.1,0.8-0.2,1.2c-0.1,0.7-0.4,1.8-0.4,2.7
			c0.1-0.1,0.3-0.3,0.6-0.7c0,0,0.3-0.5,0.3-0.5h0l0.2,0.4h0.2C364.3,195,364.3,195.2,364.3,195.2z M362.1,192.4
			c-0.3-0.3-0.7-0.6-0.9-0.6c0,0,0-0.2,0-0.3c-0.6,0.3-0.9,1.8-1,2.4c-0.1,0.4-0.1,0.8-0.1,1.3h0c0,0.1,0.1,0.3,0.1,0.4
			c0.2-0.3,0.4-0.6,0.5-0.7c0.4-0.6,0.6-1.1,0.9-1.7C361.8,193,361.9,192.7,362.1,192.4z M360.2,196L360.2,196L360.2,196L360.2,196z
			"/>
		<path d="M370.3,192.5c0,0.1,0,0.3,0,0.4c-0.1,1.3-0.4,3-0.9,4c-0.4,0.7-0.8,1.8-2.7,2c-0.3,0-0.7,0.1-1.1,0.1c-0.1,0-0.2,0-0.3,0
			c-0.8-0.1-1.4-0.7-1.4-1.5h0.6c0,0.3,0.4,0.6,0.8,0.6c0,0,0.1,0,0.2,0c0.3,0,0.7-0.1,1-0.1c1.5-0.2,1.8-0.8,2.2-1.5
			c0.5-1,0.7-2.5,0.8-3.7c0-0.1,0-0.2,0-0.3c0-0.1,0-0.3,0-0.4c-0.1,0.2-0.2,0.4-0.3,0.6c-0.5,0.7-1,1.4-1.6,2c-0.3,0.4-0.7,0.6-1,1
			c0,0.1-0.7,0.9-1,0.9c-0.1,0-0.1,0-0.2-0.1c-0.1-0.1-0.2-0.4-0.2-0.8c0-0.4,0.1-0.9,0.1-1.1c0.2-1.1,0.5-3,1.6-3.7
			c0.1,0,0.1,0,0.2,0c0.3,0,1,0.3,1.1,0.4c0.2,0.1,0.5,0.2,0.7,0.4c0-0.1,0-0.2,0-0.4v0c0,0,0-0.1,0-0.1c0-0.6,1-0.7,1-0.1
			C370.2,191.4,370.3,191.9,370.3,192.5z M368.8,192.1c0.1-0.2,0.2-0.3,0.2-0.3l-0.4,0.5c0.1,0.1-0.1,0.1-0.5-0.2
			c-0.1,0-0.6-0.3-0.9-0.3h0c0,0,0,0,0,0c-0.7,0.4-0.9,1.2-1.2,3c0,0.2-0.1,0.5-0.1,0.8c0.1-0.1,0.2-0.2,0.3-0.3
			c0.4-0.6,0.8-0.8,1-1.1C368,193.4,368.4,192.7,368.8,192.1z"/>
		<path d="M372.1,194.5c0,0-0.1,0.1-0.2,0.1c0,0.3,0,0.4,0.1,0.6c0,0.1,0.3,0.4,0.6,0.6l0.1,0.1c0.1,0,0.3,0.1,0.6,0.1
			c0.1,0,0.2,0,0.2,0l0.7-0.8l0.5,0.6l-0.8,0.9h0c-0.1,0.1-0.3,0.2-0.5,0.2c-0.4,0-0.7-0.1-0.9-0.2c-0.3-0.2-0.6-0.6-0.8-0.9l0,0
			c-0.1-0.2-0.2-0.5-0.2-0.9c-0.2,0.1-0.3,0.1-0.4,0.1h0V194h0c0,0,0.2-0.1,0.4-0.1c0.1-1.2,0.6-2.5,1.1-2.9
			c0.1-0.1,0.2-0.1,0.5-0.2c0.1,0,0.2,0,0.3,0c0.5,0,1,0.6,1.3,1c0.2,0.2,0.3,0.4,0.2,0.6c-0.1,0.2-0.2,0.3-0.3,0.4
			C373.7,193.5,373,194,372.1,194.5z M371.9,193.6c0.7-0.3,1.3-0.6,2-1.5c0,0,0,0,0,0c-0.2-0.2-0.5-0.5-0.8-0.5c-0.1,0-0.2,0-0.3,0
			c-0.2,0-0.2-0.1-0.2-0.2C372.3,191.8,372.1,192.7,371.9,193.6z"/>
		<path d="M382.7,191.5c0,0.8-0.2,1.6-0.4,2.3c-0.3,0.9-1,2.3-1.4,2.5c-0.3,0.2-0.7,0.3-1.2,0.3c-0.1,0.8-0.3,1.6-0.3,2.5h-0.6
			c0-0.9,0.1-1.7,0.3-2.5c-0.1,0-0.2,0-0.2,0c-0.1,0-0.2,0-0.3,0h0v-0.9h0c0.1,0,0.2,0,0.3,0c0.1,0,0.3,0,0.4,0c0-0.1,0-0.3,0.1-0.5
			c0.1-0.8,0.2-1.6,0.5-2.3c0-0.1,0.1-0.2,0.1-0.3l-0.4,0.2c-0.2,0.2-0.6,0.7-1,0.7h0v-0.9h0c0.2,0,0.4-0.3,0.6-0.4
			c0.4-0.3,0.7-0.5,1.1-0.7c0.1-0.3,0.2-0.6,0.4-0.9c0.4-0.9,0.5-1,0.5-1.1h0l0.5,0.2h0c-0.1,0.4-0.5,1.2-0.6,1.2c0,0,0,0.1,0,0.1
			l0,0c0.3-0.1,0.7-0.4,1.1-0.4c0.1,0,0.1,0,0.2,0C382.7,190.8,382.7,190.9,382.7,191.5z M381.8,193.5c0.2-0.7,0.3-1.3,0.3-1.9
			l-1.5,0.7c-0.1,0.3-0.2,0.6-0.3,1c-0.2,0.7-0.3,1.4-0.4,2.2c0,0.1,0,0.2,0,0.3c0.4,0,0.6-0.1,0.7-0.2
			C381,195.3,381.7,194,381.8,193.5z"/>
		<path d="M388.4,193.3c0,0.9-0.1,1.4-0.5,2c-0.2,0.2-0.4,1-0.7,1.2c-0.2,0.2-0.3,0.3-0.6,0.3c-0.4,0-0.8-0.4-1-0.9h0l0.5-0.4h0
			c0.1,0.2,0.4,0.4,0.5,0.4c0.1,0,0.1,0,0.1-0.1c0.2-0.3,0.4-0.7,0.6-1.1c0.3-0.6,0.4-0.9,0.4-1.5c0-0.6-0.2-1.1-0.5-1.4
			c-0.1-0.1-0.2-0.3-0.6-0.3c-0.1,0-1.2,1.7-1.8,2.7c-0.2,0.3-0.3,0.5-0.4,0.7c0,0-0.1,0.1-0.1,0.2c0,0.1,0,0.3-0.1,0.4
			c0,0.3-0.1,0.4-0.1,0.6c-0.2,1.2-0.6,1.4-1,0.5c-0.2-0.4,0-0.8,0.6-1.8c0.1-0.4,0.2-0.8,0.2-1.3c0.2-1.2,0.3-1.5,0.6-2.6
			c0.1-0.4,0.1-0.8,0.2-1.2c-0.1,0-0.2,0-0.3,0c-0.3,0-0.6,0-0.8,0h0v-0.9h0c0.3,0,0.6,0,0.8,0c0.2,0,0.3,0,0.5,0
			c0.3,0,0.5,0.5,0.4,1c-0.1,0.5-0.2,0.9-0.3,1.3c-0.2,1-0.3,1.4-0.5,2.1c1-1.7,1.7-2.5,2-2.5c0.6,0.1,0.9,0.5,1,0.6
			C388.2,191.7,388.4,192.5,388.4,193.3z"/>
		<path d="M392.9,191.4c0,0.2,0,0.3-0.1,0.5c0,0.5-0.1,1-0.2,1.5c0,0.4-0.1,1.1-0.3,1.6c0.6-0.8-0.3,1.1-1,1.7
			c-0.2,0.2-0.2,0.1-0.5,0.1c-0.3,0-0.7,0-0.7,0c-0.2-0.1-0.6-0.2-0.8-0.4c-0.3-0.2-0.4-0.4-0.4-0.9c0-0.6,0.2-1.2,0.3-1.4
			c0.3-0.9,0.4-1.9,1.2-2.7h0c-0.2-0.1-0.2-0.1,0.2-0.3c0.5-0.2,1-0.2,1.7-0.2h0l0,0.2l0.2-0.2h0
			C392.9,190.9,392.9,191.1,392.9,191.4z M391.1,195.9c0.2-0.4,0.5-0.6,0.6-0.7c0.2-0.3,0.3-0.7,0.4-1.9c0-0.5,0.1-1,0.1-1.4
			c0,0,0,0,0-0.1c-0.6,0-1.1,0.1-1.4,0.2l0,0h0c-0.6,0.6-0.7,1.4-1,2.3c-0.1,0.3-0.2,0.8-0.3,1.2c0,0.2,0,0.3,0.1,0.3
			c0,0,0.2,0,0.6,0C390.3,195.9,390.8,195.9,391.1,195.9C391.1,195.9,391.1,195.9,391.1,195.9L391.1,195.9z"/>
		<path d="M396.9,191.6v0.7h0c-0.5,0-1.1,0-1.7,0c-0.1,0.2-0.2,0.4-0.2,0.5c-0.4,0.8-0.7,2.3-0.7,3v0c0.4-0.1,0.9-0.6,0.9-0.5h0.6
			c0,0.4-1.1,1.4-1.6,1.4c-0.2,0-0.4-0.2-0.4-0.5c0-0.1,0-0.3,0-0.4c0-1,0.4-2.7,0.7-3.4c0,0,0-0.1,0-0.1c-0.2,0-0.3,0-0.5,0h0v-0.7
			h0c0.2,0,0.5,0,0.8,0c0.3-0.7,0.6-1.5,0.6-1.6h0.6c0,0.2-0.3,0.9-0.5,1.6C396,191.6,396.5,191.6,396.9,191.6L396.9,191.6z"/>
		<path d="M401.1,191.4c0,0.2,0,0.3-0.1,0.5c0,0.5-0.1,1-0.2,1.5c0,0.4-0.1,1.1-0.3,1.6c0.6-0.8-0.3,1.1-1,1.7
			c-0.2,0.2-0.2,0.1-0.5,0.1c-0.3,0-0.7,0-0.7,0c-0.2-0.1-0.6-0.2-0.8-0.4c-0.3-0.2-0.4-0.4-0.4-0.9c0-0.6,0.2-1.2,0.3-1.4
			c0.3-0.9,0.4-1.9,1.2-2.7h0c-0.2-0.1-0.2-0.1,0.2-0.3c0.5-0.2,1-0.2,1.7-0.2h0l0,0.2l0.2-0.2h0C401,190.9,401.1,191.1,401.1,191.4
			z M399.3,195.9c0.2-0.4,0.5-0.6,0.6-0.7c0.2-0.3,0.3-0.7,0.4-1.9c0-0.5,0.1-1,0.1-1.4c0,0,0,0,0-0.1c-0.6,0-1.1,0.1-1.4,0.2l0,0h0
			c-0.6,0.6-0.7,1.4-1,2.3c-0.1,0.3-0.2,0.8-0.3,1.2c0,0.2,0,0.3,0.1,0.3c0,0,0.2,0,0.6,0C398.5,195.9,398.9,195.9,399.3,195.9
			C399.2,195.9,399.3,195.9,399.3,195.9L399.3,195.9z"/>
	</g>
	<g>
		<g>
			<rect x="6.2" y="64.2" class="st0" width="38.8" height="28.5"/>
			<line class="st0" x1="6.2" y1="64.2" x2="45" y2="92.6"/>
			<line class="st0" x1="45" y1="64.2" x2="6.2" y2="92.6"/>
		</g>
		<g>
			<rect x="50.9" y="64.2" class="st0" width="38.8" height="28.5"/>
			<line class="st0" x1="50.9" y1="64.2" x2="89.7" y2="92.6"/>
			<line class="st0" x1="89.7" y1="64.2" x2="50.9" y2="92.6"/>
		</g>
		<g>
			<rect x="95.5" y="64.2" class="st0" width="38.8" height="28.5"/>
			<line class="st0" x1="95.5" y1="64.2" x2="134.3" y2="92.6"/>
			<line class="st0" x1="134.3" y1="64.2" x2="95.5" y2="92.6"/>
		</g>
		<g>
			<rect x="6.2" y="97.9" class="st0" width="38.8" height="28.5"/>
			<line class="st0" x1="6.2" y1="97.9" x2="45" y2="126.4"/>
			<line class="st0" x1="45" y1="97.9" x2="6.2" y2="126.4"/>
		</g>
		<g>
			<rect x="50.9" y="97.9" class="st0" width="38.8" height="28.5"/>
			<line class="st0" x1="50.9" y1="97.9" x2="89.7" y2="126.4"/>
			<line class="st0" x1="89.7" y1="97.9" x2="50.9" y2="126.4"/>
		</g>
		<g>
			<rect x="95.5" y="97.9" class="st0" width="38.8" height="28.5"/>
			<line class="st0" x1="95.5" y1="97.9" x2="134.3" y2="126.4"/>
			<line class="st0" x1="134.3" y1="97.9" x2="95.5" y2="126.4"/>
		</g>
		<g>
			<rect x="6.2" y="130.9" class="st0" width="38.8" height="28.5"/>
			<line class="st0" x1="6.2" y1="130.9" x2="45" y2="159.4"/>
			<line class="st0" x1="45" y1="130.9" x2="6.2" y2="159.4"/>
		</g>
		<g>
			<rect x="50.9" y="130.9" class="st0" width="38.8" height="28.5"/>
			<line class="st0" x1="50.9" y1="130.9" x2="89.7" y2="159.4"/>
			<line class="st0" x1="89.7" y1="130.9" x2="50.9" y2="159.4"/>
		</g>
		<g>
			<rect x="95.5" y="130.9" class="st0" width="38.8" height="28.5"/>
			<line class="st0" x1="95.5" y1="130.9" x2="134.3" y2="159.4"/>
			<line class="st0" x1="134.3" y1="130.9" x2="95.5" y2="159.4"/>
		</g>
	</g>
	<rect x="306.1" y="4" class="st0" width="139.5" height="173"/>
	<g>
		<line class="st0" x1="306.1" y1="21.8" x2="445.6" y2="21.8"/>
		<rect x="339.6" y="7.9" class="st0" width="102.2" height="9.8"/>
		<circle cx="313.9" cy="12.8" r="2.1"/>
		<circle cx="320.8" cy="12.8" r="2.1"/>
		<circle cx="327.6" cy="12.8" r="2.1"/>
	</g>
	<circle cx="317.3" cy="32.2" r="5.6"/>
	<g>
		<rect x="311.7" y="45.8" class="st0" width="130.1" height="88.6"/>
		<line class="st0" x1="311.7" y1="45.8" x2="441.8" y2="134.4"/>
		<line class="st0" x1="441.8" y1="45.8" x2="311.7" y2="134.4"/>
	</g>
	<polyline class="st0" points="326.8,96.4 320.4,90.1 326.8,83.8 	"/>
	<polyline class="st0" points="426.3,83.8 432.7,90.1 426.3,96.4 	"/>
	<line class="st0" x1="311.7" y1="141.1" x2="362" y2="141.1"/>
	<line class="st0" x1="426.3" y1="141.1" x2="440.9" y2="141.1"/>
	<line class="st0" x1="311.7" y1="151.1" x2="414.5" y2="151.1"/>
	<line class="st0" x1="311.7" y1="155.6" x2="414.5" y2="155.6"/>
	<line class="st0" x1="311.7" y1="160.1" x2="414.5" y2="160.1"/>
	<line class="st0" x1="311.7" y1="164.6" x2="414.5" y2="164.6"/>
	<line class="st0" x1="311.7" y1="169.1" x2="414.5" y2="169.1"/>
	<g>
		<path d="M205.5,191.9c0,0.9-0.7,1.8-1.4,2c-0.5,0.1-1.5,0.1-2,0.1l-0.1-0.8c0.5,0,1.5,0,1.9-0.1c0.4-0.1,0.9-0.8,0.9-1.3
			c0-0.5-0.1-0.8-0.2-1c-0.3-0.5-0.9-0.7-2-0.7c-0.2,0-0.3,0.1-0.5,0.1c-0.3,0-0.6,0-0.8,0.1c0,0.1,0,0.2,0,0.3
			c0.1,1,0.1,1.9,0.1,2.9c0,0.2,0,0.5,0,0.8c0,0.3,0,0.6,0,0.8c0,0.6,0,0.9,0.1,1.3l-0.8,0.1c-0.1-0.5-0.1-1-0.1-1.4
			c0-0.3,0-0.6,0-0.8c0-0.3,0-0.5,0-0.8c-0.1-1-0.1-1.9-0.1-2.9l0-1.2l1.5-0.1c0.2,0,0.4-0.1,0.5-0.1c1.4,0,2.1,0.3,2.6,1
			C205.3,190.6,205.5,191.3,205.5,191.9z"/>
		<path d="M211,195.2c-0.1,0.1-0.2,0.3-0.3,0.4c-0.3,0.4-0.6,0.8-0.9,1.1c-0.2,0.1-0.3,0.1-0.3,0.1c-0.2,0.1-0.3,0.1-0.3-0.1
			c-0.1-0.2-0.1-0.5-0.1-0.7c0-1,0.3-2.4,0.5-3.1c0-0.2,0.1-0.4,0.1-0.5c0,0.1-0.1,0.1-0.1,0.2l-0.1,0.3h0c0,0,0,0-0.1,0
			c-0.2,0.3-0.4,0.6-0.5,0.8c-0.3,0.6-0.6,1.2-1,1.7c-0.2,0.3-0.5,0.6-0.6,0.8c-0.3,0.4-0.4,0.6-0.6,0.5c-0.3-0.1-0.5-1.4-0.5-1.6
			c0-0.5,0-0.9,0.1-1.4c0.1-0.8,0.6-2.4,1.4-2.8c0.1,0,0.2-0.1,0.3-0.1c0.4,0,1,0.4,1.4,0.7c0.1-0.2,0.2-0.4,0.2-0.6h0
			c0.8,0,0.9-0.1,0.9,0c0,0,0,0.2,0,0.3c0,0.2-0.1,0.4-0.1,0.5c-0.1,0.4-0.1,0.8-0.2,1.2c-0.1,0.7-0.4,1.8-0.4,2.7
			c0.1-0.1,0.3-0.3,0.6-0.7c0,0,0.3-0.5,0.3-0.5h0l0.2,0.4h0.2C211.1,195,211,195.2,211,195.2z M208.9,192.4
			c-0.3-0.3-0.7-0.6-0.9-0.6c0,0,0-0.2,0-0.3c-0.6,0.3-0.9,1.8-1,2.4c-0.1,0.4-0.1,0.8-0.1,1.3h0c0,0.1,0.1,0.3,0.1,0.4
			c0.2-0.3,0.4-0.6,0.5-0.7c0.4-0.6,0.6-1.1,0.9-1.7C208.5,193,208.7,192.7,208.9,192.4z M206.9,196L206.9,196L206.9,196L206.9,196z
			"/>
		<path d="M217,192.5c0,0.1,0,0.3,0,0.4c-0.1,1.3-0.4,3-0.9,4c-0.4,0.7-0.8,1.8-2.7,2c-0.3,0-0.7,0.1-1.1,0.1c-0.1,0-0.2,0-0.3,0
			c-0.8-0.1-1.4-0.7-1.4-1.5h0.6c0,0.3,0.4,0.6,0.8,0.6c0,0,0.1,0,0.2,0c0.3,0,0.7-0.1,1-0.1c1.5-0.2,1.8-0.8,2.2-1.5
			c0.5-1,0.7-2.5,0.8-3.7c0-0.1,0-0.2,0-0.3c0-0.1,0-0.3,0-0.4c-0.1,0.2-0.2,0.4-0.3,0.6c-0.5,0.7-1,1.4-1.6,2c-0.3,0.4-0.7,0.6-1,1
			c0,0.1-0.7,0.9-1,0.9c-0.1,0-0.1,0-0.2-0.1c-0.1-0.1-0.2-0.4-0.2-0.8c0-0.4,0.1-0.9,0.1-1.1c0.2-1.1,0.5-3,1.6-3.7
			c0.1,0,0.1,0,0.2,0c0.3,0,1,0.3,1.1,0.4c0.2,0.1,0.5,0.2,0.7,0.4c0-0.1,0-0.2,0-0.4v0c0,0,0-0.1,0-0.1c0-0.6,1-0.7,1-0.1
			C216.9,191.4,217,191.9,217,192.5z M215.6,192.1c0.1-0.2,0.2-0.3,0.2-0.3l-0.4,0.5c0.1,0.1-0.1,0.1-0.5-0.2
			c-0.1,0-0.6-0.3-0.9-0.3h0c0,0,0,0,0,0c-0.7,0.4-0.9,1.2-1.2,3c0,0.2-0.1,0.5-0.1,0.8c0.1-0.1,0.2-0.2,0.3-0.3
			c0.4-0.6,0.8-0.8,1-1.1C214.7,193.4,215.2,192.7,215.6,192.1z"/>
		<path d="M218.8,194.5c0,0-0.1,0.1-0.2,0.1c0,0.3,0,0.4,0.1,0.6c0,0.1,0.3,0.4,0.6,0.6l0.1,0.1c0.1,0,0.3,0.1,0.6,0.1
			c0.1,0,0.2,0,0.2,0l0.7-0.8l0.5,0.6l-0.8,0.9h0c-0.1,0.1-0.3,0.2-0.5,0.2c-0.4,0-0.7-0.1-0.9-0.2c-0.3-0.2-0.6-0.6-0.8-0.9l0,0
			c-0.1-0.2-0.2-0.5-0.2-0.9c-0.2,0.1-0.3,0.1-0.4,0.1h0V194h0c0,0,0.2-0.1,0.4-0.1c0.1-1.2,0.6-2.5,1.1-2.9
			c0.1-0.1,0.2-0.1,0.5-0.2c0.1,0,0.2,0,0.3,0c0.5,0,1,0.6,1.3,1c0.2,0.2,0.3,0.4,0.2,0.6c-0.1,0.2-0.2,0.3-0.3,0.4
			C220.5,193.5,219.7,194,218.8,194.5z M218.7,193.6c0.7-0.3,1.3-0.6,2-1.5c0,0,0,0,0,0c-0.2-0.2-0.5-0.5-0.8-0.5
			c-0.1,0-0.2,0-0.3,0c-0.2,0-0.2-0.1-0.2-0.2C219.1,191.8,218.8,192.7,218.7,193.6z"/>
		<path d="M230.3,192.9c0,0.4-0.1,0.8-0.4,1.4c-0.4,0.8-0.8,1.3-1.2,1.6h0l0,0h0c-0.2,0.2-1.2,0.8-1.6,0.8c-0.2,0-0.4-0.2-0.4-0.5
			c0-0.2,0.1-0.4,0.2-0.4c0.1-0.2,0.2-0.2,0.2-0.3c0.1-0.3,0.2-0.6,0.3-0.9c0.2-0.4,0.2-0.8,0.2-1.2c0-0.4-0.1-0.8-0.3-1.2
			c-0.2-0.3-0.2-0.6-0.7-0.6c-0.2,0-0.3,0-0.3,0h0c-0.2,0-0.3,0.1-0.3,0.1c-0.2,0.2-0.2,0.4-0.2,1.2h-0.6c0-0.6,0-1.5,0.6-2
			c0.1-0.1,0.2-0.1,0.4-0.1c0.2,0,0.3-0.1,0.5-0.1c0.7,0,0.9,0.4,1.2,1c0.2,0.4,0.4,1.1,0.4,1.6c0,0.5-0.1,1.1-0.3,1.5
			c-0.1,0.2-0.1,0.4-0.2,0.5c0.3-0.2,0.5-0.3,0.6-0.4h0c0.5-0.3,0.7-0.7,1-1.3c0.3-0.5,0.3-0.8,0.3-1c0-0.2-0.1-0.4-0.3-0.9h0
			c-0.1-0.2-0.1-0.3-0.2-0.4c0,0.1-0.1,0.2-0.3-0.1l0.4-0.6c-0.1-0.1,0.1-0.1,0.3,0.2c0.1,0.2,0.2,0.4,0.3,0.6h0l0,0h0
			C230.2,192.1,230.3,192.5,230.3,192.9z"/>
		<path d="M232.6,191.7C232.6,191.7,232.6,191.7,232.6,191.7c-0.1,0.2-0.1,0.4-0.2,0.6c-0.3,1.2-0.4,1.5-0.6,2.6
			c0,0.2-0.1,0.4-0.2,0.6c0.3-0.1,0.5-0.2,0.7-0.3l0.3,0.8c-0.4,0.3-0.8,0.4-1,0.5c0,0-0.6,0.5-0.6-0.5c0-0.5,0.2-1,0.2-1.3
			c0.3-1.3,0.3-1.6,0.7-2.7c0,0,0-0.1,0-0.1c-0.3,0.1-0.4,0.1-0.6,0.1v-0.9c0.3,0,0.4,0,0.9-0.2c0.4-0.1,0.4-0.2,0.5-0.1
			C232.8,191,232.7,191.2,232.6,191.7z M233.3,188.7v1.1h0c-0.3,0-0.4,0.1-0.7,0.3h0l-0.3-1h0C232.6,188.9,232.9,188.7,233.3,188.7
			L233.3,188.7z"/>
		<path d="M238.8,195c-0.4,0.4-1.4,1.7-1.5,1.7c-0.3,0-0.5-0.3-0.5-0.9c0-0.4,0.1-0.8,0.1-0.9c0-0.4,0.1-0.7,0.1-1.1
			c-0.2,0.3-0.3,0.6-0.4,0.6c-0.4,0.7-0.7,1.8-1.3,2.3h0h0c-0.2,0-0.4-0.4-0.4-0.5c-0.2-0.4-0.4-0.8-0.7-1.2h0
			c-0.2-0.4-0.3-0.9-0.3-1.4c0-0.5,0.1-1,0.3-1.4c0.2-0.4,0.4-0.6,0.6-0.8h0c0.3-0.4,0.5-0.6,0.7-0.7c0,0,0.1-0.1,0.2-0.1
			c0.4,0,1.4,0.6,1.6,0.6h0v0.9h0c-0.3,0-1.2-0.6-1.6-0.6c-0.2,0.1-0.2,0.2-0.4,0.5c-0.3,0.3-0.4,0.5-0.4,0.6
			c-0.2,0.4-0.2,0.6-0.2,1c0,0.3,0.1,0.6,0.2,0.9c0.1,0.3,0.4,0.8,0.6,1.2c0.4-0.5,0.6-1.1,0.9-1.7c0.3-0.7,0.5-0.9,0.5-0.7h0.4
			c0.2-1,0.3-1.9,0.6-3c0-0.1,0.1-0.4,0.2-0.7h-0.9c0,0-0.2,0.1-0.2-0.2c0.1-0.1-0.5-0.6,0.2-0.7c0.3-0.1,0.7,0,1.1,0h0h0l0.1,0.2h0
			c0.6,0.1,0.4,0.6,0.1,1.6c-0.5,1.5-0.5,2.7-0.8,4.7c0,0.1,0,0.3-0.1,0.4c0.3-0.4,0.8-1,0.9-1.1h0L238.8,195z"/>
		<path d="M242,190.7c0.5,0,1,0.6,1.3,1c0.2,0.2,0.3,0.4,0.2,0.6c-0.1,0.2-0.2,0.3-0.3,0.4c-0.7,0.8-1.4,1.3-2.4,1.8
			c0,0-0.1,0.1-0.2,0.1c0,0.3,0,0.4,0.1,0.6c0,0.1,0.3,0.4,0.6,0.6l0.1,0.1c0.1,0,0.3,0.1,0.6,0.1c0.1,0,0.2,0,0.2,0l0.7-0.8
			l0.5,0.6l-0.8,0.9h0c-0.1,0.1-0.3,0.2-0.5,0.2c-0.4,0-0.7-0.1-0.9-0.2c-0.3-0.2-0.6-0.6-0.8-0.9l0,0c-0.1-0.2-0.2-0.5-0.2-0.9
			c-0.2,0.1-0.3,0.1-0.4,0.1h0V194h0c0,0,0.2-0.1,0.4-0.1c0.1-1.2,0.6-2.5,1.1-2.9c0.1-0.1,0.2-0.1,0.5-0.2
			C241.7,190.8,241.8,190.7,242,190.7L242,190.7z M242.7,192.1C242.7,192.1,242.7,192.1,242.7,192.1c-0.2-0.2-0.5-0.5-0.7-0.5
			c-0.1,0-0.2,0-0.3,0c-0.2,0-0.2-0.1-0.2-0.2c-0.4,0.3-0.7,1.3-0.8,2.2C241.4,193.3,242,193,242.7,192.1z M241.8,190v-0.8
			c0.1,0,1.3-0.9,1.3-1h0.6C243.7,188.9,242.4,190,241.8,190z"/>
		<path d="M248.1,191.4c0,0.2,0,0.3-0.1,0.5c0,0.5-0.1,1-0.2,1.5c0,0.4-0.1,1.1-0.3,1.6c0.6-0.8-0.3,1.1-1,1.7
			c-0.2,0.2-0.2,0.1-0.5,0.1c-0.3,0-0.7,0-0.7,0c-0.2-0.1-0.6-0.2-0.8-0.4c-0.3-0.2-0.4-0.4-0.4-0.9c0-0.6,0.2-1.2,0.3-1.4
			c0.3-0.9,0.4-1.9,1.2-2.7h0c-0.2-0.1-0.2-0.1,0.2-0.3c0.5-0.2,1-0.2,1.7-0.2h0l0,0.2l0.2-0.2h0C248,190.9,248.1,191.1,248.1,191.4
			z M246.2,195.9c0.2-0.4,0.5-0.6,0.6-0.7c0.2-0.3,0.3-0.7,0.4-1.9c0-0.5,0.1-1,0.1-1.4c0,0,0,0,0-0.1c-0.6,0-1.1,0.1-1.4,0.2l0,0h0
			c-0.6,0.6-0.7,1.4-1,2.3c-0.1,0.3-0.2,0.8-0.3,1.2c0,0.2,0,0.3,0.1,0.3c0,0,0.2,0,0.6,0C245.4,195.9,245.9,195.9,246.2,195.9
			C246.2,195.9,246.2,195.9,246.2,195.9L246.2,195.9z"/>
	</g>
	<rect x="152.9" y="4" class="st0" width="139.5" height="173"/>
	<g>
		<line class="st0" x1="152.9" y1="21.8" x2="292.5" y2="21.8"/>
		<rect x="186.4" y="7.9" class="st0" width="102.2" height="9.8"/>
		<circle cx="160.7" cy="12.8" r="2.1"/>
		<circle cx="167.6" cy="12.8" r="2.1"/>
		<circle cx="174.5" cy="12.8" r="2.1"/>
	</g>
	<circle cx="164.2" cy="32.2" r="5.6"/>
	<rect x="158.6" y="45.8" class="st0" width="130.1" height="88.6"/>
	<line class="st0" x1="158.6" y1="141.1" x2="208.8" y2="141.1"/>
	<line class="st0" x1="273.2" y1="141.1" x2="287.8" y2="141.1"/>
	<line class="st0" x1="5.3" y1="171.6" x2="19.9" y2="171.6"/>
	<line class="st0" x1="27.4" y1="171.6" x2="34.2" y2="171.6"/>
	<line class="st0" x1="158.6" y1="151.1" x2="261.3" y2="151.1"/>
	<line class="st0" x1="158.6" y1="155.6" x2="261.3" y2="155.6"/>
	<line class="st0" x1="6.6" y1="46.8" x2="109.3" y2="46.8"/>
	<line class="st0" x1="6.6" y1="51.3" x2="98.5" y2="51.3"/>
	<line class="st0" x1="158.6" y1="160.1" x2="261.3" y2="160.1"/>
	<line class="st0" x1="158.6" y1="164.6" x2="261.3" y2="164.6"/>
	<line class="st0" x1="158.6" y1="169.1" x2="261.3" y2="169.1"/>
	<polygon points="214.9,98.3 214.9,82.7 230.5,90.5 	"/>
	<line class="st0" x1="36.4" y1="171.6" x2="43.2" y2="171.6"/>
	<line class="st0" x1="45.5" y1="171.6" x2="52.2" y2="171.6"/>
	<rect x="0.5" y="219.1" class="st0" width="139.5" height="176.8"/>
	<g>
		<line class="st0" x1="0.5" y1="236.9" x2="140" y2="236.9"/>
		<rect x="34" y="223" class="st0" width="102.2" height="9.8"/>
		<circle cx="8.3" cy="227.9" r="2.1"/>
		<circle cx="15.2" cy="227.9" r="2.1"/>
		<circle cx="22.1" cy="227.9" r="2.1"/>
	</g>
	<g>
		<path d="M48.7,411.4c0,0.9-0.7,1.8-1.4,2c-0.5,0.1-1.5,0.1-2,0.1l-0.1-0.8c0.5,0,1.5,0,1.9-0.1c0.4-0.1,0.9-0.8,0.9-1.3
			c0-0.5-0.1-0.8-0.2-1c-0.3-0.5-0.9-0.7-2-0.7c-0.2,0-0.3,0.1-0.5,0.1c-0.3,0-0.6,0-0.8,0.1c0,0.1,0,0.2,0,0.3
			c0.1,1,0.1,1.9,0.1,2.9c0,0.2,0,0.5,0,0.8c0,0.3,0,0.6,0,0.8c0,0.6,0,0.9,0.1,1.3l-0.8,0.1c-0.1-0.5-0.1-1-0.1-1.4
			c0-0.3,0-0.6,0-0.8c0-0.3,0-0.5,0-0.8c-0.1-1-0.1-1.9-0.1-2.9l0-1.2l1.5-0.1c0.2,0,0.4-0.1,0.5-0.1c1.4,0,2.1,0.3,2.6,1
			C48.5,410.2,48.7,410.8,48.7,411.4z"/>
		<path d="M54.2,414.7c-0.1,0.1-0.2,0.3-0.3,0.4c-0.3,0.4-0.6,0.8-0.9,1.1c-0.2,0.1-0.3,0.1-0.3,0.1c-0.2,0.1-0.3,0.1-0.3-0.1
			c-0.1-0.2-0.1-0.5-0.1-0.7c0-1,0.3-2.4,0.5-3.1c0-0.2,0.1-0.4,0.1-0.5c0,0.1-0.1,0.1-0.1,0.2l-0.1,0.3h0c0,0,0,0-0.1,0
			c-0.2,0.3-0.4,0.6-0.5,0.8c-0.3,0.6-0.6,1.2-1,1.7c-0.2,0.3-0.5,0.6-0.6,0.8c-0.3,0.4-0.4,0.6-0.6,0.5c-0.3-0.1-0.5-1.4-0.5-1.6
			c0-0.5,0-0.9,0.1-1.4c0.1-0.8,0.6-2.4,1.4-2.8c0.1,0,0.2-0.1,0.3-0.1c0.4,0,1,0.4,1.4,0.7c0.1-0.2,0.2-0.4,0.2-0.6h0
			c0.8,0,0.9-0.1,0.9,0c0,0,0,0.2,0,0.3h0c0,0.2-0.1,0.4-0.1,0.5c-0.1,0.4-0.1,0.8-0.2,1.2c-0.1,0.7-0.4,1.8-0.4,2.7
			c0.1-0.1,0.3-0.3,0.6-0.7c0,0,0.3-0.5,0.3-0.5h0l0.2,0.4h0.2C54.3,414.6,54.2,414.7,54.2,414.7z M52.1,411.9
			c-0.3-0.3-0.7-0.6-0.9-0.6c0,0,0-0.2,0-0.3c-0.6,0.3-0.9,1.8-1,2.4c-0.1,0.4-0.1,0.8-0.1,1.3h0c0,0.1,0.1,0.3,0.1,0.4
			c0.2-0.3,0.4-0.6,0.5-0.7c0.4-0.6,0.6-1.1,0.9-1.7C51.7,412.5,51.9,412.2,52.1,411.9z M50.1,415.5L50.1,415.5L50.1,415.5
			L50.1,415.5z"/>
		<path d="M60.2,412c0,0.1,0,0.3,0,0.4c-0.1,1.3-0.4,3-0.9,4c-0.4,0.7-0.8,1.8-2.7,2c-0.3,0-0.7,0.1-1.1,0.1c-0.1,0-0.2,0-0.3,0
			c-0.8-0.1-1.4-0.7-1.4-1.5h0.6c0,0.3,0.4,0.6,0.8,0.6c0,0,0.1,0,0.2,0c0.3,0,0.7-0.1,1-0.1c1.5-0.2,1.8-0.8,2.2-1.5
			c0.5-1,0.7-2.5,0.8-3.7c0-0.1,0-0.2,0-0.3c0-0.1,0-0.3,0-0.4c-0.1,0.2-0.2,0.4-0.3,0.6c-0.5,0.7-1,1.4-1.6,2c-0.3,0.4-0.7,0.6-1,1
			c0,0.1-0.7,0.9-1,0.9c-0.1,0-0.1,0-0.2-0.1c-0.1-0.1-0.2-0.4-0.2-0.8c0-0.4,0.1-0.9,0.1-1.1c0.2-1.1,0.5-3,1.6-3.7
			c0.1,0,0.1,0,0.2,0c0.3,0,1,0.3,1.1,0.4c0.2,0.1,0.5,0.2,0.7,0.4c0-0.1,0-0.2,0-0.4v0c0,0,0-0.1,0-0.1c0-0.6,1-0.7,1-0.1
			C60.1,411,60.2,411.4,60.2,412z M58.8,411.6c0.1-0.2,0.2-0.3,0.2-0.3l-0.4,0.5c0.1,0.1-0.1,0.1-0.5-0.2c-0.1,0-0.6-0.3-0.9-0.3h0
			c0,0,0,0,0,0c-0.7,0.4-0.9,1.2-1.2,3c0,0.2-0.1,0.5-0.1,0.8c0.1-0.1,0.2-0.2,0.3-0.3c0.4-0.6,0.8-0.8,1-1.1
			C57.9,412.9,58.4,412.2,58.8,411.6z"/>
		<path d="M62,414c0,0-0.1,0.1-0.2,0.1c0,0.3,0,0.4,0.1,0.6c0,0.1,0.3,0.4,0.6,0.6l0.1,0.1c0.1,0,0.3,0.1,0.6,0.1c0.1,0,0.2,0,0.2,0
			l0.7-0.8l0.5,0.6l-0.8,0.9h0c-0.1,0.1-0.3,0.2-0.5,0.2c-0.4,0-0.7-0.1-0.9-0.2c-0.3-0.2-0.6-0.6-0.8-0.9l0,0
			c-0.1-0.2-0.2-0.5-0.2-0.9c-0.2,0.1-0.3,0.1-0.4,0.1h0v-0.9h0c0,0,0.2-0.1,0.4-0.1c0.1-1.2,0.6-2.5,1.1-2.9
			c0.1-0.1,0.2-0.1,0.5-0.2c0.1,0,0.2,0,0.3,0c0.5,0,1,0.6,1.3,1c0.2,0.2,0.3,0.4,0.2,0.6c-0.1,0.2-0.2,0.3-0.3,0.4
			C63.7,413,62.9,413.5,62,414z M61.9,413.1c0.7-0.3,1.3-0.6,2-1.5c0,0,0,0,0,0c-0.2-0.2-0.5-0.5-0.8-0.5c-0.1,0-0.2,0-0.3,0
			c-0.2,0-0.2-0.1-0.2-0.2C62.3,411.3,62,412.3,61.9,413.1z"/>
		<path d="M73.6,412c0,0.1,0,0.3,0,0.4c-0.1,1.3-0.4,3-0.9,4c-0.4,0.7-0.8,1.8-2.7,2c-0.3,0-0.7,0.1-1.1,0.1c-0.1,0-0.2,0-0.3,0
			c-0.8-0.1-1.4-0.7-1.4-1.5h0.6c0,0.3,0.4,0.6,0.8,0.6c0.1,0,0.1,0,0.2,0c0.3,0,0.7-0.1,1-0.1c1.5-0.2,1.8-0.8,2.2-1.5
			c0.5-1,0.7-2.5,0.8-3.7c0-0.1,0-0.2,0-0.3c0-0.1,0-0.3,0-0.4c-0.1,0.2-0.2,0.4-0.3,0.6c-0.5,0.7-1,1.4-1.6,2c-0.3,0.4-0.7,0.6-1,1
			c0,0.1-0.7,0.9-1,0.9c-0.1,0-0.1,0-0.2-0.1c-0.1-0.1-0.2-0.4-0.2-0.8c0-0.4,0.1-0.9,0.1-1.1c0.2-1.1,0.5-3,1.6-3.7
			c0.1,0,0.1,0,0.2,0c0.3,0,1,0.3,1.1,0.4c0.2,0.1,0.5,0.2,0.7,0.4c0-0.1,0-0.2,0-0.4v0c0,0,0-0.1,0-0.1c0-0.6,1-0.7,1-0.1
			C73.5,411,73.6,411.4,73.6,412z M72.1,411.6c0.1-0.2,0.2-0.3,0.2-0.3l-0.4,0.5c0.1,0.1-0.1,0.1-0.5-0.2c-0.1,0-0.6-0.3-0.9-0.3h0
			c0,0,0,0,0,0c-0.7,0.4-0.9,1.2-1.2,3c0,0.2-0.1,0.5-0.1,0.8c0.1-0.1,0.2-0.2,0.3-0.3c0.4-0.6,0.8-0.8,1-1.1
			C71.2,412.9,71.7,412.2,72.1,411.6z"/>
		<path d="M79,414.7c-0.1,0.1-0.2,0.3-0.3,0.4c-0.3,0.4-0.6,0.8-0.9,1.1c-0.2,0.1-0.3,0.1-0.3,0.1c-0.2,0.1-0.3,0.1-0.3-0.1
			c-0.1-0.2-0.1-0.5-0.1-0.7c0-1,0.3-2.4,0.5-3.1c0-0.2,0.1-0.4,0.1-0.5c0,0.1-0.1,0.1-0.1,0.2l-0.1,0.3h0c0,0,0,0-0.1,0
			c-0.2,0.3-0.4,0.6-0.5,0.8c-0.3,0.6-0.6,1.2-1,1.7c-0.2,0.3-0.5,0.6-0.6,0.8c-0.3,0.4-0.4,0.6-0.6,0.5c-0.3-0.1-0.5-1.4-0.5-1.6
			c0-0.5,0-0.9,0.1-1.4c0.1-0.8,0.6-2.4,1.4-2.8c0.1,0,0.2-0.1,0.3-0.1c0.4,0,1,0.4,1.4,0.7c0.1-0.2,0.2-0.4,0.2-0.6h0
			c0.8,0,0.9-0.1,0.9,0c0,0,0,0.2,0,0.3h0c0,0.2-0.1,0.4-0.1,0.5c-0.1,0.4-0.1,0.8-0.2,1.2c-0.1,0.7-0.4,1.8-0.4,2.7
			c0.1-0.1,0.3-0.3,0.6-0.7c0,0,0.3-0.5,0.3-0.5h0l0.2,0.4h0.2C79.1,414.6,79.1,414.7,79,414.7z M76.9,411.9
			c-0.3-0.3-0.7-0.6-0.9-0.6c0,0,0-0.2,0-0.3c-0.6,0.3-0.9,1.8-1,2.4c-0.1,0.4-0.1,0.8-0.1,1.3h0c0,0.1,0.1,0.3,0.1,0.4
			c0.2-0.3,0.4-0.6,0.5-0.7c0.4-0.6,0.6-1.1,0.9-1.7C76.5,412.5,76.7,412.2,76.9,411.9z M75,415.5L75,415.5L75,415.5L75,415.5z"/>
		<path d="M82.3,415.1L82.3,415.1c-0.3,0.1-0.9,1.1-1.8,1.1c-0.1,0-0.2,0-0.3,0c-0.2,0-0.3-0.2-0.3-0.7c0-0.1,0-0.2,0-0.3
			c0.1-0.7,0.2-1.3,0.3-1.8c0.2-1.4,0.4-2.1,0.8-3.3c0.1-0.2,0.1-0.4,0.2-0.6c-0.3,0.2-0.5,0.2-0.6,0.2h0v-0.9h0
			c0.1,0,0.3-0.1,0.6-0.2c0.1-0.1,0.2-0.2,0.3-0.2c0.4-0.2,0.5-0.3,0.6-0.4c0,0-0.1,0.2-0.1,0.7c0,0.4-0.3,1.4-0.3,1.6
			c-0.4,1.3-0.6,2-0.8,3.2c-0.1,0.6-0.2,1.2-0.3,1.8v0c0.8,0,0.7-0.7,1.5-1h0L82.3,415.1z"/>
		<path d="M84.3,414c0,0-0.1,0.1-0.2,0.1c0,0.3,0,0.4,0.1,0.6c0,0.1,0.3,0.4,0.6,0.6l0.1,0.1c0.1,0,0.3,0.1,0.6,0.1
			c0.1,0,0.2,0,0.2,0l0.7-0.8l0.5,0.6l-0.8,0.9h0c-0.1,0.1-0.3,0.2-0.5,0.2c-0.4,0-0.7-0.1-0.9-0.2c-0.3-0.2-0.6-0.6-0.8-0.9l0,0
			c-0.1-0.2-0.2-0.5-0.2-0.9c-0.2,0.1-0.3,0.1-0.4,0.1h0v-0.9h0c0,0,0.2-0.1,0.4-0.1c0.1-1.2,0.6-2.5,1.1-2.9
			c0.1-0.1,0.2-0.1,0.5-0.2c0.1,0,0.2,0,0.3,0c0.5,0,1,0.6,1.3,1c0.2,0.2,0.3,0.4,0.2,0.6c-0.1,0.2-0.2,0.3-0.3,0.4
			C86,413,85.2,413.5,84.3,414z M84.2,413.1c0.7-0.3,1.3-0.6,2-1.5c0,0,0,0,0,0c-0.2-0.2-0.5-0.5-0.8-0.5c-0.1,0-0.2,0-0.3,0
			c-0.2,0-0.2-0.1-0.2-0.2C84.6,411.3,84.3,412.3,84.2,413.1z"/>
		<path d="M92.2,411.6l-0.6,0c-0.2,0.1-0.4,0.4-1.1,1.4c-0.5,0.8-1.1,1.4-1.5,2l-0.6,0.8c0,0.1,0,0.1-0.1,0.2l0,0
			c0,0.3-0.1,0.6-0.3,0.6h0l-0.6-0.2h0c0,0,0,0,0,0c0,0,0,0,0-0.1c0-0.4,0.5-0.8,0.5-0.9c0.1-0.5,0.2-0.9,0.3-1.3
			c0.1-0.5,0.3-0.9,0.4-1.3c0.1-0.3,0.2-0.6,0.2-0.9c-0.4,0.4-0.6,0.5-0.7,0.6h0l-0.3-0.8h0c0.1-0.1,0.4-0.3,0.9-0.8
			c0.3-0.2,0.4-0.4,0.6-0.4c0.3-0.1,0.3,0,0.5,0.2c0.3,0.4,0,0.5-0.1,0.5c-0.1,0.3-0.2,0.5-0.3,0.7c-0.1,0.4-0.2,0.7-0.3,1.1
			c-0.1,0.4-0.2,0.7-0.3,0.9c0.4-0.5,0.8-1,1.1-1.4c0.2-0.3,1-1.6,1.4-1.8c0.2-0.1,0.3-0.1,0.4-0.1c0.1,0,0.2,0,0.5,0.1h0
			L92.2,411.6z"/>
		<path d="M94.2,411.3C94.2,411.3,94.2,411.3,94.2,411.3c-0.1,0.2-0.1,0.4-0.2,0.6c-0.3,1.2-0.4,1.5-0.6,2.6
			c-0.1,0.2-0.1,0.4-0.2,0.6c0.3-0.1,0.5-0.2,0.7-0.3l0.3,0.8c-0.4,0.3-0.8,0.4-1,0.5c0,0-0.6,0.5-0.6-0.5c0-0.5,0.2-1,0.2-1.3
			c0.3-1.3,0.3-1.6,0.7-2.7c0,0,0-0.1,0-0.1c-0.3,0.1-0.4,0.1-0.6,0.1v-0.9c0.3,0,0.4,0,0.9-0.2c0.4-0.1,0.4-0.2,0.5-0.1
			C94.3,410.6,94.3,410.7,94.2,411.3z M94.9,408.2v1.1h0c-0.3,0-0.4,0.1-0.7,0.3h0l-0.3-1h0C94.1,408.5,94.4,408.2,94.9,408.2
			L94.9,408.2z"/>
		<path d="M96.4,414c0,0-0.1,0.1-0.2,0.1c0,0.3,0,0.4,0.1,0.6c0,0.1,0.3,0.4,0.6,0.6l0.1,0.1c0.1,0,0.3,0.1,0.6,0.1
			c0.1,0,0.2,0,0.2,0l0.7-0.8l0.5,0.6l-0.8,0.9h0c-0.1,0.1-0.3,0.2-0.5,0.2c-0.4,0-0.7-0.1-0.9-0.2c-0.3-0.2-0.6-0.6-0.8-0.9l0,0
			c-0.1-0.2-0.2-0.5-0.2-0.9c-0.2,0.1-0.3,0.1-0.4,0.1h0v-0.9h0c0,0,0.2-0.1,0.4-0.1c0.1-1.2,0.6-2.5,1.1-2.9
			c0.1-0.1,0.2-0.1,0.5-0.2c0.1,0,0.2,0,0.3,0c0.5,0,1,0.6,1.3,1c0.2,0.2,0.3,0.4,0.2,0.6c-0.1,0.2-0.2,0.3-0.3,0.4
			C98.1,413,97.3,413.5,96.4,414z M96.2,413.1c0.7-0.3,1.3-0.6,2-1.5c0,0,0,0,0,0c-0.2-0.2-0.5-0.5-0.8-0.5c-0.1,0-0.2,0-0.3,0
			c-0.2,0-0.2-0.1-0.2-0.2C96.7,411.3,96.4,412.3,96.2,413.1z"/>
	</g>
	<circle cx="11.7" cy="247.3" r="5.6"/>
	<g>
		<rect x="95.5" y="261.9" class="st0" width="38.8" height="28.5"/>
		<line class="st0" x1="95.5" y1="261.9" x2="134.3" y2="290.4"/>
		<line class="st0" x1="134.3" y1="261.9" x2="95.5" y2="290.4"/>
	</g>
	<g>
		<rect x="6.2" y="328.7" class="st0" width="38.8" height="28.5"/>
		<line class="st0" x1="6.2" y1="328.7" x2="45" y2="357.2"/>
		<line class="st0" x1="45" y1="328.7" x2="6.2" y2="357.2"/>
	</g>
	<g>
		<rect x="6.2" y="362.4" class="st0" width="38.8" height="28.5"/>
		<line class="st0" x1="6.2" y1="362.4" x2="45" y2="390.9"/>
		<line class="st0" x1="45" y1="362.4" x2="6.2" y2="390.9"/>
	</g>
	<g>
		<rect x="6.2" y="261.9" class="st0" width="83.4" height="62.3"/>
		<line class="st0" x1="6.2" y1="261.9" x2="89.7" y2="324.2"/>
		<line class="st0" x1="89.7" y1="261.9" x2="6.2" y2="324.2"/>
	</g>
	<g>
		<rect x="51" y="328.7" class="st0" width="83.4" height="62.3"/>
		<line class="st0" x1="51" y1="328.7" x2="134.4" y2="390.9"/>
		<line class="st0" x1="134.4" y1="328.7" x2="51" y2="390.9"/>
	</g>
	<line class="st0" x1="95.5" y1="297.4" x2="114.6" y2="297.4"/>
	<line class="st0" x1="95.5" y1="307.4" x2="134.4" y2="307.4"/>
	<line class="st0" x1="95.5" y1="311.9" x2="134.4" y2="311.9"/>
	<rect x="152.9" y="219.1" class="st0" width="139.5" height="176.8"/>
	<g>
		<line class="st0" x1="152.9" y1="236.9" x2="292.5" y2="236.9"/>
		<rect x="186.4" y="223" class="st0" width="102.2" height="9.8"/>
		<circle cx="160.7" cy="227.9" r="2.1"/>
		<circle cx="167.6" cy="227.9" r="2.1"/>
		<circle cx="174.5" cy="227.9" r="2.1"/>
	</g>
	<g>
		<path d="M200.3,411.4c0,0.9-0.7,1.8-1.4,2c-0.5,0.1-1.5,0.1-2,0.1l-0.1-0.8c0.5,0,1.5,0,1.9-0.1c0.4-0.1,0.9-0.8,0.9-1.3
			c0-0.5-0.1-0.8-0.2-1c-0.3-0.5-0.9-0.7-2-0.7c-0.2,0-0.3,0.1-0.5,0.1c-0.3,0-0.6,0-0.8,0.1c0,0.1,0,0.2,0,0.3
			c0.1,1,0.1,1.9,0.1,2.9c0,0.2,0,0.5,0,0.8c0,0.3,0,0.6,0,0.8c0,0.6,0,0.9,0.1,1.3l-0.8,0.1c-0.1-0.5-0.1-1-0.1-1.4
			c0-0.3,0-0.6,0-0.8c0-0.3,0-0.5,0-0.8c-0.1-1-0.1-1.9-0.1-2.9l0-1.2l1.5-0.1c0.2,0,0.4-0.1,0.5-0.1c1.4,0,2.1,0.3,2.6,1
			C200.1,410.2,200.3,410.8,200.3,411.4z"/>
		<path d="M205.8,414.7c-0.1,0.1-0.2,0.3-0.3,0.4c-0.3,0.4-0.6,0.8-0.9,1.1c-0.2,0.1-0.3,0.1-0.3,0.1c-0.2,0.1-0.3,0.1-0.3-0.1
			c-0.1-0.2-0.1-0.5-0.1-0.7c0-1,0.3-2.4,0.5-3.1c0-0.2,0.1-0.4,0.1-0.5c0,0.1-0.1,0.1-0.1,0.2l-0.1,0.3h0c0,0,0,0-0.1,0
			c-0.2,0.3-0.4,0.6-0.5,0.8c-0.3,0.6-0.6,1.2-1,1.7c-0.2,0.3-0.5,0.6-0.6,0.8c-0.3,0.4-0.4,0.6-0.6,0.5c-0.3-0.1-0.5-1.4-0.5-1.6
			c0-0.5,0-0.9,0.1-1.4c0.1-0.8,0.6-2.4,1.4-2.8c0.1,0,0.2-0.1,0.3-0.1c0.4,0,1,0.4,1.4,0.7c0.1-0.2,0.2-0.4,0.2-0.6h0
			c0.8,0,0.9-0.1,0.9,0c0,0,0,0.2,0,0.3h0c0,0.2-0.1,0.4-0.1,0.5c-0.1,0.4-0.1,0.8-0.2,1.2c-0.1,0.7-0.4,1.8-0.4,2.7
			c0.1-0.1,0.3-0.3,0.6-0.7c0,0,0.3-0.5,0.3-0.5h0l0.2,0.4h0.2C205.9,414.6,205.9,414.7,205.8,414.7z M203.7,411.9
			c-0.3-0.3-0.7-0.6-0.9-0.6c0,0,0-0.2,0-0.3c-0.6,0.3-0.9,1.8-1,2.4c-0.1,0.4-0.1,0.8-0.1,1.3h0c0,0.1,0.1,0.3,0.1,0.4
			c0.2-0.3,0.4-0.6,0.5-0.7c0.4-0.6,0.6-1.1,0.9-1.7C203.3,412.5,203.5,412.2,203.7,411.9z M201.8,415.5L201.8,415.5L201.8,415.5
			L201.8,415.5z"/>
		<path d="M211.8,412c0,0.1,0,0.3,0,0.4c-0.1,1.3-0.4,3-0.9,4c-0.4,0.7-0.8,1.8-2.7,2c-0.3,0-0.7,0.1-1.1,0.1c-0.1,0-0.2,0-0.3,0
			c-0.8-0.1-1.4-0.7-1.4-1.5h0.6c0,0.3,0.4,0.6,0.8,0.6c0,0,0.1,0,0.2,0c0.3,0,0.7-0.1,1-0.1c1.5-0.2,1.8-0.8,2.2-1.5
			c0.5-1,0.7-2.5,0.8-3.7c0-0.1,0-0.2,0-0.3c0-0.1,0-0.3,0-0.4c-0.1,0.2-0.2,0.4-0.3,0.6c-0.5,0.7-1,1.4-1.6,2c-0.3,0.4-0.7,0.6-1,1
			c0,0.1-0.7,0.9-1,0.9c-0.1,0-0.1,0-0.2-0.1c-0.1-0.1-0.2-0.4-0.2-0.8c0-0.4,0.1-0.9,0.1-1.1c0.2-1.1,0.5-3,1.6-3.7
			c0.1,0,0.1,0,0.2,0c0.3,0,1,0.3,1.1,0.4c0.2,0.1,0.5,0.2,0.7,0.4c0-0.1,0-0.2,0-0.4v0c0,0,0-0.1,0-0.1c0-0.6,1-0.7,1-0.1
			C211.7,411,211.8,411.4,211.8,412z M210.4,411.6c0.1-0.2,0.2-0.3,0.2-0.3l-0.4,0.5c0.1,0.1-0.1,0.1-0.5-0.2
			c-0.1,0-0.6-0.3-0.9-0.3h0c0,0,0,0,0,0c-0.7,0.4-0.9,1.2-1.2,3c0,0.2-0.1,0.5-0.1,0.8c0.1-0.1,0.2-0.2,0.3-0.3
			c0.4-0.6,0.8-0.8,1-1.1C209.5,412.9,210,412.2,210.4,411.6z"/>
		<path d="M213.6,414c0,0-0.1,0.1-0.2,0.1c0,0.3,0,0.4,0.1,0.6c0,0.1,0.3,0.4,0.6,0.6l0.1,0.1c0.1,0,0.3,0.1,0.6,0.1
			c0.1,0,0.2,0,0.2,0l0.7-0.8l0.5,0.6l-0.8,0.9h0c-0.1,0.1-0.3,0.2-0.5,0.2c-0.4,0-0.7-0.1-0.9-0.2c-0.3-0.2-0.6-0.6-0.8-0.9l0,0
			c-0.1-0.2-0.2-0.5-0.2-0.9c-0.2,0.1-0.3,0.1-0.4,0.1h0v-0.9h0c0,0,0.2-0.1,0.4-0.1c0.1-1.2,0.6-2.5,1.1-2.9
			c0.1-0.1,0.2-0.1,0.5-0.2c0.1,0,0.2,0,0.3,0c0.5,0,1,0.6,1.3,1c0.2,0.2,0.3,0.4,0.2,0.6c-0.1,0.2-0.2,0.3-0.3,0.4
			C215.3,413,214.5,413.5,213.6,414z M213.5,413.1c0.7-0.3,1.3-0.6,2-1.5c0,0,0,0,0,0c-0.2-0.2-0.5-0.5-0.8-0.5c-0.1,0-0.2,0-0.3,0
			c-0.2,0-0.2-0.1-0.2-0.2C213.9,411.3,213.6,412.3,213.5,413.1z"/>
		<path d="M222.2,411.7l0,0.2c-0.1,0.8-0.2,1.1-0.3,1.6c-0.2,0.9-0.2,1-0.4,1.8c-0.3,1.3-0.3,2.5-2.4,3.1h0l-0.1-0.9h0
			c1.7-0.5,1.7-1,2-2.4c0.2-0.9,0.2-1,0.4-1.8c0.1-0.6,0.2-1,0.3-1.6c0-0.1,0-0.2,0.1-0.3c0-0.1,0-0.1,0-0.2c0,0,0-0.1,0,0
			c-0.2-0.1-0.9,0.5-1.1,0.5h0v-0.9h0c0.1,0,0.8-0.7,1.3-0.5C222.5,410.6,222.3,413.1,222.2,411.7z M222.6,408.6l-0.2,1h0
			c-0.2-0.1-0.4-0.3-0.5-0.3h0v-1.1h0C222.1,408.2,222.6,408.6,222.6,408.6L222.6,408.6z"/>
		<path d="M226.6,410.9c0,0.2,0,0.3-0.1,0.5c0,0.5-0.1,1-0.2,1.5c0,0.4-0.1,1.1-0.3,1.6c0.6-0.8-0.3,1.1-1,1.7
			c-0.2,0.2-0.2,0.1-0.5,0.1c-0.3,0-0.7,0-0.7,0c-0.2-0.1-0.6-0.2-0.8-0.4c-0.3-0.2-0.4-0.4-0.4-0.9c0-0.6,0.2-1.2,0.3-1.4
			c0.3-0.9,0.4-1.9,1.2-2.7h0c-0.2-0.1-0.2-0.1,0.2-0.3c0.5-0.2,1-0.2,1.7-0.2h0l0,0.2l0.2-0.2h0
			C226.5,410.5,226.6,410.6,226.6,410.9z M225.4,414.7c0.2-0.3,0.3-0.7,0.4-1.9c0-0.5,0.1-1,0.1-1.4c0,0,0,0,0-0.1
			c-0.6,0-1.1,0.1-1.4,0.2l0,0h0c-0.6,0.6-0.7,1.4-1,2.3c-0.1,0.3-0.2,0.8-0.3,1.2c0,0.2,0,0.3,0.1,0.3c0,0,0.2,0,0.6,0
			c0,0,0.5,0,0.7,0c0,0,0,0,0.1,0C225,415.1,225.3,414.9,225.4,414.7z"/>
		<path d="M233,413.6c-0.2,1-0.8,1.8-1.7,2.4c-0.5,0.3-0.9,0.5-1,0.3h0c-0.3-0.2-0.1-1.2-0.1-1.3c0-0.2,0.1-0.4,0.1-0.6
			c-0.4,0.5-0.9,1-1.4,1.3l-1.3,0.5c-0.2,0-0.2,0-0.5-0.2h0v-0.3c0,0,0,0,0-0.1c0.1-0.5,0.3-0.8,0.3-1.1c0.3-1.2,0.8-1.9,1.2-3
			c0,0,0-0.1,0-0.1c-0.6,0.6-1,0.9-1,0.7l-0.4,0.1h0c0-0.5,0.1-0.4,1.2-1.4l0,0c0.4-0.4,0.7-0.6,0.9-0.7h0l0.4,0.4
			c0,0.1-1.6,4-1.7,4.1c0,0.2-0.1,0.4-0.1,0.5c0.3-0.1,0.8-0.3,0.8-0.3c0.8-0.5,1.5-1.4,2.4-2.8c0.1-0.1,0.1-0.2,0.2-0.3
			c0.2-0.3,0.3-0.6,0.4-0.8c0,0,0,0,0-0.1h0l0,0c0-0.3,0-0.6,0.4-0.6c0.2,0,0.3,0.3,0.3,0.6c0,0.2-0.2,0.5-0.4,1
			c-0.1,0.2-0.2,0.3-0.2,0.4c0,0.1-0.1,0.1-0.1,0.2c-0.4,0.8-0.6,1.6-0.8,2.4c0,0.1,0.1,0.2,0.1,0.4c0,0,0.1,0,0.1-0.1h0
			c0.8-0.6,1.3-1.1,1.4-1.8h0L233,413.6L233,413.6z"/>
		<path d="M238.1,411.6l-0.6,0c-0.2,0.1-0.4,0.4-1.1,1.4c-0.5,0.8-1.1,1.4-1.5,2l-0.6,0.8c0,0.1,0,0.1,0,0.2l0,0
			c0,0.3-0.1,0.6-0.3,0.6h0l-0.6-0.2h0c0,0,0,0,0,0c0,0,0,0,0-0.1c0-0.4,0.5-0.8,0.5-0.9c0.1-0.5,0.2-0.9,0.3-1.3
			c0.1-0.5,0.3-0.9,0.4-1.3c0.1-0.3,0.2-0.6,0.2-0.9c-0.4,0.4-0.6,0.5-0.7,0.6h0l-0.3-0.8h0c0.1-0.1,0.4-0.3,0.9-0.8
			c0.3-0.2,0.4-0.4,0.6-0.4c0.3-0.1,0.3,0,0.5,0.2c0.3,0.4,0,0.5-0.1,0.5c-0.1,0.3-0.2,0.5-0.3,0.7c-0.1,0.4-0.2,0.7-0.3,1.1
			c-0.1,0.4-0.2,0.7-0.3,0.9c0.4-0.5,0.8-1,1.1-1.4c0.2-0.3,1-1.6,1.4-1.8c0.2-0.1,0.3-0.1,0.4-0.1c0.1,0,0.2,0,0.5,0.1h0
			L238.1,411.6z"/>
		<path d="M242.6,415.4c0,0.4-0.3,0.5-1.1,0.9c-0.3,0.2-0.6-0.3-0.4-0.6c0.1-0.2,0.2-0.3,0.2-0.4c0.1-0.4,0.2-0.7,0.3-1
			c0.4-1.2,0.8-1.6,0.8-2.7c0-0.1,0-0.1-0.2-0.3c-0.1,0.1-0.3,0.3-0.5,0.6c-0.9,1-1.3,1.4-1.9,2.5c-0.3,0.4-0.5,0.8-0.7,1.1
			c-0.1,0.2-0.1,0.2-0.2,0.3c0,0.1,0,0.1,0,0.2h0c-0.1,0.4-0.6,0.4-0.6,0c0,0,0,0,0-0.1c0,0,0,0,0,0c0,0,0-0.1,0-0.2
			c0,0,0-0.1,0-0.1c0.1-0.4,0.2-0.7,0.2-0.9c0.3-1.1,0.7-2.1,1.1-3c0-0.1,0.1-0.3,0.2-0.5l0,0c-0.2,0.2-1.1,1.2-1.4,1.2h0v-0.7h0
			c0,0,0.9-0.9,1.1-1c0.6-0.4,0.7-0.5,1-0.3c0.2,0.2,0.1,0.7,0,0.8h0c-0.1,0.4-0.1,0.4-0.3,0.8c-0.2,0.4-0.3,0.9-0.5,1.3
			c0.4-0.7,0.8-1.3,1.4-2c0.1-0.1,0.7-1,1-1h0l0.2,0.2c0.2,0.2,0.6,0.4,0.6,1.1c0,1.4-0.5,2-0.9,3c-0.1,0.2-0.1,0.4-0.2,0.5
			c0,0,0,0,0,0c0.2-0.5,0.8-1.5,0.8-1.3h0.6C243.4,414.2,242.8,415.3,242.6,415.4z"/>
		<path d="M249.1,414.7c-0.1,0.1-0.2,0.3-0.3,0.4c-0.3,0.4-0.6,0.8-0.9,1.1c-0.2,0.1-0.3,0.1-0.3,0.1c-0.2,0.1-0.3,0.1-0.3-0.1
			c-0.1-0.2-0.1-0.5-0.1-0.7c0-1,0.3-2.4,0.5-3.1c0-0.2,0.1-0.4,0.1-0.5c0,0.1-0.1,0.1-0.1,0.2l-0.1,0.3h0c0,0,0,0-0.1,0
			c-0.2,0.3-0.4,0.6-0.5,0.8c-0.3,0.6-0.6,1.2-1,1.7c-0.2,0.3-0.5,0.6-0.6,0.8c-0.3,0.4-0.4,0.6-0.6,0.5c-0.3-0.1-0.5-1.4-0.5-1.6
			c0-0.5,0-0.9,0.1-1.4c0.1-0.8,0.6-2.4,1.4-2.8c0.1,0,0.2-0.1,0.3-0.1c0.4,0,1,0.4,1.4,0.7c0.1-0.2,0.2-0.4,0.2-0.6h0
			c0.8,0,0.9-0.1,0.9,0c0,0,0,0.2,0,0.3c0,0.2-0.1,0.4-0.1,0.5c-0.1,0.4-0.1,0.8-0.2,1.2c-0.1,0.7-0.4,1.8-0.4,2.7
			c0.1-0.1,0.3-0.3,0.6-0.7c0,0,0.3-0.5,0.3-0.5h0l0.2,0.4h0.2C249.1,414.6,249.1,414.7,249.1,414.7z M246.9,411.9
			c-0.3-0.3-0.7-0.6-0.9-0.6c0,0,0-0.2,0-0.3c-0.6,0.3-0.9,1.8-1,2.4c-0.1,0.4-0.1,0.8-0.1,1.3h0c0,0.1,0.1,0.3,0.1,0.4
			c0.2-0.3,0.4-0.6,0.5-0.7c0.4-0.6,0.6-1.1,0.9-1.7C246.6,412.5,246.7,412.2,246.9,411.9z M245,415.5L245,415.5L245,415.5
			L245,415.5z"/>
		<path d="M252.3,415.1L252.3,415.1c-0.3,0.1-0.9,1.1-1.8,1.1c-0.1,0-0.2,0-0.3,0c-0.2,0-0.3-0.2-0.3-0.7c0-0.1,0-0.2,0-0.3
			c0.1-0.7,0.2-1.3,0.3-1.8c0.2-1.4,0.4-2.1,0.8-3.3c0.1-0.2,0.1-0.4,0.2-0.6c-0.3,0.2-0.5,0.2-0.6,0.2h0v-0.9h0
			c0.1,0,0.3-0.1,0.6-0.2c0.1-0.1,0.2-0.2,0.3-0.2c0.4-0.2,0.5-0.3,0.6-0.4c0,0-0.1,0.2-0.1,0.7c0,0.4-0.3,1.4-0.3,1.6
			c-0.4,1.3-0.6,2-0.8,3.2c-0.1,0.6-0.2,1.2-0.3,1.8l0,0c0.8,0,0.7-0.7,1.5-1h0L252.3,415.1z"/>
	</g>
	<circle cx="164.2" cy="247.3" r="5.6"/>
	<g>
		<rect x="181" y="261.9" class="st0" width="83.4" height="62.3"/>
		<line class="st0" x1="181" y1="261.9" x2="264.4" y2="324.2"/>
		<line class="st0" x1="264.4" y1="261.9" x2="181" y2="324.2"/>
	</g>
	<line class="st0" x1="181" y1="333.4" x2="264.4" y2="333.4"/>
	<line class="st0" x1="181" y1="338.6" x2="264.4" y2="338.6"/>
	<g>
		<defs>
			<rect id="SVGID_1_" x="169.7" y="347.1" width="110.7" height="48.8"/>
		</defs>
		<clipPath id="SVGID_2_">
			<use xlink:href="#SVGID_1_"  style="overflow:visible;"/>
		</clipPath>
		<g class="st2">
			<rect x="181" y="353.8" class="st0" width="83.4" height="62.3"/>
			<line class="st0" x1="181" y1="353.8" x2="264.4" y2="416.1"/>
			<line class="st0" x1="264.4" y1="353.8" x2="181" y2="416.1"/>
		</g>
	</g>
</g>
<g id="Calque_2">
</g>
</svg>
