<?xml version="1.0" encoding="utf-8"?>
<!-- Generator: Adobe Illustrator 23.0.4, SVG Export Plug-In . SVG Version: 6.00 Build 0)  -->
<svg version="1.1" id="Calque_1" xmlns="http://www.w3.org/2000/svg" xmlns:xlink="http://www.w3.org/1999/xlink" x="0px" y="0px"
	 viewBox="0 0 446.3 246.7" style="enable-background:new 0 0 446.3 246.7;" xml:space="preserve">
<style type="text/css">
	.st0{fill:#1D1D1B;}
	.st1{fill:none;stroke:#1D1D1B;stroke-miterlimit:10;}
	.st2{fill:none;stroke:#1D1D1B;stroke-miterlimit:10;stroke-dasharray:1.9981,1.9981;}
	.st3{fill:none;stroke:#1D1D1B;stroke-miterlimit:10;stroke-dasharray:2.0051,2.0051;}
	.st4{fill:none;stroke:#1D1D1B;stroke-miterlimit:10;stroke-dasharray:2.0117,2.0117;}
	.st5{fill:none;stroke:#1D1D1B;stroke-miterlimit:10;stroke-dasharray:2.0159,2.0159;}
	.st6{fill:none;stroke:#1D1D1B;stroke-miterlimit:10;stroke-dasharray:1.966,1.966;}
	.st7{fill:none;stroke:#1D1D1B;stroke-miterlimit:10;stroke-dasharray:1.9955,1.9955;}
	.st8{fill:none;stroke:#1D1D1B;stroke-miterlimit:10;stroke-dasharray:1.9827,1.9827;}
</style>
<g>
	<path class="st0" d="M21,14.6c-0.7,0-1.4,0-2.1,0c0,0.6-0.1,1.1-0.1,1.7c0,1.5-0.1,3.1-0.1,4.6h-0.8c0-1.5,0-3.1,0.1-4.6
		c0-0.6,0.1-1.1,0.1-1.6l0,0c-0.8,0.1-1.6,0.2-2.4,0.2V14c0.8,0,1.6-0.1,2.4-0.2c0.9-0.1,1.9-0.1,3-0.1V14.6z"/>
	<path class="st0" d="M25.7,19.5c-0.1,0.1-0.2,0.3-0.3,0.4c-0.3,0.4-0.6,0.8-0.9,1.1c-0.2,0.1-0.3,0.1-0.3,0.1
		c-0.2,0.1-0.3,0.1-0.3-0.1c-0.1-0.2-0.1-0.5-0.1-0.7c0-1,0.3-2.4,0.5-3.1c0-0.2,0.1-0.4,0.1-0.5c0,0.1-0.1,0.1-0.1,0.2l-0.1,0.3h0
		c0,0,0,0-0.1,0c-0.2,0.3-0.4,0.6-0.5,0.8c-0.3,0.6-0.6,1.2-1,1.7c-0.2,0.3-0.5,0.6-0.6,0.8c-0.3,0.4-0.4,0.6-0.6,0.5
		c-0.3-0.1-0.5-1.4-0.5-1.6c0-0.5,0-0.9,0.1-1.4c0.1-0.8,0.6-2.4,1.4-2.8c0.1,0,0.2-0.1,0.3-0.1c0.4,0,1,0.4,1.4,0.7
		c0.1-0.2,0.2-0.4,0.2-0.6h0c0.8,0,0.9-0.1,0.9,0c0,0,0,0.2,0,0.3h0c0,0.2-0.1,0.4-0.1,0.5c-0.1,0.4-0.1,0.8-0.2,1.2
		c-0.1,0.7-0.4,1.8-0.4,2.7c0.1-0.1,0.3-0.3,0.6-0.7c0,0,0.3-0.5,0.3-0.5h0l0.2,0.4h0.2C25.7,19.4,25.7,19.5,25.7,19.5z M23.5,16.7
		c-0.3-0.3-0.7-0.6-0.9-0.6c0,0,0-0.2,0-0.3c-0.6,0.3-0.9,1.8-1,2.4c-0.1,0.4-0.1,0.8-0.1,1.3h0c0,0.1,0.1,0.3,0.1,0.4
		c0.2-0.3,0.4-0.6,0.5-0.7c0.4-0.6,0.6-1.1,0.9-1.7C23.1,17.3,23.3,17,23.5,16.7z M21.6,20.3L21.6,20.3L21.6,20.3L21.6,20.3z"/>
	<path class="st0" d="M31.7,16.6c0,0.4-0.1,0.8-0.2,1.1c-0.2,1.1-1.5,3.6-2.8,3.6c-0.4,0-0.8-0.2-1.2-0.4c-0.1,0-0.2,0-0.4-0.1h0
		l0-0.2h0c0,0,0,0-0.1-0.1h0l0,0c0,0,0,0,0,0l-0.1-0.1c0,0,0-0.1,0.1-0.2c0.1-0.5,0.1-1,0.2-1.5c0.3-1.5,0.3-1.8,0.6-3.3l0.3-1.4
		c-0.4,0-0.9,0-1.1,0h0v-0.9h0c0.1,0,0.7,0,1.1,0l0.6,0.2h0l0.1,0.7l0,0.1c0,0-0.1,0.4-0.3,1.4c-0.3,1.4-0.3,1.7-0.5,2.9
		c0.1-0.1,0.1-0.3,0.2-0.4c0.4-0.8,0.9-1.6,1.4-2.3c0.4-0.6,0.4-0.7,0.6-0.6c0.5,0.2,1,0.3,1.3,0.9C31.7,16.1,31.7,16.3,31.7,16.6z
		 M31.1,16.6c0,0,0-0.1,0-0.1c0,0,0-0.1-0.1-0.1c-0.1-0.1-0.3-0.2-0.7-0.4c-0.6,0.8-1.2,1.8-1.6,2.4c-0.2,0.4-0.3,0.6-0.4,0.8
		c-0.2,0.4-0.4,0.7-0.6,0.8c0,0,0,0,0,0.1c0,0,0,0,0,0h0c0.3,0.1,0.6,0.3,0.9,0.3c1,0,2-1.9,2.2-2.9C31.1,17.1,31.1,16.8,31.1,16.6z
		"/>
	<path class="st0" d="M37.7,16.3c0,0.1,0,0.1,0,0.2c-0.1,0.2-0.1,0.4-0.1,0.4c-0.1,0.4-0.1,0.7-0.2,1.1c-0.1,0.8-0.2,1-0.3,1.9
		c-0.1,0.8-0.2,0.8-0.2,1.3h-0.6c0-0.5,0.1-0.9,0.2-1.4c0.1-0.8,0.1-1.1,0.3-1.9c0.1-0.4,0.1-0.7,0.2-1.1c0-0.2,0.1-0.3,0.1-0.4
		c0,0,0-0.1,0-0.1c-0.3,0.1-0.8,0.7-1.3,0.7V16c0.4,0,0.9-0.7,1.3-0.7C37.5,15.3,37.8,15.7,37.7,16.3z M37.1,16.2L37.1,16.2
		C37.1,16.1,37.1,16.1,37.1,16.2z"/>
</g>
<g>
	<path class="st0" d="M27,53c0,0.2-0.2,0.6-0.3,0.7c-0.3,0.6-0.9,0.9-1.7,0.9c-0.1,0-0.5,0-0.6,0c-0.1,0-0.6,0-0.8-0.2
		c-0.2-0.2-0.3-0.5-0.5-0.7c-0.9-1.1-1.1-2-1.1-3c0-0.6,0.1-1.1,0.3-1.6c0.3-0.8,1.9-1.9,2.6-1.9c0.3,0,0.7,0.2,1,0.3
		c0.3,0.1,0.7,0.2,0.9,0.5l-0.5,0.5l-0.6-0.2c-0.2-0.1-0.5-0.3-0.7-0.3c-0.6,0-1.8,1-1.9,1.4c-0.2,0.4-0.2,0.8-0.2,1.3
		c0,0.9,0.2,1.6,1,2.7c0.3,0.4,0.2,0.4,0.4,0.6c-0.1-0.2-0.1-0.2,0.3-0.1c0.1,0,0.5,0,0.5,0c0.6,0,1-0.2,1.2-0.4
		c0.2-0.3,0.2-0.4,0.2-0.2L27,53z"/>
	<path class="st0" d="M31.7,49.2c0,0.2,0,0.3-0.1,0.5c0,0.5-0.1,1-0.2,1.5c0,0.4-0.1,1.1-0.3,1.6c0.6-0.8-0.3,1.1-1,1.7
		c-0.2,0.2-0.2,0.1-0.5,0.1c-0.3,0-0.7,0-0.7,0c-0.2-0.1-0.6-0.2-0.8-0.4c-0.3-0.2-0.4-0.4-0.4-0.9c0-0.6,0.2-1.2,0.3-1.4
		c0.3-0.9,0.4-1.9,1.2-2.7h0c-0.2-0.1-0.2-0.1,0.2-0.3c0.5-0.2,1-0.2,1.7-0.2h0l0,0.2l0.2-0.2h0C31.6,48.8,31.7,48.9,31.7,49.2z
		 M29.9,53.8c0.2-0.4,0.5-0.6,0.6-0.7c0.2-0.3,0.3-0.7,0.4-1.9c0-0.5,0.1-1,0.1-1.4c0,0,0,0,0-0.1c-0.6,0-1.1,0.1-1.4,0.2l0,0h0
		c-0.6,0.6-0.7,1.4-1,2.3c-0.1,0.3-0.2,0.8-0.3,1.2c0,0.2,0,0.3,0.1,0.3c0,0,0.2,0,0.6,0C29.1,53.7,29.5,53.8,29.9,53.8
		C29.8,53.8,29.9,53.8,29.9,53.8L29.9,53.8z"/>
	<path class="st0" d="M34.7,53.4L34.7,53.4c-0.3,0.1-0.9,1.1-1.8,1.1c-0.1,0-0.2,0-0.3,0c-0.2,0-0.3-0.2-0.3-0.7c0-0.1,0-0.2,0-0.3
		c0.1-0.7,0.2-1.3,0.3-1.8c0.2-1.4,0.4-2.1,0.8-3.3c0.1-0.2,0.1-0.4,0.2-0.6C33.3,48,33.1,48,33,48h0v-0.9h0c0.1,0,0.3-0.1,0.6-0.2
		c0.1-0.1,0.2-0.2,0.3-0.2c0.4-0.2,0.5-0.3,0.6-0.4c0,0-0.1,0.2-0.1,0.7c0,0.4-0.3,1.4-0.3,1.6c-0.4,1.3-0.6,2-0.8,3.2
		c-0.1,0.6-0.2,1.2-0.3,1.8l0,0c0.8,0,0.7-0.7,1.5-1h0L34.7,53.4z"/>
	<path class="st0" d="M39.3,49.2c0,0.2,0,0.3-0.1,0.5c0,0.5-0.1,1-0.2,1.5c0,0.4-0.1,1.1-0.3,1.6c0.6-0.8-0.3,1.1-1,1.7
		c-0.2,0.2-0.2,0.1-0.5,0.1c-0.3,0-0.7,0-0.7,0c-0.2-0.1-0.6-0.2-0.8-0.4c-0.3-0.2-0.4-0.4-0.4-0.9c0-0.6,0.2-1.2,0.3-1.4
		c0.3-0.9,0.4-1.9,1.2-2.7h0c-0.2-0.1-0.2-0.1,0.2-0.3c0.5-0.2,1-0.2,1.7-0.2h0l0,0.2l0.2-0.2h0C39.2,48.8,39.3,48.9,39.3,49.2z
		 M37.5,53.8c0.2-0.4,0.5-0.6,0.6-0.7c0.2-0.3,0.3-0.7,0.4-1.9c0-0.5,0.1-1,0.1-1.4c0,0,0,0,0-0.1c-0.6,0-1.1,0.1-1.4,0.2l0,0h0
		c-0.6,0.6-0.7,1.4-1,2.3C36.2,52.5,36,53,36,53.4c0,0.2,0,0.3,0.1,0.3c0,0,0.2,0,0.6,0C36.7,53.7,37.1,53.8,37.5,53.8
		C37.4,53.8,37.4,53.8,37.5,53.8L37.5,53.8z"/>
	<path class="st0" d="M44.2,53.7c0,0.4-0.3,0.5-1.1,0.9c-0.3,0.2-0.6-0.3-0.4-0.6c0.1-0.2,0.2-0.3,0.2-0.4c0.1-0.4,0.2-0.7,0.3-1
		c0.4-1.2,0.8-1.6,0.8-2.7c0-0.1,0-0.1-0.2-0.3c-0.1,0.1-0.3,0.3-0.5,0.6c-0.9,1-1.3,1.4-1.9,2.5c-0.3,0.4-0.5,0.8-0.7,1.1
		c-0.1,0.2-0.1,0.2-0.2,0.3c0,0.1,0,0.1,0,0.2h0c-0.1,0.4-0.6,0.4-0.6,0c0,0,0,0,0-0.1c0,0,0,0,0,0c0,0,0-0.1,0-0.2c0,0,0-0.1,0-0.1
		c0.1-0.4,0.2-0.7,0.2-0.9c0.3-1.1,0.7-2.1,1.1-3c0-0.1,0.1-0.3,0.2-0.5l0,0c-0.2,0.2-1.1,1.2-1.4,1.2h0V50h0c0,0,0.9-0.9,1.1-1
		c0.6-0.4,0.7-0.5,1-0.3c0.2,0.2,0.1,0.7,0,0.8h0c-0.1,0.4-0.1,0.4-0.3,0.8c-0.2,0.4-0.3,0.9-0.5,1.3c0.4-0.7,0.8-1.3,1.4-2
		c0.1-0.1,0.7-1,1-1h0l0.2,0.2c0.2,0.2,0.6,0.4,0.6,1.1c0,1.4-0.5,2-0.9,3c-0.1,0.2-0.1,0.4-0.2,0.5c0,0,0,0,0,0
		c0.2-0.5,0.8-1.5,0.8-1.3H45C45,52.5,44.3,53.6,44.2,53.7z"/>
	<path class="st0" d="M50,53.7c0,0.4-0.3,0.5-1.1,0.9c-0.3,0.2-0.6-0.3-0.4-0.6c0.1-0.2,0.2-0.3,0.2-0.4c0.1-0.4,0.2-0.7,0.3-1
		c0.4-1.2,0.8-1.6,0.8-2.7c0-0.1,0-0.1-0.2-0.3c-0.1,0.1-0.3,0.3-0.5,0.6c-0.9,1-1.3,1.4-1.9,2.5c-0.3,0.4-0.5,0.8-0.7,1.1
		c-0.1,0.2-0.1,0.2-0.2,0.3c0,0.1,0,0.1,0,0.2h0c-0.1,0.4-0.6,0.4-0.6,0c0,0,0,0,0-0.1c0,0,0,0,0,0c0,0,0-0.1,0-0.2c0,0,0-0.1,0-0.1
		c0.1-0.4,0.2-0.7,0.2-0.9c0.3-1.1,0.7-2.1,1.1-3c0-0.1,0.1-0.3,0.2-0.5l0,0c-0.2,0.2-1.1,1.2-1.4,1.2h0V50h0c0,0,0.9-0.9,1.1-1
		c0.6-0.4,0.7-0.5,1-0.3c0.2,0.2,0.1,0.7,0,0.8h0c-0.1,0.4-0.1,0.4-0.3,0.8c-0.2,0.4-0.3,0.9-0.5,1.3c0.4-0.7,0.8-1.3,1.4-2
		c0.1-0.1,0.7-1,1-1h0l0.2,0.2c0.2,0.2,0.6,0.4,0.6,1.1c0,1.4-0.5,2-0.9,3c-0.1,0.2-0.1,0.4-0.2,0.5c0,0,0,0,0,0
		c0.2-0.5,0.8-1.5,0.8-1.3h0.6C50.8,52.5,50.2,53.6,50,53.7z"/>
	<path class="st0" d="M52.7,52.3c0,0-0.1,0.1-0.2,0.1c0,0.3,0,0.4,0.1,0.6c0,0.1,0.3,0.4,0.6,0.6l0.1,0.1c0.1,0,0.3,0.1,0.6,0.1
		c0.1,0,0.2,0,0.2,0l0.7-0.8l0.5,0.6l-0.8,0.9h0c-0.1,0.1-0.3,0.2-0.5,0.2c-0.4,0-0.7-0.1-0.9-0.2c-0.3-0.2-0.6-0.6-0.8-0.9l0,0
		c-0.1-0.2-0.2-0.5-0.2-0.9c-0.2,0.1-0.3,0.1-0.4,0.1h0v-0.9h0c0,0,0.2-0.1,0.4-0.1c0.1-1.2,0.6-2.5,1.1-2.9
		c0.1-0.1,0.2-0.1,0.5-0.2c0.1,0,0.2,0,0.3,0c0.5,0,1,0.6,1.3,1c0.2,0.2,0.3,0.4,0.2,0.6c-0.1,0.2-0.2,0.3-0.3,0.4
		C54.4,51.3,53.6,51.8,52.7,52.3z M52.6,51.4c0.7-0.3,1.3-0.6,2-1.5c0,0,0,0,0,0c-0.2-0.2-0.5-0.5-0.8-0.5c-0.1,0-0.2,0-0.3,0
		c-0.2,0-0.2-0.1-0.2-0.2C53,49.6,52.7,50.6,52.6,51.4z"/>
</g>
<g>
	<path class="st0" d="M318,53c0,0.2-0.2,0.6-0.3,0.7c-0.3,0.6-0.9,0.9-1.7,0.9c-0.1,0-0.5,0-0.6,0c-0.1,0-0.6,0-0.8-0.2
		c-0.2-0.2-0.3-0.5-0.5-0.7c-0.9-1.1-1.1-2-1.1-3c0-0.6,0.1-1.1,0.3-1.6c0.3-0.8,1.9-1.9,2.6-1.9c0.3,0,0.7,0.2,1,0.3
		c0.3,0.1,0.7,0.2,0.9,0.5l-0.5,0.5l-0.6-0.2c-0.2-0.1-0.5-0.3-0.7-0.3c-0.6,0-1.8,1-1.9,1.4c-0.2,0.4-0.2,0.8-0.2,1.3
		c0,0.9,0.2,1.6,1,2.7c0.3,0.4,0.2,0.4,0.4,0.6c-0.1-0.2-0.1-0.2,0.3-0.1c0.1,0,0.5,0,0.5,0c0.6,0,1-0.2,1.2-0.4
		c0.2-0.3,0.2-0.4,0.2-0.2L318,53z"/>
	<path class="st0" d="M322.7,49.2c0,0.2,0,0.3-0.1,0.5c0,0.5-0.1,1-0.2,1.5c0,0.4-0.1,1.1-0.3,1.6c0.6-0.8-0.3,1.1-1,1.7
		c-0.2,0.2-0.2,0.1-0.5,0.1c-0.3,0-0.7,0-0.7,0c-0.2-0.1-0.6-0.2-0.8-0.4c-0.3-0.2-0.4-0.4-0.4-0.9c0-0.6,0.2-1.2,0.3-1.4
		c0.3-0.9,0.4-1.9,1.2-2.7h0c-0.2-0.1-0.2-0.1,0.2-0.3c0.5-0.2,1-0.2,1.7-0.2h0l0,0.2l0.2-0.2h0C322.6,48.8,322.7,48.9,322.7,49.2z
		 M320.9,53.8c0.2-0.4,0.5-0.6,0.6-0.7c0.2-0.3,0.3-0.7,0.4-1.9c0-0.5,0.1-1,0.1-1.4c0,0,0,0,0-0.1c-0.6,0-1.1,0.1-1.4,0.2l0,0h0
		c-0.6,0.6-0.8,1.4-1,2.3c-0.1,0.3-0.2,0.8-0.3,1.2c0,0.2,0,0.3,0.1,0.3c0,0,0.2,0,0.6,0C320.1,53.7,320.5,53.8,320.9,53.8
		C320.8,53.8,320.9,53.8,320.9,53.8L320.9,53.8z"/>
	<path class="st0" d="M325.7,53.4L325.7,53.4c-0.3,0.1-0.9,1.1-1.8,1.1c-0.1,0-0.2,0-0.3,0c-0.2,0-0.3-0.2-0.3-0.7
		c0-0.1,0-0.2,0-0.3c0.1-0.7,0.2-1.3,0.3-1.8c0.2-1.4,0.4-2.1,0.8-3.3c0.1-0.2,0.1-0.4,0.2-0.6c-0.3,0.2-0.5,0.2-0.6,0.2h0v-0.9h0
		c0.1,0,0.3-0.1,0.6-0.2c0.1-0.1,0.2-0.2,0.3-0.2c0.4-0.2,0.5-0.3,0.6-0.4c0,0-0.1,0.2-0.1,0.7c0,0.4-0.3,1.4-0.3,1.6
		c-0.4,1.3-0.6,2-0.8,3.2c-0.1,0.6-0.2,1.2-0.3,1.8l0,0c0.8,0,0.7-0.7,1.5-1h0L325.7,53.4z"/>
	<path class="st0" d="M330.3,49.2c0,0.2,0,0.3-0.1,0.5c0,0.5-0.1,1-0.2,1.5c0,0.4-0.1,1.1-0.3,1.6c0.6-0.8-0.3,1.1-1,1.7
		c-0.2,0.2-0.2,0.1-0.5,0.1c-0.3,0-0.7,0-0.7,0c-0.2-0.1-0.6-0.2-0.8-0.4c-0.3-0.2-0.4-0.4-0.4-0.9c0-0.6,0.2-1.2,0.3-1.4
		c0.3-0.9,0.4-1.9,1.2-2.7h0c-0.2-0.1-0.2-0.1,0.2-0.3c0.5-0.2,1-0.2,1.7-0.2h0l0,0.2l0.2-0.2h0C330.2,48.8,330.3,48.9,330.3,49.2z
		 M328.5,53.8c0.2-0.4,0.5-0.6,0.6-0.7c0.2-0.3,0.3-0.7,0.4-1.9c0-0.5,0.1-1,0.1-1.4c0,0,0,0,0-0.1c-0.6,0-1.1,0.1-1.4,0.2l0,0h0
		c-0.6,0.6-0.7,1.4-1,2.3c-0.1,0.3-0.2,0.8-0.3,1.2c0,0.2,0,0.3,0.1,0.3c0,0,0.2,0,0.6,0C327.7,53.7,328.1,53.8,328.5,53.8
		C328.4,53.8,328.4,53.8,328.5,53.8L328.5,53.8z"/>
	<path class="st0" d="M335.2,53.7c0,0.4-0.3,0.5-1.1,0.9c-0.3,0.2-0.6-0.3-0.4-0.6c0.1-0.2,0.2-0.3,0.2-0.4c0.1-0.4,0.2-0.7,0.3-1
		c0.4-1.2,0.8-1.6,0.8-2.7c0-0.1,0-0.1-0.2-0.3c-0.1,0.1-0.3,0.3-0.5,0.6c-0.9,1-1.3,1.4-1.9,2.5c-0.3,0.4-0.5,0.8-0.7,1.1
		c-0.1,0.2-0.1,0.2-0.2,0.3c0,0.1,0,0.1,0,0.2h0c-0.1,0.4-0.6,0.4-0.6,0c0,0,0,0,0-0.1c0,0,0,0,0,0c0,0,0-0.1,0-0.2c0,0,0-0.1,0-0.1
		c0.1-0.4,0.2-0.7,0.2-0.9c0.3-1.1,0.7-2.1,1.1-3c0-0.1,0.1-0.3,0.2-0.5l0,0c-0.2,0.2-1.1,1.2-1.4,1.2h0V50h0c0,0,0.9-0.9,1.1-1
		c0.6-0.4,0.7-0.5,1-0.3c0.2,0.2,0.1,0.7,0,0.8h0c-0.1,0.4-0.1,0.4-0.3,0.8c-0.2,0.4-0.3,0.9-0.5,1.3c0.4-0.7,0.8-1.3,1.4-2
		c0.1-0.1,0.7-1,1-1h0l0.2,0.2c0.2,0.2,0.6,0.4,0.6,1.1c0,1.4-0.5,2-0.9,3c-0.1,0.2-0.1,0.4-0.2,0.5c0,0,0,0,0,0
		c0.2-0.5,0.8-1.5,0.8-1.3h0.6C336,52.5,335.3,53.6,335.2,53.7z"/>
	<path class="st0" d="M341,53.7c0,0.4-0.3,0.5-1.1,0.9c-0.3,0.2-0.6-0.3-0.4-0.6c0.1-0.2,0.2-0.3,0.2-0.4c0.1-0.4,0.2-0.7,0.3-1
		c0.4-1.2,0.8-1.6,0.8-2.7c0-0.1,0-0.1-0.2-0.3c-0.1,0.1-0.3,0.3-0.5,0.6c-0.9,1-1.3,1.4-1.9,2.5c-0.3,0.4-0.5,0.8-0.7,1.1
		c-0.1,0.2-0.1,0.2-0.2,0.3c0,0.1,0,0.1,0,0.2h0c-0.1,0.4-0.6,0.4-0.6,0c0,0,0,0,0-0.1c0,0,0,0,0,0c0,0,0-0.1,0-0.2c0,0,0-0.1,0-0.1
		c0.1-0.4,0.2-0.7,0.2-0.9c0.3-1.1,0.7-2.1,1.1-3c0-0.1,0.1-0.3,0.2-0.5l0,0c-0.2,0.2-1.1,1.2-1.4,1.2h0V50h0c0,0,0.9-0.9,1.1-1
		c0.6-0.4,0.7-0.5,1-0.3c0.2,0.2,0.1,0.7,0,0.8h0c-0.1,0.4-0.1,0.4-0.3,0.8c-0.2,0.4-0.3,0.9-0.5,1.3c0.4-0.7,0.8-1.3,1.4-2
		c0.1-0.1,0.7-1,1-1h0l0.2,0.2c0.2,0.2,0.6,0.4,0.6,1.1c0,1.4-0.5,2-0.9,3c-0.1,0.2-0.1,0.4-0.2,0.5c0,0,0,0,0,0
		c0.2-0.5,0.8-1.5,0.8-1.3h0.6C341.8,52.5,341.2,53.6,341,53.7z"/>
	<path class="st0" d="M343.7,52.3c0,0-0.1,0.1-0.2,0.1c0,0.3,0,0.4,0.1,0.6c0,0.1,0.3,0.4,0.6,0.6l0.1,0.1c0.1,0,0.3,0.1,0.6,0.1
		c0.1,0,0.2,0,0.2,0l0.7-0.8l0.5,0.6l-0.8,0.9h0c-0.1,0.1-0.3,0.2-0.5,0.2c-0.4,0-0.7-0.1-0.9-0.2c-0.3-0.2-0.6-0.6-0.8-0.9l0,0
		c-0.1-0.2-0.2-0.5-0.2-0.9c-0.2,0.1-0.3,0.1-0.4,0.1h0v-0.9h0c0,0,0.2-0.1,0.4-0.1c0.1-1.2,0.6-2.5,1.1-2.9
		c0.1-0.1,0.2-0.1,0.5-0.2c0.1,0,0.2,0,0.3,0c0.5,0,1,0.6,1.3,1c0.2,0.2,0.3,0.4,0.2,0.6c-0.1,0.2-0.2,0.3-0.3,0.4
		C345.4,51.3,344.6,51.8,343.7,52.3z M343.6,51.4c0.7-0.3,1.3-0.6,2-1.5c0,0,0,0,0,0c-0.2-0.2-0.5-0.5-0.8-0.5c-0.1,0-0.2,0-0.3,0
		c-0.2,0-0.2-0.1-0.2-0.2C344,49.6,343.7,50.6,343.6,51.4z"/>
</g>
<g>
	<path class="st0" d="M73.5,12.6c-0.7,0-1.4,0-2.1,0c0,0.6-0.1,1.1-0.1,1.7c0,1.5-0.1,3.1-0.1,4.6h-0.8c0-1.5,0-3.1,0.1-4.6
		c0-0.6,0.1-1.1,0.1-1.6l0,0c-0.8,0.1-1.6,0.2-2.4,0.2V12c0.8,0,1.6-0.1,2.4-0.2c0.9-0.1,1.9-0.1,3-0.1V12.6z"/>
	<path class="st0" d="M78.2,17.5c-0.1,0.1-0.2,0.3-0.3,0.4c-0.3,0.4-0.6,0.8-0.9,1.1c-0.2,0.1-0.3,0.1-0.3,0.1
		c-0.2,0.1-0.3,0.1-0.3-0.1c-0.1-0.2-0.1-0.5-0.1-0.7c0-1,0.3-2.4,0.5-3.1c0-0.2,0.1-0.4,0.1-0.5c0,0.1-0.1,0.1-0.1,0.2l-0.1,0.3h0
		c0,0,0,0-0.1,0c-0.2,0.3-0.4,0.6-0.5,0.8c-0.3,0.6-0.6,1.2-1,1.7c-0.2,0.3-0.5,0.6-0.6,0.8c-0.3,0.4-0.4,0.6-0.6,0.5
		c-0.3-0.1-0.5-1.4-0.5-1.6c0-0.5,0-0.9,0.1-1.4c0.1-0.8,0.6-2.4,1.4-2.8c0.1,0,0.2-0.1,0.3-0.1c0.4,0,1,0.4,1.4,0.7
		c0.1-0.2,0.2-0.4,0.2-0.6h0c0.8,0,0.9-0.1,0.9,0c0,0,0,0.2,0,0.3h0c0,0.2-0.1,0.4-0.1,0.5c-0.1,0.4-0.1,0.8-0.2,1.2
		c-0.1,0.7-0.4,1.8-0.4,2.7c0.1-0.1,0.3-0.3,0.6-0.7c0,0,0.3-0.5,0.3-0.5h0l0.2,0.4h0.2C78.2,17.4,78.2,17.5,78.2,17.5z M76,14.7
		c-0.3-0.3-0.7-0.6-0.9-0.6c0,0,0-0.2,0-0.3c-0.6,0.3-0.9,1.8-1,2.4C74,16.6,74,17,74,17.5h0c0,0.1,0.1,0.3,0.1,0.4
		c0.2-0.3,0.4-0.6,0.5-0.7c0.4-0.6,0.6-1.1,0.9-1.7C75.6,15.3,75.8,15,76,14.7z M74.1,18.3L74.1,18.3L74.1,18.3L74.1,18.3z"/>
	<path class="st0" d="M84.2,14.6c0,0.4-0.1,0.8-0.2,1.1c-0.2,1.1-1.5,3.6-2.8,3.6c-0.4,0-0.8-0.2-1.2-0.4c-0.1,0-0.2,0-0.4-0.1h0
		l0-0.2h0c0,0,0,0-0.1-0.1h0l0,0c0,0,0,0,0,0l-0.1-0.1c0,0,0-0.1,0.1-0.2c0.1-0.5,0.1-1,0.2-1.5c0.3-1.5,0.3-1.8,0.6-3.3l0.3-1.4
		c-0.4,0-0.9,0-1.1,0h0v-0.9h0c0.1,0,0.7,0,1.1,0l0.6,0.2h0l0.1,0.7l0,0.1c0,0-0.1,0.4-0.3,1.4c-0.3,1.4-0.3,1.7-0.5,2.9
		c0.1-0.1,0.1-0.3,0.2-0.4c0.4-0.8,0.9-1.6,1.4-2.3c0.4-0.6,0.4-0.7,0.6-0.6c0.5,0.2,1,0.3,1.3,0.9C84.2,14.1,84.2,14.3,84.2,14.6z
		 M83.6,14.6c0,0,0-0.1,0-0.1c0,0,0-0.1-0.1-0.1c-0.1-0.1-0.3-0.2-0.7-0.4c-0.6,0.8-1.2,1.8-1.6,2.4c-0.2,0.4-0.3,0.6-0.4,0.8
		c-0.2,0.4-0.4,0.7-0.6,0.8c0,0,0,0,0,0.1c0,0,0,0,0,0h0c0.3,0.1,0.6,0.3,0.9,0.3c1,0,2-1.9,2.2-2.9C83.6,15.1,83.6,14.8,83.6,14.6z
		"/>
	<path class="st0" d="M92.5,18c0,0.4-0.6,1-1,1.1c-0.1,0-0.2,0-0.3,0c-0.1,0-0.2,0-0.4-0.1c-0.9-0.2-1-0.5-1.7-0.5
		c-0.2,0-0.4,0.1-0.5,0.2c-0.1,0.3-0.6,0.3-0.8,0.3c-0.1,0-0.2-0.2-0.2-0.3c0-0.1,0.1-0.4,0.1-0.4c0.2-0.4,0.7-0.9,1.2-1.2
		c1.1-0.7,2.4-2,2.4-2.6c0,0,0,0,0-0.1c0-0.1-0.3-0.3-0.6-0.3c-0.4,0-0.9,0.2-1,0.4L89.3,15l-0.4,0.3c-0.1,0-0.2-0.2-0.2-0.4
		c0-0.3,0.2-0.7,0.4-0.8c0.3-0.5,0.9-0.7,1.5-0.7c0.7,0,1.1,0.4,1.2,1c0,0.1,0,0.1,0,0.6c0,0.8-1.7,2.3-2.6,2.8l1.6,0.5
		c0.1,0,0.2,0,0.3,0c0,0,0.1,0,0.1,0c0.2-0.1,0.6-0.5,0.6-0.2L92.5,18z"/>
</g>
<g>
	<path class="st0" d="M128,12.6c-0.7,0-1.4,0-2.1,0c0,0.6-0.1,1.1-0.1,1.7c0,1.5-0.1,3.1-0.1,4.6h-0.8c0-1.5,0-3.1,0.1-4.6
		c0-0.6,0.1-1.1,0.1-1.6l0,0c-0.8,0.1-1.6,0.2-2.4,0.2V12c0.8,0,1.6-0.1,2.4-0.2c0.9-0.1,1.9-0.1,3-0.1V12.6z"/>
	<path class="st0" d="M132.7,17.5c-0.1,0.1-0.2,0.3-0.3,0.4c-0.3,0.4-0.6,0.8-0.9,1.1c-0.2,0.1-0.3,0.1-0.3,0.1
		c-0.2,0.1-0.3,0.1-0.3-0.1c-0.1-0.2-0.1-0.5-0.1-0.7c0-1,0.3-2.4,0.5-3.1c0-0.2,0.1-0.4,0.1-0.5c0,0.1-0.1,0.1-0.1,0.2l-0.1,0.3h0
		c0,0,0,0-0.1,0c-0.2,0.3-0.4,0.6-0.5,0.8c-0.3,0.6-0.6,1.2-1,1.7c-0.2,0.3-0.5,0.6-0.6,0.8c-0.3,0.4-0.4,0.6-0.6,0.5
		c-0.3-0.1-0.5-1.4-0.5-1.6c0-0.5,0-0.9,0.1-1.4c0.1-0.8,0.6-2.4,1.4-2.8c0.1,0,0.2-0.1,0.3-0.1c0.4,0,1,0.4,1.4,0.7
		c0.1-0.2,0.2-0.4,0.2-0.6h0c0.8,0,0.9-0.1,0.9,0c0,0,0,0.2,0,0.3h0c0,0.2-0.1,0.4-0.1,0.5c-0.1,0.4-0.1,0.8-0.2,1.2
		c-0.1,0.7-0.4,1.8-0.4,2.7c0.1-0.1,0.3-0.3,0.6-0.7c0,0,0.3-0.5,0.3-0.5h0l0.2,0.4h0.2C132.7,17.4,132.7,17.5,132.7,17.5z
		 M130.5,14.7c-0.3-0.3-0.7-0.6-0.9-0.6c0,0,0-0.2,0-0.3c-0.6,0.3-0.9,1.8-1,2.4c-0.1,0.4-0.1,0.8-0.1,1.3h0c0,0.1,0.1,0.3,0.1,0.4
		c0.2-0.3,0.4-0.6,0.5-0.7c0.4-0.6,0.6-1.1,0.9-1.7C130.1,15.3,130.3,15,130.5,14.7z M128.6,18.3L128.6,18.3L128.6,18.3L128.6,18.3z
		"/>
	<path class="st0" d="M138.7,14.6c0,0.4-0.1,0.8-0.2,1.1c-0.2,1.1-1.5,3.6-2.8,3.6c-0.4,0-0.8-0.2-1.2-0.4c-0.1,0-0.2,0-0.4-0.1h0
		l0-0.2h0c0,0,0,0-0.1-0.1h0l0,0c0,0,0,0,0,0l-0.1-0.1c0,0,0-0.1,0.1-0.2c0.1-0.5,0.1-1,0.2-1.5c0.3-1.5,0.3-1.8,0.6-3.3l0.3-1.4
		c-0.4,0-0.9,0-1.1,0h0v-0.9h0c0.1,0,0.7,0,1.1,0l0.6,0.2h0l0.1,0.7l0,0.1c0,0-0.1,0.4-0.3,1.4c-0.3,1.4-0.3,1.7-0.5,2.9
		c0.1-0.1,0.1-0.3,0.2-0.4c0.4-0.8,0.9-1.6,1.4-2.3c0.4-0.6,0.4-0.7,0.6-0.6c0.5,0.2,1,0.3,1.3,0.9
		C138.7,14.1,138.7,14.3,138.7,14.6z M138.1,14.6c0,0,0-0.1,0-0.1c0,0,0-0.1-0.1-0.1c-0.1-0.1-0.3-0.2-0.7-0.4
		c-0.6,0.8-1.2,1.8-1.6,2.4c-0.2,0.4-0.3,0.6-0.4,0.8c-0.2,0.4-0.4,0.7-0.6,0.8c0,0,0,0,0,0.1c0,0,0,0,0,0h0
		c0.3,0.1,0.6,0.3,0.9,0.3c1,0,2-1.9,2.2-2.9C138.1,15.1,138.1,14.8,138.1,14.6z"/>
	<path class="st0" d="M146,13.7c0,0.2-0.2,0.4-0.4,0.5c0,0,0,0,0,0c0,0,0,0-0.1,0c0,0,0,0,0,0c-0.3,0.3-0.5,0.7-0.8,0.9
		c-0.2,0.3-0.4,0.5-0.6,0.8c0.1,0,0.2-0.1,0.4-0.1c0.3,0,0.6,0.1,0.8,0.3c0.2,0.2,0.4,0.8,0.5,1c0,0.1,0,0.3,0,0.5
		c0,1.1-0.9,2.3-1.8,2.8c-0.3,0.1-0.6,0.2-0.9,0.2c-0.4,0-0.8-0.1-1.1-0.4c0,0-0.2-0.1-0.2-0.4h0.6c0-0.4-0.2-0.5,0-0.3
		c0.1,0.1,0.4,0.2,0.7,0.2c0.2,0,0.5-0.1,0.6-0.1c0.7-0.3,1.5-1.2,1.5-2c0-0.1,0-0.1,0-0.3c-0.1-0.3-0.2-0.5-0.3-0.6
		c0,0-0.3-0.1-0.4-0.1c-0.3,0-0.6,0.1-0.8,0.2l-0.3-0.1c0,0,0,0,0,0.1c-0.1,0.1-0.3,0.1-0.3,0.2c-0.2,0.2-0.3,0.2-0.3,0.3
		c-0.1,0.1-0.2,0.1-0.3,0c-0.2-0.2-0.2-0.7,0.2-1c0.1-0.1,0.1-0.1,0.1-0.1c0.6-0.6,1.1-1.2,1.6-1.8c0.1-0.2,0.2-0.3,0.3-0.4h-1.8
		v-0.8h2.3c0.1,0,0.3,0,0.5,0c0.1,0,0.2,0,0.3,0C146,13.4,146,13.7,146,13.7z"/>
</g>
<rect x="0.8" y="4.6" class="st1" width="444.9" height="238.5"/>
<line class="st1" x1="0.8" y1="26.6" x2="0.8" y2="4.6"/>
<line class="st1" x1="52.5" y1="4.6" x2="52.5" y2="26.6"/>
<line class="st1" x1="52.5" y1="26.6" x2="445.6" y2="26.6"/>
<line class="st1" x1="107" y1="4.6" x2="107" y2="26.6"/>
<line class="st1" x1="161.5" y1="4.6" x2="161.5" y2="26.6"/>
<g>
	<g>
		<polyline class="st1" points="290.5,37.6 290.5,36.6 289.5,36.6 		"/>
		<line class="st2" x1="287.5" y1="36.6" x2="12.8" y2="36.6"/>
		<polyline class="st1" points="11.8,36.6 10.8,36.6 10.8,37.6 		"/>
		<line class="st3" x1="10.8" y1="39.6" x2="10.8" y2="231.1"/>
		<polyline class="st1" points="10.8,232.1 10.8,233.1 11.8,233.1 		"/>
		<line class="st2" x1="13.8" y1="233.1" x2="288.5" y2="233.1"/>
		<polyline class="st1" points="289.5,233.1 290.5,233.1 290.5,232.1 		"/>
		<line class="st3" x1="290.5" y1="230.1" x2="290.5" y2="38.6"/>
	</g>
</g>
<g>
	<g>
		<polyline class="st1" points="271.7,89.6 271.7,88.6 270.7,88.6 		"/>
		<line class="st4" x1="268.6" y1="88.6" x2="32.3" y2="88.6"/>
		<polyline class="st1" points="31.3,88.6 30.3,88.6 30.3,89.6 		"/>
		<line class="st5" x1="30.3" y1="91.6" x2="30.3" y2="211.6"/>
		<polyline class="st1" points="30.3,212.6 30.3,213.6 31.3,213.6 		"/>
		<line class="st4" x1="33.3" y1="213.6" x2="269.6" y2="213.6"/>
		<polyline class="st1" points="270.7,213.6 271.7,213.6 271.7,212.6 		"/>
		<line class="st5" x1="271.7" y1="210.6" x2="271.7" y2="90.6"/>
	</g>
</g>
<g>
	<g>
		<polyline class="st1" points="418.1,89.6 418.1,88.6 417.1,88.6 		"/>
		<line class="st6" x1="415.1" y1="88.6" x2="321.7" y2="88.6"/>
		<polyline class="st1" points="320.8,88.6 319.8,88.6 319.8,89.6 		"/>
		<line class="st7" x1="319.8" y1="91.6" x2="319.8" y2="138.5"/>
		<polyline class="st1" points="319.8,139.5 319.8,140.5 320.8,140.5 		"/>
		<line class="st6" x1="322.7" y1="140.5" x2="416.1" y2="140.5"/>
		<polyline class="st1" points="417.1,140.5 418.1,140.5 418.1,139.5 		"/>
		<line class="st7" x1="418.1" y1="137.5" x2="418.1" y2="90.6"/>
	</g>
</g>
<g>
	<g>
		<polyline class="st1" points="436.3,37.6 436.3,36.6 435.3,36.6 		"/>
		<line class="st8" x1="433.4" y1="36.6" x2="303.5" y2="36.6"/>
		<polyline class="st1" points="302.5,36.6 301.5,36.6 301.5,37.6 		"/>
		<line class="st3" x1="301.5" y1="39.6" x2="301.5" y2="231.1"/>
		<polyline class="st1" points="301.5,232.1 301.5,233.1 302.5,233.1 		"/>
		<line class="st8" x1="304.5" y1="233.1" x2="434.4" y2="233.1"/>
		<polyline class="st1" points="435.3,233.1 436.3,233.1 436.3,232.1 		"/>
		<line class="st3" x1="436.3" y1="230.1" x2="436.3" y2="38.6"/>
	</g>
</g>
<rect x="311.5" y="63.6" class="st1" width="114.8" height="86"/>
<g>
	<path class="st0" d="M29.1,77.3c0.1,0,0.2,0.3,0.3,0.3c0.4,0.3,0.7,0.7,1.2,0.9c0.2,0.1,0.5,0.1,1.2,0.1c0.5,0,0.8-0.1,1-0.3
		c0.2-0.2,0.4-0.5,0.4-0.8c0-0.3,0.1-0.5-0.8-1.1c-0.8-0.6-1.9-0.5-2.8-2c-0.2-0.3-0.3-0.5-0.3-0.8c0-0.7,0.3-1.1,0.9-1.3
		c0.5-0.2,1-0.3,1.4-0.3c0.6,0,1.1,0.2,1.7,0.6L33,73.4c-0.5-0.3-0.9-0.4-1.4-0.4c-0.4,0-0.8,0.1-1.2,0.2C30,73.4,30,73.4,30,73.7
		c0,0.1,0,0.1,0.2,0.3c0.6,1.1,1.5,0.8,2.7,1.7c0.9,0.7,1.1,1.5,1.1,1.8c0,0.5-0.3,1.2-0.6,1.4c-0.5,0.4-0.8,0.5-1.4,0.5
		c-0.6,0-1-0.1-1.4-0.2c-0.5-0.2-1-0.7-1.4-1.1l-0.1-0.2L29.1,77.3z"/>
	<path class="st0" d="M35.9,77.3c0,0-0.1,0.1-0.2,0.1c0,0.3,0,0.4,0.1,0.6c0,0.1,0.3,0.4,0.6,0.6l0.1,0.1c0.1,0,0.3,0.1,0.6,0.1
		c0.1,0,0.2,0,0.2,0l0.7-0.8l0.5,0.6l-0.8,0.9h0c-0.1,0.1-0.3,0.2-0.5,0.2c-0.4,0-0.7-0.1-0.9-0.2c-0.3-0.2-0.6-0.6-0.8-0.9l0,0
		c-0.1-0.2-0.2-0.5-0.2-0.9c-0.2,0.1-0.3,0.1-0.4,0.1h0v-0.9h0c0,0,0.2-0.1,0.4-0.1c0.1-1.2,0.6-2.5,1.1-2.9
		c0.1-0.1,0.2-0.1,0.5-0.2c0.1,0,0.2,0,0.3,0c0.5,0,1,0.6,1.3,1c0.2,0.2,0.3,0.4,0.2,0.6c-0.1,0.2-0.2,0.3-0.3,0.4
		C37.6,76.3,36.8,76.8,35.9,77.3z M35.7,76.4c0.7-0.3,1.3-0.6,2-1.5c0,0,0,0,0,0c-0.2-0.2-0.5-0.5-0.8-0.5c-0.1,0-0.2,0-0.3,0
		c-0.2,0-0.2-0.1-0.2-0.2C36.2,74.6,35.9,75.6,35.7,76.4z"/>
	<path class="st0" d="M46.5,72.5l-1,0.5c0,0.1-0.1,0.2-0.1,0.3c-0.2,0.4-0.3,0.8-0.5,1.1h0.5c0.3,0,0.2,0,0.5,0c0.1,0,0.3,0,0.5,0
		l0.1,0.3c0,0-0.1,0-0.1,0l0,0.4c-0.1,0-0.3,0-0.4,0h-0.5c-0.3,0-0.6,0-0.8,0c-0.4,0.7-0.7,1.5-0.9,2.3c0,0.2-0.2,0.9-0.2,1.3
		c0.3,0,0.9-0.5,1-0.6c0.2-0.1,0.3-0.2,0.3-0.3c0.2-0.2,0.2-0.2,0.2-0.1c0,0.1,0.1,0.3,0.2,0.3l0.4-0.3c0,0.3-0.1,0.5-0.3,0.7
		c-0.2,0.2-0.3,0.3-0.4,0.3c-0.5,0.5-1.1,0.8-1.4,0.8c-0.2,0-0.2-0.1-0.4-0.2c-0.1-0.1-0.1-0.3-0.1-0.5c0-0.4,0.2-1.4,0.2-1.6
		c0.2-0.9,0.5-1.6,0.8-2.3l-0.2-0.5h0.4c0.2-0.4,0.4-0.8,0.5-1.1c-0.6,0.2-1.1,0.2-1.6,0.2c-0.4,0-0.6-0.1-0.8-0.1
		c-0.2,0-0.2,0-0.2,0.1c0,0,0,0,0,0c0,0,0,0,0,0c0.1,0,0.1,0,0.2,0c0,0,0.1,0,0.1,0c0.2,0.1,0.3,0.2,0.4,0.3l0,0.4c0,0,0,0.2,0,0.3
		c0,0,0,0.1,0.1,0.1l-0.1,0c0,0.1,0,0.3,0,0.4c0,0.1,0,0.3-0.1,0.3c-0.2,0.2-0.4-0.2-0.4-0.2c0,0-0.1-0.1-0.1-0.2c0,0,0,0,0,0
		c0,0,0,0,0,0c0-0.1-0.1-0.1-0.1-0.2c-0.1-0.1-0.1-0.2-0.2-0.3l-0.9,0.5c-0.6,0.8-0.8,1.5-0.8,2.2c0,0.3,0,0.5,0.1,0.8
		c0,0.2,0.1,0.3,0.1,0.5c0,0,0,0,0.1,0.1c0.2,0,0.6,0,1.2-0.4c0.1-0.1,0.6-0.5,0.7-0.5v0.9c0.1,0-0.4,0.3-0.4,0.3
		c-0.5,0.3-1.7,0.6-1.9,0.4l0-0.2c0,0-0.1-0.1-0.2-0.3c-0.1-0.2-0.1-0.4-0.2-0.6c-0.1-0.3-0.1-0.7-0.1-1c0-0.9,0.3-1.9,0.9-2.8
		c0.3-0.3,0.6-0.6,1-0.8c0-0.1,0-0.1,0-0.2c0-0.1,0-0.2,0.1-0.3c0.2-0.5,0.4-0.7,0.8-0.7c0.2,0,0.5,0.1,0.8,0.1
		c0.6,0,1.1-0.1,1.7-0.2c0.1,0,0.2-0.1,0.3-0.1c0.2-0.5,0.5-1,1.1-1c0.1,0,0.2,0,0.3,0.1C46.8,71.5,46.8,72.3,46.5,72.5z"/>
	<path class="st0" d="M48.5,74.6C48.6,74.6,48.6,74.6,48.5,74.6c-0.1,0.2-0.1,0.4-0.2,0.6c-0.3,1.2-0.4,1.5-0.6,2.6
		c-0.1,0.2-0.1,0.4-0.2,0.6c0.3-0.1,0.5-0.2,0.7-0.3l0.3,0.8c-0.4,0.3-0.8,0.4-1,0.5c0,0-0.6,0.5-0.6-0.5c0-0.5,0.2-1,0.2-1.3
		c0.3-1.3,0.3-1.6,0.7-2.7c0,0,0-0.1,0-0.1c-0.3,0.1-0.4,0.1-0.6,0.1V74c0.3,0,0.4,0,0.9-0.2c0.4-0.1,0.4-0.2,0.5-0.1
		C48.7,73.9,48.7,74,48.5,74.6z M49.2,71.5v1.1h0c-0.3,0-0.4,0.1-0.7,0.3h0l-0.3-1h0C48.5,71.8,48.8,71.5,49.2,71.5L49.2,71.5z"/>
	<path class="st0" d="M53.4,74.2c0,0.2,0,0.3-0.1,0.5c0,0.5-0.1,1-0.2,1.5c0,0.4-0.1,1.1-0.3,1.6c0.6-0.8-0.3,1.1-1,1.7
		c-0.2,0.2-0.2,0.1-0.5,0.1c-0.3,0-0.7,0-0.7,0c-0.2-0.1-0.6-0.2-0.8-0.4c-0.3-0.2-0.4-0.4-0.4-0.9c0-0.6,0.2-1.2,0.3-1.4
		c0.3-0.9,0.4-1.9,1.2-2.7h0c-0.2-0.1-0.2-0.1,0.2-0.3c0.5-0.2,1-0.2,1.7-0.2h0l0,0.2l0.2-0.2h0C53.3,73.8,53.4,73.9,53.4,74.2z
		 M51.5,78.8c0.2-0.4,0.5-0.6,0.6-0.7c0.2-0.3,0.3-0.7,0.4-1.9c0-0.5,0.1-1,0.1-1.4c0,0,0,0,0-0.1c-0.6,0-1.1,0.1-1.4,0.2l0,0h0
		c-0.6,0.6-0.7,1.4-1,2.3c-0.1,0.3-0.2,0.8-0.3,1.2c0,0.2,0,0.3,0.1,0.3c0,0,0.2,0,0.6,0C50.7,78.7,51.2,78.8,51.5,78.8
		C51.5,78.8,51.5,78.8,51.5,78.8L51.5,78.8z"/>
	<path class="st0" d="M58.2,78.7c0,0.4-0.3,0.5-1.1,0.9c-0.3,0.2-0.6-0.3-0.4-0.6c0.1-0.2,0.2-0.3,0.2-0.4c0.1-0.4,0.2-0.7,0.3-1
		c0.4-1.2,0.8-1.6,0.8-2.7c0-0.1,0-0.1-0.2-0.3c-0.1,0.1-0.3,0.3-0.5,0.6c-0.9,1-1.3,1.4-1.9,2.5c-0.3,0.4-0.5,0.8-0.7,1.1
		c-0.1,0.2-0.1,0.2-0.2,0.3c0,0.1,0,0.1,0,0.2h0c-0.1,0.4-0.6,0.4-0.6,0c0,0,0,0,0-0.1c0,0,0,0,0,0c0,0,0-0.1,0-0.2c0,0,0-0.1,0-0.1
		c0.1-0.4,0.2-0.7,0.2-0.9c0.3-1.1,0.7-2.1,1.1-3c0-0.1,0.1-0.3,0.2-0.5l0,0c-0.2,0.2-1.1,1.2-1.4,1.2h0V75h0c0,0,0.9-0.9,1.1-1
		c0.6-0.4,0.7-0.5,1-0.3c0.2,0.2,0.1,0.7,0,0.8h0c-0.1,0.4-0.1,0.4-0.3,0.8c-0.2,0.4-0.3,0.9-0.5,1.3c0.4-0.7,0.8-1.3,1.4-2
		c0.1-0.1,0.7-1,1-1h0l0.2,0.2c0.2,0.2,0.6,0.4,0.6,1.1c0,1.4-0.5,2-0.9,3c-0.1,0.2-0.1,0.4-0.2,0.5c0,0,0,0,0,0
		c0.2-0.5,0.8-1.5,0.8-1.3h0.6C59.1,77.5,58.4,78.6,58.2,78.7z"/>
</g>
<g>
	<path class="st0" d="M44.5,104c0,0.2-0.2,0.6-0.3,0.7c-0.3,0.6-0.9,0.9-1.7,0.9c-0.1,0-0.5,0-0.6,0c-0.1,0-0.6,0-0.8-0.2
		c-0.2-0.2-0.3-0.5-0.5-0.7c-0.9-1.1-1.1-2-1.1-3c0-0.6,0.1-1.1,0.3-1.6c0.3-0.8,1.9-1.9,2.6-1.9c0.3,0,0.7,0.2,1,0.3
		c0.3,0.1,0.7,0.2,0.9,0.5l-0.5,0.5l-0.6-0.2c-0.2-0.1-0.5-0.3-0.7-0.3c-0.6,0-1.8,1-1.9,1.4c-0.2,0.4-0.2,0.8-0.2,1.3
		c0,0.9,0.2,1.6,1,2.7c0.3,0.4,0.2,0.4,0.4,0.6c-0.1-0.2-0.1-0.2,0.3-0.1c0.1,0,0.5,0,0.5,0c0.6,0,1-0.2,1.2-0.4
		c0.2-0.3,0.2-0.4,0.2-0.2L44.5,104z"/>
	<path class="st0" d="M50.7,102.1c0,0.9-0.1,1.4-0.5,2c-0.2,0.2-0.4,1-0.7,1.2c-0.2,0.2-0.3,0.3-0.6,0.3c-0.4,0-0.8-0.4-1-0.9h0
		l0.5-0.4h0c0.1,0.2,0.4,0.4,0.5,0.4c0.1,0,0.1,0,0.1-0.1c0.2-0.3,0.4-0.7,0.6-1.1c0.3-0.6,0.4-0.9,0.4-1.5c0-0.6-0.2-1.1-0.5-1.4
		c-0.1-0.1-0.2-0.3-0.6-0.3c-0.1,0-1.2,1.7-1.8,2.7c-0.2,0.3-0.3,0.5-0.4,0.7c0,0-0.1,0.1-0.1,0.2c0,0.1,0,0.3-0.1,0.4
		c0,0.3-0.1,0.4-0.1,0.6c-0.2,1.2-0.6,1.4-1,0.5c-0.2-0.4,0-0.8,0.6-1.8c0.1-0.4,0.2-0.8,0.2-1.3c0.2-1.2,0.3-1.5,0.6-2.6
		c0.1-0.4,0.1-0.8,0.2-1.2c-0.1,0-0.2,0-0.3,0c-0.3,0-0.6,0-0.8,0h0v-0.9h0c0.3,0,0.6,0,0.8,0c0.2,0,0.3,0,0.5,0
		c0.3,0,0.5,0.5,0.4,1c-0.1,0.5-0.2,0.9-0.3,1.3c-0.2,1-0.3,1.4-0.5,2.1c1-1.7,1.7-2.5,2-2.5c0.6,0.1,0.9,0.5,1,0.6
		C50.5,100.6,50.7,101.3,50.7,102.1z"/>
	<path class="st0" d="M56.3,104c-0.1,0.1-0.2,0.3-0.3,0.4c-0.3,0.4-0.6,0.8-0.9,1.1c-0.2,0.1-0.3,0.1-0.3,0.1
		c-0.2,0.1-0.3,0.1-0.3-0.1c-0.1-0.2-0.1-0.5-0.1-0.7c0-1,0.3-2.4,0.5-3.1c0-0.2,0.1-0.4,0.1-0.5c0,0.1-0.1,0.1-0.1,0.2l-0.1,0.3h0
		c0,0,0,0-0.1,0c-0.2,0.3-0.4,0.6-0.5,0.8c-0.3,0.6-0.6,1.2-1,1.7c-0.2,0.3-0.5,0.6-0.6,0.8c-0.3,0.4-0.4,0.6-0.6,0.5
		c-0.3-0.1-0.5-1.4-0.5-1.6c0-0.5,0-0.9,0.1-1.4c0.1-0.8,0.6-2.4,1.4-2.8c0.1,0,0.2-0.1,0.3-0.1c0.4,0,1,0.4,1.4,0.7
		c0.1-0.2,0.2-0.4,0.2-0.6h0c0.8,0,0.9-0.1,0.9,0c0,0,0,0.2,0,0.3c0,0.2-0.1,0.4-0.1,0.5c-0.1,0.4-0.1,0.8-0.2,1.2
		c-0.1,0.7-0.4,1.8-0.4,2.7c0.1-0.1,0.3-0.3,0.6-0.7c0,0,0.3-0.5,0.3-0.5h0l0.2,0.4h0.2C56.4,103.9,56.3,104,56.3,104z M54.2,101.2
		c-0.3-0.3-0.7-0.6-0.9-0.6c0,0,0-0.2,0-0.3c-0.6,0.3-0.9,1.8-1,2.4c-0.1,0.4-0.1,0.8-0.1,1.3h0c0,0.1,0.1,0.3,0.1,0.4
		c0.2-0.3,0.4-0.6,0.5-0.7c0.4-0.6,0.6-1.1,0.9-1.7C53.8,101.8,54,101.5,54.2,101.2z M52.2,104.8L52.2,104.8L52.2,104.8L52.2,104.8z
		"/>
	<path class="st0" d="M66.2,104.7c-0.4,0.4-0.9,0.7-1.5,0.9c-0.5,0.2-0.6,0.3-0.8,0c0-0.1-0.1-0.2-0.1-0.3c0-0.2,0.1-0.3,0.1-0.4
		c0.1-0.3,0.1-0.7,0.2-1c0.4-1,0.6-1.7,0.8-2.5c0-0.2,0-0.3-0.1-0.5h0c-0.7-0.2-0.8-0.4-0.8-0.5c-0.1,0.1-0.2,0.2-0.2,0.3
		c-0.2,0.4-0.4,0.7-0.6,1c-0.4,0.8-0.5,1.2-0.8,1.9c-0.1,0.1-0.1,0.3-0.2,0.4c0,0.1-0.1,0.3-0.1,0.4c0,0-0.1,0.3-0.2,0.6
		c0,0,0,0,0,0.1c0,0.1-0.1,0.1-0.1,0.1c-0.3,0.5-0.6,1-0.6-0.1c0-0.1,0-0.2,0-0.3c0-0.2,0.1-0.3,0.1-0.4c0.1-0.2,0.1-0.4,0.2-0.6
		c0.2-1.2,0.2-1.6,0.2-2.5c0-0.1,0-0.3,0-0.4c0-0.5-0.1-0.4-0.2-0.6c0,0.2-0.2,0.4-0.2,0.4c-0.4,0.6-0.7,1.3-1,1.8
		c-0.6,0.9-0.7,1.1-0.9,1.2c-0.2,0.2-0.6,0.8-0.7,0.9c-0.2,0.3-0.3,0.4-0.4,0.5l0,0c0,0.1,0,0.1-0.1,0.2c-0.3,0.6-0.5,0-0.5-0.3h0
		c0,0,0,0,0,0c0,0,0,0,0,0h0c0,0,0-0.1,0-0.1c0-0.2,0.1-0.3,0.1-0.5c0.3-1.1,0.7-2.1,1-3.1c0-0.1,0.1-0.3,0.1-0.4
		c0.1-0.2,0.1-0.4,0.2-0.6c-0.4,0.1-0.8,0.4-1,0.6l-0.7,0.5l-0.3-0.8l0,0l0.7-0.5c0.4-0.3,1-0.7,1.6-0.7c0.1,0,0.2,0,0.4,0.1
		c1,0.3,0.4-0.1,0,1c-0.3,0.9-0.1,1-0.3,0.9c0,0.2-0.1,0.4-0.2,0.5c-0.2,0.5-0.3,1-0.5,1.5c0.1-0.1,0.1-0.2,0.1-0.2
		c0.2-0.3,0.4-0.4,0.5-0.5l0.3-0.6c0.4-0.6,0.7-1.3,1.1-1.9c0.2-0.4,0.6-0.7,0.7-0.7c0.5,0,0.8,0.5,0.8,1.5c0,0.2,0,0.3,0,0.4
		c0,0.2,0,0.3,0,0.5c0.1-0.1,0.1-0.3,0.2-0.5c0.2-0.4,0.4-0.8,0.6-1.1c0.1-0.2,0.2-0.4,0.3-0.5c0.2-0.3,0.4-0.3,0.5,0
		c0.1-0.1,0.9-0.1,1.2,1c0,0.2,0.1,0.4,0.1,0.7c-0.1,1-0.5,1.9-0.8,2.7c-0.1,0.2-0.1,0.4-0.2,0.6c0.5-0.2,0.9-0.4,1.2-0.7h0
		L66.2,104.7z"/>
	<path class="st0" d="M71.4,100.3c0,0.8-0.2,1.6-0.4,2.3c-0.3,0.9-1,2.3-1.4,2.5c-0.3,0.2-0.7,0.3-1.2,0.3c-0.1,0.8-0.3,1.6-0.3,2.5
		h-0.6c0-0.9,0.1-1.7,0.3-2.5c-0.1,0-0.2,0-0.2,0c-0.1,0-0.2,0-0.3,0h0v-0.9h0c0.1,0,0.2,0,0.3,0c0.1,0,0.3,0,0.4,0
		c0-0.1,0-0.3,0.1-0.5c0.1-0.8,0.2-1.6,0.5-2.3c0-0.1,0.1-0.2,0.1-0.3l-0.4,0.2c-0.2,0.2-0.6,0.7-1,0.7h0v-0.9h0
		c0.2,0,0.4-0.3,0.6-0.4c0.4-0.3,0.7-0.5,1.1-0.7c0.1-0.3,0.2-0.6,0.4-0.9c0.4-0.9,0.5-1,0.5-1.1h0l0.5,0.2h0
		c-0.1,0.4-0.5,1.2-0.6,1.2c0,0,0,0.1,0,0.1l0,0c0.3-0.1,0.8-0.4,1.1-0.4c0.1,0,0.1,0,0.2,0C71.4,99.6,71.4,99.8,71.4,100.3z
		 M70.4,102.4c0.2-0.7,0.3-1.3,0.3-1.9l-1.5,0.7c-0.1,0.3-0.2,0.6-0.3,1c-0.2,0.7-0.3,1.4-0.4,2.2c0,0.1,0,0.2,0,0.3
		c0.4,0,0.6-0.1,0.7-0.2C69.6,104.2,70.3,102.8,70.4,102.4z"/>
	<path class="st0" d="M75.1,101.1L75.1,101.1l-0.3-0.3h0c-0.2-0.1-0.1-0.2-0.3-0.2c-0.4,0-0.3-0.1-0.6,0.5c-0.1,0.2-0.1,0.3-0.1,0.6
		c0,0.5,0.2,1.2,0.2,1.9c0,0.4,0,0.7-0.1,1c-0.1,0.2-0.3,0.9-0.7,1c-0.1,0-0.2,0-0.3,0c-0.7,0-1.4-0.6-1.4-1.3h0.6l0.8,0.4
		c0,0,0.1,0,0.1,0c0.1-0.1,0.1-0.1,0.3-0.5c0.1-0.2,0.1-0.3,0.1-0.6c0-0.5-0.2-1.2-0.2-1.9c0-0.5,0-0.9,0.2-1.1
		c0.2-0.3,0.3-0.9,1.1-0.9c0.4,0,0.9,0.5,0.9,0.9C75.4,101,75.3,101.1,75.1,101.1z"/>
</g>
<g>
	<path class="st0" d="M334,104c0,0.2-0.2,0.6-0.3,0.7c-0.3,0.6-0.9,0.9-1.7,0.9c-0.1,0-0.5,0-0.6,0c-0.1,0-0.6,0-0.8-0.2
		c-0.2-0.2-0.3-0.5-0.5-0.7c-0.9-1.1-1.1-2-1.1-3c0-0.6,0.1-1.1,0.3-1.6c0.3-0.8,1.9-1.9,2.6-1.9c0.3,0,0.7,0.2,1,0.3
		c0.3,0.1,0.7,0.2,0.9,0.5l-0.5,0.5l-0.6-0.2c-0.2-0.1-0.5-0.3-0.7-0.3c-0.6,0-1.8,1-1.9,1.4c-0.2,0.4-0.2,0.8-0.2,1.3
		c0,0.9,0.2,1.6,1,2.7c0.3,0.4,0.2,0.4,0.4,0.6c-0.1-0.2-0.1-0.2,0.3-0.1c0.1,0,0.5,0,0.5,0c0.6,0,1-0.2,1.2-0.4
		c0.2-0.3,0.2-0.4,0.2-0.2L334,104z"/>
	<path class="st0" d="M340.2,102.1c0,0.9-0.1,1.4-0.5,2c-0.2,0.2-0.4,1-0.7,1.2c-0.2,0.2-0.3,0.3-0.6,0.3c-0.4,0-0.8-0.4-1-0.9h0
		l0.5-0.4h0c0.1,0.2,0.4,0.4,0.5,0.4c0.1,0,0.1,0,0.1-0.1c0.2-0.3,0.4-0.7,0.6-1.1c0.3-0.6,0.4-0.9,0.4-1.5c0-0.6-0.2-1.1-0.5-1.4
		c-0.1-0.1-0.2-0.3-0.6-0.3c-0.1,0-1.2,1.7-1.8,2.7c-0.2,0.3-0.3,0.5-0.4,0.7c0,0-0.1,0.1-0.1,0.2c0,0.1,0,0.3-0.1,0.4
		c0,0.3-0.1,0.4-0.1,0.6c-0.2,1.2-0.6,1.4-1,0.5c-0.2-0.4,0-0.8,0.6-1.8c0.1-0.4,0.2-0.8,0.2-1.3c0.2-1.2,0.3-1.5,0.6-2.6
		c0.1-0.4,0.1-0.8,0.2-1.2c-0.1,0-0.2,0-0.3,0c-0.3,0-0.6,0-0.8,0h0v-0.9h0c0.3,0,0.6,0,0.8,0c0.2,0,0.3,0,0.5,0
		c0.3,0,0.5,0.5,0.4,1c-0.1,0.5-0.2,0.9-0.3,1.3c-0.2,1-0.3,1.4-0.5,2.1c1-1.7,1.7-2.5,2-2.5c0.6,0.1,0.9,0.5,1,0.6
		C340,100.6,340.2,101.3,340.2,102.1z"/>
	<path class="st0" d="M345.8,104c-0.1,0.1-0.2,0.3-0.3,0.4c-0.3,0.4-0.6,0.8-0.9,1.1c-0.2,0.1-0.3,0.1-0.3,0.1
		c-0.2,0.1-0.3,0.1-0.3-0.1c-0.1-0.2-0.1-0.5-0.1-0.7c0-1,0.3-2.4,0.5-3.1c0-0.2,0.1-0.4,0.1-0.5c0,0.1-0.1,0.1-0.1,0.2l-0.1,0.3h0
		c0,0,0,0-0.1,0c-0.2,0.3-0.4,0.6-0.5,0.8c-0.3,0.6-0.6,1.2-1,1.7c-0.2,0.3-0.5,0.6-0.6,0.8c-0.3,0.4-0.4,0.6-0.6,0.5
		c-0.3-0.1-0.5-1.4-0.5-1.6c0-0.5,0-0.9,0.1-1.4c0.1-0.8,0.6-2.4,1.4-2.8c0.1,0,0.2-0.1,0.3-0.1c0.4,0,1,0.4,1.4,0.7
		c0.1-0.2,0.2-0.4,0.2-0.6h0c0.8,0,0.9-0.1,0.9,0c0,0,0,0.2,0,0.3c0,0.2-0.1,0.4-0.1,0.5c-0.1,0.4-0.1,0.8-0.2,1.2
		c-0.1,0.7-0.4,1.8-0.4,2.7c0.1-0.1,0.3-0.3,0.6-0.7c0,0,0.3-0.5,0.3-0.5h0l0.2,0.4h0.2C345.9,103.9,345.8,104,345.8,104z
		 M343.7,101.2c-0.3-0.3-0.7-0.6-0.9-0.6c0,0,0-0.2,0-0.3c-0.6,0.3-0.9,1.8-1,2.4c-0.1,0.4-0.1,0.8-0.1,1.3h0c0,0.1,0.1,0.3,0.1,0.4
		c0.2-0.3,0.4-0.6,0.5-0.7c0.4-0.6,0.6-1.1,0.9-1.7C343.3,101.8,343.5,101.5,343.7,101.2z M341.7,104.8L341.7,104.8L341.7,104.8
		L341.7,104.8z"/>
	<path class="st0" d="M355.7,104.7c-0.4,0.4-0.9,0.7-1.5,0.9c-0.5,0.2-0.6,0.3-0.8,0c0-0.1-0.1-0.2-0.1-0.3c0-0.2,0.1-0.3,0.1-0.4
		c0.1-0.3,0.1-0.7,0.2-1c0.4-1,0.6-1.7,0.8-2.5c0-0.2,0-0.3-0.1-0.5h0c-0.7-0.2-0.8-0.4-0.8-0.5c-0.1,0.1-0.2,0.2-0.2,0.3
		c-0.2,0.4-0.4,0.7-0.6,1c-0.4,0.8-0.5,1.2-0.8,1.9c-0.1,0.1-0.1,0.3-0.2,0.4c0,0.1-0.1,0.3-0.1,0.4c0,0-0.1,0.3-0.2,0.6
		c0,0,0,0,0,0.1c0,0.1-0.1,0.1-0.1,0.1c-0.3,0.5-0.6,1-0.6-0.1c0-0.1,0-0.2,0-0.3c0-0.2,0.1-0.3,0.1-0.4c0.1-0.2,0.1-0.4,0.2-0.6
		c0.2-1.2,0.2-1.6,0.2-2.5c0-0.1,0-0.3,0-0.4c0-0.5-0.1-0.4-0.2-0.6c0,0.2-0.2,0.4-0.2,0.4c-0.4,0.6-0.7,1.3-1,1.8
		c-0.6,0.9-0.7,1.1-0.9,1.2c-0.2,0.2-0.6,0.8-0.7,0.9c-0.2,0.3-0.3,0.4-0.4,0.5l0,0c0,0.1,0,0.1-0.1,0.2c-0.3,0.6-0.5,0-0.5-0.3h0
		c0,0,0,0,0,0c0,0,0,0,0,0h0c0,0,0-0.1,0-0.1c0-0.2,0.1-0.3,0.1-0.5c0.3-1.1,0.7-2.1,1-3.1c0-0.1,0.1-0.3,0.1-0.4
		c0.1-0.2,0.1-0.4,0.2-0.6c-0.4,0.1-0.8,0.4-1,0.6l-0.7,0.5l-0.3-0.8l0,0l0.7-0.5c0.4-0.3,1-0.7,1.6-0.7c0.1,0,0.2,0,0.4,0.1
		c1,0.3,0.4-0.1,0,1c-0.3,0.9-0.1,1-0.3,0.9c0,0.2-0.1,0.4-0.2,0.5c-0.2,0.5-0.3,1-0.5,1.5c0.1-0.1,0.1-0.2,0.1-0.2
		c0.2-0.3,0.4-0.4,0.5-0.5l0.3-0.6c0.4-0.6,0.7-1.3,1.1-1.9c0.2-0.4,0.6-0.7,0.7-0.7c0.5,0,0.8,0.5,0.8,1.5c0,0.2,0,0.3,0,0.4
		c0,0.2,0,0.3,0,0.5c0.1-0.1,0.1-0.3,0.2-0.5c0.2-0.4,0.4-0.8,0.6-1.1c0.1-0.2,0.2-0.4,0.3-0.5c0.2-0.3,0.4-0.3,0.5,0
		c0.1-0.1,0.9-0.1,1.2,1c0,0.2,0.1,0.4,0.1,0.7c-0.1,1-0.5,1.9-0.8,2.7c-0.1,0.2-0.1,0.4-0.2,0.6c0.5-0.2,0.9-0.4,1.2-0.7h0
		L355.7,104.7z"/>
	<path class="st0" d="M360.9,100.3c0,0.8-0.2,1.6-0.4,2.3c-0.3,0.9-1,2.3-1.4,2.5c-0.3,0.2-0.7,0.3-1.2,0.3
		c-0.1,0.8-0.3,1.6-0.3,2.5H357c0-0.9,0.1-1.7,0.3-2.5c-0.1,0-0.2,0-0.2,0c-0.1,0-0.2,0-0.3,0h0v-0.9h0c0.1,0,0.2,0,0.3,0
		c0.1,0,0.3,0,0.4,0c0-0.1,0-0.3,0.1-0.5c0.1-0.8,0.2-1.6,0.5-2.3c0-0.1,0.1-0.2,0.1-0.3l-0.4,0.2c-0.2,0.2-0.6,0.7-1,0.7h0v-0.9h0
		c0.2,0,0.4-0.3,0.6-0.4c0.4-0.3,0.7-0.5,1.1-0.7c0.1-0.3,0.2-0.6,0.4-0.9c0.4-0.9,0.5-1,0.5-1.1h0l0.5,0.2h0
		c-0.1,0.4-0.5,1.2-0.6,1.2c0,0,0,0.1,0,0.1l0,0c0.3-0.1,0.8-0.4,1.1-0.4c0.1,0,0.1,0,0.2,0C360.9,99.6,360.9,99.8,360.9,100.3z
		 M359.9,102.4c0.2-0.7,0.3-1.3,0.3-1.9l-1.5,0.7c-0.1,0.3-0.2,0.6-0.3,1c-0.2,0.7-0.3,1.4-0.4,2.2c0,0.1,0,0.2,0,0.3
		c0.4,0,0.6-0.1,0.7-0.2C359.1,104.2,359.8,102.8,359.9,102.4z"/>
	<path class="st0" d="M364.6,101.1L364.6,101.1l-0.3-0.3h0c-0.2-0.1-0.1-0.2-0.3-0.2c-0.4,0-0.3-0.1-0.6,0.5
		c-0.1,0.2-0.1,0.3-0.1,0.6c0,0.5,0.2,1.2,0.2,1.9c0,0.4,0,0.7-0.1,1c-0.1,0.2-0.3,0.9-0.7,1c-0.1,0-0.2,0-0.3,0
		c-0.7,0-1.4-0.6-1.4-1.3h0.6l0.8,0.4c0,0,0.1,0,0.1,0c0.1-0.1,0.1-0.1,0.3-0.5c0.1-0.2,0.1-0.3,0.1-0.6c0-0.5-0.2-1.2-0.2-1.9
		c0-0.5,0-0.9,0.2-1.1c0.2-0.3,0.3-0.9,1.1-0.9c0.4,0,0.9,0.5,0.9,0.9C364.9,101,364.8,101.1,364.6,101.1z"/>
</g>
<g>
	<path class="st0" d="M320.1,77.3c0.1,0,0.2,0.3,0.3,0.3c0.4,0.3,0.7,0.7,1.2,0.9c0.2,0.1,0.5,0.1,1.2,0.1c0.5,0,0.8-0.1,1-0.3
		c0.2-0.2,0.4-0.5,0.4-0.8c0-0.3,0.1-0.5-0.8-1.1c-0.8-0.6-1.9-0.5-2.8-2c-0.2-0.3-0.3-0.5-0.3-0.8c0-0.7,0.3-1.1,0.9-1.3
		c0.5-0.2,1-0.3,1.4-0.3c0.6,0,1.1,0.2,1.7,0.6l-0.4,0.7c-0.5-0.3-0.9-0.4-1.4-0.4c-0.4,0-0.8,0.1-1.2,0.2c-0.4,0.2-0.5,0.2-0.5,0.5
		c0,0.1,0,0.1,0.2,0.3c0.6,1.1,1.5,0.8,2.7,1.7c0.9,0.7,1.1,1.5,1.1,1.8c0,0.5-0.3,1.2-0.6,1.4c-0.5,0.4-0.8,0.5-1.4,0.5
		c-0.6,0-1-0.1-1.4-0.2c-0.5-0.2-1-0.7-1.4-1.1l-0.1-0.2L320.1,77.3z"/>
	<path class="st0" d="M326.9,77.3c0,0-0.1,0.1-0.2,0.1c0,0.3,0,0.4,0.1,0.6c0,0.1,0.3,0.4,0.6,0.6l0.1,0.1c0.1,0,0.3,0.1,0.6,0.1
		c0.1,0,0.2,0,0.2,0l0.7-0.8l0.5,0.6l-0.8,0.9h0c-0.1,0.1-0.3,0.2-0.5,0.2c-0.4,0-0.7-0.1-0.9-0.2c-0.3-0.2-0.6-0.6-0.8-0.9l0,0
		c-0.1-0.2-0.2-0.5-0.2-0.9c-0.2,0.1-0.3,0.1-0.4,0.1h0v-0.9h0c0,0,0.2-0.1,0.4-0.1c0.1-1.2,0.6-2.5,1.1-2.9
		c0.1-0.1,0.2-0.1,0.5-0.2c0.1,0,0.2,0,0.3,0c0.5,0,1,0.6,1.3,1c0.2,0.2,0.3,0.4,0.2,0.6c-0.1,0.2-0.2,0.3-0.3,0.4
		C328.6,76.3,327.8,76.8,326.9,77.3z M326.7,76.4c0.7-0.3,1.3-0.6,2-1.5c0,0,0,0,0,0c-0.2-0.2-0.5-0.5-0.8-0.5c-0.1,0-0.2,0-0.3,0
		c-0.2,0-0.2-0.1-0.2-0.2C327.2,74.6,326.9,75.6,326.7,76.4z"/>
	<path class="st0" d="M337.5,72.5l-1,0.5c0,0.1-0.1,0.2-0.1,0.3c-0.2,0.4-0.3,0.8-0.5,1.1h0.5c0.3,0,0.2,0,0.5,0c0.1,0,0.3,0,0.5,0
		l0.1,0.3c0,0-0.1,0-0.1,0l0,0.4c-0.1,0-0.3,0-0.4,0h-0.5c-0.3,0-0.6,0-0.8,0c-0.4,0.7-0.7,1.5-0.9,2.3c0,0.2-0.2,0.9-0.2,1.3
		c0.3,0,0.9-0.5,1-0.6c0.2-0.1,0.3-0.2,0.3-0.3c0.2-0.2,0.2-0.2,0.2-0.1c0,0.1,0.1,0.3,0.2,0.3l0.4-0.3c0,0.3-0.1,0.5-0.3,0.7
		c-0.2,0.2-0.3,0.3-0.4,0.3c-0.5,0.5-1.1,0.8-1.4,0.8c-0.2,0-0.2-0.1-0.4-0.2c-0.1-0.1-0.1-0.3-0.1-0.5c0-0.4,0.2-1.4,0.2-1.6
		c0.2-0.9,0.5-1.6,0.8-2.3l-0.2-0.5h0.4c0.2-0.4,0.4-0.8,0.5-1.1c-0.6,0.2-1.1,0.2-1.6,0.2c-0.4,0-0.6-0.1-0.8-0.1
		c-0.2,0-0.2,0-0.2,0.1c0,0,0,0,0,0c0,0,0,0,0,0c0.1,0,0.1,0,0.2,0c0,0,0.1,0,0.1,0c0.2,0.1,0.3,0.2,0.4,0.3l0,0.4c0,0,0,0.2,0,0.3
		c0,0,0,0.1,0.1,0.1l-0.1,0c0,0.1,0,0.3,0,0.4c0,0.1,0,0.3-0.1,0.3c-0.2,0.2-0.4-0.2-0.4-0.2c0,0-0.1-0.1-0.1-0.2c0,0,0,0,0,0
		c0,0,0,0,0,0c0-0.1-0.1-0.1-0.1-0.2c-0.1-0.1-0.1-0.2-0.2-0.3l-0.9,0.5c-0.6,0.8-0.8,1.5-0.8,2.2c0,0.3,0,0.5,0.1,0.8
		c0,0.2,0.1,0.3,0.1,0.5c0,0,0,0,0.1,0.1c0.2,0,0.6,0,1.2-0.4c0.1-0.1,0.6-0.5,0.7-0.5v0.9c0.1,0-0.4,0.3-0.4,0.3
		c-0.5,0.3-1.7,0.6-1.9,0.4l0-0.2c0,0-0.1-0.1-0.2-0.3c-0.1-0.2-0.1-0.4-0.2-0.6c-0.1-0.3-0.1-0.7-0.1-1c0-0.9,0.3-1.9,0.9-2.8
		c0.3-0.3,0.6-0.6,1-0.8c0-0.1,0-0.1,0-0.2c0-0.1,0-0.2,0.1-0.3c0.2-0.5,0.4-0.7,0.8-0.7c0.2,0,0.5,0.1,0.8,0.1
		c0.6,0,1.1-0.1,1.7-0.2c0.1,0,0.2-0.1,0.3-0.1c0.2-0.5,0.5-1,1.1-1c0.1,0,0.2,0,0.3,0.1C337.8,71.5,337.8,72.3,337.5,72.5z"/>
	<path class="st0" d="M339.5,74.6C339.6,74.6,339.6,74.6,339.5,74.6c-0.1,0.2-0.1,0.4-0.2,0.6c-0.3,1.2-0.4,1.5-0.6,2.6
		c-0.1,0.2-0.1,0.4-0.2,0.6c0.3-0.1,0.5-0.2,0.7-0.3l0.3,0.8c-0.4,0.3-0.8,0.4-1,0.5c0,0-0.6,0.5-0.6-0.5c0-0.5,0.2-1,0.2-1.3
		c0.3-1.3,0.3-1.6,0.7-2.7c0,0,0-0.1,0-0.1c-0.3,0.1-0.4,0.1-0.6,0.1V74c0.3,0,0.4,0,0.9-0.2c0.4-0.1,0.4-0.2,0.5-0.1
		C339.7,73.9,339.7,74,339.5,74.6z M340.2,71.5v1.1h0c-0.3,0-0.4,0.1-0.7,0.3h0l-0.3-1h0C339.5,71.8,339.8,71.5,340.2,71.5
		L340.2,71.5z"/>
	<path class="st0" d="M344.4,74.2c0,0.2,0,0.3-0.1,0.5c0,0.5-0.1,1-0.2,1.5c0,0.4-0.1,1.1-0.3,1.6c0.6-0.8-0.3,1.1-1,1.7
		c-0.2,0.2-0.2,0.1-0.5,0.1c-0.3,0-0.7,0-0.7,0c-0.2-0.1-0.6-0.2-0.8-0.4c-0.3-0.2-0.4-0.4-0.4-0.9c0-0.6,0.2-1.2,0.3-1.4
		c0.3-0.9,0.4-1.9,1.2-2.7h0c-0.2-0.1-0.2-0.1,0.2-0.3c0.5-0.2,1-0.2,1.7-0.2h0l0,0.2l0.2-0.2h0C344.3,73.8,344.4,73.9,344.4,74.2z
		 M342.5,78.8c0.2-0.4,0.5-0.6,0.6-0.7c0.2-0.3,0.3-0.7,0.4-1.9c0-0.5,0.1-1,0.1-1.4c0,0,0,0,0-0.1c-0.6,0-1.1,0.1-1.4,0.2l0,0h0
		c-0.6,0.6-0.7,1.4-1,2.3c-0.1,0.3-0.2,0.8-0.3,1.2c0,0.2,0,0.3,0.1,0.3c0,0,0.2,0,0.6,0C341.7,78.7,342.2,78.8,342.5,78.8
		C342.5,78.8,342.5,78.8,342.5,78.8L342.5,78.8z"/>
	<path class="st0" d="M349.2,78.7c0,0.4-0.3,0.5-1.1,0.9c-0.3,0.2-0.6-0.3-0.4-0.6c0.1-0.2,0.2-0.3,0.2-0.4c0.1-0.4,0.2-0.7,0.3-1
		c0.4-1.2,0.8-1.6,0.8-2.7c0-0.1,0-0.1-0.2-0.3c-0.1,0.1-0.3,0.3-0.5,0.6c-0.9,1-1.3,1.4-1.9,2.5c-0.3,0.4-0.5,0.8-0.7,1.1
		c-0.1,0.2-0.1,0.2-0.2,0.3c0,0.1,0,0.1,0,0.2h0c-0.1,0.4-0.6,0.4-0.6,0c0,0,0,0,0-0.1c0,0,0,0,0,0c0,0,0-0.1,0-0.2c0,0,0-0.1,0-0.1
		c0.1-0.4,0.2-0.7,0.2-0.9c0.3-1.1,0.7-2.1,1.1-3c0-0.1,0.1-0.3,0.2-0.5l0,0c-0.2,0.2-1.1,1.2-1.4,1.2h0V75h0c0,0,0.9-0.9,1.1-1
		c0.6-0.4,0.7-0.5,1-0.3c0.2,0.2,0.1,0.7,0,0.8h0c-0.1,0.4-0.1,0.4-0.3,0.8c-0.2,0.4-0.3,0.9-0.5,1.3c0.4-0.7,0.8-1.3,1.4-2
		c0.1-0.1,0.7-1,1-1h0l0.2,0.2c0.2,0.2,0.6,0.4,0.6,1.1c0,1.4-0.5,2-0.9,3c-0.1,0.2-0.1,0.4-0.2,0.5c0,0,0,0,0,0
		c0.2-0.5,0.8-1.5,0.8-1.3h0.6C350.1,77.5,349.4,78.6,349.2,78.7z"/>
</g>
<g>
	<path class="st0" d="M320.1,173c0.1,0,0.2,0.3,0.3,0.3c0.4,0.3,0.7,0.7,1.2,0.9c0.2,0.1,0.5,0.1,1.2,0.1c0.5,0,0.8-0.1,1-0.3
		c0.2-0.2,0.4-0.5,0.4-0.8c0-0.3,0.1-0.5-0.8-1.1c-0.8-0.6-1.9-0.5-2.8-2c-0.2-0.3-0.3-0.5-0.3-0.8c0-0.7,0.3-1.1,0.9-1.3
		c0.5-0.2,1-0.3,1.4-0.3c0.6,0,1.1,0.2,1.7,0.6l-0.4,0.7c-0.5-0.3-0.9-0.4-1.4-0.4c-0.4,0-0.8,0.1-1.2,0.2c-0.4,0.2-0.5,0.2-0.5,0.5
		c0,0.1,0,0.1,0.2,0.3c0.6,1.1,1.5,0.8,2.7,1.7c0.9,0.7,1.1,1.5,1.1,1.8c0,0.5-0.3,1.2-0.6,1.4c-0.5,0.4-0.8,0.5-1.4,0.5
		c-0.6,0-1-0.1-1.4-0.2c-0.5-0.2-1-0.7-1.4-1.1l-0.1-0.2L320.1,173z"/>
	<path class="st0" d="M326.9,173c0,0-0.1,0.1-0.2,0.1c0,0.3,0,0.4,0.1,0.6c0,0.1,0.3,0.4,0.6,0.6l0.1,0.1c0.1,0,0.3,0.1,0.6,0.1
		c0.1,0,0.2,0,0.2,0l0.7-0.8l0.5,0.6l-0.8,0.9h0c-0.1,0.1-0.3,0.2-0.5,0.2c-0.4,0-0.7-0.1-0.9-0.2c-0.3-0.2-0.6-0.6-0.8-0.9l0,0
		c-0.1-0.2-0.2-0.5-0.2-0.9c-0.2,0.1-0.3,0.1-0.4,0.1h0v-0.9h0c0,0,0.2-0.1,0.4-0.1c0.1-1.2,0.6-2.5,1.1-2.9
		c0.1-0.1,0.2-0.1,0.5-0.2c0.1,0,0.2,0,0.3,0c0.5,0,1,0.6,1.3,1c0.2,0.2,0.3,0.4,0.2,0.6c-0.1,0.2-0.2,0.3-0.3,0.4
		C328.6,172,327.8,172.5,326.9,173z M326.7,172.1c0.7-0.3,1.3-0.6,2-1.5c0,0,0,0,0,0c-0.2-0.2-0.5-0.5-0.8-0.5c-0.1,0-0.2,0-0.3,0
		c-0.2,0-0.2-0.1-0.2-0.2C327.2,170.3,326.9,171.3,326.7,172.1z"/>
	<path class="st0" d="M337.5,168.2l-1,0.5c0,0.1-0.1,0.2-0.1,0.3c-0.2,0.4-0.3,0.8-0.5,1.1h0.5c0.3,0,0.2,0,0.5,0c0.1,0,0.3,0,0.5,0
		l0.1,0.3c0,0-0.1,0-0.1,0l0,0.4c-0.1,0-0.3,0-0.4,0h-0.5c-0.3,0-0.6,0-0.8,0c-0.4,0.7-0.7,1.5-0.9,2.3c0,0.2-0.2,0.9-0.2,1.3
		c0.3,0,0.9-0.5,1-0.6c0.2-0.1,0.3-0.2,0.3-0.3c0.2-0.2,0.2-0.2,0.2-0.1c0,0.1,0.1,0.3,0.2,0.3l0.4-0.3c0,0.3-0.1,0.5-0.3,0.7
		c-0.2,0.2-0.3,0.3-0.4,0.3c-0.5,0.5-1.1,0.8-1.4,0.8c-0.2,0-0.2-0.1-0.4-0.2c-0.1-0.1-0.1-0.3-0.1-0.5c0-0.4,0.2-1.4,0.2-1.6
		c0.2-0.9,0.5-1.6,0.8-2.3l-0.2-0.5h0.4c0.2-0.4,0.4-0.8,0.5-1.1c-0.6,0.2-1.1,0.2-1.6,0.2c-0.4,0-0.6-0.1-0.8-0.1
		c-0.2,0-0.2,0-0.2,0.1c0,0,0,0,0,0c0,0,0,0,0,0c0.1,0,0.1,0,0.2,0c0,0,0.1,0,0.1,0c0.2,0.1,0.3,0.2,0.4,0.3l0,0.4c0,0,0,0.2,0,0.3
		c0,0,0,0.1,0.1,0.1l-0.1,0c0,0.1,0,0.3,0,0.4c0,0.1,0,0.3-0.1,0.3c-0.2,0.2-0.4-0.2-0.4-0.2c0,0-0.1-0.1-0.1-0.2c0,0,0,0,0,0
		c0,0,0,0,0,0c0-0.1-0.1-0.1-0.1-0.2c-0.1-0.1-0.1-0.2-0.2-0.3l-0.9,0.5c-0.6,0.8-0.8,1.5-0.8,2.2c0,0.3,0,0.5,0.1,0.8
		c0,0.2,0.1,0.3,0.1,0.5c0,0,0,0,0.1,0.1c0.2,0,0.6,0,1.2-0.4c0.1-0.1,0.6-0.5,0.7-0.5v0.9c0.1,0-0.4,0.3-0.4,0.3
		c-0.5,0.3-1.7,0.6-1.9,0.4l0-0.2c0,0-0.1-0.1-0.2-0.3c-0.1-0.2-0.1-0.4-0.2-0.6c-0.1-0.3-0.1-0.7-0.1-1c0-0.9,0.3-1.9,0.9-2.8
		c0.3-0.3,0.6-0.6,1-0.8c0-0.1,0-0.1,0-0.2c0-0.1,0-0.2,0.1-0.3c0.2-0.5,0.4-0.7,0.8-0.7c0.2,0,0.5,0.1,0.8,0.1
		c0.6,0,1.1-0.1,1.7-0.2c0.1,0,0.2-0.1,0.3-0.1c0.2-0.5,0.5-1,1.1-1c0.1,0,0.2,0,0.3,0.1C337.8,167.2,337.8,168,337.5,168.2z"/>
	<path class="st0" d="M339.5,170.2C339.6,170.3,339.6,170.2,339.5,170.2c-0.1,0.2-0.1,0.4-0.2,0.6c-0.3,1.2-0.4,1.5-0.6,2.6
		c-0.1,0.2-0.1,0.4-0.2,0.6c0.3-0.1,0.5-0.2,0.7-0.3l0.3,0.8c-0.4,0.3-0.8,0.4-1,0.5c0,0-0.6,0.5-0.6-0.5c0-0.5,0.2-1,0.2-1.3
		c0.3-1.3,0.3-1.6,0.7-2.7c0,0,0-0.1,0-0.1c-0.3,0.1-0.4,0.1-0.6,0.1v-0.9c0.3,0,0.4,0,0.9-0.2c0.4-0.1,0.4-0.2,0.5-0.1
		C339.7,169.6,339.7,169.7,339.5,170.2z M340.2,167.2v1.1h0c-0.3,0-0.4,0.1-0.7,0.3h0l-0.3-1h0C339.5,167.4,339.8,167.2,340.2,167.2
		L340.2,167.2z"/>
	<path class="st0" d="M344.4,169.9c0,0.2,0,0.3-0.1,0.5c0,0.5-0.1,1-0.2,1.5c0,0.4-0.1,1.1-0.3,1.6c0.6-0.8-0.3,1.1-1,1.7
		c-0.2,0.2-0.2,0.1-0.5,0.1c-0.3,0-0.7,0-0.7,0c-0.2-0.1-0.6-0.2-0.8-0.4c-0.3-0.2-0.4-0.4-0.4-0.9c0-0.6,0.2-1.2,0.3-1.4
		c0.3-0.9,0.4-1.9,1.2-2.7h0c-0.2-0.1-0.2-0.1,0.2-0.3c0.5-0.2,1-0.2,1.7-0.2h0l0,0.2l0.2-0.2h0
		C344.3,169.5,344.4,169.6,344.4,169.9z M343.1,173.7c0.2-0.3,0.3-0.7,0.4-1.9c0-0.5,0.1-1,0.1-1.4c0,0,0,0,0-0.1
		c-0.6,0-1.1,0.1-1.4,0.2l0,0h0c-0.6,0.6-0.7,1.4-1,2.3c-0.1,0.3-0.2,0.8-0.3,1.2c0,0.2,0,0.3,0.1,0.3c0,0,0.2,0,0.6,0
		c0,0,0.5,0,0.7,0c0,0,0,0,0.1,0C342.8,174.1,343.1,173.9,343.1,173.7z"/>
	<path class="st0" d="M349.2,174.4c0,0.4-0.3,0.5-1.1,0.9c-0.3,0.2-0.6-0.3-0.4-0.6c0.1-0.2,0.2-0.3,0.2-0.4c0.1-0.4,0.2-0.7,0.3-1
		c0.4-1.2,0.8-1.6,0.8-2.7c0-0.1,0-0.1-0.2-0.3c-0.1,0.1-0.3,0.3-0.5,0.6c-0.9,1-1.3,1.4-1.9,2.5c-0.3,0.4-0.5,0.8-0.7,1.1
		c-0.1,0.2-0.1,0.2-0.2,0.3c0,0.1,0,0.1,0,0.2h0c-0.1,0.4-0.6,0.4-0.6,0c0,0,0,0,0-0.1c0,0,0,0,0,0c0,0,0-0.1,0-0.2c0,0,0-0.1,0-0.1
		c0.1-0.4,0.2-0.7,0.2-0.9c0.3-1.1,0.7-2.1,1.1-3c0-0.1,0.1-0.3,0.2-0.5l0,0c-0.2,0.2-1.1,1.2-1.4,1.2h0v-0.7h0c0,0,0.9-0.9,1.1-1
		c0.6-0.4,0.7-0.5,1-0.3c0.2,0.2,0.1,0.7,0,0.8h0c-0.1,0.4-0.1,0.4-0.3,0.8c-0.2,0.4-0.3,0.9-0.5,1.3c0.4-0.7,0.8-1.3,1.4-2
		c0.1-0.1,0.7-1,1-1h0l0.2,0.2c0.2,0.2,0.6,0.4,0.6,1.1c0,1.4-0.5,2-0.9,3c-0.1,0.2-0.1,0.4-0.2,0.5c0,0,0,0,0,0
		c0.2-0.5,0.8-1.5,0.8-1.3h0.6C350.1,173.2,349.4,174.3,349.2,174.4z"/>
</g>
<rect x="311.5" y="159.3" class="st1" width="114.8" height="61.8"/>
<rect x="20.8" y="63.6" class="st1" width="259.7" height="159.5"/>
</svg>
