<?xml version="1.0" encoding="utf-8"?>
<!-- Generator: Adobe Illustrator 23.1.1, SVG Export Plug-In . SVG Version: 6.00 Build 0)  -->
<svg version="1.1" id="Calque_1" xmlns="http://www.w3.org/2000/svg" xmlns:xlink="http://www.w3.org/1999/xlink" x="0px" y="0px"
	 viewBox="0 0 1200 630" style="enable-background:new 0 0 1200 630;" xml:space="preserve">
<style type="text/css">
	.st0{fill:none;stroke:#000000;stroke-width:6;stroke-miterlimit:10;}
</style>
<g>
	<g>
		<line class="st0" x1="530.8" y1="127.8" x2="530.8" y2="290.8"/>
	</g>
	<g>
		<path d="M724.8,133.8v151H475.2v-151H724.8 M730.8,127.8H469.2v163h261.6L730.8,127.8L730.8,127.8z"/>
	</g>
</g>
<g>
	<g>
		<path d="M413.2,133.8v151H163.6v-151H413.2 M419.2,127.8H157.6v163h261.6V127.8L419.2,127.8z"/>
	</g>
	<line class="st0" x1="157.6" y1="163.7" x2="419.2" y2="163.7"/>
</g>
<g>
	<g>
		<path d="M1036.4,133.8v151H786.8v-151H1036.4 M1042.4,127.8H780.8v163h261.6V127.8L1042.4,127.8z"/>
	</g>
	<line class="st0" x1="780.8" y1="163.7" x2="1042.4" y2="163.7"/>
	<line class="st0" x1="911.6" y1="290.8" x2="911.6" y2="163.7"/>
</g>
<g>
	<g>
		<g>
			<path d="M569,345.2v151H319.4v-151H569 M575,339.2H313.4v163H575V339.2L575,339.2z"/>
		</g>
		<g>
			<rect x="334.6" y="397.1" width="57.9" height="47.1"/>
			<rect x="406.9" y="397.1" width="57.9" height="47.1"/>
			<rect x="479.2" y="397.1" width="57.9" height="47.1"/>
			<rect x="551.5" y="397.1" width="20.5" height="47.1"/>
		</g>
	</g>
	<g>
		<g>
			<path d="M880.6,345.2v151H631v-151H880.6 M886.6,339.2H625v163h261.6V339.2L886.6,339.2z"/>
		</g>
		<g>
			<rect x="640.8" y="354.6" width="69.7" height="60.8"/>
			<rect x="721.4" y="354.6" width="69.7" height="60.8"/>
			<rect x="801.1" y="354.6" width="69.7" height="60.8"/>
			<rect x="640.8" y="425.9" width="69.7" height="60.8"/>
			<rect x="721.4" y="425.9" width="149.5" height="60.8"/>
		</g>
	</g>
</g>
</svg>
