<?xml version="1.0" encoding="UTF-8" standalone="no"?>
<!-- Created with Inkscape (http://www.inkscape.org/) -->
<svg width="50mm" height="50mm" viewBox="0 0 50 50" version="1.1" id="svg572" inkscape:version="1.2.2 (1:1.2.2+202212051552+b0a8486541)" sodipodi:docname="ANTIFA-INFRA.svg" xmlns:inkscape="http://www.inkscape.org/namespaces/inkscape" xmlns:sodipodi="http://sodipodi.sourceforge.net/DTD/sodipodi-0.dtd" xmlns="http://www.w3.org/2000/svg" xmlns:svg="http://www.w3.org/2000/svg">
  <sodipodi:namedview id="namedview574" pagecolor="#ffffff" bordercolor="#000000" borderopacity="0.25" inkscape:showpageshadow="2" inkscape:pageopacity="0.0" inkscape:pagecheckerboard="0" inkscape:deskcolor="#d1d1d1" inkscape:document-units="mm" showgrid="false" inkscape:zoom="1.2598564" inkscape:cx="196.0541" inkscape:cy="207.56335" inkscape:window-width="2472" inkscape:window-height="1392" inkscape:window-x="2000" inkscape:window-y="40" inkscape:window-maximized="0" inkscape:current-layer="path3152"/>
  <defs id="defs569"/>
  <g inkscape:label="Layer 1" inkscape:groupmode="layer" id="layer1">
    <g id="g779" transform="translate(0.19289,133.24192)">
      <g id="g2278" transform="translate(0.06092493,-9.1454998)">
        <g id="g773" inkscape:label="RING" transform="matrix(0.20539612,0,0,0.20539612,0.12952659,-123.64812)" style="stroke-width:4.86866">
          <path id="circle769" style="display:inline;fill:#ffffff;fill-opacity:1;stroke:none;stroke-width:104.188" d="M 225.07384,120.68894 A 104.76437,104.76437 0 0 1 120.30947,225.45332 104.76437,104.76437 0 0 1 15.545097,120.68894 104.76437,104.76437 0 0 1 120.30947,15.924568 104.76437,104.76437 0 0 1 225.07384,120.68894 Z"/>
          <path style="color:#000000;fill:#000000;stroke-width:4.86866;-inkscape-stroke:none" d="M 120.30859,5.2246094 C 56.666182,5.2246076 4.8457019,57.047042 4.8457031,120.68945 c -6e-6,63.64242 51.8204759,115.4629 115.4628869,115.46289 63.64242,0 115.46485,-51.82047 115.46485,-115.46289 0,-63.642407 -51.82244,-115.4648406 -115.46485,-115.4648406 z m 0,21.4003906 c 52.07701,0 94.06446,41.98745 94.06446,94.06445 0,52.07701 -41.98745,94.06446 -94.06446,94.06446 -52.077004,0 -94.064454,-41.98745 -94.064449,-94.06446 C 26.24414,68.612449 68.231589,26.624999 120.30859,26.625 Z" id="path1526"/>
        </g>
        <g aria-label="ANTIFA                                       INFRA" transform="matrix(0.20539612,0,0,0.20539612,0.1295259,-123.64812)" id="text777" style="font-weight:bold;font-size:17.6389px;font-family:'DejaVu Sans';-inkscape-font-specification:'DejaVu Sans, Bold';display:inline;fill:#ffffff;fill-opacity:0.998311;stroke-width:104.188">
          <path d="m 35.468569,67.107094 -2.650372,4.45628 1.595221,1.900743 -1.703811,2.864751 -8.617225,-10.666658 2.020798,-3.397728 13.486514,2.47954 -1.703811,2.864751 z m -4.278202,2.52612 1.800668,-3.027605 -5.295193,-1.10505 z" style="display:inline;stroke-width:104.188" id="path758"/>
          <path d="m 30.655444,55.266505 2.333089,-2.876189 9.795545,1.923982 -6.849343,-5.556006 1.980413,-2.441416 9.986395,8.1007 -2.333088,2.876189 -9.795546,-1.923982 6.849343,5.556007 -1.980412,2.441416 z" style="display:inline;stroke-width:104.188" id="path760"/>
          <path d="m 40.28777,43.754423 8.658847,-8.091589 1.71123,1.831195 -3.11492,2.910855 7.06838,7.563905 -2.422715,2.263999 -7.06838,-7.563906 -3.121212,2.916736 z" style="display:inline;stroke-width:104.188" id="path762"/>
          <path d="m 51.324893,33.911211 2.627556,-2.022669 7.843751,10.189457 -2.627556,2.022668 z" style="display:inline;stroke-width:104.188" id="path764"/>
          <path d="m 57.458556,29.329305 7.528209,-4.837794 1.354955,2.108478 -4.738642,3.045156 1.294425,2.014285 4.456062,-2.863564 1.354955,2.108478 -4.456062,2.863565 2.947376,4.586483 -2.789568,1.792638 z" style="display:inline;stroke-width:104.188" id="path766"/>
          <path d="m 78.903448,29.288987 -4.667457,2.257818 0.283586,2.465185 -3.000509,1.451455 -1.311992,-13.649647 3.558742,-1.721493 9.887088,9.501561 -3.000508,1.451455 z m -4.962041,-0.249883 3.171079,-1.533967 -3.809477,-3.840323 z" style="display:inline;stroke-width:104.188" id="path768"/>
          <path d="m 217.0141,174.84199 -1.66111,2.86983 -11.12898,-6.44169 1.66112,-2.86983 z" style="display:inline;stroke-width:104.188" id="path770"/>
          <path d="m 212.99785,181.72523 -2.19169,2.98534 -9.87692,-1.44942 7.10927,5.21928 -1.86039,2.53407 -10.36538,-7.60976 2.19169,-2.98534 9.87693,1.44943 -7.10928,-5.21929 1.86039,-2.53406 z" style="display:inline;stroke-width:104.188" id="path772"/>
          <path d="m 202.86542,194.7882 -6.23544,6.41852 -1.79768,-1.74641 3.92491,-4.04014 -1.71737,-1.66839 -3.69086,3.79922 -1.79768,-1.74641 3.69086,-3.79921 -3.91042,-3.79889 2.31054,-2.37837 z" style="display:inline;stroke-width:104.188" id="path774"/>
          <path d="m 185.85932,202.89866 q -0.81803,0.64566 -0.92947,1.22736 -0.11819,0.58704 0.43142,1.28339 0.54428,0.68958 1.13737,0.70424 0.58634,0.02 1.40438,-0.62566 l 1.09522,-0.86444 -2.04369,-2.58932 z m -0.32415,-2.66276 -3.01485,-3.81976 2.60284,-2.05437 7.96668,10.09364 -3.97526,3.13757 q -1.99439,1.57413 -3.44886,1.63586 -1.46123,0.0671 -2.60314,-1.37971 -0.78973,-1.00057 -0.80989,-2.02703 -0.0269,-1.02112 0.7065,-2.09373 -0.63014,0.29985 -1.39081,0.198 -0.76209,-0.0897 -1.88311,-0.62036 l -3.67545,-1.75129 2.77186,-2.18777 3.2101,1.53705 q 0.96947,0.46371 1.57361,0.43674 0.59737,-0.0216 1.23287,-0.52322 z" style="display:inline;stroke-width:104.188" id="path776"/>
          <path d="m 168.76213,208.5637 4.47643,-2.61621 -0.47567,-2.43542 2.8777,-1.68185 2.37631,13.50508 -3.41308,1.99475 -10.60044,-8.69856 2.8777,-1.68185 z m 4.96638,-0.13926 -3.04129,1.77746 4.09837,3.53038 z" style="display:inline;stroke-width:104.188" id="path778"/>
        </g>
        <g id="path3152" inkscape:label="DB" transform="matrix(0.24058892,0,0,0.24058892,50.871256,-78.294784)" style="stroke-width:4.15648">
          <path id="path998" style="color:#000000;fill:#000000;fill-opacity:0.998311;stroke-width:14.2965;-inkscape-stroke:none" d="m -92.535501,-128.73829 c -12.053989,0.002 -23.051819,1.88642 -31.322689,5.0485 -4.13544,1.58103 -7.59533,3.47816 -10.17569,5.69726 -2.14162,1.84177 -3.65278,3.95976 -4.33186,6.28644 l -0.87762,1e-4 v 2.55726 65.922914 c 0,3.031806 1.54434,5.826571 4.02013,8.179559 2.47579,2.352989 5.91353,4.360058 10.08584,6.037262 8.34463,3.354403 19.66586,5.372628 32.167033,5.372628 12.5012,0 23.823949,-2.018225 32.168569,-5.372628 4.172314,-1.677204 7.608073,-3.684273 10.083846,-6.037262 2.475783,-2.352988 4.020645,-5.147753 4.020645,-8.179559 v -65.922914 l 0.01676,-3.57206 c -0.338226,-1.16311 -2.599172,-3.81765 -4.349086,-5.27918 -2.984055,-2.49229 -6.043127,-4.11356 -10.179651,-5.69379 -8.27306,-3.16048 -19.273266,-5.04432 -31.32622,-5.04453 z" inkscape:label="fill" sodipodi:nodetypes="csccccsssssssccasc"/>
          <path id="path3161" style="color:#000000;fill:#ffffff;fill-opacity:0.998311;stroke-width:14.2965;-inkscape-stroke:none" d="m -108.95685,-140.16899 c -12.0183,0.002 -22.9836,1.88086 -31.23,5.03356 -4.12318,1.57635 -7.57284,3.46788 -10.14556,5.68038 -2.13527,1.83633 -3.64197,3.94803 -4.31902,6.26782 h -0.44147 v 2.54969 65.727717 c 0,3.022829 1.53979,5.809319 4.00825,8.155341 2.46845,2.346021 5.89602,4.347146 10.05597,6.019383 8.31991,3.344473 19.60766,5.356722 32.07183,5.356722 12.464185,0 23.753407,-2.012249 32.073319,-5.356722 4.159961,-1.672237 7.585549,-3.673362 10.053991,-6.019383 2.468452,-2.346022 4.008741,-5.132512 4.008741,-8.155341 v -65.727717 -2.55908 h -0.428591 c -0.679431,-2.31923 -2.187702,-4.43022 -4.324484,-6.26584 -2.574527,-2.21169 -6.025234,-4.10137 -10.149512,-5.67692 -8.248564,-3.15114 -19.2162,-5.02939 -31.233464,-5.02961 z" inkscape:label="fill"/>
          <g id="g3170" inkscape:label="strokes" transform="matrix(0.95769991,0,0,0.95767627,-162.24258,-34.311813)" style="stroke-width:4.34011">
            <path id="path2252" style="color:#000000;fill:#ff0000;stroke-width:4.34011;-inkscape-stroke:none" d="m 55.638813,-111.76364 c -13.148168,0 -25.059312,2.10845 -33.947353,5.68145 -4.444019,1.7865 -8.147294,3.93185 -10.886757,6.535533 -2.4957219,2.372023 -4.230579,5.267387 -4.5204478,8.462517 h -0.047908 v 23.103547 46.472901 c 5e-7,3.569301 1.8288925,6.802286 4.5683558,9.405971 2.739463,2.6036844 6.442738,4.7467305 10.886757,6.5332286 8.888041,3.5729963 20.799185,5.68375271 33.947353,5.68375265 13.148169,0 25.061156,-2.11075635 33.949196,-5.68375265 4.44402,-1.7864981 8.147294,-3.9295442 10.886761,-6.5332286 2.73946,-2.603685 4.56605,-5.83667 4.56605,-9.405971 v -46.472901 -23.111378 h -0.0484 c -0.2917,-3.192036 -2.02399,-6.084596 -4.51768,-8.454686 -2.739467,-2.603683 -6.44274,-4.749033 -10.88676,-6.535533 -8.888041,-3.573 -20.801027,-5.68145 -33.949196,-5.68145 z m 0,5.89658 c 12.507641,0 23.822723,2.07179 31.747706,5.25764 3.962491,1.592925 7.063762,3.471251 9.025695,5.335943 1.961932,1.86469 2.732169,3.545268 2.732169,5.13279 0,1.587523 -0.770237,3.266258 -2.732169,5.130948 -1.961933,1.864692 -5.063204,3.744866 -9.025695,5.33779 -7.924983,3.185846 -19.240065,5.258093 -31.747706,5.258093 -12.50764,0 -23.823183,-2.072247 -31.748166,-5.258093 -3.962492,-1.592924 -7.06146,-3.473098 -9.023391,-5.33779 -1.961932,-1.86469 -2.734474,-3.543425 -2.734473,-5.130948 -10e-7,-1.587522 0.772541,-3.2681 2.734473,-5.13279 1.961931,-1.864692 5.060899,-3.743018 9.023391,-5.335943 7.924983,-3.18585 19.240526,-5.25764 31.748166,-5.25764 z m -43.50603,26.295537 c 2.565518,2.087597 5.795132,3.857549 9.558677,5.370496 8.888041,3.572997 20.799185,5.683292 33.947353,5.683292 13.148169,0 25.061155,-2.110295 33.949196,-5.683292 3.762612,-1.512571 6.991161,-3.282193 9.556374,-5.369114 v 11.589548 c 0,1.587523 -0.770237,3.2681 -2.732169,5.132791 -1.961933,1.86469 -5.063204,3.745326 -9.025695,5.33825 -7.924983,3.185847 -19.240065,5.255789 -31.747706,5.255789 -12.50764,0 -23.823183,-2.069942 -31.748166,-5.255789 -3.962491,-1.592924 -7.061459,-3.47356 -9.023391,-5.33825 -1.961933,-1.864691 -2.734473,-3.545268 -2.734473,-5.132791 z m 0,22.160094 c 2.565534,2.088062 5.795083,3.859372 9.558677,5.372339 8.888041,3.572995 20.799185,5.681449 33.947353,5.681449 13.148169,0 25.061156,-2.108454 33.949196,-5.681449 3.762552,-1.512548 6.991181,-3.283189 9.556374,-5.370497 v 13.089492 c 0,1.587522 -0.770237,3.265796 -2.732169,5.130487 -1.961933,1.86469 -5.063204,3.745327 -9.025695,5.33825 -7.924983,3.185846 -19.240065,5.257633 -31.747706,5.257633 -12.50764,0 -23.823183,-2.071787 -31.748166,-5.257633 -3.962491,-1.592923 -7.061459,-3.47356 -9.023391,-5.33825 -1.961933,-1.864691 -2.734473,-3.542965 -2.734473,-5.130487 z m 0,23.660037 c 2.565518,2.087597 5.795132,3.857549 9.558677,5.370496 8.888041,3.572996 20.799185,5.683753 33.947353,5.683753 13.148169,0 25.061156,-2.110757 33.949196,-5.683753 3.762612,-1.512572 6.991161,-3.282193 9.556374,-5.369114 v 12.242318 c 0,1.587523 -0.770237,3.266257 -2.732169,5.130948 -1.961933,1.86469 -5.063204,3.744866 -9.025695,5.337789 -7.924983,3.1858478 -19.240065,5.2576328 -31.747706,5.2576328 -12.50764,0 -23.823183,-2.071785 -31.748166,-5.2576328 -3.962491,-1.592923 -7.061459,-3.473099 -9.023391,-5.337789 -1.961933,-1.864691 -2.734473,-3.543425 -2.734473,-5.130948 z"/>
          </g>
        </g>
      </g>
    </g>
  </g>
</svg>