<?xml version="1.0" encoding="UTF-8" standalone="no"?>
<!-- Created with Inkscape (http://www.inkscape.org/) -->
<svg width="50mm" height="50mm" viewBox="0 0 50 50" version="1.1" id="svg585" inkscape:version="1.2.2 (1:1.2.2+202212051552+b0a8486541)" sodipodi:docname="BOLT.svg" xmlns:inkscape="http://www.inkscape.org/namespaces/inkscape" xmlns:sodipodi="http://sodipodi.sourceforge.net/DTD/sodipodi-0.dtd" xmlns="http://www.w3.org/2000/svg" xmlns:svg="http://www.w3.org/2000/svg">
  <sodipodi:namedview id="namedview587" pagecolor="#ffffff" bordercolor="#000000" borderopacity="0.25" inkscape:showpageshadow="2" inkscape:pageopacity="0.0" inkscape:pagecheckerboard="0" inkscape:deskcolor="#d1d1d1" inkscape:document-units="mm" showgrid="false" inkscape:zoom="3.5634119" inkscape:cx="150.27732" inkscape:cy="128.94945" inkscape:window-width="2472" inkscape:window-height="1392" inkscape:window-x="2000" inkscape:window-y="40" inkscape:window-maximized="0" inkscape:current-layer="g911"/>
  <defs id="defs582"/>
  <g inkscape:label="Layer 1" inkscape:groupmode="layer" id="layer1">
    <g id="g757" transform="translate(21.279888,140.36992)">
      <g id="g4623" inkscape:label="RING" transform="translate(-61.993357,-186.21486)"/>
      <g id="g911" transform="matrix(0.2006939,0,0,0.2006939,-8.0181919,-102.40671)" style="stroke-width:4.98272">
        <path style="stroke-width:4.98272;color:#000000;fill:#fdfdfd;-inkscape-stroke:none;fill-opacity:1" d="m 58.315229,-167.25696 c 56.321751,0 101.731551,45.40981 101.731551,101.731544 0,56.3217501 -45.4098,101.731551 -101.731551,101.731551 -56.3217435,0 -101.731544,-45.4098009 -101.731539,-101.731551 -10e-7,-56.321744 45.4097988,-101.731544 101.731539,-101.731544 z" id="path913" sodipodi:nodetypes="sssss" inkscape:label="back" transform="translate(1.453291e-7)"/>
        <path d="m 27.686384,-34.984059 q 0,3.880909 -2.758133,6.639039 -2.73372,2.73372 -6.614627,2.73372 H -8.2425283 q -4.5155227,0 -7.7374087,-3.197476 -3.197478,-3.221888 -3.197478,-7.737408 0,-3.221888 1.732985,-5.882383 1.732983,-2.684908 4.564338,-4.002949 -0.04882,-0.68343 -0.04882,-1.049555 0,-5.174544 3.6612357,-8.835778 3.6612335,-3.661237 8.83577684,-3.661237 3.85650236,0 6.98075216,2.147924 3.1486627,2.147924 4.5887473,5.613893 1.708575,-1.51331 4.051765,-1.51331 2.587273,0 4.417889,1.830619 1.830618,1.830615 1.830618,4.417889 0,1.830616 -1.000739,3.368335 3.148663,0.732245 5.198953,3.29511 2.050293,2.538458 2.050293,5.833567 z" id="path4613" inkscape:label="cloud" style="font-size:143.282px;font-family:forkawesome;-inkscape-font-specification:'forkawesome, Normal';display:inline;fill:#000000;fill-opacity:0.998311;stroke-width:106.63"/>
        <path d="m 111.6155,-2.0566755 q 0,3.8809089 -2.75813,6.6390389 -2.73372,2.7337199 -6.61463,2.7337199 H 75.686588 q -4.515522,0 -7.737408,-3.1974759 -3.197478,-3.22188783 -3.197478,-7.7374078 0,-3.221888 1.732985,-5.882383 1.732983,-2.6849076 4.564338,-4.0029486 -0.04882,-0.68343 -0.04882,-1.049555 0,-5.174544 3.661235,-8.835778 3.661234,-3.661237 8.835778,-3.661237 3.856502,0 6.980752,2.147924 3.148663,2.147924 4.588748,5.613893 1.708575,-1.51331 4.051764,-1.51331 2.587278,0 4.417888,1.830619 1.83062,1.830615 1.83062,4.417889 0,1.830616 -1.00074,3.368335 3.14866,0.732245 5.19895,3.2951096 2.05029,2.538458 2.05029,5.8335669 z" id="path4631" inkscape:label="cloud" style="font-size:143.282px;font-family:forkawesome;-inkscape-font-specification:'forkawesome, Normal';display:inline;fill:#000000;fill-opacity:0.998311;stroke-width:106.63"/>
        <path d="m 142.06326,-62.687859 q 0,3.880909 -2.75813,6.639039 -2.73372,2.73372 -6.61463,2.73372 h -26.55615 q -4.51552,0 -7.73741,-3.197476 -3.197478,-3.221888 -3.197478,-7.737408 0,-3.221888 1.732985,-5.882383 1.732983,-2.684908 4.564333,-4.002949 -0.0488,-0.68343 -0.0488,-1.049555 0,-5.174544 3.66124,-8.835778 3.66124,-3.661237 8.83578,-3.661237 3.8565,0 6.98075,2.147924 3.14867,2.147924 4.58875,5.613893 1.70858,-1.51331 4.05176,-1.51331 2.58728,0 4.41789,1.830619 1.83062,1.830615 1.83062,4.417889 0,1.830616 -1.00074,3.368335 3.14867,0.732245 5.19896,3.29511 2.05029,2.538458 2.05029,5.833567 z" id="path4633" inkscape:label="cloud" style="font-size:143.282px;font-family:forkawesome;-inkscape-font-specification:'forkawesome, Normal';display:inline;fill:#000000;fill-opacity:0.998311;stroke-width:106.63"/>
        <path id="path5467" style="font-size:21.1667px;font-family:forkawesome;-inkscape-font-specification:'forkawesome, Normal';white-space:pre;inline-size:40.1021;fill-opacity:0.998311;stroke:none;stroke-width:26.3669;stroke-opacity:1" inkscape:label="bolt" d="m 74.197704,-165.21784 -15.834131,42.61819 9.377206,-2.32131 12.960404,-34.83674 c 0.303352,-0.60666 0.455269,-1.15224 0.455269,-1.63763 0,-1.03138 -0.394689,-1.91156 -1.18339,-2.63963 -0.788701,-0.78869 -1.759249,-1.18288 -2.911967,-1.18288 z m 22.903556,52.23207 c -0.242698,0 -0.60659,0.0607 -1.091923,0.1819 l -2.713013,0.67128 -45.97187,98.499928 -0.03927,0.07596 c -0.438438,0.84315 -1.064831,1.603145 -1.807642,2.247408 l -1.613854,6.6182008 c -0.242641,0.9707066 -0.121014,1.8812121 0.364318,2.7305826 0.546024,0.8493654 1.33437,1.4252245 2.365747,1.72857664 0.60668,0.12132051 1.031649,0.1824178 1.274341,0.1824178 1.759413,0 3.033288,-0.758583 3.821989,-2.27531324 L 100.8323,-107.61659 c 0.66737,-1.4561 0.45487,-2.79053 -0.63717,-4.00389 -0.910035,-0.91006 -1.941155,-1.36529 -3.09387,-1.36529 z m -48.646126,27.134262 -27.353368,6.804752 -1.353923,5.556767 c -0.303347,1.45605 0.09083,2.63908 1.182874,3.549137 0.788701,0.667365 1.728969,1.000973 2.821016,1.000973 0.485338,0 0.849748,-0.03034 1.09244,-0.09095 l 20.769791,-5.166609 z" sodipodi:nodetypes="ccccscscsccccccccscccsccccsccc"/>
        <path d="m 92.268677,-124.68447 q 1.638074,1.82004 0.63701,4.00419 L 43.763494,-15.388602 q -1.183053,2.275099 -3.822175,2.275099 -0.364038,0 -1.274058,-0.181981 -1.547068,-0.455029 -2.366104,-1.72908 -0.728001,-1.274058 -0.364039,-2.730119 l 17.927804,-73.531309 -36.947655,9.191416 q -0.364038,0.09091 -1.092046,0.09091 -1.638074,0 -2.821126,-1.001049 -1.638074,-1.365087 -1.183052,-3.549164 L 30.112862,-161.6322 q 0.364039,-1.27409 1.456062,-2.09308 1.092047,-0.81907 2.548116,-0.81907 h 29.849333 q 1.72908,0 2.912132,1.18303 1.183052,1.09211 1.183052,2.63918 0,0.72808 -0.455029,1.63806 l -15.561699,42.13487 36.037612,-8.91837 q 0.728,-0.18183 1.092046,-0.18183 1.72908,0 3.094144,1.36509 z" style="font-size:21.1667px;font-family:forkawesome;-inkscape-font-specification:'forkawesome, Normal';white-space:pre;inline-size:40.1021;fill:#ff0000;fill-opacity:0.998311;stroke:none;stroke-width:26.3669;stroke-opacity:1" id="path5487" inkscape:label="bolt"/>
        <path style="color:#000000;fill:#000000;stroke-width:4.98272;-inkscape-stroke:none" d="M 120.30859,5.2246094 C 56.666182,5.2246076 4.8457019,57.047042 4.8457031,120.68945 c -6e-6,63.64242 51.8204759,115.4629 115.4628869,115.46289 63.64242,0 115.46485,-51.82047 115.46485,-115.46289 0,-63.642407 -51.82244,-115.4648406 -115.46485,-115.4648406 z m 0,21.4003906 c 52.07701,0 94.06446,41.98745 94.06446,94.06445 0,52.07701 -41.98745,94.06446 -94.06446,94.06446 -52.077004,0 -94.064454,-41.98745 -94.064449,-94.06446 C 26.24414,68.612449 68.231589,26.624999 120.30859,26.625 Z" id="circle4615" transform="translate(-61.993357,-186.21486)"/>
        <g aria-label="COUNTER                    CLOUD                    ACTION" transform="translate(-61.99336,-186.21486)" id="text4621" style="font-weight:bold;font-size:17.6389px;font-family:'DejaVu Sans';-inkscape-font-specification:'DejaVu Sans, Bold';fill:#ffffff;fill-opacity:0.998311;stroke-width:106.63">
          <path d="m 38.081673,65.878651 q -0.05586,1.02701 -0.3514,2.00263 -0.295538,0.97562 -0.842545,1.902893 -1.632269,2.766981 -4.129231,3.473924 -2.504381,0.702567 -5.152671,-0.859686 -2.655708,-1.566628 -3.244709,-4.094011 -0.596419,-2.53176 1.035851,-5.298741 0.547007,-0.927272 1.257963,-1.657833 0.710955,-0.730561 1.582817,-1.276205 l 2.292218,1.352202 q -1.009765,0.474293 -1.717094,1.096997 -0.707328,0.622705 -1.210574,1.475796 -0.901468,1.528145 -0.438643,2.98113 0.462825,1.452985 2.183842,2.46823 1.7136,1.010869 3.209174,0.713164 1.495575,-0.297706 2.397043,-1.825851 0.503246,-0.853091 0.706138,-1.773367 0.202892,-0.920277 0.129603,-2.033474 z" style="font-size:17.6389px;display:inline;stroke-width:106.63" id="path477"/>
          <path d="m 35.557469,52.671871 q -0.947797,1.182987 -0.596366,2.535052 0.351432,1.352064 1.93771,2.622974 1.579556,1.265524 2.975719,1.313615 1.396162,0.04809 2.343959,-1.134897 0.953183,-1.189708 0.601751,-2.541773 -0.351432,-1.352064 -1.930988,-2.617589 -1.586278,-1.270909 -2.98244,-1.319 -1.396163,-0.04809 -2.349345,1.141618 z m -1.875303,-1.502473 q 1.938676,-2.419746 4.421891,-2.681582 2.483215,-0.261836 4.923125,1.692995 2.433189,1.949446 2.719239,4.429989 0.286049,2.480543 -1.652627,4.900289 -1.93329,2.413024 -4.421891,2.681582 -2.483215,0.261835 -4.916404,-1.687611 -2.43991,-1.954831 -2.72596,-4.435374 -0.280664,-2.487264 1.652627,-4.900288 z" style="font-size:17.6389px;display:inline;stroke-width:106.63" id="path479"/>
          <path d="m 41.102502,42.94432 2.438284,-2.247219 5.224055,5.668219 q 1.079832,1.171643 1.926779,1.328083 0.847444,0.144271 1.715093,-0.655389 0.873982,-0.805497 0.792857,-1.656036 -0.08063,-0.862709 -1.160462,-2.034352 l -5.224055,-5.668219 2.438284,-2.247219 5.224055,5.668219 q 1.850308,2.007626 1.748053,3.917345 -0.102256,1.909719 -2.16688,3.812559 -2.058292,1.897003 -3.969996,1.843428 -1.911705,-0.05357 -3.762012,-2.0612 z" style="font-size:17.6389px;display:inline;stroke-width:106.63" id="path481"/>
          <path d="m 53.29815,32.208217 3.06601,-2.077337 8.81869,4.678141 -4.946961,-7.301382 2.602544,-1.763321 7.212707,10.645473 -3.066011,2.077337 -8.818689,-4.678141 4.94696,7.301382 -2.602544,1.763321 z" style="font-size:17.6389px;display:inline;stroke-width:106.63" id="path483"/>
          <path d="m 65.838821,23.985917 10.625185,-5.249257 1.110126,2.247041 -3.822287,1.888359 4.58547,9.281594 -2.972889,1.468723 -4.58547,-9.281593 -3.830009,1.892174 z" style="font-size:17.6389px;display:inline;stroke-width:106.63" id="path485"/>
          <path d="m 79.539839,17.54538 8.446498,-2.955461 0.827757,2.36567 -5.316661,1.860319 0.790778,2.259987 4.999612,-1.749383 0.827756,2.36567 -4.999611,1.749383 0.972827,2.780271 5.495508,-1.922898 0.827757,2.36567 -8.625346,3.01804 z" style="font-size:17.6389px;display:inline;stroke-width:106.63" id="path487"/>
          <path d="m 98.363878,17.881686 q 1.020001,-0.213675 1.378882,-0.684841 0.36731,-0.472932 0.185423,-1.341197 -0.180123,-0.859836 -0.7046,-1.137152 -0.516047,-0.279082 -1.536048,-0.06541 l -1.365621,0.286077 0.676343,3.228598 z m -0.895889,2.528394 0.997738,4.762813 -3.245457,0.679875 -2.636502,-12.58563 4.956699,-1.038354 q 2.486783,-0.520943 3.816483,0.07167 1.33813,0.590851 1.71603,2.394819 0.26136,1.247605 -0.17782,2.175577 -0.43075,0.926207 -1.56517,1.559837 0.69773,0.01223 1.3334,0.442247 0.64232,0.419823 1.40963,1.394243 l 2.51057,3.205143 -3.45621,0.724023 -2.18936,-2.806045 Q 100.2766,20.543293 99.723699,20.298329 99.17923,20.0516 98.386832,20.217596 Z" style="font-size:17.6389px;display:inline;stroke-width:106.63" id="path489"/>
          <path d="m 213.6724,88.328733 q -0.78346,-0.666378 -1.38089,-1.492368 -0.59743,-0.82599 -1.0041,-1.82282 -1.2135,-2.974542 -0.264,-5.389713 0.95746,-2.418424 3.80441,-3.579872 2.85492,-1.164702 5.22288,-0.102928 2.37593,1.058521 3.58944,4.033063 0.40667,0.99683 0.55751,2.005008 0.15085,1.008178 0.0571,2.032425 l -2.46417,1.005288 q 0.23404,-1.090782 0.16683,-2.030759 -0.0672,-0.939978 -0.44134,-1.857062 -0.6702,-1.642776 -2.10675,-2.154341 -1.43654,-0.511565 -3.28666,0.243214 -1.84214,0.751525 -2.5109,2.121976 -0.66876,1.370451 0.001,3.013228 0.37414,0.917084 0.98363,1.635833 0.60948,0.718749 1.53974,1.33454 z" style="font-size:17.6389px;display:inline;stroke-width:106.63" id="path491"/>
          <path d="m 226.212,87.834419 0.87753,3.197681 -9.98341,2.739724 1.54081,5.614628 -2.41695,0.663278 -2.41834,-8.812309 z" style="font-size:17.6389px;display:inline;stroke-width:106.63" id="path493"/>
          <path d="m 227.95099,105.85251 q -0.20806,-1.50149 -1.43179,-2.17534 -1.22373,-0.67384 -3.2371,-0.39485 -2.00484,0.27782 -2.99922,1.25903 -0.99439,0.98121 -0.78633,2.4827 0.20925,1.51003 1.43298,2.18388 1.22373,0.67384 3.22857,0.39603 2.01336,-0.279 3.00775,-1.26021 0.99439,-0.98121 0.78514,-2.49124 z m 2.38021,-0.32982 q 0.42559,3.07124 -1.09068,5.05513 -1.51627,1.9839 -4.6131,2.41303 -3.0883,0.42795 -5.0869,-1.06889 -1.99859,-1.49684 -2.42418,-4.56808 -0.4244,-3.06271 1.09068,-5.05513 1.51627,-1.9839 4.60457,-2.411852 3.09684,-0.429131 5.09543,1.067712 1.99978,1.50537 2.42418,4.56808 z" style="font-size:17.6389px;display:inline;stroke-width:106.63" id="path495"/>
          <path d="m 231.21016,116.55325 -0.04,3.31566 -7.70784,-0.093 q -1.59324,-0.0192 -2.28845,0.4892 -0.68669,0.51713 -0.70092,1.69699 -0.0143,1.18847 0.65978,1.71341 0.68264,0.53365 2.27588,0.55287 l 7.70784,0.093 -0.04,3.31567 -7.70784,-0.093 q -2.73004,-0.0329 -4.0484,-1.41836 -1.31836,-1.38543 -1.28449,-4.19298 0.0338,-2.79894 1.38516,-4.15216 1.35139,-1.35322 4.08143,-1.32029 z" style="font-size:17.6389px;display:inline;stroke-width:106.63" id="path497"/>
          <path d="m 227.63815,135.65796 -7.74495,-1.25647 -0.19033,1.17322 q -0.3255,2.00637 0.49816,3.22194 0.82228,1.22407 2.71814,1.53163 1.88735,0.30619 3.04456,-0.58801 1.15721,-0.89421 1.48408,-2.90909 z m 3.00496,-2.87175 -0.55997,3.45164 q -0.46893,2.89054 -1.11446,4.23422 -0.63841,1.35357 -1.78872,2.20526 -1.00348,0.75337 -2.19603,1.00489 -1.19255,0.25153 -2.61232,0.0212 -1.43676,-0.23308 -2.49714,-0.8501 -1.05186,-0.61564 -1.76571,-1.64761 -0.82067,-1.18018 -1.00554,-2.67603 -0.17637,-1.49447 0.28705,-4.351 l 0.55997,-3.45165 z" style="font-size:17.6389px;display:inline;stroke-width:106.63" id="path499"/>
          <path d="m 118.94476,221.03995 5.18443,-0.0677 0.78754,-2.35315 3.33284,-0.0435 -4.59448,12.91993 -3.95291,0.0516 -4.93039,-12.79551 3.33284,-0.0435 z m 4.38883,2.3286 -3.5223,0.046 1.82367,5.09258 z" style="font-size:17.6389px;display:inline;stroke-width:106.63" id="path501"/>
          <path d="m 102.85258,217.97465 q 0.96433,-0.3577 1.97695,-0.47508 1.01262,-0.11739 2.08102,0.0152 3.18811,0.39551 4.83085,2.40449 1.64168,2.01752 1.26314,5.06888 -0.37961,3.0599 -2.46346,4.60657 -2.0849,1.55521 -5.27301,1.1597 -1.06841,-0.13255 -2.02165,-0.49381 -0.95324,-0.36126 -1.80092,-0.94375 l 0.32765,-2.64109 q 0.83714,0.7374 1.69,1.13828 0.85286,0.40088 1.83579,0.52282 1.76073,0.21844 2.90926,-0.78468 1.14854,-1.00311 1.39454,-2.98606 0.24494,-1.97441 -0.62366,-3.22776 -0.86861,-1.25336 -2.62933,-1.47179 -0.98293,-0.12194 -1.9079,0.0584 -0.92496,0.18033 -1.91692,0.69082 z" style="font-size:17.6389px;display:inline;stroke-width:106.63" id="path503"/>
          <path d="m 98.520797,229.53434 -11.47731,-2.95307 0.624522,-2.42725 4.128829,1.06233 2.579643,-10.02596 3.211311,0.82626 -2.579643,10.02596 4.13717,1.06448 z" style="font-size:17.6389px;display:inline;stroke-width:106.63" id="path505"/>
          <path d="m 84.291914,225.51893 -3.118231,-1.12777 4.37339,-12.09226 3.118231,1.12777 z" style="font-size:17.6389px;display:inline;stroke-width:106.63" id="path507"/>
          <path d="m 72.483233,218.24694 q 1.360959,0.66751 2.604079,0.0301 1.24312,-0.63737 2.138189,-2.46229 0.891276,-1.81719 0.634249,-3.19033 -0.257028,-1.37314 -1.617986,-2.04065 -1.368692,-0.6713 -2.611812,-0.0339 -1.243121,0.63737 -2.134397,2.45456 -0.895069,1.82492 -0.638041,3.19806 0.257027,1.37314 1.625719,2.04444 z m -1.058153,2.15743 q -2.78378,-1.36536 -3.579966,-3.732 -0.796186,-2.36664 0.580551,-5.17362 1.372945,-2.79925 3.731709,-3.61848 2.358764,-0.81924 5.142543,0.54612 2.776047,1.36157 3.579965,3.732 0.796187,2.36665 -0.576758,5.16589 -1.376737,2.80698 -3.735501,3.62622 -2.366497,0.81544 -5.142543,-0.54613 z" style="font-size:17.6389px;display:inline;stroke-width:106.63" id="path509"/>
          <path d="m 61.772097,214.9714 -3.042867,-2.11109 1.184839,-9.91214 -5.027343,7.24627 -2.582899,-1.79197 7.329906,-10.56512 3.042867,2.11109 -1.184839,9.91214 5.027344,-7.24627 2.582898,1.79197 z" style="font-size:17.6389px;display:inline;stroke-width:106.63" id="path511"/>
        </g>
      </g>
    </g>
  </g>
</svg>