<?xml version="1.0" encoding="UTF-8" standalone="no"?>
<!-- Created with Inkscape (http://www.inkscape.org/) -->
<svg width="50mm" height="50mm" viewBox="0 0 50 50" version="1.1" id="svg514" inkscape:version="1.2.2 (1:1.2.2+202212051552+b0a8486541)" sodipodi:docname="CLOUD-NO-THANKS.svg" inkscape:export-filename="CLOUD-NO-THANKS.png" inkscape:export-xdpi="169.33333" inkscape:export-ydpi="169.33333" xmlns:inkscape="http://www.inkscape.org/namespaces/inkscape" xmlns:sodipodi="http://sodipodi.sourceforge.net/DTD/sodipodi-0.dtd" xmlns="http://www.w3.org/2000/svg" xmlns:svg="http://www.w3.org/2000/svg">
  <sodipodi:namedview id="namedview516" pagecolor="#ffffff" bordercolor="#000000" borderopacity="0.25" inkscape:showpageshadow="2" inkscape:pageopacity="0.0" inkscape:pagecheckerboard="0" inkscape:deskcolor="#d1d1d1" inkscape:document-units="mm" showgrid="false" inkscape:zoom="0.89085297" inkscape:cx="172.86803" inkscape:cy="562.94362" inkscape:window-width="2472" inkscape:window-height="1392" inkscape:window-x="2000" inkscape:window-y="40" inkscape:window-maximized="0" inkscape:current-layer="g2443"/>
  <defs id="defs511"/>
  <g inkscape:label="Layer 1" inkscape:groupmode="layer" id="layer1">
    <g id="g2443" inkscape:label="cloud no thanks" transform="matrix(0.37406748,0,0,0.37406748,115.062,-40.841623)" style="stroke-width:2.67331">
      <g id="g2348" transform="matrix(0.89711703,0,0,0.89711703,-196.74026,331.48494)" style="stroke-width:2.97989"/>
      <circle style="fill:#75e4ff;fill-opacity:1;stroke:none;stroke-width:1.88216;stroke-dasharray:none;stroke-opacity:1" id="path2050" cx="-239.82181" cy="176.07065" r="61.360401"/>
      <g aria-label="NO THANKS" transform="matrix(0.35810459,-0.24149403,0.24149403,0.35810459,-250.8297,45.148087)" id="text2225" style="font-size:42.3333px;font-family:'Routed Gothic';-inkscape-font-specification:'Routed Gothic, Normal';letter-spacing:5.40808px;stroke-width:4.35762" inkscape:label="text2225" inkscape:transform-center-x="-5.7329712" inkscape:transform-center-y="38.689033">
        <path id="path2404" d="m -85.999971,355.0833 q -0.08649,0.098 -0.208723,0.21683 -0.142999,0.083 -0.250247,0.14533 -0.571994,0.33219 -1.223595,0.28035 -0.615852,-0.0726 -1.085266,-0.46929 -0.175308,-0.13722 -0.407128,-0.28943 -0.252582,-0.18796 -1.028755,-0.4543 -0.740423,-0.2871 -1.540797,-0.34816 -0.764624,-0.0818 -1.988219,0.19853 -1.187845,0.25959 -2.40333,0.96549 -2.57397,1.49486 -3.401859,3.36207 -0.82789,1.86721 0.127157,3.51169 0.186857,0.32175 0.388701,0.58698 0.237594,0.24448 0.665485,0.56966 0.46364,0.30442 1.100253,0.41278 0.636614,0.10835 1.487725,0.0921 0.886861,-0.037 2.146205,-0.33809 1.295094,-0.32187 2.813899,-0.91708 2.47483,-1.00702 4.611821,-1.19633 2.172741,-0.21008 3.760836,0.30183 1.603083,0.45541 2.752969,1.36524 1.185636,0.88907 1.953825,2.21181 1.993139,3.43196 0.67643,7.25631 -1.316709,3.82435 -5.463661,6.23273 -1.394233,0.80971 -2.811563,1.25038 -1.438093,0.40492 -2.601736,0.45922 -1.163644,0.0543 -2.338836,-0.0759 -1.160205,-0.18673 -1.915616,-0.41732 -0.776172,-0.26634 -1.501608,-0.60995 -0.746197,-0.37936 -0.978017,-0.53158 -0.252581,-0.18796 -0.407128,-0.28943 -0.329855,-0.2387 -0.537474,-0.5962 -0.643618,-1.10823 0.123216,-2.17507 0.238698,-0.32986 0.560445,-0.51671 1.108237,-0.64362 2.133552,0.0517 0.23182,0.15221 0.540913,0.35516 0.324081,0.14644 1.177527,0.46352 0.889195,0.29631 1.802592,0.38734 0.913397,0.091 2.193503,-0.17433 1.315856,-0.28612 2.567091,-1.01278 2.931466,-1.70248 3.700508,-3.91797 0.748281,-2.25125 -0.352098,-4.14597 -0.394475,-0.67925 -0.884651,-1.11168 -0.490176,-0.43244 -1.400134,-0.7645 -0.909957,-0.33206 -2.416109,-0.12665 -1.506152,0.2054 -3.495476,0.97826 -5.11342,2.06133 -8.54907,1.3316 -3.399896,-0.75049 -4.936276,-3.39596 -1.97238,-3.39621 -0.44228,-6.7708 1.54509,-3.43111 5.155799,-5.52806 1.215486,-0.7059 2.412544,-1.11426 1.232809,-0.42912 2.28343,-0.5134 1.050621,-0.0843 1.999767,-0.014 0.928384,0.0345 1.740307,0.2801 0.79116,0.20983 1.38281,0.48771 0.606639,0.22138 1.09104,0.56155 0.49939,0.28367 0.73121,0.43588 0.23182,0.15221 0.329855,0.2387 0.216832,0.20872 0.362165,0.45897 0.10381,0.17875 0.17187,0.37825 0.06806,0.19951 0.100369,0.41979 0.01155,0.18452 -0.01265,0.3898 -0.0242,0.20529 -0.08415,0.43133 -0.04496,0.16954 -0.161425,0.38059 -0.08071,0.1903 -0.217937,0.36561 z m -16.611559,32.93377 q -0.37884,0.49094 -1.01632,0.66742 -0.43827,0.12133 -0.93168,0.0435 -0.46461,-0.12876 -0.84278,-0.41013 l -13.40312,-10.91703 -2.98975,5.16018 2.33836,8.44662 q 0.2206,0.79685 -0.18277,1.50906 -0.40338,0.71222 -1.20023,0.93282 -0.79685,0.2206 -1.50906,-0.18278 -0.71222,-0.40337 -0.93282,-1.20022 l -7.05921,-25.49922 q -0.2206,-0.79685 0.18277,-1.50906 0.40338,-0.71222 1.20023,-0.93282 0.79685,-0.2206 1.50907,0.18278 0.71221,0.40337 0.93281,1.20022 l 3.24283,11.7137 9.68955,-16.75237 q 0.20169,-0.35611 0.52718,-0.5749 0.31447,-0.25864 0.67305,-0.35791 0.19921,-0.0551 0.36961,-0.0594 0.21024,-0.0153 0.39167,0.0203 0.21025,-0.0153 0.40271,0.0601 0.19246,0.0754 0.34507,0.16184 0.35611,0.20169 0.57491,0.52718 0.25864,0.31446 0.35791,0.67305 0.2206,0.79685 -0.18277,1.50906 l -6.68203,11.50147 13.89407,11.29588 q 0.49094,0.37884 0.66742,1.01632 0.12133,0.43827 0.004,0.94271 -0.0889,0.45358 -0.37029,0.83175 z m -51.86455,7.50237 q -0.57402,0.58349 -1.40082,0.59025 -0.82679,0.007 -1.41028,-0.56726 -0.58349,-0.57402 -0.59026,-1.40082 l -0.21642,-26.45742 q -0.007,-0.8268 0.60859,-1.41063 0.65671,-0.58416 1.35948,-0.58991 l 0.66144,-0.005 0.99215,-0.008 q 0.53742,-0.004 0.99452,0.28126 0.49844,0.28532 0.74986,0.69669 l 12.66654,22.13865 -0.17382,-21.24862 q -0.007,-0.8268 0.56726,-1.41029 0.57402,-0.58349 1.40081,-0.59025 0.8268,-0.007 1.41029,0.56726 0.58349,0.57402 0.59025,1.40081 l 0.21643,26.45743 q 0.006,0.70278 -0.56759,1.36895 -0.57369,0.62483 -1.40048,0.63159 l -0.57876,0.005 -0.74411,0.006 q -1.15752,0.009 -1.74439,-0.97795 l -13.00199,-22.7147 0.17856,21.82738 q 0.007,0.8268 -0.56726,1.41029 z m -37.14981,-6.59686 q -0.25902,-0.15326 -0.44665,-0.41603 -0.18763,-0.26278 -0.2848,-0.54461 -0.0972,-0.28184 -0.14388,-0.5932 -0.007,-0.30089 0.0666,-0.58085 0.0837,-0.31995 0.28746,-0.6085 l 15.49783,-23.29333 q 0.34651,-0.50758 0.96064,-0.73145 0.61413,-0.22387 1.17405,-0.0773 l 1.11983,0.29309 1.11983,0.29309 q 0.59991,0.15701 1.01516,0.69303 0.42572,0.49602 0.44962,1.05781 l 2.09953,27.899 q 0.0362,0.35136 -0.0475,0.67131 -0.10467,0.39994 -0.35886,0.71801 -0.25418,0.31808 -0.6474,0.5143 -0.35323,0.20669 -0.74458,0.23246 -0.35136,0.0362 -0.67131,-0.0475 -0.59991,-0.15701 -1.02562,-0.65303 -0.38572,-0.48556 -0.43915,-1.09781 l -0.38742,-4.88756 -13.11803,-3.43331 -2.73212,4.0711 q -0.34651,0.50758 -0.96064,0.73145 -0.57414,0.23433 -1.17405,0.0773 -0.35994,-0.0942 -0.6085,-0.28746 z m 7.79998,-8.08641 10.47843,2.74246 -1.24066,-16.64894 z m -7.72523,-24.23325 q 0.79007,-0.21389 1.50718,0.19767 0.71712,0.41156 0.931,1.20164 0.21389,0.79007 -0.19767,1.50718 l -13.16996,22.94765 q -0.41157,0.71711 -1.20164,0.931 -0.79007,0.21389 -1.50718,-0.19767 -0.71712,-0.41157 -0.93101,-1.20164 -0.21388,-0.79007 0.19768,-1.50718 l 6.00879,-10.46987 -11.76066,-6.7496 -6.0088,10.46986 q -0.41156,0.71711 -1.20163,0.931 -0.79008,0.21389 -1.50719,-0.19767 -0.71711,-0.41157 -0.931,-1.20164 -0.21389,-0.79007 0.19767,-1.50718 l 13.16997,-22.94765 q 0.41156,-0.71711 1.20163,-0.931 0.79007,-0.21389 1.50719,0.19767 0.71711,0.41156 0.931,1.20164 0.21388,0.79007 -0.19768,1.50718 l -5.18567,9.03564 11.76067,6.74961 5.18567,-9.03564 q 0.41156,-0.71711 1.20164,-0.931 z m -37.6185,-25.95229 q -0.001,-0.81851 0.58243,-1.40409 0.58372,-0.58557 1.40223,-0.58687 0.81851,-0.001 1.40409,0.58242 l 14.52237,14.47632 q 0.58557,0.58372 0.58687,1.40224 0.001,0.81851 -0.58242,1.40409 -0.58372,0.58557 -1.40223,0.58687 -0.81851,0.001 -1.40409,-0.58242 l -5.8558,-5.83723 -17.27819,17.33315 q -0.58372,0.58558 -1.40223,0.58688 -0.81851,0.001 -1.40409,-0.58243 -0.58558,-0.58372 -0.58688,-1.40223 -0.001,-0.81851 0.58242,-1.40409 l 17.27819,-17.33314 -5.85579,-5.83723 q -0.58558,-0.58372 -0.58688,-1.40224 z m -14.37491,-14.44149 q -2.71514,2.75829 -6.46696,4.28731 -3.75183,1.52901 -7.62153,1.45429 -3.8697,-0.0747 -6.97529,-1.8894 -3.09,-1.77639 -4.41618,-5.03053 -1.32619,-3.25413 -0.37369,-6.72264 0.9681,-3.43022 3.68324,-6.18851 2.71514,-2.7583 6.46697,-4.28731 3.75182,-1.52901 7.62152,-1.45429 3.8697,0.0747 6.9597,1.85111 3.1056,1.81468 4.43178,5.06882 1.32618,3.25413 0.35808,6.68435 -0.9525,3.46851 -3.66764,6.2268 z m -16.57329,1.39716 q 4.01445,1.08715 8.60852,-0.78511 4.59407,-1.87226 6.70506,-5.45576 2.11098,-3.58349 0.89401,-6.56964 -1.21697,-2.98614 -5.23141,-4.07329 -4.01445,-1.08715 -8.60852,0.78511 -4.59408,1.87226 -6.70506,5.45575 -2.11098,3.5835 -0.89402,6.56965 1.21697,2.98614 5.23142,4.07329 z m -17.62655,-44.53592 q -0.64048,-0.50965 -0.73392,-1.33118 -0.0934,-0.82152 0.41622,-1.462 0.50966,-0.64048 1.33118,-0.73392 l 26.28881,-2.99015 q 0.82152,-0.0934 1.46667,0.45729 0.64982,0.59181 0.72925,1.29011 l 0.0748,0.65722 0.11213,0.98583 q 0.0607,0.53399 -0.1754,1.01853 -0.23147,0.52562 -0.6142,0.8188 l -20.68805,14.91863 21.1132,-2.40147 q 0.82152,-0.0934 1.462,0.41622 0.64048,0.50966 0.73392,1.33118 0.0934,0.82153 -0.41622,1.46201 -0.50965,0.64047 -1.33118,0.73391 l -26.28881,2.99015 q -0.69829,0.0794 -1.42092,-0.42088 -0.68156,-0.50499 -0.775,-1.32652 l -0.0654,-0.57506 -0.0841,-0.73938 q -0.13081,-1.15013 0.78961,-1.83733 l 21.22574,-15.31264 -21.68827,2.46687 q -0.82152,0.0934 -1.462,-0.41622 z" style="stroke-width:4.35762"/>
        <path id="path2417" d="m -79.293946,190.64693 q -0.897788,1.02722 -2.297791,1.12135 -1.34167,0.0902 -2.368886,-0.80758 -0.840449,-0.73456 -0.942174,-1.81177 -0.04339,-1.08113 0.691163,-1.92158 0.897789,-1.02721 2.239458,-1.11742 1.400003,-0.0941 2.427219,0.80366 0.84045,0.73456 0.883841,1.81569 0.101724,1.0772 -0.63283,1.91765 z m 4.321426,-19.39322 q -0.816669,0.0549 -1.439224,-0.48921 -0.622555,-0.54411 -0.677463,-1.36078 -0.05491,-0.81667 0.489205,-1.43923 2.720571,-3.11277 6.368622,-2.88927 3.679179,0.25071 6.760827,2.94407 3.081648,2.69337 3.981922,6.06077 0.931403,3.39461 -1.517111,6.19611 -0.408086,0.46692 -0.851221,0.84829 -0.443136,0.38138 -0.921321,0.67722 -0.419852,0.29191 -0.905881,0.47108 -0.48603,0.17918 -0.944853,0.32722 -0.458824,0.14804 -0.983825,0.18334 -0.493873,0.0625 -0.991669,0.0667 -0.439462,2.4e-4 -0.968385,-0.0228 -0.528923,-0.023 -1.003435,-0.10833 -0.474512,-0.0853 -1.007357,-0.16666 -1.633586,-0.32964 -2.419127,-0.24753 -0.758335,0.051 -1.570833,0.6037 -0.78137,0.5799 -2.114449,2.10516 -0.544115,0.62256 -1.360783,0.67747 -0.816669,0.0549 -1.439224,-0.48921 -0.622555,-0.54411 -0.677463,-1.36078 -0.05491,-0.81667 0.489205,-1.43922 2.312485,-2.64586 4.540426,-3.49882 2.259068,-0.82576 5.343395,-0.27137 0.742896,0.15514 1.18628,0.21323 0.474511,0.0853 0.945101,0.11224 0.47059,0.027 0.789463,-0.0238 0.346079,-0.0819 0.657108,-0.24927 0.342156,-0.1402 0.618135,-0.39314 0.27598,-0.25295 0.602448,-0.62648 1.061023,-1.21398 0.593361,-2.94045 -0.409329,-1.7304 -2.681655,-3.71641 -2.178943,-1.9044 -4.119636,-2.00831 -1.913486,-0.13503 -3.4098,1.57699 -0.544115,0.62256 -1.360783,0.67747 z m -39.87097,-0.92196 11.23138,-23.95618 q 0.35098,-0.74863 1.15814,-1.00944 0.84459,-0.24325 1.48093,0.0551 l 7.785757,3.6502 q 1.122945,0.52647 2.165147,1.51733 1.079632,1.00842 2.010658,2.72336 0.948574,1.67752 1.369559,3.70125 0.420985,2.02373 -0.02605,4.82764 -0.392057,2.78403 -1.795979,5.77856 -1.403922,2.99452 -3.310788,5.11402 -1.851886,2.09962 -3.676793,3.07041 -1.824907,0.97079 -3.738681,1.35201 -1.89622,0.34379 -3.36193,0.15887 -1.42828,-0.16738 -2.55123,-0.69385 l -7.78576,-3.65019 q -0.74863,-0.35098 -1.00943,-1.15814 -0.24326,-0.84459 0.0551,-1.48093 z m 4.43578,-0.11201 5.98905,2.80785 q 0.52404,0.24568 1.32298,0.39196 0.8165,0.10884 2.1056,-0.10865 1.306651,-0.25493 2.584086,-0.93448 1.277435,-0.67955 2.733908,-2.32533 1.474023,-1.6832 2.614709,-4.11625 1.140687,-2.43305 1.474215,-4.60529 0.351076,-2.20968 0.05639,-3.62629 -0.294689,-1.41661 -0.952027,-2.54665 -0.639788,-1.16748 -1.263242,-1.68807 -0.605905,-0.55802 -1.129946,-0.8037 l -5.989043,-2.80785 z m -12.13456,-30.46396 q 0.6547,-0.49126 1.47324,-0.37452 0.81854,0.11675 1.30979,0.77145 0.49126,0.65469 0.37452,1.47323 l -2.75516,19.31752 q -0.56037,3.92899 -4.12625,6.09301 -3.52495,2.16986 -7.82228,1.55696 -4.29733,-0.61291 -7.11606,-3.68753 -2.77779,-3.06879 -2.21742,-6.99778 l 2.75515,-19.31752 q 0.11675,-0.81854 0.77145,-1.30979 0.65469,-0.49126 1.47323,-0.37451 0.81854,0.11674 1.3098,0.77144 0.49125,0.65469 0.37451,1.47323 l -2.75515,19.31752 q -0.29186,2.04635 1.36313,3.91101 1.69591,1.8705 4.60173,2.28494 2.90581,0.41444 5.0161,-0.9132 2.15122,-1.3218 2.44308,-3.36815 l 2.75515,-19.31752 q 0.11674,-0.81854 0.77144,-1.30979 z m -34.28371,4.59521 q 2.06344,3.2745 2.69291,7.27673 0.62947,4.00223 -0.32918,7.75205 -0.95865,3.74982 -3.43612,6.35749 -2.43663,2.60125 -5.90795,3.14722 -3.47132,0.54597 -6.62965,-1.17531 -3.11749,-1.72769 -5.18092,-5.00219 -2.06344,-3.27451 -2.69292,-7.27674 -0.62947,-4.00223 0.32919,-7.75205 0.95865,-3.74981 3.39528,-6.35106 2.47747,-2.60767 5.94879,-3.15364 3.47132,-0.54597 6.58881,1.18172 3.15832,1.72127 5.22176,4.99578 z m -2.43419,16.45299 q 1.97733,-3.65894 1.20655,-8.55963 -0.77078,-4.90069 -3.77582,-7.77601 -3.00504,-2.87531 -6.19049,-2.3743 -3.18545,0.50101 -5.16278,4.15995 -1.97733,3.65894 -1.20654,8.55963 0.77078,4.90069 3.77582,7.776 3.00503,2.87531 6.19048,2.3743 3.18545,-0.501 5.16278,-4.15994 z m -50.95984,-7.64707 q 0.27864,-0.76963 1.0274,-1.12033 0.74876,-0.3507 1.51839,-0.0721 0.76962,0.27865 1.12032,1.02741 l 10.38075,22.16334 13.77721,-6.45289 q 0.74876,-0.3507 1.51839,-0.0721 0.76962,0.27864 1.12032,1.02741 0.3507,0.74876 0.0721,1.51838 -0.27864,0.76963 -1.02741,1.12033 l -15.57424,7.29457 q -0.63645,0.2981 -1.48095,0.0545 -0.80706,-0.26111 -1.15776,-1.00987 l -11.22242,-23.96038 q -0.3507,-0.74876 -0.0721,-1.51838 z m -2.15205,24.45076 q 0.62402,-0.54244 1.44054,-0.48533 0.81652,0.0571 1.35895,0.68113 0.56955,0.65522 0.99655,2.09168 0.427,1.43646 0.52976,3.3191 0.0756,1.85145 -0.80638,3.98756 -0.85081,2.10898 -2.69167,3.70916 -3.96253,3.44445 -9.65224,2.25528 -5.68563,-1.24749 -9.78101,-5.95885 -2.65792,-3.05769 -3.83595,-6.74448 -1.17802,-3.68679 -0.4938,-7.18472 0.71542,-3.52505 3.36751,-5.83039 1.46644,-1.27472 3.17963,-1.88749 1.71319,-0.61277 2.97325,-0.61255 1.23293,-0.031 2.53091,0.26494 1.29799,0.29591 1.72113,0.53064 0.42722,0.1764 0.7378,0.34464 0.31057,0.16824 0.52755,0.41785 0.40682,0.46802 0.47859,1.11772 0.0759,0.59139 -0.22535,1.1271 -0.0977,0.13969 -0.19537,0.27937 -0.0977,0.13969 -0.22248,0.24818 -0.46802,0.40682 -1.0906,0.5098 -0.59139,0.0758 -1.09998,-0.19416 -0.36889,-0.17232 -0.82732,-0.3216 -0.48554,-0.18048 -1.47295,-0.30815 -0.98332,-0.186 -2.18241,0.199 -1.16789,0.35787 -2.22872,1.28001 -2.43368,2.11549 -2.16721,6.26599 0.26647,4.1505 3.52107,7.89462 3.2546,3.74413 7.3276,4.58578 4.10419,0.81454 6.50667,-1.27383 0.99843,-0.86789 1.49236,-2.06411 0.49392,-1.19622 0.51311,-2.30843 0.0192,-1.11221 -0.12988,-1.91385 -0.14498,-0.85995 -0.37683,-1.31573 -0.29426,-0.40153 -0.37827,-0.87627 -0.0799,-0.53307 0.0694,-0.99149 0.18048,-0.48554 0.58609,-0.83812 z" style="font-size:42.3333px;font-family:'Routed Gothic';-inkscape-font-specification:'Routed Gothic, Normal';display:inline;stroke-width:4.35762" transform="rotate(33.994439,-148.72283,264.87171)"/>
      </g>
      <path d="m -200.45215,185.48631 q 0,6.46177 -4.58341,11.05408 -4.54284,4.55167 -10.99203,4.55167 h -44.13043 q -7.50381,0 -12.85787,-5.32383 -5.31349,-5.36448 -5.31349,-12.88287 0,-5.36448 2.87983,-9.79423 2.87984,-4.4704 7.58491,-6.66496 -0.0811,-1.13791 -0.0811,-1.74751 0,-8.61567 6.08416,-14.71166 6.08416,-6.09602 14.6831,-6.09602 6.40866,0 11.60047,3.57633 5.23238,3.57631 7.62547,9.34719 2.83927,-2.51968 6.73314,-2.51968 4.29947,0 7.34155,3.048 3.04207,3.048 3.04207,7.35584 0,3.04799 -1.66299,5.60831 5.23237,1.2192 8.63951,5.4864 3.40712,4.22655 3.40712,9.71294 z" id="path2346" inkscape:label="cloud" style="font-size:143.282px;font-family:forkawesome;-inkscape-font-specification:'forkawesome, Normal';display:inline;fill:#ffffff;fill-opacity:0.998311;stroke-width:57.2089"/>
      <g aria-label="" id="text4078" style="font-size:23.4031px;font-family:forkawesome;-inkscape-font-specification:'forkawesome, Normal';fill-opacity:0.998311;stroke-width:2.79489" transform="matrix(0.67342903,0,0,0.67342903,-131.69286,3.3452243)">
        <path d="m -182.02801,246.29214 q 2.69031,0.56157 5.78548,0.56157 3.09516,0 5.78548,-0.56157 2.69031,-0.56157 4.24442,-1.65859 v 2.22016 q 0,0.90112 -1.34516,1.67165 -1.34515,0.77052 -3.65673,1.22761 -2.31158,0.44404 -5.02801,0.44404 -2.71643,0 -5.02801,-0.44404 -2.31158,-0.45709 -3.65673,-1.22761 -1.34516,-0.77053 -1.34516,-1.67165 v -2.22016 q 1.55411,1.09702 4.24442,1.65859 z m 0,10.0299 q 2.69031,0.56157 5.78548,0.56157 3.09516,0 5.78548,-0.56157 2.69031,-0.56157 4.24442,-1.65859 v 2.22016 q 0,0.90112 -1.34516,1.67165 -1.34515,0.77052 -3.65673,1.21455 -2.31158,0.4571 -5.02801,0.4571 -2.71643,0 -5.02801,-0.4571 -2.31158,-0.44403 -3.65673,-1.21455 -1.34516,-0.77053 -1.34516,-1.67165 v -2.22016 q 1.55411,1.09702 4.24442,1.65859 z m 0,-5.01495 q 2.69031,0.56157 5.78548,0.56157 3.09516,0 5.78548,-0.56157 2.69031,-0.56157 4.24442,-1.65859 v 2.22016 q 0,0.90112 -1.34516,1.67165 -1.34515,0.77052 -3.65673,1.22761 -2.31158,0.44404 -5.02801,0.44404 -2.71643,0 -5.02801,-0.44404 -2.31158,-0.45709 -3.65673,-1.22761 -1.34516,-0.77053 -1.34516,-1.67165 v -2.22016 q 1.55411,1.09702 4.24442,1.65859 z m 0.75747,-14.02619 q 2.31158,-0.45709 5.02801,-0.45709 2.71643,0 5.02801,0.45709 2.31158,0.44403 3.65673,1.21456 1.34516,0.77052 1.34516,1.67165 v 1.67165 q 0,0.90112 -1.34516,1.67165 -1.34515,0.77052 -3.65673,1.22761 -2.31158,0.44404 -5.02801,0.44404 -2.71643,0 -5.02801,-0.44404 -2.31158,-0.45709 -3.65673,-1.22761 -1.34516,-0.77053 -1.34516,-1.67165 v -1.67165 q 0,-0.90113 1.34516,-1.67165 1.34515,-0.77053 3.65673,-1.21456 z" id="path749" style="stroke-width:2.79489"/>
      </g>
      <g aria-label="" id="text4132" style="font-size:23.4031px;font-family:forkawesome;-inkscape-font-specification:'forkawesome, Normal';fill-opacity:0.998311;stroke-width:2.79489" transform="matrix(0.67342903,0,0,0.67342903,-146.66502,3.1755124)">
        <path d="m -124.80163,246.58858 q 2.69031,0.56157 5.78548,0.56157 3.09516,0 5.78547,-0.56157 2.69032,-0.56157 4.24443,-1.65859 v 2.22016 q 0,0.90113 -1.34516,1.67165 -1.34515,0.77053 -3.65673,1.22762 -2.31158,0.44403 -5.02801,0.44403 -2.71643,0 -5.02801,-0.44403 -2.31158,-0.45709 -3.65674,-1.22762 -1.34515,-0.77052 -1.34515,-1.67165 v -2.22016 q 1.55411,1.09702 4.24442,1.65859 z m 0,10.0299 q 2.69031,0.56157 5.78548,0.56157 3.09516,0 5.78547,-0.56157 2.69032,-0.56157 4.24443,-1.65859 v 2.22016 q 0,0.90113 -1.34516,1.67165 -1.34515,0.77053 -3.65673,1.21456 -2.31158,0.45709 -5.02801,0.45709 -2.71643,0 -5.02801,-0.45709 -2.31158,-0.44403 -3.65674,-1.21456 -1.34515,-0.77052 -1.34515,-1.67165 v -2.22016 q 1.55411,1.09702 4.24442,1.65859 z m 0,-5.01495 q 2.69031,0.56157 5.78548,0.56157 3.09516,0 5.78547,-0.56157 2.69032,-0.56157 4.24443,-1.65859 v 2.22016 q 0,0.90113 -1.34516,1.67165 -1.34515,0.77053 -3.65673,1.22762 -2.31158,0.44403 -5.02801,0.44403 -2.71643,0 -5.02801,-0.44403 -2.31158,-0.45709 -3.65674,-1.22762 -1.34515,-0.77052 -1.34515,-1.67165 v -2.22016 q 1.55411,1.09702 4.24442,1.65859 z m 0.75747,-14.02618 q 2.31158,-0.4571 5.02801,-0.4571 2.71643,0 5.02801,0.4571 2.31158,0.44403 3.65673,1.21455 1.34516,0.77053 1.34516,1.67165 v 1.67165 q 0,0.90113 -1.34516,1.67165 -1.34515,0.77053 -3.65673,1.22762 -2.31158,0.44403 -5.02801,0.44403 -2.71643,0 -5.02801,-0.44403 -2.31158,-0.45709 -3.65674,-1.22762 -1.34515,-0.77052 -1.34515,-1.67165 v -1.67165 q 0,-0.90112 1.34515,-1.67165 1.34516,-0.77052 3.65674,-1.21455 z" id="path746" style="stroke-width:2.79489"/>
      </g>
      <path style="color:#000000;fill:#000000;stroke-width:2.67331;-inkscape-stroke:none" d="m -269.18424,184.23071 -1.5303,2.64469 c 2.83901,1.64274 5.75167,3.2293 8.88987,4.48459 0.41285,0.16513 1.19358,0.76574 2.37222,1.06041 0.63412,0.15853 1.21159,0.24365 1.58006,0.34924 1.28554,0.36841 2.65728,0.96888 4.37238,1.22323 0.90505,0.13421 1.87603,0.28917 2.85897,0.38131 1.24771,0.11693 2.25075,-0.0109 2.9526,0.1046 1.28842,0.21189 2.72557,0.1753 3.46299,0.23368 2.18415,0.1729 3.65318,0.23716 5.67912,0.31297 2.28171,0.0854 4.54647,0.2902 6.96309,0.2902 0.6212,0 1.73634,0.1246 2.81594,-0.0118 0.93224,-0.1178 1.73014,-0.30331 2.41945,-0.36612 -0.20846,0.019 0.1782,0.17669 1.04016,-0.0388 0.69508,-0.17379 1.12017,-0.31625 1.57332,-0.36022 1.67927,-0.16292 3.55381,-0.14216 5.52727,-1.01907 0.7107,-0.31579 2.69192,-0.99625 4.54702,-1.78252 0.92754,-0.39314 1.84067,-0.81829 2.63709,-1.29915 0.79643,-0.48086 1.52641,-0.9394 1.99849,-1.90232 -0.16933,0.34539 -0.18196,0.26454 -0.13075,0.21511 0.0512,-0.0495 0.15954,-0.14614 0.28935,-0.27247 0.25963,-0.25268 0.84192,-0.52864 0.84192,-1.68974 h -3.05468 c 0,-0.77681 0.21705,-0.63103 0.0827,-0.50025 -0.0672,0.0653 -0.1631,0.15031 -0.28092,0.26404 -0.11782,0.11373 -0.26408,0.17753 -0.49014,0.63861 0.0582,-0.11871 -0.25036,0.27877 -0.83516,0.63186 -0.5848,0.35308 -1.3957,0.73934 -2.25073,1.10174 -1.71004,0.7248 -3.53036,1.33088 -4.59425,1.80362 -1.26608,0.56258 -2.72204,0.58894 -4.5816,0.76936 -0.85156,0.0826 -1.47246,0.30019 -2.01958,0.43699 0.37149,-0.0929 0.12838,-0.10297 -0.57618,-0.0388 -0.97226,0.0886 -1.80565,0.2861 -2.52574,0.37708 -0.47472,0.06 -1.54646,-0.0126 -2.43295,-0.0126 -2.24023,0 -4.46498,-0.19845 -6.8492,-0.28767 -2.01711,-0.0755 -3.41529,-0.13625 -5.55174,-0.30538 -1.04422,-0.0827 -2.39273,-0.0684 -3.20822,-0.20247 -1.31138,-0.21566 -2.39371,-0.0595 -3.1635,-0.1316 -0.84826,-0.0795 -1.7702,-0.22459 -2.69616,-0.36191 -1.22267,-0.18132 -2.45212,-0.70063 -3.97842,-1.13802 -0.66731,-0.19123 -1.27555,-0.27481 -1.6813,-0.37624 -0.29893,-0.0747 -1.00554,-0.5448 -1.97824,-0.93387 -2.91812,-1.16726 -5.70209,-2.67662 -8.49422,-4.29225 z" id="path4199"/>
    </g>
  </g>
</svg>