<svg id="svg19509" width="700pt" height="700pt" inkscape:version="1.3.2 (1:1.3.2+202311252150+091e20ef0f)" sodipodi:docname="rotate-portrait.svg" version="1.1" viewBox="0 0 700 700" xmlns="http://www.w3.org/2000/svg" xmlns:inkscape="http://www.inkscape.org/namespaces/inkscape" xmlns:sodipodi="http://sodipodi.sourceforge.net/DTD/sodipodi-0.dtd">
 <path id="path19773" d="m228.08 116.22c4.4805-4.4805 11.199-4.4805 15.121 0l26.879 26.879c2.2383 2.2383 3.3594 5.0391 3.3594 7.8398 0 2.8008-1.1211 5.6016-3.3594 7.8398l-26.879 26.879c-4.4805 4.4805-11.199 4.4805-15.121 0-4.4805-4.4805-4.4805-11.199 0-15.121l8.3984-8.3984c-72.238 6.1602-129.92 66.641-129.92 141.12 0 6.1602-5.0391 10.641-10.641 10.641-5.6016 0-10.641-5.0391-10.641-10.641 0-86.238 67.199-156.8 151.76-162.4l-8.9609-8.9609c-4.4766-4.4805-4.4766-11.199 4e-3 -15.68z"/>
 <path id="path19769" d="m179.36 250.02v200c0 6.1602 5.0391 10.641 10.641 10.641h320c6.1602 0 10.641-5.0391 10.641-10.641v-200c0-6.1602-5.0391-10.641-10.641-10.641h-320c-5.6016-0.55859-10.641 4.4805-10.641 10.641zm320 10.641v178.16h-298.16v-178.16z"/>
</svg>
