<?xml version="1.0" encoding="UTF-8" standalone="no"?>
<svg
   width="700pt"
   height="700pt"
   version="1.1"
   viewBox="0 0 700 700"
   id="svg19509"
   xmlns="http://www.w3.org/2000/svg"
   xmlns:svg="http://www.w3.org/2000/svg">
  <path
     d="m 588.96538,228.0811 c 4.4805,4.4805 4.4805,11.199 0,15.121 l -26.879,26.879 c -2.2383,2.2383 -5.0391,3.3594 -7.8398,3.3594 -2.8008,0 -5.6016,-1.1211 -7.8398,-3.3594 l -26.879,-26.879 c -4.4805,-4.4805 -4.4805,-11.199 0,-15.121 4.4805,-4.4805 11.199,-4.4805 15.121,0 l 8.3984,8.3984 c -6.1602,-72.238 -66.641,-129.92 -141.12,-129.92 -6.1602,0 -10.641,-5.0391 -10.641,-10.641 0,-5.6016 5.0391,-10.641 10.641,-10.641 86.238,0 156.8,67.199 162.4,151.76 l 8.9609,-8.9609 c 4.4805,-4.4766 11.199,-4.4766 15.68,0.004 z"
     id="path19773" />
  <path
     d="m 250.02119,520.641 h 200 c 6.1602,0 10.641,-5.0391 10.641,-10.641 V 190 c 0,-6.1602 -5.0391,-10.641 -10.641,-10.641 h -200 c -6.1602,0 -10.641,5.0391 -10.641,10.641 v 320 c -0.55859,5.6016 4.4805,10.641 10.641,10.641 z m 10.641,-320 h 178.16 v 298.16 h -178.16 z"
     id="path19769" />
</svg>
