<?xml version="1.0" encoding="UTF-8" standalone="no"?>
<!-- Generator: Adobe Illustrator 23.1.1, SVG Export Plug-In . SVG Version: 6.00 Build 0)  -->

<svg
   version="1.1"
   id="Calque_1"
   x="0px"
   y="0px"
   viewBox="0 0 100 1300"
   xml:space="preserve"
   width="100"
   height="1300"
   xmlns="http://www.w3.org/2000/svg"
   xmlns:svg="http://www.w3.org/2000/svg"><defs
   id="defs99">
	
	
</defs>
<style
   type="text/css"
   id="style2">
	.st0{fill:#FFFFFF;stroke:#000000;stroke-width:5;stroke-linecap:round;stroke-linejoin:round;stroke-miterlimit:10;}
	.st1{fill:#FFFFFF;stroke:#000000;stroke-width:5;stroke-linecap:round;stroke-linejoin:round;stroke-miterlimit:9.9999;}
	.st2{fill:none;stroke:#000000;stroke-width:5;stroke-linecap:round;stroke-linejoin:round;stroke-miterlimit:10;}
	.st3{fill:none;}
</style>
<rect
   x="32.5"
   y="321.5"
   class="st0"
   width="35"
   height="19"
   id="rect4" />
<rect
   x="21.5"
   y="336.5"
   class="st0"
   width="57"
   height="27"
   id="rect6" />
<rect
   x="32.5"
   y="359.5"
   class="st0"
   width="35"
   height="19"
   id="rect8" />
<rect
   x="14.5"
   y="228.5"
   class="st0"
   width="57"
   height="40"
   id="rect10" />
<polygon
   class="st0"
   points="91.5,268.3 71.7,248.5 91.5,228.7 "
   id="polygon12" />
<rect
   x="-98.954475"
   y="130.72147"
   transform="rotate(-45)"
   class="st1"
   width="64.59938"
   height="18.999817"
   id="rect14" />
<polyline
   class="st2"
   points="35.8,175.8 20.7,177.5 22.4,162.4 "
   id="polyline16" />
<line
   class="st2"
   x1="60.900002"
   y1="124"
   x2="74.300003"
   y2="137.39999"
   id="line18" />
<polyline
   class="st0"
   points="21.5,38.2 21.5,19.2 78.5,19.2 78.5,38.2 "
   id="polyline20" />
<line
   class="st2"
   x1="50"
   y1="19.200001"
   x2="50"
   y2="74.5"
   id="line22" />
<line
   class="st2"
   x1="67.5"
   y1="74.5"
   x2="32.5"
   y2="74.5"
   id="line24" />

<rect
   y="600"
   class="st3"
   width="100"
   height="100"
   id="rect28"
   x="0" />
<rect
   y="400"
   class="st3"
   width="100"
   height="100"
   id="rect30"
   x="0" />
<g
   id="g412"><rect
     y="500"
     class="st3"
     width="100"
     height="100"
     id="rect26"
     x="0" /><g
     id="g36">
	<line
   class="st2"
   x1="27.5"
   y1="527.5"
   x2="72.5"
   y2="572.5"
   id="line32" />
	<line
   class="st2"
   x1="72.5"
   y1="527.5"
   x2="27.5"
   y2="572.5"
   id="line34" />
</g></g>
<g
   id="g40">
	<polyline
   class="st2"
   points="76.2,432.1 40.3,467.9 23.8,451.5  "
   id="polyline38" />
</g>
<g
   id="g50">
	<g
   id="g46">
		<path
   class="st0"
   d="M 83.8,650 C 76.4,636.4 64,627.5 50,627.5 c -14,0 -26.4,8.9 -33.8,22.5"
   id="path42" />
		<path
   class="st0"
   d="m 16.2,650 c 7.4,13.6 19.8,22.5 33.8,22.5 14,0 26.4,-8.9 33.8,-22.5"
   id="path44" />
	</g>
	<circle
   class="st0"
   cx="50"
   cy="650"
   r="8.8999996"
   id="circle48" />
</g>
<rect
   y="700"
   class="st3"
   width="100"
   height="100"
   id="rect52"
   x="0" />
<rect
   x="13.3"
   y="722.59998"
   class="st0"
   width="73.300003"
   height="54.799999"
   id="rect54" />
<line
   class="st2"
   x1="50"
   y1="722.59998"
   x2="50"
   y2="777.40002"
   id="line56" />
<g
   id="g62">
	<path
   d="m 38.1,755.1 c 0,0.7 -0.1,1.3 -0.4,1.9 -0.3,0.6 -0.6,1.1 -1.1,1.6 -0.5,0.5 -1,0.8 -1.6,1.1 -0.6,0.3 -1.2,0.4 -1.9,0.4 H 32 c -0.7,0 -1.3,-0.1 -1.9,-0.4 -0.6,-0.3 -1.1,-0.6 -1.6,-1.1 -0.5,-0.5 -0.8,-1 -1.1,-1.6 -0.3,-0.6 -0.4,-1.2 -0.4,-1.9 v -2 c 0,-0.7 0.1,-1.4 0.4,-2 0.3,-0.6 0.7,-1.2 1.2,-1.6 -0.4,-0.4 -0.7,-0.9 -1,-1.5 -0.2,-0.6 -0.3,-1.2 -0.3,-1.8 v -2 c 0,-0.7 0.1,-1.3 0.4,-1.9 0.3,-0.6 0.6,-1.1 1.1,-1.6 0.5,-0.5 1,-0.8 1.6,-1.1 0.6,-0.3 1.2,-0.4 1.9,-0.4 h 0.6 c 0.7,0 1.3,0.1 1.9,0.4 0.6,0.3 1.1,0.6 1.6,1.1 0.5,0.5 0.8,1 1.1,1.6 0.3,0.6 0.4,1.2 0.4,1.9 v 2 c 0,0.7 -0.1,1.3 -0.3,1.8 -0.2,0.5 -0.6,1.1 -1,1.5 0.5,0.5 0.9,1 1.2,1.6 0.3,0.6 0.4,1.3 0.4,2 v 2 z m -2.9,-2 c 0,-0.6 -0.2,-1 -0.6,-1.4 -0.4,-0.4 -0.9,-0.6 -1.4,-0.6 H 32 c -0.6,0 -1.1,0.2 -1.4,0.6 -0.3,0.4 -0.6,0.9 -0.6,1.4 v 2 c 0,0.6 0.2,1.1 0.6,1.5 0.4,0.4 0.9,0.6 1.4,0.6 h 1.2 c 0.6,0 1.1,-0.2 1.4,-0.6 0.4,-0.4 0.6,-0.9 0.6,-1.5 z M 34.9,744 c 0,-0.6 -0.2,-1 -0.6,-1.4 -0.4,-0.4 -0.9,-0.6 -1.4,-0.6 h -0.6 c -0.6,0 -1.1,0.2 -1.4,0.6 -0.4,0.4 -0.6,0.9 -0.6,1.4 v 2 c 0,0.6 0.2,1.1 0.6,1.5 0.4,0.4 0.9,0.6 1.4,0.6 h 0.6 c 0.6,0 1.1,-0.2 1.4,-0.6 0.4,-0.4 0.6,-0.9 0.6,-1.5 z"
   id="path58" />
	<path
   d="m 74.9,758.9 c 0,0.3 -0.1,0.5 -0.3,0.6 -0.2,0.2 -0.4,0.2 -0.6,0.2 h -9.9 c -0.2,0 -0.4,-0.1 -0.6,-0.2 -0.2,-0.2 -0.3,-0.4 -0.3,-0.6 v -1.2 c 0,-0.3 0.1,-0.5 0.3,-0.6 0.2,-0.2 0.4,-0.2 0.6,-0.2 h 3.8 v -12.8 l -1.5,1.8 c -0.1,0.2 -0.3,0.3 -0.6,0.3 -0.2,0 -0.4,-0.1 -0.6,-0.2 l -0.9,-0.8 c -0.2,-0.1 -0.3,-0.3 -0.3,-0.6 0,-0.2 0.1,-0.4 0.2,-0.6 l 3.7,-4.3 c 0.1,-0.1 0.2,-0.2 0.3,-0.2 0.1,-0.1 0.3,-0.1 0.3,-0.1 h 1.4 c 0.3,0 0.5,0.1 0.6,0.2 0.2,0.2 0.2,0.4 0.2,0.6 v 16.6 H 74 c 0.2,0 0.4,0.1 0.6,0.2 0.2,0.2 0.3,0.4 0.3,0.6 z"
   id="path60" />
</g>
<rect
   y="800"
   class="st3"
   width="100"
   height="100"
   id="rect64"
   x="0" />
<path
   class="st0"
   d="m 50,824.5 c 14.1,0 25.5,11.4 25.5,25.5 0,14.1 -11.4,25.5 -25.5,25.5 -14.1,0 -25.5,-11.4 -25.5,-25.5"
   id="path66" />
<rect
   y="900"
   class="st3"
   width="100"
   height="100"
   id="rect68"
   x="0" />
<rect
   y="1000"
   class="st3"
   width="100"
   height="100"
   id="rect70"
   x="0" />
<polyline
   class="st2"
   points="57.1,837.2 47.8,824.5 60.5,815.2 "
   id="polyline72" />
<circle
   class="st2"
   cx="50"
   cy="950"
   r="25.5"
   id="circle74" />
<path
   d="m 50.8,975.5 c -14.1,0 -25.5,-11.4 -25.5,-25.5 0,-14.1 11.4,-25.5 25.5,-25.5 z"
   id="path76" />
<circle
   class="st2"
   cx="50"
   cy="1050"
   r="18.1"
   id="circle78" />
<line
   class="st2"
   x1="86.699997"
   y1="1050"
   x2="78.300003"
   y2="1050"
   id="line80" />
<line
   class="st2"
   x1="21.700001"
   y1="1050"
   x2="13.3"
   y2="1050"
   id="line82" />
<line
   class="st2"
   x1="50"
   y1="1086.7"
   x2="50"
   y2="1078.3"
   id="line84" />
<line
   class="st2"
   x1="50"
   y1="1021.7"
   x2="50"
   y2="1013.3"
   id="line86" />
<line
   class="st2"
   x1="24.1"
   y1="1075.9"
   x2="30"
   y2="1070"
   id="line88" />
<line
   class="st2"
   x1="70"
   y1="1030"
   x2="75.900002"
   y2="1024.1"
   id="line90" />
<line
   class="st2"
   x1="24.1"
   y1="1024.1"
   x2="30"
   y2="1030"
   id="line92" />
<line
   class="st2"
   x1="70"
   y1="1070"
   x2="75.900002"
   y2="1075.9"
   id="line94" />
<rect
   y="1099.9203"
   class="st3"
   width="100"
   height="100"
   id="rect424"
   x="0" /><line
   class="st2"
   x1="72.5"
   y1="1127.4203"
   x2="27.5"
   y2="1172.4203"
   id="line428" /><path
   style="fill:none;fill-opacity:1;stroke:#000000;stroke-width:5;stroke-linecap:round;stroke-linejoin:round;stroke-dasharray:none;stroke-opacity:1"
   d="M 50.724224,1127.4203 H 72.5 l -0.196819,21.8116"
   id="path1320" /><path
   style="fill:none;fill-opacity:1;stroke:#000000;stroke-width:5;stroke-linecap:round;stroke-linejoin:round;stroke-dasharray:none;stroke-opacity:1"
   d="M 49.275776,1172.4203 H 27.5 l 0.196819,-21.8116"
   id="path2050" /><rect
   style="fill:none;fill-opacity:1;stroke:none;stroke-width:5;stroke-dasharray:none;stroke-opacity:1;stop-color:#000000"
   id="rect3727"
   width="100"
   height="100"
   x="0"
   y="1200" /><path
   style="fill:none;stroke:#000000;stroke-width:5;stroke-linecap:round;stroke-linejoin:round;stroke-dasharray:none;stroke-opacity:1"
   d="m 24.320448,1224.4573 0.695235,50.926"
   id="path3783" /><path
   style="fill:none;stroke:#000000;stroke-width:5;stroke-linecap:round;stroke-linejoin:round;stroke-dasharray:none;stroke-opacity:1"
   d="m 49.652383,1224.4573 0.695233,50.926"
   id="path3785" /><path
   style="fill:none;stroke:#000000;stroke-width:5;stroke-linecap:round;stroke-linejoin:round;stroke-dasharray:none;stroke-opacity:1"
   d="m 74.984317,1224.4573 0.695235,50.926"
   id="path3787" /><path
   style="fill:none;stroke:#000000;stroke-width:5;stroke-linecap:round;stroke-linejoin:miter;stroke-dasharray:none;stroke-opacity:1"
   d="M 16.805329,1232.4379 H 32.530803"
   id="path3848" /><path
   style="fill:none;stroke:#000000;stroke-width:5;stroke-linecap:round;stroke-linejoin:miter;stroke-dasharray:none;stroke-opacity:1"
   d="M 42.137263,1256.0798 H 57.862737"
   id="path3850" /><path
   style="fill:none;stroke:#000000;stroke-width:5;stroke-linecap:round;stroke-linejoin:miter;stroke-dasharray:none;stroke-opacity:1"
   d="M 67.469198,1240.4914 H 83.194671"
   id="path3855" /></svg>
