<?xml version="1.0" encoding="utf-8"?>
<!-- Generator: Adobe Illustrator 23.1.1, SVG Export Plug-In . SVG Version: 6.00 Build 0)  -->
<svg version="1.1" id="Calque_1" xmlns="http://www.w3.org/2000/svg" xmlns:xlink="http://www.w3.org/1999/xlink" x="0px" y="0px"
	 viewBox="0 0 504.3 467.5" style="enable-background:new 0 0 504.3 467.5;" xml:space="preserve">
<style type="text/css">
	.st0{fill:#A8FD25;}
</style>
<g>
	<path class="st0" d="M456,410.3H70.1c63-40.4,114.9-78.1,155.7-114c41.2-35.9,61.6-61.2,61.6-76.7c0-16-8.4-29.3-25.7-39.5
		c-17.3-10.6-39-16-65.2-16c-17.7,0-38.6,4-62.5,12c-23.5,8-44.8,18.2-63.9,30.2V97.6c19.1-10.2,44.8-18.6,76.7-25.3
		c32.4-6.7,63.4-10.2,94-10.2c46.1,0,84.3,9.8,114.4,28.8c30.2,19.1,45.2,43.5,45.2,73.2c0,23.5-14.6,50.6-43.5,81.6
		c-28.8,30.6-65.6,58.1-109.5,82.5v4.4l90.9-15.5c18.2-3.1,38.1-8.4,60.3-16c22.2-8,41.2-16.9,57.2-26.2V410.3z"/>
</g>
</svg>
