<?xml version="1.0" encoding="utf-8"?>
<!-- Generator: Adobe Illustrator 23.1.1, SVG Export Plug-In . SVG Version: 6.00 Build 0)  -->
<svg version="1.1" id="Calque_1" xmlns="http://www.w3.org/2000/svg" xmlns:xlink="http://www.w3.org/1999/xlink" x="0px" y="0px"
	 viewBox="0 0 504.3 467.5" style="enable-background:new 0 0 504.3 467.5;" xml:space="preserve">
<style type="text/css">
	.st0{fill:#A8FD25;}
</style>
<g>
	<path class="st0" d="M405.1,380.7c-39.9,22.6-90.5,33.7-152.1,33.7c-28.8,0-59-2.7-89.6-7.5c-30.6-4.9-55-11.5-73.2-19.1V281.3
		c16.9,9.3,40.8,16.9,71.4,22.6c30.6,5.8,60.8,8.4,90.5,8.4c30.6,0,56.3-2.7,76.3-8c20-5.8,30.2-12.4,30.2-20.8
		s-10.6-15.1-31.5-20.4c-20.8-5.8-47-8.4-79.4-8.4c-34.6,0-62.5,3.1-84.3,8.9l106.4-108.7L85.8,168.2v-102h341.5l-133,130.8h8.9
		c46.6,0,85.2,9.3,115.8,27.9c30.6,18.6,46.1,42.1,46.1,70.5C465,329.7,445,358,405.1,380.7z"/>
</g>
</svg>
