<svg height="1000" viewBox="0 0 1000 1000" width="1000" xmlns="http://www.w3.org/2000/svg"><g font-family="'Optima-Bold'" font-size="8.05"><text transform="translate(4379.475 3189.506)">W</text><text transform="translate(4386.961 3189.506)">orl</text><text transform="translate(4396.807 3189.506)">d</text><text transform="translate(4403.681 3189.506)">W</text><text transform="translate(4411.49 3189.506)">ide</text><text transform="translate(4423.983 3189.506)">W</text><text transform="translate(4431.47 3189.506)">eb</text></g><path d="m645.013 574.365c9.75-31.033 19.322-62.152 28.556-93.387-22.691-67.249-46.007-134.279-64.259-202.831-11.047 1.309-21.449 1.953-32.495 1.953-11.047 0-21.439-.644-32.495-1.953-3.467 11.491-7.054 22.939-10.704 34.364 9.026-.182 17.777-.784 26.954-1.871 23.751 89.207 56.078 175.836 84.443 263.725zm-245.798 146.425c1.362-.054 2.724-.085 4.085-.085 10.402 0 21.449 1.943 32.495 3.242 17.258-51.173 34.651-100.293 51.933-148.443-6.039-17.346-12.158-34.646-18.33-51.911-23.124 64.191-46.723 129.055-70.183 197.197zm-32.44-144.459c10.919-30.319 21.926-60.603 32.71-90.963-18.7-68.768-36.829-137.729-53.371-207.222-17.541 1.309-35.748 3.252-53.289 3.252-18.196 0-35.738-1.944-53.934-3.252l5.841 18.85c1.724 5.608 3.449 11.214 5.174 16.82 15.725-.353 31.859-2.012 47.468-3.176 21.234 89.202 45.083 177.528 69.401 265.691zm472.589-296.231c-10.402 0-20.15-.644-30.542-1.953-2.841 11.431-5.777 22.837-8.765 34.227 6.847-.28 13.797-.84 20.454-1.734-50.842 138.185-97.823 273.075-140.451 410.217 1.762-.088 3.524-.152 5.285-.152 10.392 0 21.439 1.943 32.495 3.242 45.485-149.456 96.177-295.68 151.41-445.801-9.746 1.309-20.138 1.954-29.886 1.954z" fill="#00a651"/><path d="m334.419 668.066c10.476-30.695 21.371-61.233 32.356-91.735-24.318-88.164-48.168-176.489-69.401-265.692-15.61 1.165-31.743 2.823-47.468 3.176-1.946.044-3.889.076-5.821.076-18.196 0-35.738-1.943-53.934-3.252l5.841 18.85c1.724 5.608 3.449 11.213 5.174 16.819 15.726-.353 31.859-2.012 47.468-3.177 25.991 109.189 55.888 217.067 85.785 324.935zm280.737 0c10.013-31.167 20.02-62.392 29.857-93.701-28.364-87.889-60.692-174.518-84.443-263.725-9.177 1.087-17.928 1.69-26.954 1.871-1.839.037-3.671.082-5.541.082-11.047 0-21.439-.644-32.495-1.953-3.467 11.491-7.054 22.939-10.704 34.364 9.026-.182 17.778-.784 26.954-1.871 29.242 109.831 71.485 215.756 103.326 324.933zm-164.41-196.251c-32.486 92.234-66.527 183.454-100.271 281.468 1.362-.054 2.724-.085 4.086-.085 10.402 0 21.449 1.943 32.495 3.242 4.046-11.998 8.101-23.864 12.159-35.651 23.459-68.142 47.059-133.005 70.183-197.197-6.179-17.286-12.404-34.542-18.652-51.777zm349.312-159.441c-3.18.13-6.342.219-9.433.219-10.402 0-20.15-.644-30.542-1.953-2.841 11.431-5.777 22.837-8.765 34.227 6.847-.28 13.797-.84 20.454-1.734-50.842 138.185-97.824 273.074-140.451 410.217 1.762-.088 3.524-.152 5.285-.152 10.392 0 21.439 1.943 32.495 3.242 3.616-11.883 7.278-23.739 10.959-35.584 42.627-137.142 89.609-272.031 140.451-410.217-6.656.894-13.606 1.454-20.453 1.735z" fill="#82ca9c"/><path d="m771.772 343.133c-6.657.894-13.607 1.454-20.454 1.734-3.18.13-6.342.219-9.433.219-10.402 0-20.15-.644-30.542-1.953-11.499 46.264-24.274 92.177-37.774 137.845-9.234 31.235-18.806 62.354-28.556 93.387-9.837 31.309-19.844 62.534-29.857 93.701-31.841-109.177-74.084-215.102-103.327-324.933-9.177 1.087-17.928 1.69-26.954 1.871-1.839.037-3.671.082-5.541.082-11.047 0-21.439-.644-32.495-1.953-14.449 47.887-30.63 95.155-47.354 142.236-10.784 30.36-21.791 60.643-32.71 90.963-10.985 30.502-21.88 61.04-32.356 91.735-29.897-107.868-59.795-215.746-85.785-324.933-15.61 1.165-31.743 2.823-47.468 3.177-1.946.044-3.889.076-5.821.076-18.196 0-35.738-1.943-53.934-3.252l5.841 18.851c43.542 141.672 87.738 282.69 125.429 426.951 11.047-1.299 22.094-3.243 33.14-3.243 10.402 0 21.449 1.943 32.495 3.243 4.046-11.998 8.101-23.864 12.159-35.651 33.744-98.014 67.785-189.234 100.271-281.468 6.248 17.235 12.473 34.492 18.653 51.778 6.172 17.266 12.291 34.565 18.33 51.911 24.389 70.052 47.434 140.872 66.988 213.43 11.056-1.299 22.103-3.243 33.15-3.243 10.392 0 21.439 1.943 32.495 3.243 3.616-11.883 7.278-23.739 10.959-35.584 42.627-137.146 89.609-272.035 140.451-410.22z" fill="none" stroke="#82ca9c" stroke-miterlimit="10" stroke-width="6"/><path d="m57.294 228.707c-2.115-2.744-4.28-5.467-6.497-8.172.803-.446 1.663-.952 2.581-1.516.917-.562 1.92-1.237 3.009-2.023 1.087-.785 2.043-1.525 2.867-2.22.823-.693 1.573-1.35 2.25-1.973 1.869 2.956 3.773 5.868 5.714 8.737 1.939 2.871 4.215 6.112 6.823 9.725l6.412 8.879c1.792 2.481 3.53 4.868 5.218 7.158 1.688 2.292 3.166 4.27 4.436 5.936 2.481-1.791 4.915-3.648 7.301-5.57s4.732-3.946 7.037-6.074c.258.543.507 1.024.747 1.447.239.423.611.983 1.113 1.679.503.697.917 1.226 1.244 1.586.326.36.627.64.903.837-1.207.806-2.678 1.817-4.413 3.038-1.736 1.219-4.104 2.913-7.107 5.082-2.655 1.918-4.81 3.474-6.463 4.667l-3.885 2.806c-.979.707-1.712 1.252-2.196 1.636-.485.383-.886.722-1.202 1.017-1.775-2.823-3.633-5.671-5.572-8.541-1.94-2.87-4.214-6.111-6.823-9.725l-6.412-8.879c-2.609-3.614-4.971-6.792-7.085-9.537zm54.886-6.454c1.11 1.839 2.333 3.452 3.673 4.838 1.339 1.388 2.741 2.437 4.207 3.151s2.986 1.052 4.561 1.01c1.574-.041 3.142-.533 4.705-1.477 3.171-1.914 5.374-4.655 6.607-8.222l1.202.121.814 4.776c-.622 1.567-1.578 3.102-2.867 4.6-1.291 1.5-3.244 3.041-5.864 4.622-2.252 1.359-4.577 2.34-6.974 2.939-2.397.601-4.795.653-7.195.157-2.4-.494-4.707-1.563-6.921-3.206-2.214-1.642-4.237-3.979-6.068-7.014-1.803-2.987-2.969-5.826-3.496-8.519-.528-2.691-.523-5.202.014-7.534.537-2.33 1.56-4.452 3.07-6.368 1.509-1.913 3.413-3.564 5.711-4.952 4.55-2.747 8.836-3.515 12.858-2.307 4.022 1.21 7.504 4.251 10.445 9.122l.874 1.447c.25.414.392.704.43.869zm8.745-9.511c-2.173-3.391-4.263-5.893-6.27-7.503s-3.907-1.875-5.699-.793c-1.011.61-1.653 1.469-1.926 2.574s-.291 2.324-.053 3.653c.239 1.33.664 2.735 1.275 4.216.612 1.48 1.296 2.902 2.056 4.262zm28.168-30.4c.323.619.705 1.177 1.146 1.673l-6.355 3.139c.476 1.146 1.052 2.449 1.727 3.913.674 1.465 1.385 2.942 2.132 4.429l2.166 4.32c.697 1.394 1.294 2.564 1.792 3.516 1.293 2.476 2.396 4.443 3.311 5.903.914 1.461 1.726 2.521 2.434 3.18.708.661 1.397.996 2.071 1.008.672.013 1.413-.192 2.223-.615.903-.472 1.539-.88 1.905-1.223.366-.342.701-.744 1.005-1.207l1.529 2.927c-.729.926-1.719 1.928-2.972 3.007-1.254 1.078-2.571 1.979-3.95 2.699-6.043 3.157-10.954 1.12-14.732-6.113-.721-1.38-1.511-2.95-2.371-4.713-.86-1.761-1.732-3.577-2.618-5.446-.885-1.868-1.771-3.708-2.656-5.518s-1.724-3.475-2.52-4.998l-4.959 2.682c-.156-.646-.395-1.277-.718-1.896-.298-.571-.705-1.177-1.221-1.815l5.108-2.396c-.77-1.474-1.516-2.842-2.234-4.103-.719-1.26-1.598-2.768-2.638-4.527 1.317-1.535 2.592-3.095 3.825-4.679 1.232-1.582 2.447-3.2 3.642-4.855l.975.127c.302.812.686 1.747 1.148 2.808.463 1.061.952 2.169 1.464 3.323.513 1.156 1.062 2.323 1.647 3.501.585 1.18 1.152 2.292 1.698 3.338l6.207-3.425c.227.786.491 1.466.789 2.036zm4.33-11.594c-.682-3.595-1.071-6.378-1.166-8.351-.097-1.971.081-3.359.533-4.166.452-.805 1.163-1.436 2.135-1.894.583-.273 1.224-.455 1.923-.547.698-.091 1.389-.075 2.07.05s1.316.404 1.907.839c.589.435 1.056 1.017 1.398 1.745.137.292.25.625.336.999.087.375.104.916.05 1.622-.054.708-.143 1.655-.267 2.84-.125 1.187-.354 2.718-.688 4.595-.333 1.878-.744 4.161-1.229 6.851-.486 2.69-1.086 5.924-1.803 9.701l-2.165.127c-1.341-6.012-2.354-10.817-3.034-14.411zm29.726 27.298c.777.513 1.633.903 2.568 1.171.935.27 1.958.369 3.067.298 1.11-.07 2.305-.382 3.587-.936 1.725-.745 2.864-1.764 3.417-3.056.552-1.291.606-2.455.159-3.49-.49-1.133-1.303-1.863-2.438-2.192-1.137-.327-2.455-.503-3.956-.527-1.501-.023-3.12-.012-4.854.035-1.734.048-3.426-.112-5.077-.481-1.65-.369-3.193-1.062-4.627-2.08-1.435-1.018-2.619-2.61-3.557-4.78-.894-2.069-1.285-4.021-1.169-5.854.114-1.832.58-3.496 1.397-4.989.816-1.493 1.9-2.81 3.25-3.949 1.35-1.138 2.789-2.038 4.317-2.698 2.07-.895 4.033-1.392 5.891-1.492 1.856-.101 3.868.055 6.034.463-.017 1.179.071 2.397.265 3.658.194 1.262.452 2.467.772 3.614l-2.07.895c-.403-.528-.933-1.073-1.585-1.64-.654-.564-1.415-1.041-2.283-1.427-.868-.384-1.812-.605-2.831-.663-1.019-.056-2.12.171-3.302.682-1.479.639-2.553 1.571-3.222 2.796-.67 1.226-.728 2.479-.174 3.76.511 1.183 1.353 1.945 2.523 2.287 1.171.343 2.514.508 4.03.495 1.516-.011 3.154-.075 4.917-.194 1.762-.116 3.47-.021 5.124.287 1.654.309 3.21.968 4.669 1.974 1.458 1.008 2.657 2.596 3.593 4.764.938 2.169 1.346 4.2 1.229 6.093-.119 1.893-.624 3.633-1.518 5.217-.894 1.586-2.096 2.968-3.604 4.146s-3.2 2.172-5.072 2.981c-2.218.958-4.353 1.499-6.403 1.626-2.051.126-3.743.067-5.076-.176-.431-2.621-1.083-5.146-1.957-7.576l1.848-.798c.635.658 1.341 1.245 2.118 1.756zm49.141-66.011c-2.344.778-4.027 2.101-5.047 3.966-1.022 1.867-1.227 3.717-.618 5.551.626 1.886 1.711 3.237 3.254 4.054 1.544.817 3.343 1.423 5.396 1.814 2.053.394 4.223.707 6.505.938 2.283.232 4.506.711 6.67 1.435 2.163.725 4.127 1.826 5.891 3.306 1.764 1.479 3.128 3.671 4.092 6.575.846 2.549 1.135 5.04.869 7.476-.267 2.437-1.042 4.702-2.326 6.796-1.285 2.096-3.032 3.948-5.24 5.558-2.21 1.61-4.842 2.923-7.899 3.938-2.751.913-5.308 1.436-7.667 1.569-2.36.134-4.245-.047-5.652-.542-.083-1.951-.191-3.726-.325-5.322s-.361-3.302-.681-5.12l1.452-.481c.575 1.054 1.308 1.983 2.199 2.791.89.808 1.895 1.45 3.016 1.927 1.119.477 2.363.729 3.729.756 1.367.027 2.814-.213 4.343-.721 3.058-1.015 5.059-2.527 6.003-4.538.945-2.011 1.062-4.086.352-6.226-.643-1.937-1.728-3.33-3.254-4.181-1.527-.851-3.287-1.468-5.282-1.853-1.994-.385-4.133-.692-6.416-.926-2.283-.23-4.477-.705-6.581-1.421-2.104-.715-4.026-1.816-5.764-3.306-1.738-1.486-3.089-3.684-4.053-6.588-.879-2.648-1.187-5.148-.92-7.501.266-2.35.96-4.476 2.083-6.376 1.122-1.9 2.598-3.549 4.425-4.948 1.827-1.397 3.886-2.478 6.179-3.238 2.751-.914 5.27-1.381 7.553-1.404 2.283-.022 4.357.308 6.225.988-.069 1.325-.088 2.59-.056 3.794l.122 4.584-1.146.381c-3.088-3.842-6.897-5.01-11.431-3.505zm25.858-4.043c-1.244-4.223-2.554-8.486-3.929-12.786.702-.076 1.581-.216 2.64-.416 1.058-.2 2.157-.453 3.298-.76 1.14-.306 2.219-.636 3.236-.992 1.016-.355 1.847-.675 2.494-.961.96 4.412 1.959 8.759 2.996 13.037 1.036 4.281 2.236 8.962 3.598 14.043l.197.114c.764-2.54 1.959-4.666 3.583-6.381 1.625-1.714 3.682-2.904 6.171-3.572 3.889-1.042 7.186-.718 9.891.975s4.732 5.055 6.081 10.084c.709 2.645 1.282 4.992 1.721 7.042.438 2.051.929 4.087 1.471 6.109.445 1.66.967 3.451 1.566 5.374.599 1.924 1.193 3.78 1.784 5.566-.703.076-1.572.255-2.609.533l-3.267.876-3.267.876c-1.038.278-1.88.559-2.525.844-.361-2.793-.979-6.032-1.855-9.717-.877-3.684-1.947-7.884-3.212-12.604-.876-3.267-2.077-5.515-3.602-6.746-1.525-1.229-3.299-1.575-5.321-1.033-2.333.626-3.774 2.096-4.32 4.41-.547 2.314-.34 5.261.619 8.839l.834 3.111c.195.727.488 1.773.883 3.14.394 1.367.836 2.86 1.326 4.479.489 1.62 1 3.263 1.529 4.927.53 1.664 1.013 3.104 1.451 4.321-.703.076-1.572.255-2.608.532l-3.267.876-3.267.876c-1.038.278-1.88.56-2.525.844-.919-4.255-1.897-8.522-2.933-12.804-1.037-4.278-2.236-8.96-3.599-14.042l-1.355-5.056c-1.361-5.08-2.664-9.733-3.908-13.958zm47.758 1.242c1.833-2.248 3.922-4.114 6.273-5.595 2.35-1.48 4.786-2.485 7.308-3.015 2.101-.44 4.081-.609 5.941-.506 1.859.104 3.54.533 5.042 1.287 1.502.755 2.779 1.873 3.83 3.353s1.819 3.376 2.304 5.688c.706 3.363 1.319 6.484 1.841 9.364.522 2.881 1.081 5.739 1.676 8.576.265 1.261.562 2.227.896 2.897.332.671.721 1.152 1.167 1.442.444.291.98.426 1.606.403.626-.021 1.333-.115 2.122-.28l.396 1.892c-1.392.95-2.58 1.692-3.564 2.229-.986.536-2.082.931-3.29 1.184-1.944.408-3.62.266-5.026-.427-1.408-.691-2.613-1.864-3.618-3.52-.856 1.937-1.98 3.571-3.374 4.904-1.394 1.334-3.299 2.256-5.715 2.763-1.998.419-3.76.514-5.289.286-1.529-.227-2.855-.729-3.979-1.51-1.124-.778-2.025-1.741-2.704-2.889-.68-1.146-1.151-2.351-1.416-3.611-.364-1.734-.402-3.289-.115-4.666s.85-2.618 1.687-3.728c.837-1.107 1.902-2.113 3.193-3.015 1.292-.901 2.787-1.75 4.485-2.546 2.097-.987 3.746-1.814 4.952-2.479 1.204-.664 2.081-1.26 2.629-1.786s.863-1.045.949-1.557c.084-.512.055-1.108-.088-1.792-.397-1.892-1.406-3.366-3.027-4.426-1.621-1.059-3.614-1.34-5.978-.844-.894.188-1.788.499-2.684.934s-1.733.954-2.512 1.556c-.779.603-1.471 1.228-2.075 1.875-.604.649-1.031 1.301-1.277 1.955l-.552.115zm23.176 17.518c-.474-2.259-.823-3.982-1.044-5.17-.222-1.188-.426-2.228-.614-3.122-.971.862-2.033 1.62-3.185 2.272-1.152.653-2.177 1.391-3.075 2.209-.898.819-1.565 1.823-2.001 3.012-.437 1.189-.445 2.781-.026 4.778.408 1.944 1.125 3.343 2.156 4.196 1.029.854 2.226 1.138 3.593.851 1.734-.363 3.001-1.314 3.803-2.854.802-1.539.934-3.596.393-6.172zm29.112-22.133c.778-3.882 2.007-6.844 3.686-8.887 1.678-2.042 3.868-3.286 6.57-3.729.265-.043.492-.066.682-.07.189-.004.39-.023.603-.059-.029.821-.009 1.688.059 2.602.068.915.202 1.98.401 3.198l.417 2.544.221 1.351s.178.923.301 1.338l-.611.753c-.583-.231-1.222-.397-1.918-.502-.698-.103-1.47-.085-2.317.054-2.384.391-4.137 1.48-5.258 3.269-1.123 1.789-1.509 3.743-1.162 5.861l.521 3.179c.53 3.232 1.068 6.271 1.617 9.12.548 2.848 1.17 5.575 1.87 8.18-.707.007-1.576.096-2.609.265l-3.377.553-3.338.547c-1.007.165-1.873.36-2.596.589-.169-2.692-.448-5.476-.837-8.35s-.849-5.927-1.378-9.159l-.521-3.179c-.529-3.23-1.066-6.258-1.61-9.079s-1.183-5.642-1.916-8.459c.917-.041 1.847-.099 2.787-.171.939-.072 1.86-.183 2.761-.33.9-.147 1.808-.337 2.723-.568.913-.231 1.812-.473 2.696-.728l1.35 9.735zm30.37 5.16c.259 2.132.713 4.104 1.367 5.918.652 1.814 1.501 3.347 2.545 4.599 1.044 1.253 2.293 2.184 3.746 2.791 1.453.608 3.085.802 4.897.582 3.677-.446 6.81-2.043 9.396-4.791l1.046.604-1.215 4.69c-1.21 1.175-2.71 2.182-4.501 3.02-1.792.839-4.205 1.443-7.243 1.812-2.612.316-5.134.258-7.566-.178-2.433-.435-4.642-1.369-6.627-2.806-1.987-1.435-3.652-3.355-4.999-5.762-1.346-2.404-2.233-5.366-2.66-8.884-.42-3.464-.32-6.532.303-9.204.622-2.671 1.656-4.959 3.101-6.865s3.248-3.423 5.411-4.551c2.161-1.127 4.574-1.853 7.239-2.176 5.276-.641 9.501.416 12.674 3.167 3.173 2.752 5.103 6.953 5.788 12.602l.204 1.679c.059.479.07.803.037.969zm11.875-5.092c-.592-3.983-1.473-7.122-2.643-9.413-1.17-2.292-2.795-3.312-4.874-3.06-1.173.143-2.11.662-2.812 1.559-.703.896-1.218 2-1.545 3.311s-.516 2.768-.565 4.367c-.049 1.603-.007 3.179.127 4.73zm69.763-12.267c-1.137 3.444-2.285 6.954-3.443 10.532-1.159 3.578-2.28 7.103-3.361 10.569-1.083 3.47-2.014 6.558-2.795 9.266-1.238-.073-2.608-.087-4.11-.043l-2.093.06c-.698.021-1.395.094-2.088.222-.655-2.183-1.514-5.004-2.58-8.466-1.066-3.46-2.22-7.132-3.459-11.018-1.24-3.885-2.508-7.81-3.803-11.773-1.296-3.964-2.502-7.595-3.617-10.894-1.116-3.297-2.056-6.104-2.82-8.418-.765-2.314-1.263-3.736-1.493-4.267 1.183.074 2.34.134 3.47.182s2.229.057 3.304.025c1.073-.03 2.159-.103 3.257-.214 1.097-.112 2.181-.237 3.252-.376.904 3.412 1.863 6.915 2.881 10.511 1.016 3.597 2.044 7.14 3.085 10.627 1.04 3.488 2.051 6.869 3.031 10.144s1.886 6.298 2.718 9.065l.161-.004c1.083-3.415 2.252-7.114 3.507-11.098s2.472-7.887 3.651-11.707 2.258-7.342 3.24-10.566c.981-3.223 1.739-5.782 2.276-7.679.7.088 1.375.162 2.021.224s1.318.083 2.016.063c.697-.021 1.367-.08 2.009-.179.642-.1 1.31-.212 2.004-.34.248 1.175.696 2.746 1.344 4.714.647 1.97 1.395 4.149 2.243 6.542.847 2.393 1.753 4.918 2.716 7.575.962 2.659 1.924 5.29 2.886 7.893.961 2.604 1.851 5.076 2.67 7.416s1.496 4.388 2.03 6.145l.161-.005c.976-3.411 2.009-7.174 3.099-11.287 1.09-4.112 2.144-8.091 3.161-11.934 1.018-3.843 1.936-7.359 2.758-10.553.821-3.192 1.396-5.6 1.726-7.22 1.349.23 2.479.331 3.393.305.59-.017 1.192-.074 1.808-.173.614-.098 1.243-.209 1.883-.336-.347 1.031-.889 2.712-1.627 5.042-.739 2.331-1.6 5.081-2.582 8.251-.984 3.171-2.039 6.625-3.166 10.363-1.128 3.738-2.255 7.505-3.381 11.296-1.127 3.792-2.214 7.503-3.264 11.131-1.051 3.629-1.965 6.878-2.741 9.746-1.238-.072-2.608-.086-4.11-.042l-2.093.06c-.698.021-1.395.094-2.088.222-1.907-6.497-4.039-12.947-6.398-19.353-2.36-6.403-4.844-12.925-7.452-19.563l-.161.005c-.888 2.766-1.9 5.869-3.036 9.312zm48.915-17.727c.067-4.402.083-8.861.048-13.376.692.136 1.574.264 2.644.387 1.069.123 2.194.208 3.375.255 1.179.047 2.308.052 3.384.014 1.076-.037 1.964-.096 2.667-.176-.394 4.498-.732 8.944-1.014 13.338-.283 4.396-.528 9.222-.737 14.478l.154.168c1.484-2.198 3.257-3.873 5.318-5.027 2.061-1.153 4.378-1.68 6.953-1.577 4.023.16 7.075 1.45 9.155 3.87s3.016 6.232 2.81 11.435c-.109 2.736-.259 5.148-.449 7.236-.191 2.088-.327 4.178-.411 6.27-.068 1.718-.102 3.582-.102 5.598 0 2.015.016 3.963.05 5.845-.693-.136-1.577-.224-2.649-.267l-3.38-.135-3.379-.134c-1.074-.043-1.961-.025-2.662.055.485-2.773.857-6.051 1.116-9.828.257-3.777.483-8.106.677-12.988.135-3.38-.344-5.884-1.434-7.513-1.091-1.627-2.682-2.483-4.773-2.567-2.414-.096-4.226.88-5.436 2.928-1.21 2.047-1.888 4.921-2.036 8.623l-.128 3.219c-.03.752-.061 1.838-.089 3.26-.03 1.424-.052 2.98-.065 4.672-.014 1.692-.015 3.412-.003 5.158.011 1.747.044 3.266.101 4.558-.693-.136-1.576-.224-2.649-.267l-3.379-.135-3.38-.134c-1.074-.043-1.961-.025-2.662.055.387-4.336.721-8.701 1.004-13.097.282-4.394.528-9.22.737-14.478l.208-5.23c.21-5.259.348-10.089.416-14.493zm45.098 15.312c2.407-1.618 4.95-2.795 7.629-3.527 2.679-.733 5.302-.985 7.869-.758 2.138.189 4.082.604 5.832 1.244 1.748.641 3.231 1.54 4.45 2.699 1.217 1.158 2.114 2.6 2.689 4.321.575 1.722.758 3.759.55 6.111-.304 3.423-.625 6.588-.963 9.495-.339 2.908-.636 5.805-.892 8.692-.114 1.284-.11 2.295.014 3.033.123.738.355 1.312.696 1.72.34.407.814.692 1.42.853.605.163 1.31.278 2.112.35l-.171 1.925c-1.608.504-2.961.869-4.059 1.096-1.099.226-2.262.284-3.492.176-1.979-.176-3.541-.8-4.685-1.871-1.146-1.071-1.957-2.545-2.438-4.42-1.383 1.603-2.934 2.84-4.654 3.711-1.722.87-3.812 1.197-6.271.979-2.033-.18-3.747-.603-5.143-1.265-1.396-.661-2.52-1.529-3.367-2.603-.849-1.071-1.431-2.255-1.747-3.55-.317-1.294-.418-2.584-.304-3.867.157-1.765.573-3.264 1.248-4.498.675-1.233 1.574-2.258 2.698-3.075 1.124-.816 2.434-1.468 3.933-1.955 1.499-.486 3.175-.863 5.032-1.131 2.293-.335 4.112-.646 5.459-.931 1.345-.285 2.357-.6 3.035-.943.677-.345 1.13-.749 1.36-1.214.229-.465.375-1.044.438-1.74.17-1.925-.366-3.63-1.608-5.114s-3.067-2.333-5.474-2.547c-.91-.08-1.856-.043-2.84.112s-1.936.408-2.856.757c-.92.351-1.764.747-2.531 1.19-.767.445-1.364.944-1.79 1.499l-.562-.05zm17.077 23.504c.204-2.299.372-4.05.506-5.251.133-1.2.24-2.255.321-3.164-1.18.542-2.417.958-3.708 1.247-1.292.29-2.487.697-3.584 1.219-1.098.522-2.028 1.289-2.791 2.299-.764 1.012-1.235 2.532-1.415 4.563-.176 1.979.104 3.526.841 4.643.736 1.116 1.799 1.736 3.19 1.859 1.765.156 3.254-.385 4.469-1.625 1.214-1.239 1.939-3.169 2.171-5.79zm43.625-19.041c-.088.692-.093 1.368-.015 2.027l-7.009-1.056c-.264 1.212-.536 2.61-.82 4.198-.284 1.587-.544 3.205-.781 4.852l-.691 4.783c-.225 1.542-.403 2.845-.539 3.909-.354 2.77-.572 5.015-.656 6.735-.085 1.723-.024 3.056.18 4.001.204.947.578 1.616 1.124 2.011.545.395 1.27.649 2.176.765 1.011.129 1.766.158 2.262.086.496-.071 1.001-.21 1.514-.416l-.417 3.275c-1.127.343-2.512.599-4.157.769-1.645.168-3.241.154-4.785-.042-6.764-.863-9.629-5.341-8.596-13.437.197-1.544.446-3.284.747-5.222.3-1.938.623-3.926.964-5.966s.666-4.056.974-6.046c.307-1.99.571-3.837.788-5.542l-5.602-.633c.242-.619.406-1.274.495-1.967.082-.639.093-1.368.036-2.188l5.561.953c.21-1.65.38-3.199.511-4.644.129-1.444.271-3.185.422-5.223 1.958-.508 3.896-1.059 5.812-1.653 1.915-.595 3.836-1.229 5.763-1.903l.728.661c-.216.839-.436 1.825-.662 2.96s-.459 2.323-.698 3.563c-.239 1.242-.456 2.514-.649 3.814-.194 1.302-.364 2.538-.514 3.709l7.05.737c-.262.783-.434 1.492-.516 2.13zm57.405 16.455c-1.94 3.064-3.906 6.19-5.899 9.38-1.994 3.188-3.938 6.335-5.829 9.437-1.893 3.102-3.547 5.871-4.962 8.308-1.184-.371-2.509-.717-3.977-1.04l-2.045-.45c-.682-.15-1.375-.249-2.079-.293-.104-2.276-.252-5.222-.446-8.839-.194-3.615-.42-7.458-.679-11.528-.259-4.068-.536-8.185-.829-12.345-.294-4.159-.582-7.975-.861-11.445-.281-3.47-.512-6.42-.69-8.851-.18-2.432-.318-3.932-.411-4.502 1.129.359 2.238.698 3.321 1.02 1.084.321 2.149.597 3.199.827 1.048.231 2.119.426 3.211.584 1.091.157 2.173.3 3.246.426.048 3.528.127 7.16.24 10.896.112 3.735.249 7.422.411 11.058.161 3.637.32 7.162.476 10.576.155 3.415.299 6.567.434 9.455l.157.034c1.879-3.049 3.913-6.354 6.099-9.913 2.185-3.56 4.314-7.049 6.385-10.468 2.072-3.42 3.975-6.573 5.711-9.463 1.735-2.888 3.093-5.187 4.074-6.896.657.256 1.294.491 1.905.708.612.217 1.259.4 1.94.551.681.149 1.346.255 1.992.314.646.061 1.321.113 2.027.158-.046 1.199.007 2.833.158 4.899.149 2.067.345 4.363.586 6.891.24 2.526.505 5.196.793 8.008.288 2.813.582 5.599.882 8.357.3 2.76.562 5.374.789 7.843.226 2.469.385 4.619.476 6.454l.157.034c1.775-3.072 3.692-6.471 5.749-10.196s4.045-7.327 5.966-10.809c1.921-3.479 3.666-6.668 5.239-9.566 1.571-2.896 2.715-5.092 3.428-6.584 1.252.552 2.325.924 3.217 1.12.576.127 1.175.218 1.796.271.619.055 1.256.1 1.908.132-.586.916-1.521 2.415-2.803 4.495-1.283 2.082-2.787 4.541-4.51 7.377-1.725 2.837-3.588 5.931-5.589 9.283-2.003 3.353-4.011 6.731-6.024 10.136-2.015 3.405-3.972 6.74-5.871 10.005-1.901 3.265-3.577 6.194-5.026 8.788-1.184-.371-2.51-.717-3.977-1.04l-2.045-.45c-.683-.15-1.376-.248-2.079-.293-.271-6.766-.771-13.54-1.505-20.327-.732-6.784-1.558-13.714-2.475-20.787l-.157-.035c-1.53 2.466-3.266 5.231-5.204 8.295zm47.797 23.117c-.607 2.061-.972 4.052-1.091 5.976-.12 1.924.051 3.667.514 5.231.462 1.563 1.239 2.913 2.332 4.046 1.093 1.135 2.515 1.96 4.266 2.477 3.553 1.048 7.062.824 10.525-.673l.722.969-2.976 3.824c-1.576.599-3.353.929-5.329.988-1.978.06-4.433-.343-7.368-1.209-2.523-.744-4.815-1.798-6.875-3.162-2.062-1.363-3.719-3.098-4.972-5.203-1.255-2.104-2.022-4.528-2.305-7.271-.283-2.742.077-5.812 1.08-9.211.987-3.347 2.296-6.124 3.927-8.329 1.63-2.206 3.486-3.896 5.569-5.074 2.082-1.177 4.339-1.854 6.771-2.032 2.431-.178 4.934.112 7.509.872 5.098 1.504 8.558 4.149 10.38 7.933 1.822 3.785 1.928 8.406.317 13.863l-.479 1.622c-.137.464-.255.765-.351.904zm12.921.035c1.035-3.893 1.472-7.122 1.306-9.69-.166-2.567-1.253-4.147-3.261-4.74-1.134-.334-2.2-.229-3.2.315s-1.911 1.354-2.731 2.427-1.57 2.336-2.25 3.786c-.681 1.451-1.267 2.915-1.758 4.393zm45.623 29.444c-1.511 3.906-2.575 7.066-3.196 9.478-.808-.441-1.709-.86-2.705-1.26l-3.363-1.35-3.363-1.351c-.997-.4-1.938-.721-2.824-.96 1.438-3.009 2.853-6.101 4.243-9.274 1.389-3.173 2.914-6.827 4.574-10.963l4.08-10.164c1.659-4.135 3.084-7.829 4.275-11.083 1.189-3.254 2.334-6.539 3.436-9.858.807.44 1.693.896 2.66 1.372.967.475 2.072.962 3.318 1.462 1.245.5 2.381.912 3.408 1.238 1.026.325 1.982.608 2.87.848-.85 1.395-1.911 3.572-3.186 6.531-1.274 2.96-2.643 6.259-4.103 9.895l-2.88 7.175c2.493-1.312 5.188-2.763 8.081-4.35 2.893-1.586 5.687-3.141 8.38-4.663 2.693-1.521 5.137-2.927 7.332-4.215 2.195-1.289 3.806-2.276 4.834-2.963.657.38 1.319.746 1.987 1.102.668.354 1.35.672 2.048.952.697.279 1.422.527 2.175.743.752.215 1.571.443 2.459.683-1.188.508-3.032 1.357-5.536 2.551-2.505 1.193-5.18 2.491-8.027 3.894-2.849 1.402-5.584 2.777-8.207 4.124-2.624 1.349-4.674 2.42-6.15 3.216.614 3.081 1.303 6.481 2.066 10.201s1.538 7.372 2.327 10.956c.787 3.585 1.529 6.892 2.224 9.918s1.299 5.337 1.815 6.933c-1.405-.681-2.681-1.249-3.826-1.709l-3.362-1.35-3.251-1.306c-1.072-.43-2.176-.815-3.312-1.155-1.021-4.806-1.968-9.654-2.838-14.546-.872-4.891-1.798-9.79-2.779-14.696l-.149-.06c-2.179 5.43-4.025 10.098-5.535 14.004zm52.415-2.031c2.344-1.358 4.692-2.146 7.044-2.365 2.352-.218 4.684.241 6.996 1.38 3.612 1.779 5.878 4.196 6.796 7.252.919 3.056.229 6.92-2.072 11.591-1.209 2.457-2.325 4.601-3.347 6.432-1.021 1.83-1.994 3.686-2.919 5.563-.76 1.542-1.547 3.233-2.364 5.074-.817 1.842-1.594 3.63-2.326 5.362-.579-.405-1.351-.844-2.313-1.318l-3.034-1.494-3.034-1.494c-.964-.475-1.782-.818-2.455-1.029 1.569-2.338 3.239-5.183 5.008-8.53s3.732-7.213 5.891-11.596c1.494-3.035 2.072-5.517 1.737-7.448-.337-1.93-1.442-3.358-3.321-4.283-2.167-1.067-4.219-.911-6.155.47-1.937 1.38-3.724 3.731-5.359 7.055l-1.424 2.89c-1.446 2.938-2.774 5.726-3.982 8.362-1.209 2.636-2.286 5.218-3.23 7.744-.579-.405-1.338-.838-2.277-1.301l-3.07-1.512-3.034-1.494c-.915-.451-1.733-.795-2.455-1.029 1.426-2.29 2.816-4.717 4.17-7.282 1.353-2.565 2.752-5.316 4.199-8.255l1.423-2.89c1.446-2.938 2.769-5.713 3.966-8.326 1.196-2.611 2.314-5.278 3.354-7.997.819.523 1.633 1.028 2.44 1.516.807.487 1.645.944 2.511 1.371.867.427 1.739.812 2.618 1.155.878.342 1.822.703 2.834 1.081l-2.957 5.275zm22.357 27.294c1.844-3.088 3.926-5.502 6.247-7.243 2.32-1.741 4.726-2.915 7.216-3.523 2.488-.609 4.986-.682 7.491-.217 2.505.464 4.841 1.342 7.008 2.636 5.394 3.221 8.657 7.232 9.791 12.036 1.133 4.803.146 9.811-2.964 15.019-1.68 2.812-3.608 5.101-5.786 6.863-2.179 1.764-4.492 2.992-6.938 3.688-2.448.695-4.943.816-7.485.361s-5.058-1.425-7.547-2.911c-2.074-1.238-3.948-2.733-5.624-4.483-1.675-1.75-2.927-3.764-3.756-6.041s-1.106-4.771-.831-7.483c.273-2.713 1.333-5.613 3.178-8.702zm25.174 11.56c2.421-4.056 3.792-7.505 4.113-10.347.32-2.841-.694-4.964-3.045-6.367-2.121-1.266-4.535-1.02-7.242.741-2.708 1.76-5.645 5.291-8.81 10.591-1.155 1.937-2.114 3.803-2.874 5.6-.761 1.797-1.24 3.466-1.439 5.003-.199 1.538-.079 2.907.361 4.108.439 1.2 1.305 2.186 2.597 2.956 4.425 2.643 9.872-1.452 16.339-12.285zm66.637 25.74c.78.926 1.536 1.662 2.266 2.212.428.322.87.605 1.327.849l1.616.865c-.721.332-1.822.946-3.306 1.845-1.484.898-3.2 1.992-5.146 3.281-1.947 1.29-4.057 2.707-6.331 4.253-2.275 1.547-4.548 3.111-6.816 4.695-2.27 1.584-4.496 3.133-6.679 4.646-2.185 1.515-4.131 2.871-5.84 4.069-.536-.539-1.093-1.025-1.672-1.462l-1.769-1.333-1.801-1.357c-.601-.452-1.232-.862-1.897-1.229.713-2.017 1.494-4.168 2.343-6.452.848-2.286 1.68-4.549 2.496-6.791.815-2.242 1.621-4.426 2.416-6.55.794-2.124 1.541-4.098 2.244-5.922l-.128-.097c-3.83 2.761-7.6 5.466-11.31 8.115-3.711 2.648-7.353 5.316-10.923 8.003-.536-.54-1.115-1.042-1.736-1.511l-1.833-1.381-1.864-1.406c-.644-.484-1.318-.927-2.026-1.325.723-1.941 1.558-4.187 2.504-6.734.945-2.548 1.883-5.152 2.813-7.812.929-2.661 1.842-5.301 2.74-7.918.896-2.617 1.711-5.013 2.441-7.186.729-2.173 1.348-4.042 1.857-5.608.508-1.566.838-2.629.99-3.187.877.797 1.689 1.525 2.435 2.188.744.662 1.524 1.3 2.339 1.914.771.582 1.578 1.139 2.42 1.673.842.533 1.681 1.049 2.518 1.544-1.783 4.506-3.596 9.14-5.438 13.903s-3.499 9.146-4.968 13.146l.129.097c4.086-2.835 8.019-5.688 11.794-8.556s7.6-5.802 11.473-8.799c.534.538 1.078 1.064 1.631 1.582.551.517 1.127 1.001 1.728 1.453s1.225.872 1.874 1.261c.647.389 1.304.766 1.97 1.133-1.814 4.548-3.561 9.049-5.234 13.5-1.676 4.452-3.355 9.002-5.041 13.646l.128.097c7.98-5.683 15.736-11.467 23.266-17.354zm-730.033 618.581c-1.235 3.408-2.483 6.882-3.743 10.424-1.262 3.542-2.483 7.031-3.663 10.466-1.181 3.435-2.201 6.494-3.059 9.177-1.235-.108-2.604-.161-4.105-.161h-2.093c-.698 0-1.396.053-2.093.161-.591-2.2-1.369-5.044-2.334-8.533-.966-3.488-2.013-7.19-3.14-11.109-1.127-3.916-2.282-7.875-3.461-11.873-1.181-3.998-2.282-7.66-3.301-10.988-1.02-3.327-1.879-6.158-2.576-8.493-.698-2.334-1.155-3.77-1.369-4.307 1.18.108 2.334.201 3.461.282 1.127.08 2.227.12 3.301.12 1.073 0 2.16-.04 3.26-.12 1.099-.081 2.186-.174 3.26-.282.805 3.436 1.663 6.963 2.576 10.586.912 3.622 1.838 7.192 2.777 10.706.938 3.516 1.852 6.923 2.737 10.224s1.703 6.347 2.455 9.137h.161c1.18-3.381 2.455-7.044 3.824-10.988 1.368-3.944 2.697-7.809 3.984-11.592 1.288-3.783 2.468-7.271 3.542-10.465 1.073-3.192 1.905-5.729 2.496-7.607.697.108 1.369.201 2.013.282.644.08 1.314.12 2.012.12.697 0 1.369-.04 2.013-.12.644-.081 1.314-.174 2.013-.282.214 1.182.616 2.765 1.208 4.75.59 1.985 1.274 4.186 2.053 6.601.777 2.415 1.61 4.965 2.495 7.647.886 2.685 1.771 5.341 2.657 7.97.885 2.63 1.703 5.125 2.455 7.486.751 2.362 1.369 4.428 1.852 6.198h.161c1.073-3.381 2.214-7.11 3.421-11.189 1.208-4.078 2.375-8.022 3.501-11.833s2.146-7.298 3.059-10.465c.912-3.166 1.556-5.555 1.932-7.165 1.341.27 2.468.402 3.381.402.59 0 1.194-.04 1.811-.12.617-.081 1.248-.174 1.892-.282-.376 1.021-.966 2.685-1.771 4.991-.805 2.308-1.745 5.031-2.817 8.171-1.074 3.14-2.228 6.561-3.462 10.264-1.235 3.703-2.469 7.434-3.703 11.189-1.235 3.757-2.429 7.434-3.583 11.028-1.155 3.596-2.161 6.816-3.019 9.66-1.235-.108-2.604-.161-4.105-.161h-2.093c-.698 0-1.396.053-2.093.161-1.718-6.547-3.663-13.054-5.836-19.521s-4.468-13.054-6.883-19.763h-.161c-.965 2.735-2.066 5.807-3.3 9.216zm40.895 11.793c0-3.595.549-6.734 1.65-9.419 1.1-2.683 2.562-4.923 4.387-6.722 1.824-1.797 3.931-3.14 6.319-4.024 2.387-.886 4.843-1.329 7.366-1.329 6.279 0 11.136 1.771 14.571 5.313 3.434 3.542 5.152 8.346 5.152 14.409 0 3.274-.483 6.227-1.449 8.855-.966 2.63-2.322 4.87-4.065 6.722-1.745 1.852-3.824 3.233-6.239 4.146s-5.072 1.368-7.97 1.368c-2.415 0-4.79-.321-7.124-.966-2.334-.644-4.441-1.73-6.319-3.26-1.879-1.529-3.395-3.528-4.548-5.997-1.155-2.468-1.731-5.501-1.731-9.096zm27.531-2.979c0-4.722-.591-8.385-1.771-10.988-1.181-2.603-3.14-3.904-5.876-3.904-2.469 0-4.415 1.449-5.836 4.347-1.422 2.898-2.133 7.434-2.133 13.604 0 2.254.133 4.348.403 6.279.268 1.932.71 3.609 1.328 5.031.616 1.423 1.421 2.536 2.415 3.341.992.805 2.24 1.207 3.743 1.207 5.15 0 7.727-6.305 7.727-18.917zm30.428-7.486c1.395-3.703 3.085-6.427 5.072-8.171 1.985-1.743 4.347-2.616 7.084-2.616.268 0 .496.014.684.04.188.027.389.04.604.04-.161.806-.282 1.664-.362 2.576-.081.913-.121 1.986-.121 3.22v3.944c0 .483.026.94.081 1.369l-.725.644c-.537-.321-1.141-.59-1.811-.805-.672-.214-1.437-.322-2.294-.322-2.415 0-4.32.793-5.715 2.375-1.396 1.584-2.093 3.449-2.093 5.595v3.22c0 3.274.04 6.359.121 9.258.081 2.897.254 5.689.523 8.372-.698-.108-1.569-.161-2.616-.161h-6.802c-1.02 0-1.905.053-2.656.161.268-2.683.443-5.475.523-8.372.081-2.898.121-5.983.121-9.258v-3.22c0-3.272-.041-6.346-.121-9.217s-.255-5.756-.523-8.654c.912.108 1.837.201 2.777.282.938.08 1.864.12 2.777.12.912 0 1.838-.04 2.777-.12.938-.081 1.864-.174 2.777-.282l-.242 9.821zm21.091-18.596c-.108-4.4-.269-8.855-.483-13.363.697.108 1.583.201 2.657.282 1.073.08 2.2.12 3.381.12 1.18 0 2.307-.04 3.381-.12 1.073-.081 1.958-.174 2.657-.282-.215 4.508-.376 8.963-.483 13.363-.108 4.401-.161 9.23-.161 14.49v5.232c0 5.26.053 10.09.161 14.489.107 4.401.268 8.775.483 13.122-.698-.108-1.583-.161-2.657-.161h-6.762c-1.074 0-1.96.053-2.657.161.214-4.347.375-8.721.483-13.122.107-4.399.161-9.229.161-14.489v-5.232c0-5.26-.054-10.089-.161-14.49zm56.591 19.723c0 5.26.053 10.09.161 14.489.107 4.401.268 8.775.483 13.122-.698-.108-1.584-.161-2.657-.161h-6.48c-.994 0-1.759.053-2.294.161.053-.108.107-.455.161-1.047.053-.59.121-1.26.201-2.013.081-.75.147-1.448.201-2.093.053-.644.081-1.046.081-1.207l-.161-.161c-1.02 2.415-2.415 4.28-4.186 5.595s-4.213 1.972-7.325 1.972c-2.737 0-5.072-.522-7.004-1.569s-3.516-2.508-4.75-4.387c-1.235-1.878-2.147-4.078-2.737-6.602-.591-2.521-.885-5.232-.885-8.131 0-2.897.402-5.566 1.207-8.01.805-2.441 1.905-4.561 3.301-6.359 1.395-1.797 3.045-3.206 4.951-4.226 1.904-1.02 3.931-1.53 6.078-1.53 2.415 0 4.575.563 6.48 1.691 1.904 1.127 3.313 2.549 4.226 4.266h.161c0-4.829-.054-9.378-.161-13.645-.108-4.267-.269-8.68-.483-13.242.697.108 1.583.201 2.657.282 1.073.08 2.2.12 3.381.12 1.18 0 2.307-.04 3.381-.12 1.073-.081 1.958-.174 2.657-.282-.215 4.508-.376 8.963-.483 13.363-.108 4.401-.161 9.23-.161 14.49zm-25.277 9.176c0 2.737.188 5.045.563 6.923.375 1.879.886 3.395 1.53 4.548.644 1.155 1.381 1.986 2.214 2.496.831.511 1.703.765 2.616.765 2.2 0 4.011-1.248 5.434-3.743 1.421-2.495 2.133-6.642 2.133-12.438 0-4.991-.672-8.626-2.013-10.907-1.342-2.281-3.059-3.422-5.152-3.422-.859 0-1.718.242-2.576.725-.859.483-1.638 1.328-2.334 2.536-.698 1.207-1.275 2.831-1.73 4.87-.457 2.04-.685 4.589-.685 7.647zm87.827-11.631c-1.235 3.408-2.483 6.882-3.743 10.424-1.262 3.542-2.483 7.031-3.663 10.466-1.181 3.435-2.201 6.494-3.059 9.177-1.235-.108-2.604-.161-4.105-.161h-2.093c-.698 0-1.396.053-2.093.161-.591-2.2-1.369-5.044-2.334-8.533-.966-3.488-2.013-7.19-3.14-11.109-1.127-3.916-2.282-7.875-3.461-11.873-1.181-3.998-2.282-7.66-3.301-10.988-1.02-3.327-1.879-6.158-2.576-8.493-.698-2.334-1.155-3.77-1.369-4.307 1.18.108 2.334.201 3.461.282 1.127.08 2.227.12 3.301.12 1.073 0 2.16-.04 3.26-.12 1.099-.081 2.186-.174 3.26-.282.805 3.436 1.663 6.963 2.576 10.586.912 3.622 1.838 7.192 2.777 10.706.938 3.516 1.852 6.923 2.737 10.224s1.703 6.347 2.455 9.137h.161c1.18-3.381 2.455-7.044 3.824-10.988 1.368-3.944 2.697-7.809 3.984-11.592 1.288-3.783 2.468-7.271 3.542-10.465 1.073-3.192 1.905-5.729 2.496-7.607.697.108 1.369.201 2.013.282.644.08 1.314.12 2.012.12.697 0 1.369-.04 2.013-.12.644-.081 1.314-.174 2.013-.282.214 1.182.616 2.765 1.208 4.75.59 1.985 1.274 4.186 2.053 6.601.777 2.415 1.61 4.965 2.495 7.647.886 2.685 1.771 5.341 2.657 7.97.885 2.63 1.703 5.125 2.455 7.486.751 2.362 1.369 4.428 1.852 6.198h.161c1.073-3.381 2.214-7.11 3.421-11.189 1.208-4.078 2.375-8.022 3.501-11.833s2.146-7.298 3.059-10.465c.912-3.166 1.556-5.555 1.932-7.165 1.341.27 2.468.402 3.381.402.59 0 1.194-.04 1.811-.12.617-.081 1.248-.174 1.892-.282-.376 1.021-.966 2.685-1.771 4.991-.805 2.308-1.745 5.031-2.817 8.171-1.074 3.14-2.228 6.561-3.462 10.264-1.235 3.703-2.469 7.434-3.703 11.189-1.235 3.757-2.429 7.434-3.583 11.028-1.155 3.596-2.161 6.816-3.019 9.66-1.235-.108-2.604-.161-4.105-.161h-2.093c-.698 0-1.396.053-2.093.161-1.718-6.547-3.663-13.054-5.836-19.521s-4.468-13.054-6.883-19.763h-.16c-.967 2.735-2.067 5.807-3.301 9.216zm46.287-23.87c0-1.771.616-3.272 1.852-4.508 1.234-1.233 2.737-1.852 4.508-1.852s3.273.618 4.508 1.852c1.234 1.235 1.852 2.737 1.852 4.508s-.617 3.274-1.852 4.509c-1.235 1.234-2.737 1.852-4.508 1.852s-3.274-.617-4.508-1.852c-1.235-1.234-1.852-2.737-1.852-4.509zm.966 33.086c0-3.272-.04-6.346-.121-9.217s-.255-5.756-.523-8.654c.751.108 1.637.201 2.657.282 1.019.08 2.146.12 3.381.12 2.522 0 4.535-.133 6.038-.402-.269 2.898-.443 5.783-.523 8.654s-.121 5.944-.121 9.217v3.22c0 3.274.04 6.359.121 9.258.081 2.897.254 5.689.523 8.372-.698-.108-1.57-.161-2.616-.161h-6.802c-1.02 0-1.906.053-2.657.161.268-2.683.443-5.475.523-8.372.081-2.898.121-5.983.121-9.258zm56.431-6.761c0 5.26.053 10.09.161 14.489.107 4.401.268 8.775.483 13.122-.698-.108-1.584-.161-2.657-.161h-6.48c-.994 0-1.759.053-2.294.161.053-.108.107-.455.161-1.047.053-.59.121-1.26.201-2.013.081-.75.147-1.448.201-2.093.053-.644.081-1.046.081-1.207l-.161-.161c-1.02 2.415-2.415 4.28-4.186 5.595s-4.213 1.972-7.325 1.972c-2.737 0-5.072-.522-7.004-1.569s-3.516-2.508-4.75-4.387c-1.235-1.878-2.147-4.078-2.737-6.602-.591-2.521-.885-5.232-.885-8.131 0-2.897.402-5.566 1.207-8.01.805-2.441 1.905-4.561 3.301-6.359 1.395-1.797 3.045-3.206 4.951-4.226 1.904-1.02 3.931-1.53 6.078-1.53 2.415 0 4.575.563 6.48 1.691 1.904 1.127 3.313 2.549 4.226 4.266h.161c0-4.829-.054-9.378-.161-13.645-.108-4.267-.269-8.68-.483-13.242.697.108 1.583.201 2.657.282 1.073.08 2.2.12 3.381.12 1.18 0 2.307-.04 3.381-.12 1.073-.081 1.958-.174 2.657-.282-.215 4.508-.376 8.963-.483 13.363-.108 4.401-.161 9.23-.161 14.49zm-25.277 9.176c0 2.737.188 5.045.563 6.923.375 1.879.886 3.395 1.53 4.548.644 1.155 1.381 1.986 2.214 2.496.831.511 1.703.765 2.616.765 2.2 0 4.011-1.248 5.434-3.743 1.421-2.495 2.133-6.642 2.133-12.438 0-4.991-.672-8.626-2.013-10.907-1.342-2.281-3.059-3.422-5.152-3.422-.859 0-1.718.242-2.576.725-.859.483-1.638 1.328-2.334 2.536-.698 1.207-1.275 2.831-1.73 4.87-.457 2.04-.685 4.589-.685 7.647zm44.757-.804c0 2.146.214 4.159.644 6.037.429 1.879 1.087 3.502 1.972 4.87.886 1.368 2.013 2.442 3.381 3.22 1.368.779 2.964 1.168 4.79 1.168 3.703 0 7.003-1.208 9.901-3.623l.966.725-1.771 4.508c-1.342 1.021-2.952 1.839-4.83 2.456-1.879.616-4.347.925-7.406.925-2.63 0-5.125-.361-7.486-1.086-2.362-.725-4.441-1.919-6.239-3.583-1.799-1.662-3.22-3.77-4.267-6.318-1.046-2.549-1.569-5.596-1.569-9.138 0-3.487.469-6.521 1.409-9.096.938-2.576 2.24-4.722 3.904-6.44 1.663-1.717 3.635-3.005 5.917-3.864 2.28-.857 4.762-1.288 7.446-1.288 5.313 0 9.378 1.558 12.196 4.67s4.226 7.514 4.226 13.201v1.69c0 .483-.027.806-.081.967zm12.397-3.623c-.108-4.024-.604-7.245-1.489-9.66s-2.375-3.622-4.467-3.622c-1.181 0-2.174.402-2.979 1.207-.805.806-1.449 1.839-1.932 3.1-.483 1.262-.845 2.685-1.087 4.267-.241 1.583-.39 3.153-.443 4.709zm67.46-7.204c-1.235 3.408-2.483 6.882-3.743 10.424-1.262 3.542-2.483 7.031-3.663 10.466-1.181 3.435-2.201 6.494-3.059 9.177-1.235-.108-2.604-.161-4.105-.161h-2.093c-.698 0-1.396.053-2.093.161-.591-2.2-1.369-5.044-2.334-8.533-.966-3.488-2.013-7.19-3.14-11.109-1.127-3.916-2.282-7.875-3.461-11.873-1.181-3.998-2.282-7.66-3.301-10.988-1.02-3.327-1.879-6.158-2.576-8.493-.698-2.334-1.155-3.77-1.369-4.307 1.18.108 2.334.201 3.461.282 1.127.08 2.227.12 3.301.12 1.073 0 2.16-.04 3.26-.12 1.099-.081 2.186-.174 3.26-.282.805 3.436 1.663 6.963 2.576 10.586.912 3.622 1.838 7.192 2.777 10.706.938 3.516 1.852 6.923 2.737 10.224s1.703 6.347 2.455 9.137h.161c1.18-3.381 2.455-7.044 3.824-10.988 1.368-3.944 2.697-7.809 3.984-11.592 1.288-3.783 2.468-7.271 3.542-10.465 1.073-3.192 1.905-5.729 2.496-7.607.697.108 1.369.201 2.013.282.644.08 1.314.12 2.012.12.697 0 1.369-.04 2.013-.12.644-.081 1.313-.174 2.012-.282.214 1.182.616 2.765 1.208 4.75.59 1.985 1.274 4.186 2.053 6.601.777 2.415 1.609 4.965 2.495 7.647.886 2.685 1.771 5.341 2.656 7.97.886 2.63 1.703 5.125 2.456 7.486.751 2.362 1.368 4.428 1.852 6.198h.16c1.073-3.381 2.214-7.11 3.422-11.189 1.207-4.078 2.375-8.022 3.502-11.833s2.146-7.298 3.059-10.465c.912-3.166 1.556-5.555 1.932-7.165 1.341.27 2.468.402 3.382.402.59 0 1.193-.04 1.811-.12.616-.081 1.248-.174 1.892-.282-.376 1.021-.966 2.685-1.771 4.991-.805 2.308-1.745 5.031-2.817 8.171-1.074 3.14-2.228 6.561-3.462 10.264-1.235 3.703-2.469 7.434-3.703 11.189-1.235 3.757-2.429 7.434-3.582 11.028-1.154 3.596-2.161 6.816-3.019 9.66-1.235-.108-2.604-.161-4.105-.161h-2.093c-.698 0-1.396.053-2.094.161-1.718-6.547-3.662-13.054-5.836-19.521-2.173-6.467-4.468-13.054-6.883-19.763h-.161c-.967 2.735-2.067 5.807-3.301 9.216zm52.808 10.827c0 2.146.214 4.159.645 6.037.429 1.879 1.086 3.502 1.972 4.87s2.013 2.442 3.381 3.22c1.369.779 2.965 1.168 4.79 1.168 3.703 0 7.004-1.208 9.901-3.623l.966.725-1.771 4.508c-1.342 1.021-2.952 1.839-4.83 2.456-1.879.616-4.347.925-7.406.925-2.63 0-5.125-.361-7.486-1.086-2.362-.725-4.441-1.919-6.238-3.583-1.799-1.662-3.221-3.77-4.267-6.318-1.047-2.549-1.57-5.596-1.57-9.138 0-3.487.47-6.521 1.409-9.096.938-2.576 2.24-4.722 3.904-6.44 1.663-1.717 3.635-3.005 5.917-3.864 2.28-.857 4.762-1.288 7.445-1.288 5.313 0 9.379 1.558 12.196 4.67s4.227 7.514 4.227 13.201v1.69c0 .483-.028.806-.081.967zm12.397-3.623c-.108-4.024-.604-7.245-1.489-9.66-.886-2.415-2.375-3.622-4.468-3.622-1.182 0-2.174.402-2.979 1.207-.806.806-1.449 1.839-1.933 3.1-.482 1.262-.845 2.685-1.086 4.267-.242 1.583-.391 3.153-.443 4.709zm18.193-9.982c0-5.26-.054-10.089-.161-14.49-.107-4.4-.269-8.855-.482-13.363.696.108 1.582.201 2.656.282 1.073.08 2.2.12 3.381.12 1.18 0 2.307-.04 3.381-.12 1.073-.081 1.959-.174 2.657-.282-.216 4.508-.376 8.963-.483 13.363-.108 4.401-.161 9.23-.161 14.49h.161c.912-2.254 2.32-3.972 4.227-5.152 1.904-1.18 4.065-1.771 6.48-1.771 2.307 0 4.413.511 6.318 1.53s3.542 2.389 4.911 4.105c1.368 1.718 2.428 3.743 3.18 6.077.751 2.335 1.127 4.844 1.127 7.527 0 4.024-.551 7.42-1.65 10.183-1.101 2.765-2.523 5.005-4.267 6.722-1.744 1.719-3.69 2.926-5.836 3.623-2.147.696-4.267 1.046-6.359 1.046-2.576 0-4.75-.496-6.521-1.489-1.771-.992-3.221-2.294-4.348-3.903-1.127.644-2.268 1.396-3.421 2.254-1.154.858-2.322 1.664-3.502 2.415h-1.932c.214-4.509.375-8.977.482-13.403.107-4.428.161-9.271.161-14.53v-5.234zm10.787 13.846c0 2.362.094 4.562.282 6.601.188 2.04.535 3.798 1.046 5.273.51 1.477 1.208 2.644 2.094 3.501.885.859 2.053 1.288 3.501 1.288 2.308 0 4.146-1.435 5.515-4.307 1.368-2.87 2.053-7.579 2.053-14.128 0-9.338-2.308-14.007-6.923-14.007-1.127 0-2.161.27-3.1.806-.939.537-1.744 1.436-2.415 2.696-.672 1.262-1.181 2.898-1.529 4.91-.35 2.013-.524 4.469-.524 7.367z" fill="#00a651"/></svg>