<svg width="650" height="277" viewBox="0 0 650 277" fill="none" xmlns="http://www.w3.org/2000/svg">
<rect x="0.5" y="0.5" width="649" height="276" stroke="black"/>
<rect x="131.5" y="0.5" width="6" height="276" stroke="black"/>
<rect x="403.5" y="0.5" width="6" height="276" stroke="black"/>
<rect x="-0.5" y="-0.5" width="6" height="649" transform="matrix(4.37114e-08 -1 -1 -4.37114e-08 649 42)" stroke="black"/>
<rect x="-0.5" y="-0.5" width="6" height="649" transform="matrix(4.37114e-08 -1 -1 -4.37114e-08 649 153)" stroke="black"/>
<rect x="515.5" y="0.5" width="6" height="276" stroke="black"/>
<line x1="152" y1="56.5" x2="348" y2="56.5" stroke="black"/>
<line x1="152" y1="18.5" x2="244" y2="18.5" stroke="black"/>
<line x1="89" y1="18.5" x2="115" y2="18.5" stroke="black"/>
<line x1="538" y1="18.5" x2="564" y2="18.5" stroke="black"/>
<line x1="575" y1="18.5" x2="619" y2="18.5" stroke="black"/>
<line x1="423" y1="56.5" x2="499" y2="56.5" stroke="black"/>
<line x1="152" y1="63.5" x2="348" y2="63.5" stroke="black"/>
<line x1="423" y1="63.5" x2="499" y2="63.5" stroke="black"/>
<line x1="152" y1="70.5" x2="348" y2="70.5" stroke="black"/>
<line x1="423" y1="70.5" x2="499" y2="70.5" stroke="black"/>
<line x1="152" y1="77.5" x2="348" y2="77.5" stroke="black"/>
<line x1="423" y1="77.5" x2="499" y2="77.5" stroke="black"/>
<line x1="152" y1="84.5" x2="348" y2="84.5" stroke="black"/>
<line x1="423" y1="84.5" x2="499" y2="84.5" stroke="black"/>
<line x1="152" y1="91.5" x2="348" y2="91.5" stroke="black"/>
<line x1="152" y1="98.5" x2="348" y2="98.5" stroke="black"/>
<line x1="152" y1="105.5" x2="348" y2="105.5" stroke="black"/>
<line x1="152" y1="112.5" x2="348" y2="112.5" stroke="black"/>
<line x1="152" y1="119.5" x2="348" y2="119.5" stroke="black"/>
<line x1="152" y1="126.5" x2="348" y2="126.5" stroke="black"/>
<line x1="152" y1="133.5" x2="348" y2="133.5" stroke="black"/>
<line x1="152" y1="186.5" x2="348" y2="186.5" stroke="black"/>
<line x1="152" y1="193.5" x2="348" y2="193.5" stroke="black"/>
<line x1="152" y1="200.5" x2="348" y2="200.5" stroke="black"/>
<line x1="152" y1="207.5" x2="348" y2="207.5" stroke="black"/>
<line x1="152" y1="214.5" x2="348" y2="214.5" stroke="black"/>
<line x1="152" y1="221.5" x2="348" y2="221.5" stroke="black"/>
<line x1="152" y1="228.5" x2="348" y2="228.5" stroke="black"/>
<line x1="152" y1="235.5" x2="348" y2="235.5" stroke="black"/>
<line x1="152" y1="242.5" x2="348" y2="242.5" stroke="black"/>
<line x1="152" y1="249.5" x2="348" y2="249.5" stroke="black"/>
<line x1="152" y1="256.5" x2="348" y2="256.5" stroke="black"/>
<line x1="152" y1="263.5" x2="348" y2="263.5" stroke="black"/>
</svg>